<?xml version="1.0" encoding="UTF-8" standalone="no"?>
<!DOCTYPE svg PUBLIC "-//W3C//DTD SVG 1.1//EN"
 "http://www.w3.org/Graphics/SVG/1.1/DTD/svg11.dtd">
<!-- Generated by graphviz version 2.49.3 (20211027.1501)
 -->
<!-- Title: NekoEngine/include/NekoEngine/ECS/Components/Alien.hpp Pages: 1 -->
<svg width="1328pt" height="563pt"
 viewBox="0.00 0.00 1327.50 563.00" xmlns="http://www.w3.org/2000/svg" xmlns:xlink="http://www.w3.org/1999/xlink">
<g id="graph0" class="graph" transform="scale(1 1) rotate(0) translate(4 559)">
<title>NekoEngine/include/NekoEngine/ECS/Components/Alien.hpp</title>
<!-- Node1 -->
<g id="node1" class="node">
<title>Node1</title>
<g id="a_node1"><a xlink:title="Alien component.">
<polygon fill="#bfbfbf" stroke="black" points="95.5,-513.5 95.5,-554.5 247.5,-554.5 247.5,-513.5 95.5,-513.5"/>
<text text-anchor="start" x="103.5" y="-542.5" font-family="Helvetica,sans-Serif" font-size="10.00">NekoEngine/include</text>
<text text-anchor="start" x="103.5" y="-531.5" font-family="Helvetica,sans-Serif" font-size="10.00">/NekoEngine/ECS/Components</text>
<text text-anchor="middle" x="171.5" y="-520.5" font-family="Helvetica,sans-Serif" font-size="10.00">/Alien.hpp</text>
</a>
</g>
</g>
<!-- Node2 -->
<g id="node2" class="node">
<title>Node2</title>
<g id="a_node2"><a xlink:href="_client_game_8hpp.html" target="_top" xlink:title=" ">
<polygon fill="none" stroke="black" points="0,-78.5 0,-97.5 147,-97.5 147,-78.5 0,-78.5"/>
<text text-anchor="middle" x="73.5" y="-85.5" font-family="Helvetica,sans-Serif" font-size="10.00">Client/include/ClientGame.hpp</text>
</a>
</g>
</g>
<!-- Node1&#45;&gt;Node2 -->
<g id="edge1" class="edge">
<title>Node1&#45;&gt;Node2</title>
<path fill="none" stroke="midnightblue" d="M115.59,-508.82C67.73,-483.91 6.5,-440.11 6.5,-379 6.5,-379 6.5,-379 6.5,-226.5 6.5,-172.86 48.22,-118.26 65.81,-97.61"/>
<polygon fill="midnightblue" stroke="midnightblue" points="114.15,-512.02 124.66,-513.4 117.31,-505.77 114.15,-512.02"/>
</g>
<!-- Node5 -->
<g id="node5" class="node">
<title>Node5</title>
<g id="a_node5"><a xlink:href="_components_8hpp.html" target="_top" xlink:title="Components.">
<polygon fill="none" stroke="black" points="260.5,-435.5 260.5,-476.5 412.5,-476.5 412.5,-435.5 260.5,-435.5"/>
<text text-anchor="start" x="268.5" y="-464.5" font-family="Helvetica,sans-Serif" font-size="10.00">NekoEngine/include</text>
<text text-anchor="start" x="268.5" y="-453.5" font-family="Helvetica,sans-Serif" font-size="10.00">/NekoEngine/ECS/Components</text>
<text text-anchor="middle" x="336.5" y="-442.5" font-family="Helvetica,sans-Serif" font-size="10.00">/Components.hpp</text>
</a>
</g>
</g>
<!-- Node1&#45;&gt;Node5 -->
<g id="edge4" class="edge">
<title>Node1&#45;&gt;Node5</title>
<path fill="none" stroke="midnightblue" d="M223.19,-509.19C246.02,-498.67 272.52,-486.47 294.15,-476.51"/>
<polygon fill="midnightblue" stroke="midnightblue" points="221.61,-506.07 213.99,-513.43 224.54,-512.42 221.61,-506.07"/>
</g>
<!-- Node3 -->
<g id="node3" class="node">
<title>Node3</title>
<g id="a_node3"><a xlink:href="_client_game_8cpp.html" target="_top" xlink:title=" ">
<polygon fill="none" stroke="black" points="8.5,-6 8.5,-25 138.5,-25 138.5,-6 8.5,-6"/>
<text text-anchor="middle" x="73.5" y="-13" font-family="Helvetica,sans-Serif" font-size="10.00">Client/src/ClientGame.cpp</text>
</a>
</g>
</g>
<!-- Node2&#45;&gt;Node3 -->
<g id="edge2" class="edge">
<title>Node2&#45;&gt;Node3</title>
<path fill="none" stroke="midnightblue" d="M73.5,-67.94C73.5,-54.03 73.5,-35.82 73.5,-25.22"/>
<polygon fill="midnightblue" stroke="midnightblue" points="70,-68.36 73.5,-78.36 77,-68.36 70,-68.36"/>
</g>
<!-- Node4 -->
<g id="node4" class="node">
<title>Node4</title>
<g id="a_node4"><a xlink:href="main_8cpp.html" target="_top" xlink:title="Entrypoint.">
<polygon fill="none" stroke="black" points="256.5,-6 256.5,-25 356.5,-25 356.5,-6 256.5,-6"/>
<text text-anchor="middle" x="306.5" y="-13" font-family="Helvetica,sans-Serif" font-size="10.00">Client/src/main.cpp</text>
</a>
</g>
</g>
<!-- Node2&#45;&gt;Node4 -->
<g id="edge3" class="edge">
<title>Node2&#45;&gt;Node4</title>
<path fill="none" stroke="midnightblue" d="M111.36,-75.55C158.09,-61.4 236.51,-37.68 278.3,-25.03"/>
<polygon fill="midnightblue" stroke="midnightblue" points="110.16,-72.25 101.61,-78.5 112.19,-78.95 110.16,-72.25"/>
</g>
<!-- Node6 -->
<g id="node6" class="node">
<title>Node6</title>
<g id="a_node6"><a xlink:href="_client_collision_8hpp.html" target="_top" xlink:title=" ">
<polygon fill="none" stroke="black" points="54.5,-368.5 54.5,-387.5 212.5,-387.5 212.5,-368.5 54.5,-368.5"/>
<text text-anchor="middle" x="133.5" y="-375.5" font-family="Helvetica,sans-Serif" font-size="10.00">Client/include/ClientCollision.hpp</text>
</a>
</g>
</g>
<!-- Node5&#45;&gt;Node6 -->
<g id="edge5" class="edge">
<title>Node5&#45;&gt;Node6</title>
<path fill="none" stroke="midnightblue" d="M274.79,-431.9C234.74,-416.9 184.85,-398.23 156.34,-387.55"/>
<polygon fill="midnightblue" stroke="midnightblue" points="273.63,-435.2 284.22,-435.43 276.08,-428.64 273.63,-435.2"/>
</g>
<!-- Node8 -->
<g id="node8" class="node">
<title>Node8</title>
<g id="a_node8"><a xlink:href="_bonus_system_8hpp.html" target="_top" xlink:title=" ">
<polygon fill="none" stroke="black" points="596.5,-357.5 596.5,-398.5 732.5,-398.5 732.5,-357.5 596.5,-357.5"/>
<text text-anchor="start" x="604.5" y="-386.5" font-family="Helvetica,sans-Serif" font-size="10.00">NekoEngine/include</text>
<text text-anchor="start" x="604.5" y="-375.5" font-family="Helvetica,sans-Serif" font-size="10.00">/NekoEngine/ECS/Systems</text>
<text text-anchor="middle" x="664.5" y="-364.5" font-family="Helvetica,sans-Serif" font-size="10.00">/BonusSystem.hpp</text>
</a>
</g>
</g>
<!-- Node5&#45;&gt;Node8 -->
<g id="edge8" class="edge">
<title>Node5&#45;&gt;Node8</title>
<path fill="none" stroke="midnightblue" d="M422.56,-436.57C471.09,-425.98 532.79,-412.21 587.5,-399 590.32,-398.32 593.19,-397.62 596.1,-396.9"/>
<polygon fill="midnightblue" stroke="midnightblue" points="421.75,-433.16 412.72,-438.71 423.24,-440 421.75,-433.16"/>
</g>
<!-- Node10 -->
<g id="node10" class="node">
<title>Node10</title>
<g id="a_node10"><a xlink:href="_neko_engine_8hpp.html" target="_top" xlink:title=" ">
<polygon fill="none" stroke="black" points="257.5,-212.5 257.5,-242.5 403.5,-242.5 403.5,-212.5 257.5,-212.5"/>
<text text-anchor="start" x="265.5" y="-230.5" font-family="Helvetica,sans-Serif" font-size="10.00">NekoEngine/include</text>
<text text-anchor="middle" x="330.5" y="-219.5" font-family="Helvetica,sans-Serif" font-size="10.00">/NekoEngine/NekoEngine.hpp</text>
</a>
</g>
</g>
<!-- Node5&#45;&gt;Node10 -->
<g id="edge37" class="edge">
<title>Node5&#45;&gt;Node10</title>
<path fill="none" stroke="midnightblue" d="M287.01,-429.56C275.98,-421.38 265.72,-411.21 259.5,-399 248.72,-377.83 265.02,-287.13 269.5,-279 277.86,-263.83 292.76,-251.36 305.75,-242.6"/>
<polygon fill="midnightblue" stroke="midnightblue" points="285.32,-432.64 295.55,-435.42 289.29,-426.87 285.32,-432.64"/>
</g>
<!-- Node12 -->
<g id="node12" class="node">
<title>Node12</title>
<g id="a_node12"><a xlink:href="_window_8hpp.html" target="_top" xlink:title="Contains the NekoEngine Window class wrapper.">
<polygon fill="none" stroke="black" points="676.5,-67.5 676.5,-108.5 790.5,-108.5 790.5,-67.5 676.5,-67.5"/>
<text text-anchor="start" x="684.5" y="-96.5" font-family="Helvetica,sans-Serif" font-size="10.00">NekoEngine/include</text>
<text text-anchor="start" x="684.5" y="-85.5" font-family="Helvetica,sans-Serif" font-size="10.00">/NekoEngine/Graphics</text>
<text text-anchor="middle" x="733.5" y="-74.5" font-family="Helvetica,sans-Serif" font-size="10.00">/Window.hpp</text>
</a>
</g>
</g>
<!-- Node5&#45;&gt;Node12 -->
<g id="edge36" class="edge">
<title>Node5&#45;&gt;Node12</title>
<path fill="none" stroke="midnightblue" d="M423.02,-454.46C528.13,-451.92 696.99,-441.16 741.5,-399 773.71,-368.49 760.5,-345.37 760.5,-301 760.5,-301 760.5,-301 760.5,-226.5 760.5,-183.93 747.88,-135.31 739.9,-108.8"/>
<polygon fill="midnightblue" stroke="midnightblue" points="422.65,-450.97 412.73,-454.69 422.81,-457.97 422.65,-450.97"/>
</g>
<!-- Node25 -->
<g id="node25" class="node">
<title>Node25</title>
<g id="a_node25"><a xlink:href="_collision_8hpp.html" target="_top" xlink:title=" ">
<polygon fill="none" stroke="black" points="268.5,-357.5 268.5,-398.5 404.5,-398.5 404.5,-357.5 268.5,-357.5"/>
<text text-anchor="start" x="276.5" y="-386.5" font-family="Helvetica,sans-Serif" font-size="10.00">NekoEngine/include</text>
<text text-anchor="start" x="276.5" y="-375.5" font-family="Helvetica,sans-Serif" font-size="10.00">/NekoEngine/ECS/Systems</text>
<text text-anchor="middle" x="336.5" y="-364.5" font-family="Helvetica,sans-Serif" font-size="10.00">/Collision.hpp</text>
</a>
</g>
</g>
<!-- Node5&#45;&gt;Node25 -->
<g id="edge33" class="edge">
<title>Node5&#45;&gt;Node25</title>
<path fill="none" stroke="midnightblue" d="M336.5,-425.3C336.5,-416.3 336.5,-406.65 336.5,-398.51"/>
<polygon fill="midnightblue" stroke="midnightblue" points="333,-425.43 336.5,-435.43 340,-425.43 333,-425.43"/>
</g>
<!-- Node27 -->
<g id="node27" class="node">
<title>Node27</title>
<g id="a_node27"><a xlink:href="_animation_system_8cpp.html" target="_top" xlink:title=" ">
<polygon fill="none" stroke="black" points="423,-363 423,-393 578,-393 578,-363 423,-363"/>
<text text-anchor="start" x="431" y="-381" font-family="Helvetica,sans-Serif" font-size="10.00">NekoEngine/src/ECS</text>
<text text-anchor="middle" x="500.5" y="-370" font-family="Helvetica,sans-Serif" font-size="10.00">/Systems/AnimationSystem.cpp</text>
</a>
</g>
</g>
<!-- Node5&#45;&gt;Node27 -->
<g id="edge38" class="edge">
<title>Node5&#45;&gt;Node27</title>
<path fill="none" stroke="midnightblue" d="M388.03,-431.12C414.99,-418.63 447.07,-403.76 470.06,-393.11"/>
<polygon fill="midnightblue" stroke="midnightblue" points="386.34,-428.05 378.73,-435.43 389.28,-434.4 386.34,-428.05"/>
</g>
<!-- Node6&#45;&gt;Node2 -->
<g id="edge6" class="edge">
<title>Node6&#45;&gt;Node2</title>
<path fill="none" stroke="midnightblue" d="M106.43,-363.36C90.75,-353.84 72.4,-339.53 63.5,-321 25.43,-241.79 59.45,-129.25 70.39,-97.58"/>
<polygon fill="midnightblue" stroke="midnightblue" points="104.84,-366.48 115.26,-368.41 108.32,-360.41 104.84,-366.48"/>
</g>
<!-- Node7 -->
<g id="node7" class="node">
<title>Node7</title>
<g id="a_node7"><a xlink:href="_client_collision_8cpp.html" target="_top" xlink:title=" ">
<polygon fill="none" stroke="black" points="72.5,-290.5 72.5,-309.5 212.5,-309.5 212.5,-290.5 72.5,-290.5"/>
<text text-anchor="middle" x="142.5" y="-297.5" font-family="Helvetica,sans-Serif" font-size="10.00">Client/src/ClientCollision.cpp</text>
</a>
</g>
</g>
<!-- Node6&#45;&gt;Node7 -->
<g id="edge7" class="edge">
<title>Node6&#45;&gt;Node7</title>
<path fill="none" stroke="midnightblue" d="M135.72,-358.22C137.56,-342.7 140.09,-321.36 141.48,-309.62"/>
<polygon fill="midnightblue" stroke="midnightblue" points="132.23,-357.94 134.53,-368.28 139.18,-358.76 132.23,-357.94"/>
</g>
<!-- Node9 -->
<g id="node9" class="node">
<title>Node9</title>
<g id="a_node9"><a xlink:href="_systems_8hpp.html" target="_top" xlink:title="Systems.">
<polygon fill="none" stroke="black" points="414.5,-279.5 414.5,-320.5 550.5,-320.5 550.5,-279.5 414.5,-279.5"/>
<text text-anchor="start" x="422.5" y="-308.5" font-family="Helvetica,sans-Serif" font-size="10.00">NekoEngine/include</text>
<text text-anchor="start" x="422.5" y="-297.5" font-family="Helvetica,sans-Serif" font-size="10.00">/NekoEngine/ECS/Systems</text>
<text text-anchor="middle" x="482.5" y="-286.5" font-family="Helvetica,sans-Serif" font-size="10.00">/Systems.hpp</text>
</a>
</g>
</g>
<!-- Node8&#45;&gt;Node9 -->
<g id="edge9" class="edge">
<title>Node8&#45;&gt;Node9</title>
<path fill="none" stroke="midnightblue" d="M608.15,-353.47C582.82,-342.89 553.28,-330.56 529.21,-320.51"/>
<polygon fill="midnightblue" stroke="midnightblue" points="607.05,-356.8 617.63,-357.43 609.75,-350.34 607.05,-356.8"/>
</g>
<!-- Node24 -->
<g id="node24" class="node">
<title>Node24</title>
<g id="a_node24"><a xlink:href="_bonus_system_8cpp.html" target="_top" xlink:title=" ">
<polygon fill="none" stroke="black" points="592.5,-285 592.5,-315 732.5,-315 732.5,-285 592.5,-285"/>
<text text-anchor="start" x="600.5" y="-303" font-family="Helvetica,sans-Serif" font-size="10.00">NekoEngine/src/ECS</text>
<text text-anchor="middle" x="662.5" y="-292" font-family="Helvetica,sans-Serif" font-size="10.00">/Systems/BonusSystem.cpp</text>
</a>
</g>
</g>
<!-- Node8&#45;&gt;Node24 -->
<g id="edge32" class="edge">
<title>Node8&#45;&gt;Node24</title>
<path fill="none" stroke="midnightblue" d="M663.72,-347.28C663.43,-336.25 663.11,-324.25 662.87,-315.23"/>
<polygon fill="midnightblue" stroke="midnightblue" points="660.22,-347.52 663.98,-357.43 667.22,-347.34 660.22,-347.52"/>
</g>
<!-- Node9&#45;&gt;Node10 -->
<g id="edge10" class="edge">
<title>Node9&#45;&gt;Node10</title>
<path fill="none" stroke="midnightblue" d="M430.79,-275.02C407.59,-264.25 381.01,-251.93 361.05,-242.67"/>
<polygon fill="midnightblue" stroke="midnightblue" points="429.62,-278.33 440.16,-279.36 432.56,-271.98 429.62,-278.33"/>
</g>
<!-- Node22 -->
<g id="node22" class="node">
<title>Node22</title>
<g id="a_node22"><a xlink:href="_timer_system_8cpp.html" target="_top" xlink:title=" ">
<polygon fill="none" stroke="black" points="562,-212.5 562,-242.5 699,-242.5 699,-212.5 562,-212.5"/>
<text text-anchor="start" x="570" y="-230.5" font-family="Helvetica,sans-Serif" font-size="10.00">NekoEngine/src/ECS</text>
<text text-anchor="middle" x="630.5" y="-219.5" font-family="Helvetica,sans-Serif" font-size="10.00">/Systems/TimerSystem.cpp</text>
</a>
</g>
</g>
<!-- Node9&#45;&gt;Node22 -->
<g id="edge30" class="edge">
<title>Node9&#45;&gt;Node22</title>
<path fill="none" stroke="midnightblue" d="M532.85,-275.02C555.44,-264.25 581.32,-251.93 600.75,-242.67"/>
<polygon fill="midnightblue" stroke="midnightblue" points="531.25,-271.9 523.73,-279.36 534.26,-278.22 531.25,-271.9"/>
</g>
<!-- Node23 -->
<g id="node23" class="node">
<title>Node23</title>
<g id="a_node23"><a xlink:href="_scene_8cpp.html" target="_top" xlink:title="For the love of god.">
<polygon fill="none" stroke="black" points="421.5,-212.5 421.5,-242.5 543.5,-242.5 543.5,-212.5 421.5,-212.5"/>
<text text-anchor="start" x="429.5" y="-230.5" font-family="Helvetica,sans-Serif" font-size="10.00">NekoEngine/src/Scenes</text>
<text text-anchor="middle" x="482.5" y="-219.5" font-family="Helvetica,sans-Serif" font-size="10.00">/Scene.cpp</text>
</a>
</g>
</g>
<!-- Node9&#45;&gt;Node23 -->
<g id="edge31" class="edge">
<title>Node9&#45;&gt;Node23</title>
<path fill="none" stroke="midnightblue" d="M482.5,-269.08C482.5,-260.01 482.5,-250.45 482.5,-242.89"/>
<polygon fill="midnightblue" stroke="midnightblue" points="479,-269.36 482.5,-279.36 486,-269.36 479,-269.36"/>
</g>
<!-- Node10&#45;&gt;Node2 -->
<g id="edge11" class="edge">
<title>Node10&#45;&gt;Node2</title>
<path fill="none" stroke="midnightblue" d="M247.4,-216.94C190.98,-208.86 122.88,-195.45 101.5,-176 78.5,-155.07 74.3,-115.19 73.6,-97.65"/>
<polygon fill="midnightblue" stroke="midnightblue" points="247.04,-220.43 257.42,-218.34 248,-213.5 247.04,-220.43"/>
</g>
<!-- Node10&#45;&gt;Node4 -->
<g id="edge28" class="edge">
<title>Node10&#45;&gt;Node4</title>
<path fill="none" stroke="midnightblue" d="M328.17,-202.44C325.1,-171.2 319.38,-114.97 313.5,-67 311.69,-52.24 309.24,-35.1 307.77,-25.07"/>
<polygon fill="midnightblue" stroke="midnightblue" points="324.69,-202.79 329.15,-212.4 331.66,-202.11 324.69,-202.79"/>
</g>
<!-- Node11 -->
<g id="node11" class="node">
<title>Node11</title>
<g id="a_node11"><a xlink:href="_custom_client_8hpp.html" target="_top" xlink:title=" ">
<polygon fill="none" stroke="black" points="361,-151 361,-170 516,-170 516,-151 361,-151"/>
<text text-anchor="middle" x="438.5" y="-158" font-family="Helvetica,sans-Serif" font-size="10.00">Client/include/CustomClient.hpp</text>
</a>
</g>
</g>
<!-- Node10&#45;&gt;Node11 -->
<g id="edge12" class="edge">
<title>Node10&#45;&gt;Node11</title>
<path fill="none" stroke="midnightblue" d="M362.67,-207.14C383.19,-194.79 408.78,-179.39 424.37,-170.01"/>
<polygon fill="midnightblue" stroke="midnightblue" points="360.7,-204.24 353.93,-212.4 364.31,-210.24 360.7,-204.24"/>
</g>
<!-- Node19 -->
<g id="node19" class="node">
<title>Node19</title>
<g id="a_node19"><a xlink:href="_player_system_8hpp.html" target="_top" xlink:title=" ">
<polygon fill="none" stroke="black" points="110.5,-151 110.5,-170 266.5,-170 266.5,-151 110.5,-151"/>
<text text-anchor="middle" x="188.5" y="-158" font-family="Helvetica,sans-Serif" font-size="10.00">Client/include/PlayerSystem.hpp</text>
</a>
</g>
</g>
<!-- Node10&#45;&gt;Node19 -->
<g id="edge24" class="edge">
<title>Node10&#45;&gt;Node19</title>
<path fill="none" stroke="midnightblue" d="M290.37,-208.13C263.04,-195.62 228.13,-179.64 207.08,-170.01"/>
<polygon fill="midnightblue" stroke="midnightblue" points="289.14,-211.42 299.69,-212.4 292.05,-205.05 289.14,-211.42"/>
</g>
<!-- Node20 -->
<g id="node20" class="node">
<title>Node20</title>
<g id="a_node20"><a xlink:href="_player_system_8cpp.html" target="_top" xlink:title=" ">
<polygon fill="none" stroke="black" points="165,-78.5 165,-97.5 304,-97.5 304,-78.5 165,-78.5"/>
<text text-anchor="middle" x="234.5" y="-85.5" font-family="Helvetica,sans-Serif" font-size="10.00">Client/src/PlayerSystem.cpp</text>
</a>
</g>
</g>
<!-- Node10&#45;&gt;Node20 -->
<g id="edge27" class="edge">
<title>Node10&#45;&gt;Node20</title>
<path fill="none" stroke="midnightblue" d="M315.53,-203.82C304.6,-187.38 289.33,-164.68 275.5,-145 263.58,-128.05 249.17,-108.59 241,-97.66"/>
<polygon fill="midnightblue" stroke="midnightblue" points="312.68,-205.85 321.12,-212.25 318.51,-201.98 312.68,-205.85"/>
</g>
<!-- Node21 -->
<g id="node21" class="node">
<title>Node21</title>
<g id="a_node21"><a xlink:href="_pattern_system_8cpp.html" target="_top" xlink:title="Physics System class implementation.">
<polygon fill="none" stroke="black" points="534,-145.5 534,-175.5 677,-175.5 677,-145.5 534,-145.5"/>
<text text-anchor="start" x="542" y="-163.5" font-family="Helvetica,sans-Serif" font-size="10.00">NekoEngine/src/ECS</text>
<text text-anchor="middle" x="605.5" y="-152.5" font-family="Helvetica,sans-Serif" font-size="10.00">/Systems/PatternSystem.cpp</text>
</a>
</g>
</g>
<!-- Node10&#45;&gt;Node21 -->
<g id="edge29" class="edge">
<title>Node10&#45;&gt;Node21</title>
<path fill="none" stroke="midnightblue" d="M399.81,-210.12C444.8,-199.48 502.85,-185.76 545.8,-175.61"/>
<polygon fill="midnightblue" stroke="midnightblue" points="398.76,-206.77 389.83,-212.48 400.37,-213.58 398.76,-206.77"/>
</g>
<!-- Node11&#45;&gt;Node4 -->
<g id="edge13" class="edge">
<title>Node11&#45;&gt;Node4</title>
<path fill="none" stroke="midnightblue" d="M423.64,-143.41C395.67,-113.1 336.05,-48.51 314.49,-25.15"/>
<polygon fill="midnightblue" stroke="midnightblue" points="421.28,-146.01 430.64,-150.98 426.43,-141.26 421.28,-146.01"/>
</g>
<!-- Node11&#45;&gt;Node12 -->
<g id="edge14" class="edge">
<title>Node11&#45;&gt;Node12</title>
<path fill="none" stroke="midnightblue" d="M483.97,-148.63C535.66,-136.28 620.14,-116.09 676.27,-102.68"/>
<polygon fill="midnightblue" stroke="midnightblue" points="483,-145.27 474.08,-151 484.62,-152.08 483,-145.27"/>
</g>
<!-- Node18 -->
<g id="node18" class="node">
<title>Node18</title>
<g id="a_node18"><a xlink:href="_window_8cpp.html" target="_top" xlink:title="Contains the NekoEngine Window class implementation.">
<polygon fill="none" stroke="black" points="374.5,-0.5 374.5,-30.5 502.5,-30.5 502.5,-0.5 374.5,-0.5"/>
<text text-anchor="start" x="382.5" y="-18.5" font-family="Helvetica,sans-Serif" font-size="10.00">NekoEngine/src/Graphics</text>
<text text-anchor="middle" x="438.5" y="-7.5" font-family="Helvetica,sans-Serif" font-size="10.00">/Window.cpp</text>
</a>
</g>
</g>
<!-- Node11&#45;&gt;Node18 -->
<g id="edge23" class="edge">
<title>Node11&#45;&gt;Node18</title>
<path fill="none" stroke="midnightblue" d="M438.5,-140.62C438.5,-111.65 438.5,-56.85 438.5,-30.86"/>
<polygon fill="midnightblue" stroke="midnightblue" points="435,-140.98 438.5,-150.98 442,-140.98 435,-140.98"/>
</g>
<!-- Node12&#45;&gt;Node4 -->
<g id="edge15" class="edge">
<title>Node12&#45;&gt;Node4</title>
<path fill="none" stroke="midnightblue" d="M666.37,-78.63C592.36,-68.97 469.93,-51.73 365.5,-31 356.81,-29.27 347.47,-27.12 338.84,-25"/>
<polygon fill="midnightblue" stroke="midnightblue" points="666.12,-82.13 676.49,-79.94 667.02,-75.19 666.12,-82.13"/>
</g>
<!-- Node12&#45;&gt;Node10 -->
<g id="edge16" class="edge">
<title>Node12&#45;&gt;Node10</title>
<path fill="none" stroke="midnightblue" d="M725.31,-118.51C718.29,-138.05 706.13,-162.48 686.5,-176 635.92,-210.83 473.2,-202.65 412.5,-212 409.64,-212.44 406.73,-212.9 403.79,-213.37"/>
<polygon fill="midnightblue" stroke="midnightblue" points="728.7,-119.41 728.52,-108.82 722.05,-117.21 728.7,-119.41"/>
</g>
<!-- Node13 -->
<g id="node13" class="node">
<title>Node13</title>
<g id="a_node13"><a xlink:href="_background_system_8cpp.html" target="_top" xlink:title=" ">
<polygon fill="none" stroke="black" points="1155.5,-0.5 1155.5,-30.5 1319.5,-30.5 1319.5,-0.5 1155.5,-0.5"/>
<text text-anchor="start" x="1163.5" y="-18.5" font-family="Helvetica,sans-Serif" font-size="10.00">NekoEngine/src/ECS</text>
<text text-anchor="middle" x="1237.5" y="-7.5" font-family="Helvetica,sans-Serif" font-size="10.00">/Systems/BackgroundSystem.cpp</text>
</a>
</g>
</g>
<!-- Node12&#45;&gt;Node13 -->
<g id="edge17" class="edge">
<title>Node12&#45;&gt;Node13</title>
<path fill="none" stroke="midnightblue" d="M800.84,-78.36C882.65,-67.75 1024.82,-48.94 1146.5,-31 1149.35,-30.58 1152.25,-30.15 1155.17,-29.71"/>
<polygon fill="midnightblue" stroke="midnightblue" points="800.15,-74.92 790.68,-79.67 801.05,-81.86 800.15,-74.92"/>
</g>
<!-- Node14 -->
<g id="node14" class="node">
<title>Node14</title>
<g id="a_node14"><a xlink:href="_mouse_system_8cpp.html" target="_top" xlink:title=" ">
<polygon fill="none" stroke="black" points="521,-0.5 521,-30.5 662,-30.5 662,-0.5 521,-0.5"/>
<text text-anchor="start" x="529" y="-18.5" font-family="Helvetica,sans-Serif" font-size="10.00">NekoEngine/src/ECS</text>
<text text-anchor="middle" x="591.5" y="-7.5" font-family="Helvetica,sans-Serif" font-size="10.00">/Systems/MouseSystem.cpp</text>
</a>
</g>
</g>
<!-- Node12&#45;&gt;Node14 -->
<g id="edge18" class="edge">
<title>Node12&#45;&gt;Node14</title>
<path fill="none" stroke="midnightblue" d="M684.9,-62.87C663.3,-52.15 638.61,-39.89 620.04,-30.67"/>
<polygon fill="midnightblue" stroke="midnightblue" points="683.43,-66.05 693.95,-67.36 686.54,-59.78 683.43,-66.05"/>
</g>
<!-- Node15 -->
<g id="node15" class="node">
<title>Node15</title>
<g id="a_node15"><a xlink:href="_parallax_system_8cpp.html" target="_top" xlink:title=" ">
<polygon fill="none" stroke="black" points="680.5,-0.5 680.5,-30.5 826.5,-30.5 826.5,-0.5 680.5,-0.5"/>
<text text-anchor="start" x="688.5" y="-18.5" font-family="Helvetica,sans-Serif" font-size="10.00">NekoEngine/src/ECS</text>
<text text-anchor="middle" x="753.5" y="-7.5" font-family="Helvetica,sans-Serif" font-size="10.00">/Systems/ParallaxSystem.cpp</text>
</a>
</g>
</g>
<!-- Node12&#45;&gt;Node15 -->
<g id="edge19" class="edge">
<title>Node12&#45;&gt;Node15</title>
<path fill="none" stroke="midnightblue" d="M741.82,-57.67C744.44,-48.42 747.23,-38.61 749.42,-30.89"/>
<polygon fill="midnightblue" stroke="midnightblue" points="738.43,-56.79 739.07,-67.36 745.17,-58.7 738.43,-56.79"/>
</g>
<!-- Node16 -->
<g id="node16" class="node">
<title>Node16</title>
<g id="a_node16"><a xlink:href="_render_system_8cpp.html" target="_top" xlink:title="Render System class implementation.">
<polygon fill="none" stroke="black" points="845,-0.5 845,-30.5 988,-30.5 988,-0.5 845,-0.5"/>
<text text-anchor="start" x="853" y="-18.5" font-family="Helvetica,sans-Serif" font-size="10.00">NekoEngine/src/ECS</text>
<text text-anchor="middle" x="916.5" y="-7.5" font-family="Helvetica,sans-Serif" font-size="10.00">/Systems/RenderSystem.cpp</text>
</a>
</g>
</g>
<!-- Node12&#45;&gt;Node16 -->
<g id="edge20" class="edge">
<title>Node12&#45;&gt;Node16</title>
<path fill="none" stroke="midnightblue" d="M793.94,-63.72C822.4,-52.75 855.42,-40.03 880,-30.56"/>
<polygon fill="midnightblue" stroke="midnightblue" points="792.55,-60.5 784.48,-67.36 795.07,-67.03 792.55,-60.5"/>
</g>
<!-- Node17 -->
<g id="node17" class="node">
<title>Node17</title>
<g id="a_node17"><a xlink:href="_text_system_8cpp.html" target="_top" xlink:title=" ">
<polygon fill="none" stroke="black" points="1006,-0.5 1006,-30.5 1137,-30.5 1137,-0.5 1006,-0.5"/>
<text text-anchor="start" x="1014" y="-18.5" font-family="Helvetica,sans-Serif" font-size="10.00">NekoEngine/src/ECS</text>
<text text-anchor="middle" x="1071.5" y="-7.5" font-family="Helvetica,sans-Serif" font-size="10.00">/Systems/TextSystem.cpp</text>
</a>
</g>
</g>
<!-- Node12&#45;&gt;Node17 -->
<g id="edge21" class="edge">
<title>Node12&#45;&gt;Node17</title>
<path fill="none" stroke="midnightblue" d="M800.89,-72.94C860.43,-60.52 946.73,-42.52 1005.77,-30.21"/>
<polygon fill="midnightblue" stroke="midnightblue" points="799.91,-69.57 790.84,-75.04 801.34,-76.42 799.91,-69.57"/>
</g>
<!-- Node12&#45;&gt;Node18 -->
<g id="edge22" class="edge">
<title>Node12&#45;&gt;Node18</title>
<path fill="none" stroke="midnightblue" d="M666.33,-70.95C615.31,-58.75 545.85,-42.16 497.08,-30.5"/>
<polygon fill="midnightblue" stroke="midnightblue" points="665.73,-74.4 676.27,-73.32 667.36,-67.59 665.73,-74.4"/>
</g>
<!-- Node19&#45;&gt;Node2 -->
<g id="edge25" class="edge">
<title>Node19&#45;&gt;Node2</title>
<path fill="none" stroke="midnightblue" d="M165.86,-145.62C142.65,-131.39 107.26,-109.7 87.72,-97.72"/>
<polygon fill="midnightblue" stroke="midnightblue" points="164.04,-148.61 174.4,-150.86 167.7,-142.64 164.04,-148.61"/>
</g>
<!-- Node19&#45;&gt;Node20 -->
<g id="edge26" class="edge">
<title>Node19&#45;&gt;Node20</title>
<path fill="none" stroke="midnightblue" d="M199.86,-142.09C209.05,-128 221.62,-108.74 228.81,-97.72"/>
<polygon fill="midnightblue" stroke="midnightblue" points="196.67,-140.57 194.14,-150.86 202.54,-144.39 196.67,-140.57"/>
</g>
<!-- Node25&#45;&gt;Node9 -->
<g id="edge34" class="edge">
<title>Node25&#45;&gt;Node9</title>
<path fill="none" stroke="midnightblue" d="M383.05,-352.77C403.06,-342.35 426.14,-330.34 445.03,-320.51"/>
<polygon fill="midnightblue" stroke="midnightblue" points="381.35,-349.71 374.1,-357.43 384.58,-355.92 381.35,-349.71"/>
</g>
<!-- Node26 -->
<g id="node26" class="node">
<title>Node26</title>
<g id="a_node26"><a xlink:href="_collision_8cpp.html" target="_top" xlink:title=" ">
<polygon fill="none" stroke="black" points="278.5,-285 278.5,-315 394.5,-315 394.5,-285 278.5,-285"/>
<text text-anchor="start" x="286.5" y="-303" font-family="Helvetica,sans-Serif" font-size="10.00">NekoEngine/src/ECS</text>
<text text-anchor="middle" x="336.5" y="-292" font-family="Helvetica,sans-Serif" font-size="10.00">/Systems/Collision.cpp</text>
</a>
</g>
</g>
<!-- Node25&#45;&gt;Node26 -->
<g id="edge35" class="edge">
<title>Node25&#45;&gt;Node26</title>
<path fill="none" stroke="midnightblue" d="M336.5,-347.28C336.5,-336.25 336.5,-324.25 336.5,-315.23"/>
<polygon fill="midnightblue" stroke="midnightblue" points="333,-347.43 336.5,-357.43 340,-347.43 333,-347.43"/>
</g>
</g>
</svg>
