<?xml version="1.0" encoding="UTF-8" standalone="no"?>
<!DOCTYPE svg PUBLIC "-//W3C//DTD SVG 1.1//EN"
 "http://www.w3.org/Graphics/SVG/1.1/DTD/svg11.dtd">
<!-- Generated by graphviz version 2.49.3 (20211027.1501)
 -->
<!-- Title: NekoEngine/src/ECS/Systems/AnimationSystem.cpp Pages: 1 -->
<svg width="3125pt" height="564pt"
 viewBox="0.00 0.00 3124.50 564.00" xmlns="http://www.w3.org/2000/svg" xmlns:xlink="http://www.w3.org/1999/xlink">
<g id="graph0" class="graph" transform="scale(1 1) rotate(0) translate(4 560)">
<title>NekoEngine/src/ECS/Systems/AnimationSystem.cpp</title>
<!-- Node1 -->
<g id="node1" class="node">
<title>Node1</title>
<g id="a_node1"><a xlink:title=" ">
<polygon fill="#bfbfbf" stroke="black" points="887.5,-525.5 887.5,-555.5 1042.5,-555.5 1042.5,-525.5 887.5,-525.5"/>
<text text-anchor="start" x="895.5" y="-543.5" font-family="Helvetica,sans-Serif" font-size="10.00">NekoEngine/src/ECS</text>
<text text-anchor="middle" x="965" y="-532.5" font-family="Helvetica,sans-Serif" font-size="10.00">/Systems/AnimationSystem.cpp</text>
</a>
</g>
</g>
<!-- Node2 -->
<g id="node2" class="node">
<title>Node2</title>
<g id="a_node2"><a xlink:href="_coordinator_8hpp.html" target="_top" xlink:title="Coordinator class.">
<polygon fill="none" stroke="black" points="613,-464 613,-483 775,-483 775,-464 613,-464"/>
<text text-anchor="middle" x="694" y="-471" font-family="Helvetica,sans-Serif" font-size="10.00">NekoEngine/ECS/Coordinator.hpp</text>
</a>
</g>
</g>
<!-- Node1&#45;&gt;Node2 -->
<g id="edge1" class="edge">
<title>Node1&#45;&gt;Node2</title>
<path fill="none" stroke="midnightblue" d="M906.53,-525.48C856.48,-513.47 785.43,-496.43 739.52,-485.42"/>
<polygon fill="midnightblue" stroke="midnightblue" points="740.1,-481.96 729.56,-483.03 738.47,-488.76 740.1,-481.96"/>
</g>
<!-- Node21 -->
<g id="node21" class="node">
<title>Node21</title>
<g id="a_node21"><a xlink:href="_animation_system_8hpp.html" target="_top" xlink:title=" ">
<polygon fill="none" stroke="black" points="851.5,-458.5 851.5,-488.5 984.5,-488.5 984.5,-458.5 851.5,-458.5"/>
<text text-anchor="start" x="859.5" y="-476.5" font-family="Helvetica,sans-Serif" font-size="10.00">NekoEngine/ECS/Systems</text>
<text text-anchor="middle" x="918" y="-465.5" font-family="Helvetica,sans-Serif" font-size="10.00">/AnimationSystem.hpp</text>
</a>
</g>
</g>
<!-- Node1&#45;&gt;Node21 -->
<g id="edge32" class="edge">
<title>Node1&#45;&gt;Node21</title>
<path fill="none" stroke="midnightblue" d="M954.8,-525.4C948.77,-517.05 940.98,-506.29 934.13,-496.81"/>
<polygon fill="midnightblue" stroke="midnightblue" points="936.87,-494.63 928.18,-488.58 931.2,-498.73 936.87,-494.63"/>
</g>
<!-- Node22 -->
<g id="node22" class="node">
<title>Node22</title>
<g id="a_node22"><a xlink:href="_components_8hpp.html" target="_top" xlink:title="Components.">
<polygon fill="none" stroke="black" points="1853.5,-257.5 1853.5,-287.5 2002.5,-287.5 2002.5,-257.5 1853.5,-257.5"/>
<text text-anchor="start" x="1861.5" y="-275.5" font-family="Helvetica,sans-Serif" font-size="10.00">NekoEngine/ECS/Components</text>
<text text-anchor="middle" x="1928" y="-264.5" font-family="Helvetica,sans-Serif" font-size="10.00">/Components.hpp</text>
</a>
</g>
</g>
<!-- Node1&#45;&gt;Node22 -->
<g id="edge34" class="edge">
<title>Node1&#45;&gt;Node22</title>
<path fill="none" stroke="midnightblue" d="M972.95,-525.48C984.24,-506.94 1006.72,-474.66 1035,-458 1299.86,-301.94 1676.71,-276.48 1843.27,-273.28"/>
<polygon fill="midnightblue" stroke="midnightblue" points="1843.51,-276.78 1853.45,-273.11 1843.39,-269.78 1843.51,-276.78"/>
</g>
<!-- Node48 -->
<g id="node48" class="node">
<title>Node48</title>
<g id="a_node48"><a xlink:title=" ">
<polygon fill="none" stroke="#bfbfbf" points="1044,-464 1044,-483 1098,-483 1098,-464 1044,-464"/>
<text text-anchor="middle" x="1071" y="-471" font-family="Helvetica,sans-Serif" font-size="10.00">iostream</text>
</a>
</g>
</g>
<!-- Node1&#45;&gt;Node48 -->
<g id="edge67" class="edge">
<title>Node1&#45;&gt;Node48</title>
<path fill="none" stroke="midnightblue" d="M988,-525.4C1005.94,-514.39 1030.72,-499.2 1048.52,-488.28"/>
<polygon fill="midnightblue" stroke="midnightblue" points="1050.43,-491.22 1057.13,-483.01 1046.77,-485.25 1050.43,-491.22"/>
</g>
<!-- Node3 -->
<g id="node3" class="node">
<title>Node3</title>
<g id="a_node3"><a xlink:href="_component_manager_8hpp.html" target="_top" xlink:title="Component Manmager class.">
<polygon fill="none" stroke="black" points="440,-391.5 440,-421.5 584,-421.5 584,-391.5 440,-391.5"/>
<text text-anchor="start" x="448" y="-409.5" font-family="Helvetica,sans-Serif" font-size="10.00">NekoEngine/ECS/Component</text>
<text text-anchor="middle" x="512" y="-398.5" font-family="Helvetica,sans-Serif" font-size="10.00">Manager.hpp</text>
</a>
</g>
</g>
<!-- Node2&#45;&gt;Node3 -->
<g id="edge2" class="edge">
<title>Node2&#45;&gt;Node3</title>
<path fill="none" stroke="midnightblue" d="M669.83,-463.87C642.17,-453.99 596.14,-437.55 560.91,-424.97"/>
<polygon fill="midnightblue" stroke="midnightblue" points="561.87,-421.6 551.28,-421.53 559.52,-428.19 561.87,-421.6"/>
</g>
<!-- Node14 -->
<g id="node14" class="node">
<title>Node14</title>
<g id="a_node14"><a xlink:href="_entity_manager_8hpp.html" target="_top" xlink:title="Entities are fun.">
<polygon fill="none" stroke="black" points="0,-330 0,-349 174,-349 174,-330 0,-330"/>
<text text-anchor="middle" x="87" y="-337" font-family="Helvetica,sans-Serif" font-size="10.00">NekoEngine/ECS/EntityManager.hpp</text>
</a>
</g>
</g>
<!-- Node2&#45;&gt;Node14 -->
<g id="edge17" class="edge">
<title>Node2&#45;&gt;Node14</title>
<path fill="none" stroke="midnightblue" d="M646.36,-463.99C593.58,-454.41 506.01,-438.08 431,-422 322.77,-398.8 196.3,-367.84 131.01,-351.57"/>
<polygon fill="midnightblue" stroke="midnightblue" points="131.62,-348.11 121.07,-349.08 129.92,-354.9 131.62,-348.11"/>
</g>
<!-- Node16 -->
<g id="node16" class="node">
<title>Node16</title>
<g id="a_node16"><a xlink:href="_system_manager_8hpp.html" target="_top" xlink:title=" ">
<polygon fill="none" stroke="black" points="602.5,-397 602.5,-416 785.5,-416 785.5,-397 602.5,-397"/>
<text text-anchor="middle" x="694" y="-404" font-family="Helvetica,sans-Serif" font-size="10.00">NekoEngine/ECS/SystemManager.hpp</text>
</a>
</g>
</g>
<!-- Node2&#45;&gt;Node16 -->
<g id="edge22" class="edge">
<title>Node2&#45;&gt;Node16</title>
<path fill="none" stroke="midnightblue" d="M689.21,-463.73C687.2,-454.18 686.74,-438.62 687.82,-426.28"/>
<polygon fill="midnightblue" stroke="midnightblue" points="691.32,-426.52 689.24,-416.13 684.38,-425.54 691.32,-426.52"/>
</g>
<!-- Node20 -->
<g id="node20" class="node">
<title>Node20</title>
<g id="a_node20"><a xlink:title=" ">
<polygon fill="none" stroke="#bfbfbf" points="804,-397 804,-416 886,-416 886,-397 804,-397"/>
<text text-anchor="middle" x="845" y="-404" font-family="Helvetica,sans-Serif" font-size="10.00">Coordinator.tpp</text>
</a>
</g>
</g>
<!-- Node2&#45;&gt;Node20 -->
<g id="edge31" class="edge">
<title>Node2&#45;&gt;Node20</title>
<path fill="none" stroke="midnightblue" d="M714.05,-463.87C740,-452.7 785.42,-433.15 815.36,-420.26"/>
<polygon fill="midnightblue" stroke="midnightblue" points="817.06,-423.34 824.87,-416.17 814.3,-416.91 817.06,-423.34"/>
</g>
<!-- Node4 -->
<g id="node4" class="node">
<title>Node4</title>
<g id="a_node4"><a xlink:title=" ">
<polygon fill="none" stroke="#bfbfbf" points="178,-263 178,-282 216,-282 216,-263 178,-263"/>
<text text-anchor="middle" x="197" y="-270" font-family="Helvetica,sans-Serif" font-size="10.00">array</text>
</a>
</g>
</g>
<!-- Node3&#45;&gt;Node4 -->
<g id="edge3" class="edge">
<title>Node3&#45;&gt;Node4</title>
<path fill="none" stroke="midnightblue" d="M439.8,-401.56C364.34,-395.99 252.58,-383.15 221,-355 203.31,-339.23 198.37,-311.16 197.15,-292.43"/>
<polygon fill="midnightblue" stroke="midnightblue" points="200.64,-292.04 196.78,-282.17 193.64,-292.29 200.64,-292.04"/>
</g>
<!-- Node5 -->
<g id="node5" class="node">
<title>Node5</title>
<g id="a_node5"><a xlink:title=" ">
<polygon fill="none" stroke="#bfbfbf" points="521.5,-263 521.5,-282 556.5,-282 556.5,-263 521.5,-263"/>
<text text-anchor="middle" x="539" y="-270" font-family="Helvetica,sans-Serif" font-size="10.00">map</text>
</a>
</g>
</g>
<!-- Node3&#45;&gt;Node5 -->
<g id="edge4" class="edge">
<title>Node3&#45;&gt;Node5</title>
<path fill="none" stroke="midnightblue" d="M514.89,-391.37C519.79,-367.4 529.74,-318.75 535.2,-292.06"/>
<polygon fill="midnightblue" stroke="midnightblue" points="538.67,-292.6 537.24,-282.1 531.81,-291.19 538.67,-292.6"/>
</g>
<!-- Node6 -->
<g id="node6" class="node">
<title>Node6</title>
<g id="a_node6"><a xlink:title=" ">
<polygon fill="none" stroke="#bfbfbf" points="574.5,-263 574.5,-282 625.5,-282 625.5,-263 574.5,-263"/>
<text text-anchor="middle" x="600" y="-270" font-family="Helvetica,sans-Serif" font-size="10.00">memory</text>
</a>
</g>
</g>
<!-- Node3&#45;&gt;Node6 -->
<g id="edge5" class="edge">
<title>Node3&#45;&gt;Node6</title>
<path fill="none" stroke="midnightblue" d="M521.42,-391.37C537.69,-366.97 571,-317 588.57,-290.65"/>
<polygon fill="midnightblue" stroke="midnightblue" points="591.63,-292.36 594.27,-282.1 585.81,-288.48 591.63,-292.36"/>
</g>
<!-- Node7 -->
<g id="node7" class="node">
<title>Node7</title>
<g id="a_node7"><a xlink:href="_types_8hpp.html" target="_top" xlink:title="NekoEngine types definition.">
<polygon fill="none" stroke="black" points="360.5,-196 360.5,-215 499.5,-215 499.5,-196 360.5,-196"/>
<text text-anchor="middle" x="430" y="-203" font-family="Helvetica,sans-Serif" font-size="10.00">NekoEngine/ECS/Types.hpp</text>
</a>
</g>
</g>
<!-- Node3&#45;&gt;Node7 -->
<g id="edge6" class="edge">
<title>Node3&#45;&gt;Node7</title>
<path fill="none" stroke="midnightblue" d="M539.39,-391.37C586.56,-365.22 674.44,-307.33 635,-257 625.78,-245.23 545,-227.94 487.65,-216.96"/>
<polygon fill="midnightblue" stroke="midnightblue" points="488.07,-213.47 477.59,-215.05 486.76,-220.35 488.07,-213.47"/>
</g>
<!-- Node10 -->
<g id="node10" class="node">
<title>Node10</title>
<g id="a_node10"><a xlink:href="_component_array_8hpp.html" target="_top" xlink:title="Component Array template class.">
<polygon fill="none" stroke="black" points="368,-324.5 368,-354.5 512,-354.5 512,-324.5 368,-324.5"/>
<text text-anchor="start" x="376" y="-342.5" font-family="Helvetica,sans-Serif" font-size="10.00">NekoEngine/ECS/Component</text>
<text text-anchor="middle" x="440" y="-331.5" font-family="Helvetica,sans-Serif" font-size="10.00">Array.hpp</text>
</a>
</g>
</g>
<!-- Node3&#45;&gt;Node10 -->
<g id="edge9" class="edge">
<title>Node3&#45;&gt;Node10</title>
<path fill="none" stroke="midnightblue" d="M496.38,-391.4C486.66,-382.62 473.99,-371.18 463.12,-361.37"/>
<polygon fill="midnightblue" stroke="midnightblue" points="465.36,-358.68 455.59,-354.58 460.67,-363.88 465.36,-358.68"/>
</g>
<!-- Node13 -->
<g id="node13" class="node">
<title>Node13</title>
<g id="a_node13"><a xlink:title=" ">
<polygon fill="none" stroke="#bfbfbf" points="230.5,-330 230.5,-349 349.5,-349 349.5,-330 230.5,-330"/>
<text text-anchor="middle" x="290" y="-337" font-family="Helvetica,sans-Serif" font-size="10.00">ComponentManager.tpp</text>
</a>
</g>
</g>
<!-- Node3&#45;&gt;Node13 -->
<g id="edge16" class="edge">
<title>Node3&#45;&gt;Node13</title>
<path fill="none" stroke="midnightblue" d="M464.1,-391.48C423.79,-379.67 366.85,-363 329.2,-351.98"/>
<polygon fill="midnightblue" stroke="midnightblue" points="329.71,-348.48 319.13,-349.03 327.74,-355.2 329.71,-348.48"/>
</g>
<!-- Node8 -->
<g id="node8" class="node">
<title>Node8</title>
<g id="a_node8"><a xlink:title=" ">
<polygon fill="none" stroke="#bfbfbf" points="736,-129 736,-148 782,-148 782,-129 736,-129"/>
<text text-anchor="middle" x="759" y="-136" font-family="Helvetica,sans-Serif" font-size="10.00">cstdint</text>
</a>
</g>
</g>
<!-- Node7&#45;&gt;Node8 -->
<g id="edge7" class="edge">
<title>Node7&#45;&gt;Node8</title>
<path fill="none" stroke="midnightblue" d="M473.35,-195.94C539.85,-182.8 665.62,-157.95 725.58,-146.1"/>
<polygon fill="midnightblue" stroke="midnightblue" points="726.51,-149.49 735.64,-144.11 725.15,-142.62 726.51,-149.49"/>
</g>
<!-- Node9 -->
<g id="node9" class="node">
<title>Node9</title>
<g id="a_node9"><a xlink:title=" ">
<polygon fill="none" stroke="#bfbfbf" points="409.5,-129 409.5,-148 450.5,-148 450.5,-129 409.5,-129"/>
<text text-anchor="middle" x="430" y="-136" font-family="Helvetica,sans-Serif" font-size="10.00">bitset</text>
</a>
</g>
</g>
<!-- Node7&#45;&gt;Node9 -->
<g id="edge8" class="edge">
<title>Node7&#45;&gt;Node9</title>
<path fill="none" stroke="midnightblue" d="M430,-195.73C430,-186.18 430,-170.62 430,-158.28"/>
<polygon fill="midnightblue" stroke="midnightblue" points="433.5,-158.13 430,-148.13 426.5,-158.13 433.5,-158.13"/>
</g>
<!-- Node10&#45;&gt;Node4 -->
<g id="edge10" class="edge">
<title>Node10&#45;&gt;Node4</title>
<path fill="none" stroke="midnightblue" d="M372.23,-324.49C319.77,-313.29 251.7,-297.88 225,-288 223.76,-287.54 222.5,-287.04 221.24,-286.51"/>
<polygon fill="midnightblue" stroke="midnightblue" points="222.34,-283.15 211.8,-282.03 219.34,-289.48 222.34,-283.15"/>
</g>
<!-- Node10&#45;&gt;Node5 -->
<g id="edge11" class="edge">
<title>Node10&#45;&gt;Node5</title>
<path fill="none" stroke="midnightblue" d="M461.48,-324.4C478.08,-313.5 500.96,-298.48 517.55,-287.58"/>
<polygon fill="midnightblue" stroke="midnightblue" points="519.6,-290.42 526.04,-282.01 515.76,-284.57 519.6,-290.42"/>
</g>
<!-- Node10&#45;&gt;Node6 -->
<g id="edge12" class="edge">
<title>Node10&#45;&gt;Node6</title>
<path fill="none" stroke="midnightblue" d="M475.66,-324.45C500.94,-314.43 535.62,-300.56 566,-288 567.59,-287.34 569.22,-286.66 570.86,-285.97"/>
<polygon fill="midnightblue" stroke="midnightblue" points="572.4,-289.12 580.25,-282.01 569.68,-282.68 572.4,-289.12"/>
</g>
<!-- Node11 -->
<g id="node11" class="node">
<title>Node11</title>
<g id="a_node11"><a xlink:href="_i_component_array_8hpp.html" target="_top" xlink:title="Interface for the Component Array template class.">
<polygon fill="none" stroke="black" points="356.5,-257.5 356.5,-287.5 503.5,-287.5 503.5,-257.5 356.5,-257.5"/>
<text text-anchor="start" x="364.5" y="-275.5" font-family="Helvetica,sans-Serif" font-size="10.00">NekoEngine/ECS/IComponent</text>
<text text-anchor="middle" x="430" y="-264.5" font-family="Helvetica,sans-Serif" font-size="10.00">Array.hpp</text>
</a>
</g>
</g>
<!-- Node10&#45;&gt;Node11 -->
<g id="edge13" class="edge">
<title>Node10&#45;&gt;Node11</title>
<path fill="none" stroke="midnightblue" d="M437.83,-324.4C436.62,-316.56 435.09,-306.6 433.7,-297.57"/>
<polygon fill="midnightblue" stroke="midnightblue" points="437.15,-296.93 432.17,-287.58 430.23,-297.99 437.15,-296.93"/>
</g>
<!-- Node12 -->
<g id="node12" class="node">
<title>Node12</title>
<g id="a_node12"><a xlink:title=" ">
<polygon fill="none" stroke="#bfbfbf" points="234,-263 234,-282 338,-282 338,-263 234,-263"/>
<text text-anchor="middle" x="286" y="-270" font-family="Helvetica,sans-Serif" font-size="10.00">ComponentArray.tpp</text>
</a>
</g>
</g>
<!-- Node10&#45;&gt;Node12 -->
<g id="edge15" class="edge">
<title>Node10&#45;&gt;Node12</title>
<path fill="none" stroke="midnightblue" d="M406.58,-324.4C379.44,-312.94 341.53,-296.94 315.5,-285.95"/>
<polygon fill="midnightblue" stroke="midnightblue" points="316.73,-282.67 306.16,-282.01 314.01,-289.12 316.73,-282.67"/>
</g>
<!-- Node11&#45;&gt;Node7 -->
<g id="edge14" class="edge">
<title>Node11&#45;&gt;Node7</title>
<path fill="none" stroke="midnightblue" d="M430,-257.4C430,-248.06 430,-235.71 430,-225.52"/>
<polygon fill="midnightblue" stroke="midnightblue" points="433.5,-225.19 430,-215.19 426.5,-225.19 433.5,-225.19"/>
</g>
<!-- Node14&#45;&gt;Node4 -->
<g id="edge19" class="edge">
<title>Node14&#45;&gt;Node4</title>
<path fill="none" stroke="midnightblue" d="M101.84,-329.73C120.31,-318.82 152.07,-300.05 173.78,-287.22"/>
<polygon fill="midnightblue" stroke="midnightblue" points="175.57,-290.23 182.4,-282.13 172.01,-284.2 175.57,-290.23"/>
</g>
<!-- Node14&#45;&gt;Node6 -->
<g id="edge20" class="edge">
<title>Node14&#45;&gt;Node6</title>
<path fill="none" stroke="midnightblue" d="M165.29,-329.98C183.57,-328 202.97,-325.92 221,-324 374.3,-307.71 416.76,-326.67 566,-288 568.36,-287.39 570.77,-286.64 573.15,-285.81"/>
<polygon fill="midnightblue" stroke="midnightblue" points="574.68,-288.97 582.7,-282.06 572.12,-282.45 574.68,-288.97"/>
</g>
<!-- Node14&#45;&gt;Node7 -->
<g id="edge21" class="edge">
<title>Node14&#45;&gt;Node7</title>
<path fill="none" stroke="midnightblue" d="M92.86,-329.94C104.94,-313.01 134.41,-275.31 169,-257 225.14,-227.29 296.36,-214.93 350.21,-209.85"/>
<polygon fill="midnightblue" stroke="midnightblue" points="350.74,-213.32 360.4,-208.96 350.13,-206.34 350.74,-213.32"/>
</g>
<!-- Node15 -->
<g id="node15" class="node">
<title>Node15</title>
<g id="a_node15"><a xlink:title=" ">
<polygon fill="none" stroke="#bfbfbf" points="65.5,-263 65.5,-282 108.5,-282 108.5,-263 65.5,-263"/>
<text text-anchor="middle" x="87" y="-270" font-family="Helvetica,sans-Serif" font-size="10.00">queue</text>
</a>
</g>
</g>
<!-- Node14&#45;&gt;Node15 -->
<g id="edge18" class="edge">
<title>Node14&#45;&gt;Node15</title>
<path fill="none" stroke="midnightblue" d="M87,-329.73C87,-320.18 87,-304.62 87,-292.28"/>
<polygon fill="midnightblue" stroke="midnightblue" points="90.5,-292.13 87,-282.13 83.5,-292.13 90.5,-292.13"/>
</g>
<!-- Node16&#45;&gt;Node2 -->
<g id="edge29" class="edge">
<title>Node16&#45;&gt;Node2</title>
<path fill="none" stroke="midnightblue" d="M698.76,-416.13C700.78,-425.62 701.26,-441.17 700.2,-453.54"/>
<polygon fill="midnightblue" stroke="midnightblue" points="696.69,-453.35 698.79,-463.73 703.63,-454.31 696.69,-453.35"/>
</g>
<!-- Node16&#45;&gt;Node5 -->
<g id="edge24" class="edge">
<title>Node16&#45;&gt;Node5</title>
<path fill="none" stroke="midnightblue" d="M683.78,-396.95C671.82,-386.93 651.43,-369.81 634,-355 606.88,-331.96 575.58,-305.04 556.55,-288.64"/>
<polygon fill="midnightblue" stroke="midnightblue" points="558.82,-285.98 548.96,-282.1 554.25,-291.28 558.82,-285.98"/>
</g>
<!-- Node16&#45;&gt;Node6 -->
<g id="edge23" class="edge">
<title>Node16&#45;&gt;Node6</title>
<path fill="none" stroke="midnightblue" d="M687.83,-396.84C672.49,-375.3 632.4,-319 612.12,-290.52"/>
<polygon fill="midnightblue" stroke="midnightblue" points="614.72,-288.14 606.07,-282.02 609.02,-292.2 614.72,-288.14"/>
</g>
<!-- Node17 -->
<g id="node17" class="node">
<title>Node17</title>
<g id="a_node17"><a xlink:href="_system_8hpp.html" target="_top" xlink:title="ECS System.">
<polygon fill="none" stroke="black" points="842,-330 842,-349 988,-349 988,-330 842,-330"/>
<text text-anchor="middle" x="915" y="-337" font-family="Helvetica,sans-Serif" font-size="10.00">NekoEngine/ECS/System.hpp</text>
</a>
</g>
</g>
<!-- Node16&#45;&gt;Node17 -->
<g id="edge25" class="edge">
<title>Node16&#45;&gt;Node17</title>
<path fill="none" stroke="midnightblue" d="M723.35,-396.87C762.67,-385.3 832.55,-364.75 876.19,-351.91"/>
<polygon fill="midnightblue" stroke="midnightblue" points="877.28,-355.24 885.88,-349.06 875.3,-348.53 877.28,-355.24"/>
</g>
<!-- Node19 -->
<g id="node19" class="node">
<title>Node19</title>
<g id="a_node19"><a xlink:title=" ">
<polygon fill="none" stroke="#bfbfbf" points="720.5,-330 720.5,-349 823.5,-349 823.5,-330 720.5,-330"/>
<text text-anchor="middle" x="772" y="-337" font-family="Helvetica,sans-Serif" font-size="10.00">SystemManager.tpp</text>
</a>
</g>
</g>
<!-- Node16&#45;&gt;Node19 -->
<g id="edge30" class="edge">
<title>Node16&#45;&gt;Node19</title>
<path fill="none" stroke="midnightblue" d="M704.52,-396.73C717.15,-386.21 738.54,-368.38 753.86,-355.62"/>
<polygon fill="midnightblue" stroke="midnightblue" points="756.21,-358.22 761.65,-349.13 751.72,-352.84 756.21,-358.22"/>
</g>
<!-- Node17&#45;&gt;Node6 -->
<g id="edge27" class="edge">
<title>Node17&#45;&gt;Node6</title>
<path fill="none" stroke="midnightblue" d="M873.5,-329.94C811.09,-317.06 694.15,-292.93 635.48,-280.82"/>
<polygon fill="midnightblue" stroke="midnightblue" points="636.07,-277.37 625.57,-278.78 634.65,-284.22 636.07,-277.37"/>
</g>
<!-- Node17&#45;&gt;Node7 -->
<g id="edge28" class="edge">
<title>Node17&#45;&gt;Node7</title>
<path fill="none" stroke="midnightblue" d="M891.76,-329.88C848.28,-313.97 751.48,-279.56 668,-257 607.09,-240.54 536.23,-226.1 487.77,-216.92"/>
<polygon fill="midnightblue" stroke="midnightblue" points="488.25,-213.45 477.78,-215.04 486.96,-220.33 488.25,-213.45"/>
</g>
<!-- Node18 -->
<g id="node18" class="node">
<title>Node18</title>
<g id="a_node18"><a xlink:title=" ">
<polygon fill="none" stroke="#bfbfbf" points="900,-263 900,-282 930,-282 930,-263 900,-263"/>
<text text-anchor="middle" x="915" y="-270" font-family="Helvetica,sans-Serif" font-size="10.00">set</text>
</a>
</g>
</g>
<!-- Node17&#45;&gt;Node18 -->
<g id="edge26" class="edge">
<title>Node17&#45;&gt;Node18</title>
<path fill="none" stroke="midnightblue" d="M915,-329.73C915,-320.18 915,-304.62 915,-292.28"/>
<polygon fill="midnightblue" stroke="midnightblue" points="918.5,-292.13 915,-282.13 911.5,-292.13 918.5,-292.13"/>
</g>
<!-- Node21&#45;&gt;Node17 -->
<g id="edge33" class="edge">
<title>Node21&#45;&gt;Node17</title>
<path fill="none" stroke="midnightblue" d="M917.68,-458.37C917.14,-434.5 916.04,-386.18 915.43,-359.41"/>
<polygon fill="midnightblue" stroke="midnightblue" points="918.92,-359.02 915.2,-349.1 911.92,-359.17 918.92,-359.02"/>
</g>
<!-- Node23 -->
<g id="node23" class="node">
<title>Node23</title>
<g id="a_node23"><a xlink:href="_transform_8hpp.html" target="_top" xlink:title="Transform component.">
<polygon fill="none" stroke="black" points="1826.5,-123.5 1826.5,-153.5 1975.5,-153.5 1975.5,-123.5 1826.5,-123.5"/>
<text text-anchor="start" x="1834.5" y="-141.5" font-family="Helvetica,sans-Serif" font-size="10.00">NekoEngine/ECS/Components</text>
<text text-anchor="middle" x="1901" y="-130.5" font-family="Helvetica,sans-Serif" font-size="10.00">/Transform.hpp</text>
</a>
</g>
</g>
<!-- Node22&#45;&gt;Node23 -->
<g id="edge35" class="edge">
<title>Node22&#45;&gt;Node23</title>
<path fill="none" stroke="midnightblue" d="M1968.49,-257.5C1985.06,-249.54 2002.53,-237.74 2012,-221 2018.78,-209.01 2019.46,-201.59 2012,-190 2002.61,-175.42 1987.87,-164.99 1972.15,-157.56"/>
<polygon fill="midnightblue" stroke="midnightblue" points="1973.39,-154.29 1962.82,-153.53 1970.61,-160.71 1973.39,-154.29"/>
</g>
<!-- Node28 -->
<g id="node28" class="node">
<title>Node28</title>
<g id="a_node28"><a xlink:href="_timer_8hpp.html" target="_top" xlink:title="Timer component.">
<polygon fill="none" stroke="black" points="2967.5,-190.5 2967.5,-220.5 3116.5,-220.5 3116.5,-190.5 2967.5,-190.5"/>
<text text-anchor="start" x="2975.5" y="-208.5" font-family="Helvetica,sans-Serif" font-size="10.00">NekoEngine/ECS/Components</text>
<text text-anchor="middle" x="3042" y="-197.5" font-family="Helvetica,sans-Serif" font-size="10.00">/Timer.hpp</text>
</a>
</g>
</g>
<!-- Node22&#45;&gt;Node28 -->
<g id="edge40" class="edge">
<title>Node22&#45;&gt;Node28</title>
<path fill="none" stroke="midnightblue" d="M2002.58,-270.74C2172.08,-268.38 2599.11,-258.85 2954,-221 2955.08,-220.89 2956.16,-220.77 2957.25,-220.64"/>
<polygon fill="midnightblue" stroke="midnightblue" points="2957.69,-224.11 2967.19,-219.42 2956.83,-217.17 2957.69,-224.11"/>
</g>
<!-- Node30 -->
<g id="node30" class="node">
<title>Node30</title>
<g id="a_node30"><a xlink:href="_renderable_8hpp.html" target="_top" xlink:title="Renderable component.">
<polygon fill="none" stroke="black" points="517.5,-190.5 517.5,-220.5 666.5,-220.5 666.5,-190.5 517.5,-190.5"/>
<text text-anchor="start" x="525.5" y="-208.5" font-family="Helvetica,sans-Serif" font-size="10.00">NekoEngine/ECS/Components</text>
<text text-anchor="middle" x="592" y="-197.5" font-family="Helvetica,sans-Serif" font-size="10.00">/Renderable.hpp</text>
</a>
</g>
</g>
<!-- Node22&#45;&gt;Node30 -->
<g id="edge42" class="edge">
<title>Node22&#45;&gt;Node30</title>
<path fill="none" stroke="midnightblue" d="M1853.31,-271.88C1660.23,-272.14 1128.68,-268.22 676.58,-220.95"/>
<polygon fill="midnightblue" stroke="midnightblue" points="676.9,-217.46 666.58,-219.89 676.16,-224.42 676.9,-217.46"/>
</g>
<!-- Node31 -->
<g id="node31" class="node">
<title>Node31</title>
<g id="a_node31"><a xlink:href="_color_8hpp.html" target="_top" xlink:title="Color component.">
<polygon fill="none" stroke="black" points="851.5,-190.5 851.5,-220.5 1000.5,-220.5 1000.5,-190.5 851.5,-190.5"/>
<text text-anchor="start" x="859.5" y="-208.5" font-family="Helvetica,sans-Serif" font-size="10.00">NekoEngine/ECS/Components</text>
<text text-anchor="middle" x="926" y="-197.5" font-family="Helvetica,sans-Serif" font-size="10.00">/Color.hpp</text>
</a>
</g>
</g>
<!-- Node22&#45;&gt;Node31 -->
<g id="edge43" class="edge">
<title>Node22&#45;&gt;Node31</title>
<path fill="none" stroke="midnightblue" d="M1853.38,-270.32C1698.37,-267.25 1330.07,-256.63 1010.97,-221.01"/>
<polygon fill="midnightblue" stroke="midnightblue" points="1010.92,-217.48 1000.59,-219.84 1010.14,-224.44 1010.92,-217.48"/>
</g>
<!-- Node32 -->
<g id="node32" class="node">
<title>Node32</title>
<g id="a_node32"><a xlink:href="_rigid_body_8hpp.html" target="_top" xlink:title="RigidBody component.">
<polygon fill="none" stroke="black" points="1993.5,-123.5 1993.5,-153.5 2142.5,-153.5 2142.5,-123.5 1993.5,-123.5"/>
<text text-anchor="start" x="2001.5" y="-141.5" font-family="Helvetica,sans-Serif" font-size="10.00">NekoEngine/ECS/Components</text>
<text text-anchor="middle" x="2068" y="-130.5" font-family="Helvetica,sans-Serif" font-size="10.00">/RigidBody.hpp</text>
</a>
</g>
</g>
<!-- Node22&#45;&gt;Node32 -->
<g id="edge45" class="edge">
<title>Node22&#45;&gt;Node32</title>
<path fill="none" stroke="midnightblue" d="M1970.28,-257.32C1989.74,-249.12 2012,-237.18 2028,-221 2044.03,-204.79 2054.71,-180.89 2060.97,-163.15"/>
<polygon fill="midnightblue" stroke="midnightblue" points="2064.34,-164.12 2064.16,-153.53 2057.69,-161.93 2064.34,-164.12"/>
</g>
<!-- Node33 -->
<g id="node33" class="node">
<title>Node33</title>
<g id="a_node33"><a xlink:href="_gravity_8hpp.html" target="_top" xlink:title="Gravity component.">
<polygon fill="none" stroke="black" points="2506.5,-123.5 2506.5,-153.5 2655.5,-153.5 2655.5,-123.5 2506.5,-123.5"/>
<text text-anchor="start" x="2514.5" y="-141.5" font-family="Helvetica,sans-Serif" font-size="10.00">NekoEngine/ECS/Components</text>
<text text-anchor="middle" x="2581" y="-130.5" font-family="Helvetica,sans-Serif" font-size="10.00">/Gravity.hpp</text>
</a>
</g>
</g>
<!-- Node22&#45;&gt;Node33 -->
<g id="edge47" class="edge">
<title>Node22&#45;&gt;Node33</title>
<path fill="none" stroke="midnightblue" d="M2002.8,-270.48C2228.7,-267.06 2890.44,-254.21 2922,-221 2931.49,-211.01 2931,-200.43 2922,-190 2889.58,-152.42 2756.03,-142.34 2666,-139.9"/>
<polygon fill="midnightblue" stroke="midnightblue" points="2665.88,-136.39 2655.8,-139.65 2665.71,-143.39 2665.88,-136.39"/>
</g>
<!-- Node34 -->
<g id="node34" class="node">
<title>Node34</title>
<g id="a_node34"><a xlink:href="_skin_8hpp.html" target="_top" xlink:title="Skin component.">
<polygon fill="none" stroke="black" points="1018.5,-190.5 1018.5,-220.5 1167.5,-220.5 1167.5,-190.5 1018.5,-190.5"/>
<text text-anchor="start" x="1026.5" y="-208.5" font-family="Helvetica,sans-Serif" font-size="10.00">NekoEngine/ECS/Components</text>
<text text-anchor="middle" x="1093" y="-197.5" font-family="Helvetica,sans-Serif" font-size="10.00">/Skin.hpp</text>
</a>
</g>
</g>
<!-- Node22&#45;&gt;Node34 -->
<g id="edge49" class="edge">
<title>Node22&#45;&gt;Node34</title>
<path fill="none" stroke="midnightblue" d="M1853.41,-269.05C1719.97,-264.1 1431.43,-250.86 1177.74,-221"/>
<polygon fill="midnightblue" stroke="midnightblue" points="1177.94,-217.49 1167.6,-219.79 1177.11,-224.45 1177.94,-217.49"/>
</g>
<!-- Node36 -->
<g id="node36" class="node">
<title>Node36</title>
<g id="a_node36"><a xlink:href="_networkable_8hpp.html" target="_top" xlink:title="Networkable component.">
<polygon fill="none" stroke="black" points="1352.5,-190.5 1352.5,-220.5 1501.5,-220.5 1501.5,-190.5 1352.5,-190.5"/>
<text text-anchor="start" x="1360.5" y="-208.5" font-family="Helvetica,sans-Serif" font-size="10.00">NekoEngine/ECS/Components</text>
<text text-anchor="middle" x="1427" y="-197.5" font-family="Helvetica,sans-Serif" font-size="10.00">/Networkable.hpp</text>
</a>
</g>
</g>
<!-- Node22&#45;&gt;Node36 -->
<g id="edge51" class="edge">
<title>Node22&#45;&gt;Node36</title>
<path fill="none" stroke="midnightblue" d="M1853.27,-263.6C1771.91,-254.74 1637.72,-239.36 1511.83,-221.07"/>
<polygon fill="midnightblue" stroke="midnightblue" points="1512.02,-217.57 1501.62,-219.58 1511.01,-224.49 1512.02,-217.57"/>
</g>
<!-- Node37 -->
<g id="node37" class="node">
<title>Node37</title>
<g id="a_node37"><a xlink:href="_uid_8hpp.html" target="_top" xlink:title="Uid component.">
<polygon fill="none" stroke="black" points="684.5,-190.5 684.5,-220.5 833.5,-220.5 833.5,-190.5 684.5,-190.5"/>
<text text-anchor="start" x="692.5" y="-208.5" font-family="Helvetica,sans-Serif" font-size="10.00">NekoEngine/ECS/Components</text>
<text text-anchor="middle" x="759" y="-197.5" font-family="Helvetica,sans-Serif" font-size="10.00">/Uid.hpp</text>
</a>
</g>
</g>
<!-- Node22&#45;&gt;Node37 -->
<g id="edge52" class="edge">
<title>Node22&#45;&gt;Node37</title>
<path fill="none" stroke="midnightblue" d="M1853.43,-271.22C1678.67,-269.87 1228.97,-262.41 843.54,-220.95"/>
<polygon fill="midnightblue" stroke="midnightblue" points="843.91,-217.47 833.59,-219.87 843.15,-224.43 843.91,-217.47"/>
</g>
<!-- Node38 -->
<g id="node38" class="node">
<title>Node38</title>
<g id="a_node38"><a xlink:href="_hostile_8hpp.html" target="_top" xlink:title=" ">
<polygon fill="none" stroke="black" points="1686.5,-190.5 1686.5,-220.5 1835.5,-220.5 1835.5,-190.5 1686.5,-190.5"/>
<text text-anchor="start" x="1694.5" y="-208.5" font-family="Helvetica,sans-Serif" font-size="10.00">NekoEngine/ECS/Components</text>
<text text-anchor="middle" x="1761" y="-197.5" font-family="Helvetica,sans-Serif" font-size="10.00">/Hostile.hpp</text>
</a>
</g>
</g>
<!-- Node22&#45;&gt;Node38 -->
<g id="edge54" class="edge">
<title>Node22&#45;&gt;Node38</title>
<path fill="none" stroke="midnightblue" d="M1891.76,-257.4C1866.82,-247.69 1833.47,-234.71 1806.7,-224.29"/>
<polygon fill="midnightblue" stroke="midnightblue" points="1807.75,-220.94 1797.17,-220.58 1805.22,-227.47 1807.75,-220.94"/>
</g>
<!-- Node39 -->
<g id="node39" class="node">
<title>Node39</title>
<g id="a_node39"><a xlink:href="_but_8hpp.html" target="_top" xlink:title=" ">
<polygon fill="none" stroke="black" points="1853.5,-190.5 1853.5,-220.5 2002.5,-220.5 2002.5,-190.5 1853.5,-190.5"/>
<text text-anchor="start" x="1861.5" y="-208.5" font-family="Helvetica,sans-Serif" font-size="10.00">NekoEngine/ECS/Components</text>
<text text-anchor="middle" x="1928" y="-197.5" font-family="Helvetica,sans-Serif" font-size="10.00">/But.hpp</text>
</a>
</g>
</g>
<!-- Node22&#45;&gt;Node39 -->
<g id="edge55" class="edge">
<title>Node22&#45;&gt;Node39</title>
<path fill="none" stroke="midnightblue" d="M1928,-257.4C1928,-249.64 1928,-239.81 1928,-230.86"/>
<polygon fill="midnightblue" stroke="midnightblue" points="1931.5,-230.58 1928,-220.58 1924.5,-230.58 1931.5,-230.58"/>
</g>
<!-- Node40 -->
<g id="node40" class="node">
<title>Node40</title>
<g id="a_node40"><a xlink:href="_textinfo_8hpp.html" target="_top" xlink:title=" ">
<polygon fill="none" stroke="black" points="1185.5,-190.5 1185.5,-220.5 1334.5,-220.5 1334.5,-190.5 1185.5,-190.5"/>
<text text-anchor="start" x="1193.5" y="-208.5" font-family="Helvetica,sans-Serif" font-size="10.00">NekoEngine/ECS/Components</text>
<text text-anchor="middle" x="1260" y="-197.5" font-family="Helvetica,sans-Serif" font-size="10.00">/Textinfo.hpp</text>
</a>
</g>
</g>
<!-- Node22&#45;&gt;Node40 -->
<g id="edge56" class="edge">
<title>Node22&#45;&gt;Node40</title>
<path fill="none" stroke="midnightblue" d="M1853.11,-267.06C1743.74,-260.12 1533.72,-245.1 1344.73,-221.02"/>
<polygon fill="midnightblue" stroke="midnightblue" points="1344.97,-217.52 1334.61,-219.72 1344.08,-224.46 1344.97,-217.52"/>
</g>
<!-- Node41 -->
<g id="node41" class="node">
<title>Node41</title>
<g id="a_node41"><a xlink:href="_patterns_8hpp.html" target="_top" xlink:title="Patterns component.">
<polygon fill="none" stroke="black" points="1519.5,-190.5 1519.5,-220.5 1668.5,-220.5 1668.5,-190.5 1519.5,-190.5"/>
<text text-anchor="start" x="1527.5" y="-208.5" font-family="Helvetica,sans-Serif" font-size="10.00">NekoEngine/ECS/Components</text>
<text text-anchor="middle" x="1594" y="-197.5" font-family="Helvetica,sans-Serif" font-size="10.00">/Patterns.hpp</text>
</a>
</g>
</g>
<!-- Node22&#45;&gt;Node41 -->
<g id="edge58" class="edge">
<title>Node22&#45;&gt;Node41</title>
<path fill="none" stroke="midnightblue" d="M1855.94,-257.48C1803.13,-247.2 1731.36,-233.23 1676.3,-222.52"/>
<polygon fill="midnightblue" stroke="midnightblue" points="1676.7,-219.03 1666.22,-220.55 1675.37,-225.9 1676.7,-219.03"/>
</g>
<!-- Node43 -->
<g id="node43" class="node">
<title>Node43</title>
<g id="a_node43"><a xlink:href="_alien_8hpp.html" target="_top" xlink:title="Alien component.">
<polygon fill="none" stroke="black" points="2095.5,-190.5 2095.5,-220.5 2244.5,-220.5 2244.5,-190.5 2095.5,-190.5"/>
<text text-anchor="start" x="2103.5" y="-208.5" font-family="Helvetica,sans-Serif" font-size="10.00">NekoEngine/ECS/Components</text>
<text text-anchor="middle" x="2170" y="-197.5" font-family="Helvetica,sans-Serif" font-size="10.00">/Alien.hpp</text>
</a>
</g>
</g>
<!-- Node22&#45;&gt;Node43 -->
<g id="edge62" class="edge">
<title>Node22&#45;&gt;Node43</title>
<path fill="none" stroke="midnightblue" d="M1980.21,-257.48C2017.62,-247.43 2068.15,-233.86 2107.67,-223.24"/>
<polygon fill="midnightblue" stroke="midnightblue" points="2108.71,-226.59 2117.46,-220.61 2106.9,-219.82 2108.71,-226.59"/>
</g>
<!-- Node44 -->
<g id="node44" class="node">
<title>Node44</title>
<g id="a_node44"><a xlink:href="_entity_type_8hpp.html" target="_top" xlink:title=" ">
<polygon fill="none" stroke="black" points="2262.5,-190.5 2262.5,-220.5 2411.5,-220.5 2411.5,-190.5 2262.5,-190.5"/>
<text text-anchor="start" x="2270.5" y="-208.5" font-family="Helvetica,sans-Serif" font-size="10.00">NekoEngine/ECS/Components</text>
<text text-anchor="middle" x="2337" y="-197.5" font-family="Helvetica,sans-Serif" font-size="10.00">/EntityType.hpp</text>
</a>
</g>
</g>
<!-- Node22&#45;&gt;Node44 -->
<g id="edge63" class="edge">
<title>Node22&#45;&gt;Node44</title>
<path fill="none" stroke="midnightblue" d="M2002.51,-260.37C2066.31,-250.75 2160.89,-236.26 2252.37,-221.25"/>
<polygon fill="midnightblue" stroke="midnightblue" points="2253.06,-224.69 2262.35,-219.61 2251.92,-217.78 2253.06,-224.69"/>
</g>
<!-- Node45 -->
<g id="node45" class="node">
<title>Node45</title>
<g id="a_node45"><a xlink:href="_gorb_background_8hpp.html" target="_top" xlink:title=" ">
<polygon fill="none" stroke="black" points="2429.5,-190.5 2429.5,-220.5 2578.5,-220.5 2578.5,-190.5 2429.5,-190.5"/>
<text text-anchor="start" x="2437.5" y="-208.5" font-family="Helvetica,sans-Serif" font-size="10.00">NekoEngine/ECS/Components</text>
<text text-anchor="middle" x="2504" y="-197.5" font-family="Helvetica,sans-Serif" font-size="10.00">/GorbBackground.hpp</text>
</a>
</g>
</g>
<!-- Node22&#45;&gt;Node45 -->
<g id="edge64" class="edge">
<title>Node22&#45;&gt;Node45</title>
<path fill="none" stroke="midnightblue" d="M2002.53,-265.52C2097.17,-257.56 2265.7,-242.14 2419.29,-221.18"/>
<polygon fill="midnightblue" stroke="midnightblue" points="2419.95,-224.62 2429.38,-219.79 2419,-217.69 2419.95,-224.62"/>
</g>
<!-- Node46 -->
<g id="node46" class="node">
<title>Node46</title>
<g id="a_node46"><a xlink:href="_animation_8hpp.html" target="_top" xlink:title=" ">
<polygon fill="none" stroke="black" points="2596.5,-190.5 2596.5,-220.5 2745.5,-220.5 2745.5,-190.5 2596.5,-190.5"/>
<text text-anchor="start" x="2604.5" y="-208.5" font-family="Helvetica,sans-Serif" font-size="10.00">NekoEngine/ECS/Components</text>
<text text-anchor="middle" x="2671" y="-197.5" font-family="Helvetica,sans-Serif" font-size="10.00">/Animation.hpp</text>
</a>
</g>
</g>
<!-- Node22&#45;&gt;Node46 -->
<g id="edge65" class="edge">
<title>Node22&#45;&gt;Node46</title>
<path fill="none" stroke="midnightblue" d="M2002.97,-268.13C2123.78,-262.17 2369.19,-247.91 2586.4,-221.13"/>
<polygon fill="midnightblue" stroke="midnightblue" points="2586.9,-224.59 2596.39,-219.88 2586.04,-217.65 2586.9,-224.59"/>
</g>
<!-- Node47 -->
<g id="node47" class="node">
<title>Node47</title>
<g id="a_node47"><a xlink:href="_player_shoot_8hpp.html" target="_top" xlink:title=" ">
<polygon fill="none" stroke="black" points="2763.5,-190.5 2763.5,-220.5 2912.5,-220.5 2912.5,-190.5 2763.5,-190.5"/>
<text text-anchor="start" x="2771.5" y="-208.5" font-family="Helvetica,sans-Serif" font-size="10.00">NekoEngine/ECS/Components</text>
<text text-anchor="middle" x="2838" y="-197.5" font-family="Helvetica,sans-Serif" font-size="10.00">/PlayerShoot.hpp</text>
</a>
</g>
</g>
<!-- Node22&#45;&gt;Node47 -->
<g id="edge66" class="edge">
<title>Node22&#45;&gt;Node47</title>
<path fill="none" stroke="midnightblue" d="M2002.66,-269.74C2146.26,-265.74 2471.02,-253.75 2753.37,-221.11"/>
<polygon fill="midnightblue" stroke="midnightblue" points="2753.87,-224.57 2763.4,-219.94 2753.06,-217.62 2753.87,-224.57"/>
</g>
<!-- Node24 -->
<g id="node24" class="node">
<title>Node24</title>
<g id="a_node24"><a xlink:href="_vector_8hpp.html" target="_top" xlink:title="Contains all headers for all Vector types.">
<polygon fill="none" stroke="black" points="1921.5,-56.5 1921.5,-86.5 2046.5,-86.5 2046.5,-56.5 1921.5,-56.5"/>
<text text-anchor="start" x="1929.5" y="-74.5" font-family="Helvetica,sans-Serif" font-size="10.00">NekoEngine/Math/Vector</text>
<text text-anchor="middle" x="1984" y="-63.5" font-family="Helvetica,sans-Serif" font-size="10.00">/Vector.hpp</text>
</a>
</g>
</g>
<!-- Node23&#45;&gt;Node24 -->
<g id="edge36" class="edge">
<title>Node23&#45;&gt;Node24</title>
<path fill="none" stroke="midnightblue" d="M1919.01,-123.4C1930.43,-114.45 1945.39,-102.74 1958.08,-92.8"/>
<polygon fill="midnightblue" stroke="midnightblue" points="1960.31,-95.5 1966.03,-86.58 1955.99,-89.99 1960.31,-95.5"/>
</g>
<!-- Node25 -->
<g id="node25" class="node">
<title>Node25</title>
<g id="a_node25"><a xlink:href="_vector2_8hpp.html" target="_top" xlink:title="Contains Vector2 template class.">
<polygon fill="none" stroke="black" points="1864,-0.5 1864,-19.5 1932,-19.5 1932,-0.5 1864,-0.5"/>
<text text-anchor="middle" x="1898" y="-7.5" font-family="Helvetica,sans-Serif" font-size="10.00">Vector2.hpp</text>
</a>
</g>
</g>
<!-- Node24&#45;&gt;Node25 -->
<g id="edge37" class="edge">
<title>Node24&#45;&gt;Node25</title>
<path fill="none" stroke="midnightblue" d="M1963.62,-56.4C1950.09,-47.04 1932.39,-34.79 1918.78,-25.38"/>
<polygon fill="midnightblue" stroke="midnightblue" points="1920.73,-22.47 1910.51,-19.66 1916.75,-28.23 1920.73,-22.47"/>
</g>
<!-- Node26 -->
<g id="node26" class="node">
<title>Node26</title>
<g id="a_node26"><a xlink:href="_vector3_8hpp.html" target="_top" xlink:title="Contains Vector3 template class.">
<polygon fill="none" stroke="black" points="1950,-0.5 1950,-19.5 2018,-19.5 2018,-0.5 1950,-0.5"/>
<text text-anchor="middle" x="1984" y="-7.5" font-family="Helvetica,sans-Serif" font-size="10.00">Vector3.hpp</text>
</a>
</g>
</g>
<!-- Node24&#45;&gt;Node26 -->
<g id="edge38" class="edge">
<title>Node24&#45;&gt;Node26</title>
<path fill="none" stroke="midnightblue" d="M1984,-56.4C1984,-48.47 1984,-38.46 1984,-29.86"/>
<polygon fill="midnightblue" stroke="midnightblue" points="1987.5,-29.66 1984,-19.66 1980.5,-29.66 1987.5,-29.66"/>
</g>
<!-- Node27 -->
<g id="node27" class="node">
<title>Node27</title>
<g id="a_node27"><a xlink:href="_vector4_8hpp.html" target="_top" xlink:title="Contains Vector4 template class.">
<polygon fill="none" stroke="black" points="2036,-0.5 2036,-19.5 2104,-19.5 2104,-0.5 2036,-0.5"/>
<text text-anchor="middle" x="2070" y="-7.5" font-family="Helvetica,sans-Serif" font-size="10.00">Vector4.hpp</text>
</a>
</g>
</g>
<!-- Node24&#45;&gt;Node27 -->
<g id="edge39" class="edge">
<title>Node24&#45;&gt;Node27</title>
<path fill="none" stroke="midnightblue" d="M2004.38,-56.4C2017.91,-47.04 2035.61,-34.79 2049.22,-25.38"/>
<polygon fill="midnightblue" stroke="midnightblue" points="2051.25,-28.23 2057.49,-19.66 2047.27,-22.47 2051.25,-28.23"/>
</g>
<!-- Node29 -->
<g id="node29" class="node">
<title>Node29</title>
<g id="a_node29"><a xlink:title=" ">
<polygon fill="none" stroke="#bfbfbf" points="3019,-129 3019,-148 3065,-148 3065,-129 3019,-129"/>
<text text-anchor="middle" x="3042" y="-136" font-family="Helvetica,sans-Serif" font-size="10.00">chrono</text>
</a>
</g>
</g>
<!-- Node28&#45;&gt;Node29 -->
<g id="edge41" class="edge">
<title>Node28&#45;&gt;Node29</title>
<path fill="none" stroke="midnightblue" d="M3042,-190.4C3042,-181.06 3042,-168.71 3042,-158.52"/>
<polygon fill="midnightblue" stroke="midnightblue" points="3045.5,-158.19 3042,-148.19 3038.5,-158.19 3045.5,-158.19"/>
</g>
<!-- Node31&#45;&gt;Node8 -->
<g id="edge44" class="edge">
<title>Node31&#45;&gt;Node8</title>
<path fill="none" stroke="midnightblue" d="M889.76,-190.4C860.07,-178.84 818.49,-162.66 790.25,-151.66"/>
<polygon fill="midnightblue" stroke="midnightblue" points="791.44,-148.37 780.86,-148.01 788.91,-154.9 791.44,-148.37"/>
</g>
<!-- Node32&#45;&gt;Node24 -->
<g id="edge46" class="edge">
<title>Node32&#45;&gt;Node24</title>
<path fill="none" stroke="midnightblue" d="M2049.77,-123.4C2038.22,-114.45 2023.08,-102.74 2010.24,-92.8"/>
<polygon fill="midnightblue" stroke="midnightblue" points="2012.24,-89.93 2002.19,-86.58 2007.96,-95.46 2012.24,-89.93"/>
</g>
<!-- Node33&#45;&gt;Node24 -->
<g id="edge48" class="edge">
<title>Node33&#45;&gt;Node24</title>
<path fill="none" stroke="midnightblue" d="M2506.3,-129.37C2390.89,-116.8 2170.68,-92.83 2056.57,-80.4"/>
<polygon fill="midnightblue" stroke="midnightblue" points="2056.86,-76.91 2046.54,-79.31 2056.1,-83.87 2056.86,-76.91"/>
</g>
<!-- Node35 -->
<g id="node35" class="node">
<title>Node35</title>
<g id="a_node35"><a xlink:title=" ">
<polygon fill="none" stroke="#bfbfbf" points="1125,-129 1125,-148 1229,-148 1229,-129 1125,-129"/>
<text text-anchor="middle" x="1177" y="-136" font-family="Helvetica,sans-Serif" font-size="10.00">SFML/Graphics.hpp</text>
</a>
</g>
</g>
<!-- Node34&#45;&gt;Node35 -->
<g id="edge50" class="edge">
<title>Node34&#45;&gt;Node35</title>
<path fill="none" stroke="midnightblue" d="M1111.23,-190.4C1124.97,-179.76 1143.78,-165.2 1157.77,-154.38"/>
<polygon fill="midnightblue" stroke="midnightblue" points="1160,-157.08 1165.76,-148.19 1155.71,-151.55 1160,-157.08"/>
</g>
<!-- Node37&#45;&gt;Node8 -->
<g id="edge53" class="edge">
<title>Node37&#45;&gt;Node8</title>
<path fill="none" stroke="midnightblue" d="M759,-190.4C759,-181.06 759,-168.71 759,-158.52"/>
<polygon fill="midnightblue" stroke="midnightblue" points="762.5,-158.19 759,-148.19 755.5,-158.19 762.5,-158.19"/>
</g>
<!-- Node40&#45;&gt;Node35 -->
<g id="edge57" class="edge">
<title>Node40&#45;&gt;Node35</title>
<path fill="none" stroke="midnightblue" d="M1241.99,-190.4C1228.41,-179.76 1209.82,-165.2 1196,-154.38"/>
<polygon fill="midnightblue" stroke="midnightblue" points="1198.13,-151.6 1188.1,-148.19 1193.82,-157.12 1198.13,-151.6"/>
</g>
<!-- Node41&#45;&gt;Node23 -->
<g id="edge60" class="edge">
<title>Node41&#45;&gt;Node23</title>
<path fill="none" stroke="midnightblue" d="M1660.24,-190.48C1708.57,-180.24 1774.2,-166.35 1824.72,-155.65"/>
<polygon fill="midnightblue" stroke="midnightblue" points="1825.56,-159.05 1834.62,-153.55 1824.11,-152.2 1825.56,-159.05"/>
</g>
<!-- Node41&#45;&gt;Node24 -->
<g id="edge59" class="edge">
<title>Node41&#45;&gt;Node24</title>
<path fill="none" stroke="midnightblue" d="M1593.05,-190.31C1592.66,-171.88 1595.05,-140.06 1614,-123 1656.48,-84.76 1815.97,-75.24 1911.13,-73.02"/>
<polygon fill="midnightblue" stroke="midnightblue" points="1911.35,-76.51 1921.27,-72.8 1911.2,-69.52 1911.35,-76.51"/>
</g>
<!-- Node42 -->
<g id="node42" class="node">
<title>Node42</title>
<g id="a_node42"><a xlink:title=" ">
<polygon fill="none" stroke="#bfbfbf" points="1622.5,-129 1622.5,-148 1681.5,-148 1681.5,-129 1622.5,-129"/>
<text text-anchor="middle" x="1652" y="-136" font-family="Helvetica,sans-Serif" font-size="10.00">functional</text>
</a>
</g>
</g>
<!-- Node41&#45;&gt;Node42 -->
<g id="edge61" class="edge">
<title>Node41&#45;&gt;Node42</title>
<path fill="none" stroke="midnightblue" d="M1606.59,-190.4C1615.63,-180.26 1627.85,-166.57 1637.33,-155.94"/>
<polygon fill="midnightblue" stroke="midnightblue" points="1640.2,-157.99 1644.24,-148.19 1634.97,-153.33 1640.2,-157.99"/>
</g>
</g>
</svg>
