<?xml version="1.0" encoding="UTF-8" standalone="no"?>
<!DOCTYPE svg PUBLIC "-//W3C//DTD SVG 1.1//EN"
 "http://www.w3.org/Graphics/SVG/1.1/DTD/svg11.dtd">
<!-- Generated by graphviz version 2.49.3 (20211027.1501)
 -->
<!-- Title: NekoEngine/include/NekoEngine/ECS/Systems/BackgroundSystem.hpp Pages: 1 -->
<svg width="1218pt" height="407pt"
 viewBox="0.00 0.00 1218.00 407.00" xmlns="http://www.w3.org/2000/svg" xmlns:xlink="http://www.w3.org/1999/xlink">
<g id="graph0" class="graph" transform="scale(1 1) rotate(0) translate(4 403)">
<title>NekoEngine/include/NekoEngine/ECS/Systems/BackgroundSystem.hpp</title>
<!-- Node1 -->
<g id="node1" class="node">
<title>Node1</title>
<g id="a_node1"><a xlink:title=" ">
<polygon fill="#bfbfbf" stroke="black" points="338,-357.5 338,-398.5 474,-398.5 474,-357.5 338,-357.5"/>
<text text-anchor="start" x="346" y="-386.5" font-family="Helvetica,sans-Serif" font-size="10.00">NekoEngine/include</text>
<text text-anchor="start" x="346" y="-375.5" font-family="Helvetica,sans-Serif" font-size="10.00">/NekoEngine/ECS/Systems</text>
<text text-anchor="middle" x="406" y="-364.5" font-family="Helvetica,sans-Serif" font-size="10.00">/BackgroundSystem.hpp</text>
</a>
</g>
</g>
<!-- Node2 -->
<g id="node2" class="node">
<title>Node2</title>
<g id="a_node2"><a xlink:href="_systems_8hpp.html" target="_top" xlink:title="Systems.">
<polygon fill="none" stroke="black" points="338,-279.5 338,-320.5 474,-320.5 474,-279.5 338,-279.5"/>
<text text-anchor="start" x="346" y="-308.5" font-family="Helvetica,sans-Serif" font-size="10.00">NekoEngine/include</text>
<text text-anchor="start" x="346" y="-297.5" font-family="Helvetica,sans-Serif" font-size="10.00">/NekoEngine/ECS/Systems</text>
<text text-anchor="middle" x="406" y="-286.5" font-family="Helvetica,sans-Serif" font-size="10.00">/Systems.hpp</text>
</a>
</g>
</g>
<!-- Node1&#45;&gt;Node2 -->
<g id="edge1" class="edge">
<title>Node1&#45;&gt;Node2</title>
<path fill="none" stroke="midnightblue" d="M406,-347.3C406,-338.3 406,-328.65 406,-320.51"/>
<polygon fill="midnightblue" stroke="midnightblue" points="402.5,-347.43 406,-357.43 409.5,-347.43 402.5,-347.43"/>
</g>
<!-- Node9 -->
<g id="node9" class="node">
<title>Node9</title>
<g id="a_node9"><a xlink:href="_background_system_8cpp.html" target="_top" xlink:title=" ">
<polygon fill="none" stroke="black" points="148,-0.5 148,-30.5 312,-30.5 312,-0.5 148,-0.5"/>
<text text-anchor="start" x="156" y="-18.5" font-family="Helvetica,sans-Serif" font-size="10.00">NekoEngine/src/ECS</text>
<text text-anchor="middle" x="230" y="-7.5" font-family="Helvetica,sans-Serif" font-size="10.00">/Systems/BackgroundSystem.cpp</text>
</a>
</g>
</g>
<!-- Node1&#45;&gt;Node9 -->
<g id="edge26" class="edge">
<title>Node1&#45;&gt;Node9</title>
<path fill="none" stroke="midnightblue" d="M327.63,-361.23C221.45,-337.58 45,-289.15 45,-228.5 45,-228.5 45,-228.5 45,-159.5 45,-117.53 35.73,-98.02 64,-67 77.24,-52.47 120.12,-39.63 158.98,-30.54"/>
<polygon fill="midnightblue" stroke="midnightblue" points="327.16,-364.71 337.67,-363.44 328.66,-357.87 327.16,-364.71"/>
</g>
<!-- Node11 -->
<g id="node11" class="node">
<title>Node11</title>
<g id="a_node11"><a xlink:href="_parallax_system_8cpp.html" target="_top" xlink:title=" ">
<polygon fill="none" stroke="black" points="1064,-0.5 1064,-30.5 1210,-30.5 1210,-0.5 1064,-0.5"/>
<text text-anchor="start" x="1072" y="-18.5" font-family="Helvetica,sans-Serif" font-size="10.00">NekoEngine/src/ECS</text>
<text text-anchor="middle" x="1137" y="-7.5" font-family="Helvetica,sans-Serif" font-size="10.00">/Systems/ParallaxSystem.cpp</text>
</a>
</g>
</g>
<!-- Node1&#45;&gt;Node11 -->
<g id="edge27" class="edge">
<title>Node1&#45;&gt;Node11</title>
<path fill="none" stroke="midnightblue" d="M484.06,-372.98C640.38,-362.79 977,-329.17 977,-228.5 977,-228.5 977,-228.5 977,-159.5 977,-94.12 1052.2,-51.17 1099.49,-30.63"/>
<polygon fill="midnightblue" stroke="midnightblue" points="483.78,-369.49 474.03,-373.62 484.23,-376.48 483.78,-369.49"/>
</g>
<!-- Node3 -->
<g id="node3" class="node">
<title>Node3</title>
<g id="a_node3"><a xlink:href="_neko_engine_8hpp.html" target="_top" xlink:title=" ">
<polygon fill="none" stroke="black" points="333,-212.5 333,-242.5 479,-242.5 479,-212.5 333,-212.5"/>
<text text-anchor="start" x="341" y="-230.5" font-family="Helvetica,sans-Serif" font-size="10.00">NekoEngine/include</text>
<text text-anchor="middle" x="406" y="-219.5" font-family="Helvetica,sans-Serif" font-size="10.00">/NekoEngine/NekoEngine.hpp</text>
</a>
</g>
</g>
<!-- Node2&#45;&gt;Node3 -->
<g id="edge2" class="edge">
<title>Node2&#45;&gt;Node3</title>
<path fill="none" stroke="midnightblue" d="M406,-269.08C406,-260.01 406,-250.45 406,-242.89"/>
<polygon fill="midnightblue" stroke="midnightblue" points="402.5,-269.36 406,-279.36 409.5,-269.36 402.5,-269.36"/>
</g>
<!-- Node18 -->
<g id="node18" class="node">
<title>Node18</title>
<g id="a_node18"><a xlink:href="_timer_system_8cpp.html" target="_top" xlink:title=" ">
<polygon fill="none" stroke="black" points="177.5,-212.5 177.5,-242.5 314.5,-242.5 314.5,-212.5 177.5,-212.5"/>
<text text-anchor="start" x="185.5" y="-230.5" font-family="Helvetica,sans-Serif" font-size="10.00">NekoEngine/src/ECS</text>
<text text-anchor="middle" x="246" y="-219.5" font-family="Helvetica,sans-Serif" font-size="10.00">/Systems/TimerSystem.cpp</text>
</a>
</g>
</g>
<!-- Node2&#45;&gt;Node18 -->
<g id="edge24" class="edge">
<title>Node2&#45;&gt;Node18</title>
<path fill="none" stroke="midnightblue" d="M352.18,-275.29C327.52,-264.42 299.13,-251.91 277.91,-242.56"/>
<polygon fill="midnightblue" stroke="midnightblue" points="350.87,-278.53 361.43,-279.36 353.69,-272.13 350.87,-278.53"/>
</g>
<!-- Node19 -->
<g id="node19" class="node">
<title>Node19</title>
<g id="a_node19"><a xlink:href="_scene_8cpp.html" target="_top" xlink:title="For the love of god.">
<polygon fill="none" stroke="black" points="497,-212.5 497,-242.5 619,-242.5 619,-212.5 497,-212.5"/>
<text text-anchor="start" x="505" y="-230.5" font-family="Helvetica,sans-Serif" font-size="10.00">NekoEngine/src/Scenes</text>
<text text-anchor="middle" x="558" y="-219.5" font-family="Helvetica,sans-Serif" font-size="10.00">/Scene.cpp</text>
</a>
</g>
</g>
<!-- Node2&#45;&gt;Node19 -->
<g id="edge25" class="edge">
<title>Node2&#45;&gt;Node19</title>
<path fill="none" stroke="midnightblue" d="M457.71,-275.02C480.91,-264.25 507.49,-251.93 527.45,-242.67"/>
<polygon fill="midnightblue" stroke="midnightblue" points="455.94,-271.98 448.34,-279.36 458.88,-278.33 455.94,-271.98"/>
</g>
<!-- Node4 -->
<g id="node4" class="node">
<title>Node4</title>
<g id="a_node4"><a xlink:href="_client_game_8hpp.html" target="_top" xlink:title=" ">
<polygon fill="none" stroke="black" points="230.5,-78.5 230.5,-97.5 377.5,-97.5 377.5,-78.5 230.5,-78.5"/>
<text text-anchor="middle" x="304" y="-85.5" font-family="Helvetica,sans-Serif" font-size="10.00">Client/include/ClientGame.hpp</text>
</a>
</g>
</g>
<!-- Node3&#45;&gt;Node4 -->
<g id="edge3" class="edge">
<title>Node3&#45;&gt;Node4</title>
<path fill="none" stroke="midnightblue" d="M390.85,-203.99C379.59,-187.46 363.69,-164.58 349,-145 336.13,-127.84 320.24,-108.46 311.2,-97.59"/>
<polygon fill="midnightblue" stroke="midnightblue" points="388.08,-206.15 396.6,-212.46 393.88,-202.22 388.08,-206.15"/>
</g>
<!-- Node6 -->
<g id="node6" class="node">
<title>Node6</title>
<g id="a_node6"><a xlink:href="main_8cpp.html" target="_top" xlink:title="Entrypoint.">
<polygon fill="none" stroke="black" points="330,-6 330,-25 430,-25 430,-6 330,-6"/>
<text text-anchor="middle" x="380" y="-13" font-family="Helvetica,sans-Serif" font-size="10.00">Client/src/main.cpp</text>
</a>
</g>
</g>
<!-- Node3&#45;&gt;Node6 -->
<g id="edge22" class="edge">
<title>Node3&#45;&gt;Node6</title>
<path fill="none" stroke="midnightblue" d="M403.28,-202.45C399.72,-171.22 393.18,-115 387,-67 385.1,-52.25 382.68,-35.11 381.24,-25.07"/>
<polygon fill="midnightblue" stroke="midnightblue" points="399.81,-202.87 404.41,-212.41 406.76,-202.08 399.81,-202.87"/>
</g>
<!-- Node7 -->
<g id="node7" class="node">
<title>Node7</title>
<g id="a_node7"><a xlink:href="_custom_client_8hpp.html" target="_top" xlink:title=" ">
<polygon fill="none" stroke="black" points="434.5,-151 434.5,-170 589.5,-170 589.5,-151 434.5,-151"/>
<text text-anchor="middle" x="512" y="-158" font-family="Helvetica,sans-Serif" font-size="10.00">Client/include/CustomClient.hpp</text>
</a>
</g>
</g>
<!-- Node3&#45;&gt;Node7 -->
<g id="edge6" class="edge">
<title>Node3&#45;&gt;Node7</title>
<path fill="none" stroke="midnightblue" d="M437.57,-207.14C457.72,-194.79 482.83,-179.39 498.13,-170.01"/>
<polygon fill="midnightblue" stroke="midnightblue" points="435.7,-204.18 429,-212.4 439.35,-210.15 435.7,-204.18"/>
</g>
<!-- Node15 -->
<g id="node15" class="node">
<title>Node15</title>
<g id="a_node15"><a xlink:href="_player_system_8hpp.html" target="_top" xlink:title=" ">
<polygon fill="none" stroke="black" points="184,-151 184,-170 340,-170 340,-151 184,-151"/>
<text text-anchor="middle" x="262" y="-158" font-family="Helvetica,sans-Serif" font-size="10.00">Client/include/PlayerSystem.hpp</text>
</a>
</g>
</g>
<!-- Node3&#45;&gt;Node15 -->
<g id="edge18" class="edge">
<title>Node3&#45;&gt;Node15</title>
<path fill="none" stroke="midnightblue" d="M365.31,-208.13C337.59,-195.62 302.19,-179.64 280.85,-170.01"/>
<polygon fill="midnightblue" stroke="midnightblue" points="364.2,-211.47 374.75,-212.4 367.08,-205.09 364.2,-211.47"/>
</g>
<!-- Node16 -->
<g id="node16" class="node">
<title>Node16</title>
<g id="a_node16"><a xlink:href="_player_system_8cpp.html" target="_top" xlink:title=" ">
<polygon fill="none" stroke="black" points="73.5,-78.5 73.5,-97.5 212.5,-97.5 212.5,-78.5 73.5,-78.5"/>
<text text-anchor="middle" x="143" y="-85.5" font-family="Helvetica,sans-Serif" font-size="10.00">Client/src/PlayerSystem.cpp</text>
</a>
</g>
</g>
<!-- Node3&#45;&gt;Node16 -->
<g id="edge21" class="edge">
<title>Node3&#45;&gt;Node16</title>
<path fill="none" stroke="midnightblue" d="M323.85,-210.47C259.83,-197.68 180.83,-181.08 175,-176 151.22,-155.28 145.09,-115.29 143.53,-97.68"/>
<polygon fill="midnightblue" stroke="midnightblue" points="323.49,-213.97 333.98,-212.49 324.86,-207.1 323.49,-213.97"/>
</g>
<!-- Node17 -->
<g id="node17" class="node">
<title>Node17</title>
<g id="a_node17"><a xlink:href="_pattern_system_8cpp.html" target="_top" xlink:title="Physics System class implementation.">
<polygon fill="none" stroke="black" points="607.5,-145.5 607.5,-175.5 750.5,-175.5 750.5,-145.5 607.5,-145.5"/>
<text text-anchor="start" x="615.5" y="-163.5" font-family="Helvetica,sans-Serif" font-size="10.00">NekoEngine/src/ECS</text>
<text text-anchor="middle" x="679" y="-152.5" font-family="Helvetica,sans-Serif" font-size="10.00">/Systems/PatternSystem.cpp</text>
</a>
</g>
</g>
<!-- Node3&#45;&gt;Node17 -->
<g id="edge23" class="edge">
<title>Node3&#45;&gt;Node17</title>
<path fill="none" stroke="midnightblue" d="M474.8,-210.12C519.47,-199.48 577.1,-185.76 619.73,-175.61"/>
<polygon fill="midnightblue" stroke="midnightblue" points="473.82,-206.75 464.9,-212.48 475.44,-213.56 473.82,-206.75"/>
</g>
<!-- Node5 -->
<g id="node5" class="node">
<title>Node5</title>
<g id="a_node5"><a xlink:href="_client_game_8cpp.html" target="_top" xlink:title=" ">
<polygon fill="none" stroke="black" points="0,-6 0,-25 130,-25 130,-6 0,-6"/>
<text text-anchor="middle" x="65" y="-13" font-family="Helvetica,sans-Serif" font-size="10.00">Client/src/ClientGame.cpp</text>
</a>
</g>
</g>
<!-- Node4&#45;&gt;Node5 -->
<g id="edge4" class="edge">
<title>Node4&#45;&gt;Node5</title>
<path fill="none" stroke="midnightblue" d="M265.47,-75.63C217.56,-61.5 136.88,-37.7 93.93,-25.03"/>
<polygon fill="midnightblue" stroke="midnightblue" points="264.59,-79.02 275.17,-78.5 266.57,-72.31 264.59,-79.02"/>
</g>
<!-- Node4&#45;&gt;Node6 -->
<g id="edge5" class="edge">
<title>Node4&#45;&gt;Node6</title>
<path fill="none" stroke="midnightblue" d="M321.04,-71.19C336.35,-56.99 358.26,-36.67 370.6,-25.22"/>
<polygon fill="midnightblue" stroke="midnightblue" points="318.27,-68.99 313.32,-78.36 323.03,-74.12 318.27,-68.99"/>
</g>
<!-- Node7&#45;&gt;Node6 -->
<g id="edge7" class="edge">
<title>Node7&#45;&gt;Node6</title>
<path fill="none" stroke="midnightblue" d="M497.14,-143.41C469.17,-113.1 409.55,-48.51 387.99,-25.15"/>
<polygon fill="midnightblue" stroke="midnightblue" points="494.78,-146.01 504.14,-150.98 499.93,-141.26 494.78,-146.01"/>
</g>
<!-- Node8 -->
<g id="node8" class="node">
<title>Node8</title>
<g id="a_node8"><a xlink:href="_window_8hpp.html" target="_top" xlink:title="Contains the NekoEngine Window class wrapper.">
<polygon fill="none" stroke="black" points="609,-67.5 609,-108.5 723,-108.5 723,-67.5 609,-67.5"/>
<text text-anchor="start" x="617" y="-96.5" font-family="Helvetica,sans-Serif" font-size="10.00">NekoEngine/include</text>
<text text-anchor="start" x="617" y="-85.5" font-family="Helvetica,sans-Serif" font-size="10.00">/NekoEngine/Graphics</text>
<text text-anchor="middle" x="666" y="-74.5" font-family="Helvetica,sans-Serif" font-size="10.00">/Window.hpp</text>
</a>
</g>
</g>
<!-- Node7&#45;&gt;Node8 -->
<g id="edge8" class="edge">
<title>Node7&#45;&gt;Node8</title>
<path fill="none" stroke="midnightblue" d="M539.85,-146.75C563.08,-136.12 596.56,-120.79 623.19,-108.6"/>
<polygon fill="midnightblue" stroke="midnightblue" points="538.21,-143.65 530.58,-151 541.13,-150.02 538.21,-143.65"/>
</g>
<!-- Node14 -->
<g id="node14" class="node">
<title>Node14</title>
<g id="a_node14"><a xlink:href="_window_8cpp.html" target="_top" xlink:title="Contains the NekoEngine Window class implementation.">
<polygon fill="none" stroke="black" points="448,-0.5 448,-30.5 576,-30.5 576,-0.5 448,-0.5"/>
<text text-anchor="start" x="456" y="-18.5" font-family="Helvetica,sans-Serif" font-size="10.00">NekoEngine/src/Graphics</text>
<text text-anchor="middle" x="512" y="-7.5" font-family="Helvetica,sans-Serif" font-size="10.00">/Window.cpp</text>
</a>
</g>
</g>
<!-- Node7&#45;&gt;Node14 -->
<g id="edge17" class="edge">
<title>Node7&#45;&gt;Node14</title>
<path fill="none" stroke="midnightblue" d="M512,-140.62C512,-111.65 512,-56.85 512,-30.86"/>
<polygon fill="midnightblue" stroke="midnightblue" points="508.5,-140.98 512,-150.98 515.5,-140.98 508.5,-140.98"/>
</g>
<!-- Node8&#45;&gt;Node3 -->
<g id="edge10" class="edge">
<title>Node8&#45;&gt;Node3</title>
<path fill="none" stroke="midnightblue" d="M721.69,-113.41C752.13,-130.1 779.94,-153.24 760,-176 719.81,-221.85 548.26,-202.69 488,-212 485.14,-212.44 482.23,-212.9 479.29,-213.38"/>
<polygon fill="midnightblue" stroke="midnightblue" points="723.13,-110.21 712.65,-108.66 719.87,-116.41 723.13,-110.21"/>
</g>
<!-- Node8&#45;&gt;Node6 -->
<g id="edge9" class="edge">
<title>Node8&#45;&gt;Node6</title>
<path fill="none" stroke="midnightblue" d="M599.03,-70.49C541.28,-56.26 460.19,-36.27 414.62,-25.03"/>
<polygon fill="midnightblue" stroke="midnightblue" points="598.26,-73.91 608.81,-72.9 599.94,-67.11 598.26,-73.91"/>
</g>
<!-- Node8&#45;&gt;Node9 -->
<g id="edge11" class="edge">
<title>Node8&#45;&gt;Node9</title>
<path fill="none" stroke="midnightblue" d="M598.46,-76.08C521.28,-63.6 394.96,-43.17 312.14,-29.78"/>
<polygon fill="midnightblue" stroke="midnightblue" points="598.12,-79.57 608.55,-77.71 599.24,-72.66 598.12,-79.57"/>
</g>
<!-- Node10 -->
<g id="node10" class="node">
<title>Node10</title>
<g id="a_node10"><a xlink:href="_mouse_system_8cpp.html" target="_top" xlink:title=" ">
<polygon fill="none" stroke="black" points="904.5,-0.5 904.5,-30.5 1045.5,-30.5 1045.5,-0.5 904.5,-0.5"/>
<text text-anchor="start" x="912.5" y="-18.5" font-family="Helvetica,sans-Serif" font-size="10.00">NekoEngine/src/ECS</text>
<text text-anchor="middle" x="975" y="-7.5" font-family="Helvetica,sans-Serif" font-size="10.00">/Systems/MouseSystem.cpp</text>
</a>
</g>
</g>
<!-- Node8&#45;&gt;Node10 -->
<g id="edge12" class="edge">
<title>Node8&#45;&gt;Node10</title>
<path fill="none" stroke="midnightblue" d="M732.8,-71.76C786.49,-59.51 861.31,-42.44 913.53,-30.52"/>
<polygon fill="midnightblue" stroke="midnightblue" points="732.01,-68.35 723.04,-73.99 733.56,-75.17 732.01,-68.35"/>
</g>
<!-- Node8&#45;&gt;Node11 -->
<g id="edge13" class="edge">
<title>Node8&#45;&gt;Node11</title>
<path fill="none" stroke="midnightblue" d="M733.23,-77.99C810.85,-67.43 942.33,-49.07 1055,-31 1057.85,-30.54 1060.76,-30.07 1063.7,-29.58"/>
<polygon fill="midnightblue" stroke="midnightblue" points="732.54,-74.55 723.1,-79.36 733.48,-81.49 732.54,-74.55"/>
</g>
<!-- Node12 -->
<g id="node12" class="node">
<title>Node12</title>
<g id="a_node12"><a xlink:href="_render_system_8cpp.html" target="_top" xlink:title="Render System class implementation.">
<polygon fill="none" stroke="black" points="594.5,-0.5 594.5,-30.5 737.5,-30.5 737.5,-0.5 594.5,-0.5"/>
<text text-anchor="start" x="602.5" y="-18.5" font-family="Helvetica,sans-Serif" font-size="10.00">NekoEngine/src/ECS</text>
<text text-anchor="middle" x="666" y="-7.5" font-family="Helvetica,sans-Serif" font-size="10.00">/Systems/RenderSystem.cpp</text>
</a>
</g>
</g>
<!-- Node8&#45;&gt;Node12 -->
<g id="edge14" class="edge">
<title>Node8&#45;&gt;Node12</title>
<path fill="none" stroke="midnightblue" d="M666,-57.08C666,-48.01 666,-38.45 666,-30.89"/>
<polygon fill="midnightblue" stroke="midnightblue" points="662.5,-57.36 666,-67.36 669.5,-57.36 662.5,-57.36"/>
</g>
<!-- Node13 -->
<g id="node13" class="node">
<title>Node13</title>
<g id="a_node13"><a xlink:href="_text_system_8cpp.html" target="_top" xlink:title=" ">
<polygon fill="none" stroke="black" points="755.5,-0.5 755.5,-30.5 886.5,-30.5 886.5,-0.5 755.5,-0.5"/>
<text text-anchor="start" x="763.5" y="-18.5" font-family="Helvetica,sans-Serif" font-size="10.00">NekoEngine/src/ECS</text>
<text text-anchor="middle" x="821" y="-7.5" font-family="Helvetica,sans-Serif" font-size="10.00">/Systems/TextSystem.cpp</text>
</a>
</g>
</g>
<!-- Node8&#45;&gt;Node13 -->
<g id="edge15" class="edge">
<title>Node8&#45;&gt;Node13</title>
<path fill="none" stroke="midnightblue" d="M718.42,-63.16C742.15,-52.36 769.4,-39.97 789.85,-30.67"/>
<polygon fill="midnightblue" stroke="midnightblue" points="716.83,-60.04 709.18,-67.36 719.73,-66.41 716.83,-60.04"/>
</g>
<!-- Node8&#45;&gt;Node14 -->
<g id="edge16" class="edge">
<title>Node8&#45;&gt;Node14</title>
<path fill="none" stroke="midnightblue" d="M613.92,-63.16C590.34,-52.36 563.27,-39.97 542.95,-30.67"/>
<polygon fill="midnightblue" stroke="midnightblue" points="612.55,-66.38 623.1,-67.36 615.47,-60.02 612.55,-66.38"/>
</g>
<!-- Node15&#45;&gt;Node4 -->
<g id="edge19" class="edge">
<title>Node15&#45;&gt;Node4</title>
<path fill="none" stroke="midnightblue" d="M272.37,-142.09C280.77,-128 292.24,-108.74 298.81,-97.72"/>
<polygon fill="midnightblue" stroke="midnightblue" points="269.26,-140.47 267.15,-150.86 275.27,-144.06 269.26,-140.47"/>
</g>
<!-- Node15&#45;&gt;Node16 -->
<g id="edge20" class="edge">
<title>Node15&#45;&gt;Node16</title>
<path fill="none" stroke="midnightblue" d="M238.58,-145.62C214.56,-131.39 177.94,-109.7 157.71,-97.72"/>
<polygon fill="midnightblue" stroke="midnightblue" points="237.02,-148.77 247.41,-150.86 240.59,-142.75 237.02,-148.77"/>
</g>
</g>
</svg>
