<?xml version="1.0" encoding="UTF-8" standalone="no"?>
<!DOCTYPE svg PUBLIC "-//W3C//DTD SVG 1.1//EN"
 "http://www.w3.org/Graphics/SVG/1.1/DTD/svg11.dtd">
<!-- Generated by graphviz version 2.49.3 (20211027.1501)
 -->
<!-- Title: NekoEngine/src/ECS/Systems/BackgroundSystem.cpp Pages: 1 -->
<svg width="4483pt" height="564pt"
 viewBox="0.00 0.00 4483.00 564.00" xmlns="http://www.w3.org/2000/svg" xmlns:xlink="http://www.w3.org/1999/xlink">
<g id="graph0" class="graph" transform="scale(1 1) rotate(0) translate(4 560)">
<title>NekoEngine/src/ECS/Systems/BackgroundSystem.cpp</title>
<!-- Node1 -->
<g id="node1" class="node">
<title>Node1</title>
<g id="a_node1"><a xlink:title=" ">
<polygon fill="#bfbfbf" stroke="black" points="1662.5,-525.5 1662.5,-555.5 1826.5,-555.5 1826.5,-525.5 1662.5,-525.5"/>
<text text-anchor="start" x="1670.5" y="-543.5" font-family="Helvetica,sans-Serif" font-size="10.00">NekoEngine/src/ECS</text>
<text text-anchor="middle" x="1744.5" y="-532.5" font-family="Helvetica,sans-Serif" font-size="10.00">/Systems/BackgroundSystem.cpp</text>
</a>
</g>
</g>
<!-- Node2 -->
<g id="node2" class="node">
<title>Node2</title>
<g id="a_node2"><a xlink:href="_coordinator_8hpp.html" target="_top" xlink:title="Coordinator class.">
<polygon fill="none" stroke="black" points="577.5,-263 577.5,-282 739.5,-282 739.5,-263 577.5,-263"/>
<text text-anchor="middle" x="658.5" y="-270" font-family="Helvetica,sans-Serif" font-size="10.00">NekoEngine/ECS/Coordinator.hpp</text>
</a>
</g>
</g>
<!-- Node1&#45;&gt;Node2 -->
<g id="edge1" class="edge">
<title>Node1&#45;&gt;Node2</title>
<path fill="none" stroke="midnightblue" d="M1662.34,-535.4C1519.97,-526.43 1219.52,-499.27 978.5,-422 862.93,-384.95 734.53,-316.28 682.42,-287.14"/>
<polygon fill="midnightblue" stroke="midnightblue" points="684.03,-284.03 673.6,-282.18 680.6,-290.13 684.03,-284.03"/>
</g>
<!-- Node21 -->
<g id="node17" class="node">
<title>Node21</title>
<g id="a_node17"><a xlink:href="_background_system_8hpp.html" target="_top" xlink:title=" ">
<polygon fill="none" stroke="black" points="988,-391.5 988,-421.5 1121,-421.5 1121,-391.5 988,-391.5"/>
<text text-anchor="start" x="996" y="-409.5" font-family="Helvetica,sans-Serif" font-size="10.00">NekoEngine/ECS/Systems</text>
<text text-anchor="middle" x="1054.5" y="-398.5" font-family="Helvetica,sans-Serif" font-size="10.00">/BackgroundSystem.hpp</text>
</a>
</g>
</g>
<!-- Node1&#45;&gt;Node21 -->
<g id="edge27" class="edge">
<title>Node1&#45;&gt;Node21</title>
<path fill="none" stroke="midnightblue" d="M1671.31,-525.5C1539.9,-500.36 1265.21,-447.81 1131.26,-422.18"/>
<polygon fill="midnightblue" stroke="midnightblue" points="1131.56,-418.68 1121.08,-420.24 1130.24,-425.55 1131.56,-418.68"/>
</g>
<!-- Node22 -->
<g id="node18" class="node">
<title>Node22</title>
<g id="a_node18"><a xlink:href="_transform_8hpp.html" target="_top" xlink:title="Transform component.">
<polygon fill="none" stroke="black" points="4154,-123.5 4154,-153.5 4303,-153.5 4303,-123.5 4154,-123.5"/>
<text text-anchor="start" x="4162" y="-141.5" font-family="Helvetica,sans-Serif" font-size="10.00">NekoEngine/ECS/Components</text>
<text text-anchor="middle" x="4228.5" y="-130.5" font-family="Helvetica,sans-Serif" font-size="10.00">/Transform.hpp</text>
</a>
</g>
</g>
<!-- Node1&#45;&gt;Node22 -->
<g id="edge29" class="edge">
<title>Node1&#45;&gt;Node22</title>
<path fill="none" stroke="midnightblue" d="M1826.54,-539.76C2270.5,-540.63 4365.5,-537.85 4365.5,-407.5 4365.5,-407.5 4365.5,-407.5 4365.5,-271.5 4365.5,-231.34 4354.47,-218.81 4326.5,-190 4313.23,-176.33 4295.45,-165.65 4278.69,-157.71"/>
<polygon fill="midnightblue" stroke="midnightblue" points="4280.07,-154.49 4269.52,-153.58 4277.2,-160.88 4280.07,-154.49"/>
</g>
<!-- Node27 -->
<g id="node23" class="node">
<title>Node27</title>
<g id="a_node23"><a xlink:href="_skin_8hpp.html" target="_top" xlink:title="Skin component.">
<polygon fill="none" stroke="black" points="3984,-190.5 3984,-220.5 4133,-220.5 4133,-190.5 3984,-190.5"/>
<text text-anchor="start" x="3992" y="-208.5" font-family="Helvetica,sans-Serif" font-size="10.00">NekoEngine/ECS/Components</text>
<text text-anchor="middle" x="4058.5" y="-197.5" font-family="Helvetica,sans-Serif" font-size="10.00">/Skin.hpp</text>
</a>
</g>
</g>
<!-- Node1&#45;&gt;Node27 -->
<g id="edge34" class="edge">
<title>Node1&#45;&gt;Node27</title>
<path fill="none" stroke="midnightblue" d="M1826.76,-537.98C2184.79,-530.85 3589.5,-497.17 3589.5,-407.5 3589.5,-407.5 3589.5,-407.5 3589.5,-338.5 3589.5,-299.02 3838.96,-246.92 3974.01,-221.6"/>
<polygon fill="midnightblue" stroke="midnightblue" points="3974.74,-225.03 3983.93,-219.75 3973.45,-218.14 3974.74,-225.03"/>
</g>
<!-- Node29 -->
<g id="node25" class="node">
<title>Node29</title>
<g id="a_node25"><a xlink:href="_window_8hpp.html" target="_top" xlink:title="Contains the NekoEngine Window class wrapper.">
<polygon fill="none" stroke="black" points="1689,-458.5 1689,-488.5 1800,-488.5 1800,-458.5 1689,-458.5"/>
<text text-anchor="start" x="1697" y="-476.5" font-family="Helvetica,sans-Serif" font-size="10.00">NekoEngine/Graphics</text>
<text text-anchor="middle" x="1744.5" y="-465.5" font-family="Helvetica,sans-Serif" font-size="10.00">/Window.hpp</text>
</a>
</g>
</g>
<!-- Node1&#45;&gt;Node29 -->
<g id="edge36" class="edge">
<title>Node1&#45;&gt;Node29</title>
<path fill="none" stroke="midnightblue" d="M1744.5,-525.4C1744.5,-517.64 1744.5,-507.81 1744.5,-498.86"/>
<polygon fill="midnightblue" stroke="midnightblue" points="1748,-498.58 1744.5,-488.58 1741,-498.58 1748,-498.58"/>
</g>
<!-- Node3 -->
<g id="node3" class="node">
<title>Node3</title>
<g id="a_node3"><a xlink:href="_component_manager_8hpp.html" target="_top" xlink:title="Component Manmager class.">
<polygon fill="none" stroke="black" points="313.5,-190.5 313.5,-220.5 457.5,-220.5 457.5,-190.5 313.5,-190.5"/>
<text text-anchor="start" x="321.5" y="-208.5" font-family="Helvetica,sans-Serif" font-size="10.00">NekoEngine/ECS/Component</text>
<text text-anchor="middle" x="385.5" y="-197.5" font-family="Helvetica,sans-Serif" font-size="10.00">Manager.hpp</text>
</a>
</g>
</g>
<!-- Node2&#45;&gt;Node3 -->
<g id="edge2" class="edge">
<title>Node2&#45;&gt;Node3</title>
<path fill="none" stroke="midnightblue" d="M622.53,-262.94C579.87,-252.78 507.8,-235.62 454.31,-222.88"/>
<polygon fill="midnightblue" stroke="midnightblue" points="455.09,-219.47 444.55,-220.56 453.47,-226.28 455.09,-219.47"/>
</g>
<!-- Node14 -->
<g id="node10" class="node">
<title>Node14</title>
<g id="a_node10"><a xlink:href="_entity_manager_8hpp.html" target="_top" xlink:title="Entities are fun.">
<polygon fill="none" stroke="black" points="451.5,-129 451.5,-148 625.5,-148 625.5,-129 451.5,-129"/>
<text text-anchor="middle" x="538.5" y="-136" font-family="Helvetica,sans-Serif" font-size="10.00">NekoEngine/ECS/EntityManager.hpp</text>
</a>
</g>
</g>
<!-- Node2&#45;&gt;Node14 -->
<g id="edge12" class="edge">
<title>Node2&#45;&gt;Node14</title>
<path fill="none" stroke="midnightblue" d="M625.07,-262.9C602.71,-255.44 574.38,-242.39 557.5,-221 543.26,-202.95 539.36,-176.07 538.47,-158.18"/>
<polygon fill="midnightblue" stroke="midnightblue" points="541.96,-158.04 538.23,-148.13 534.96,-158.21 541.96,-158.04"/>
</g>
<!-- Node16 -->
<g id="node12" class="node">
<title>Node16</title>
<g id="a_node12"><a xlink:href="_system_manager_8hpp.html" target="_top" xlink:title=" ">
<polygon fill="none" stroke="black" points="567,-196 567,-215 750,-215 750,-196 567,-196"/>
<text text-anchor="middle" x="658.5" y="-203" font-family="Helvetica,sans-Serif" font-size="10.00">NekoEngine/ECS/SystemManager.hpp</text>
</a>
</g>
</g>
<!-- Node2&#45;&gt;Node16 -->
<g id="edge17" class="edge">
<title>Node2&#45;&gt;Node16</title>
<path fill="none" stroke="midnightblue" d="M653.71,-262.73C651.7,-253.18 651.24,-237.62 652.32,-225.28"/>
<polygon fill="midnightblue" stroke="midnightblue" points="655.82,-225.52 653.74,-215.13 648.88,-224.54 655.82,-225.52"/>
</g>
<!-- Node20 -->
<g id="node16" class="node">
<title>Node20</title>
<g id="a_node16"><a xlink:title=" ">
<polygon fill="none" stroke="#bfbfbf" points="768.5,-196 768.5,-215 850.5,-215 850.5,-196 768.5,-196"/>
<text text-anchor="middle" x="809.5" y="-203" font-family="Helvetica,sans-Serif" font-size="10.00">Coordinator.tpp</text>
</a>
</g>
</g>
<!-- Node2&#45;&gt;Node20 -->
<g id="edge26" class="edge">
<title>Node2&#45;&gt;Node20</title>
<path fill="none" stroke="midnightblue" d="M678.55,-262.87C704.5,-251.7 749.92,-232.15 779.86,-219.26"/>
<polygon fill="midnightblue" stroke="midnightblue" points="781.56,-222.34 789.37,-215.17 778.8,-215.91 781.56,-222.34"/>
</g>
<!-- Node4 -->
<g id="node4" class="node">
<title>Node4</title>
<g id="a_node4"><a xlink:title=" ">
<polygon fill="none" stroke="#bfbfbf" points="366.5,-62 366.5,-81 404.5,-81 404.5,-62 366.5,-62"/>
<text text-anchor="middle" x="385.5" y="-69" font-family="Helvetica,sans-Serif" font-size="10.00">array</text>
</a>
</g>
</g>
<!-- Node3&#45;&gt;Node4 -->
<g id="edge3" class="edge">
<title>Node3&#45;&gt;Node4</title>
<path fill="none" stroke="midnightblue" d="M385.5,-190.37C385.5,-166.5 385.5,-118.18 385.5,-91.41"/>
<polygon fill="midnightblue" stroke="midnightblue" points="389,-91.1 385.5,-81.1 382,-91.1 389,-91.1"/>
</g>
<!-- Node5 -->
<g id="node5" class="node">
<title>Node5</title>
<g id="a_node5"><a xlink:title=" ">
<polygon fill="none" stroke="#bfbfbf" points="168,-62 168,-81 203,-81 203,-62 168,-62"/>
<text text-anchor="middle" x="185.5" y="-69" font-family="Helvetica,sans-Serif" font-size="10.00">map</text>
</a>
</g>
</g>
<!-- Node3&#45;&gt;Node5 -->
<g id="edge4" class="edge">
<title>Node3&#45;&gt;Node5</title>
<path fill="none" stroke="midnightblue" d="M313.29,-197.02C258.28,-189.66 189.09,-176.22 171.5,-154 157.07,-135.76 166.51,-107.97 175.39,-90.02"/>
<polygon fill="midnightblue" stroke="midnightblue" points="178.48,-91.65 180.1,-81.18 172.31,-88.35 178.48,-91.65"/>
</g>
<!-- Node6 -->
<g id="node6" class="node">
<title>Node6</title>
<g id="a_node6"><a xlink:title=" ">
<polygon fill="none" stroke="#bfbfbf" points="533,-62 533,-81 584,-81 584,-62 533,-62"/>
<text text-anchor="middle" x="558.5" y="-69" font-family="Helvetica,sans-Serif" font-size="10.00">memory</text>
</a>
</g>
</g>
<!-- Node3&#45;&gt;Node6 -->
<g id="edge5" class="edge">
<title>Node3&#45;&gt;Node6</title>
<path fill="none" stroke="midnightblue" d="M392.3,-190.32C401.48,-172.48 419.38,-141.91 442.5,-123 446.1,-120.06 495.66,-98.92 528.83,-84.94"/>
<polygon fill="midnightblue" stroke="midnightblue" points="530.25,-88.14 538.11,-81.04 527.54,-81.69 530.25,-88.14"/>
</g>
<!-- Node7 -->
<g id="node7" class="node">
<title>Node7</title>
<g id="a_node7"><a xlink:href="_types_8hpp.html" target="_top" xlink:title="NekoEngine types definition.">
<polygon fill="none" stroke="red" points="622,-62 622,-81 761,-81 761,-62 622,-62"/>
<text text-anchor="middle" x="691.5" y="-69" font-family="Helvetica,sans-Serif" font-size="10.00">NekoEngine/ECS/Types.hpp</text>
</a>
</g>
</g>
<!-- Node3&#45;&gt;Node7 -->
<g id="edge6" class="edge">
<title>Node3&#45;&gt;Node7</title>
<path fill="none" stroke="midnightblue" d="M457.66,-203.86C510.49,-200.25 581.84,-188.52 634.5,-154 658.26,-138.42 675.02,-109.21 683.97,-90.31"/>
<polygon fill="midnightblue" stroke="midnightblue" points="687.23,-91.59 688.13,-81.03 680.84,-88.73 687.23,-91.59"/>
</g>
<!-- Node10 -->
<g id="node8" class="node">
<title>Node10</title>
<g id="a_node8"><a xlink:href="_component_array_8hpp.html" target="_top" xlink:title="Component Array template class.">
<polygon fill="none" stroke="red" points="213.5,-123.5 213.5,-153.5 357.5,-153.5 357.5,-123.5 213.5,-123.5"/>
<text text-anchor="start" x="221.5" y="-141.5" font-family="Helvetica,sans-Serif" font-size="10.00">NekoEngine/ECS/Component</text>
<text text-anchor="middle" x="285.5" y="-130.5" font-family="Helvetica,sans-Serif" font-size="10.00">Array.hpp</text>
</a>
</g>
</g>
<!-- Node3&#45;&gt;Node10 -->
<g id="edge7" class="edge">
<title>Node3&#45;&gt;Node10</title>
<path fill="none" stroke="midnightblue" d="M363.8,-190.4C349.78,-181.28 331.33,-169.29 315.86,-159.24"/>
<polygon fill="midnightblue" stroke="midnightblue" points="317.45,-156.09 307.16,-153.58 313.63,-161.96 317.45,-156.09"/>
</g>
<!-- Node13 -->
<g id="node9" class="node">
<title>Node13</title>
<g id="a_node9"><a xlink:title=" ">
<polygon fill="none" stroke="#bfbfbf" points="0,-129 0,-148 119,-148 119,-129 0,-129"/>
<text text-anchor="middle" x="59.5" y="-136" font-family="Helvetica,sans-Serif" font-size="10.00">ComponentManager.tpp</text>
</a>
</g>
</g>
<!-- Node3&#45;&gt;Node13 -->
<g id="edge11" class="edge">
<title>Node3&#45;&gt;Node13</title>
<path fill="none" stroke="midnightblue" d="M315.16,-190.48C254.2,-178.32 167.33,-161 112.19,-150.01"/>
<polygon fill="midnightblue" stroke="midnightblue" points="112.77,-146.55 102.27,-148.03 111.4,-153.42 112.77,-146.55"/>
</g>
<!-- Node10&#45;&gt;Node4 -->
<g id="edge8" class="edge">
<title>Node10&#45;&gt;Node4</title>
<path fill="none" stroke="midnightblue" d="M307.2,-123.4C323.97,-112.5 347.07,-97.48 363.83,-86.58"/>
<polygon fill="midnightblue" stroke="midnightblue" points="365.94,-89.39 372.41,-81.01 362.12,-83.52 365.94,-89.39"/>
</g>
<!-- Node10&#45;&gt;Node5 -->
<g id="edge9" class="edge">
<title>Node10&#45;&gt;Node5</title>
<path fill="none" stroke="midnightblue" d="M263.8,-123.4C247.03,-112.5 223.93,-97.48 207.17,-86.58"/>
<polygon fill="midnightblue" stroke="midnightblue" points="208.88,-83.52 198.59,-81.01 205.06,-89.39 208.88,-83.52"/>
</g>
<!-- Node10&#45;&gt;Node6 -->
<g id="edge10" class="edge">
<title>Node10&#45;&gt;Node6</title>
<path fill="none" stroke="midnightblue" d="M357.72,-125.74C405.36,-117.12 468.84,-103.96 523.5,-87 525.64,-86.33 527.84,-85.59 530.03,-84.8"/>
<polygon fill="midnightblue" stroke="midnightblue" points="531.43,-88.01 539.48,-81.12 528.89,-81.49 531.43,-88.01"/>
</g>
<!-- Node14&#45;&gt;Node4 -->
<g id="edge14" class="edge">
<title>Node14&#45;&gt;Node4</title>
<path fill="none" stroke="midnightblue" d="M518.18,-128.87C491.6,-117.57 444.84,-97.71 414.53,-84.83"/>
<polygon fill="midnightblue" stroke="midnightblue" points="415.51,-81.44 404.93,-80.76 412.77,-87.89 415.51,-81.44"/>
</g>
<!-- Node14&#45;&gt;Node6 -->
<g id="edge15" class="edge">
<title>Node14&#45;&gt;Node6</title>
<path fill="none" stroke="midnightblue" d="M541.2,-128.73C544.17,-119.09 549.02,-103.3 552.84,-90.91"/>
<polygon fill="midnightblue" stroke="midnightblue" points="556.25,-91.71 555.85,-81.13 549.56,-89.66 556.25,-91.71"/>
</g>
<!-- Node14&#45;&gt;Node7 -->
<g id="edge16" class="edge">
<title>Node14&#45;&gt;Node7</title>
<path fill="none" stroke="midnightblue" d="M558.82,-128.87C585.22,-117.65 631.53,-97.98 661.86,-85.09"/>
<polygon fill="midnightblue" stroke="midnightblue" points="663.26,-88.3 671.1,-81.17 660.53,-81.86 663.26,-88.3"/>
</g>
<!-- Node15 -->
<g id="node11" class="node">
<title>Node15</title>
<g id="a_node11"><a xlink:title=" ">
<polygon fill="none" stroke="#bfbfbf" points="472,-62 472,-81 515,-81 515,-62 472,-62"/>
<text text-anchor="middle" x="493.5" y="-69" font-family="Helvetica,sans-Serif" font-size="10.00">queue</text>
</a>
</g>
</g>
<!-- Node14&#45;&gt;Node15 -->
<g id="edge13" class="edge">
<title>Node14&#45;&gt;Node15</title>
<path fill="none" stroke="midnightblue" d="M532.43,-128.73C525.48,-118.7 513.93,-102.01 505.21,-89.42"/>
<polygon fill="midnightblue" stroke="midnightblue" points="508.04,-87.36 499.47,-81.13 502.29,-91.34 508.04,-87.36"/>
</g>
<!-- Node16&#45;&gt;Node2 -->
<g id="edge24" class="edge">
<title>Node16&#45;&gt;Node2</title>
<path fill="none" stroke="midnightblue" d="M663.26,-215.13C665.28,-224.62 665.76,-240.17 664.7,-252.54"/>
<polygon fill="midnightblue" stroke="midnightblue" points="661.19,-252.35 663.29,-262.73 668.13,-253.31 661.19,-252.35"/>
</g>
<!-- Node16&#45;&gt;Node5 -->
<g id="edge19" class="edge">
<title>Node16&#45;&gt;Node5</title>
<path fill="none" stroke="midnightblue" d="M566.82,-197.01C438.09,-186.11 217.88,-165.88 204.5,-154 186.97,-138.43 183.99,-110.09 184.18,-91.28"/>
<polygon fill="midnightblue" stroke="midnightblue" points="187.68,-91.37 184.6,-81.23 180.69,-91.08 187.68,-91.37"/>
</g>
<!-- Node16&#45;&gt;Node6 -->
<g id="edge18" class="edge">
<title>Node16&#45;&gt;Node6</title>
<path fill="none" stroke="midnightblue" d="M657.88,-195.79C656.35,-179.88 651.22,-145.68 634.5,-123 622.55,-106.8 603.74,-94.24 587.83,-85.7"/>
<polygon fill="midnightblue" stroke="midnightblue" points="589.36,-82.55 578.86,-81.14 586.19,-88.79 589.36,-82.55"/>
</g>
<!-- Node17 -->
<g id="node13" class="node">
<title>Node17</title>
<g id="a_node13"><a xlink:href="_system_8hpp.html" target="_top" xlink:title="ECS System.">
<polygon fill="none" stroke="black" points="841.5,-129 841.5,-148 987.5,-148 987.5,-129 841.5,-129"/>
<text text-anchor="middle" x="914.5" y="-136" font-family="Helvetica,sans-Serif" font-size="10.00">NekoEngine/ECS/System.hpp</text>
</a>
</g>
</g>
<!-- Node16&#45;&gt;Node17 -->
<g id="edge20" class="edge">
<title>Node16&#45;&gt;Node17</title>
<path fill="none" stroke="midnightblue" d="M692.23,-195.94C738.09,-184.29 820.16,-163.45 870.72,-150.62"/>
<polygon fill="midnightblue" stroke="midnightblue" points="871.86,-153.94 880.69,-148.08 870.14,-147.15 871.86,-153.94"/>
</g>
<!-- Node19 -->
<g id="node15" class="node">
<title>Node19</title>
<g id="a_node15"><a xlink:title=" ">
<polygon fill="none" stroke="#bfbfbf" points="720,-129 720,-148 823,-148 823,-129 720,-129"/>
<text text-anchor="middle" x="771.5" y="-136" font-family="Helvetica,sans-Serif" font-size="10.00">SystemManager.tpp</text>
</a>
</g>
</g>
<!-- Node16&#45;&gt;Node19 -->
<g id="edge25" class="edge">
<title>Node16&#45;&gt;Node19</title>
<path fill="none" stroke="midnightblue" d="M673.74,-195.73C692.72,-184.82 725.35,-166.05 747.65,-153.22"/>
<polygon fill="midnightblue" stroke="midnightblue" points="749.58,-156.15 756.5,-148.13 746.09,-150.08 749.58,-156.15"/>
</g>
<!-- Node17&#45;&gt;Node6 -->
<g id="edge22" class="edge">
<title>Node17&#45;&gt;Node6</title>
<path fill="none" stroke="midnightblue" d="M866.24,-128.98C854.85,-127 842.75,-124.91 831.5,-123 734.25,-106.51 708.92,-107.82 612.5,-87 606.54,-85.71 600.26,-84.19 594.17,-82.61"/>
<polygon fill="midnightblue" stroke="midnightblue" points="594.76,-79.15 584.19,-79.96 592.96,-85.91 594.76,-79.15"/>
</g>
<!-- Node17&#45;&gt;Node7 -->
<g id="edge23" class="edge">
<title>Node17&#45;&gt;Node7</title>
<path fill="none" stroke="midnightblue" d="M884.89,-128.87C845.21,-117.3 774.69,-96.75 730.66,-83.91"/>
<polygon fill="midnightblue" stroke="midnightblue" points="731.46,-80.5 720.88,-81.06 729.5,-87.22 731.46,-80.5"/>
</g>
<!-- Node18 -->
<g id="node14" class="node">
<title>Node18</title>
<g id="a_node14"><a xlink:title=" ">
<polygon fill="none" stroke="#bfbfbf" points="899.5,-62 899.5,-81 929.5,-81 929.5,-62 899.5,-62"/>
<text text-anchor="middle" x="914.5" y="-69" font-family="Helvetica,sans-Serif" font-size="10.00">set</text>
</a>
</g>
</g>
<!-- Node17&#45;&gt;Node18 -->
<g id="edge21" class="edge">
<title>Node17&#45;&gt;Node18</title>
<path fill="none" stroke="midnightblue" d="M914.5,-128.73C914.5,-119.18 914.5,-103.62 914.5,-91.28"/>
<polygon fill="midnightblue" stroke="midnightblue" points="918,-91.13 914.5,-81.13 911,-91.13 918,-91.13"/>
</g>
<!-- Node21&#45;&gt;Node17 -->
<g id="edge28" class="edge">
<title>Node21&#45;&gt;Node17</title>
<path fill="none" stroke="midnightblue" d="M987.8,-401.75C955,-396.13 918.16,-383.35 897.5,-355 853.47,-294.58 888.25,-197.71 905.86,-157.7"/>
<polygon fill="midnightblue" stroke="midnightblue" points="909.13,-158.95 910.1,-148.4 902.76,-156.05 909.13,-158.95"/>
</g>
<!-- Node23 -->
<g id="node19" class="node">
<title>Node23</title>
<g id="a_node19"><a xlink:href="_vector_8hpp.html" target="_top" xlink:title="Contains all headers for all Vector types.">
<polygon fill="none" stroke="black" points="3654,-56.5 3654,-86.5 3779,-86.5 3779,-56.5 3654,-56.5"/>
<text text-anchor="start" x="3662" y="-74.5" font-family="Helvetica,sans-Serif" font-size="10.00">NekoEngine/Math/Vector</text>
<text text-anchor="middle" x="3716.5" y="-63.5" font-family="Helvetica,sans-Serif" font-size="10.00">/Vector.hpp</text>
</a>
</g>
</g>
<!-- Node22&#45;&gt;Node23 -->
<g id="edge30" class="edge">
<title>Node22&#45;&gt;Node23</title>
<path fill="none" stroke="midnightblue" d="M4153.78,-128.01C4056.07,-115.61 3885.99,-94.02 3789.26,-81.74"/>
<polygon fill="midnightblue" stroke="midnightblue" points="3789.64,-78.26 3779.27,-80.47 3788.75,-85.2 3789.64,-78.26"/>
</g>
<!-- Node24 -->
<g id="node20" class="node">
<title>Node24</title>
<g id="a_node20"><a xlink:href="_vector2_8hpp.html" target="_top" xlink:title="Contains Vector2 template class.">
<polygon fill="none" stroke="black" points="3596.5,-0.5 3596.5,-19.5 3664.5,-19.5 3664.5,-0.5 3596.5,-0.5"/>
<text text-anchor="middle" x="3630.5" y="-7.5" font-family="Helvetica,sans-Serif" font-size="10.00">Vector2.hpp</text>
</a>
</g>
</g>
<!-- Node23&#45;&gt;Node24 -->
<g id="edge31" class="edge">
<title>Node23&#45;&gt;Node24</title>
<path fill="none" stroke="midnightblue" d="M3696.12,-56.4C3682.59,-47.04 3664.89,-34.79 3651.28,-25.38"/>
<polygon fill="midnightblue" stroke="midnightblue" points="3653.23,-22.47 3643.01,-19.66 3649.25,-28.23 3653.23,-22.47"/>
</g>
<!-- Node25 -->
<g id="node21" class="node">
<title>Node25</title>
<g id="a_node21"><a xlink:href="_vector3_8hpp.html" target="_top" xlink:title="Contains Vector3 template class.">
<polygon fill="none" stroke="black" points="3682.5,-0.5 3682.5,-19.5 3750.5,-19.5 3750.5,-0.5 3682.5,-0.5"/>
<text text-anchor="middle" x="3716.5" y="-7.5" font-family="Helvetica,sans-Serif" font-size="10.00">Vector3.hpp</text>
</a>
</g>
</g>
<!-- Node23&#45;&gt;Node25 -->
<g id="edge32" class="edge">
<title>Node23&#45;&gt;Node25</title>
<path fill="none" stroke="midnightblue" d="M3716.5,-56.4C3716.5,-48.47 3716.5,-38.46 3716.5,-29.86"/>
<polygon fill="midnightblue" stroke="midnightblue" points="3720,-29.66 3716.5,-19.66 3713,-29.66 3720,-29.66"/>
</g>
<!-- Node26 -->
<g id="node22" class="node">
<title>Node26</title>
<g id="a_node22"><a xlink:href="_vector4_8hpp.html" target="_top" xlink:title="Contains Vector4 template class.">
<polygon fill="none" stroke="black" points="3768.5,-0.5 3768.5,-19.5 3836.5,-19.5 3836.5,-0.5 3768.5,-0.5"/>
<text text-anchor="middle" x="3802.5" y="-7.5" font-family="Helvetica,sans-Serif" font-size="10.00">Vector4.hpp</text>
</a>
</g>
</g>
<!-- Node23&#45;&gt;Node26 -->
<g id="edge33" class="edge">
<title>Node23&#45;&gt;Node26</title>
<path fill="none" stroke="midnightblue" d="M3736.88,-56.4C3750.41,-47.04 3768.11,-34.79 3781.72,-25.38"/>
<polygon fill="midnightblue" stroke="midnightblue" points="3783.75,-28.23 3789.99,-19.66 3779.77,-22.47 3783.75,-28.23"/>
</g>
<!-- Node28 -->
<g id="node24" class="node">
<title>Node28</title>
<g id="a_node24"><a xlink:title=" ">
<polygon fill="none" stroke="#bfbfbf" points="3755.5,-129 3755.5,-148 3859.5,-148 3859.5,-129 3755.5,-129"/>
<text text-anchor="middle" x="3807.5" y="-136" font-family="Helvetica,sans-Serif" font-size="10.00">SFML/Graphics.hpp</text>
</a>
</g>
</g>
<!-- Node27&#45;&gt;Node28 -->
<g id="edge35" class="edge">
<title>Node27&#45;&gt;Node28</title>
<path fill="none" stroke="midnightblue" d="M4004.35,-190.48C3958.18,-178.52 3892.73,-161.57 3850.2,-150.56"/>
<polygon fill="midnightblue" stroke="midnightblue" points="3850.99,-147.15 3840.43,-148.03 3849.24,-153.92 3850.99,-147.15"/>
</g>
<!-- Node29&#45;&gt;Node23 -->
<g id="edge61" class="edge">
<title>Node29&#45;&gt;Node23</title>
<path fill="none" stroke="midnightblue" d="M1738.26,-458.16C1728.45,-434.25 1710.5,-384.52 1710.5,-340.5 1710.5,-340.5 1710.5,-340.5 1710.5,-204.5 1710.5,-190.02 1567.57,-192.91 1933.5,-123 2103.05,-90.61 3329.81,-76.33 3643.57,-73.19"/>
<polygon fill="midnightblue" stroke="midnightblue" points="3643.94,-76.68 3653.91,-73.08 3643.87,-69.68 3643.94,-76.68"/>
</g>
<!-- Node30 -->
<g id="node26" class="node">
<title>Node30</title>
<g id="a_node26"><a xlink:href="_components_8hpp.html" target="_top" xlink:title="Components.">
<polygon fill="none" stroke="black" points="2996,-257.5 2996,-287.5 3145,-287.5 3145,-257.5 2996,-257.5"/>
<text text-anchor="start" x="3004" y="-275.5" font-family="Helvetica,sans-Serif" font-size="10.00">NekoEngine/ECS/Components</text>
<text text-anchor="middle" x="3070.5" y="-264.5" font-family="Helvetica,sans-Serif" font-size="10.00">/Components.hpp</text>
</a>
</g>
</g>
<!-- Node29&#45;&gt;Node30 -->
<g id="edge37" class="edge">
<title>Node29&#45;&gt;Node30</title>
<path fill="none" stroke="midnightblue" d="M1800.21,-464.14C2007.59,-433.02 2735.75,-323.74 2985.6,-286.24"/>
<polygon fill="midnightblue" stroke="midnightblue" points="2986.34,-289.67 2995.71,-284.72 2985.3,-282.75 2986.34,-289.67"/>
</g>
<!-- Node49 -->
<g id="node43" class="node">
<title>Node49</title>
<g id="a_node43"><a xlink:href="_custom_client_8hpp.html" target="_top" xlink:title=" ">
<polygon fill="none" stroke="black" points="1319,-397 1319,-416 1446,-416 1446,-397 1319,-397"/>
<text text-anchor="middle" x="1382.5" y="-404" font-family="Helvetica,sans-Serif" font-size="10.00">include/CustomClient.hpp</text>
</a>
</g>
</g>
<!-- Node29&#45;&gt;Node49 -->
<g id="edge62" class="edge">
<title>Node29&#45;&gt;Node49</title>
<path fill="none" stroke="midnightblue" d="M1688.73,-462.49C1621.29,-450.38 1508.35,-430.1 1440.1,-417.84"/>
<polygon fill="midnightblue" stroke="midnightblue" points="1440.42,-414.34 1429.96,-416.02 1439.18,-421.23 1440.42,-414.34"/>
</g>
<!-- Node30&#45;&gt;Node22 -->
<g id="edge38" class="edge">
<title>Node30&#45;&gt;Node22</title>
<path fill="none" stroke="midnightblue" d="M3145.19,-271.27C3406.93,-270.12 4269.06,-263.12 4309.5,-221 4330.35,-199.29 4298.48,-174.86 4268.79,-158.45"/>
<polygon fill="midnightblue" stroke="midnightblue" points="4270.19,-155.23 4259.71,-153.63 4266.91,-161.41 4270.19,-155.23"/>
</g>
<!-- Node30&#45;&gt;Node27 -->
<g id="edge46" class="edge">
<title>Node30&#45;&gt;Node27</title>
<path fill="none" stroke="midnightblue" d="M3145.25,-270.29C3298.77,-267.16 3660.81,-256.47 3973.73,-221.12"/>
<polygon fill="midnightblue" stroke="midnightblue" points="3974.36,-224.57 3983.9,-219.96 3973.57,-217.61 3974.36,-224.57"/>
</g>
<!-- Node31 -->
<g id="node27" class="node">
<title>Node31</title>
<g id="a_node27"><a xlink:href="_timer_8hpp.html" target="_top" xlink:title="Timer component.">
<polygon fill="none" stroke="red" points="3817,-190.5 3817,-220.5 3966,-220.5 3966,-190.5 3817,-190.5"/>
<text text-anchor="start" x="3825" y="-208.5" font-family="Helvetica,sans-Serif" font-size="10.00">NekoEngine/ECS/Components</text>
<text text-anchor="middle" x="3891.5" y="-197.5" font-family="Helvetica,sans-Serif" font-size="10.00">/Timer.hpp</text>
</a>
</g>
</g>
<!-- Node30&#45;&gt;Node31 -->
<g id="edge39" class="edge">
<title>Node30&#45;&gt;Node31</title>
<path fill="none" stroke="midnightblue" d="M3145.12,-268.98C3276.77,-263.96 3559.05,-250.66 3806.62,-221.15"/>
<polygon fill="midnightblue" stroke="midnightblue" points="3807.39,-224.58 3816.9,-219.91 3806.55,-217.63 3807.39,-224.58"/>
</g>
<!-- Node33 -->
<g id="node28" class="node">
<title>Node33</title>
<g id="a_node28"><a xlink:href="_renderable_8hpp.html" target="_top" xlink:title="Renderable component.">
<polygon fill="none" stroke="black" points="1776,-190.5 1776,-220.5 1925,-220.5 1925,-190.5 1776,-190.5"/>
<text text-anchor="start" x="1784" y="-208.5" font-family="Helvetica,sans-Serif" font-size="10.00">NekoEngine/ECS/Components</text>
<text text-anchor="middle" x="1850.5" y="-197.5" font-family="Helvetica,sans-Serif" font-size="10.00">/Renderable.hpp</text>
</a>
</g>
</g>
<!-- Node30&#45;&gt;Node33 -->
<g id="edge40" class="edge">
<title>Node30&#45;&gt;Node33</title>
<path fill="none" stroke="midnightblue" d="M2995.82,-271.44C2815.3,-270.6 2340.9,-264.18 1935.26,-220.97"/>
<polygon fill="midnightblue" stroke="midnightblue" points="1935.4,-217.47 1925.09,-219.88 1934.65,-224.43 1935.4,-217.47"/>
</g>
<!-- Node34 -->
<g id="node29" class="node">
<title>Node34</title>
<g id="a_node29"><a xlink:href="_color_8hpp.html" target="_top" xlink:title="Color component.">
<polygon fill="none" stroke="red" points="1943,-190.5 1943,-220.5 2092,-220.5 2092,-190.5 1943,-190.5"/>
<text text-anchor="start" x="1951" y="-208.5" font-family="Helvetica,sans-Serif" font-size="10.00">NekoEngine/ECS/Components</text>
<text text-anchor="middle" x="2017.5" y="-197.5" font-family="Helvetica,sans-Serif" font-size="10.00">/Color.hpp</text>
</a>
</g>
</g>
<!-- Node30&#45;&gt;Node34 -->
<g id="edge41" class="edge">
<title>Node30&#45;&gt;Node34</title>
<path fill="none" stroke="midnightblue" d="M2995.79,-270.63C2834.46,-268.09 2441.38,-258.38 2102.11,-220.96"/>
<polygon fill="midnightblue" stroke="midnightblue" points="2102.42,-217.48 2092.09,-219.85 2101.64,-224.43 2102.42,-217.48"/>
</g>
<!-- Node35 -->
<g id="node30" class="node">
<title>Node35</title>
<g id="a_node30"><a xlink:href="_rigid_body_8hpp.html" target="_top" xlink:title="RigidBody component.">
<polygon fill="none" stroke="black" points="4326,-123.5 4326,-153.5 4475,-153.5 4475,-123.5 4326,-123.5"/>
<text text-anchor="start" x="4334" y="-141.5" font-family="Helvetica,sans-Serif" font-size="10.00">NekoEngine/ECS/Components</text>
<text text-anchor="middle" x="4400.5" y="-130.5" font-family="Helvetica,sans-Serif" font-size="10.00">/RigidBody.hpp</text>
</a>
</g>
</g>
<!-- Node30&#45;&gt;Node35 -->
<g id="edge42" class="edge">
<title>Node30&#45;&gt;Node35</title>
<path fill="none" stroke="midnightblue" d="M3145.09,-271.84C3398.97,-272.53 4219.72,-270.86 4326.5,-221 4353.11,-208.57 4374.44,-181.7 4387.24,-162.2"/>
<polygon fill="midnightblue" stroke="midnightblue" points="4390.3,-163.91 4392.66,-153.58 4384.37,-160.18 4390.3,-163.91"/>
</g>
<!-- Node36 -->
<g id="node31" class="node">
<title>Node36</title>
<g id="a_node31"><a xlink:href="_gravity_8hpp.html" target="_top" xlink:title="Gravity component.">
<polygon fill="none" stroke="black" points="3316,-123.5 3316,-153.5 3465,-153.5 3465,-123.5 3316,-123.5"/>
<text text-anchor="start" x="3324" y="-141.5" font-family="Helvetica,sans-Serif" font-size="10.00">NekoEngine/ECS/Components</text>
<text text-anchor="middle" x="3390.5" y="-130.5" font-family="Helvetica,sans-Serif" font-size="10.00">/Gravity.hpp</text>
</a>
</g>
</g>
<!-- Node30&#45;&gt;Node36 -->
<g id="edge44" class="edge">
<title>Node30&#45;&gt;Node36</title>
<path fill="none" stroke="midnightblue" d="M3078.44,-257.46C3089.71,-238.9 3112.18,-206.6 3140.5,-190 3190.64,-160.61 3255.08,-148.08 3305.98,-142.85"/>
<polygon fill="midnightblue" stroke="midnightblue" points="3306.34,-146.33 3315.97,-141.9 3305.68,-139.36 3306.34,-146.33"/>
</g>
<!-- Node37 -->
<g id="node32" class="node">
<title>Node37</title>
<g id="a_node32"><a xlink:href="_networkable_8hpp.html" target="_top" xlink:title="Networkable component.">
<polygon fill="none" stroke="black" points="2110,-190.5 2110,-220.5 2259,-220.5 2259,-190.5 2110,-190.5"/>
<text text-anchor="start" x="2118" y="-208.5" font-family="Helvetica,sans-Serif" font-size="10.00">NekoEngine/ECS/Components</text>
<text text-anchor="middle" x="2184.5" y="-197.5" font-family="Helvetica,sans-Serif" font-size="10.00">/Networkable.hpp</text>
</a>
</g>
</g>
<!-- Node30&#45;&gt;Node37 -->
<g id="edge47" class="edge">
<title>Node30&#45;&gt;Node37</title>
<path fill="none" stroke="midnightblue" d="M2995.9,-269.49C2855.62,-265.13 2542.81,-252.62 2269.22,-220.99"/>
<polygon fill="midnightblue" stroke="midnightblue" points="2269.43,-217.49 2259.09,-219.81 2268.62,-224.44 2269.43,-217.49"/>
</g>
<!-- Node38 -->
<g id="node33" class="node">
<title>Node38</title>
<g id="a_node33"><a xlink:href="_uid_8hpp.html" target="_top" xlink:title="Uid component.">
<polygon fill="none" stroke="red" points="2277,-190.5 2277,-220.5 2426,-220.5 2426,-190.5 2277,-190.5"/>
<text text-anchor="start" x="2285" y="-208.5" font-family="Helvetica,sans-Serif" font-size="10.00">NekoEngine/ECS/Components</text>
<text text-anchor="middle" x="2351.5" y="-197.5" font-family="Helvetica,sans-Serif" font-size="10.00">/Uid.hpp</text>
</a>
</g>
</g>
<!-- Node30&#45;&gt;Node38 -->
<g id="edge48" class="edge">
<title>Node30&#45;&gt;Node38</title>
<path fill="none" stroke="midnightblue" d="M2995.98,-267.79C2878.97,-261.48 2644.86,-246.87 2436.03,-220.98"/>
<polygon fill="midnightblue" stroke="midnightblue" points="2436.46,-217.51 2426.1,-219.74 2435.59,-224.46 2436.46,-217.51"/>
</g>
<!-- Node39 -->
<g id="node34" class="node">
<title>Node39</title>
<g id="a_node34"><a xlink:href="_hostile_8hpp.html" target="_top" xlink:title=" ">
<polygon fill="none" stroke="black" points="2444,-190.5 2444,-220.5 2593,-220.5 2593,-190.5 2444,-190.5"/>
<text text-anchor="start" x="2452" y="-208.5" font-family="Helvetica,sans-Serif" font-size="10.00">NekoEngine/ECS/Components</text>
<text text-anchor="middle" x="2518.5" y="-197.5" font-family="Helvetica,sans-Serif" font-size="10.00">/Hostile.hpp</text>
</a>
</g>
</g>
<!-- Node30&#45;&gt;Node39 -->
<g id="edge49" class="edge">
<title>Node30&#45;&gt;Node39</title>
<path fill="none" stroke="midnightblue" d="M2995.75,-264.91C2905.29,-256.6 2748.15,-241.11 2603.1,-221.02"/>
<polygon fill="midnightblue" stroke="midnightblue" points="2603.5,-217.55 2593.12,-219.63 2602.54,-224.48 2603.5,-217.55"/>
</g>
<!-- Node40 -->
<g id="node35" class="node">
<title>Node40</title>
<g id="a_node35"><a xlink:href="_but_8hpp.html" target="_top" xlink:title=" ">
<polygon fill="none" stroke="black" points="2611,-190.5 2611,-220.5 2760,-220.5 2760,-190.5 2611,-190.5"/>
<text text-anchor="start" x="2619" y="-208.5" font-family="Helvetica,sans-Serif" font-size="10.00">NekoEngine/ECS/Components</text>
<text text-anchor="middle" x="2685.5" y="-197.5" font-family="Helvetica,sans-Serif" font-size="10.00">/But.hpp</text>
</a>
</g>
</g>
<!-- Node30&#45;&gt;Node40 -->
<g id="edge50" class="edge">
<title>Node30&#45;&gt;Node40</title>
<path fill="none" stroke="midnightblue" d="M2995.96,-259.09C2937.35,-249.32 2853.37,-235.26 2770.04,-221.09"/>
<polygon fill="midnightblue" stroke="midnightblue" points="2770.6,-217.63 2760.15,-219.41 2769.42,-224.53 2770.6,-217.63"/>
</g>
<!-- Node41 -->
<g id="node36" class="node">
<title>Node41</title>
<g id="a_node36"><a xlink:href="_textinfo_8hpp.html" target="_top" xlink:title=" ">
<polygon fill="none" stroke="black" points="3650,-190.5 3650,-220.5 3799,-220.5 3799,-190.5 3650,-190.5"/>
<text text-anchor="start" x="3658" y="-208.5" font-family="Helvetica,sans-Serif" font-size="10.00">NekoEngine/ECS/Components</text>
<text text-anchor="middle" x="3724.5" y="-197.5" font-family="Helvetica,sans-Serif" font-size="10.00">/Textinfo.hpp</text>
</a>
</g>
</g>
<!-- Node30&#45;&gt;Node41 -->
<g id="edge51" class="edge">
<title>Node30&#45;&gt;Node41</title>
<path fill="none" stroke="midnightblue" d="M3145.09,-266.93C3252.36,-259.9 3456.59,-244.85 3639.8,-221.16"/>
<polygon fill="midnightblue" stroke="midnightblue" points="3640.43,-224.61 3649.89,-219.84 3639.52,-217.66 3640.43,-224.61"/>
</g>
<!-- Node42 -->
<g id="node37" class="node">
<title>Node42</title>
<g id="a_node37"><a xlink:href="_patterns_8hpp.html" target="_top" xlink:title="Patterns component.">
<polygon fill="none" stroke="red" points="4151,-190.5 4151,-220.5 4300,-220.5 4300,-190.5 4151,-190.5"/>
<text text-anchor="start" x="4159" y="-208.5" font-family="Helvetica,sans-Serif" font-size="10.00">NekoEngine/ECS/Components</text>
<text text-anchor="middle" x="4225.5" y="-197.5" font-family="Helvetica,sans-Serif" font-size="10.00">/Patterns.hpp</text>
</a>
</g>
</g>
<!-- Node30&#45;&gt;Node42 -->
<g id="edge53" class="edge">
<title>Node30&#45;&gt;Node42</title>
<path fill="none" stroke="midnightblue" d="M3145.16,-271.21C3318.49,-269.84 3761.69,-262.33 4140.84,-221.09"/>
<polygon fill="midnightblue" stroke="midnightblue" points="4141.35,-224.56 4150.91,-219.99 4140.58,-217.6 4141.35,-224.56"/>
</g>
<!-- Node44 -->
<g id="node38" class="node">
<title>Node44</title>
<g id="a_node38"><a xlink:href="_alien_8hpp.html" target="_top" xlink:title="Alien component.">
<polygon fill="none" stroke="black" points="2778,-190.5 2778,-220.5 2927,-220.5 2927,-190.5 2778,-190.5"/>
<text text-anchor="start" x="2786" y="-208.5" font-family="Helvetica,sans-Serif" font-size="10.00">NekoEngine/ECS/Components</text>
<text text-anchor="middle" x="2852.5" y="-197.5" font-family="Helvetica,sans-Serif" font-size="10.00">/Alien.hpp</text>
</a>
</g>
</g>
<!-- Node30&#45;&gt;Node44 -->
<g id="edge56" class="edge">
<title>Node30&#45;&gt;Node44</title>
<path fill="none" stroke="midnightblue" d="M3023.47,-257.48C2990.06,-247.51 2945.02,-234.09 2909.56,-223.51"/>
<polygon fill="midnightblue" stroke="midnightblue" points="2910.41,-220.11 2899.83,-220.61 2908.41,-226.82 2910.41,-220.11"/>
</g>
<!-- Node45 -->
<g id="node39" class="node">
<title>Node45</title>
<g id="a_node39"><a xlink:href="_entity_type_8hpp.html" target="_top" xlink:title=" ">
<polygon fill="none" stroke="black" points="2945,-190.5 2945,-220.5 3094,-220.5 3094,-190.5 2945,-190.5"/>
<text text-anchor="start" x="2953" y="-208.5" font-family="Helvetica,sans-Serif" font-size="10.00">NekoEngine/ECS/Components</text>
<text text-anchor="middle" x="3019.5" y="-197.5" font-family="Helvetica,sans-Serif" font-size="10.00">/EntityType.hpp</text>
</a>
</g>
</g>
<!-- Node30&#45;&gt;Node45 -->
<g id="edge57" class="edge">
<title>Node30&#45;&gt;Node45</title>
<path fill="none" stroke="midnightblue" d="M3059.43,-257.4C3052.82,-248.96 3044.27,-238.07 3036.78,-228.52"/>
<polygon fill="midnightblue" stroke="midnightblue" points="3039.47,-226.28 3030.54,-220.58 3033.96,-230.6 3039.47,-226.28"/>
</g>
<!-- Node46 -->
<g id="node40" class="node">
<title>Node46</title>
<g id="a_node40"><a xlink:href="_gorb_background_8hpp.html" target="_top" xlink:title=" ">
<polygon fill="none" stroke="black" points="3149,-190.5 3149,-220.5 3298,-220.5 3298,-190.5 3149,-190.5"/>
<text text-anchor="start" x="3157" y="-208.5" font-family="Helvetica,sans-Serif" font-size="10.00">NekoEngine/ECS/Components</text>
<text text-anchor="middle" x="3223.5" y="-197.5" font-family="Helvetica,sans-Serif" font-size="10.00">/GorbBackground.hpp</text>
</a>
</g>
</g>
<!-- Node30&#45;&gt;Node46 -->
<g id="edge58" class="edge">
<title>Node30&#45;&gt;Node46</title>
<path fill="none" stroke="midnightblue" d="M3103.7,-257.4C3126.35,-247.77 3156.57,-234.94 3180.98,-224.56"/>
<polygon fill="midnightblue" stroke="midnightblue" points="3182.53,-227.71 3190.37,-220.58 3179.79,-221.27 3182.53,-227.71"/>
</g>
<!-- Node47 -->
<g id="node41" class="node">
<title>Node47</title>
<g id="a_node41"><a xlink:href="_animation_8hpp.html" target="_top" xlink:title=" ">
<polygon fill="none" stroke="black" points="3316,-190.5 3316,-220.5 3465,-220.5 3465,-190.5 3316,-190.5"/>
<text text-anchor="start" x="3324" y="-208.5" font-family="Helvetica,sans-Serif" font-size="10.00">NekoEngine/ECS/Components</text>
<text text-anchor="middle" x="3390.5" y="-197.5" font-family="Helvetica,sans-Serif" font-size="10.00">/Animation.hpp</text>
</a>
</g>
</g>
<!-- Node30&#45;&gt;Node47 -->
<g id="edge59" class="edge">
<title>Node30&#45;&gt;Node47</title>
<path fill="none" stroke="midnightblue" d="M3139.54,-257.48C3190.03,-247.22 3258.61,-233.29 3311.32,-222.58"/>
<polygon fill="midnightblue" stroke="midnightblue" points="3312.2,-225.98 3321.31,-220.55 3310.81,-219.12 3312.2,-225.98"/>
</g>
<!-- Node48 -->
<g id="node42" class="node">
<title>Node48</title>
<g id="a_node42"><a xlink:href="_player_shoot_8hpp.html" target="_top" xlink:title=" ">
<polygon fill="none" stroke="black" points="3483,-190.5 3483,-220.5 3632,-220.5 3632,-190.5 3483,-190.5"/>
<text text-anchor="start" x="3491" y="-208.5" font-family="Helvetica,sans-Serif" font-size="10.00">NekoEngine/ECS/Components</text>
<text text-anchor="middle" x="3557.5" y="-197.5" font-family="Helvetica,sans-Serif" font-size="10.00">/PlayerShoot.hpp</text>
</a>
</g>
</g>
<!-- Node30&#45;&gt;Node48 -->
<g id="edge60" class="edge">
<title>Node30&#45;&gt;Node48</title>
<path fill="none" stroke="midnightblue" d="M3145.11,-263.27C3224.08,-254.32 3352.59,-239.03 3472.76,-221.22"/>
<polygon fill="midnightblue" stroke="midnightblue" points="3473.5,-224.65 3482.87,-219.71 3472.46,-217.73 3473.5,-224.65"/>
</g>
<!-- Node35&#45;&gt;Node23 -->
<g id="edge43" class="edge">
<title>Node35&#45;&gt;Node23</title>
<path fill="none" stroke="midnightblue" d="M4325.67,-124.76C4321.22,-124.13 4316.8,-123.54 4312.5,-123 4124.64,-99.6 3902.08,-83.92 3789.52,-76.83"/>
<polygon fill="midnightblue" stroke="midnightblue" points="3789.51,-73.32 3779.31,-76.19 3789.07,-80.31 3789.51,-73.32"/>
</g>
<!-- Node36&#45;&gt;Node23 -->
<g id="edge45" class="edge">
<title>Node36&#45;&gt;Node23</title>
<path fill="none" stroke="midnightblue" d="M3460.84,-123.48C3514.93,-112.69 3589.42,-97.84 3644.04,-86.95"/>
<polygon fill="midnightblue" stroke="midnightblue" points="3644.88,-90.35 3654,-84.96 3643.51,-83.48 3644.88,-90.35"/>
</g>
<!-- Node41&#45;&gt;Node28 -->
<g id="edge52" class="edge">
<title>Node41&#45;&gt;Node28</title>
<path fill="none" stroke="midnightblue" d="M3742.51,-190.4C3756.09,-179.76 3774.68,-165.2 3788.5,-154.38"/>
<polygon fill="midnightblue" stroke="midnightblue" points="3790.68,-157.12 3796.4,-148.19 3786.37,-151.6 3790.68,-157.12"/>
</g>
<!-- Node42&#45;&gt;Node22 -->
<g id="edge55" class="edge">
<title>Node42&#45;&gt;Node22</title>
<path fill="none" stroke="midnightblue" d="M4226.15,-190.4C4226.51,-182.64 4226.96,-172.81 4227.38,-163.86"/>
<polygon fill="midnightblue" stroke="midnightblue" points="4230.89,-163.73 4227.85,-153.58 4223.89,-163.4 4230.89,-163.73"/>
</g>
<!-- Node42&#45;&gt;Node23 -->
<g id="edge54" class="edge">
<title>Node42&#45;&gt;Node23</title>
<path fill="none" stroke="midnightblue" d="M4171.51,-190.5C4076.92,-165.97 3881.71,-115.34 3780.49,-89.1"/>
<polygon fill="midnightblue" stroke="midnightblue" points="3781.26,-85.68 3770.7,-86.56 3779.5,-92.45 3781.26,-85.68"/>
</g>
<!-- Node50 -->
<g id="node44" class="node">
<title>Node50</title>
<g id="a_node44"><a xlink:title=" ">
<polygon fill="none" stroke="#bfbfbf" points="1140.5,-330 1140.5,-349 1244.5,-349 1244.5,-330 1140.5,-330"/>
<text text-anchor="middle" x="1192.5" y="-337" font-family="Helvetica,sans-Serif" font-size="10.00">NyaNet/NyaNet.hpp</text>
</a>
</g>
</g>
<!-- Node49&#45;&gt;Node50 -->
<g id="edge63" class="edge">
<title>Node49&#45;&gt;Node50</title>
<path fill="none" stroke="midnightblue" d="M1357.27,-396.87C1323.82,-385.42 1264.64,-365.18 1227.06,-352.32"/>
<polygon fill="midnightblue" stroke="midnightblue" points="1228.13,-348.99 1217.53,-349.06 1225.86,-355.61 1228.13,-348.99"/>
</g>
<!-- Node51 -->
<g id="node45" class="node">
<title>Node51</title>
<g id="a_node45"><a xlink:href="_neko_engine_8hpp.html" target="_top" xlink:title=" ">
<polygon fill="none" stroke="red" points="1739,-330 1739,-349 1882,-349 1882,-330 1739,-330"/>
<text text-anchor="middle" x="1810.5" y="-337" font-family="Helvetica,sans-Serif" font-size="10.00">NekoEngine/NekoEngine.hpp</text>
</a>
</g>
</g>
<!-- Node49&#45;&gt;Node51 -->
<g id="edge64" class="edge">
<title>Node49&#45;&gt;Node51</title>
<path fill="none" stroke="midnightblue" d="M1438.89,-396.94C1517.75,-384.96 1660.66,-363.26 1744.41,-350.54"/>
<polygon fill="midnightblue" stroke="midnightblue" points="1744.96,-353.99 1754.32,-349.03 1743.91,-347.07 1744.96,-353.99"/>
</g>
<!-- Node71 -->
<g id="node46" class="node">
<title>Node71</title>
<g id="a_node46"><a xlink:title=" ">
<polygon fill="none" stroke="#bfbfbf" points="1263,-324.5 1263,-354.5 1376,-354.5 1376,-324.5 1263,-324.5"/>
<text text-anchor="start" x="1271" y="-342.5" font-family="Helvetica,sans-Serif" font-size="10.00">../../Game/Ennemies</text>
<text text-anchor="middle" x="1319.5" y="-331.5" font-family="Helvetica,sans-Serif" font-size="10.00">/EnnemiesFactory.hpp</text>
</a>
</g>
</g>
<!-- Node49&#45;&gt;Node71 -->
<g id="edge69" class="edge">
<title>Node49&#45;&gt;Node71</title>
<path fill="none" stroke="midnightblue" d="M1374,-396.73C1365.41,-387.86 1351.79,-373.81 1340.31,-361.97"/>
<polygon fill="midnightblue" stroke="midnightblue" points="1342.63,-359.33 1333.16,-354.59 1337.6,-364.21 1342.63,-359.33"/>
</g>
<!-- Node72 -->
<g id="node47" class="node">
<title>Node72</title>
<g id="a_node47"><a xlink:title=" ">
<polygon fill="none" stroke="#bfbfbf" points="1394.5,-324.5 1394.5,-354.5 1494.5,-354.5 1494.5,-324.5 1394.5,-324.5"/>
<text text-anchor="start" x="1402.5" y="-342.5" font-family="Helvetica,sans-Serif" font-size="10.00">../../Game/Bullets</text>
<text text-anchor="middle" x="1444.5" y="-331.5" font-family="Helvetica,sans-Serif" font-size="10.00">/BulletsFactory.hpp</text>
</a>
</g>
</g>
<!-- Node49&#45;&gt;Node72 -->
<g id="edge70" class="edge">
<title>Node49&#45;&gt;Node72</title>
<path fill="none" stroke="midnightblue" d="M1390.86,-396.73C1399.32,-387.86 1412.73,-373.81 1424.02,-361.97"/>
<polygon fill="midnightblue" stroke="midnightblue" points="1426.69,-364.24 1431.06,-354.59 1421.63,-359.41 1426.69,-364.24"/>
</g>
<!-- Node73 -->
<g id="node48" class="node">
<title>Node73</title>
<g id="a_node48"><a xlink:title=" ">
<polygon fill="none" stroke="#bfbfbf" points="1512.5,-330 1512.5,-349 1682.5,-349 1682.5,-330 1512.5,-330"/>
<text text-anchor="middle" x="1597.5" y="-337" font-family="Helvetica,sans-Serif" font-size="10.00">../../Game/Bonus/BonusFactory.hpp</text>
</a>
</g>
</g>
<!-- Node49&#45;&gt;Node73 -->
<g id="edge71" class="edge">
<title>Node49&#45;&gt;Node73</title>
<path fill="none" stroke="midnightblue" d="M1411.05,-396.87C1449.23,-385.33 1517.01,-364.84 1559.48,-352"/>
<polygon fill="midnightblue" stroke="midnightblue" points="1560.61,-355.31 1569.17,-349.06 1558.59,-348.61 1560.61,-355.31"/>
</g>
<!-- Node74 -->
<g id="node49" class="node">
<title>Node74</title>
<g id="a_node49"><a xlink:href="_sound_8hpp.html" target="_top" xlink:title=" ">
<polygon fill="none" stroke="red" points="906.5,-330 906.5,-349 968.5,-349 968.5,-330 906.5,-330"/>
<text text-anchor="middle" x="937.5" y="-337" font-family="Helvetica,sans-Serif" font-size="10.00">Sound.hpp</text>
</a>
</g>
</g>
<!-- Node49&#45;&gt;Node74 -->
<g id="edge72" class="edge">
<title>Node49&#45;&gt;Node74</title>
<path fill="none" stroke="midnightblue" d="M1318.93,-401.98C1238.5,-396.53 1096.17,-383.53 977.5,-355 974.44,-354.26 971.29,-353.37 968.16,-352.39"/>
<polygon fill="midnightblue" stroke="midnightblue" points="969,-348.98 958.4,-349.07 966.74,-355.61 969,-348.98"/>
</g>
<!-- Node76 -->
<g id="node50" class="node">
<title>Node76</title>
<g id="a_node50"><a xlink:title=" ">
<polygon fill="none" stroke="#bfbfbf" points="986.5,-330 986.5,-349 1122.5,-349 1122.5,-330 986.5,-330"/>
<text text-anchor="middle" x="1054.5" y="-337" font-family="Helvetica,sans-Serif" font-size="10.00">../../Game/Player/Player.hpp</text>
</a>
</g>
</g>
<!-- Node49&#45;&gt;Node76 -->
<g id="edge73" class="edge">
<title>Node49&#45;&gt;Node76</title>
<path fill="none" stroke="midnightblue" d="M1339.28,-396.94C1279.59,-385.11 1171.99,-363.78 1107.52,-351.01"/>
<polygon fill="midnightblue" stroke="midnightblue" points="1108.04,-347.54 1097.55,-349.03 1106.68,-354.41 1108.04,-347.54"/>
</g>
<!-- Node51&#45;&gt;Node2 -->
<g id="edge66" class="edge">
<title>Node51&#45;&gt;Node2</title>
<path fill="none" stroke="midnightblue" d="M1747.59,-329.97C1729.51,-327.76 1709.75,-325.56 1691.5,-324 1344.45,-294.41 930.22,-280.67 749.89,-275.75"/>
<polygon fill="midnightblue" stroke="midnightblue" points="749.75,-272.24 739.66,-275.47 749.56,-279.24 749.75,-272.24"/>
</g>
<!-- Node51&#45;&gt;Node23 -->
<g id="edge65" class="edge">
<title>Node51&#45;&gt;Node23</title>
<path fill="none" stroke="midnightblue" d="M1803.09,-329.81C1782.55,-304.68 1728.86,-231.04 1767.5,-190 1833.05,-120.38 3297.39,-82.2 3643.61,-74.13"/>
<polygon fill="midnightblue" stroke="midnightblue" points="3643.85,-77.62 3653.76,-73.89 3643.68,-70.62 3643.85,-77.62"/>
</g>
<!-- Node51&#45;&gt;Node29 -->
<g id="edge68" class="edge">
<title>Node51&#45;&gt;Node29</title>
<path fill="none" stroke="midnightblue" d="M1806.2,-349.1C1796.21,-369.08 1771.13,-419.25 1756.2,-449.1"/>
<polygon fill="midnightblue" stroke="midnightblue" points="1752.9,-447.86 1751.56,-458.37 1759.17,-450.99 1752.9,-447.86"/>
</g>
<!-- Node51&#45;&gt;Node30 -->
<g id="edge67" class="edge">
<title>Node51&#45;&gt;Node30</title>
<path fill="none" stroke="midnightblue" d="M1882.31,-334.8C2099.91,-323.57 2751.37,-289.96 2985.52,-277.88"/>
<polygon fill="midnightblue" stroke="midnightblue" points="2985.87,-281.37 2995.68,-277.36 2985.51,-274.38 2985.87,-281.37"/>
</g>
</g>
</svg>
