<?xml version="1.0" encoding="UTF-8" standalone="no"?>
<!DOCTYPE svg PUBLIC "-//W3C//DTD SVG 1.1//EN"
 "http://www.w3.org/Graphics/SVG/1.1/DTD/svg11.dtd">
<!-- Generated by graphviz version 2.49.3 (20211027.1501)
 -->
<!-- Title: NekoEngine/include/NekoEngine/ECS/Systems/BonusSystem.hpp Pages: 1 -->
<svg width="2978pt" height="575pt"
 viewBox="0.00 0.00 2977.50 575.00" xmlns="http://www.w3.org/2000/svg" xmlns:xlink="http://www.w3.org/1999/xlink">
<g id="graph0" class="graph" transform="scale(1 1) rotate(0) translate(4 571)">
<title>NekoEngine/include/NekoEngine/ECS/Systems/BonusSystem.hpp</title>
<!-- Node1 -->
<g id="node1" class="node">
<title>Node1</title>
<g id="a_node1"><a xlink:title=" ">
<polygon fill="#bfbfbf" stroke="black" points="948,-525.5 948,-566.5 1084,-566.5 1084,-525.5 948,-525.5"/>
<text text-anchor="start" x="956" y="-554.5" font-family="Helvetica,sans-Serif" font-size="10.00">NekoEngine/include</text>
<text text-anchor="start" x="956" y="-543.5" font-family="Helvetica,sans-Serif" font-size="10.00">/NekoEngine/ECS/Systems</text>
<text text-anchor="middle" x="1016" y="-532.5" font-family="Helvetica,sans-Serif" font-size="10.00">/BonusSystem.hpp</text>
</a>
</g>
</g>
<!-- Node2 -->
<g id="node2" class="node">
<title>Node2</title>
<g id="a_node2"><a xlink:href="_system_8hpp.html" target="_top" xlink:title="ECS System.">
<polygon fill="none" stroke="black" points="192,-330 192,-349 338,-349 338,-330 192,-330"/>
<text text-anchor="middle" x="265" y="-337" font-family="Helvetica,sans-Serif" font-size="10.00">NekoEngine/ECS/System.hpp</text>
</a>
</g>
</g>
<!-- Node1&#45;&gt;Node2 -->
<g id="edge1" class="edge">
<title>Node1&#45;&gt;Node2</title>
<path fill="none" stroke="midnightblue" d="M947.7,-545.86C835.01,-545.68 603.91,-538.55 416,-489 345.79,-470.49 307.18,-482.48 267,-422 254.67,-403.44 256.75,-376.89 260.18,-359.19"/>
<polygon fill="midnightblue" stroke="midnightblue" points="263.64,-359.77 262.43,-349.24 256.81,-358.22 263.64,-359.77"/>
</g>
<!-- Node8 -->
<g id="node8" class="node">
<title>Node8</title>
<g id="a_node8"><a xlink:href="_components_8hpp.html" target="_top" xlink:title="Components.">
<polygon fill="none" stroke="black" points="1317.5,-257.5 1317.5,-287.5 1466.5,-287.5 1466.5,-257.5 1317.5,-257.5"/>
<text text-anchor="start" x="1325.5" y="-275.5" font-family="Helvetica,sans-Serif" font-size="10.00">NekoEngine/ECS/Components</text>
<text text-anchor="middle" x="1392" y="-264.5" font-family="Helvetica,sans-Serif" font-size="10.00">/Components.hpp</text>
</a>
</g>
</g>
<!-- Node1&#45;&gt;Node8 -->
<g id="edge7" class="edge">
<title>Node1&#45;&gt;Node8</title>
<path fill="none" stroke="midnightblue" d="M1015.67,-525.39C1016.33,-506.34 1020.04,-477.5 1035,-458 1107.02,-364.12 1240.31,-313.65 1322.07,-290.28"/>
<polygon fill="midnightblue" stroke="midnightblue" points="1323.1,-293.63 1331.78,-287.56 1321.21,-286.89 1323.1,-293.63"/>
</g>
<!-- Node34 -->
<g id="node34" class="node">
<title>Node34</title>
<g id="a_node34"><a xlink:title=" ">
<polygon fill="none" stroke="#bfbfbf" points="1044,-458.5 1044,-488.5 1172,-488.5 1172,-458.5 1044,-458.5"/>
<text text-anchor="start" x="1052" y="-476.5" font-family="Helvetica,sans-Serif" font-size="10.00">../../../../../Game</text>
<text text-anchor="middle" x="1108" y="-465.5" font-family="Helvetica,sans-Serif" font-size="10.00">/Bonus/BonusFactory.hpp</text>
</a>
</g>
</g>
<!-- Node1&#45;&gt;Node34 -->
<g id="edge40" class="edge">
<title>Node1&#45;&gt;Node34</title>
<path fill="none" stroke="midnightblue" d="M1041.63,-525.36C1053.98,-515.89 1068.79,-504.54 1081.29,-494.97"/>
<polygon fill="midnightblue" stroke="midnightblue" points="1083.7,-497.53 1089.51,-488.67 1079.44,-491.97 1083.7,-497.53"/>
</g>
<!-- Node35 -->
<g id="node35" class="node">
<title>Node35</title>
<g id="a_node35"><a xlink:href="_coordinator_8hpp.html" target="_top" xlink:title="Coordinator class.">
<polygon fill="none" stroke="black" points="425,-464 425,-483 587,-483 587,-464 425,-464"/>
<text text-anchor="middle" x="506" y="-471" font-family="Helvetica,sans-Serif" font-size="10.00">NekoEngine/ECS/Coordinator.hpp</text>
</a>
</g>
</g>
<!-- Node1&#45;&gt;Node35 -->
<g id="edge41" class="edge">
<title>Node1&#45;&gt;Node35</title>
<path fill="none" stroke="midnightblue" d="M947.75,-535.57C851.41,-522.25 676.35,-498.05 578.01,-484.45"/>
<polygon fill="midnightblue" stroke="midnightblue" points="578.25,-480.95 567.86,-483.05 577.29,-487.89 578.25,-480.95"/>
</g>
<!-- Node48 -->
<g id="node48" class="node">
<title>Node48</title>
<g id="a_node48"><a xlink:title=" ">
<polygon fill="none" stroke="#bfbfbf" points="1190,-464 1190,-483 1244,-483 1244,-464 1190,-464"/>
<text text-anchor="middle" x="1217" y="-471" font-family="Helvetica,sans-Serif" font-size="10.00">iostream</text>
</a>
</g>
</g>
<!-- Node1&#45;&gt;Node48 -->
<g id="edge67" class="edge">
<title>Node1&#45;&gt;Node48</title>
<path fill="none" stroke="midnightblue" d="M1076.24,-525.45C1107.62,-515.04 1146.54,-501.78 1181,-489 1182.85,-488.31 1184.74,-487.6 1186.65,-486.86"/>
<polygon fill="midnightblue" stroke="midnightblue" points="1188.11,-490.05 1196.14,-483.13 1185.55,-483.54 1188.11,-490.05"/>
</g>
<!-- Node3 -->
<g id="node3" class="node">
<title>Node3</title>
<g id="a_node3"><a xlink:title=" ">
<polygon fill="none" stroke="#bfbfbf" points="226,-263 226,-282 256,-282 256,-263 226,-263"/>
<text text-anchor="middle" x="241" y="-270" font-family="Helvetica,sans-Serif" font-size="10.00">set</text>
</a>
</g>
</g>
<!-- Node2&#45;&gt;Node3 -->
<g id="edge2" class="edge">
<title>Node2&#45;&gt;Node3</title>
<path fill="none" stroke="midnightblue" d="M261.76,-329.73C258.16,-319.99 252.25,-303.98 247.66,-291.53"/>
<polygon fill="midnightblue" stroke="midnightblue" points="250.93,-290.3 244.19,-282.13 244.37,-292.72 250.93,-290.3"/>
</g>
<!-- Node4 -->
<g id="node4" class="node">
<title>Node4</title>
<g id="a_node4"><a xlink:title=" ">
<polygon fill="none" stroke="#bfbfbf" points="351.5,-263 351.5,-282 402.5,-282 402.5,-263 351.5,-263"/>
<text text-anchor="middle" x="377" y="-270" font-family="Helvetica,sans-Serif" font-size="10.00">memory</text>
</a>
</g>
</g>
<!-- Node2&#45;&gt;Node4 -->
<g id="edge3" class="edge">
<title>Node2&#45;&gt;Node4</title>
<path fill="none" stroke="midnightblue" d="M280.1,-329.73C298.91,-318.82 331.25,-300.05 353.36,-287.22"/>
<polygon fill="midnightblue" stroke="midnightblue" points="355.24,-290.17 362.13,-282.13 351.73,-284.12 355.24,-290.17"/>
</g>
<!-- Node5 -->
<g id="node5" class="node">
<title>Node5</title>
<g id="a_node5"><a xlink:href="_types_8hpp.html" target="_top" xlink:title="NekoEngine types definition.">
<polygon fill="none" stroke="black" points="214.5,-196 214.5,-215 353.5,-215 353.5,-196 214.5,-196"/>
<text text-anchor="middle" x="284" y="-203" font-family="Helvetica,sans-Serif" font-size="10.00">NekoEngine/ECS/Types.hpp</text>
</a>
</g>
</g>
<!-- Node2&#45;&gt;Node5 -->
<g id="edge4" class="edge">
<title>Node2&#45;&gt;Node5</title>
<path fill="none" stroke="midnightblue" d="M266.25,-329.84C269.29,-308.67 277.17,-253.95 281.33,-225.03"/>
<polygon fill="midnightblue" stroke="midnightblue" points="284.81,-225.42 282.77,-215.02 277.88,-224.42 284.81,-225.42"/>
</g>
<!-- Node6 -->
<g id="node6" class="node">
<title>Node6</title>
<g id="a_node6"><a xlink:title=" ">
<polygon fill="none" stroke="#bfbfbf" points="423,-129 423,-148 469,-148 469,-129 423,-129"/>
<text text-anchor="middle" x="446" y="-136" font-family="Helvetica,sans-Serif" font-size="10.00">cstdint</text>
</a>
</g>
</g>
<!-- Node5&#45;&gt;Node6 -->
<g id="edge5" class="edge">
<title>Node5&#45;&gt;Node6</title>
<path fill="none" stroke="midnightblue" d="M305.51,-195.87C333.67,-184.57 383.2,-164.7 415.3,-151.82"/>
<polygon fill="midnightblue" stroke="midnightblue" points="416.68,-155.04 424.66,-148.06 414.07,-148.54 416.68,-155.04"/>
</g>
<!-- Node7 -->
<g id="node7" class="node">
<title>Node7</title>
<g id="a_node7"><a xlink:title=" ">
<polygon fill="none" stroke="#bfbfbf" points="263.5,-129 263.5,-148 304.5,-148 304.5,-129 263.5,-129"/>
<text text-anchor="middle" x="284" y="-136" font-family="Helvetica,sans-Serif" font-size="10.00">bitset</text>
</a>
</g>
</g>
<!-- Node5&#45;&gt;Node7 -->
<g id="edge6" class="edge">
<title>Node5&#45;&gt;Node7</title>
<path fill="none" stroke="midnightblue" d="M284,-195.73C284,-186.18 284,-170.62 284,-158.28"/>
<polygon fill="midnightblue" stroke="midnightblue" points="287.5,-158.13 284,-148.13 280.5,-158.13 287.5,-158.13"/>
</g>
<!-- Node9 -->
<g id="node9" class="node">
<title>Node9</title>
<g id="a_node9"><a xlink:href="_transform_8hpp.html" target="_top" xlink:title="Transform component.">
<polygon fill="none" stroke="black" points="599.5,-123.5 599.5,-153.5 748.5,-153.5 748.5,-123.5 599.5,-123.5"/>
<text text-anchor="start" x="607.5" y="-141.5" font-family="Helvetica,sans-Serif" font-size="10.00">NekoEngine/ECS/Components</text>
<text text-anchor="middle" x="674" y="-130.5" font-family="Helvetica,sans-Serif" font-size="10.00">/Transform.hpp</text>
</a>
</g>
</g>
<!-- Node8&#45;&gt;Node9 -->
<g id="edge8" class="edge">
<title>Node8&#45;&gt;Node9</title>
<path fill="none" stroke="midnightblue" d="M1317.3,-269.26C1155.66,-263.9 783.97,-248.72 734,-221 710.73,-208.1 694,-181.94 684.21,-162.73"/>
<polygon fill="midnightblue" stroke="midnightblue" points="687.34,-161.17 679.85,-153.68 681.04,-164.21 687.34,-161.17"/>
</g>
<!-- Node14 -->
<g id="node14" class="node">
<title>Node14</title>
<g id="a_node14"><a xlink:href="_timer_8hpp.html" target="_top" xlink:title="Timer component.">
<polygon fill="none" stroke="black" points="1150.5,-190.5 1150.5,-220.5 1299.5,-220.5 1299.5,-190.5 1150.5,-190.5"/>
<text text-anchor="start" x="1158.5" y="-208.5" font-family="Helvetica,sans-Serif" font-size="10.00">NekoEngine/ECS/Components</text>
<text text-anchor="middle" x="1225" y="-197.5" font-family="Helvetica,sans-Serif" font-size="10.00">/Timer.hpp</text>
</a>
</g>
</g>
<!-- Node8&#45;&gt;Node14 -->
<g id="edge13" class="edge">
<title>Node8&#45;&gt;Node14</title>
<path fill="none" stroke="midnightblue" d="M1355.76,-257.4C1330.82,-247.69 1297.47,-234.71 1270.7,-224.29"/>
<polygon fill="midnightblue" stroke="midnightblue" points="1271.75,-220.94 1261.17,-220.58 1269.22,-227.47 1271.75,-220.94"/>
</g>
<!-- Node16 -->
<g id="node16" class="node">
<title>Node16</title>
<g id="a_node16"><a xlink:href="_renderable_8hpp.html" target="_top" xlink:title="Renderable component.">
<polygon fill="none" stroke="black" points="946.5,-190.5 946.5,-220.5 1095.5,-220.5 1095.5,-190.5 946.5,-190.5"/>
<text text-anchor="start" x="954.5" y="-208.5" font-family="Helvetica,sans-Serif" font-size="10.00">NekoEngine/ECS/Components</text>
<text text-anchor="middle" x="1021" y="-197.5" font-family="Helvetica,sans-Serif" font-size="10.00">/Renderable.hpp</text>
</a>
</g>
</g>
<!-- Node8&#45;&gt;Node16 -->
<g id="edge15" class="edge">
<title>Node8&#45;&gt;Node16</title>
<path fill="none" stroke="midnightblue" d="M1317.37,-258.42C1256.11,-247.69 1169.37,-232.49 1105.55,-221.31"/>
<polygon fill="midnightblue" stroke="midnightblue" points="1105.97,-217.83 1095.51,-219.55 1104.76,-224.73 1105.97,-217.83"/>
</g>
<!-- Node17 -->
<g id="node17" class="node">
<title>Node17</title>
<g id="a_node17"><a xlink:href="_color_8hpp.html" target="_top" xlink:title="Color component.">
<polygon fill="none" stroke="black" points="538.5,-190.5 538.5,-220.5 687.5,-220.5 687.5,-190.5 538.5,-190.5"/>
<text text-anchor="start" x="546.5" y="-208.5" font-family="Helvetica,sans-Serif" font-size="10.00">NekoEngine/ECS/Components</text>
<text text-anchor="middle" x="613" y="-197.5" font-family="Helvetica,sans-Serif" font-size="10.00">/Color.hpp</text>
</a>
</g>
</g>
<!-- Node8&#45;&gt;Node17 -->
<g id="edge16" class="edge">
<title>Node8&#45;&gt;Node17</title>
<path fill="none" stroke="midnightblue" d="M1317.4,-268.26C1190.47,-262.26 924.52,-247.53 701,-221 699.92,-220.87 698.84,-220.74 697.75,-220.61"/>
<polygon fill="midnightblue" stroke="midnightblue" points="698.2,-217.13 687.83,-219.3 697.29,-224.07 698.2,-217.13"/>
</g>
<!-- Node18 -->
<g id="node18" class="node">
<title>Node18</title>
<g id="a_node18"><a xlink:href="_rigid_body_8hpp.html" target="_top" xlink:title="RigidBody component.">
<polygon fill="none" stroke="black" points="881.5,-123.5 881.5,-153.5 1030.5,-153.5 1030.5,-123.5 881.5,-123.5"/>
<text text-anchor="start" x="889.5" y="-141.5" font-family="Helvetica,sans-Serif" font-size="10.00">NekoEngine/ECS/Components</text>
<text text-anchor="middle" x="956" y="-130.5" font-family="Helvetica,sans-Serif" font-size="10.00">/RigidBody.hpp</text>
</a>
</g>
</g>
<!-- Node8&#45;&gt;Node18 -->
<g id="edge18" class="edge">
<title>Node8&#45;&gt;Node18</title>
<path fill="none" stroke="midnightblue" d="M1317.2,-268.54C1194.81,-262.91 962.79,-248.7 938,-221 923.76,-205.09 931.87,-180.5 941.33,-162.49"/>
<polygon fill="midnightblue" stroke="midnightblue" points="944.39,-164.18 946.28,-153.76 938.3,-160.73 944.39,-164.18"/>
</g>
<!-- Node19 -->
<g id="node19" class="node">
<title>Node19</title>
<g id="a_node19"><a xlink:href="_gravity_8hpp.html" target="_top" xlink:title="Gravity component.">
<polygon fill="none" stroke="black" points="1048.5,-123.5 1048.5,-153.5 1197.5,-153.5 1197.5,-123.5 1048.5,-123.5"/>
<text text-anchor="start" x="1056.5" y="-141.5" font-family="Helvetica,sans-Serif" font-size="10.00">NekoEngine/ECS/Components</text>
<text text-anchor="middle" x="1123" y="-130.5" font-family="Helvetica,sans-Serif" font-size="10.00">/Gravity.hpp</text>
</a>
</g>
</g>
<!-- Node8&#45;&gt;Node19 -->
<g id="edge20" class="edge">
<title>Node8&#45;&gt;Node19</title>
<path fill="none" stroke="midnightblue" d="M1317.46,-265.28C1253.08,-258.37 1166.62,-244.9 1142,-221 1126.91,-206.35 1122.81,-182.2 1122.1,-163.99"/>
<polygon fill="midnightblue" stroke="midnightblue" points="1125.59,-163.78 1122.02,-153.81 1118.6,-163.84 1125.59,-163.78"/>
</g>
<!-- Node20 -->
<g id="node20" class="node">
<title>Node20</title>
<g id="a_node20"><a xlink:href="_skin_8hpp.html" target="_top" xlink:title="Skin component.">
<polygon fill="none" stroke="black" points="2653.5,-190.5 2653.5,-220.5 2802.5,-220.5 2802.5,-190.5 2653.5,-190.5"/>
<text text-anchor="start" x="2661.5" y="-208.5" font-family="Helvetica,sans-Serif" font-size="10.00">NekoEngine/ECS/Components</text>
<text text-anchor="middle" x="2728" y="-197.5" font-family="Helvetica,sans-Serif" font-size="10.00">/Skin.hpp</text>
</a>
</g>
</g>
<!-- Node8&#45;&gt;Node20 -->
<g id="edge22" class="edge">
<title>Node8&#45;&gt;Node20</title>
<path fill="none" stroke="midnightblue" d="M1466.75,-271.94C1660,-272.33 2192,-268.69 2643.43,-221.07"/>
<polygon fill="midnightblue" stroke="midnightblue" points="2643.84,-224.55 2653.41,-220.01 2643.1,-217.59 2643.84,-224.55"/>
</g>
<!-- Node22 -->
<g id="node22" class="node">
<title>Node22</title>
<g id="a_node22"><a xlink:href="_networkable_8hpp.html" target="_top" xlink:title="Networkable component.">
<polygon fill="none" stroke="black" points="1317.5,-190.5 1317.5,-220.5 1466.5,-220.5 1466.5,-190.5 1317.5,-190.5"/>
<text text-anchor="start" x="1325.5" y="-208.5" font-family="Helvetica,sans-Serif" font-size="10.00">NekoEngine/ECS/Components</text>
<text text-anchor="middle" x="1392" y="-197.5" font-family="Helvetica,sans-Serif" font-size="10.00">/Networkable.hpp</text>
</a>
</g>
</g>
<!-- Node8&#45;&gt;Node22 -->
<g id="edge24" class="edge">
<title>Node8&#45;&gt;Node22</title>
<path fill="none" stroke="midnightblue" d="M1392,-257.4C1392,-249.64 1392,-239.81 1392,-230.86"/>
<polygon fill="midnightblue" stroke="midnightblue" points="1395.5,-230.58 1392,-220.58 1388.5,-230.58 1395.5,-230.58"/>
</g>
<!-- Node23 -->
<g id="node23" class="node">
<title>Node23</title>
<g id="a_node23"><a xlink:href="_uid_8hpp.html" target="_top" xlink:title="Uid component.">
<polygon fill="none" stroke="black" points="371.5,-190.5 371.5,-220.5 520.5,-220.5 520.5,-190.5 371.5,-190.5"/>
<text text-anchor="start" x="379.5" y="-208.5" font-family="Helvetica,sans-Serif" font-size="10.00">NekoEngine/ECS/Components</text>
<text text-anchor="middle" x="446" y="-197.5" font-family="Helvetica,sans-Serif" font-size="10.00">/Uid.hpp</text>
</a>
</g>
</g>
<!-- Node8&#45;&gt;Node23 -->
<g id="edge25" class="edge">
<title>Node8&#45;&gt;Node23</title>
<path fill="none" stroke="midnightblue" d="M1317.47,-268.24C1140.72,-260.33 698.94,-239.5 530.57,-221.07"/>
<polygon fill="midnightblue" stroke="midnightblue" points="530.93,-217.59 520.6,-219.95 530.14,-224.55 530.93,-217.59"/>
</g>
<!-- Node24 -->
<g id="node24" class="node">
<title>Node24</title>
<g id="a_node24"><a xlink:href="_hostile_8hpp.html" target="_top" xlink:title=" ">
<polygon fill="none" stroke="black" points="1484.5,-190.5 1484.5,-220.5 1633.5,-220.5 1633.5,-190.5 1484.5,-190.5"/>
<text text-anchor="start" x="1492.5" y="-208.5" font-family="Helvetica,sans-Serif" font-size="10.00">NekoEngine/ECS/Components</text>
<text text-anchor="middle" x="1559" y="-197.5" font-family="Helvetica,sans-Serif" font-size="10.00">/Hostile.hpp</text>
</a>
</g>
</g>
<!-- Node8&#45;&gt;Node24 -->
<g id="edge27" class="edge">
<title>Node8&#45;&gt;Node24</title>
<path fill="none" stroke="midnightblue" d="M1428.24,-257.4C1453.18,-247.69 1486.53,-234.71 1513.3,-224.29"/>
<polygon fill="midnightblue" stroke="midnightblue" points="1514.78,-227.47 1522.83,-220.58 1512.25,-220.94 1514.78,-227.47"/>
</g>
<!-- Node25 -->
<g id="node25" class="node">
<title>Node25</title>
<g id="a_node25"><a xlink:href="_but_8hpp.html" target="_top" xlink:title=" ">
<polygon fill="none" stroke="black" points="1651.5,-190.5 1651.5,-220.5 1800.5,-220.5 1800.5,-190.5 1651.5,-190.5"/>
<text text-anchor="start" x="1659.5" y="-208.5" font-family="Helvetica,sans-Serif" font-size="10.00">NekoEngine/ECS/Components</text>
<text text-anchor="middle" x="1726" y="-197.5" font-family="Helvetica,sans-Serif" font-size="10.00">/But.hpp</text>
</a>
</g>
</g>
<!-- Node8&#45;&gt;Node25 -->
<g id="edge28" class="edge">
<title>Node8&#45;&gt;Node25</title>
<path fill="none" stroke="midnightblue" d="M1464.06,-257.48C1516.87,-247.2 1588.64,-233.23 1643.7,-222.52"/>
<polygon fill="midnightblue" stroke="midnightblue" points="1644.63,-225.9 1653.78,-220.55 1643.3,-219.03 1644.63,-225.9"/>
</g>
<!-- Node26 -->
<g id="node26" class="node">
<title>Node26</title>
<g id="a_node26"><a xlink:href="_textinfo_8hpp.html" target="_top" xlink:title=" ">
<polygon fill="none" stroke="black" points="2820.5,-190.5 2820.5,-220.5 2969.5,-220.5 2969.5,-190.5 2820.5,-190.5"/>
<text text-anchor="start" x="2828.5" y="-208.5" font-family="Helvetica,sans-Serif" font-size="10.00">NekoEngine/ECS/Components</text>
<text text-anchor="middle" x="2895" y="-197.5" font-family="Helvetica,sans-Serif" font-size="10.00">/Textinfo.hpp</text>
</a>
</g>
</g>
<!-- Node8&#45;&gt;Node26 -->
<g id="edge29" class="edge">
<title>Node8&#45;&gt;Node26</title>
<path fill="none" stroke="midnightblue" d="M1466.64,-270.2C1717.1,-265.63 2527.23,-249.1 2810.17,-221.07"/>
<polygon fill="midnightblue" stroke="midnightblue" points="2810.82,-224.52 2820.41,-220.03 2810.11,-217.56 2810.82,-224.52"/>
</g>
<!-- Node27 -->
<g id="node27" class="node">
<title>Node27</title>
<g id="a_node27"><a xlink:href="_patterns_8hpp.html" target="_top" xlink:title="Patterns component.">
<polygon fill="none" stroke="black" points="742.5,-190.5 742.5,-220.5 891.5,-220.5 891.5,-190.5 742.5,-190.5"/>
<text text-anchor="start" x="750.5" y="-208.5" font-family="Helvetica,sans-Serif" font-size="10.00">NekoEngine/ECS/Components</text>
<text text-anchor="middle" x="817" y="-197.5" font-family="Helvetica,sans-Serif" font-size="10.00">/Patterns.hpp</text>
</a>
</g>
</g>
<!-- Node8&#45;&gt;Node27 -->
<g id="edge31" class="edge">
<title>Node8&#45;&gt;Node27</title>
<path fill="none" stroke="midnightblue" d="M1317.17,-265.14C1221.42,-256.69 1050.54,-240.52 905,-221 903.93,-220.86 902.84,-220.71 901.76,-220.56"/>
<polygon fill="midnightblue" stroke="midnightblue" points="902.24,-217.09 891.85,-219.15 901.25,-224.02 902.24,-217.09"/>
</g>
<!-- Node29 -->
<g id="node29" class="node">
<title>Node29</title>
<g id="a_node29"><a xlink:href="_alien_8hpp.html" target="_top" xlink:title="Alien component.">
<polygon fill="none" stroke="black" points="1818.5,-190.5 1818.5,-220.5 1967.5,-220.5 1967.5,-190.5 1818.5,-190.5"/>
<text text-anchor="start" x="1826.5" y="-208.5" font-family="Helvetica,sans-Serif" font-size="10.00">NekoEngine/ECS/Components</text>
<text text-anchor="middle" x="1893" y="-197.5" font-family="Helvetica,sans-Serif" font-size="10.00">/Alien.hpp</text>
</a>
</g>
</g>
<!-- Node8&#45;&gt;Node29 -->
<g id="edge35" class="edge">
<title>Node8&#45;&gt;Node29</title>
<path fill="none" stroke="midnightblue" d="M1466.53,-263.69C1548.05,-254.89 1682.8,-239.53 1808.21,-221.22"/>
<polygon fill="midnightblue" stroke="midnightblue" points="1808.99,-224.65 1818.37,-219.73 1807.97,-217.72 1808.99,-224.65"/>
</g>
<!-- Node30 -->
<g id="node30" class="node">
<title>Node30</title>
<g id="a_node30"><a xlink:href="_entity_type_8hpp.html" target="_top" xlink:title=" ">
<polygon fill="none" stroke="black" points="1985.5,-190.5 1985.5,-220.5 2134.5,-220.5 2134.5,-190.5 1985.5,-190.5"/>
<text text-anchor="start" x="1993.5" y="-208.5" font-family="Helvetica,sans-Serif" font-size="10.00">NekoEngine/ECS/Components</text>
<text text-anchor="middle" x="2060" y="-197.5" font-family="Helvetica,sans-Serif" font-size="10.00">/EntityType.hpp</text>
</a>
</g>
</g>
<!-- Node8&#45;&gt;Node30 -->
<g id="edge36" class="edge">
<title>Node8&#45;&gt;Node30</title>
<path fill="none" stroke="midnightblue" d="M1466.56,-267.14C1576,-260.29 1786.71,-245.34 1975.29,-221.16"/>
<polygon fill="midnightblue" stroke="midnightblue" points="1975.92,-224.6 1985.39,-219.85 1975.02,-217.66 1975.92,-224.6"/>
</g>
<!-- Node31 -->
<g id="node31" class="node">
<title>Node31</title>
<g id="a_node31"><a xlink:href="_gorb_background_8hpp.html" target="_top" xlink:title=" ">
<polygon fill="none" stroke="black" points="2152.5,-190.5 2152.5,-220.5 2301.5,-220.5 2301.5,-190.5 2152.5,-190.5"/>
<text text-anchor="start" x="2160.5" y="-208.5" font-family="Helvetica,sans-Serif" font-size="10.00">NekoEngine/ECS/Components</text>
<text text-anchor="middle" x="2227" y="-197.5" font-family="Helvetica,sans-Serif" font-size="10.00">/GorbBackground.hpp</text>
</a>
</g>
</g>
<!-- Node8&#45;&gt;Node31 -->
<g id="edge37" class="edge">
<title>Node8&#45;&gt;Node31</title>
<path fill="none" stroke="midnightblue" d="M1466.69,-269.11C1600.32,-264.25 1889.26,-251.13 2142.28,-221.13"/>
<polygon fill="midnightblue" stroke="midnightblue" points="2142.89,-224.58 2152.4,-219.92 2142.05,-217.63 2142.89,-224.58"/>
</g>
<!-- Node32 -->
<g id="node32" class="node">
<title>Node32</title>
<g id="a_node32"><a xlink:href="_animation_8hpp.html" target="_top" xlink:title=" ">
<polygon fill="none" stroke="black" points="2319.5,-190.5 2319.5,-220.5 2468.5,-220.5 2468.5,-190.5 2319.5,-190.5"/>
<text text-anchor="start" x="2327.5" y="-208.5" font-family="Helvetica,sans-Serif" font-size="10.00">NekoEngine/ECS/Components</text>
<text text-anchor="middle" x="2394" y="-197.5" font-family="Helvetica,sans-Serif" font-size="10.00">/Animation.hpp</text>
</a>
</g>
</g>
<!-- Node8&#45;&gt;Node32 -->
<g id="edge38" class="edge">
<title>Node8&#45;&gt;Node32</title>
<path fill="none" stroke="midnightblue" d="M1466.7,-270.38C1621.9,-267.4 1990.62,-256.97 2309.05,-221.14"/>
<polygon fill="midnightblue" stroke="midnightblue" points="2309.86,-224.57 2319.4,-219.96 2309.07,-217.61 2309.86,-224.57"/>
</g>
<!-- Node33 -->
<g id="node33" class="node">
<title>Node33</title>
<g id="a_node33"><a xlink:href="_player_shoot_8hpp.html" target="_top" xlink:title=" ">
<polygon fill="none" stroke="black" points="2486.5,-190.5 2486.5,-220.5 2635.5,-220.5 2635.5,-190.5 2486.5,-190.5"/>
<text text-anchor="start" x="2494.5" y="-208.5" font-family="Helvetica,sans-Serif" font-size="10.00">NekoEngine/ECS/Components</text>
<text text-anchor="middle" x="2561" y="-197.5" font-family="Helvetica,sans-Serif" font-size="10.00">/PlayerShoot.hpp</text>
</a>
</g>
</g>
<!-- Node8&#45;&gt;Node33 -->
<g id="edge39" class="edge">
<title>Node8&#45;&gt;Node33</title>
<path fill="none" stroke="midnightblue" d="M1466.65,-271.27C1641.54,-270.05 2091.49,-262.82 2476.19,-221.11"/>
<polygon fill="midnightblue" stroke="midnightblue" points="2476.85,-224.56 2486.41,-219.99 2476.09,-217.6 2476.85,-224.56"/>
</g>
<!-- Node10 -->
<g id="node10" class="node">
<title>Node10</title>
<g id="a_node10"><a xlink:href="_vector_8hpp.html" target="_top" xlink:title="Contains all headers for all Vector types.">
<polygon fill="none" stroke="black" points="803.5,-56.5 803.5,-86.5 928.5,-86.5 928.5,-56.5 803.5,-56.5"/>
<text text-anchor="start" x="811.5" y="-74.5" font-family="Helvetica,sans-Serif" font-size="10.00">NekoEngine/Math/Vector</text>
<text text-anchor="middle" x="866" y="-63.5" font-family="Helvetica,sans-Serif" font-size="10.00">/Vector.hpp</text>
</a>
</g>
</g>
<!-- Node9&#45;&gt;Node10 -->
<g id="edge9" class="edge">
<title>Node9&#45;&gt;Node10</title>
<path fill="none" stroke="midnightblue" d="M715.66,-123.4C744.72,-113.56 783.69,-100.37 814.67,-89.88"/>
<polygon fill="midnightblue" stroke="midnightblue" points="816.07,-93.1 824.42,-86.58 813.83,-86.47 816.07,-93.1"/>
</g>
<!-- Node11 -->
<g id="node11" class="node">
<title>Node11</title>
<g id="a_node11"><a xlink:href="_vector2_8hpp.html" target="_top" xlink:title="Contains Vector2 template class.">
<polygon fill="none" stroke="black" points="746,-0.5 746,-19.5 814,-19.5 814,-0.5 746,-0.5"/>
<text text-anchor="middle" x="780" y="-7.5" font-family="Helvetica,sans-Serif" font-size="10.00">Vector2.hpp</text>
</a>
</g>
</g>
<!-- Node10&#45;&gt;Node11 -->
<g id="edge10" class="edge">
<title>Node10&#45;&gt;Node11</title>
<path fill="none" stroke="midnightblue" d="M845.62,-56.4C832.09,-47.04 814.39,-34.79 800.78,-25.38"/>
<polygon fill="midnightblue" stroke="midnightblue" points="802.73,-22.47 792.51,-19.66 798.75,-28.23 802.73,-22.47"/>
</g>
<!-- Node12 -->
<g id="node12" class="node">
<title>Node12</title>
<g id="a_node12"><a xlink:href="_vector3_8hpp.html" target="_top" xlink:title="Contains Vector3 template class.">
<polygon fill="none" stroke="black" points="832,-0.5 832,-19.5 900,-19.5 900,-0.5 832,-0.5"/>
<text text-anchor="middle" x="866" y="-7.5" font-family="Helvetica,sans-Serif" font-size="10.00">Vector3.hpp</text>
</a>
</g>
</g>
<!-- Node10&#45;&gt;Node12 -->
<g id="edge11" class="edge">
<title>Node10&#45;&gt;Node12</title>
<path fill="none" stroke="midnightblue" d="M866,-56.4C866,-48.47 866,-38.46 866,-29.86"/>
<polygon fill="midnightblue" stroke="midnightblue" points="869.5,-29.66 866,-19.66 862.5,-29.66 869.5,-29.66"/>
</g>
<!-- Node13 -->
<g id="node13" class="node">
<title>Node13</title>
<g id="a_node13"><a xlink:href="_vector4_8hpp.html" target="_top" xlink:title="Contains Vector4 template class.">
<polygon fill="none" stroke="black" points="918,-0.5 918,-19.5 986,-19.5 986,-0.5 918,-0.5"/>
<text text-anchor="middle" x="952" y="-7.5" font-family="Helvetica,sans-Serif" font-size="10.00">Vector4.hpp</text>
</a>
</g>
</g>
<!-- Node10&#45;&gt;Node13 -->
<g id="edge12" class="edge">
<title>Node10&#45;&gt;Node13</title>
<path fill="none" stroke="midnightblue" d="M886.38,-56.4C899.91,-47.04 917.61,-34.79 931.22,-25.38"/>
<polygon fill="midnightblue" stroke="midnightblue" points="933.25,-28.23 939.49,-19.66 929.27,-22.47 933.25,-28.23"/>
</g>
<!-- Node15 -->
<g id="node15" class="node">
<title>Node15</title>
<g id="a_node15"><a xlink:title=" ">
<polygon fill="none" stroke="#bfbfbf" points="1215,-129 1215,-148 1261,-148 1261,-129 1215,-129"/>
<text text-anchor="middle" x="1238" y="-136" font-family="Helvetica,sans-Serif" font-size="10.00">chrono</text>
</a>
</g>
</g>
<!-- Node14&#45;&gt;Node15 -->
<g id="edge14" class="edge">
<title>Node14&#45;&gt;Node15</title>
<path fill="none" stroke="midnightblue" d="M1227.82,-190.4C1229.71,-180.96 1232.21,-168.45 1234.26,-158.19"/>
<polygon fill="midnightblue" stroke="midnightblue" points="1237.73,-158.69 1236.26,-148.19 1230.87,-157.31 1237.73,-158.69"/>
</g>
<!-- Node17&#45;&gt;Node6 -->
<g id="edge17" class="edge">
<title>Node17&#45;&gt;Node6</title>
<path fill="none" stroke="midnightblue" d="M576.76,-190.4C547.07,-178.84 505.49,-162.66 477.25,-151.66"/>
<polygon fill="midnightblue" stroke="midnightblue" points="478.44,-148.37 467.86,-148.01 475.91,-154.9 478.44,-148.37"/>
</g>
<!-- Node18&#45;&gt;Node10 -->
<g id="edge19" class="edge">
<title>Node18&#45;&gt;Node10</title>
<path fill="none" stroke="midnightblue" d="M936.47,-123.4C923.97,-114.37 907.56,-102.51 893.72,-92.52"/>
<polygon fill="midnightblue" stroke="midnightblue" points="895.65,-89.59 885.49,-86.58 891.55,-95.27 895.65,-89.59"/>
</g>
<!-- Node19&#45;&gt;Node10 -->
<g id="edge21" class="edge">
<title>Node19&#45;&gt;Node10</title>
<path fill="none" stroke="midnightblue" d="M1067.55,-123.48C1027.66,-113.39 973.71,-99.74 931.66,-89.11"/>
<polygon fill="midnightblue" stroke="midnightblue" points="932.35,-85.67 921.79,-86.61 930.63,-92.46 932.35,-85.67"/>
</g>
<!-- Node21 -->
<g id="node21" class="node">
<title>Node21</title>
<g id="a_node21"><a xlink:title=" ">
<polygon fill="none" stroke="#bfbfbf" points="2759,-129 2759,-148 2863,-148 2863,-129 2759,-129"/>
<text text-anchor="middle" x="2811" y="-136" font-family="Helvetica,sans-Serif" font-size="10.00">SFML/Graphics.hpp</text>
</a>
</g>
</g>
<!-- Node20&#45;&gt;Node21 -->
<g id="edge23" class="edge">
<title>Node20&#45;&gt;Node21</title>
<path fill="none" stroke="midnightblue" d="M2746.01,-190.4C2759.59,-179.76 2778.18,-165.2 2792,-154.38"/>
<polygon fill="midnightblue" stroke="midnightblue" points="2794.18,-157.12 2799.9,-148.19 2789.87,-151.6 2794.18,-157.12"/>
</g>
<!-- Node23&#45;&gt;Node6 -->
<g id="edge26" class="edge">
<title>Node23&#45;&gt;Node6</title>
<path fill="none" stroke="midnightblue" d="M446,-190.4C446,-181.06 446,-168.71 446,-158.52"/>
<polygon fill="midnightblue" stroke="midnightblue" points="449.5,-158.19 446,-148.19 442.5,-158.19 449.5,-158.19"/>
</g>
<!-- Node26&#45;&gt;Node21 -->
<g id="edge30" class="edge">
<title>Node26&#45;&gt;Node21</title>
<path fill="none" stroke="midnightblue" d="M2876.77,-190.4C2863.03,-179.76 2844.22,-165.2 2830.23,-154.38"/>
<polygon fill="midnightblue" stroke="midnightblue" points="2832.29,-151.55 2822.24,-148.19 2828,-157.08 2832.29,-151.55"/>
</g>
<!-- Node27&#45;&gt;Node9 -->
<g id="edge33" class="edge">
<title>Node27&#45;&gt;Node9</title>
<path fill="none" stroke="midnightblue" d="M785.97,-190.4C764.98,-180.86 737.06,-168.16 714.35,-157.84"/>
<polygon fill="midnightblue" stroke="midnightblue" points="715.52,-154.53 704.97,-153.58 712.62,-160.9 715.52,-154.53"/>
</g>
<!-- Node27&#45;&gt;Node10 -->
<g id="edge32" class="edge">
<title>Node27&#45;&gt;Node10</title>
<path fill="none" stroke="midnightblue" d="M807.48,-190.28C797.51,-173.46 784.75,-144.98 796,-123 802.59,-110.12 814.17,-99.77 826.03,-91.88"/>
<polygon fill="midnightblue" stroke="midnightblue" points="827.98,-94.79 834.66,-86.56 824.31,-88.83 827.98,-94.79"/>
</g>
<!-- Node28 -->
<g id="node28" class="node">
<title>Node28</title>
<g id="a_node28"><a xlink:title=" ">
<polygon fill="none" stroke="#bfbfbf" points="804.5,-129 804.5,-148 863.5,-148 863.5,-129 804.5,-129"/>
<text text-anchor="middle" x="834" y="-136" font-family="Helvetica,sans-Serif" font-size="10.00">functional</text>
</a>
</g>
</g>
<!-- Node27&#45;&gt;Node28 -->
<g id="edge34" class="edge">
<title>Node27&#45;&gt;Node28</title>
<path fill="none" stroke="midnightblue" d="M820.69,-190.4C823.16,-180.96 826.43,-168.45 829.11,-158.19"/>
<polygon fill="midnightblue" stroke="midnightblue" points="832.58,-158.75 831.73,-148.19 825.81,-156.98 832.58,-158.75"/>
</g>
<!-- Node36 -->
<g id="node36" class="node">
<title>Node36</title>
<g id="a_node36"><a xlink:href="_component_manager_8hpp.html" target="_top" xlink:title="Component Manmager class.">
<polygon fill="none" stroke="black" points="616,-391.5 616,-421.5 760,-421.5 760,-391.5 616,-391.5"/>
<text text-anchor="start" x="624" y="-409.5" font-family="Helvetica,sans-Serif" font-size="10.00">NekoEngine/ECS/Component</text>
<text text-anchor="middle" x="688" y="-398.5" font-family="Helvetica,sans-Serif" font-size="10.00">Manager.hpp</text>
</a>
</g>
</g>
<!-- Node35&#45;&gt;Node36 -->
<g id="edge42" class="edge">
<title>Node35&#45;&gt;Node36</title>
<path fill="none" stroke="midnightblue" d="M530.17,-463.87C557.83,-453.99 603.86,-437.55 639.09,-424.97"/>
<polygon fill="midnightblue" stroke="midnightblue" points="640.48,-428.19 648.72,-421.53 638.13,-421.6 640.48,-428.19"/>
</g>
<!-- Node43 -->
<g id="node43" class="node">
<title>Node43</title>
<g id="a_node43"><a xlink:href="_entity_manager_8hpp.html" target="_top" xlink:title="Entities are fun.">
<polygon fill="none" stroke="black" points="0,-330 0,-349 174,-349 174,-330 0,-330"/>
<text text-anchor="middle" x="87" y="-337" font-family="Helvetica,sans-Serif" font-size="10.00">NekoEngine/ECS/EntityManager.hpp</text>
</a>
</g>
</g>
<!-- Node35&#45;&gt;Node43 -->
<g id="edge55" class="edge">
<title>Node35&#45;&gt;Node43</title>
<path fill="none" stroke="midnightblue" d="M485.55,-463.88C464.62,-454.69 431.51,-439.14 405,-422 386.7,-410.17 386.8,-400.11 367,-391 347.84,-382.18 229.57,-362.64 152.99,-350.62"/>
<polygon fill="midnightblue" stroke="midnightblue" points="153.36,-347.14 142.94,-349.05 152.28,-354.05 153.36,-347.14"/>
</g>
<!-- Node45 -->
<g id="node45" class="node">
<title>Node45</title>
<g id="a_node45"><a xlink:href="_system_manager_8hpp.html" target="_top" xlink:title=" ">
<polygon fill="none" stroke="black" points="414.5,-397 414.5,-416 597.5,-416 597.5,-397 414.5,-397"/>
<text text-anchor="middle" x="506" y="-404" font-family="Helvetica,sans-Serif" font-size="10.00">NekoEngine/ECS/SystemManager.hpp</text>
</a>
</g>
</g>
<!-- Node35&#45;&gt;Node45 -->
<g id="edge60" class="edge">
<title>Node35&#45;&gt;Node45</title>
<path fill="none" stroke="midnightblue" d="M501.21,-463.73C499.2,-454.18 498.74,-438.62 499.82,-426.28"/>
<polygon fill="midnightblue" stroke="midnightblue" points="503.32,-426.52 501.24,-416.13 496.38,-425.54 503.32,-426.52"/>
</g>
<!-- Node47 -->
<g id="node47" class="node">
<title>Node47</title>
<g id="a_node47"><a xlink:title=" ">
<polygon fill="none" stroke="#bfbfbf" points="276,-397 276,-416 358,-416 358,-397 276,-397"/>
<text text-anchor="middle" x="317" y="-404" font-family="Helvetica,sans-Serif" font-size="10.00">Coordinator.tpp</text>
</a>
</g>
</g>
<!-- Node35&#45;&gt;Node47 -->
<g id="edge66" class="edge">
<title>Node35&#45;&gt;Node47</title>
<path fill="none" stroke="midnightblue" d="M480.9,-463.87C447.63,-452.42 388.76,-432.18 351.38,-419.32"/>
<polygon fill="midnightblue" stroke="midnightblue" points="352.5,-416.01 341.9,-416.06 350.22,-422.63 352.5,-416.01"/>
</g>
<!-- Node36&#45;&gt;Node4 -->
<g id="edge45" class="edge">
<title>Node36&#45;&gt;Node4</title>
<path fill="none" stroke="midnightblue" d="M636.37,-391.42C607.33,-382.63 570.84,-370.12 540,-355 517.53,-343.98 515,-335.93 493,-324 484.95,-319.64 438.17,-299.53 406.53,-286.04"/>
<polygon fill="midnightblue" stroke="midnightblue" points="407.83,-282.79 397.26,-282.09 405.09,-289.23 407.83,-282.79"/>
</g>
<!-- Node36&#45;&gt;Node5 -->
<g id="edge46" class="edge">
<title>Node36&#45;&gt;Node5</title>
<path fill="none" stroke="midnightblue" d="M760.1,-402.18C831.65,-397.2 934.15,-384.91 959,-355 967.8,-344.4 966.48,-335.57 959,-324 864.58,-178.02 480.27,-236.7 362,-221 353.46,-219.87 344.44,-218.42 335.68,-216.89"/>
<polygon fill="midnightblue" stroke="midnightblue" points="336.03,-213.39 325.57,-215.05 334.78,-220.28 336.03,-213.39"/>
</g>
<!-- Node37 -->
<g id="node37" class="node">
<title>Node37</title>
<g id="a_node37"><a xlink:title=" ">
<polygon fill="none" stroke="#bfbfbf" points="421,-263 421,-282 459,-282 459,-263 421,-263"/>
<text text-anchor="middle" x="440" y="-270" font-family="Helvetica,sans-Serif" font-size="10.00">array</text>
</a>
</g>
</g>
<!-- Node36&#45;&gt;Node37 -->
<g id="edge43" class="edge">
<title>Node36&#45;&gt;Node37</title>
<path fill="none" stroke="midnightblue" d="M655.06,-391.46C633.97,-382.04 606.3,-368.85 583,-355 562.75,-342.96 560.16,-336.2 540,-324 509.39,-305.48 499.89,-304.23 468,-288 467.19,-287.59 466.37,-287.17 465.53,-286.74"/>
<polygon fill="midnightblue" stroke="midnightblue" points="467.06,-283.59 456.56,-282.13 463.85,-289.81 467.06,-283.59"/>
</g>
<!-- Node38 -->
<g id="node38" class="node">
<title>Node38</title>
<g id="a_node38"><a xlink:title=" ">
<polygon fill="none" stroke="#bfbfbf" points="765.5,-263 765.5,-282 800.5,-282 800.5,-263 765.5,-263"/>
<text text-anchor="middle" x="783" y="-270" font-family="Helvetica,sans-Serif" font-size="10.00">map</text>
</a>
</g>
</g>
<!-- Node36&#45;&gt;Node38 -->
<g id="edge44" class="edge">
<title>Node36&#45;&gt;Node38</title>
<path fill="none" stroke="midnightblue" d="M731.74,-391.46C749.11,-383.58 767.43,-371.85 778,-355 789.86,-336.1 789.03,-309.62 786.62,-292.04"/>
<polygon fill="midnightblue" stroke="midnightblue" points="790.07,-291.45 784.98,-282.16 783.17,-292.6 790.07,-291.45"/>
</g>
<!-- Node39 -->
<g id="node39" class="node">
<title>Node39</title>
<g id="a_node39"><a xlink:href="_component_array_8hpp.html" target="_top" xlink:title="Component Array template class.">
<polygon fill="none" stroke="black" points="592,-324.5 592,-354.5 736,-354.5 736,-324.5 592,-324.5"/>
<text text-anchor="start" x="600" y="-342.5" font-family="Helvetica,sans-Serif" font-size="10.00">NekoEngine/ECS/Component</text>
<text text-anchor="middle" x="664" y="-331.5" font-family="Helvetica,sans-Serif" font-size="10.00">Array.hpp</text>
</a>
</g>
</g>
<!-- Node36&#45;&gt;Node39 -->
<g id="edge47" class="edge">
<title>Node36&#45;&gt;Node39</title>
<path fill="none" stroke="midnightblue" d="M682.79,-391.4C679.84,-383.39 676.06,-373.16 672.67,-363.98"/>
<polygon fill="midnightblue" stroke="midnightblue" points="675.94,-362.75 669.2,-354.58 669.38,-365.17 675.94,-362.75"/>
</g>
<!-- Node42 -->
<g id="node42" class="node">
<title>Node42</title>
<g id="a_node42"><a xlink:title=" ">
<polygon fill="none" stroke="#bfbfbf" points="830.5,-330 830.5,-349 949.5,-349 949.5,-330 830.5,-330"/>
<text text-anchor="middle" x="890" y="-337" font-family="Helvetica,sans-Serif" font-size="10.00">ComponentManager.tpp</text>
</a>
</g>
</g>
<!-- Node36&#45;&gt;Node42 -->
<g id="edge54" class="edge">
<title>Node36&#45;&gt;Node42</title>
<path fill="none" stroke="midnightblue" d="M731.83,-391.4C768.37,-379.64 819.8,-363.09 853.98,-352.09"/>
<polygon fill="midnightblue" stroke="midnightblue" points="855.12,-355.4 863.56,-349.01 852.97,-348.74 855.12,-355.4"/>
</g>
<!-- Node39&#45;&gt;Node4 -->
<g id="edge50" class="edge">
<title>Node39&#45;&gt;Node4</title>
<path fill="none" stroke="midnightblue" d="M591.93,-327.9C541.03,-319.48 471.55,-306.11 412,-288 409.72,-287.31 407.38,-286.52 405.04,-285.67"/>
<polygon fill="midnightblue" stroke="midnightblue" points="406.23,-282.38 395.64,-282.01 403.69,-288.9 406.23,-282.38"/>
</g>
<!-- Node39&#45;&gt;Node37 -->
<g id="edge48" class="edge">
<title>Node39&#45;&gt;Node37</title>
<path fill="none" stroke="midnightblue" d="M593.87,-324.47C555.96,-315.89 508.7,-303.55 468,-288 466.79,-287.54 465.57,-287.04 464.34,-286.51"/>
<polygon fill="midnightblue" stroke="midnightblue" points="465.65,-283.26 455.12,-282.12 462.64,-289.58 465.65,-283.26"/>
</g>
<!-- Node39&#45;&gt;Node38 -->
<g id="edge49" class="edge">
<title>Node39&#45;&gt;Node38</title>
<path fill="none" stroke="midnightblue" d="M689.82,-324.4C710.24,-313.24 738.55,-297.78 758.59,-286.83"/>
<polygon fill="midnightblue" stroke="midnightblue" points="760.33,-289.87 767.43,-282.01 756.97,-283.73 760.33,-289.87"/>
</g>
<!-- Node40 -->
<g id="node40" class="node">
<title>Node40</title>
<g id="a_node40"><a xlink:href="_i_component_array_8hpp.html" target="_top" xlink:title="Interface for the Component Array template class.">
<polygon fill="none" stroke="black" points="477.5,-257.5 477.5,-287.5 624.5,-287.5 624.5,-257.5 477.5,-257.5"/>
<text text-anchor="start" x="485.5" y="-275.5" font-family="Helvetica,sans-Serif" font-size="10.00">NekoEngine/ECS/IComponent</text>
<text text-anchor="middle" x="551" y="-264.5" font-family="Helvetica,sans-Serif" font-size="10.00">Array.hpp</text>
</a>
</g>
</g>
<!-- Node39&#45;&gt;Node40 -->
<g id="edge51" class="edge">
<title>Node39&#45;&gt;Node40</title>
<path fill="none" stroke="midnightblue" d="M639.48,-324.4C623.34,-315.11 602.01,-302.84 584.33,-292.67"/>
<polygon fill="midnightblue" stroke="midnightblue" points="585.88,-289.53 575.47,-287.58 582.39,-295.6 585.88,-289.53"/>
</g>
<!-- Node41 -->
<g id="node41" class="node">
<title>Node41</title>
<g id="a_node41"><a xlink:title=" ">
<polygon fill="none" stroke="#bfbfbf" points="643,-263 643,-282 747,-282 747,-263 643,-263"/>
<text text-anchor="middle" x="695" y="-270" font-family="Helvetica,sans-Serif" font-size="10.00">ComponentArray.tpp</text>
</a>
</g>
</g>
<!-- Node39&#45;&gt;Node41 -->
<g id="edge53" class="edge">
<title>Node39&#45;&gt;Node41</title>
<path fill="none" stroke="midnightblue" d="M670.73,-324.4C675.32,-314.76 681.45,-301.91 686.4,-291.54"/>
<polygon fill="midnightblue" stroke="midnightblue" points="689.71,-292.73 690.85,-282.19 683.39,-289.71 689.71,-292.73"/>
</g>
<!-- Node40&#45;&gt;Node5 -->
<g id="edge52" class="edge">
<title>Node40&#45;&gt;Node5</title>
<path fill="none" stroke="midnightblue" d="M493.39,-257.48C444.08,-245.47 374.08,-228.43 328.85,-217.42"/>
<polygon fill="midnightblue" stroke="midnightblue" points="329.58,-213.99 319.03,-215.03 327.92,-220.79 329.58,-213.99"/>
</g>
<!-- Node43&#45;&gt;Node4 -->
<g id="edge58" class="edge">
<title>Node43&#45;&gt;Node4</title>
<path fill="none" stroke="midnightblue" d="M125.21,-329.94C181.56,-317.3 286.2,-293.85 341.16,-281.53"/>
<polygon fill="midnightblue" stroke="midnightblue" points="342.15,-284.9 351.14,-279.3 340.62,-278.07 342.15,-284.9"/>
</g>
<!-- Node43&#45;&gt;Node5 -->
<g id="edge59" class="edge">
<title>Node43&#45;&gt;Node5</title>
<path fill="none" stroke="midnightblue" d="M99.93,-329.84C133.19,-307.55 222,-248.04 262.88,-220.65"/>
<polygon fill="midnightblue" stroke="midnightblue" points="264.92,-223.5 271.28,-215.02 261.03,-217.68 264.92,-223.5"/>
</g>
<!-- Node43&#45;&gt;Node37 -->
<g id="edge57" class="edge">
<title>Node43&#45;&gt;Node37</title>
<path fill="none" stroke="midnightblue" d="M143.18,-329.97C234.25,-316.11 404.65,-290.03 411,-288 412.62,-287.48 414.27,-286.88 415.9,-286.23"/>
<polygon fill="midnightblue" stroke="midnightblue" points="417.36,-289.41 425.02,-282.09 414.47,-283.04 417.36,-289.41"/>
</g>
<!-- Node44 -->
<g id="node44" class="node">
<title>Node44</title>
<g id="a_node44"><a xlink:title=" ">
<polygon fill="none" stroke="#bfbfbf" points="65.5,-263 65.5,-282 108.5,-282 108.5,-263 65.5,-263"/>
<text text-anchor="middle" x="87" y="-270" font-family="Helvetica,sans-Serif" font-size="10.00">queue</text>
</a>
</g>
</g>
<!-- Node43&#45;&gt;Node44 -->
<g id="edge56" class="edge">
<title>Node43&#45;&gt;Node44</title>
<path fill="none" stroke="midnightblue" d="M87,-329.73C87,-320.18 87,-304.62 87,-292.28"/>
<polygon fill="midnightblue" stroke="midnightblue" points="90.5,-292.13 87,-282.13 83.5,-292.13 90.5,-292.13"/>
</g>
<!-- Node45&#45;&gt;Node2 -->
<g id="edge63" class="edge">
<title>Node45&#45;&gt;Node2</title>
<path fill="none" stroke="midnightblue" d="M474,-396.87C430.84,-385.23 353.94,-364.49 306.42,-351.67"/>
<polygon fill="midnightblue" stroke="midnightblue" points="307.32,-348.29 296.75,-349.06 305.5,-355.05 307.32,-348.29"/>
</g>
<!-- Node45&#45;&gt;Node4 -->
<g id="edge61" class="edge">
<title>Node45&#45;&gt;Node4</title>
<path fill="none" stroke="midnightblue" d="M503.89,-396.88C499.59,-380.81 488.44,-345.93 468,-324 458.58,-313.89 427.94,-297.84 404.79,-286.55"/>
<polygon fill="midnightblue" stroke="midnightblue" points="406.26,-283.37 395.73,-282.19 403.22,-289.68 406.26,-283.37"/>
</g>
<!-- Node45&#45;&gt;Node35 -->
<g id="edge64" class="edge">
<title>Node45&#45;&gt;Node35</title>
<path fill="none" stroke="midnightblue" d="M510.76,-416.13C512.78,-425.62 513.26,-441.17 512.2,-453.54"/>
<polygon fill="midnightblue" stroke="midnightblue" points="508.69,-453.35 510.79,-463.73 515.63,-454.31 508.69,-453.35"/>
</g>
<!-- Node45&#45;&gt;Node38 -->
<g id="edge62" class="edge">
<title>Node45&#45;&gt;Node38</title>
<path fill="none" stroke="midnightblue" d="M558.28,-397C624.12,-385.9 730.47,-366.54 745,-355 764.73,-339.32 774.69,-311.02 779.35,-292.24"/>
<polygon fill="midnightblue" stroke="midnightblue" points="782.83,-292.73 781.57,-282.21 775.99,-291.22 782.83,-292.73"/>
</g>
<!-- Node46 -->
<g id="node46" class="node">
<title>Node46</title>
<g id="a_node46"><a xlink:title=" ">
<polygon fill="none" stroke="#bfbfbf" points="356.5,-330 356.5,-349 459.5,-349 459.5,-330 356.5,-330"/>
<text text-anchor="middle" x="408" y="-337" font-family="Helvetica,sans-Serif" font-size="10.00">SystemManager.tpp</text>
</a>
</g>
</g>
<!-- Node45&#45;&gt;Node46 -->
<g id="edge65" class="edge">
<title>Node45&#45;&gt;Node46</title>
<path fill="none" stroke="midnightblue" d="M492.78,-396.73C476.55,-385.96 448.78,-367.55 429.47,-354.74"/>
<polygon fill="midnightblue" stroke="midnightblue" points="431.28,-351.74 421.01,-349.13 427.41,-357.57 431.28,-351.74"/>
</g>
</g>
</svg>
