<?xml version="1.0" encoding="UTF-8" standalone="no"?>
<!DOCTYPE svg PUBLIC "-//W3C//DTD SVG 1.1//EN"
 "http://www.w3.org/Graphics/SVG/1.1/DTD/svg11.dtd">
<!-- Generated by graphviz version 2.49.3 (20211027.1501)
 -->
<!-- Title: Client/include/ClientCollision.hpp Pages: 1 -->
<svg width="371pt" height="140pt"
 viewBox="0.00 0.00 371.00 140.00" xmlns="http://www.w3.org/2000/svg" xmlns:xlink="http://www.w3.org/1999/xlink">
<g id="graph0" class="graph" transform="scale(1 1) rotate(0) translate(4 136)">
<title>Client/include/ClientCollision.hpp</title>
<!-- Node1 -->
<g id="node1" class="node">
<title>Node1</title>
<g id="a_node1"><a xlink:title=" ">
<polygon fill="#bfbfbf" stroke="black" points="133,-112.5 133,-131.5 291,-131.5 291,-112.5 133,-112.5"/>
<text text-anchor="middle" x="212" y="-119.5" font-family="Helvetica,sans-Serif" font-size="10.00">Client/include/ClientCollision.hpp</text>
</a>
</g>
</g>
<!-- Node2 -->
<g id="node2" class="node">
<title>Node2</title>
<g id="a_node2"><a xlink:href="_client_game_8hpp.html" target="_top" xlink:title=" ">
<polygon fill="none" stroke="black" points="57.5,-56.5 57.5,-75.5 204.5,-75.5 204.5,-56.5 57.5,-56.5"/>
<text text-anchor="middle" x="131" y="-63.5" font-family="Helvetica,sans-Serif" font-size="10.00">Client/include/ClientGame.hpp</text>
</a>
</g>
</g>
<!-- Node1&#45;&gt;Node2 -->
<g id="edge1" class="edge">
<title>Node1&#45;&gt;Node2</title>
<path fill="none" stroke="midnightblue" d="M190.43,-106.62C175.64,-96.76 156.49,-83.99 143.98,-75.65"/>
<polygon fill="midnightblue" stroke="midnightblue" points="188.72,-109.69 198.99,-112.32 192.61,-103.86 188.72,-109.69"/>
</g>
<!-- Node5 -->
<g id="node5" class="node">
<title>Node5</title>
<g id="a_node5"><a xlink:href="_client_collision_8cpp.html" target="_top" xlink:title=" ">
<polygon fill="none" stroke="black" points="223,-56.5 223,-75.5 363,-75.5 363,-56.5 223,-56.5"/>
<text text-anchor="middle" x="293" y="-63.5" font-family="Helvetica,sans-Serif" font-size="10.00">Client/src/ClientCollision.cpp</text>
</a>
</g>
</g>
<!-- Node1&#45;&gt;Node5 -->
<g id="edge4" class="edge">
<title>Node1&#45;&gt;Node5</title>
<path fill="none" stroke="midnightblue" d="M233.57,-106.62C248.36,-96.76 267.51,-83.99 280.02,-75.65"/>
<polygon fill="midnightblue" stroke="midnightblue" points="231.39,-103.86 225.01,-112.32 235.28,-109.69 231.39,-103.86"/>
</g>
<!-- Node3 -->
<g id="node3" class="node">
<title>Node3</title>
<g id="a_node3"><a xlink:href="_client_game_8cpp.html" target="_top" xlink:title=" ">
<polygon fill="none" stroke="black" points="0,-0.5 0,-19.5 130,-19.5 130,-0.5 0,-0.5"/>
<text text-anchor="middle" x="65" y="-7.5" font-family="Helvetica,sans-Serif" font-size="10.00">Client/src/ClientGame.cpp</text>
</a>
</g>
</g>
<!-- Node2&#45;&gt;Node3 -->
<g id="edge2" class="edge">
<title>Node2&#45;&gt;Node3</title>
<path fill="none" stroke="midnightblue" d="M112.45,-49.82C100.62,-40.15 85.71,-27.95 75.8,-19.83"/>
<polygon fill="midnightblue" stroke="midnightblue" points="110.44,-52.7 120.4,-56.32 114.87,-47.28 110.44,-52.7"/>
</g>
<!-- Node4 -->
<g id="node4" class="node">
<title>Node4</title>
<g id="a_node4"><a xlink:href="main_8cpp.html" target="_top" xlink:title="Entrypoint.">
<polygon fill="none" stroke="black" points="148,-0.5 148,-19.5 248,-19.5 248,-0.5 148,-0.5"/>
<text text-anchor="middle" x="198" y="-7.5" font-family="Helvetica,sans-Serif" font-size="10.00">Client/src/main.cpp</text>
</a>
</g>
</g>
<!-- Node2&#45;&gt;Node4 -->
<g id="edge3" class="edge">
<title>Node2&#45;&gt;Node4</title>
<path fill="none" stroke="midnightblue" d="M149.83,-49.82C161.84,-40.15 176.97,-27.95 187.04,-19.83"/>
<polygon fill="midnightblue" stroke="midnightblue" points="147.35,-47.32 141.76,-56.32 151.75,-52.77 147.35,-47.32"/>
</g>
</g>
</svg>
