<?xml version="1.0" encoding="UTF-8" standalone="no"?>
<!DOCTYPE svg PUBLIC "-//W3C//DTD SVG 1.1//EN"
 "http://www.w3.org/Graphics/SVG/1.1/DTD/svg11.dtd">
<!-- Generated by graphviz version 2.49.3 (20211027.1501)
 -->
<!-- Title: NekoEngine/include/NekoEngine/ECS/Components/Color.hpp Pages: 1 -->
<svg width="1846pt" height="563pt"
 viewBox="0.00 0.00 1845.50 563.00" xmlns="http://www.w3.org/2000/svg" xmlns:xlink="http://www.w3.org/1999/xlink">
<g id="graph0" class="graph" transform="scale(1 1) rotate(0) translate(4 559)">
<title>NekoEngine/include/NekoEngine/ECS/Components/Color.hpp</title>
<!-- Node1 -->
<g id="node1" class="node">
<title>Node1</title>
<g id="a_node1"><a xlink:title="Color component.">
<polygon fill="#bfbfbf" stroke="black" points="894,-513.5 894,-554.5 1046,-554.5 1046,-513.5 894,-513.5"/>
<text text-anchor="start" x="902" y="-542.5" font-family="Helvetica,sans-Serif" font-size="10.00">NekoEngine/include</text>
<text text-anchor="start" x="902" y="-531.5" font-family="Helvetica,sans-Serif" font-size="10.00">/NekoEngine/ECS/Components</text>
<text text-anchor="middle" x="970" y="-520.5" font-family="Helvetica,sans-Serif" font-size="10.00">/Color.hpp</text>
</a>
</g>
</g>
<!-- Node2 -->
<g id="node2" class="node">
<title>Node2</title>
<g id="a_node2"><a xlink:href="_components_8hpp.html" target="_top" xlink:title="Components.">
<polygon fill="none" stroke="black" points="648,-435.5 648,-476.5 800,-476.5 800,-435.5 648,-435.5"/>
<text text-anchor="start" x="656" y="-464.5" font-family="Helvetica,sans-Serif" font-size="10.00">NekoEngine/include</text>
<text text-anchor="start" x="656" y="-453.5" font-family="Helvetica,sans-Serif" font-size="10.00">/NekoEngine/ECS/Components</text>
<text text-anchor="middle" x="724" y="-442.5" font-family="Helvetica,sans-Serif" font-size="10.00">/Components.hpp</text>
</a>
</g>
</g>
<!-- Node1&#45;&gt;Node2 -->
<g id="edge1" class="edge">
<title>Node1&#45;&gt;Node2</title>
<path fill="none" stroke="midnightblue" d="M896.98,-510.44C862.07,-499.66 820.68,-486.87 787.14,-476.51"/>
<polygon fill="midnightblue" stroke="midnightblue" points="896.06,-513.82 906.65,-513.43 898.13,-507.13 896.06,-513.82"/>
</g>
<!-- Node16 -->
<g id="node16" class="node">
<title>Node16</title>
<g id="a_node16"><a xlink:href="_render_system_8cpp.html" target="_top" xlink:title="Render System class implementation.">
<polygon fill="none" stroke="black" points="1694.5,-0.5 1694.5,-30.5 1837.5,-30.5 1837.5,-0.5 1694.5,-0.5"/>
<text text-anchor="start" x="1702.5" y="-18.5" font-family="Helvetica,sans-Serif" font-size="10.00">NekoEngine/src/ECS</text>
<text text-anchor="middle" x="1766" y="-7.5" font-family="Helvetica,sans-Serif" font-size="10.00">/Systems/RenderSystem.cpp</text>
</a>
</g>
</g>
<!-- Node1&#45;&gt;Node16 -->
<g id="edge38" class="edge">
<title>Node1&#45;&gt;Node16</title>
<path fill="none" stroke="midnightblue" d="M1056.44,-526.11C1208.06,-511.62 1506,-471.4 1506,-379 1506,-379 1506,-379 1506,-159.5 1506,-110.69 1648.47,-55.78 1722.48,-30.55"/>
<polygon fill="midnightblue" stroke="midnightblue" points="1055.86,-522.65 1046.23,-527.07 1056.51,-529.62 1055.86,-522.65"/>
</g>
<!-- Node3 -->
<g id="node3" class="node">
<title>Node3</title>
<g id="a_node3"><a xlink:href="_client_collision_8hpp.html" target="_top" xlink:title=" ">
<polygon fill="none" stroke="black" points="470,-368.5 470,-387.5 628,-387.5 628,-368.5 470,-368.5"/>
<text text-anchor="middle" x="549" y="-375.5" font-family="Helvetica,sans-Serif" font-size="10.00">Client/include/ClientCollision.hpp</text>
</a>
</g>
</g>
<!-- Node2&#45;&gt;Node3 -->
<g id="edge2" class="edge">
<title>Node2&#45;&gt;Node3</title>
<path fill="none" stroke="midnightblue" d="M669.49,-431.33C635.19,-416.43 592.96,-398.09 568.69,-387.55"/>
<polygon fill="midnightblue" stroke="midnightblue" points="668.37,-434.65 678.93,-435.43 671.15,-428.23 668.37,-434.65"/>
</g>
<!-- Node8 -->
<g id="node8" class="node">
<title>Node8</title>
<g id="a_node8"><a xlink:href="_bonus_system_8hpp.html" target="_top" xlink:title=" ">
<polygon fill="none" stroke="black" points="153,-357.5 153,-398.5 289,-398.5 289,-357.5 153,-357.5"/>
<text text-anchor="start" x="161" y="-386.5" font-family="Helvetica,sans-Serif" font-size="10.00">NekoEngine/include</text>
<text text-anchor="start" x="161" y="-375.5" font-family="Helvetica,sans-Serif" font-size="10.00">/NekoEngine/ECS/Systems</text>
<text text-anchor="middle" x="221" y="-364.5" font-family="Helvetica,sans-Serif" font-size="10.00">/BonusSystem.hpp</text>
</a>
</g>
</g>
<!-- Node2&#45;&gt;Node8 -->
<g id="edge7" class="edge">
<title>Node2&#45;&gt;Node8</title>
<path fill="none" stroke="midnightblue" d="M637.72,-446.82C551.3,-437.88 414.74,-421.74 298,-399 295.15,-398.45 292.26,-397.85 289.33,-397.22"/>
<polygon fill="midnightblue" stroke="midnightblue" points="637.44,-450.31 647.74,-447.84 638.15,-443.34 637.44,-450.31"/>
</g>
<!-- Node10 -->
<g id="node10" class="node">
<title>Node10</title>
<g id="a_node10"><a xlink:href="_neko_engine_8hpp.html" target="_top" xlink:title=" ">
<polygon fill="none" stroke="black" points="757,-212.5 757,-242.5 903,-242.5 903,-212.5 757,-212.5"/>
<text text-anchor="start" x="765" y="-230.5" font-family="Helvetica,sans-Serif" font-size="10.00">NekoEngine/include</text>
<text text-anchor="middle" x="830" y="-219.5" font-family="Helvetica,sans-Serif" font-size="10.00">/NekoEngine/NekoEngine.hpp</text>
</a>
</g>
</g>
<!-- Node2&#45;&gt;Node10 -->
<g id="edge36" class="edge">
<title>Node2&#45;&gt;Node10</title>
<path fill="none" stroke="midnightblue" d="M778.79,-430.17C791.27,-421.98 803.16,-411.65 811,-399 842.23,-348.62 836.39,-273.54 832.24,-242.6"/>
<polygon fill="midnightblue" stroke="midnightblue" points="776.79,-427.29 770.09,-435.49 780.45,-433.25 776.79,-427.29"/>
</g>
<!-- Node12 -->
<g id="node12" class="node">
<title>Node12</title>
<g id="a_node12"><a xlink:href="_window_8hpp.html" target="_top" xlink:title="Contains the NekoEngine Window class wrapper.">
<polygon fill="none" stroke="black" points="1080,-67.5 1080,-108.5 1194,-108.5 1194,-67.5 1080,-67.5"/>
<text text-anchor="start" x="1088" y="-96.5" font-family="Helvetica,sans-Serif" font-size="10.00">NekoEngine/include</text>
<text text-anchor="start" x="1088" y="-85.5" font-family="Helvetica,sans-Serif" font-size="10.00">/NekoEngine/Graphics</text>
<text text-anchor="middle" x="1137" y="-74.5" font-family="Helvetica,sans-Serif" font-size="10.00">/Window.hpp</text>
</a>
</g>
</g>
<!-- Node2&#45;&gt;Node12 -->
<g id="edge35" class="edge">
<title>Node2&#45;&gt;Node12</title>
<path fill="none" stroke="midnightblue" d="M810.27,-442.19C936.32,-421.01 1156,-373.68 1156,-301 1156,-301 1156,-301 1156,-226.5 1156,-184.33 1147.12,-135.56 1141.5,-108.92"/>
<polygon fill="midnightblue" stroke="midnightblue" points="809.53,-438.77 800.24,-443.86 810.68,-445.67 809.53,-438.77"/>
</g>
<!-- Node25 -->
<g id="node25" class="node">
<title>Node25</title>
<g id="a_node25"><a xlink:href="_collision_8hpp.html" target="_top" xlink:title=" ">
<polygon fill="none" stroke="black" points="307,-357.5 307,-398.5 443,-398.5 443,-357.5 307,-357.5"/>
<text text-anchor="start" x="315" y="-386.5" font-family="Helvetica,sans-Serif" font-size="10.00">NekoEngine/include</text>
<text text-anchor="start" x="315" y="-375.5" font-family="Helvetica,sans-Serif" font-size="10.00">/NekoEngine/ECS/Systems</text>
<text text-anchor="middle" x="375" y="-364.5" font-family="Helvetica,sans-Serif" font-size="10.00">/Collision.hpp</text>
</a>
</g>
</g>
<!-- Node2&#45;&gt;Node25 -->
<g id="edge32" class="edge">
<title>Node2&#45;&gt;Node25</title>
<path fill="none" stroke="midnightblue" d="M637.89,-437.09C586.49,-426.29 519.95,-412.13 461,-399 455.16,-397.7 449.11,-396.33 443.04,-394.95"/>
<polygon fill="midnightblue" stroke="midnightblue" points="637.45,-440.57 647.96,-439.2 638.89,-433.72 637.45,-440.57"/>
</g>
<!-- Node27 -->
<g id="node27" class="node">
<title>Node27</title>
<g id="a_node27"><a xlink:href="_animation_system_8cpp.html" target="_top" xlink:title=" ">
<polygon fill="none" stroke="black" points="646.5,-363 646.5,-393 801.5,-393 801.5,-363 646.5,-363"/>
<text text-anchor="start" x="654.5" y="-381" font-family="Helvetica,sans-Serif" font-size="10.00">NekoEngine/src/ECS</text>
<text text-anchor="middle" x="724" y="-370" font-family="Helvetica,sans-Serif" font-size="10.00">/Systems/AnimationSystem.cpp</text>
</a>
</g>
</g>
<!-- Node2&#45;&gt;Node27 -->
<g id="edge37" class="edge">
<title>Node2&#45;&gt;Node27</title>
<path fill="none" stroke="midnightblue" d="M724,-425.28C724,-414.25 724,-402.25 724,-393.23"/>
<polygon fill="midnightblue" stroke="midnightblue" points="720.5,-425.43 724,-435.43 727.5,-425.43 720.5,-425.43"/>
</g>
<!-- Node4 -->
<g id="node4" class="node">
<title>Node4</title>
<g id="a_node4"><a xlink:href="_client_game_8hpp.html" target="_top" xlink:title=" ">
<polygon fill="none" stroke="black" points="573.5,-78.5 573.5,-97.5 720.5,-97.5 720.5,-78.5 573.5,-78.5"/>
<text text-anchor="middle" x="647" y="-85.5" font-family="Helvetica,sans-Serif" font-size="10.00">Client/include/ClientGame.hpp</text>
</a>
</g>
</g>
<!-- Node3&#45;&gt;Node4 -->
<g id="edge3" class="edge">
<title>Node3&#45;&gt;Node4</title>
<path fill="none" stroke="midnightblue" d="M519.8,-363.37C503.38,-353.99 484.36,-339.81 475,-321 458.92,-288.67 426.17,-213.21 476,-145 498.3,-114.48 537.72,-100.3 573.09,-93.83"/>
<polygon fill="midnightblue" stroke="midnightblue" points="518.6,-366.7 529.07,-368.34 521.91,-360.53 518.6,-366.7"/>
</g>
<!-- Node7 -->
<g id="node7" class="node">
<title>Node7</title>
<g id="a_node7"><a xlink:href="_client_collision_8cpp.html" target="_top" xlink:title=" ">
<polygon fill="none" stroke="black" points="484,-290.5 484,-309.5 624,-309.5 624,-290.5 484,-290.5"/>
<text text-anchor="middle" x="554" y="-297.5" font-family="Helvetica,sans-Serif" font-size="10.00">Client/src/ClientCollision.cpp</text>
</a>
</g>
</g>
<!-- Node3&#45;&gt;Node7 -->
<g id="edge6" class="edge">
<title>Node3&#45;&gt;Node7</title>
<path fill="none" stroke="midnightblue" d="M550.24,-358.22C551.26,-342.7 552.66,-321.36 553.43,-309.62"/>
<polygon fill="midnightblue" stroke="midnightblue" points="546.74,-358.07 549.57,-368.28 553.72,-358.53 546.74,-358.07"/>
</g>
<!-- Node5 -->
<g id="node5" class="node">
<title>Node5</title>
<g id="a_node5"><a xlink:href="_client_game_8cpp.html" target="_top" xlink:title=" ">
<polygon fill="none" stroke="black" points="582,-6 582,-25 712,-25 712,-6 582,-6"/>
<text text-anchor="middle" x="647" y="-13" font-family="Helvetica,sans-Serif" font-size="10.00">Client/src/ClientGame.cpp</text>
</a>
</g>
</g>
<!-- Node4&#45;&gt;Node5 -->
<g id="edge4" class="edge">
<title>Node4&#45;&gt;Node5</title>
<path fill="none" stroke="midnightblue" d="M647,-67.94C647,-54.03 647,-35.82 647,-25.22"/>
<polygon fill="midnightblue" stroke="midnightblue" points="643.5,-68.36 647,-78.36 650.5,-68.36 643.5,-68.36"/>
</g>
<!-- Node6 -->
<g id="node6" class="node">
<title>Node6</title>
<g id="a_node6"><a xlink:href="main_8cpp.html" target="_top" xlink:title="Entrypoint.">
<polygon fill="none" stroke="black" points="775,-6 775,-25 875,-25 875,-6 775,-6"/>
<text text-anchor="middle" x="825" y="-13" font-family="Helvetica,sans-Serif" font-size="10.00">Client/src/main.cpp</text>
</a>
</g>
</g>
<!-- Node4&#45;&gt;Node6 -->
<g id="edge5" class="edge">
<title>Node4&#45;&gt;Node6</title>
<path fill="none" stroke="midnightblue" d="M677.97,-74.74C713.88,-60.51 772.14,-37.44 803.45,-25.03"/>
<polygon fill="midnightblue" stroke="midnightblue" points="676.48,-71.56 668.47,-78.5 679.06,-78.07 676.48,-71.56"/>
</g>
<!-- Node9 -->
<g id="node9" class="node">
<title>Node9</title>
<g id="a_node9"><a xlink:href="_systems_8hpp.html" target="_top" xlink:title="Systems.">
<polygon fill="none" stroke="black" points="158,-279.5 158,-320.5 294,-320.5 294,-279.5 158,-279.5"/>
<text text-anchor="start" x="166" y="-308.5" font-family="Helvetica,sans-Serif" font-size="10.00">NekoEngine/include</text>
<text text-anchor="start" x="166" y="-297.5" font-family="Helvetica,sans-Serif" font-size="10.00">/NekoEngine/ECS/Systems</text>
<text text-anchor="middle" x="226" y="-286.5" font-family="Helvetica,sans-Serif" font-size="10.00">/Systems.hpp</text>
</a>
</g>
</g>
<!-- Node8&#45;&gt;Node9 -->
<g id="edge8" class="edge">
<title>Node8&#45;&gt;Node9</title>
<path fill="none" stroke="midnightblue" d="M222.95,-347.3C223.55,-338.3 224.18,-328.65 224.72,-320.51"/>
<polygon fill="midnightblue" stroke="midnightblue" points="219.45,-347.22 222.29,-357.43 226.44,-347.68 219.45,-347.22"/>
</g>
<!-- Node24 -->
<g id="node24" class="node">
<title>Node24</title>
<g id="a_node24"><a xlink:href="_bonus_system_8cpp.html" target="_top" xlink:title=" ">
<polygon fill="none" stroke="black" points="0,-285 0,-315 140,-315 140,-285 0,-285"/>
<text text-anchor="start" x="8" y="-303" font-family="Helvetica,sans-Serif" font-size="10.00">NekoEngine/src/ECS</text>
<text text-anchor="middle" x="70" y="-292" font-family="Helvetica,sans-Serif" font-size="10.00">/Systems/BonusSystem.cpp</text>
</a>
</g>
</g>
<!-- Node8&#45;&gt;Node24 -->
<g id="edge31" class="edge">
<title>Node8&#45;&gt;Node24</title>
<path fill="none" stroke="midnightblue" d="M172.93,-352.81C148.33,-340.43 119.23,-325.78 98.26,-315.23"/>
<polygon fill="midnightblue" stroke="midnightblue" points="171.61,-356.06 182.11,-357.43 174.75,-349.81 171.61,-356.06"/>
</g>
<!-- Node9&#45;&gt;Node10 -->
<g id="edge9" class="edge">
<title>Node9&#45;&gt;Node10</title>
<path fill="none" stroke="midnightblue" d="M304.24,-278.92C470.85,-250.15 656.34,-237.25 756.62,-231.85"/>
<polygon fill="midnightblue" stroke="midnightblue" points="303.56,-275.49 294.31,-280.66 304.76,-282.38 303.56,-275.49"/>
</g>
<!-- Node22 -->
<g id="node22" class="node">
<title>Node22</title>
<g id="a_node22"><a xlink:href="_timer_system_8cpp.html" target="_top" xlink:title=" ">
<polygon fill="none" stroke="black" points="79.5,-212.5 79.5,-242.5 216.5,-242.5 216.5,-212.5 79.5,-212.5"/>
<text text-anchor="start" x="87.5" y="-230.5" font-family="Helvetica,sans-Serif" font-size="10.00">NekoEngine/src/ECS</text>
<text text-anchor="middle" x="148" y="-219.5" font-family="Helvetica,sans-Serif" font-size="10.00">/Systems/TimerSystem.cpp</text>
</a>
</g>
</g>
<!-- Node9&#45;&gt;Node22 -->
<g id="edge29" class="edge">
<title>Node9&#45;&gt;Node22</title>
<path fill="none" stroke="midnightblue" d="M196.79,-272.6C185.65,-262.53 173.38,-251.44 163.92,-242.89"/>
<polygon fill="midnightblue" stroke="midnightblue" points="194.51,-275.25 204.27,-279.36 199.2,-270.06 194.51,-275.25"/>
</g>
<!-- Node23 -->
<g id="node23" class="node">
<title>Node23</title>
<g id="a_node23"><a xlink:href="_scene_8cpp.html" target="_top" xlink:title="For the love of god.">
<polygon fill="none" stroke="black" points="235,-212.5 235,-242.5 357,-242.5 357,-212.5 235,-212.5"/>
<text text-anchor="start" x="243" y="-230.5" font-family="Helvetica,sans-Serif" font-size="10.00">NekoEngine/src/Scenes</text>
<text text-anchor="middle" x="296" y="-219.5" font-family="Helvetica,sans-Serif" font-size="10.00">/Scene.cpp</text>
</a>
</g>
</g>
<!-- Node9&#45;&gt;Node23 -->
<g id="edge30" class="edge">
<title>Node9&#45;&gt;Node23</title>
<path fill="none" stroke="midnightblue" d="M252.79,-272.02C262.63,-262.11 273.39,-251.27 281.71,-242.89"/>
<polygon fill="midnightblue" stroke="midnightblue" points="250.06,-269.8 245.5,-279.36 255.03,-274.73 250.06,-269.8"/>
</g>
<!-- Node10&#45;&gt;Node4 -->
<g id="edge10" class="edge">
<title>Node10&#45;&gt;Node4</title>
<path fill="none" stroke="midnightblue" d="M747.04,-214.68C721.13,-207.32 694.31,-195.38 675,-176 653.16,-154.08 648.35,-115.08 647.29,-97.73"/>
<polygon fill="midnightblue" stroke="midnightblue" points="746.35,-218.12 756.91,-217.29 748.13,-211.35 746.35,-218.12"/>
</g>
<!-- Node10&#45;&gt;Node6 -->
<g id="edge27" class="edge">
<title>Node10&#45;&gt;Node6</title>
<path fill="none" stroke="midnightblue" d="M848.81,-204.4C873.03,-173.08 909.5,-114.34 887,-67 877.88,-47.82 857.52,-33.52 842.61,-25.13"/>
<polygon fill="midnightblue" stroke="midnightblue" points="845.87,-202.47 842.36,-212.47 851.34,-206.84 845.87,-202.47"/>
</g>
<!-- Node11 -->
<g id="node11" class="node">
<title>Node11</title>
<g id="a_node11"><a xlink:href="_custom_client_8hpp.html" target="_top" xlink:title=" ">
<polygon fill="none" stroke="black" points="934.5,-151 934.5,-170 1089.5,-170 1089.5,-151 934.5,-151"/>
<text text-anchor="middle" x="1012" y="-158" font-family="Helvetica,sans-Serif" font-size="10.00">Client/include/CustomClient.hpp</text>
</a>
</g>
</g>
<!-- Node10&#45;&gt;Node11 -->
<g id="edge11" class="edge">
<title>Node10&#45;&gt;Node11</title>
<path fill="none" stroke="midnightblue" d="M879.15,-208.95C914.5,-196.32 960.62,-179.85 988.18,-170.01"/>
<polygon fill="midnightblue" stroke="midnightblue" points="877.73,-205.74 869.49,-212.4 880.09,-212.33 877.73,-205.74"/>
</g>
<!-- Node19 -->
<g id="node19" class="node">
<title>Node19</title>
<g id="a_node19"><a xlink:href="_player_system_8hpp.html" target="_top" xlink:title=" ">
<polygon fill="none" stroke="black" points="684,-151 684,-170 840,-170 840,-151 684,-151"/>
<text text-anchor="middle" x="762" y="-158" font-family="Helvetica,sans-Serif" font-size="10.00">Client/include/PlayerSystem.hpp</text>
</a>
</g>
</g>
<!-- Node10&#45;&gt;Node19 -->
<g id="edge23" class="edge">
<title>Node10&#45;&gt;Node19</title>
<path fill="none" stroke="midnightblue" d="M807.86,-205.34C795.37,-193.4 780.45,-179.14 771.1,-170.19"/>
<polygon fill="midnightblue" stroke="midnightblue" points="805.6,-208.02 815.25,-212.4 810.43,-202.96 805.6,-208.02"/>
</g>
<!-- Node20 -->
<g id="node20" class="node">
<title>Node20</title>
<g id="a_node20"><a xlink:href="_player_system_8cpp.html" target="_top" xlink:title=" ">
<polygon fill="none" stroke="black" points="738.5,-78.5 738.5,-97.5 877.5,-97.5 877.5,-78.5 738.5,-78.5"/>
<text text-anchor="middle" x="808" y="-85.5" font-family="Helvetica,sans-Serif" font-size="10.00">Client/src/PlayerSystem.cpp</text>
</a>
</g>
</g>
<!-- Node10&#45;&gt;Node20 -->
<g id="edge26" class="edge">
<title>Node10&#45;&gt;Node20</title>
<path fill="none" stroke="midnightblue" d="M842.19,-203.06C849.12,-186.61 855.28,-164.21 849,-145 842.78,-125.99 827.39,-108.09 817.33,-97.85"/>
<polygon fill="midnightblue" stroke="midnightblue" points="838.87,-201.91 837.88,-212.45 845.23,-204.83 838.87,-201.91"/>
</g>
<!-- Node21 -->
<g id="node21" class="node">
<title>Node21</title>
<g id="a_node21"><a xlink:href="_pattern_system_8cpp.html" target="_top" xlink:title="Physics System class implementation.">
<polygon fill="none" stroke="black" points="484.5,-145.5 484.5,-175.5 627.5,-175.5 627.5,-145.5 484.5,-145.5"/>
<text text-anchor="start" x="492.5" y="-163.5" font-family="Helvetica,sans-Serif" font-size="10.00">NekoEngine/src/ECS</text>
<text text-anchor="middle" x="556" y="-152.5" font-family="Helvetica,sans-Serif" font-size="10.00">/Systems/PatternSystem.cpp</text>
</a>
</g>
</g>
<!-- Node10&#45;&gt;Node21 -->
<g id="edge28" class="edge">
<title>Node10&#45;&gt;Node21</title>
<path fill="none" stroke="midnightblue" d="M760.95,-210.12C716.11,-199.48 658.28,-185.76 615.48,-175.61"/>
<polygon fill="midnightblue" stroke="midnightblue" points="760.35,-213.57 770.88,-212.48 761.96,-206.76 760.35,-213.57"/>
</g>
<!-- Node11&#45;&gt;Node6 -->
<g id="edge12" class="edge">
<title>Node11&#45;&gt;Node6</title>
<path fill="none" stroke="midnightblue" d="M998.52,-143.22C981.61,-123.49 951.06,-90.04 920,-67 896.15,-49.3 865.28,-34.11 845.31,-25.13"/>
<polygon fill="midnightblue" stroke="midnightblue" points="995.96,-145.61 1005.08,-151 1001.31,-141.1 995.96,-145.61"/>
</g>
<!-- Node11&#45;&gt;Node12 -->
<g id="edge13" class="edge">
<title>Node11&#45;&gt;Node12</title>
<path fill="none" stroke="midnightblue" d="M1036.15,-145.88C1054.97,-135.26 1081.34,-120.39 1102.4,-108.52"/>
<polygon fill="midnightblue" stroke="midnightblue" points="1034.32,-142.89 1027.33,-150.86 1037.76,-148.99 1034.32,-142.89"/>
</g>
<!-- Node18 -->
<g id="node18" class="node">
<title>Node18</title>
<g id="a_node18"><a xlink:href="_window_8cpp.html" target="_top" xlink:title="Contains the NekoEngine Window class implementation.">
<polygon fill="none" stroke="black" points="893,-0.5 893,-30.5 1021,-30.5 1021,-0.5 893,-0.5"/>
<text text-anchor="start" x="901" y="-18.5" font-family="Helvetica,sans-Serif" font-size="10.00">NekoEngine/src/Graphics</text>
<text text-anchor="middle" x="957" y="-7.5" font-family="Helvetica,sans-Serif" font-size="10.00">/Window.cpp</text>
</a>
</g>
</g>
<!-- Node11&#45;&gt;Node18 -->
<g id="edge22" class="edge">
<title>Node11&#45;&gt;Node18</title>
<path fill="none" stroke="midnightblue" d="M1005.03,-141.39C993.97,-112.62 972.61,-57.08 962.52,-30.86"/>
<polygon fill="midnightblue" stroke="midnightblue" points="1001.87,-142.91 1008.72,-150.98 1008.4,-140.39 1001.87,-142.91"/>
</g>
<!-- Node12&#45;&gt;Node6 -->
<g id="edge14" class="edge">
<title>Node12&#45;&gt;Node6</title>
<path fill="none" stroke="midnightblue" d="M1069.97,-72.61C1018.92,-61.54 946.94,-45.7 884,-31 875.99,-29.13 867.38,-27.05 859.29,-25.07"/>
<polygon fill="midnightblue" stroke="midnightblue" points="1069.38,-76.06 1079.89,-74.75 1070.86,-69.22 1069.38,-76.06"/>
</g>
<!-- Node12&#45;&gt;Node10 -->
<g id="edge15" class="edge">
<title>Node12&#45;&gt;Node10</title>
<path fill="none" stroke="midnightblue" d="M1131.49,-118.67C1126.35,-137.9 1116.71,-161.9 1099,-176 1069.35,-199.6 972.22,-213.4 903.21,-220.44"/>
<polygon fill="midnightblue" stroke="midnightblue" points="1134.92,-119.39 1133.84,-108.85 1128.11,-117.76 1134.92,-119.39"/>
</g>
<!-- Node13 -->
<g id="node13" class="node">
<title>Node13</title>
<g id="a_node13"><a xlink:href="_background_system_8cpp.html" target="_top" xlink:title=" ">
<polygon fill="none" stroke="black" points="1353,-0.5 1353,-30.5 1517,-30.5 1517,-0.5 1353,-0.5"/>
<text text-anchor="start" x="1361" y="-18.5" font-family="Helvetica,sans-Serif" font-size="10.00">NekoEngine/src/ECS</text>
<text text-anchor="middle" x="1435" y="-7.5" font-family="Helvetica,sans-Serif" font-size="10.00">/Systems/BackgroundSystem.cpp</text>
</a>
</g>
</g>
<!-- Node12&#45;&gt;Node13 -->
<g id="edge16" class="edge">
<title>Node12&#45;&gt;Node13</title>
<path fill="none" stroke="midnightblue" d="M1204.16,-71.11C1255.74,-58.91 1326.31,-42.21 1375.79,-30.51"/>
<polygon fill="midnightblue" stroke="midnightblue" points="1203.03,-67.78 1194.1,-73.49 1204.64,-74.59 1203.03,-67.78"/>
</g>
<!-- Node14 -->
<g id="node14" class="node">
<title>Node14</title>
<g id="a_node14"><a xlink:href="_mouse_system_8cpp.html" target="_top" xlink:title=" ">
<polygon fill="none" stroke="black" points="1535.5,-0.5 1535.5,-30.5 1676.5,-30.5 1676.5,-0.5 1535.5,-0.5"/>
<text text-anchor="start" x="1543.5" y="-18.5" font-family="Helvetica,sans-Serif" font-size="10.00">NekoEngine/src/ECS</text>
<text text-anchor="middle" x="1606" y="-7.5" font-family="Helvetica,sans-Serif" font-size="10.00">/Systems/MouseSystem.cpp</text>
</a>
</g>
</g>
<!-- Node12&#45;&gt;Node14 -->
<g id="edge17" class="edge">
<title>Node12&#45;&gt;Node14</title>
<path fill="none" stroke="midnightblue" d="M1204.24,-78.08C1281.88,-67.6 1413.37,-49.31 1526,-31 1529.07,-30.5 1532.19,-29.98 1535.35,-29.45"/>
<polygon fill="midnightblue" stroke="midnightblue" points="1203.56,-74.64 1194.12,-79.44 1204.49,-81.57 1203.56,-74.64"/>
</g>
<!-- Node15 -->
<g id="node15" class="node">
<title>Node15</title>
<g id="a_node15"><a xlink:href="_parallax_system_8cpp.html" target="_top" xlink:title=" ">
<polygon fill="none" stroke="black" points="1039,-0.5 1039,-30.5 1185,-30.5 1185,-0.5 1039,-0.5"/>
<text text-anchor="start" x="1047" y="-18.5" font-family="Helvetica,sans-Serif" font-size="10.00">NekoEngine/src/ECS</text>
<text text-anchor="middle" x="1112" y="-7.5" font-family="Helvetica,sans-Serif" font-size="10.00">/Systems/ParallaxSystem.cpp</text>
</a>
</g>
</g>
<!-- Node12&#45;&gt;Node15 -->
<g id="edge18" class="edge">
<title>Node12&#45;&gt;Node15</title>
<path fill="none" stroke="midnightblue" d="M1126.6,-57.67C1123.32,-48.42 1119.84,-38.61 1117.1,-30.89"/>
<polygon fill="midnightblue" stroke="midnightblue" points="1123.4,-59.11 1130.04,-67.36 1129.99,-56.77 1123.4,-59.11"/>
</g>
<!-- Node12&#45;&gt;Node16 -->
<g id="edge19" class="edge">
<title>Node12&#45;&gt;Node16</title>
<path fill="none" stroke="midnightblue" d="M1204.09,-81.85C1307.75,-73.5 1512.95,-55.47 1686,-31 1688.66,-30.62 1691.36,-30.22 1694.08,-29.81"/>
<polygon fill="midnightblue" stroke="midnightblue" points="1203.77,-78.36 1194.08,-82.65 1204.33,-85.34 1203.77,-78.36"/>
</g>
<!-- Node17 -->
<g id="node17" class="node">
<title>Node17</title>
<g id="a_node17"><a xlink:href="_text_system_8cpp.html" target="_top" xlink:title=" ">
<polygon fill="none" stroke="black" points="1203.5,-0.5 1203.5,-30.5 1334.5,-30.5 1334.5,-0.5 1203.5,-0.5"/>
<text text-anchor="start" x="1211.5" y="-18.5" font-family="Helvetica,sans-Serif" font-size="10.00">NekoEngine/src/ECS</text>
<text text-anchor="middle" x="1269" y="-7.5" font-family="Helvetica,sans-Serif" font-size="10.00">/Systems/TextSystem.cpp</text>
</a>
</g>
</g>
<!-- Node12&#45;&gt;Node17 -->
<g id="edge20" class="edge">
<title>Node12&#45;&gt;Node17</title>
<path fill="none" stroke="midnightblue" d="M1182.71,-62.58C1202.67,-51.93 1225.36,-39.81 1242.47,-30.67"/>
<polygon fill="midnightblue" stroke="midnightblue" points="1180.94,-59.56 1173.77,-67.36 1184.24,-65.74 1180.94,-59.56"/>
</g>
<!-- Node12&#45;&gt;Node18 -->
<g id="edge21" class="edge">
<title>Node12&#45;&gt;Node18</title>
<path fill="none" stroke="midnightblue" d="M1077.19,-63.57C1049.27,-52.64 1016.98,-39.99 992.9,-30.56"/>
<polygon fill="midnightblue" stroke="midnightblue" points="1076.27,-66.97 1086.86,-67.36 1078.83,-60.46 1076.27,-66.97"/>
</g>
<!-- Node19&#45;&gt;Node4 -->
<g id="edge24" class="edge">
<title>Node19&#45;&gt;Node4</title>
<path fill="none" stroke="midnightblue" d="M739.36,-145.62C716.15,-131.39 680.76,-109.7 661.22,-97.72"/>
<polygon fill="midnightblue" stroke="midnightblue" points="737.54,-148.61 747.9,-150.86 741.2,-142.64 737.54,-148.61"/>
</g>
<!-- Node19&#45;&gt;Node20 -->
<g id="edge25" class="edge">
<title>Node19&#45;&gt;Node20</title>
<path fill="none" stroke="midnightblue" d="M773.36,-142.09C782.55,-128 795.12,-108.74 802.31,-97.72"/>
<polygon fill="midnightblue" stroke="midnightblue" points="770.17,-140.57 767.64,-150.86 776.04,-144.39 770.17,-140.57"/>
</g>
<!-- Node25&#45;&gt;Node9 -->
<g id="edge33" class="edge">
<title>Node25&#45;&gt;Node9</title>
<path fill="none" stroke="midnightblue" d="M327.49,-352.77C307.07,-342.35 283.51,-330.34 264.24,-320.51"/>
<polygon fill="midnightblue" stroke="midnightblue" points="326.13,-356 336.63,-357.43 329.31,-349.77 326.13,-356"/>
</g>
<!-- Node26 -->
<g id="node26" class="node">
<title>Node26</title>
<g id="a_node26"><a xlink:href="_collision_8cpp.html" target="_top" xlink:title=" ">
<polygon fill="none" stroke="black" points="312,-285 312,-315 428,-315 428,-285 312,-285"/>
<text text-anchor="start" x="320" y="-303" font-family="Helvetica,sans-Serif" font-size="10.00">NekoEngine/src/ECS</text>
<text text-anchor="middle" x="370" y="-292" font-family="Helvetica,sans-Serif" font-size="10.00">/Systems/Collision.cpp</text>
</a>
</g>
</g>
<!-- Node25&#45;&gt;Node26 -->
<g id="edge34" class="edge">
<title>Node25&#45;&gt;Node26</title>
<path fill="none" stroke="midnightblue" d="M373.04,-347.28C372.32,-336.25 371.53,-324.25 370.94,-315.23"/>
<polygon fill="midnightblue" stroke="midnightblue" points="369.56,-347.68 373.71,-357.43 376.55,-347.22 369.56,-347.68"/>
</g>
</g>
</svg>
