<?xml version="1.0" encoding="UTF-8" standalone="no"?>
<!DOCTYPE svg PUBLIC "-//W3C//DTD SVG 1.1//EN"
 "http://www.w3.org/Graphics/SVG/1.1/DTD/svg11.dtd">
<!-- Generated by graphviz version 2.49.3 (20211027.1501)
 -->
<!-- Title: NekoEngine/src/ECS/Systems/Collision.cpp Pages: 1 -->
<svg width="2978pt" height="620pt"
 viewBox="0.00 0.00 2977.50 620.00" xmlns="http://www.w3.org/2000/svg" xmlns:xlink="http://www.w3.org/1999/xlink">
<g id="graph0" class="graph" transform="scale(1 1) rotate(0) translate(4 616)">
<title>NekoEngine/src/ECS/Systems/Collision.cpp</title>
<!-- Node1 -->
<g id="node1" class="node">
<title>Node1</title>
<g id="a_node1"><a xlink:title=" ">
<polygon fill="#bfbfbf" stroke="black" points="711,-581.5 711,-611.5 827,-611.5 827,-581.5 711,-581.5"/>
<text text-anchor="start" x="719" y="-599.5" font-family="Helvetica,sans-Serif" font-size="10.00">NekoEngine/src/ECS</text>
<text text-anchor="middle" x="769" y="-588.5" font-family="Helvetica,sans-Serif" font-size="10.00">/Systems/Collision.cpp</text>
</a>
</g>
</g>
<!-- Node2 -->
<g id="node2" class="node">
<title>Node2</title>
<g id="a_node2"><a xlink:href="_collision_8hpp.html" target="_top" xlink:title=" ">
<polygon fill="none" stroke="black" points="702.5,-514.5 702.5,-544.5 835.5,-544.5 835.5,-514.5 702.5,-514.5"/>
<text text-anchor="start" x="710.5" y="-532.5" font-family="Helvetica,sans-Serif" font-size="10.00">NekoEngine/ECS/Systems</text>
<text text-anchor="middle" x="769" y="-521.5" font-family="Helvetica,sans-Serif" font-size="10.00">/Collision.hpp</text>
</a>
</g>
</g>
<!-- Node1&#45;&gt;Node2 -->
<g id="edge1" class="edge">
<title>Node1&#45;&gt;Node2</title>
<path fill="none" stroke="midnightblue" d="M769,-581.4C769,-573.64 769,-563.81 769,-554.86"/>
<polygon fill="midnightblue" stroke="midnightblue" points="772.5,-554.58 769,-544.58 765.5,-554.58 772.5,-554.58"/>
</g>
<!-- Node3 -->
<g id="node3" class="node">
<title>Node3</title>
<g id="a_node3"><a xlink:href="_system_8hpp.html" target="_top" xlink:title="ECS System.">
<polygon fill="none" stroke="black" points="192,-330 192,-349 338,-349 338,-330 192,-330"/>
<text text-anchor="middle" x="265" y="-337" font-family="Helvetica,sans-Serif" font-size="10.00">NekoEngine/ECS/System.hpp</text>
</a>
</g>
</g>
<!-- Node2&#45;&gt;Node3 -->
<g id="edge2" class="edge">
<title>Node2&#45;&gt;Node3</title>
<path fill="none" stroke="midnightblue" d="M702.26,-523.34C630.46,-516.79 513.33,-503.17 415,-478 346.46,-460.46 306.63,-479.91 266,-422 253.08,-403.58 255.82,-376.6 259.76,-358.8"/>
<polygon fill="midnightblue" stroke="midnightblue" points="263.16,-359.62 262.23,-349.06 256.38,-357.89 263.16,-359.62"/>
</g>
<!-- Node9 -->
<g id="node9" class="node">
<title>Node9</title>
<g id="a_node9"><a xlink:href="_components_8hpp.html" target="_top" xlink:title="Components.">
<polygon fill="none" stroke="black" points="1317.5,-257.5 1317.5,-287.5 1466.5,-287.5 1466.5,-257.5 1317.5,-257.5"/>
<text text-anchor="start" x="1325.5" y="-275.5" font-family="Helvetica,sans-Serif" font-size="10.00">NekoEngine/ECS/Components</text>
<text text-anchor="middle" x="1392" y="-264.5" font-family="Helvetica,sans-Serif" font-size="10.00">/Components.hpp</text>
</a>
</g>
</g>
<!-- Node2&#45;&gt;Node9 -->
<g id="edge8" class="edge">
<title>Node2&#45;&gt;Node9</title>
<path fill="none" stroke="midnightblue" d="M803.38,-514.43C909.33,-471.06 1230.71,-339.52 1348.3,-291.39"/>
<polygon fill="midnightblue" stroke="midnightblue" points="1349.79,-294.56 1357.72,-287.53 1347.14,-288.08 1349.79,-294.56"/>
</g>
<!-- Node35 -->
<g id="node35" class="node">
<title>Node35</title>
<g id="a_node35"><a xlink:href="_coordinator_8hpp.html" target="_top" xlink:title="Coordinator class.">
<polygon fill="none" stroke="black" points="424,-458.5 424,-477.5 586,-477.5 586,-458.5 424,-458.5"/>
<text text-anchor="middle" x="505" y="-465.5" font-family="Helvetica,sans-Serif" font-size="10.00">NekoEngine/ECS/Coordinator.hpp</text>
</a>
</g>
</g>
<!-- Node2&#45;&gt;Node35 -->
<g id="edge41" class="edge">
<title>Node2&#45;&gt;Node35</title>
<path fill="none" stroke="midnightblue" d="M706.77,-514.47C659.63,-503.85 595.84,-489.47 552.7,-479.75"/>
<polygon fill="midnightblue" stroke="midnightblue" points="553.27,-476.29 542.74,-477.51 551.73,-483.12 553.27,-476.29"/>
</g>
<!-- Node48 -->
<g id="node48" class="node">
<title>Node48</title>
<g id="a_node48"><a xlink:title=" ">
<polygon fill="none" stroke="#bfbfbf" points="1044,-458.5 1044,-477.5 1098,-477.5 1098,-458.5 1044,-458.5"/>
<text text-anchor="middle" x="1071" y="-465.5" font-family="Helvetica,sans-Serif" font-size="10.00">iostream</text>
</a>
</g>
</g>
<!-- Node2&#45;&gt;Node48 -->
<g id="edge67" class="edge">
<title>Node2&#45;&gt;Node48</title>
<path fill="none" stroke="midnightblue" d="M835.6,-516.09C888.4,-506.13 964.01,-491.62 1030,-478 1031.24,-477.74 1032.51,-477.48 1033.79,-477.21"/>
<polygon fill="midnightblue" stroke="midnightblue" points="1034.63,-480.61 1043.67,-475.1 1033.16,-473.77 1034.63,-480.61"/>
</g>
<!-- Node4 -->
<g id="node4" class="node">
<title>Node4</title>
<g id="a_node4"><a xlink:title=" ">
<polygon fill="none" stroke="#bfbfbf" points="226,-263 226,-282 256,-282 256,-263 226,-263"/>
<text text-anchor="middle" x="241" y="-270" font-family="Helvetica,sans-Serif" font-size="10.00">set</text>
</a>
</g>
</g>
<!-- Node3&#45;&gt;Node4 -->
<g id="edge3" class="edge">
<title>Node3&#45;&gt;Node4</title>
<path fill="none" stroke="midnightblue" d="M261.76,-329.73C258.16,-319.99 252.25,-303.98 247.66,-291.53"/>
<polygon fill="midnightblue" stroke="midnightblue" points="250.93,-290.3 244.19,-282.13 244.37,-292.72 250.93,-290.3"/>
</g>
<!-- Node5 -->
<g id="node5" class="node">
<title>Node5</title>
<g id="a_node5"><a xlink:title=" ">
<polygon fill="none" stroke="#bfbfbf" points="351.5,-263 351.5,-282 402.5,-282 402.5,-263 351.5,-263"/>
<text text-anchor="middle" x="377" y="-270" font-family="Helvetica,sans-Serif" font-size="10.00">memory</text>
</a>
</g>
</g>
<!-- Node3&#45;&gt;Node5 -->
<g id="edge4" class="edge">
<title>Node3&#45;&gt;Node5</title>
<path fill="none" stroke="midnightblue" d="M280.1,-329.73C298.91,-318.82 331.25,-300.05 353.36,-287.22"/>
<polygon fill="midnightblue" stroke="midnightblue" points="355.24,-290.17 362.13,-282.13 351.73,-284.12 355.24,-290.17"/>
</g>
<!-- Node6 -->
<g id="node6" class="node">
<title>Node6</title>
<g id="a_node6"><a xlink:href="_types_8hpp.html" target="_top" xlink:title="NekoEngine types definition.">
<polygon fill="none" stroke="black" points="214.5,-196 214.5,-215 353.5,-215 353.5,-196 214.5,-196"/>
<text text-anchor="middle" x="284" y="-203" font-family="Helvetica,sans-Serif" font-size="10.00">NekoEngine/ECS/Types.hpp</text>
</a>
</g>
</g>
<!-- Node3&#45;&gt;Node6 -->
<g id="edge5" class="edge">
<title>Node3&#45;&gt;Node6</title>
<path fill="none" stroke="midnightblue" d="M266.25,-329.84C269.29,-308.67 277.17,-253.95 281.33,-225.03"/>
<polygon fill="midnightblue" stroke="midnightblue" points="284.81,-225.42 282.77,-215.02 277.88,-224.42 284.81,-225.42"/>
</g>
<!-- Node7 -->
<g id="node7" class="node">
<title>Node7</title>
<g id="a_node7"><a xlink:title=" ">
<polygon fill="none" stroke="#bfbfbf" points="423,-129 423,-148 469,-148 469,-129 423,-129"/>
<text text-anchor="middle" x="446" y="-136" font-family="Helvetica,sans-Serif" font-size="10.00">cstdint</text>
</a>
</g>
</g>
<!-- Node6&#45;&gt;Node7 -->
<g id="edge6" class="edge">
<title>Node6&#45;&gt;Node7</title>
<path fill="none" stroke="midnightblue" d="M305.51,-195.87C333.67,-184.57 383.2,-164.7 415.3,-151.82"/>
<polygon fill="midnightblue" stroke="midnightblue" points="416.68,-155.04 424.66,-148.06 414.07,-148.54 416.68,-155.04"/>
</g>
<!-- Node8 -->
<g id="node8" class="node">
<title>Node8</title>
<g id="a_node8"><a xlink:title=" ">
<polygon fill="none" stroke="#bfbfbf" points="263.5,-129 263.5,-148 304.5,-148 304.5,-129 263.5,-129"/>
<text text-anchor="middle" x="284" y="-136" font-family="Helvetica,sans-Serif" font-size="10.00">bitset</text>
</a>
</g>
</g>
<!-- Node6&#45;&gt;Node8 -->
<g id="edge7" class="edge">
<title>Node6&#45;&gt;Node8</title>
<path fill="none" stroke="midnightblue" d="M284,-195.73C284,-186.18 284,-170.62 284,-158.28"/>
<polygon fill="midnightblue" stroke="midnightblue" points="287.5,-158.13 284,-148.13 280.5,-158.13 287.5,-158.13"/>
</g>
<!-- Node10 -->
<g id="node10" class="node">
<title>Node10</title>
<g id="a_node10"><a xlink:href="_transform_8hpp.html" target="_top" xlink:title="Transform component.">
<polygon fill="none" stroke="black" points="599.5,-123.5 599.5,-153.5 748.5,-153.5 748.5,-123.5 599.5,-123.5"/>
<text text-anchor="start" x="607.5" y="-141.5" font-family="Helvetica,sans-Serif" font-size="10.00">NekoEngine/ECS/Components</text>
<text text-anchor="middle" x="674" y="-130.5" font-family="Helvetica,sans-Serif" font-size="10.00">/Transform.hpp</text>
</a>
</g>
</g>
<!-- Node9&#45;&gt;Node10 -->
<g id="edge9" class="edge">
<title>Node9&#45;&gt;Node10</title>
<path fill="none" stroke="midnightblue" d="M1317.3,-269.26C1155.66,-263.9 783.97,-248.72 734,-221 710.73,-208.1 694,-181.94 684.21,-162.73"/>
<polygon fill="midnightblue" stroke="midnightblue" points="687.34,-161.17 679.85,-153.68 681.04,-164.21 687.34,-161.17"/>
</g>
<!-- Node15 -->
<g id="node15" class="node">
<title>Node15</title>
<g id="a_node15"><a xlink:href="_timer_8hpp.html" target="_top" xlink:title="Timer component.">
<polygon fill="none" stroke="black" points="1150.5,-190.5 1150.5,-220.5 1299.5,-220.5 1299.5,-190.5 1150.5,-190.5"/>
<text text-anchor="start" x="1158.5" y="-208.5" font-family="Helvetica,sans-Serif" font-size="10.00">NekoEngine/ECS/Components</text>
<text text-anchor="middle" x="1225" y="-197.5" font-family="Helvetica,sans-Serif" font-size="10.00">/Timer.hpp</text>
</a>
</g>
</g>
<!-- Node9&#45;&gt;Node15 -->
<g id="edge14" class="edge">
<title>Node9&#45;&gt;Node15</title>
<path fill="none" stroke="midnightblue" d="M1355.76,-257.4C1330.82,-247.69 1297.47,-234.71 1270.7,-224.29"/>
<polygon fill="midnightblue" stroke="midnightblue" points="1271.75,-220.94 1261.17,-220.58 1269.22,-227.47 1271.75,-220.94"/>
</g>
<!-- Node17 -->
<g id="node17" class="node">
<title>Node17</title>
<g id="a_node17"><a xlink:href="_renderable_8hpp.html" target="_top" xlink:title="Renderable component.">
<polygon fill="none" stroke="black" points="946.5,-190.5 946.5,-220.5 1095.5,-220.5 1095.5,-190.5 946.5,-190.5"/>
<text text-anchor="start" x="954.5" y="-208.5" font-family="Helvetica,sans-Serif" font-size="10.00">NekoEngine/ECS/Components</text>
<text text-anchor="middle" x="1021" y="-197.5" font-family="Helvetica,sans-Serif" font-size="10.00">/Renderable.hpp</text>
</a>
</g>
</g>
<!-- Node9&#45;&gt;Node17 -->
<g id="edge16" class="edge">
<title>Node9&#45;&gt;Node17</title>
<path fill="none" stroke="midnightblue" d="M1317.37,-258.42C1256.11,-247.69 1169.37,-232.49 1105.55,-221.31"/>
<polygon fill="midnightblue" stroke="midnightblue" points="1105.97,-217.83 1095.51,-219.55 1104.76,-224.73 1105.97,-217.83"/>
</g>
<!-- Node18 -->
<g id="node18" class="node">
<title>Node18</title>
<g id="a_node18"><a xlink:href="_color_8hpp.html" target="_top" xlink:title="Color component.">
<polygon fill="none" stroke="black" points="538.5,-190.5 538.5,-220.5 687.5,-220.5 687.5,-190.5 538.5,-190.5"/>
<text text-anchor="start" x="546.5" y="-208.5" font-family="Helvetica,sans-Serif" font-size="10.00">NekoEngine/ECS/Components</text>
<text text-anchor="middle" x="613" y="-197.5" font-family="Helvetica,sans-Serif" font-size="10.00">/Color.hpp</text>
</a>
</g>
</g>
<!-- Node9&#45;&gt;Node18 -->
<g id="edge17" class="edge">
<title>Node9&#45;&gt;Node18</title>
<path fill="none" stroke="midnightblue" d="M1317.4,-268.26C1190.47,-262.26 924.52,-247.53 701,-221 699.92,-220.87 698.84,-220.74 697.75,-220.61"/>
<polygon fill="midnightblue" stroke="midnightblue" points="698.2,-217.13 687.83,-219.3 697.29,-224.07 698.2,-217.13"/>
</g>
<!-- Node19 -->
<g id="node19" class="node">
<title>Node19</title>
<g id="a_node19"><a xlink:href="_rigid_body_8hpp.html" target="_top" xlink:title="RigidBody component.">
<polygon fill="none" stroke="black" points="881.5,-123.5 881.5,-153.5 1030.5,-153.5 1030.5,-123.5 881.5,-123.5"/>
<text text-anchor="start" x="889.5" y="-141.5" font-family="Helvetica,sans-Serif" font-size="10.00">NekoEngine/ECS/Components</text>
<text text-anchor="middle" x="956" y="-130.5" font-family="Helvetica,sans-Serif" font-size="10.00">/RigidBody.hpp</text>
</a>
</g>
</g>
<!-- Node9&#45;&gt;Node19 -->
<g id="edge19" class="edge">
<title>Node9&#45;&gt;Node19</title>
<path fill="none" stroke="midnightblue" d="M1317.2,-268.54C1194.81,-262.91 962.79,-248.7 938,-221 923.76,-205.09 931.87,-180.5 941.33,-162.49"/>
<polygon fill="midnightblue" stroke="midnightblue" points="944.39,-164.18 946.28,-153.76 938.3,-160.73 944.39,-164.18"/>
</g>
<!-- Node20 -->
<g id="node20" class="node">
<title>Node20</title>
<g id="a_node20"><a xlink:href="_gravity_8hpp.html" target="_top" xlink:title="Gravity component.">
<polygon fill="none" stroke="black" points="1048.5,-123.5 1048.5,-153.5 1197.5,-153.5 1197.5,-123.5 1048.5,-123.5"/>
<text text-anchor="start" x="1056.5" y="-141.5" font-family="Helvetica,sans-Serif" font-size="10.00">NekoEngine/ECS/Components</text>
<text text-anchor="middle" x="1123" y="-130.5" font-family="Helvetica,sans-Serif" font-size="10.00">/Gravity.hpp</text>
</a>
</g>
</g>
<!-- Node9&#45;&gt;Node20 -->
<g id="edge21" class="edge">
<title>Node9&#45;&gt;Node20</title>
<path fill="none" stroke="midnightblue" d="M1317.46,-265.28C1253.08,-258.37 1166.62,-244.9 1142,-221 1126.91,-206.35 1122.81,-182.2 1122.1,-163.99"/>
<polygon fill="midnightblue" stroke="midnightblue" points="1125.59,-163.78 1122.02,-153.81 1118.6,-163.84 1125.59,-163.78"/>
</g>
<!-- Node21 -->
<g id="node21" class="node">
<title>Node21</title>
<g id="a_node21"><a xlink:href="_skin_8hpp.html" target="_top" xlink:title="Skin component.">
<polygon fill="none" stroke="black" points="2653.5,-190.5 2653.5,-220.5 2802.5,-220.5 2802.5,-190.5 2653.5,-190.5"/>
<text text-anchor="start" x="2661.5" y="-208.5" font-family="Helvetica,sans-Serif" font-size="10.00">NekoEngine/ECS/Components</text>
<text text-anchor="middle" x="2728" y="-197.5" font-family="Helvetica,sans-Serif" font-size="10.00">/Skin.hpp</text>
</a>
</g>
</g>
<!-- Node9&#45;&gt;Node21 -->
<g id="edge23" class="edge">
<title>Node9&#45;&gt;Node21</title>
<path fill="none" stroke="midnightblue" d="M1466.75,-271.94C1660,-272.33 2192,-268.69 2643.43,-221.07"/>
<polygon fill="midnightblue" stroke="midnightblue" points="2643.84,-224.55 2653.41,-220.01 2643.1,-217.59 2643.84,-224.55"/>
</g>
<!-- Node23 -->
<g id="node23" class="node">
<title>Node23</title>
<g id="a_node23"><a xlink:href="_networkable_8hpp.html" target="_top" xlink:title="Networkable component.">
<polygon fill="none" stroke="black" points="1317.5,-190.5 1317.5,-220.5 1466.5,-220.5 1466.5,-190.5 1317.5,-190.5"/>
<text text-anchor="start" x="1325.5" y="-208.5" font-family="Helvetica,sans-Serif" font-size="10.00">NekoEngine/ECS/Components</text>
<text text-anchor="middle" x="1392" y="-197.5" font-family="Helvetica,sans-Serif" font-size="10.00">/Networkable.hpp</text>
</a>
</g>
</g>
<!-- Node9&#45;&gt;Node23 -->
<g id="edge25" class="edge">
<title>Node9&#45;&gt;Node23</title>
<path fill="none" stroke="midnightblue" d="M1392,-257.4C1392,-249.64 1392,-239.81 1392,-230.86"/>
<polygon fill="midnightblue" stroke="midnightblue" points="1395.5,-230.58 1392,-220.58 1388.5,-230.58 1395.5,-230.58"/>
</g>
<!-- Node24 -->
<g id="node24" class="node">
<title>Node24</title>
<g id="a_node24"><a xlink:href="_uid_8hpp.html" target="_top" xlink:title="Uid component.">
<polygon fill="none" stroke="black" points="371.5,-190.5 371.5,-220.5 520.5,-220.5 520.5,-190.5 371.5,-190.5"/>
<text text-anchor="start" x="379.5" y="-208.5" font-family="Helvetica,sans-Serif" font-size="10.00">NekoEngine/ECS/Components</text>
<text text-anchor="middle" x="446" y="-197.5" font-family="Helvetica,sans-Serif" font-size="10.00">/Uid.hpp</text>
</a>
</g>
</g>
<!-- Node9&#45;&gt;Node24 -->
<g id="edge26" class="edge">
<title>Node9&#45;&gt;Node24</title>
<path fill="none" stroke="midnightblue" d="M1317.47,-268.24C1140.72,-260.33 698.94,-239.5 530.57,-221.07"/>
<polygon fill="midnightblue" stroke="midnightblue" points="530.93,-217.59 520.6,-219.95 530.14,-224.55 530.93,-217.59"/>
</g>
<!-- Node25 -->
<g id="node25" class="node">
<title>Node25</title>
<g id="a_node25"><a xlink:href="_hostile_8hpp.html" target="_top" xlink:title=" ">
<polygon fill="none" stroke="black" points="1484.5,-190.5 1484.5,-220.5 1633.5,-220.5 1633.5,-190.5 1484.5,-190.5"/>
<text text-anchor="start" x="1492.5" y="-208.5" font-family="Helvetica,sans-Serif" font-size="10.00">NekoEngine/ECS/Components</text>
<text text-anchor="middle" x="1559" y="-197.5" font-family="Helvetica,sans-Serif" font-size="10.00">/Hostile.hpp</text>
</a>
</g>
</g>
<!-- Node9&#45;&gt;Node25 -->
<g id="edge28" class="edge">
<title>Node9&#45;&gt;Node25</title>
<path fill="none" stroke="midnightblue" d="M1428.24,-257.4C1453.18,-247.69 1486.53,-234.71 1513.3,-224.29"/>
<polygon fill="midnightblue" stroke="midnightblue" points="1514.78,-227.47 1522.83,-220.58 1512.25,-220.94 1514.78,-227.47"/>
</g>
<!-- Node26 -->
<g id="node26" class="node">
<title>Node26</title>
<g id="a_node26"><a xlink:href="_but_8hpp.html" target="_top" xlink:title=" ">
<polygon fill="none" stroke="black" points="1651.5,-190.5 1651.5,-220.5 1800.5,-220.5 1800.5,-190.5 1651.5,-190.5"/>
<text text-anchor="start" x="1659.5" y="-208.5" font-family="Helvetica,sans-Serif" font-size="10.00">NekoEngine/ECS/Components</text>
<text text-anchor="middle" x="1726" y="-197.5" font-family="Helvetica,sans-Serif" font-size="10.00">/But.hpp</text>
</a>
</g>
</g>
<!-- Node9&#45;&gt;Node26 -->
<g id="edge29" class="edge">
<title>Node9&#45;&gt;Node26</title>
<path fill="none" stroke="midnightblue" d="M1464.06,-257.48C1516.87,-247.2 1588.64,-233.23 1643.7,-222.52"/>
<polygon fill="midnightblue" stroke="midnightblue" points="1644.63,-225.9 1653.78,-220.55 1643.3,-219.03 1644.63,-225.9"/>
</g>
<!-- Node27 -->
<g id="node27" class="node">
<title>Node27</title>
<g id="a_node27"><a xlink:href="_textinfo_8hpp.html" target="_top" xlink:title=" ">
<polygon fill="none" stroke="black" points="2820.5,-190.5 2820.5,-220.5 2969.5,-220.5 2969.5,-190.5 2820.5,-190.5"/>
<text text-anchor="start" x="2828.5" y="-208.5" font-family="Helvetica,sans-Serif" font-size="10.00">NekoEngine/ECS/Components</text>
<text text-anchor="middle" x="2895" y="-197.5" font-family="Helvetica,sans-Serif" font-size="10.00">/Textinfo.hpp</text>
</a>
</g>
</g>
<!-- Node9&#45;&gt;Node27 -->
<g id="edge30" class="edge">
<title>Node9&#45;&gt;Node27</title>
<path fill="none" stroke="midnightblue" d="M1466.64,-270.2C1717.1,-265.63 2527.23,-249.1 2810.17,-221.07"/>
<polygon fill="midnightblue" stroke="midnightblue" points="2810.82,-224.52 2820.41,-220.03 2810.11,-217.56 2810.82,-224.52"/>
</g>
<!-- Node28 -->
<g id="node28" class="node">
<title>Node28</title>
<g id="a_node28"><a xlink:href="_patterns_8hpp.html" target="_top" xlink:title="Patterns component.">
<polygon fill="none" stroke="black" points="742.5,-190.5 742.5,-220.5 891.5,-220.5 891.5,-190.5 742.5,-190.5"/>
<text text-anchor="start" x="750.5" y="-208.5" font-family="Helvetica,sans-Serif" font-size="10.00">NekoEngine/ECS/Components</text>
<text text-anchor="middle" x="817" y="-197.5" font-family="Helvetica,sans-Serif" font-size="10.00">/Patterns.hpp</text>
</a>
</g>
</g>
<!-- Node9&#45;&gt;Node28 -->
<g id="edge32" class="edge">
<title>Node9&#45;&gt;Node28</title>
<path fill="none" stroke="midnightblue" d="M1317.17,-265.14C1221.42,-256.69 1050.54,-240.52 905,-221 903.93,-220.86 902.84,-220.71 901.76,-220.56"/>
<polygon fill="midnightblue" stroke="midnightblue" points="902.24,-217.09 891.85,-219.15 901.25,-224.02 902.24,-217.09"/>
</g>
<!-- Node30 -->
<g id="node30" class="node">
<title>Node30</title>
<g id="a_node30"><a xlink:href="_alien_8hpp.html" target="_top" xlink:title="Alien component.">
<polygon fill="none" stroke="black" points="1818.5,-190.5 1818.5,-220.5 1967.5,-220.5 1967.5,-190.5 1818.5,-190.5"/>
<text text-anchor="start" x="1826.5" y="-208.5" font-family="Helvetica,sans-Serif" font-size="10.00">NekoEngine/ECS/Components</text>
<text text-anchor="middle" x="1893" y="-197.5" font-family="Helvetica,sans-Serif" font-size="10.00">/Alien.hpp</text>
</a>
</g>
</g>
<!-- Node9&#45;&gt;Node30 -->
<g id="edge36" class="edge">
<title>Node9&#45;&gt;Node30</title>
<path fill="none" stroke="midnightblue" d="M1466.53,-263.69C1548.05,-254.89 1682.8,-239.53 1808.21,-221.22"/>
<polygon fill="midnightblue" stroke="midnightblue" points="1808.99,-224.65 1818.37,-219.73 1807.97,-217.72 1808.99,-224.65"/>
</g>
<!-- Node31 -->
<g id="node31" class="node">
<title>Node31</title>
<g id="a_node31"><a xlink:href="_entity_type_8hpp.html" target="_top" xlink:title=" ">
<polygon fill="none" stroke="black" points="1985.5,-190.5 1985.5,-220.5 2134.5,-220.5 2134.5,-190.5 1985.5,-190.5"/>
<text text-anchor="start" x="1993.5" y="-208.5" font-family="Helvetica,sans-Serif" font-size="10.00">NekoEngine/ECS/Components</text>
<text text-anchor="middle" x="2060" y="-197.5" font-family="Helvetica,sans-Serif" font-size="10.00">/EntityType.hpp</text>
</a>
</g>
</g>
<!-- Node9&#45;&gt;Node31 -->
<g id="edge37" class="edge">
<title>Node9&#45;&gt;Node31</title>
<path fill="none" stroke="midnightblue" d="M1466.56,-267.14C1576,-260.29 1786.71,-245.34 1975.29,-221.16"/>
<polygon fill="midnightblue" stroke="midnightblue" points="1975.92,-224.6 1985.39,-219.85 1975.02,-217.66 1975.92,-224.6"/>
</g>
<!-- Node32 -->
<g id="node32" class="node">
<title>Node32</title>
<g id="a_node32"><a xlink:href="_gorb_background_8hpp.html" target="_top" xlink:title=" ">
<polygon fill="none" stroke="black" points="2152.5,-190.5 2152.5,-220.5 2301.5,-220.5 2301.5,-190.5 2152.5,-190.5"/>
<text text-anchor="start" x="2160.5" y="-208.5" font-family="Helvetica,sans-Serif" font-size="10.00">NekoEngine/ECS/Components</text>
<text text-anchor="middle" x="2227" y="-197.5" font-family="Helvetica,sans-Serif" font-size="10.00">/GorbBackground.hpp</text>
</a>
</g>
</g>
<!-- Node9&#45;&gt;Node32 -->
<g id="edge38" class="edge">
<title>Node9&#45;&gt;Node32</title>
<path fill="none" stroke="midnightblue" d="M1466.69,-269.11C1600.32,-264.25 1889.26,-251.13 2142.28,-221.13"/>
<polygon fill="midnightblue" stroke="midnightblue" points="2142.89,-224.58 2152.4,-219.92 2142.05,-217.63 2142.89,-224.58"/>
</g>
<!-- Node33 -->
<g id="node33" class="node">
<title>Node33</title>
<g id="a_node33"><a xlink:href="_animation_8hpp.html" target="_top" xlink:title=" ">
<polygon fill="none" stroke="black" points="2319.5,-190.5 2319.5,-220.5 2468.5,-220.5 2468.5,-190.5 2319.5,-190.5"/>
<text text-anchor="start" x="2327.5" y="-208.5" font-family="Helvetica,sans-Serif" font-size="10.00">NekoEngine/ECS/Components</text>
<text text-anchor="middle" x="2394" y="-197.5" font-family="Helvetica,sans-Serif" font-size="10.00">/Animation.hpp</text>
</a>
</g>
</g>
<!-- Node9&#45;&gt;Node33 -->
<g id="edge39" class="edge">
<title>Node9&#45;&gt;Node33</title>
<path fill="none" stroke="midnightblue" d="M1466.7,-270.38C1621.9,-267.4 1990.62,-256.97 2309.05,-221.14"/>
<polygon fill="midnightblue" stroke="midnightblue" points="2309.86,-224.57 2319.4,-219.96 2309.07,-217.61 2309.86,-224.57"/>
</g>
<!-- Node34 -->
<g id="node34" class="node">
<title>Node34</title>
<g id="a_node34"><a xlink:href="_player_shoot_8hpp.html" target="_top" xlink:title=" ">
<polygon fill="none" stroke="black" points="2486.5,-190.5 2486.5,-220.5 2635.5,-220.5 2635.5,-190.5 2486.5,-190.5"/>
<text text-anchor="start" x="2494.5" y="-208.5" font-family="Helvetica,sans-Serif" font-size="10.00">NekoEngine/ECS/Components</text>
<text text-anchor="middle" x="2561" y="-197.5" font-family="Helvetica,sans-Serif" font-size="10.00">/PlayerShoot.hpp</text>
</a>
</g>
</g>
<!-- Node9&#45;&gt;Node34 -->
<g id="edge40" class="edge">
<title>Node9&#45;&gt;Node34</title>
<path fill="none" stroke="midnightblue" d="M1466.65,-271.27C1641.54,-270.05 2091.49,-262.82 2476.19,-221.11"/>
<polygon fill="midnightblue" stroke="midnightblue" points="2476.85,-224.56 2486.41,-219.99 2476.09,-217.6 2476.85,-224.56"/>
</g>
<!-- Node11 -->
<g id="node11" class="node">
<title>Node11</title>
<g id="a_node11"><a xlink:href="_vector_8hpp.html" target="_top" xlink:title="Contains all headers for all Vector types.">
<polygon fill="none" stroke="black" points="803.5,-56.5 803.5,-86.5 928.5,-86.5 928.5,-56.5 803.5,-56.5"/>
<text text-anchor="start" x="811.5" y="-74.5" font-family="Helvetica,sans-Serif" font-size="10.00">NekoEngine/Math/Vector</text>
<text text-anchor="middle" x="866" y="-63.5" font-family="Helvetica,sans-Serif" font-size="10.00">/Vector.hpp</text>
</a>
</g>
</g>
<!-- Node10&#45;&gt;Node11 -->
<g id="edge10" class="edge">
<title>Node10&#45;&gt;Node11</title>
<path fill="none" stroke="midnightblue" d="M715.66,-123.4C744.72,-113.56 783.69,-100.37 814.67,-89.88"/>
<polygon fill="midnightblue" stroke="midnightblue" points="816.07,-93.1 824.42,-86.58 813.83,-86.47 816.07,-93.1"/>
</g>
<!-- Node12 -->
<g id="node12" class="node">
<title>Node12</title>
<g id="a_node12"><a xlink:href="_vector2_8hpp.html" target="_top" xlink:title="Contains Vector2 template class.">
<polygon fill="none" stroke="black" points="746,-0.5 746,-19.5 814,-19.5 814,-0.5 746,-0.5"/>
<text text-anchor="middle" x="780" y="-7.5" font-family="Helvetica,sans-Serif" font-size="10.00">Vector2.hpp</text>
</a>
</g>
</g>
<!-- Node11&#45;&gt;Node12 -->
<g id="edge11" class="edge">
<title>Node11&#45;&gt;Node12</title>
<path fill="none" stroke="midnightblue" d="M845.62,-56.4C832.09,-47.04 814.39,-34.79 800.78,-25.38"/>
<polygon fill="midnightblue" stroke="midnightblue" points="802.73,-22.47 792.51,-19.66 798.75,-28.23 802.73,-22.47"/>
</g>
<!-- Node13 -->
<g id="node13" class="node">
<title>Node13</title>
<g id="a_node13"><a xlink:href="_vector3_8hpp.html" target="_top" xlink:title="Contains Vector3 template class.">
<polygon fill="none" stroke="black" points="832,-0.5 832,-19.5 900,-19.5 900,-0.5 832,-0.5"/>
<text text-anchor="middle" x="866" y="-7.5" font-family="Helvetica,sans-Serif" font-size="10.00">Vector3.hpp</text>
</a>
</g>
</g>
<!-- Node11&#45;&gt;Node13 -->
<g id="edge12" class="edge">
<title>Node11&#45;&gt;Node13</title>
<path fill="none" stroke="midnightblue" d="M866,-56.4C866,-48.47 866,-38.46 866,-29.86"/>
<polygon fill="midnightblue" stroke="midnightblue" points="869.5,-29.66 866,-19.66 862.5,-29.66 869.5,-29.66"/>
</g>
<!-- Node14 -->
<g id="node14" class="node">
<title>Node14</title>
<g id="a_node14"><a xlink:href="_vector4_8hpp.html" target="_top" xlink:title="Contains Vector4 template class.">
<polygon fill="none" stroke="black" points="918,-0.5 918,-19.5 986,-19.5 986,-0.5 918,-0.5"/>
<text text-anchor="middle" x="952" y="-7.5" font-family="Helvetica,sans-Serif" font-size="10.00">Vector4.hpp</text>
</a>
</g>
</g>
<!-- Node11&#45;&gt;Node14 -->
<g id="edge13" class="edge">
<title>Node11&#45;&gt;Node14</title>
<path fill="none" stroke="midnightblue" d="M886.38,-56.4C899.91,-47.04 917.61,-34.79 931.22,-25.38"/>
<polygon fill="midnightblue" stroke="midnightblue" points="933.25,-28.23 939.49,-19.66 929.27,-22.47 933.25,-28.23"/>
</g>
<!-- Node16 -->
<g id="node16" class="node">
<title>Node16</title>
<g id="a_node16"><a xlink:title=" ">
<polygon fill="none" stroke="#bfbfbf" points="1215,-129 1215,-148 1261,-148 1261,-129 1215,-129"/>
<text text-anchor="middle" x="1238" y="-136" font-family="Helvetica,sans-Serif" font-size="10.00">chrono</text>
</a>
</g>
</g>
<!-- Node15&#45;&gt;Node16 -->
<g id="edge15" class="edge">
<title>Node15&#45;&gt;Node16</title>
<path fill="none" stroke="midnightblue" d="M1227.82,-190.4C1229.71,-180.96 1232.21,-168.45 1234.26,-158.19"/>
<polygon fill="midnightblue" stroke="midnightblue" points="1237.73,-158.69 1236.26,-148.19 1230.87,-157.31 1237.73,-158.69"/>
</g>
<!-- Node18&#45;&gt;Node7 -->
<g id="edge18" class="edge">
<title>Node18&#45;&gt;Node7</title>
<path fill="none" stroke="midnightblue" d="M576.76,-190.4C547.07,-178.84 505.49,-162.66 477.25,-151.66"/>
<polygon fill="midnightblue" stroke="midnightblue" points="478.44,-148.37 467.86,-148.01 475.91,-154.9 478.44,-148.37"/>
</g>
<!-- Node19&#45;&gt;Node11 -->
<g id="edge20" class="edge">
<title>Node19&#45;&gt;Node11</title>
<path fill="none" stroke="midnightblue" d="M936.47,-123.4C923.97,-114.37 907.56,-102.51 893.72,-92.52"/>
<polygon fill="midnightblue" stroke="midnightblue" points="895.65,-89.59 885.49,-86.58 891.55,-95.27 895.65,-89.59"/>
</g>
<!-- Node20&#45;&gt;Node11 -->
<g id="edge22" class="edge">
<title>Node20&#45;&gt;Node11</title>
<path fill="none" stroke="midnightblue" d="M1067.55,-123.48C1027.66,-113.39 973.71,-99.74 931.66,-89.11"/>
<polygon fill="midnightblue" stroke="midnightblue" points="932.35,-85.67 921.79,-86.61 930.63,-92.46 932.35,-85.67"/>
</g>
<!-- Node22 -->
<g id="node22" class="node">
<title>Node22</title>
<g id="a_node22"><a xlink:title=" ">
<polygon fill="none" stroke="#bfbfbf" points="2759,-129 2759,-148 2863,-148 2863,-129 2759,-129"/>
<text text-anchor="middle" x="2811" y="-136" font-family="Helvetica,sans-Serif" font-size="10.00">SFML/Graphics.hpp</text>
</a>
</g>
</g>
<!-- Node21&#45;&gt;Node22 -->
<g id="edge24" class="edge">
<title>Node21&#45;&gt;Node22</title>
<path fill="none" stroke="midnightblue" d="M2746.01,-190.4C2759.59,-179.76 2778.18,-165.2 2792,-154.38"/>
<polygon fill="midnightblue" stroke="midnightblue" points="2794.18,-157.12 2799.9,-148.19 2789.87,-151.6 2794.18,-157.12"/>
</g>
<!-- Node24&#45;&gt;Node7 -->
<g id="edge27" class="edge">
<title>Node24&#45;&gt;Node7</title>
<path fill="none" stroke="midnightblue" d="M446,-190.4C446,-181.06 446,-168.71 446,-158.52"/>
<polygon fill="midnightblue" stroke="midnightblue" points="449.5,-158.19 446,-148.19 442.5,-158.19 449.5,-158.19"/>
</g>
<!-- Node27&#45;&gt;Node22 -->
<g id="edge31" class="edge">
<title>Node27&#45;&gt;Node22</title>
<path fill="none" stroke="midnightblue" d="M2876.77,-190.4C2863.03,-179.76 2844.22,-165.2 2830.23,-154.38"/>
<polygon fill="midnightblue" stroke="midnightblue" points="2832.29,-151.55 2822.24,-148.19 2828,-157.08 2832.29,-151.55"/>
</g>
<!-- Node28&#45;&gt;Node10 -->
<g id="edge34" class="edge">
<title>Node28&#45;&gt;Node10</title>
<path fill="none" stroke="midnightblue" d="M785.97,-190.4C764.98,-180.86 737.06,-168.16 714.35,-157.84"/>
<polygon fill="midnightblue" stroke="midnightblue" points="715.52,-154.53 704.97,-153.58 712.62,-160.9 715.52,-154.53"/>
</g>
<!-- Node28&#45;&gt;Node11 -->
<g id="edge33" class="edge">
<title>Node28&#45;&gt;Node11</title>
<path fill="none" stroke="midnightblue" d="M807.48,-190.28C797.51,-173.46 784.75,-144.98 796,-123 802.59,-110.12 814.17,-99.77 826.03,-91.88"/>
<polygon fill="midnightblue" stroke="midnightblue" points="827.98,-94.79 834.66,-86.56 824.31,-88.83 827.98,-94.79"/>
</g>
<!-- Node29 -->
<g id="node29" class="node">
<title>Node29</title>
<g id="a_node29"><a xlink:title=" ">
<polygon fill="none" stroke="#bfbfbf" points="804.5,-129 804.5,-148 863.5,-148 863.5,-129 804.5,-129"/>
<text text-anchor="middle" x="834" y="-136" font-family="Helvetica,sans-Serif" font-size="10.00">functional</text>
</a>
</g>
</g>
<!-- Node28&#45;&gt;Node29 -->
<g id="edge35" class="edge">
<title>Node28&#45;&gt;Node29</title>
<path fill="none" stroke="midnightblue" d="M820.69,-190.4C823.16,-180.96 826.43,-168.45 829.11,-158.19"/>
<polygon fill="midnightblue" stroke="midnightblue" points="832.58,-158.75 831.73,-148.19 825.81,-156.98 832.58,-158.75"/>
</g>
<!-- Node36 -->
<g id="node36" class="node">
<title>Node36</title>
<g id="a_node36"><a xlink:href="_component_manager_8hpp.html" target="_top" xlink:title="Component Manmager class.">
<polygon fill="none" stroke="black" points="615,-391.5 615,-421.5 759,-421.5 759,-391.5 615,-391.5"/>
<text text-anchor="start" x="623" y="-409.5" font-family="Helvetica,sans-Serif" font-size="10.00">NekoEngine/ECS/Component</text>
<text text-anchor="middle" x="687" y="-398.5" font-family="Helvetica,sans-Serif" font-size="10.00">Manager.hpp</text>
</a>
</g>
</g>
<!-- Node35&#45;&gt;Node36 -->
<g id="edge42" class="edge">
<title>Node35&#45;&gt;Node36</title>
<path fill="none" stroke="midnightblue" d="M531.08,-458.48C557.91,-449.7 600.47,-435.79 634.35,-424.71"/>
<polygon fill="midnightblue" stroke="midnightblue" points="635.69,-427.96 644.11,-421.52 633.51,-421.3 635.69,-427.96"/>
</g>
<!-- Node43 -->
<g id="node43" class="node">
<title>Node43</title>
<g id="a_node43"><a xlink:href="_entity_manager_8hpp.html" target="_top" xlink:title="Entities are fun.">
<polygon fill="none" stroke="black" points="0,-330 0,-349 174,-349 174,-330 0,-330"/>
<text text-anchor="middle" x="87" y="-337" font-family="Helvetica,sans-Serif" font-size="10.00">NekoEngine/ECS/EntityManager.hpp</text>
</a>
</g>
</g>
<!-- Node35&#45;&gt;Node43 -->
<g id="edge55" class="edge">
<title>Node35&#45;&gt;Node43</title>
<path fill="none" stroke="midnightblue" d="M481.25,-458.48C460.2,-450.46 429.01,-437.39 404,-422 385.44,-410.58 385.8,-400.12 366,-391 346.88,-382.19 228.73,-362.61 152.44,-350.58"/>
<polygon fill="midnightblue" stroke="midnightblue" points="152.85,-347.1 142.43,-349.01 151.76,-354.02 152.85,-347.1"/>
</g>
<!-- Node45 -->
<g id="node45" class="node">
<title>Node45</title>
<g id="a_node45"><a xlink:href="_system_manager_8hpp.html" target="_top" xlink:title=" ">
<polygon fill="none" stroke="black" points="413.5,-397 413.5,-416 596.5,-416 596.5,-397 413.5,-397"/>
<text text-anchor="middle" x="505" y="-404" font-family="Helvetica,sans-Serif" font-size="10.00">NekoEngine/ECS/SystemManager.hpp</text>
</a>
</g>
</g>
<!-- Node35&#45;&gt;Node45 -->
<g id="edge60" class="edge">
<title>Node35&#45;&gt;Node45</title>
<path fill="none" stroke="midnightblue" d="M500.1,-458.48C498.27,-450.08 497.8,-436.98 498.69,-426.16"/>
<polygon fill="midnightblue" stroke="midnightblue" points="502.19,-426.4 500.1,-416.01 495.25,-425.43 502.19,-426.4"/>
</g>
<!-- Node47 -->
<g id="node47" class="node">
<title>Node47</title>
<g id="a_node47"><a xlink:title=" ">
<polygon fill="none" stroke="#bfbfbf" points="275,-397 275,-416 357,-416 357,-397 275,-397"/>
<text text-anchor="middle" x="316" y="-404" font-family="Helvetica,sans-Serif" font-size="10.00">Coordinator.tpp</text>
</a>
</g>
</g>
<!-- Node35&#45;&gt;Node47 -->
<g id="edge66" class="edge">
<title>Node35&#45;&gt;Node47</title>
<path fill="none" stroke="midnightblue" d="M477.92,-458.48C445.08,-448.14 389.57,-430.66 352.85,-419.1"/>
<polygon fill="midnightblue" stroke="midnightblue" points="353.62,-415.67 343.03,-416.01 351.52,-422.35 353.62,-415.67"/>
</g>
<!-- Node36&#45;&gt;Node5 -->
<g id="edge45" class="edge">
<title>Node36&#45;&gt;Node5</title>
<path fill="none" stroke="midnightblue" d="M636.46,-391.46C607.53,-382.62 570.95,-370.03 540,-355 517.16,-343.9 514.36,-336.03 492,-324 476.71,-315.77 435.95,-298.24 407.32,-286.17"/>
<polygon fill="midnightblue" stroke="midnightblue" points="408.34,-282.8 397.76,-282.15 405.62,-289.25 408.34,-282.8"/>
</g>
<!-- Node36&#45;&gt;Node6 -->
<g id="edge46" class="edge">
<title>Node36&#45;&gt;Node6</title>
<path fill="none" stroke="midnightblue" d="M759.03,-402.24C830.86,-397.3 934.01,-385.05 959,-355 967.81,-344.41 966.48,-335.57 959,-324 864.58,-178.02 480.27,-236.7 362,-221 353.46,-219.87 344.44,-218.42 335.68,-216.89"/>
<polygon fill="midnightblue" stroke="midnightblue" points="336.03,-213.39 325.57,-215.05 334.78,-220.28 336.03,-213.39"/>
</g>
<!-- Node37 -->
<g id="node37" class="node">
<title>Node37</title>
<g id="a_node37"><a xlink:title=" ">
<polygon fill="none" stroke="#bfbfbf" points="421,-263 421,-282 459,-282 459,-263 421,-263"/>
<text text-anchor="middle" x="440" y="-270" font-family="Helvetica,sans-Serif" font-size="10.00">array</text>
</a>
</g>
</g>
<!-- Node36&#45;&gt;Node37 -->
<g id="edge43" class="edge">
<title>Node36&#45;&gt;Node37</title>
<path fill="none" stroke="midnightblue" d="M654.39,-391.42C633.5,-381.98 606.09,-368.79 583,-355 562.77,-342.92 560.16,-336.2 540,-324 509.39,-305.48 499.89,-304.23 468,-288 467.19,-287.59 466.37,-287.17 465.53,-286.74"/>
<polygon fill="midnightblue" stroke="midnightblue" points="467.06,-283.59 456.56,-282.13 463.85,-289.81 467.06,-283.59"/>
</g>
<!-- Node38 -->
<g id="node38" class="node">
<title>Node38</title>
<g id="a_node38"><a xlink:title=" ">
<polygon fill="none" stroke="#bfbfbf" points="765.5,-263 765.5,-282 800.5,-282 800.5,-263 765.5,-263"/>
<text text-anchor="middle" x="783" y="-270" font-family="Helvetica,sans-Serif" font-size="10.00">map</text>
</a>
</g>
</g>
<!-- Node36&#45;&gt;Node38 -->
<g id="edge44" class="edge">
<title>Node36&#45;&gt;Node38</title>
<path fill="none" stroke="midnightblue" d="M731.69,-391.36C749.1,-383.5 767.4,-371.81 778,-355 789.91,-336.12 789.06,-309.64 786.64,-292.05"/>
<polygon fill="midnightblue" stroke="midnightblue" points="790.09,-291.45 784.99,-282.17 783.19,-292.61 790.09,-291.45"/>
</g>
<!-- Node39 -->
<g id="node39" class="node">
<title>Node39</title>
<g id="a_node39"><a xlink:href="_component_array_8hpp.html" target="_top" xlink:title="Component Array template class.">
<polygon fill="none" stroke="black" points="592,-324.5 592,-354.5 736,-354.5 736,-324.5 592,-324.5"/>
<text text-anchor="start" x="600" y="-342.5" font-family="Helvetica,sans-Serif" font-size="10.00">NekoEngine/ECS/Component</text>
<text text-anchor="middle" x="664" y="-331.5" font-family="Helvetica,sans-Serif" font-size="10.00">Array.hpp</text>
</a>
</g>
</g>
<!-- Node36&#45;&gt;Node39 -->
<g id="edge47" class="edge">
<title>Node36&#45;&gt;Node39</title>
<path fill="none" stroke="midnightblue" d="M682.01,-391.4C679.21,-383.47 675.63,-373.38 672.41,-364.27"/>
<polygon fill="midnightblue" stroke="midnightblue" points="675.62,-362.84 668.98,-354.58 669.02,-365.17 675.62,-362.84"/>
</g>
<!-- Node42 -->
<g id="node42" class="node">
<title>Node42</title>
<g id="a_node42"><a xlink:title=" ">
<polygon fill="none" stroke="#bfbfbf" points="830.5,-330 830.5,-349 949.5,-349 949.5,-330 830.5,-330"/>
<text text-anchor="middle" x="890" y="-337" font-family="Helvetica,sans-Serif" font-size="10.00">ComponentManager.tpp</text>
</a>
</g>
</g>
<!-- Node36&#45;&gt;Node42 -->
<g id="edge54" class="edge">
<title>Node36&#45;&gt;Node42</title>
<path fill="none" stroke="midnightblue" d="M731.05,-391.4C767.77,-379.64 819.45,-363.09 853.8,-352.09"/>
<polygon fill="midnightblue" stroke="midnightblue" points="854.98,-355.39 863.43,-349.01 852.84,-348.72 854.98,-355.39"/>
</g>
<!-- Node39&#45;&gt;Node5 -->
<g id="edge50" class="edge">
<title>Node39&#45;&gt;Node5</title>
<path fill="none" stroke="midnightblue" d="M591.93,-327.9C541.03,-319.48 471.55,-306.11 412,-288 409.72,-287.31 407.38,-286.52 405.04,-285.67"/>
<polygon fill="midnightblue" stroke="midnightblue" points="406.23,-282.38 395.64,-282.01 403.69,-288.9 406.23,-282.38"/>
</g>
<!-- Node39&#45;&gt;Node37 -->
<g id="edge48" class="edge">
<title>Node39&#45;&gt;Node37</title>
<path fill="none" stroke="midnightblue" d="M593.87,-324.47C555.96,-315.89 508.7,-303.55 468,-288 466.79,-287.54 465.57,-287.04 464.34,-286.51"/>
<polygon fill="midnightblue" stroke="midnightblue" points="465.65,-283.26 455.12,-282.12 462.64,-289.58 465.65,-283.26"/>
</g>
<!-- Node39&#45;&gt;Node38 -->
<g id="edge49" class="edge">
<title>Node39&#45;&gt;Node38</title>
<path fill="none" stroke="midnightblue" d="M689.82,-324.4C710.24,-313.24 738.55,-297.78 758.59,-286.83"/>
<polygon fill="midnightblue" stroke="midnightblue" points="760.33,-289.87 767.43,-282.01 756.97,-283.73 760.33,-289.87"/>
</g>
<!-- Node40 -->
<g id="node40" class="node">
<title>Node40</title>
<g id="a_node40"><a xlink:href="_i_component_array_8hpp.html" target="_top" xlink:title="Interface for the Component Array template class.">
<polygon fill="none" stroke="black" points="477.5,-257.5 477.5,-287.5 624.5,-287.5 624.5,-257.5 477.5,-257.5"/>
<text text-anchor="start" x="485.5" y="-275.5" font-family="Helvetica,sans-Serif" font-size="10.00">NekoEngine/ECS/IComponent</text>
<text text-anchor="middle" x="551" y="-264.5" font-family="Helvetica,sans-Serif" font-size="10.00">Array.hpp</text>
</a>
</g>
</g>
<!-- Node39&#45;&gt;Node40 -->
<g id="edge51" class="edge">
<title>Node39&#45;&gt;Node40</title>
<path fill="none" stroke="midnightblue" d="M639.48,-324.4C623.34,-315.11 602.01,-302.84 584.33,-292.67"/>
<polygon fill="midnightblue" stroke="midnightblue" points="585.88,-289.53 575.47,-287.58 582.39,-295.6 585.88,-289.53"/>
</g>
<!-- Node41 -->
<g id="node41" class="node">
<title>Node41</title>
<g id="a_node41"><a xlink:title=" ">
<polygon fill="none" stroke="#bfbfbf" points="643,-263 643,-282 747,-282 747,-263 643,-263"/>
<text text-anchor="middle" x="695" y="-270" font-family="Helvetica,sans-Serif" font-size="10.00">ComponentArray.tpp</text>
</a>
</g>
</g>
<!-- Node39&#45;&gt;Node41 -->
<g id="edge53" class="edge">
<title>Node39&#45;&gt;Node41</title>
<path fill="none" stroke="midnightblue" d="M670.73,-324.4C675.32,-314.76 681.45,-301.91 686.4,-291.54"/>
<polygon fill="midnightblue" stroke="midnightblue" points="689.71,-292.73 690.85,-282.19 683.39,-289.71 689.71,-292.73"/>
</g>
<!-- Node40&#45;&gt;Node6 -->
<g id="edge52" class="edge">
<title>Node40&#45;&gt;Node6</title>
<path fill="none" stroke="midnightblue" d="M493.39,-257.48C444.08,-245.47 374.08,-228.43 328.85,-217.42"/>
<polygon fill="midnightblue" stroke="midnightblue" points="329.58,-213.99 319.03,-215.03 327.92,-220.79 329.58,-213.99"/>
</g>
<!-- Node43&#45;&gt;Node5 -->
<g id="edge58" class="edge">
<title>Node43&#45;&gt;Node5</title>
<path fill="none" stroke="midnightblue" d="M125.21,-329.94C181.56,-317.3 286.2,-293.85 341.16,-281.53"/>
<polygon fill="midnightblue" stroke="midnightblue" points="342.15,-284.9 351.14,-279.3 340.62,-278.07 342.15,-284.9"/>
</g>
<!-- Node43&#45;&gt;Node6 -->
<g id="edge59" class="edge">
<title>Node43&#45;&gt;Node6</title>
<path fill="none" stroke="midnightblue" d="M99.93,-329.84C133.19,-307.55 222,-248.04 262.88,-220.65"/>
<polygon fill="midnightblue" stroke="midnightblue" points="264.92,-223.5 271.28,-215.02 261.03,-217.68 264.92,-223.5"/>
</g>
<!-- Node43&#45;&gt;Node37 -->
<g id="edge57" class="edge">
<title>Node43&#45;&gt;Node37</title>
<path fill="none" stroke="midnightblue" d="M143.18,-329.97C234.25,-316.11 404.65,-290.03 411,-288 412.62,-287.48 414.27,-286.88 415.9,-286.23"/>
<polygon fill="midnightblue" stroke="midnightblue" points="417.36,-289.41 425.02,-282.09 414.47,-283.04 417.36,-289.41"/>
</g>
<!-- Node44 -->
<g id="node44" class="node">
<title>Node44</title>
<g id="a_node44"><a xlink:title=" ">
<polygon fill="none" stroke="#bfbfbf" points="65.5,-263 65.5,-282 108.5,-282 108.5,-263 65.5,-263"/>
<text text-anchor="middle" x="87" y="-270" font-family="Helvetica,sans-Serif" font-size="10.00">queue</text>
</a>
</g>
</g>
<!-- Node43&#45;&gt;Node44 -->
<g id="edge56" class="edge">
<title>Node43&#45;&gt;Node44</title>
<path fill="none" stroke="midnightblue" d="M87,-329.73C87,-320.18 87,-304.62 87,-292.28"/>
<polygon fill="midnightblue" stroke="midnightblue" points="90.5,-292.13 87,-282.13 83.5,-292.13 90.5,-292.13"/>
</g>
<!-- Node45&#45;&gt;Node3 -->
<g id="edge63" class="edge">
<title>Node45&#45;&gt;Node3</title>
<path fill="none" stroke="midnightblue" d="M473.13,-396.87C430.25,-385.25 353.89,-364.58 306.55,-351.75"/>
<polygon fill="midnightblue" stroke="midnightblue" points="307.19,-348.3 296.62,-349.06 305.36,-355.06 307.19,-348.3"/>
</g>
<!-- Node45&#45;&gt;Node5 -->
<g id="edge61" class="edge">
<title>Node45&#45;&gt;Node5</title>
<path fill="none" stroke="midnightblue" d="M503.01,-396.88C498.93,-380.81 488.23,-345.93 468,-324 458.63,-313.85 427.98,-297.8 404.82,-286.53"/>
<polygon fill="midnightblue" stroke="midnightblue" points="406.28,-283.35 395.75,-282.17 403.24,-289.65 406.28,-283.35"/>
</g>
<!-- Node45&#45;&gt;Node35 -->
<g id="edge64" class="edge">
<title>Node45&#45;&gt;Node35</title>
<path fill="none" stroke="midnightblue" d="M509.9,-416.01C511.73,-424.4 512.2,-437.5 511.32,-448.32"/>
<polygon fill="midnightblue" stroke="midnightblue" points="507.81,-448.09 509.9,-458.48 514.75,-449.05 507.81,-448.09"/>
</g>
<!-- Node45&#45;&gt;Node38 -->
<g id="edge62" class="edge">
<title>Node45&#45;&gt;Node38</title>
<path fill="none" stroke="midnightblue" d="M557.78,-396.96C623.92,-385.87 730.43,-366.57 745,-355 764.74,-339.33 774.69,-311.02 779.35,-292.24"/>
<polygon fill="midnightblue" stroke="midnightblue" points="782.83,-292.73 781.57,-282.21 775.99,-291.22 782.83,-292.73"/>
</g>
<!-- Node46 -->
<g id="node46" class="node">
<title>Node46</title>
<g id="a_node46"><a xlink:title=" ">
<polygon fill="none" stroke="#bfbfbf" points="356.5,-330 356.5,-349 459.5,-349 459.5,-330 356.5,-330"/>
<text text-anchor="middle" x="408" y="-337" font-family="Helvetica,sans-Serif" font-size="10.00">SystemManager.tpp</text>
</a>
</g>
</g>
<!-- Node45&#45;&gt;Node46 -->
<g id="edge65" class="edge">
<title>Node45&#45;&gt;Node46</title>
<path fill="none" stroke="midnightblue" d="M491.92,-396.73C475.85,-385.96 448.37,-367.55 429.25,-354.74"/>
<polygon fill="midnightblue" stroke="midnightblue" points="431.13,-351.79 420.87,-349.13 427.23,-357.6 431.13,-351.79"/>
</g>
</g>
</svg>
