<?xml version="1.0" encoding="UTF-8" standalone="no"?>
<!DOCTYPE svg PUBLIC "-//W3C//DTD SVG 1.1//EN"
 "http://www.w3.org/Graphics/SVG/1.1/DTD/svg11.dtd">
<!-- Generated by graphviz version 2.49.3 (20211027.1501)
 -->
<!-- Title: NekoEngine/include/NekoEngine/ECS/Components/Components.hpp Pages: 1 -->
<svg width="2606pt" height="307pt"
 viewBox="0.00 0.00 2606.00 307.00" xmlns="http://www.w3.org/2000/svg" xmlns:xlink="http://www.w3.org/1999/xlink">
<g id="graph0" class="graph" transform="scale(1 1) rotate(0) translate(4 303)">
<title>NekoEngine/include/NekoEngine/ECS/Components/Components.hpp</title>
<!-- Node1 -->
<g id="node1" class="node">
<title>Node1</title>
<g id="a_node1"><a xlink:title="Components.">
<polygon fill="#bfbfbf" stroke="black" points="1157.5,-257.5 1157.5,-298.5 1309.5,-298.5 1309.5,-257.5 1157.5,-257.5"/>
<text text-anchor="start" x="1165.5" y="-286.5" font-family="Helvetica,sans-Serif" font-size="10.00">NekoEngine/include</text>
<text text-anchor="start" x="1165.5" y="-275.5" font-family="Helvetica,sans-Serif" font-size="10.00">/NekoEngine/ECS/Components</text>
<text text-anchor="middle" x="1233.5" y="-264.5" font-family="Helvetica,sans-Serif" font-size="10.00">/Components.hpp</text>
</a>
</g>
</g>
<!-- Node2 -->
<g id="node2" class="node">
<title>Node2</title>
<g id="a_node2"><a xlink:href="_transform_8hpp.html" target="_top" xlink:title="Transform component.">
<polygon fill="none" stroke="black" points="1483,-123.5 1483,-153.5 1632,-153.5 1632,-123.5 1483,-123.5"/>
<text text-anchor="start" x="1491" y="-141.5" font-family="Helvetica,sans-Serif" font-size="10.00">NekoEngine/ECS/Components</text>
<text text-anchor="middle" x="1557.5" y="-130.5" font-family="Helvetica,sans-Serif" font-size="10.00">/Transform.hpp</text>
</a>
</g>
</g>
<!-- Node1&#45;&gt;Node2 -->
<g id="edge1" class="edge">
<title>Node1&#45;&gt;Node2</title>
<path fill="none" stroke="midnightblue" d="M1309.77,-275.27C1398.2,-271.47 1536.02,-259.36 1568.5,-221 1581.97,-205.09 1576.5,-180.83 1569.31,-162.91"/>
<polygon fill="midnightblue" stroke="midnightblue" points="1572.49,-161.44 1565.25,-153.7 1566.08,-164.26 1572.49,-161.44"/>
</g>
<!-- Node7 -->
<g id="node7" class="node">
<title>Node7</title>
<g id="a_node7"><a xlink:href="_timer_8hpp.html" target="_top" xlink:title="Timer component.">
<polygon fill="none" stroke="black" points="0,-190.5 0,-220.5 149,-220.5 149,-190.5 0,-190.5"/>
<text text-anchor="start" x="8" y="-208.5" font-family="Helvetica,sans-Serif" font-size="10.00">NekoEngine/ECS/Components</text>
<text text-anchor="middle" x="74.5" y="-197.5" font-family="Helvetica,sans-Serif" font-size="10.00">/Timer.hpp</text>
</a>
</g>
</g>
<!-- Node1&#45;&gt;Node7 -->
<g id="edge6" class="edge">
<title>Node1&#45;&gt;Node7</title>
<path fill="none" stroke="midnightblue" d="M1157.3,-275.92C981.5,-272.79 534.11,-261.21 162.5,-221 161.42,-220.88 160.34,-220.76 159.25,-220.64"/>
<polygon fill="midnightblue" stroke="midnightblue" points="159.67,-217.16 149.32,-219.41 158.81,-224.11 159.67,-217.16"/>
</g>
<!-- Node9 -->
<g id="node9" class="node">
<title>Node9</title>
<g id="a_node9"><a xlink:href="_renderable_8hpp.html" target="_top" xlink:title="Renderable component.">
<polygon fill="none" stroke="black" points="204,-190.5 204,-220.5 353,-220.5 353,-190.5 204,-190.5"/>
<text text-anchor="start" x="212" y="-208.5" font-family="Helvetica,sans-Serif" font-size="10.00">NekoEngine/ECS/Components</text>
<text text-anchor="middle" x="278.5" y="-197.5" font-family="Helvetica,sans-Serif" font-size="10.00">/Renderable.hpp</text>
</a>
</g>
</g>
<!-- Node1&#45;&gt;Node9 -->
<g id="edge8" class="edge">
<title>Node1&#45;&gt;Node9</title>
<path fill="none" stroke="midnightblue" d="M1157.31,-274.61C1006.12,-269.31 657.6,-254.3 366.5,-221 365.42,-220.88 364.34,-220.75 363.25,-220.62"/>
<polygon fill="midnightblue" stroke="midnightblue" points="363.69,-217.15 353.32,-219.34 362.8,-224.09 363.69,-217.15"/>
</g>
<!-- Node10 -->
<g id="node10" class="node">
<title>Node10</title>
<g id="a_node10"><a xlink:href="_color_8hpp.html" target="_top" xlink:title="Color component.">
<polygon fill="none" stroke="black" points="408,-190.5 408,-220.5 557,-220.5 557,-190.5 408,-190.5"/>
<text text-anchor="start" x="416" y="-208.5" font-family="Helvetica,sans-Serif" font-size="10.00">NekoEngine/ECS/Components</text>
<text text-anchor="middle" x="482.5" y="-197.5" font-family="Helvetica,sans-Serif" font-size="10.00">/Color.hpp</text>
</a>
</g>
</g>
<!-- Node1&#45;&gt;Node10 -->
<g id="edge9" class="edge">
<title>Node1&#45;&gt;Node10</title>
<path fill="none" stroke="midnightblue" d="M1157.38,-272.84C1035.02,-265.66 786.83,-249.08 567.21,-221.15"/>
<polygon fill="midnightblue" stroke="midnightblue" points="567.47,-217.66 557.11,-219.86 566.58,-224.6 567.47,-217.66"/>
</g>
<!-- Node12 -->
<g id="node12" class="node">
<title>Node12</title>
<g id="a_node12"><a xlink:href="_rigid_body_8hpp.html" target="_top" xlink:title="RigidBody component.">
<polygon fill="none" stroke="black" points="165,-123.5 165,-153.5 314,-153.5 314,-123.5 165,-123.5"/>
<text text-anchor="start" x="173" y="-141.5" font-family="Helvetica,sans-Serif" font-size="10.00">NekoEngine/ECS/Components</text>
<text text-anchor="middle" x="239.5" y="-130.5" font-family="Helvetica,sans-Serif" font-size="10.00">/RigidBody.hpp</text>
</a>
</g>
</g>
<!-- Node1&#45;&gt;Node12 -->
<g id="edge11" class="edge">
<title>Node1&#45;&gt;Node12</title>
<path fill="none" stroke="midnightblue" d="M1157.38,-275.73C923.25,-271.46 227.54,-255.87 194.5,-221 177.77,-203.34 196.26,-178.28 214.35,-160.62"/>
<polygon fill="midnightblue" stroke="midnightblue" points="217.02,-162.92 221.97,-153.55 212.26,-157.78 217.02,-162.92"/>
</g>
<!-- Node13 -->
<g id="node13" class="node">
<title>Node13</title>
<g id="a_node13"><a xlink:href="_gravity_8hpp.html" target="_top" xlink:title="Gravity component.">
<polygon fill="none" stroke="black" points="344,-123.5 344,-153.5 493,-153.5 493,-123.5 344,-123.5"/>
<text text-anchor="start" x="352" y="-141.5" font-family="Helvetica,sans-Serif" font-size="10.00">NekoEngine/ECS/Components</text>
<text text-anchor="middle" x="418.5" y="-130.5" font-family="Helvetica,sans-Serif" font-size="10.00">/Gravity.hpp</text>
</a>
</g>
</g>
<!-- Node1&#45;&gt;Node13 -->
<g id="edge13" class="edge">
<title>Node1&#45;&gt;Node13</title>
<path fill="none" stroke="midnightblue" d="M1157.31,-277.67C961,-278.62 449.7,-275.75 398.5,-221 383.76,-205.23 392.78,-180.41 403,-162.31"/>
<polygon fill="midnightblue" stroke="midnightblue" points="406.13,-163.89 408.33,-153.53 400.14,-160.26 406.13,-163.89"/>
</g>
<!-- Node14 -->
<g id="node14" class="node">
<title>Node14</title>
<g id="a_node14"><a xlink:href="_skin_8hpp.html" target="_top" xlink:title="Skin component.">
<polygon fill="none" stroke="black" points="742,-190.5 742,-220.5 891,-220.5 891,-190.5 742,-190.5"/>
<text text-anchor="start" x="750" y="-208.5" font-family="Helvetica,sans-Serif" font-size="10.00">NekoEngine/ECS/Components</text>
<text text-anchor="middle" x="816.5" y="-197.5" font-family="Helvetica,sans-Serif" font-size="10.00">/Skin.hpp</text>
</a>
</g>
</g>
<!-- Node1&#45;&gt;Node14 -->
<g id="edge15" class="edge">
<title>Node1&#45;&gt;Node14</title>
<path fill="none" stroke="midnightblue" d="M1157.44,-264.3C1092.24,-253.4 995.52,-237.17 901.16,-221.11"/>
<polygon fill="midnightblue" stroke="midnightblue" points="901.6,-217.63 891.15,-219.4 900.42,-224.53 901.6,-217.63"/>
</g>
<!-- Node16 -->
<g id="node16" class="node">
<title>Node16</title>
<g id="a_node16"><a xlink:href="_networkable_8hpp.html" target="_top" xlink:title="Networkable component.">
<polygon fill="none" stroke="black" points="909,-190.5 909,-220.5 1058,-220.5 1058,-190.5 909,-190.5"/>
<text text-anchor="start" x="917" y="-208.5" font-family="Helvetica,sans-Serif" font-size="10.00">NekoEngine/ECS/Components</text>
<text text-anchor="middle" x="983.5" y="-197.5" font-family="Helvetica,sans-Serif" font-size="10.00">/Networkable.hpp</text>
</a>
</g>
</g>
<!-- Node1&#45;&gt;Node16 -->
<g id="edge17" class="edge">
<title>Node1&#45;&gt;Node16</title>
<path fill="none" stroke="midnightblue" d="M1164.19,-257.46C1126.28,-246.77 1079.79,-233.65 1043.45,-223.41"/>
<polygon fill="midnightblue" stroke="midnightblue" points="1044.06,-219.94 1033.49,-220.6 1042.16,-226.68 1044.06,-219.94"/>
</g>
<!-- Node17 -->
<g id="node17" class="node">
<title>Node17</title>
<g id="a_node17"><a xlink:href="_uid_8hpp.html" target="_top" xlink:title="Uid component.">
<polygon fill="none" stroke="black" points="575,-190.5 575,-220.5 724,-220.5 724,-190.5 575,-190.5"/>
<text text-anchor="start" x="583" y="-208.5" font-family="Helvetica,sans-Serif" font-size="10.00">NekoEngine/ECS/Components</text>
<text text-anchor="middle" x="649.5" y="-197.5" font-family="Helvetica,sans-Serif" font-size="10.00">/Uid.hpp</text>
</a>
</g>
</g>
<!-- Node1&#45;&gt;Node17 -->
<g id="edge18" class="edge">
<title>Node1&#45;&gt;Node17</title>
<path fill="none" stroke="midnightblue" d="M1157.35,-269.96C1061.11,-260.74 890.14,-243.25 734.36,-221.22"/>
<polygon fill="midnightblue" stroke="midnightblue" points="734.52,-217.7 724.12,-219.76 733.53,-224.63 734.52,-217.7"/>
</g>
<!-- Node18 -->
<g id="node18" class="node">
<title>Node18</title>
<g id="a_node18"><a xlink:href="_hostile_8hpp.html" target="_top" xlink:title=" ">
<polygon fill="none" stroke="black" points="1243,-190.5 1243,-220.5 1392,-220.5 1392,-190.5 1243,-190.5"/>
<text text-anchor="start" x="1251" y="-208.5" font-family="Helvetica,sans-Serif" font-size="10.00">NekoEngine/ECS/Components</text>
<text text-anchor="middle" x="1317.5" y="-197.5" font-family="Helvetica,sans-Serif" font-size="10.00">/Hostile.hpp</text>
</a>
</g>
</g>
<!-- Node1&#45;&gt;Node18 -->
<g id="edge20" class="edge">
<title>Node1&#45;&gt;Node18</title>
<path fill="none" stroke="midnightblue" d="M1256.9,-257.36C1268.07,-247.99 1281.44,-236.76 1292.78,-227.25"/>
<polygon fill="midnightblue" stroke="midnightblue" points="1295.21,-229.78 1300.62,-220.67 1290.71,-224.42 1295.21,-229.78"/>
</g>
<!-- Node19 -->
<g id="node19" class="node">
<title>Node19</title>
<g id="a_node19"><a xlink:href="_but_8hpp.html" target="_top" xlink:title=" ">
<polygon fill="none" stroke="black" points="1410,-190.5 1410,-220.5 1559,-220.5 1559,-190.5 1410,-190.5"/>
<text text-anchor="start" x="1418" y="-208.5" font-family="Helvetica,sans-Serif" font-size="10.00">NekoEngine/ECS/Components</text>
<text text-anchor="middle" x="1484.5" y="-197.5" font-family="Helvetica,sans-Serif" font-size="10.00">/But.hpp</text>
</a>
</g>
</g>
<!-- Node1&#45;&gt;Node19 -->
<g id="edge21" class="edge">
<title>Node1&#45;&gt;Node19</title>
<path fill="none" stroke="midnightblue" d="M1303.08,-257.46C1341.14,-246.77 1387.83,-233.65 1424.31,-223.41"/>
<polygon fill="midnightblue" stroke="midnightblue" points="1425.63,-226.67 1434.31,-220.6 1423.74,-219.93 1425.63,-226.67"/>
</g>
<!-- Node20 -->
<g id="node20" class="node">
<title>Node20</title>
<g id="a_node20"><a xlink:href="_textinfo_8hpp.html" target="_top" xlink:title=" ">
<polygon fill="none" stroke="black" points="1076,-190.5 1076,-220.5 1225,-220.5 1225,-190.5 1076,-190.5"/>
<text text-anchor="start" x="1084" y="-208.5" font-family="Helvetica,sans-Serif" font-size="10.00">NekoEngine/ECS/Components</text>
<text text-anchor="middle" x="1150.5" y="-197.5" font-family="Helvetica,sans-Serif" font-size="10.00">/Textinfo.hpp</text>
</a>
</g>
</g>
<!-- Node1&#45;&gt;Node20 -->
<g id="edge22" class="edge">
<title>Node1&#45;&gt;Node20</title>
<path fill="none" stroke="midnightblue" d="M1210.38,-257.36C1199.34,-247.99 1186.13,-236.76 1174.92,-227.25"/>
<polygon fill="midnightblue" stroke="midnightblue" points="1177.07,-224.48 1167.18,-220.67 1172.54,-229.81 1177.07,-224.48"/>
</g>
<!-- Node21 -->
<g id="node21" class="node">
<title>Node21</title>
<g id="a_node21"><a xlink:href="_patterns_8hpp.html" target="_top" xlink:title="Patterns component.">
<polygon fill="none" stroke="black" points="1614,-190.5 1614,-220.5 1763,-220.5 1763,-190.5 1614,-190.5"/>
<text text-anchor="start" x="1622" y="-208.5" font-family="Helvetica,sans-Serif" font-size="10.00">NekoEngine/ECS/Components</text>
<text text-anchor="middle" x="1688.5" y="-197.5" font-family="Helvetica,sans-Serif" font-size="10.00">/Patterns.hpp</text>
</a>
</g>
</g>
<!-- Node1&#45;&gt;Node21 -->
<g id="edge24" class="edge">
<title>Node1&#45;&gt;Node21</title>
<path fill="none" stroke="midnightblue" d="M1309.8,-265.63C1384.07,-254.49 1500.08,-236.93 1600.5,-221 1601.57,-220.83 1602.65,-220.66 1603.73,-220.49"/>
<polygon fill="midnightblue" stroke="midnightblue" points="1604.3,-223.94 1613.62,-218.9 1603.19,-217.03 1604.3,-223.94"/>
</g>
<!-- Node23 -->
<g id="node23" class="node">
<title>Node23</title>
<g id="a_node23"><a xlink:href="_alien_8hpp.html" target="_top" xlink:title="Alien component.">
<polygon fill="none" stroke="black" points="1781,-190.5 1781,-220.5 1930,-220.5 1930,-190.5 1781,-190.5"/>
<text text-anchor="start" x="1789" y="-208.5" font-family="Helvetica,sans-Serif" font-size="10.00">NekoEngine/ECS/Components</text>
<text text-anchor="middle" x="1855.5" y="-197.5" font-family="Helvetica,sans-Serif" font-size="10.00">/Alien.hpp</text>
</a>
</g>
</g>
<!-- Node1&#45;&gt;Node23 -->
<g id="edge28" class="edge">
<title>Node1&#45;&gt;Node23</title>
<path fill="none" stroke="midnightblue" d="M1309.57,-270.77C1412.1,-262.01 1600.49,-244.58 1770.73,-221.19"/>
<polygon fill="midnightblue" stroke="midnightblue" points="1771.46,-224.63 1780.88,-219.79 1770.5,-217.69 1771.46,-224.63"/>
</g>
<!-- Node24 -->
<g id="node24" class="node">
<title>Node24</title>
<g id="a_node24"><a xlink:href="_entity_type_8hpp.html" target="_top" xlink:title=" ">
<polygon fill="none" stroke="black" points="1948,-190.5 1948,-220.5 2097,-220.5 2097,-190.5 1948,-190.5"/>
<text text-anchor="start" x="1956" y="-208.5" font-family="Helvetica,sans-Serif" font-size="10.00">NekoEngine/ECS/Components</text>
<text text-anchor="middle" x="2022.5" y="-197.5" font-family="Helvetica,sans-Serif" font-size="10.00">/EntityType.hpp</text>
</a>
</g>
</g>
<!-- Node1&#45;&gt;Node24 -->
<g id="edge29" class="edge">
<title>Node1&#45;&gt;Node24</title>
<path fill="none" stroke="midnightblue" d="M1309.75,-273.3C1437.63,-266.58 1703.58,-250.39 1937.82,-221.14"/>
<polygon fill="midnightblue" stroke="midnightblue" points="1938.41,-224.6 1947.89,-219.87 1937.53,-217.65 1938.41,-224.6"/>
</g>
<!-- Node25 -->
<g id="node25" class="node">
<title>Node25</title>
<g id="a_node25"><a xlink:href="_gorb_background_8hpp.html" target="_top" xlink:title=" ">
<polygon fill="none" stroke="black" points="2115,-190.5 2115,-220.5 2264,-220.5 2264,-190.5 2115,-190.5"/>
<text text-anchor="start" x="2123" y="-208.5" font-family="Helvetica,sans-Serif" font-size="10.00">NekoEngine/ECS/Components</text>
<text text-anchor="middle" x="2189.5" y="-197.5" font-family="Helvetica,sans-Serif" font-size="10.00">/GorbBackground.hpp</text>
</a>
</g>
</g>
<!-- Node1&#45;&gt;Node25 -->
<g id="edge30" class="edge">
<title>Node1&#45;&gt;Node25</title>
<path fill="none" stroke="midnightblue" d="M1309.66,-274.9C1459.93,-270.16 1805.31,-256.24 2104.72,-221.13"/>
<polygon fill="midnightblue" stroke="midnightblue" points="2105.38,-224.58 2114.9,-219.93 2104.56,-217.63 2105.38,-224.58"/>
</g>
<!-- Node26 -->
<g id="node26" class="node">
<title>Node26</title>
<g id="a_node26"><a xlink:href="_animation_8hpp.html" target="_top" xlink:title=" ">
<polygon fill="none" stroke="black" points="2282,-190.5 2282,-220.5 2431,-220.5 2431,-190.5 2282,-190.5"/>
<text text-anchor="start" x="2290" y="-208.5" font-family="Helvetica,sans-Serif" font-size="10.00">NekoEngine/ECS/Components</text>
<text text-anchor="middle" x="2356.5" y="-197.5" font-family="Helvetica,sans-Serif" font-size="10.00">/Animation.hpp</text>
</a>
</g>
</g>
<!-- Node1&#45;&gt;Node26 -->
<g id="edge31" class="edge">
<title>Node1&#45;&gt;Node26</title>
<path fill="none" stroke="midnightblue" d="M1309.77,-276C1480.52,-273.09 1906.62,-262.09 2271.93,-221.09"/>
<polygon fill="midnightblue" stroke="midnightblue" points="2272.36,-224.57 2281.9,-219.96 2271.57,-217.61 2272.36,-224.57"/>
</g>
<!-- Node27 -->
<g id="node27" class="node">
<title>Node27</title>
<g id="a_node27"><a xlink:href="_player_shoot_8hpp.html" target="_top" xlink:title=" ">
<polygon fill="none" stroke="black" points="2449,-190.5 2449,-220.5 2598,-220.5 2598,-190.5 2449,-190.5"/>
<text text-anchor="start" x="2457" y="-208.5" font-family="Helvetica,sans-Serif" font-size="10.00">NekoEngine/ECS/Components</text>
<text text-anchor="middle" x="2523.5" y="-197.5" font-family="Helvetica,sans-Serif" font-size="10.00">/PlayerShoot.hpp</text>
</a>
</g>
</g>
<!-- Node1&#45;&gt;Node27 -->
<g id="edge32" class="edge">
<title>Node1&#45;&gt;Node27</title>
<path fill="none" stroke="midnightblue" d="M1309.67,-276.81C1499.12,-275.61 2006.86,-267.98 2438.72,-221.1"/>
<polygon fill="midnightblue" stroke="midnightblue" points="2439.35,-224.56 2448.91,-219.99 2438.59,-217.6 2439.35,-224.56"/>
</g>
<!-- Node3 -->
<g id="node3" class="node">
<title>Node3</title>
<g id="a_node3"><a xlink:href="_vector_8hpp.html" target="_top" xlink:title="Contains all headers for all Vector types.">
<polygon fill="none" stroke="black" points="930,-56.5 930,-86.5 1055,-86.5 1055,-56.5 930,-56.5"/>
<text text-anchor="start" x="938" y="-74.5" font-family="Helvetica,sans-Serif" font-size="10.00">NekoEngine/Math/Vector</text>
<text text-anchor="middle" x="992.5" y="-63.5" font-family="Helvetica,sans-Serif" font-size="10.00">/Vector.hpp</text>
</a>
</g>
</g>
<!-- Node2&#45;&gt;Node3 -->
<g id="edge2" class="edge">
<title>Node2&#45;&gt;Node3</title>
<path fill="none" stroke="midnightblue" d="M1482.76,-128.9C1373.96,-116.38 1173.19,-93.29 1065.42,-80.89"/>
<polygon fill="midnightblue" stroke="midnightblue" points="1065.62,-77.39 1055.28,-79.72 1064.82,-84.34 1065.62,-77.39"/>
</g>
<!-- Node4 -->
<g id="node4" class="node">
<title>Node4</title>
<g id="a_node4"><a xlink:href="_vector2_8hpp.html" target="_top" xlink:title="Contains Vector2 template class.">
<polygon fill="none" stroke="black" points="872.5,-0.5 872.5,-19.5 940.5,-19.5 940.5,-0.5 872.5,-0.5"/>
<text text-anchor="middle" x="906.5" y="-7.5" font-family="Helvetica,sans-Serif" font-size="10.00">Vector2.hpp</text>
</a>
</g>
</g>
<!-- Node3&#45;&gt;Node4 -->
<g id="edge3" class="edge">
<title>Node3&#45;&gt;Node4</title>
<path fill="none" stroke="midnightblue" d="M972.12,-56.4C958.59,-47.04 940.89,-34.79 927.28,-25.38"/>
<polygon fill="midnightblue" stroke="midnightblue" points="929.23,-22.47 919.01,-19.66 925.25,-28.23 929.23,-22.47"/>
</g>
<!-- Node5 -->
<g id="node5" class="node">
<title>Node5</title>
<g id="a_node5"><a xlink:href="_vector3_8hpp.html" target="_top" xlink:title="Contains Vector3 template class.">
<polygon fill="none" stroke="black" points="958.5,-0.5 958.5,-19.5 1026.5,-19.5 1026.5,-0.5 958.5,-0.5"/>
<text text-anchor="middle" x="992.5" y="-7.5" font-family="Helvetica,sans-Serif" font-size="10.00">Vector3.hpp</text>
</a>
</g>
</g>
<!-- Node3&#45;&gt;Node5 -->
<g id="edge4" class="edge">
<title>Node3&#45;&gt;Node5</title>
<path fill="none" stroke="midnightblue" d="M992.5,-56.4C992.5,-48.47 992.5,-38.46 992.5,-29.86"/>
<polygon fill="midnightblue" stroke="midnightblue" points="996,-29.66 992.5,-19.66 989,-29.66 996,-29.66"/>
</g>
<!-- Node6 -->
<g id="node6" class="node">
<title>Node6</title>
<g id="a_node6"><a xlink:href="_vector4_8hpp.html" target="_top" xlink:title="Contains Vector4 template class.">
<polygon fill="none" stroke="black" points="1044.5,-0.5 1044.5,-19.5 1112.5,-19.5 1112.5,-0.5 1044.5,-0.5"/>
<text text-anchor="middle" x="1078.5" y="-7.5" font-family="Helvetica,sans-Serif" font-size="10.00">Vector4.hpp</text>
</a>
</g>
</g>
<!-- Node3&#45;&gt;Node6 -->
<g id="edge5" class="edge">
<title>Node3&#45;&gt;Node6</title>
<path fill="none" stroke="midnightblue" d="M1012.88,-56.4C1026.41,-47.04 1044.11,-34.79 1057.72,-25.38"/>
<polygon fill="midnightblue" stroke="midnightblue" points="1059.75,-28.23 1065.99,-19.66 1055.77,-22.47 1059.75,-28.23"/>
</g>
<!-- Node8 -->
<g id="node8" class="node">
<title>Node8</title>
<g id="a_node8"><a xlink:title=" ">
<polygon fill="none" stroke="#bfbfbf" points="51.5,-129 51.5,-148 97.5,-148 97.5,-129 51.5,-129"/>
<text text-anchor="middle" x="74.5" y="-136" font-family="Helvetica,sans-Serif" font-size="10.00">chrono</text>
</a>
</g>
</g>
<!-- Node7&#45;&gt;Node8 -->
<g id="edge7" class="edge">
<title>Node7&#45;&gt;Node8</title>
<path fill="none" stroke="midnightblue" d="M74.5,-190.4C74.5,-181.06 74.5,-168.71 74.5,-158.52"/>
<polygon fill="midnightblue" stroke="midnightblue" points="78,-158.19 74.5,-148.19 71,-158.19 78,-158.19"/>
</g>
<!-- Node11 -->
<g id="node11" class="node">
<title>Node11</title>
<g id="a_node11"><a xlink:title=" ">
<polygon fill="none" stroke="#bfbfbf" points="549.5,-129 549.5,-148 595.5,-148 595.5,-129 549.5,-129"/>
<text text-anchor="middle" x="572.5" y="-136" font-family="Helvetica,sans-Serif" font-size="10.00">cstdint</text>
</a>
</g>
</g>
<!-- Node10&#45;&gt;Node11 -->
<g id="edge10" class="edge">
<title>Node10&#45;&gt;Node11</title>
<path fill="none" stroke="midnightblue" d="M502.03,-190.4C516.98,-179.6 537.53,-164.76 552.58,-153.89"/>
<polygon fill="midnightblue" stroke="midnightblue" points="554.66,-156.7 560.72,-148.01 550.57,-151.02 554.66,-156.7"/>
</g>
<!-- Node12&#45;&gt;Node3 -->
<g id="edge12" class="edge">
<title>Node12&#45;&gt;Node3</title>
<path fill="none" stroke="midnightblue" d="M314.11,-125.57C320.99,-124.64 327.87,-123.76 334.5,-123 546.31,-98.74 797.85,-83.07 919.45,-76.32"/>
<polygon fill="midnightblue" stroke="midnightblue" points="919.96,-79.79 929.75,-75.75 919.57,-72.8 919.96,-79.79"/>
</g>
<!-- Node13&#45;&gt;Node3 -->
<g id="edge14" class="edge">
<title>Node13&#45;&gt;Node3</title>
<path fill="none" stroke="midnightblue" d="M493.01,-128.56C508.69,-126.7 525.14,-124.77 540.5,-123 674.38,-107.57 830.65,-90.27 919.95,-80.45"/>
<polygon fill="midnightblue" stroke="midnightblue" points="920.41,-83.92 929.97,-79.35 919.65,-76.96 920.41,-83.92"/>
</g>
<!-- Node15 -->
<g id="node15" class="node">
<title>Node15</title>
<g id="a_node15"><a xlink:title=" ">
<polygon fill="none" stroke="#bfbfbf" points="931.5,-129 931.5,-148 1035.5,-148 1035.5,-129 931.5,-129"/>
<text text-anchor="middle" x="983.5" y="-136" font-family="Helvetica,sans-Serif" font-size="10.00">SFML/Graphics.hpp</text>
</a>
</g>
</g>
<!-- Node14&#45;&gt;Node15 -->
<g id="edge16" class="edge">
<title>Node14&#45;&gt;Node15</title>
<path fill="none" stroke="midnightblue" d="M852.74,-190.4C882.43,-178.84 924.01,-162.66 952.25,-151.66"/>
<polygon fill="midnightblue" stroke="midnightblue" points="953.59,-154.9 961.64,-148.01 951.06,-148.37 953.59,-154.9"/>
</g>
<!-- Node17&#45;&gt;Node11 -->
<g id="edge19" class="edge">
<title>Node17&#45;&gt;Node11</title>
<path fill="none" stroke="midnightblue" d="M632.79,-190.4C620.31,-179.86 603.27,-165.48 590.49,-154.69"/>
<polygon fill="midnightblue" stroke="midnightblue" points="592.7,-151.97 582.8,-148.19 588.18,-157.32 592.7,-151.97"/>
</g>
<!-- Node20&#45;&gt;Node15 -->
<g id="edge23" class="edge">
<title>Node20&#45;&gt;Node15</title>
<path fill="none" stroke="midnightblue" d="M1114.26,-190.4C1084.57,-178.84 1042.99,-162.66 1014.75,-151.66"/>
<polygon fill="midnightblue" stroke="midnightblue" points="1015.94,-148.37 1005.36,-148.01 1013.41,-154.9 1015.94,-148.37"/>
</g>
<!-- Node21&#45;&gt;Node2 -->
<g id="edge26" class="edge">
<title>Node21&#45;&gt;Node2</title>
<path fill="none" stroke="midnightblue" d="M1660.07,-190.4C1641.02,-180.94 1615.72,-168.39 1595.02,-158.12"/>
<polygon fill="midnightblue" stroke="midnightblue" points="1596.38,-154.89 1585.87,-153.58 1593.27,-161.16 1596.38,-154.89"/>
</g>
<!-- Node21&#45;&gt;Node3 -->
<g id="edge25" class="edge">
<title>Node21&#45;&gt;Node3</title>
<path fill="none" stroke="midnightblue" d="M1684.82,-190.41C1679.06,-171.48 1665.95,-138.42 1641.5,-123 1593.71,-92.86 1224.53,-78.99 1065.26,-74.37"/>
<polygon fill="midnightblue" stroke="midnightblue" points="1065.17,-70.86 1055.07,-74.07 1064.97,-77.86 1065.17,-70.86"/>
</g>
<!-- Node22 -->
<g id="node22" class="node">
<title>Node22</title>
<g id="a_node22"><a xlink:title=" ">
<polygon fill="none" stroke="#bfbfbf" points="1688,-129 1688,-148 1747,-148 1747,-129 1688,-129"/>
<text text-anchor="middle" x="1717.5" y="-136" font-family="Helvetica,sans-Serif" font-size="10.00">functional</text>
</a>
</g>
</g>
<!-- Node21&#45;&gt;Node22 -->
<g id="edge27" class="edge">
<title>Node21&#45;&gt;Node22</title>
<path fill="none" stroke="midnightblue" d="M1694.79,-190.4C1699.09,-180.76 1704.82,-167.91 1709.45,-157.54"/>
<polygon fill="midnightblue" stroke="midnightblue" points="1712.74,-158.75 1713.62,-148.19 1706.35,-155.9 1712.74,-158.75"/>
</g>
</g>
</svg>
