<?xml version="1.0" encoding="UTF-8" standalone="no"?>
<!DOCTYPE svg PUBLIC "-//W3C//DTD SVG 1.1//EN"
 "http://www.w3.org/Graphics/SVG/1.1/DTD/svg11.dtd">
<!-- Generated by graphviz version 2.49.3 (20211027.1501)
 -->
<!-- Title: NekoEngine/include/NekoEngine/ECS/ComponentArray.hpp Pages: 1 -->
<svg width="456pt" height="218pt"
 viewBox="0.00 0.00 456.00 218.00" xmlns="http://www.w3.org/2000/svg" xmlns:xlink="http://www.w3.org/1999/xlink">
<g id="graph0" class="graph" transform="scale(1 1) rotate(0) translate(4 214)">
<title>NekoEngine/include/NekoEngine/ECS/ComponentArray.hpp</title>
<!-- Node1 -->
<g id="node1" class="node">
<title>Node1</title>
<g id="a_node1"><a xlink:title="Component Array template class.">
<polygon fill="#bfbfbf" stroke="black" points="41,-179.5 41,-209.5 229,-209.5 229,-179.5 41,-179.5"/>
<text text-anchor="start" x="49" y="-197.5" font-family="Helvetica,sans-Serif" font-size="10.00">NekoEngine/include</text>
<text text-anchor="middle" x="135" y="-186.5" font-family="Helvetica,sans-Serif" font-size="10.00">/NekoEngine/ECS/ComponentArray.hpp</text>
</a>
</g>
</g>
<!-- Node2 -->
<g id="node2" class="node">
<title>Node2</title>
<g id="a_node2"><a xlink:title=" ">
<polygon fill="none" stroke="#bfbfbf" points="0,-118 0,-137 38,-137 38,-118 0,-118"/>
<text text-anchor="middle" x="19" y="-125" font-family="Helvetica,sans-Serif" font-size="10.00">array</text>
</a>
</g>
</g>
<!-- Node1&#45;&gt;Node2 -->
<g id="edge1" class="edge">
<title>Node1&#45;&gt;Node2</title>
<path fill="none" stroke="midnightblue" d="M109.83,-179.4C90.02,-168.29 62.58,-152.92 43.06,-141.98"/>
<polygon fill="midnightblue" stroke="midnightblue" points="44.62,-138.84 34.18,-137.01 41.19,-144.95 44.62,-138.84"/>
</g>
<!-- Node3 -->
<g id="node3" class="node">
<title>Node3</title>
<g id="a_node3"><a xlink:title=" ">
<polygon fill="none" stroke="#bfbfbf" points="56.5,-118 56.5,-137 91.5,-137 91.5,-118 56.5,-118"/>
<text text-anchor="middle" x="74" y="-125" font-family="Helvetica,sans-Serif" font-size="10.00">map</text>
</a>
</g>
</g>
<!-- Node1&#45;&gt;Node3 -->
<g id="edge2" class="edge">
<title>Node1&#45;&gt;Node3</title>
<path fill="none" stroke="midnightblue" d="M121.76,-179.4C112.16,-169.16 99.15,-155.3 89.13,-144.62"/>
<polygon fill="midnightblue" stroke="midnightblue" points="91.55,-142.09 82.16,-137.19 86.45,-146.88 91.55,-142.09"/>
</g>
<!-- Node4 -->
<g id="node4" class="node">
<title>Node4</title>
<g id="a_node4"><a xlink:title=" ">
<polygon fill="none" stroke="#bfbfbf" points="109.5,-118 109.5,-137 160.5,-137 160.5,-118 109.5,-118"/>
<text text-anchor="middle" x="135" y="-125" font-family="Helvetica,sans-Serif" font-size="10.00">memory</text>
</a>
</g>
</g>
<!-- Node1&#45;&gt;Node4 -->
<g id="edge3" class="edge">
<title>Node1&#45;&gt;Node4</title>
<path fill="none" stroke="midnightblue" d="M135,-179.4C135,-170.06 135,-157.71 135,-147.52"/>
<polygon fill="midnightblue" stroke="midnightblue" points="138.5,-147.19 135,-137.19 131.5,-147.19 138.5,-147.19"/>
</g>
<!-- Node5 -->
<g id="node5" class="node">
<title>Node5</title>
<g id="a_node5"><a xlink:href="_i_component_array_8hpp.html" target="_top" xlink:title="Interface for the Component Array template class.">
<polygon fill="none" stroke="black" points="178.5,-112.5 178.5,-142.5 325.5,-142.5 325.5,-112.5 178.5,-112.5"/>
<text text-anchor="start" x="186.5" y="-130.5" font-family="Helvetica,sans-Serif" font-size="10.00">NekoEngine/ECS/IComponent</text>
<text text-anchor="middle" x="252" y="-119.5" font-family="Helvetica,sans-Serif" font-size="10.00">Array.hpp</text>
</a>
</g>
</g>
<!-- Node1&#45;&gt;Node5 -->
<g id="edge4" class="edge">
<title>Node1&#45;&gt;Node5</title>
<path fill="none" stroke="midnightblue" d="M160.39,-179.4C177.18,-170.07 199.39,-157.73 217.74,-147.53"/>
<polygon fill="midnightblue" stroke="midnightblue" points="219.62,-150.49 226.66,-142.58 216.22,-144.37 219.62,-150.49"/>
</g>
<!-- Node9 -->
<g id="node9" class="node">
<title>Node9</title>
<g id="a_node9"><a xlink:title=" ">
<polygon fill="none" stroke="#bfbfbf" points="344,-118 344,-137 448,-137 448,-118 344,-118"/>
<text text-anchor="middle" x="396" y="-125" font-family="Helvetica,sans-Serif" font-size="10.00">ComponentArray.tpp</text>
</a>
</g>
</g>
<!-- Node1&#45;&gt;Node9 -->
<g id="edge8" class="edge">
<title>Node1&#45;&gt;Node9</title>
<path fill="none" stroke="midnightblue" d="M191.31,-179.48C239.42,-167.5 307.66,-150.5 351.88,-139.49"/>
<polygon fill="midnightblue" stroke="midnightblue" points="352.9,-142.84 361.75,-137.03 351.2,-136.05 352.9,-142.84"/>
</g>
<!-- Node6 -->
<g id="node6" class="node">
<title>Node6</title>
<g id="a_node6"><a xlink:href="_types_8hpp.html" target="_top" xlink:title="NekoEngine types definition.">
<polygon fill="none" stroke="black" points="182.5,-56.5 182.5,-75.5 321.5,-75.5 321.5,-56.5 182.5,-56.5"/>
<text text-anchor="middle" x="252" y="-63.5" font-family="Helvetica,sans-Serif" font-size="10.00">NekoEngine/ECS/Types.hpp</text>
</a>
</g>
</g>
<!-- Node5&#45;&gt;Node6 -->
<g id="edge5" class="edge">
<title>Node5&#45;&gt;Node6</title>
<path fill="none" stroke="midnightblue" d="M252,-112.4C252,-104.47 252,-94.46 252,-85.86"/>
<polygon fill="midnightblue" stroke="midnightblue" points="255.5,-85.66 252,-75.66 248.5,-85.66 255.5,-85.66"/>
</g>
<!-- Node7 -->
<g id="node7" class="node">
<title>Node7</title>
<g id="a_node7"><a xlink:title=" ">
<polygon fill="none" stroke="#bfbfbf" points="198,-0.5 198,-19.5 244,-19.5 244,-0.5 198,-0.5"/>
<text text-anchor="middle" x="221" y="-7.5" font-family="Helvetica,sans-Serif" font-size="10.00">cstdint</text>
</a>
</g>
</g>
<!-- Node6&#45;&gt;Node7 -->
<g id="edge6" class="edge">
<title>Node6&#45;&gt;Node7</title>
<path fill="none" stroke="midnightblue" d="M246.88,-56.08C242.59,-48.61 236.34,-37.72 231.06,-28.52"/>
<polygon fill="midnightblue" stroke="midnightblue" points="234.04,-26.68 226.02,-19.75 227.97,-30.17 234.04,-26.68"/>
</g>
<!-- Node8 -->
<g id="node8" class="node">
<title>Node8</title>
<g id="a_node8"><a xlink:title=" ">
<polygon fill="none" stroke="#bfbfbf" points="262.5,-0.5 262.5,-19.5 303.5,-19.5 303.5,-0.5 262.5,-0.5"/>
<text text-anchor="middle" x="283" y="-7.5" font-family="Helvetica,sans-Serif" font-size="10.00">bitset</text>
</a>
</g>
</g>
<!-- Node6&#45;&gt;Node8 -->
<g id="edge7" class="edge">
<title>Node6&#45;&gt;Node8</title>
<path fill="none" stroke="midnightblue" d="M257.12,-56.08C261.41,-48.61 267.66,-37.72 272.94,-28.52"/>
<polygon fill="midnightblue" stroke="midnightblue" points="276.03,-30.17 277.98,-19.75 269.96,-26.68 276.03,-30.17"/>
</g>
</g>
</svg>
