<?xml version="1.0" encoding="UTF-8" standalone="no"?>
<!DOCTYPE svg PUBLIC "-//W3C//DTD SVG 1.1//EN"
 "http://www.w3.org/Graphics/SVG/1.1/DTD/svg11.dtd">
<!-- Generated by graphviz version 2.49.3 (20211027.1501)
 -->
<!-- Title: NekoEngine/include/NekoEngine/ECS/ComponentArray.hpp Pages: 1 -->
<svg width="1470pt" height="608pt"
 viewBox="0.00 0.00 1469.50 608.00" xmlns="http://www.w3.org/2000/svg" xmlns:xlink="http://www.w3.org/1999/xlink">
<g id="graph0" class="graph" transform="scale(1 1) rotate(0) translate(4 604)">
<title>NekoEngine/include/NekoEngine/ECS/ComponentArray.hpp</title>
<!-- Node1 -->
<g id="node1" class="node">
<title>Node1</title>
<g id="a_node1"><a xlink:title="Component Array template class.">
<polygon fill="#bfbfbf" stroke="black" points="828,-569.5 828,-599.5 1016,-599.5 1016,-569.5 828,-569.5"/>
<text text-anchor="start" x="836" y="-587.5" font-family="Helvetica,sans-Serif" font-size="10.00">NekoEngine/include</text>
<text text-anchor="middle" x="922" y="-576.5" font-family="Helvetica,sans-Serif" font-size="10.00">/NekoEngine/ECS/ComponentArray.hpp</text>
</a>
</g>
</g>
<!-- Node2 -->
<g id="node2" class="node">
<title>Node2</title>
<g id="a_node2"><a xlink:href="_component_manager_8hpp.html" target="_top" xlink:title="Component Manmager class.">
<polygon fill="none" stroke="black" points="820.5,-502.5 820.5,-532.5 1023.5,-532.5 1023.5,-502.5 820.5,-502.5"/>
<text text-anchor="start" x="828.5" y="-520.5" font-family="Helvetica,sans-Serif" font-size="10.00">NekoEngine/include</text>
<text text-anchor="middle" x="922" y="-509.5" font-family="Helvetica,sans-Serif" font-size="10.00">/NekoEngine/ECS/ComponentManager.hpp</text>
</a>
</g>
</g>
<!-- Node1&#45;&gt;Node2 -->
<g id="edge1" class="edge">
<title>Node1&#45;&gt;Node2</title>
<path fill="none" stroke="midnightblue" d="M922,-559.11C922,-550.15 922,-540.32 922,-532.58"/>
<polygon fill="midnightblue" stroke="midnightblue" points="918.5,-559.4 922,-569.4 925.5,-559.4 918.5,-559.4"/>
</g>
<!-- Node3 -->
<g id="node3" class="node">
<title>Node3</title>
<g id="a_node3"><a xlink:href="_coordinator_8hpp.html" target="_top" xlink:title="Coordinator class.">
<polygon fill="none" stroke="black" points="839.5,-435.5 839.5,-465.5 1004.5,-465.5 1004.5,-435.5 839.5,-435.5"/>
<text text-anchor="start" x="847.5" y="-453.5" font-family="Helvetica,sans-Serif" font-size="10.00">NekoEngine/include</text>
<text text-anchor="middle" x="922" y="-442.5" font-family="Helvetica,sans-Serif" font-size="10.00">/NekoEngine/ECS/Coordinator.hpp</text>
</a>
</g>
</g>
<!-- Node2&#45;&gt;Node3 -->
<g id="edge2" class="edge">
<title>Node2&#45;&gt;Node3</title>
<path fill="none" stroke="midnightblue" d="M922,-492.11C922,-483.15 922,-473.32 922,-465.58"/>
<polygon fill="midnightblue" stroke="midnightblue" points="918.5,-492.4 922,-502.4 925.5,-492.4 918.5,-492.4"/>
</g>
<!-- Node4 -->
<g id="node4" class="node">
<title>Node4</title>
<g id="a_node4"><a xlink:href="_client_collision_8hpp.html" target="_top" xlink:title=" ">
<polygon fill="none" stroke="black" points="0,-368.5 0,-387.5 158,-387.5 158,-368.5 0,-368.5"/>
<text text-anchor="middle" x="79" y="-375.5" font-family="Helvetica,sans-Serif" font-size="10.00">Client/include/ClientCollision.hpp</text>
</a>
</g>
</g>
<!-- Node3&#45;&gt;Node4 -->
<g id="edge3" class="edge">
<title>Node3&#45;&gt;Node4</title>
<path fill="none" stroke="midnightblue" d="M829.06,-447.56C686.89,-443.61 407.14,-432.02 172,-399 152.21,-396.22 130.35,-391.6 112.8,-387.5"/>
<polygon fill="midnightblue" stroke="midnightblue" points="829.38,-451.07 839.47,-447.84 829.57,-444.07 829.38,-451.07"/>
</g>
<!-- Node9 -->
<g id="node9" class="node">
<title>Node9</title>
<g id="a_node9"><a xlink:href="_system_manager_8hpp.html" target="_top" xlink:title=" ">
<polygon fill="none" stroke="black" points="1102,-363 1102,-393 1288,-393 1288,-363 1102,-363"/>
<text text-anchor="start" x="1110" y="-381" font-family="Helvetica,sans-Serif" font-size="10.00">NekoEngine/include</text>
<text text-anchor="middle" x="1195" y="-370" font-family="Helvetica,sans-Serif" font-size="10.00">/NekoEngine/ECS/SystemManager.hpp</text>
</a>
</g>
</g>
<!-- Node3&#45;&gt;Node9 -->
<g id="edge8" class="edge">
<title>Node3&#45;&gt;Node9</title>
<path fill="none" stroke="midnightblue" d="M980.48,-432.89C1026.01,-420.79 1088.89,-404.58 1134.85,-393.11"/>
<polygon fill="midnightblue" stroke="midnightblue" points="979.51,-429.53 970.75,-435.49 981.31,-436.29 979.51,-429.53"/>
</g>
<!-- Node10 -->
<g id="node10" class="node">
<title>Node10</title>
<g id="a_node10"><a xlink:href="_bonus_system_8hpp.html" target="_top" xlink:title=" ">
<polygon fill="none" stroke="black" points="528,-357.5 528,-398.5 664,-398.5 664,-357.5 528,-357.5"/>
<text text-anchor="start" x="536" y="-386.5" font-family="Helvetica,sans-Serif" font-size="10.00">NekoEngine/include</text>
<text text-anchor="start" x="536" y="-375.5" font-family="Helvetica,sans-Serif" font-size="10.00">/NekoEngine/ECS/Systems</text>
<text text-anchor="middle" x="596" y="-364.5" font-family="Helvetica,sans-Serif" font-size="10.00">/BonusSystem.hpp</text>
</a>
</g>
</g>
<!-- Node3&#45;&gt;Node10 -->
<g id="edge10" class="edge">
<title>Node3&#45;&gt;Node10</title>
<path fill="none" stroke="midnightblue" d="M837.32,-433.5C789.03,-424.09 727.47,-411.59 673,-399 670.17,-398.35 667.29,-397.67 664.39,-396.97"/>
<polygon fill="midnightblue" stroke="midnightblue" points="836.93,-436.99 847.41,-435.46 838.26,-430.12 836.93,-436.99"/>
</g>
<!-- Node12 -->
<g id="node12" class="node">
<title>Node12</title>
<g id="a_node12"><a xlink:href="_neko_engine_8hpp.html" target="_top" xlink:title=" ">
<polygon fill="none" stroke="black" points="262,-212.5 262,-242.5 408,-242.5 408,-212.5 262,-212.5"/>
<text text-anchor="start" x="270" y="-230.5" font-family="Helvetica,sans-Serif" font-size="10.00">NekoEngine/include</text>
<text text-anchor="middle" x="335" y="-219.5" font-family="Helvetica,sans-Serif" font-size="10.00">/NekoEngine/NekoEngine.hpp</text>
</a>
</g>
</g>
<!-- Node3&#45;&gt;Node12 -->
<g id="edge38" class="edge">
<title>Node3&#45;&gt;Node12</title>
<path fill="none" stroke="midnightblue" d="M829.31,-448.42C651.52,-444.02 274.07,-422.64 205,-321 194.51,-305.56 194.46,-294.4 205,-279 218.2,-259.72 239.92,-247.8 261.86,-240.43"/>
<polygon fill="midnightblue" stroke="midnightblue" points="829.35,-451.92 839.43,-448.65 829.51,-444.92 829.35,-451.92"/>
</g>
<!-- Node15 -->
<g id="node15" class="node">
<title>Node15</title>
<g id="a_node15"><a xlink:href="_background_system_8cpp.html" target="_top" xlink:title=" ">
<polygon fill="none" stroke="black" points="542,-0.5 542,-30.5 706,-30.5 706,-0.5 542,-0.5"/>
<text text-anchor="start" x="550" y="-18.5" font-family="Helvetica,sans-Serif" font-size="10.00">NekoEngine/src/ECS</text>
<text text-anchor="middle" x="624" y="-7.5" font-family="Helvetica,sans-Serif" font-size="10.00">/Systems/BackgroundSystem.cpp</text>
</a>
</g>
</g>
<!-- Node3&#45;&gt;Node15 -->
<g id="edge43" class="edge">
<title>Node3&#45;&gt;Node15</title>
<path fill="none" stroke="midnightblue" d="M922,-424.99C922,-395.55 922,-344.66 922,-301 922,-301 922,-301 922,-159.5 922,-105.99 763.84,-54.55 677.97,-30.56"/>
<polygon fill="midnightblue" stroke="midnightblue" points="918.5,-425.16 922,-435.16 925.5,-425.16 918.5,-425.16"/>
</g>
<!-- Node16 -->
<g id="node16" class="node">
<title>Node16</title>
<g id="a_node16"><a xlink:href="_mouse_system_8cpp.html" target="_top" xlink:title=" ">
<polygon fill="none" stroke="black" points="724.5,-0.5 724.5,-30.5 865.5,-30.5 865.5,-0.5 724.5,-0.5"/>
<text text-anchor="start" x="732.5" y="-18.5" font-family="Helvetica,sans-Serif" font-size="10.00">NekoEngine/src/ECS</text>
<text text-anchor="middle" x="795" y="-7.5" font-family="Helvetica,sans-Serif" font-size="10.00">/Systems/MouseSystem.cpp</text>
</a>
</g>
</g>
<!-- Node3&#45;&gt;Node16 -->
<g id="edge44" class="edge">
<title>Node3&#45;&gt;Node16</title>
<path fill="none" stroke="midnightblue" d="M931.96,-425.86C943.22,-396.95 960,-346.27 960,-301 960,-301 960,-301 960,-159.5 960,-117.03 964.65,-98.35 936,-67 923.99,-53.85 884.45,-40.31 850.29,-30.57"/>
<polygon fill="midnightblue" stroke="midnightblue" points="928.58,-424.89 928.11,-435.47 935.08,-427.49 928.58,-424.89"/>
</g>
<!-- Node17 -->
<g id="node17" class="node">
<title>Node17</title>
<g id="a_node17"><a xlink:href="_parallax_system_8cpp.html" target="_top" xlink:title=" ">
<polygon fill="none" stroke="black" points="884,-0.5 884,-30.5 1030,-30.5 1030,-0.5 884,-0.5"/>
<text text-anchor="start" x="892" y="-18.5" font-family="Helvetica,sans-Serif" font-size="10.00">NekoEngine/src/ECS</text>
<text text-anchor="middle" x="957" y="-7.5" font-family="Helvetica,sans-Serif" font-size="10.00">/Systems/ParallaxSystem.cpp</text>
</a>
</g>
</g>
<!-- Node3&#45;&gt;Node17 -->
<g id="edge45" class="edge">
<title>Node3&#45;&gt;Node17</title>
<path fill="none" stroke="midnightblue" d="M949.07,-428.59C958.2,-420.28 967.66,-410.06 974,-399 996.29,-360.09 998,-345.84 998,-301 998,-301 998,-301 998,-159.5 998,-110.69 975.65,-56.01 963.96,-30.73"/>
<polygon fill="midnightblue" stroke="midnightblue" points="946.5,-426.18 941.23,-435.37 951.08,-431.48 946.5,-426.18"/>
</g>
<!-- Node18 -->
<g id="node18" class="node">
<title>Node18</title>
<g id="a_node18"><a xlink:href="_render_system_8cpp.html" target="_top" xlink:title="Render System class implementation.">
<polygon fill="none" stroke="black" points="1048.5,-0.5 1048.5,-30.5 1191.5,-30.5 1191.5,-0.5 1048.5,-0.5"/>
<text text-anchor="start" x="1056.5" y="-18.5" font-family="Helvetica,sans-Serif" font-size="10.00">NekoEngine/src/ECS</text>
<text text-anchor="middle" x="1120" y="-7.5" font-family="Helvetica,sans-Serif" font-size="10.00">/Systems/RenderSystem.cpp</text>
</a>
</g>
</g>
<!-- Node3&#45;&gt;Node18 -->
<g id="edge47" class="edge">
<title>Node3&#45;&gt;Node18</title>
<path fill="none" stroke="midnightblue" d="M960.03,-430.09C973.12,-421.92 986.99,-411.41 997,-399 1026.42,-362.5 1036,-347.88 1036,-301 1036,-301 1036,-301 1036,-159.5 1036,-117.03 1037.35,-102.93 1060,-67 1069.29,-52.26 1084.29,-39.63 1096.97,-30.69"/>
<polygon fill="midnightblue" stroke="midnightblue" points="957.96,-427.25 951.14,-435.36 961.53,-433.27 957.96,-427.25"/>
</g>
<!-- Node19 -->
<g id="node19" class="node">
<title>Node19</title>
<g id="a_node19"><a xlink:href="_text_system_8cpp.html" target="_top" xlink:title=" ">
<polygon fill="none" stroke="black" points="1209.5,-0.5 1209.5,-30.5 1340.5,-30.5 1340.5,-0.5 1209.5,-0.5"/>
<text text-anchor="start" x="1217.5" y="-18.5" font-family="Helvetica,sans-Serif" font-size="10.00">NekoEngine/src/ECS</text>
<text text-anchor="middle" x="1275" y="-7.5" font-family="Helvetica,sans-Serif" font-size="10.00">/Systems/TextSystem.cpp</text>
</a>
</g>
</g>
<!-- Node3&#45;&gt;Node19 -->
<g id="edge48" class="edge">
<title>Node3&#45;&gt;Node19</title>
<path fill="none" stroke="midnightblue" d="M975.28,-431.32C992.69,-423.43 1011.1,-412.79 1025,-399 1059.57,-364.7 1074,-349.7 1074,-301 1074,-301 1074,-301 1074,-159.5 1074,-88.19 1159.02,-49.15 1218.48,-30.57"/>
<polygon fill="midnightblue" stroke="midnightblue" points="973.56,-428.25 965.75,-435.41 976.32,-434.68 973.56,-428.25"/>
</g>
<!-- Node23 -->
<g id="node23" class="node">
<title>Node23</title>
<g id="a_node23"><a xlink:href="_pattern_system_8cpp.html" target="_top" xlink:title="Physics System class implementation.">
<polygon fill="none" stroke="black" points="707.5,-145.5 707.5,-175.5 850.5,-175.5 850.5,-145.5 707.5,-145.5"/>
<text text-anchor="start" x="715.5" y="-163.5" font-family="Helvetica,sans-Serif" font-size="10.00">NekoEngine/src/ECS</text>
<text text-anchor="middle" x="779" y="-152.5" font-family="Helvetica,sans-Serif" font-size="10.00">/Systems/PatternSystem.cpp</text>
</a>
</g>
</g>
<!-- Node3&#45;&gt;Node23 -->
<g id="edge46" class="edge">
<title>Node3&#45;&gt;Node23</title>
<path fill="none" stroke="midnightblue" d="M914.93,-425.38C899.17,-372.51 860.61,-248.23 836,-212 826.27,-197.67 811.57,-184.78 799.54,-175.61"/>
<polygon fill="midnightblue" stroke="midnightblue" points="911.65,-426.64 917.85,-435.24 918.37,-424.66 911.65,-426.64"/>
</g>
<!-- Node24 -->
<g id="node24" class="node">
<title>Node24</title>
<g id="a_node24"><a xlink:href="_timer_system_8cpp.html" target="_top" xlink:title=" ">
<polygon fill="none" stroke="black" points="689.5,-212.5 689.5,-242.5 826.5,-242.5 826.5,-212.5 689.5,-212.5"/>
<text text-anchor="start" x="697.5" y="-230.5" font-family="Helvetica,sans-Serif" font-size="10.00">NekoEngine/src/ECS</text>
<text text-anchor="middle" x="758" y="-219.5" font-family="Helvetica,sans-Serif" font-size="10.00">/Systems/TimerSystem.cpp</text>
</a>
</g>
</g>
<!-- Node3&#45;&gt;Node24 -->
<g id="edge49" class="edge">
<title>Node3&#45;&gt;Node24</title>
<path fill="none" stroke="midnightblue" d="M896.03,-428.66C886.83,-420.23 877.03,-409.91 870,-399 839.33,-351.37 860.9,-324.39 827,-279 815.72,-263.9 798.65,-251.35 784.31,-242.54"/>
<polygon fill="midnightblue" stroke="midnightblue" points="893.73,-431.29 903.55,-435.26 898.35,-426.03 893.73,-431.29"/>
</g>
<!-- Node27 -->
<g id="node27" class="node">
<title>Node27</title>
<g id="a_node27"><a xlink:href="_collision_8hpp.html" target="_top" xlink:title=" ">
<polygon fill="none" stroke="black" points="682,-357.5 682,-398.5 818,-398.5 818,-357.5 682,-357.5"/>
<text text-anchor="start" x="690" y="-386.5" font-family="Helvetica,sans-Serif" font-size="10.00">NekoEngine/include</text>
<text text-anchor="start" x="690" y="-375.5" font-family="Helvetica,sans-Serif" font-size="10.00">/NekoEngine/ECS/Systems</text>
<text text-anchor="middle" x="750" y="-364.5" font-family="Helvetica,sans-Serif" font-size="10.00">/Collision.hpp</text>
</a>
</g>
</g>
<!-- Node3&#45;&gt;Node27 -->
<g id="edge35" class="edge">
<title>Node3&#45;&gt;Node27</title>
<path fill="none" stroke="midnightblue" d="M878.16,-431.53C853.58,-421.45 822.88,-408.87 797.69,-398.55"/>
<polygon fill="midnightblue" stroke="midnightblue" points="877.03,-434.85 887.61,-435.4 879.68,-428.37 877.03,-434.85"/>
</g>
<!-- Node29 -->
<g id="node29" class="node">
<title>Node29</title>
<g id="a_node29"><a xlink:href="_scene_8hpp.html" target="_top" xlink:title="Scene class.">
<polygon fill="none" stroke="black" points="214.5,-285 214.5,-315 371.5,-315 371.5,-285 214.5,-285"/>
<text text-anchor="start" x="222.5" y="-303" font-family="Helvetica,sans-Serif" font-size="10.00">NekoEngine/include</text>
<text text-anchor="middle" x="293" y="-292" font-family="Helvetica,sans-Serif" font-size="10.00">/NekoEngine/Scenes/Scene.hpp</text>
</a>
</g>
</g>
<!-- Node3&#45;&gt;Node29 -->
<g id="edge39" class="edge">
<title>Node3&#45;&gt;Node29</title>
<path fill="none" stroke="midnightblue" d="M829.12,-445.36C746.48,-439.91 622.98,-427.43 519,-399 443.3,-378.3 360.01,-336.92 318.9,-315.15"/>
<polygon fill="midnightblue" stroke="midnightblue" points="829.04,-448.86 839.24,-446 829.48,-441.87 829.04,-448.86"/>
</g>
<!-- Node30 -->
<g id="node30" class="node">
<title>Node30</title>
<g id="a_node30"><a xlink:href="_animation_system_8cpp.html" target="_top" xlink:title=" ">
<polygon fill="none" stroke="black" points="1306.5,-363 1306.5,-393 1461.5,-393 1461.5,-363 1306.5,-363"/>
<text text-anchor="start" x="1314.5" y="-381" font-family="Helvetica,sans-Serif" font-size="10.00">NekoEngine/src/ECS</text>
<text text-anchor="middle" x="1384" y="-370" font-family="Helvetica,sans-Serif" font-size="10.00">/Systems/AnimationSystem.cpp</text>
</a>
</g>
</g>
<!-- Node3&#45;&gt;Node30 -->
<g id="edge42" class="edge">
<title>Node3&#45;&gt;Node30</title>
<path fill="none" stroke="midnightblue" d="M1014.68,-439.43C1090.81,-430.58 1201.28,-416.41 1297,-399 1306.45,-397.28 1316.43,-395.22 1326.12,-393.09"/>
<polygon fill="midnightblue" stroke="midnightblue" points="1014.18,-435.96 1004.64,-440.59 1014.98,-442.92 1014.18,-435.96"/>
</g>
<!-- Node5 -->
<g id="node5" class="node">
<title>Node5</title>
<g id="a_node5"><a xlink:href="_client_game_8hpp.html" target="_top" xlink:title=" ">
<polygon fill="none" stroke="black" points="21.5,-78.5 21.5,-97.5 168.5,-97.5 168.5,-78.5 21.5,-78.5"/>
<text text-anchor="middle" x="95" y="-85.5" font-family="Helvetica,sans-Serif" font-size="10.00">Client/include/ClientGame.hpp</text>
</a>
</g>
</g>
<!-- Node4&#45;&gt;Node5 -->
<g id="edge4" class="edge">
<title>Node4&#45;&gt;Node5</title>
<path fill="none" stroke="midnightblue" d="M51.93,-363.36C36.25,-353.84 17.9,-339.53 9,-321 0.91,-304.18 5.06,-297.25 9,-279 25.11,-204.32 73.09,-123.67 89.46,-97.63"/>
<polygon fill="midnightblue" stroke="midnightblue" points="50.34,-366.48 60.76,-368.41 53.82,-360.41 50.34,-366.48"/>
</g>
<!-- Node8 -->
<g id="node8" class="node">
<title>Node8</title>
<g id="a_node8"><a xlink:href="_client_collision_8cpp.html" target="_top" xlink:title=" ">
<polygon fill="none" stroke="black" points="18,-290.5 18,-309.5 158,-309.5 158,-290.5 18,-290.5"/>
<text text-anchor="middle" x="88" y="-297.5" font-family="Helvetica,sans-Serif" font-size="10.00">Client/src/ClientCollision.cpp</text>
</a>
</g>
</g>
<!-- Node4&#45;&gt;Node8 -->
<g id="edge7" class="edge">
<title>Node4&#45;&gt;Node8</title>
<path fill="none" stroke="midnightblue" d="M81.22,-358.22C83.06,-342.7 85.59,-321.36 86.98,-309.62"/>
<polygon fill="midnightblue" stroke="midnightblue" points="77.73,-357.94 80.03,-368.28 84.68,-358.76 77.73,-357.94"/>
</g>
<!-- Node6 -->
<g id="node6" class="node">
<title>Node6</title>
<g id="a_node6"><a xlink:href="_client_game_8cpp.html" target="_top" xlink:title=" ">
<polygon fill="none" stroke="black" points="30,-6 30,-25 160,-25 160,-6 30,-6"/>
<text text-anchor="middle" x="95" y="-13" font-family="Helvetica,sans-Serif" font-size="10.00">Client/src/ClientGame.cpp</text>
</a>
</g>
</g>
<!-- Node5&#45;&gt;Node6 -->
<g id="edge5" class="edge">
<title>Node5&#45;&gt;Node6</title>
<path fill="none" stroke="midnightblue" d="M95,-67.94C95,-54.03 95,-35.82 95,-25.22"/>
<polygon fill="midnightblue" stroke="midnightblue" points="91.5,-68.36 95,-78.36 98.5,-68.36 91.5,-68.36"/>
</g>
<!-- Node7 -->
<g id="node7" class="node">
<title>Node7</title>
<g id="a_node7"><a xlink:href="main_8cpp.html" target="_top" xlink:title="Entrypoint.">
<polygon fill="none" stroke="black" points="278,-6 278,-25 378,-25 378,-6 278,-6"/>
<text text-anchor="middle" x="328" y="-13" font-family="Helvetica,sans-Serif" font-size="10.00">Client/src/main.cpp</text>
</a>
</g>
</g>
<!-- Node5&#45;&gt;Node7 -->
<g id="edge6" class="edge">
<title>Node5&#45;&gt;Node7</title>
<path fill="none" stroke="midnightblue" d="M132.86,-75.55C179.59,-61.4 258.01,-37.68 299.8,-25.03"/>
<polygon fill="midnightblue" stroke="midnightblue" points="131.66,-72.25 123.11,-78.5 133.69,-78.95 131.66,-72.25"/>
</g>
<!-- Node9&#45;&gt;Node3 -->
<g id="edge9" class="edge">
<title>Node9&#45;&gt;Node3</title>
<path fill="none" stroke="midnightblue" d="M1136.15,-395.71C1090.52,-407.83 1027.64,-424.04 981.78,-435.49"/>
<polygon fill="midnightblue" stroke="midnightblue" points="1137.14,-399.06 1145.9,-393.11 1135.34,-392.3 1137.14,-399.06"/>
</g>
<!-- Node11 -->
<g id="node11" class="node">
<title>Node11</title>
<g id="a_node11"><a xlink:href="_systems_8hpp.html" target="_top" xlink:title="Systems.">
<polygon fill="none" stroke="black" points="548,-279.5 548,-320.5 684,-320.5 684,-279.5 548,-279.5"/>
<text text-anchor="start" x="556" y="-308.5" font-family="Helvetica,sans-Serif" font-size="10.00">NekoEngine/include</text>
<text text-anchor="start" x="556" y="-297.5" font-family="Helvetica,sans-Serif" font-size="10.00">/NekoEngine/ECS/Systems</text>
<text text-anchor="middle" x="616" y="-286.5" font-family="Helvetica,sans-Serif" font-size="10.00">/Systems.hpp</text>
</a>
</g>
</g>
<!-- Node10&#45;&gt;Node11 -->
<g id="edge11" class="edge">
<title>Node10&#45;&gt;Node11</title>
<path fill="none" stroke="midnightblue" d="M603.74,-347.59C606.13,-338.51 608.7,-328.74 610.87,-320.51"/>
<polygon fill="midnightblue" stroke="midnightblue" points="600.31,-346.87 601.15,-357.43 607.08,-348.65 600.31,-346.87"/>
</g>
<!-- Node26 -->
<g id="node26" class="node">
<title>Node26</title>
<g id="a_node26"><a xlink:href="_bonus_system_8cpp.html" target="_top" xlink:title=" ">
<polygon fill="none" stroke="black" points="390,-285 390,-315 530,-315 530,-285 390,-285"/>
<text text-anchor="start" x="398" y="-303" font-family="Helvetica,sans-Serif" font-size="10.00">NekoEngine/src/ECS</text>
<text text-anchor="middle" x="460" y="-292" font-family="Helvetica,sans-Serif" font-size="10.00">/Systems/BonusSystem.cpp</text>
</a>
</g>
</g>
<!-- Node10&#45;&gt;Node26 -->
<g id="edge34" class="edge">
<title>Node10&#45;&gt;Node26</title>
<path fill="none" stroke="midnightblue" d="M552.12,-352.48C530.09,-340.17 504.18,-325.69 485.46,-315.23"/>
<polygon fill="midnightblue" stroke="midnightblue" points="550.54,-355.61 560.98,-357.43 553.95,-349.49 550.54,-355.61"/>
</g>
<!-- Node11&#45;&gt;Node12 -->
<g id="edge12" class="edge">
<title>Node11&#45;&gt;Node12</title>
<path fill="none" stroke="midnightblue" d="M538.1,-278.78C483.35,-264.93 431.21,-252.05 392.64,-242.58"/>
<polygon fill="midnightblue" stroke="midnightblue" points="537.44,-282.23 547.99,-281.29 539.16,-275.44 537.44,-282.23"/>
</g>
<!-- Node11&#45;&gt;Node24 -->
<g id="edge32" class="edge">
<title>Node11&#45;&gt;Node24</title>
<path fill="none" stroke="midnightblue" d="M664.6,-274.87C686.2,-264.15 710.89,-251.89 729.46,-242.67"/>
<polygon fill="midnightblue" stroke="midnightblue" points="662.96,-271.78 655.55,-279.36 666.07,-278.05 662.96,-271.78"/>
</g>
<!-- Node25 -->
<g id="node25" class="node">
<title>Node25</title>
<g id="a_node25"><a xlink:href="_scene_8cpp.html" target="_top" xlink:title="For the love of god.">
<polygon fill="none" stroke="black" points="479,-212.5 479,-242.5 601,-242.5 601,-212.5 479,-212.5"/>
<text text-anchor="start" x="487" y="-230.5" font-family="Helvetica,sans-Serif" font-size="10.00">NekoEngine/src/Scenes</text>
<text text-anchor="middle" x="540" y="-219.5" font-family="Helvetica,sans-Serif" font-size="10.00">/Scene.cpp</text>
</a>
</g>
</g>
<!-- Node11&#45;&gt;Node25 -->
<g id="edge33" class="edge">
<title>Node11&#45;&gt;Node25</title>
<path fill="none" stroke="midnightblue" d="M587.23,-272.31C576.46,-262.32 564.64,-251.35 555.51,-242.89"/>
<polygon fill="midnightblue" stroke="midnightblue" points="585.12,-275.13 594.83,-279.36 589.88,-269.99 585.12,-275.13"/>
</g>
<!-- Node12&#45;&gt;Node5 -->
<g id="edge13" class="edge">
<title>Node12&#45;&gt;Node5</title>
<path fill="none" stroke="midnightblue" d="M251.83,-215.21C200.89,-206.71 141.94,-193.53 123,-176 100.17,-154.88 95.89,-115.1 95.13,-97.62"/>
<polygon fill="midnightblue" stroke="midnightblue" points="251.46,-218.7 261.9,-216.85 252.59,-211.79 251.46,-218.7"/>
</g>
<!-- Node12&#45;&gt;Node7 -->
<g id="edge30" class="edge">
<title>Node12&#45;&gt;Node7</title>
<path fill="none" stroke="midnightblue" d="M335.7,-202.03C336.39,-170.7 336.98,-114.75 334,-67 333.08,-52.2 330.78,-35.07 329.31,-25.05"/>
<polygon fill="midnightblue" stroke="midnightblue" points="332.19,-202.32 335.44,-212.4 339.19,-202.49 332.19,-202.32"/>
</g>
<!-- Node13 -->
<g id="node13" class="node">
<title>Node13</title>
<g id="a_node13"><a xlink:href="_custom_client_8hpp.html" target="_top" xlink:title=" ">
<polygon fill="none" stroke="black" points="382.5,-151 382.5,-170 537.5,-170 537.5,-151 382.5,-151"/>
<text text-anchor="middle" x="460" y="-158" font-family="Helvetica,sans-Serif" font-size="10.00">Client/include/CustomClient.hpp</text>
</a>
</g>
</g>
<!-- Node12&#45;&gt;Node13 -->
<g id="edge14" class="edge">
<title>Node12&#45;&gt;Node13</title>
<path fill="none" stroke="midnightblue" d="M371.27,-207.64C395.19,-195.2 425.36,-179.51 443.64,-170.01"/>
<polygon fill="midnightblue" stroke="midnightblue" points="369.38,-204.68 362.12,-212.4 372.61,-210.89 369.38,-204.68"/>
</g>
<!-- Node21 -->
<g id="node21" class="node">
<title>Node21</title>
<g id="a_node21"><a xlink:href="_player_system_8hpp.html" target="_top" xlink:title=" ">
<polygon fill="none" stroke="black" points="132,-151 132,-170 288,-170 288,-151 132,-151"/>
<text text-anchor="middle" x="210" y="-158" font-family="Helvetica,sans-Serif" font-size="10.00">Client/include/PlayerSystem.hpp</text>
</a>
</g>
</g>
<!-- Node12&#45;&gt;Node21 -->
<g id="edge26" class="edge">
<title>Node12&#45;&gt;Node21</title>
<path fill="none" stroke="midnightblue" d="M298.73,-207.64C274.81,-195.2 244.64,-179.51 226.36,-170.01"/>
<polygon fill="midnightblue" stroke="midnightblue" points="297.39,-210.89 307.88,-212.4 300.62,-204.68 297.39,-210.89"/>
</g>
<!-- Node22 -->
<g id="node22" class="node">
<title>Node22</title>
<g id="a_node22"><a xlink:href="_player_system_8cpp.html" target="_top" xlink:title=" ">
<polygon fill="none" stroke="black" points="186.5,-78.5 186.5,-97.5 325.5,-97.5 325.5,-78.5 186.5,-78.5"/>
<text text-anchor="middle" x="256" y="-85.5" font-family="Helvetica,sans-Serif" font-size="10.00">Client/src/PlayerSystem.cpp</text>
</a>
</g>
</g>
<!-- Node12&#45;&gt;Node22 -->
<g id="edge29" class="edge">
<title>Node12&#45;&gt;Node22</title>
<path fill="none" stroke="midnightblue" d="M325.38,-202.74C318.32,-186.14 308.06,-163.69 297,-145 286.57,-127.37 271.91,-108.46 263.24,-97.74"/>
<polygon fill="midnightblue" stroke="midnightblue" points="322.27,-204.35 329.35,-212.23 328.73,-201.66 322.27,-204.35"/>
</g>
<!-- Node12&#45;&gt;Node23 -->
<g id="edge31" class="edge">
<title>Node12&#45;&gt;Node23</title>
<path fill="none" stroke="midnightblue" d="M418.26,-214.31C501.59,-202.11 628.46,-183.54 707.41,-171.98"/>
<polygon fill="midnightblue" stroke="midnightblue" points="417.71,-210.85 408.32,-215.77 418.72,-217.78 417.71,-210.85"/>
</g>
<!-- Node13&#45;&gt;Node7 -->
<g id="edge15" class="edge">
<title>Node13&#45;&gt;Node7</title>
<path fill="none" stroke="midnightblue" d="M445.14,-143.41C417.17,-113.1 357.55,-48.51 335.99,-25.15"/>
<polygon fill="midnightblue" stroke="midnightblue" points="442.78,-146.01 452.14,-150.98 447.93,-141.26 442.78,-146.01"/>
</g>
<!-- Node14 -->
<g id="node14" class="node">
<title>Node14</title>
<g id="a_node14"><a xlink:href="_window_8hpp.html" target="_top" xlink:title="Contains the NekoEngine Window class wrapper.">
<polygon fill="none" stroke="black" points="567,-67.5 567,-108.5 681,-108.5 681,-67.5 567,-67.5"/>
<text text-anchor="start" x="575" y="-96.5" font-family="Helvetica,sans-Serif" font-size="10.00">NekoEngine/include</text>
<text text-anchor="start" x="575" y="-85.5" font-family="Helvetica,sans-Serif" font-size="10.00">/NekoEngine/Graphics</text>
<text text-anchor="middle" x="624" y="-74.5" font-family="Helvetica,sans-Serif" font-size="10.00">/Window.hpp</text>
</a>
</g>
</g>
<!-- Node13&#45;&gt;Node14 -->
<g id="edge16" class="edge">
<title>Node13&#45;&gt;Node14</title>
<path fill="none" stroke="midnightblue" d="M489,-147.03C513.76,-136.39 549.8,-120.9 578.41,-108.6"/>
<polygon fill="midnightblue" stroke="midnightblue" points="487.59,-143.83 479.78,-151 490.35,-150.26 487.59,-143.83"/>
</g>
<!-- Node20 -->
<g id="node20" class="node">
<title>Node20</title>
<g id="a_node20"><a xlink:href="_window_8cpp.html" target="_top" xlink:title="Contains the NekoEngine Window class implementation.">
<polygon fill="none" stroke="black" points="396,-0.5 396,-30.5 524,-30.5 524,-0.5 396,-0.5"/>
<text text-anchor="start" x="404" y="-18.5" font-family="Helvetica,sans-Serif" font-size="10.00">NekoEngine/src/Graphics</text>
<text text-anchor="middle" x="460" y="-7.5" font-family="Helvetica,sans-Serif" font-size="10.00">/Window.cpp</text>
</a>
</g>
</g>
<!-- Node13&#45;&gt;Node20 -->
<g id="edge25" class="edge">
<title>Node13&#45;&gt;Node20</title>
<path fill="none" stroke="midnightblue" d="M460,-140.62C460,-111.65 460,-56.85 460,-30.86"/>
<polygon fill="midnightblue" stroke="midnightblue" points="456.5,-140.98 460,-150.98 463.5,-140.98 456.5,-140.98"/>
</g>
<!-- Node14&#45;&gt;Node7 -->
<g id="edge17" class="edge">
<title>Node14&#45;&gt;Node7</title>
<path fill="none" stroke="midnightblue" d="M557.12,-71.37C509.63,-60.22 444.37,-44.83 387,-31 379.1,-29.1 370.62,-27.03 362.62,-25.06"/>
<polygon fill="midnightblue" stroke="midnightblue" points="556.44,-74.8 566.98,-73.68 558.04,-67.99 556.44,-74.8"/>
</g>
<!-- Node14&#45;&gt;Node12 -->
<g id="edge18" class="edge">
<title>Node14&#45;&gt;Node12</title>
<path fill="none" stroke="midnightblue" d="M605.83,-116.98C591.77,-136.41 570.59,-161.35 546,-176 504.26,-200.87 451.01,-213.5 408.45,-219.91"/>
<polygon fill="midnightblue" stroke="midnightblue" points="608.71,-118.97 611.59,-108.77 602.98,-114.95 608.71,-118.97"/>
</g>
<!-- Node14&#45;&gt;Node15 -->
<g id="edge19" class="edge">
<title>Node14&#45;&gt;Node15</title>
<path fill="none" stroke="midnightblue" d="M624,-57.08C624,-48.01 624,-38.45 624,-30.89"/>
<polygon fill="midnightblue" stroke="midnightblue" points="620.5,-57.36 624,-67.36 627.5,-57.36 620.5,-57.36"/>
</g>
<!-- Node14&#45;&gt;Node16 -->
<g id="edge20" class="edge">
<title>Node14&#45;&gt;Node16</title>
<path fill="none" stroke="midnightblue" d="M681.17,-63.43C707.61,-52.53 738.12,-39.95 760.9,-30.56"/>
<polygon fill="midnightblue" stroke="midnightblue" points="679.54,-60.31 671.63,-67.36 682.21,-66.79 679.54,-60.31"/>
</g>
<!-- Node14&#45;&gt;Node17 -->
<g id="edge21" class="edge">
<title>Node14&#45;&gt;Node17</title>
<path fill="none" stroke="midnightblue" d="M691.07,-72.8C749.22,-60.49 832.89,-42.77 890.79,-30.52"/>
<polygon fill="midnightblue" stroke="midnightblue" points="690.3,-69.39 681.24,-74.88 691.75,-76.23 690.3,-69.39"/>
</g>
<!-- Node14&#45;&gt;Node18 -->
<g id="edge22" class="edge">
<title>Node14&#45;&gt;Node18</title>
<path fill="none" stroke="midnightblue" d="M691.13,-78.84C773.3,-68.65 916.62,-50.2 1039,-31 1042.1,-30.51 1045.27,-30 1048.47,-29.48"/>
<polygon fill="midnightblue" stroke="midnightblue" points="690.67,-75.37 681.17,-80.07 691.53,-82.32 690.67,-75.37"/>
</g>
<!-- Node14&#45;&gt;Node19 -->
<g id="edge23" class="edge">
<title>Node14&#45;&gt;Node19</title>
<path fill="none" stroke="midnightblue" d="M691.23,-82.6C799.13,-75.05 1017.46,-57.82 1201,-31 1203.72,-30.6 1206.49,-30.17 1209.29,-29.72"/>
<polygon fill="midnightblue" stroke="midnightblue" points="690.87,-79.11 681.14,-83.3 691.36,-86.09 690.87,-79.11"/>
</g>
<!-- Node14&#45;&gt;Node20 -->
<g id="edge24" class="edge">
<title>Node14&#45;&gt;Node20</title>
<path fill="none" stroke="midnightblue" d="M568.84,-63.29C543.56,-52.42 514.45,-39.91 492.71,-30.56"/>
<polygon fill="midnightblue" stroke="midnightblue" points="567.75,-66.63 578.32,-67.36 570.51,-60.2 567.75,-66.63"/>
</g>
<!-- Node21&#45;&gt;Node5 -->
<g id="edge27" class="edge">
<title>Node21&#45;&gt;Node5</title>
<path fill="none" stroke="midnightblue" d="M187.36,-145.62C164.15,-131.39 128.76,-109.7 109.22,-97.72"/>
<polygon fill="midnightblue" stroke="midnightblue" points="185.54,-148.61 195.9,-150.86 189.2,-142.64 185.54,-148.61"/>
</g>
<!-- Node21&#45;&gt;Node22 -->
<g id="edge28" class="edge">
<title>Node21&#45;&gt;Node22</title>
<path fill="none" stroke="midnightblue" d="M221.36,-142.09C230.55,-128 243.12,-108.74 250.31,-97.72"/>
<polygon fill="midnightblue" stroke="midnightblue" points="218.17,-140.57 215.64,-150.86 224.04,-144.39 218.17,-140.57"/>
</g>
<!-- Node27&#45;&gt;Node11 -->
<g id="edge36" class="edge">
<title>Node27&#45;&gt;Node11</title>
<path fill="none" stroke="midnightblue" d="M706.78,-352.49C688.52,-342.13 667.57,-330.25 650.39,-320.51"/>
<polygon fill="midnightblue" stroke="midnightblue" points="705.07,-355.54 715.49,-357.43 708.52,-349.45 705.07,-355.54"/>
</g>
<!-- Node28 -->
<g id="node28" class="node">
<title>Node28</title>
<g id="a_node28"><a xlink:href="_collision_8cpp.html" target="_top" xlink:title=" ">
<polygon fill="none" stroke="black" points="702,-285 702,-315 818,-315 818,-285 702,-285"/>
<text text-anchor="start" x="710" y="-303" font-family="Helvetica,sans-Serif" font-size="10.00">NekoEngine/src/ECS</text>
<text text-anchor="middle" x="760" y="-292" font-family="Helvetica,sans-Serif" font-size="10.00">/Systems/Collision.cpp</text>
</a>
</g>
</g>
<!-- Node27&#45;&gt;Node28 -->
<g id="edge37" class="edge">
<title>Node27&#45;&gt;Node28</title>
<path fill="none" stroke="midnightblue" d="M753.91,-347.28C755.36,-336.25 756.94,-324.25 758.13,-315.23"/>
<polygon fill="midnightblue" stroke="midnightblue" points="750.41,-347.06 752.58,-357.43 757.35,-347.97 750.41,-347.06"/>
</g>
<!-- Node29&#45;&gt;Node12 -->
<g id="edge40" class="edge">
<title>Node29&#45;&gt;Node12</title>
<path fill="none" stroke="midnightblue" d="M306.67,-276.06C313.2,-265.09 320.82,-252.3 326.51,-242.75"/>
<polygon fill="midnightblue" stroke="midnightblue" points="303.61,-274.35 301.5,-284.73 309.62,-277.93 303.61,-274.35"/>
</g>
<!-- Node29&#45;&gt;Node25 -->
<g id="edge41" class="edge">
<title>Node29&#45;&gt;Node25</title>
<path fill="none" stroke="midnightblue" d="M351.71,-282.24C394.05,-270.16 450.55,-254.03 490.58,-242.61"/>
<polygon fill="midnightblue" stroke="midnightblue" points="350.75,-278.88 342.09,-284.99 352.67,-285.61 350.75,-278.88"/>
</g>
</g>
</svg>
