<?xml version="1.0" encoding="UTF-8" standalone="no"?>
<!DOCTYPE svg PUBLIC "-//W3C//DTD SVG 1.1//EN"
 "http://www.w3.org/Graphics/SVG/1.1/DTD/svg11.dtd">
<!-- Generated by graphviz version 2.49.3 (20211027.1501)
 -->
<!-- Title: NekoEngine/include/NekoEngine/ECS/ComponentManager.hpp Pages: 1 -->
<svg width="633pt" height="285pt"
 viewBox="0.00 0.00 632.50 285.00" xmlns="http://www.w3.org/2000/svg" xmlns:xlink="http://www.w3.org/1999/xlink">
<g id="graph0" class="graph" transform="scale(1 1) rotate(0) translate(4 281)">
<title>NekoEngine/include/NekoEngine/ECS/ComponentManager.hpp</title>
<!-- Node1 -->
<g id="node1" class="node">
<title>Node1</title>
<g id="a_node1"><a xlink:title="Component Manmager class.">
<polygon fill="#bfbfbf" stroke="black" points="231.5,-246.5 231.5,-276.5 434.5,-276.5 434.5,-246.5 231.5,-246.5"/>
<text text-anchor="start" x="239.5" y="-264.5" font-family="Helvetica,sans-Serif" font-size="10.00">NekoEngine/include</text>
<text text-anchor="middle" x="333" y="-253.5" font-family="Helvetica,sans-Serif" font-size="10.00">/NekoEngine/ECS/ComponentManager.hpp</text>
</a>
</g>
</g>
<!-- Node2 -->
<g id="node2" class="node">
<title>Node2</title>
<g id="a_node2"><a xlink:title=" ">
<polygon fill="none" stroke="#bfbfbf" points="0,-118 0,-137 38,-137 38,-118 0,-118"/>
<text text-anchor="middle" x="19" y="-125" font-family="Helvetica,sans-Serif" font-size="10.00">array</text>
</a>
</g>
</g>
<!-- Node1&#45;&gt;Node2 -->
<g id="edge1" class="edge">
<title>Node1&#45;&gt;Node2</title>
<path fill="none" stroke="midnightblue" d="M231.22,-251.87C188.07,-244.94 138.51,-232.46 98,-210 69.12,-193.99 44.2,-164.01 30.43,-145.22"/>
<polygon fill="midnightblue" stroke="midnightblue" points="33.24,-143.13 24.59,-137 27.53,-147.18 33.24,-143.13"/>
</g>
<!-- Node3 -->
<g id="node3" class="node">
<title>Node3</title>
<g id="a_node3"><a xlink:title=" ">
<polygon fill="none" stroke="#bfbfbf" points="56.5,-118 56.5,-137 91.5,-137 91.5,-118 56.5,-118"/>
<text text-anchor="middle" x="74" y="-125" font-family="Helvetica,sans-Serif" font-size="10.00">map</text>
</a>
</g>
</g>
<!-- Node1&#45;&gt;Node3 -->
<g id="edge2" class="edge">
<title>Node1&#45;&gt;Node3</title>
<path fill="none" stroke="midnightblue" d="M231.35,-249.32C197.58,-242.01 161.19,-229.94 132,-210 108.53,-193.97 91.36,-165.12 82.03,-146.4"/>
<polygon fill="midnightblue" stroke="midnightblue" points="85.11,-144.72 77.66,-137.18 78.78,-147.72 85.11,-144.72"/>
</g>
<!-- Node4 -->
<g id="node4" class="node">
<title>Node4</title>
<g id="a_node4"><a xlink:title=" ">
<polygon fill="none" stroke="#bfbfbf" points="397.5,-118 397.5,-137 448.5,-137 448.5,-118 397.5,-118"/>
<text text-anchor="middle" x="423" y="-125" font-family="Helvetica,sans-Serif" font-size="10.00">memory</text>
</a>
</g>
</g>
<!-- Node1&#45;&gt;Node4 -->
<g id="edge3" class="edge">
<title>Node1&#45;&gt;Node4</title>
<path fill="none" stroke="midnightblue" d="M342.63,-246.37C359.27,-221.97 393.34,-172 411.31,-145.65"/>
<polygon fill="midnightblue" stroke="midnightblue" points="414.4,-147.33 417.14,-137.1 408.61,-143.39 414.4,-147.33"/>
</g>
<!-- Node5 -->
<g id="node5" class="node">
<title>Node5</title>
<g id="a_node5"><a xlink:href="_types_8hpp.html" target="_top" xlink:title="NekoEngine types definition.">
<polygon fill="none" stroke="black" points="260.5,-56.5 260.5,-75.5 399.5,-75.5 399.5,-56.5 260.5,-56.5"/>
<text text-anchor="middle" x="330" y="-63.5" font-family="Helvetica,sans-Serif" font-size="10.00">NekoEngine/ECS/Types.hpp</text>
</a>
</g>
</g>
<!-- Node1&#45;&gt;Node5 -->
<g id="edge4" class="edge">
<title>Node1&#45;&gt;Node5</title>
<path fill="none" stroke="midnightblue" d="M361.02,-246.4C408.23,-220.74 495.01,-164.25 458,-112 446.41,-95.64 428.38,-85.18 409.46,-78.51"/>
<polygon fill="midnightblue" stroke="midnightblue" points="410.42,-75.15 399.83,-75.45 408.3,-81.82 410.42,-75.15"/>
</g>
<!-- Node8 -->
<g id="node8" class="node">
<title>Node8</title>
<g id="a_node8"><a xlink:href="_component_array_8hpp.html" target="_top" xlink:title="Component Array template class.">
<polygon fill="none" stroke="black" points="141,-179.5 141,-209.5 285,-209.5 285,-179.5 141,-179.5"/>
<text text-anchor="start" x="149" y="-197.5" font-family="Helvetica,sans-Serif" font-size="10.00">NekoEngine/ECS/Component</text>
<text text-anchor="middle" x="213" y="-186.5" font-family="Helvetica,sans-Serif" font-size="10.00">Array.hpp</text>
</a>
</g>
</g>
<!-- Node1&#45;&gt;Node8 -->
<g id="edge7" class="edge">
<title>Node1&#45;&gt;Node8</title>
<path fill="none" stroke="midnightblue" d="M306.96,-246.4C289.66,-237.03 266.75,-224.62 247.88,-214.39"/>
<polygon fill="midnightblue" stroke="midnightblue" points="249.45,-211.26 238.99,-209.58 246.11,-217.42 249.45,-211.26"/>
</g>
<!-- Node11 -->
<g id="node11" class="node">
<title>Node11</title>
<g id="a_node11"><a xlink:title=" ">
<polygon fill="none" stroke="#bfbfbf" points="505.5,-185 505.5,-204 624.5,-204 624.5,-185 505.5,-185"/>
<text text-anchor="middle" x="565" y="-192" font-family="Helvetica,sans-Serif" font-size="10.00">ComponentManager.tpp</text>
</a>
</g>
</g>
<!-- Node1&#45;&gt;Node11 -->
<g id="edge14" class="edge">
<title>Node1&#45;&gt;Node11</title>
<path fill="none" stroke="midnightblue" d="M383.05,-246.48C425.45,-234.6 485.45,-217.79 524.78,-206.77"/>
<polygon fill="midnightblue" stroke="midnightblue" points="525.87,-210.1 534.56,-204.03 523.99,-203.36 525.87,-210.1"/>
</g>
<!-- Node6 -->
<g id="node6" class="node">
<title>Node6</title>
<g id="a_node6"><a xlink:title=" ">
<polygon fill="none" stroke="#bfbfbf" points="276,-0.5 276,-19.5 322,-19.5 322,-0.5 276,-0.5"/>
<text text-anchor="middle" x="299" y="-7.5" font-family="Helvetica,sans-Serif" font-size="10.00">cstdint</text>
</a>
</g>
</g>
<!-- Node5&#45;&gt;Node6 -->
<g id="edge5" class="edge">
<title>Node5&#45;&gt;Node6</title>
<path fill="none" stroke="midnightblue" d="M324.88,-56.08C320.59,-48.61 314.34,-37.72 309.06,-28.52"/>
<polygon fill="midnightblue" stroke="midnightblue" points="312.04,-26.68 304.02,-19.75 305.97,-30.17 312.04,-26.68"/>
</g>
<!-- Node7 -->
<g id="node7" class="node">
<title>Node7</title>
<g id="a_node7"><a xlink:title=" ">
<polygon fill="none" stroke="#bfbfbf" points="340.5,-0.5 340.5,-19.5 381.5,-19.5 381.5,-0.5 340.5,-0.5"/>
<text text-anchor="middle" x="361" y="-7.5" font-family="Helvetica,sans-Serif" font-size="10.00">bitset</text>
</a>
</g>
</g>
<!-- Node5&#45;&gt;Node7 -->
<g id="edge6" class="edge">
<title>Node5&#45;&gt;Node7</title>
<path fill="none" stroke="midnightblue" d="M335.12,-56.08C339.41,-48.61 345.66,-37.72 350.94,-28.52"/>
<polygon fill="midnightblue" stroke="midnightblue" points="354.03,-30.17 355.98,-19.75 347.96,-26.68 354.03,-30.17"/>
</g>
<!-- Node8&#45;&gt;Node2 -->
<g id="edge8" class="edge">
<title>Node8&#45;&gt;Node2</title>
<path fill="none" stroke="midnightblue" d="M157.93,-179.47C125.19,-170.46 83.13,-157.71 47,-143 45.96,-142.58 44.91,-142.13 43.85,-141.66"/>
<polygon fill="midnightblue" stroke="midnightblue" points="44.99,-138.33 34.46,-137.14 41.95,-144.63 44.99,-138.33"/>
</g>
<!-- Node8&#45;&gt;Node3 -->
<g id="edge9" class="edge">
<title>Node8&#45;&gt;Node3</title>
<path fill="none" stroke="midnightblue" d="M179.51,-179.46C156.83,-169.72 126.32,-156.19 100,-143 99.19,-142.59 98.37,-142.18 97.55,-141.75"/>
<polygon fill="midnightblue" stroke="midnightblue" points="99.19,-138.66 88.73,-137.01 95.88,-144.83 99.19,-138.66"/>
</g>
<!-- Node8&#45;&gt;Node4 -->
<g id="edge10" class="edge">
<title>Node8&#45;&gt;Node4</title>
<path fill="none" stroke="midnightblue" d="M267.49,-179.46C302.28,-170.09 348.16,-156.95 388,-143 389.91,-142.33 391.86,-141.61 393.83,-140.87"/>
<polygon fill="midnightblue" stroke="midnightblue" points="395.52,-143.96 403.53,-137.02 392.94,-137.46 395.52,-143.96"/>
</g>
<!-- Node9 -->
<g id="node9" class="node">
<title>Node9</title>
<g id="a_node9"><a xlink:href="_i_component_array_8hpp.html" target="_top" xlink:title="Interface for the Component Array template class.">
<polygon fill="none" stroke="black" points="109.5,-112.5 109.5,-142.5 256.5,-142.5 256.5,-112.5 109.5,-112.5"/>
<text text-anchor="start" x="117.5" y="-130.5" font-family="Helvetica,sans-Serif" font-size="10.00">NekoEngine/ECS/IComponent</text>
<text text-anchor="middle" x="183" y="-119.5" font-family="Helvetica,sans-Serif" font-size="10.00">Array.hpp</text>
</a>
</g>
</g>
<!-- Node8&#45;&gt;Node9 -->
<g id="edge11" class="edge">
<title>Node8&#45;&gt;Node9</title>
<path fill="none" stroke="midnightblue" d="M206.49,-179.4C202.76,-171.3 197.97,-160.94 193.7,-151.69"/>
<polygon fill="midnightblue" stroke="midnightblue" points="196.87,-150.19 189.5,-142.58 190.51,-153.12 196.87,-150.19"/>
</g>
<!-- Node10 -->
<g id="node10" class="node">
<title>Node10</title>
<g id="a_node10"><a xlink:title=" ">
<polygon fill="none" stroke="#bfbfbf" points="275,-118 275,-137 379,-137 379,-118 275,-118"/>
<text text-anchor="middle" x="327" y="-125" font-family="Helvetica,sans-Serif" font-size="10.00">ComponentArray.tpp</text>
</a>
</g>
</g>
<!-- Node8&#45;&gt;Node10 -->
<g id="edge13" class="edge">
<title>Node8&#45;&gt;Node10</title>
<path fill="none" stroke="midnightblue" d="M237.74,-179.4C257.21,-168.29 284.17,-152.92 303.35,-141.98"/>
<polygon fill="midnightblue" stroke="midnightblue" points="305.13,-145 312.08,-137.01 301.66,-138.92 305.13,-145"/>
</g>
<!-- Node9&#45;&gt;Node5 -->
<g id="edge12" class="edge">
<title>Node9&#45;&gt;Node5</title>
<path fill="none" stroke="midnightblue" d="M217.84,-112.4C242.5,-102.42 275.29,-89.15 299.03,-79.53"/>
<polygon fill="midnightblue" stroke="midnightblue" points="300.65,-82.65 308.61,-75.66 298.03,-76.17 300.65,-82.65"/>
</g>
</g>
</svg>
