<?xml version="1.0" encoding="UTF-8" standalone="no"?>
<!DOCTYPE svg PUBLIC "-//W3C//DTD SVG 1.1//EN"
 "http://www.w3.org/Graphics/SVG/1.1/DTD/svg11.dtd">
<!-- Generated by graphviz version 2.49.3 (20211027.1501)
 -->
<!-- Title: Client/include/CustomClient.hpp Pages: 1 -->
<svg width="3573pt" height="486pt"
 viewBox="0.00 0.00 3573.34 486.00" xmlns="http://www.w3.org/2000/svg" xmlns:xlink="http://www.w3.org/1999/xlink">
<g id="graph0" class="graph" transform="scale(1 1) rotate(0) translate(4 482)">
<title>Client/include/CustomClient.hpp</title>
<!-- Node1 -->
<g id="node1" class="node">
<title>Node1</title>
<g id="a_node1"><a xlink:title=" ">
<polygon fill="#bfbfbf" stroke="black" points="1015.98,-458.5 1015.98,-477.5 1170.98,-477.5 1170.98,-458.5 1015.98,-458.5"/>
<text text-anchor="middle" x="1093.48" y="-465.5" font-family="Helvetica,sans-Serif" font-size="10.00">Client/include/CustomClient.hpp</text>
</a>
</g>
</g>
<!-- Node2 -->
<g id="node2" class="node">
<title>Node2</title>
<g id="a_node2"><a xlink:title=" ">
<polygon fill="none" stroke="#bfbfbf" points="650.48,-397 650.48,-416 754.48,-416 754.48,-397 650.48,-397"/>
<text text-anchor="middle" x="702.48" y="-404" font-family="Helvetica,sans-Serif" font-size="10.00">NyaNet/NyaNet.hpp</text>
</a>
</g>
</g>
<!-- Node1&#45;&gt;Node2 -->
<g id="edge1" class="edge">
<title>Node1&#45;&gt;Node2</title>
<path fill="none" stroke="midnightblue" d="M1015.79,-458.58C948.7,-450.79 849.31,-438.01 763.48,-422 757.72,-420.93 751.69,-419.66 745.75,-418.34"/>
<polygon fill="midnightblue" stroke="midnightblue" points="746.44,-414.9 735.91,-416.07 744.87,-421.73 746.44,-414.9"/>
</g>
<!-- Node3 -->
<g id="node3" class="node">
<title>Node3</title>
<g id="a_node3"><a xlink:href="_neko_engine_8hpp.html" target="_top" xlink:title=" ">
<polygon fill="none" stroke="black" points="772.98,-397 772.98,-416 915.98,-416 915.98,-397 772.98,-397"/>
<text text-anchor="middle" x="844.48" y="-404" font-family="Helvetica,sans-Serif" font-size="10.00">NekoEngine/NekoEngine.hpp</text>
</a>
</g>
</g>
<!-- Node1&#45;&gt;Node3 -->
<g id="edge2" class="edge">
<title>Node1&#45;&gt;Node3</title>
<path fill="none" stroke="midnightblue" d="M1057.8,-458.48C1013.61,-447.92 938.27,-429.91 889.96,-418.37"/>
<polygon fill="midnightblue" stroke="midnightblue" points="890.63,-414.93 880.09,-416.01 889,-421.74 890.63,-414.93"/>
</g>
<!-- Node70 -->
<g id="node45" class="node">
<title>Node70</title>
<g id="a_node45"><a xlink:title=" ">
<polygon fill="none" stroke="#bfbfbf" points="974.98,-391.5 974.98,-421.5 1087.98,-421.5 1087.98,-391.5 974.98,-391.5"/>
<text text-anchor="start" x="982.98" y="-409.5" font-family="Helvetica,sans-Serif" font-size="10.00">../../Game/Ennemies</text>
<text text-anchor="middle" x="1031.48" y="-398.5" font-family="Helvetica,sans-Serif" font-size="10.00">/EnnemiesFactory.hpp</text>
</a>
</g>
</g>
<!-- Node1&#45;&gt;Node70 -->
<g id="edge57" class="edge">
<title>Node1&#45;&gt;Node70</title>
<path fill="none" stroke="midnightblue" d="M1084.6,-458.48C1076.51,-450.72 1064.24,-438.94 1053.53,-428.66"/>
<polygon fill="midnightblue" stroke="midnightblue" points="1055.73,-425.92 1046.09,-421.52 1050.88,-430.97 1055.73,-425.92"/>
</g>
<!-- Node71 -->
<g id="node46" class="node">
<title>Node71</title>
<g id="a_node46"><a xlink:title=" ">
<polygon fill="none" stroke="#bfbfbf" points="1106.48,-391.5 1106.48,-421.5 1206.48,-421.5 1206.48,-391.5 1106.48,-391.5"/>
<text text-anchor="start" x="1114.48" y="-409.5" font-family="Helvetica,sans-Serif" font-size="10.00">../../Game/Bullets</text>
<text text-anchor="middle" x="1156.48" y="-398.5" font-family="Helvetica,sans-Serif" font-size="10.00">/BulletsFactory.hpp</text>
</a>
</g>
</g>
<!-- Node1&#45;&gt;Node71 -->
<g id="edge58" class="edge">
<title>Node1&#45;&gt;Node71</title>
<path fill="none" stroke="midnightblue" d="M1102.51,-458.48C1110.72,-450.72 1123.19,-438.94 1134.07,-428.66"/>
<polygon fill="midnightblue" stroke="midnightblue" points="1136.76,-430.93 1141.63,-421.52 1131.96,-425.84 1136.76,-430.93"/>
</g>
<!-- Node72 -->
<g id="node47" class="node">
<title>Node72</title>
<g id="a_node47"><a xlink:title=" ">
<polygon fill="none" stroke="#bfbfbf" points="1224.48,-397 1224.48,-416 1394.48,-416 1394.48,-397 1224.48,-397"/>
<text text-anchor="middle" x="1309.48" y="-404" font-family="Helvetica,sans-Serif" font-size="10.00">../../Game/Bonus/BonusFactory.hpp</text>
</a>
</g>
</g>
<!-- Node1&#45;&gt;Node72 -->
<g id="edge59" class="edge">
<title>Node1&#45;&gt;Node72</title>
<path fill="none" stroke="midnightblue" d="M1124.43,-458.48C1162.36,-448.03 1226.76,-430.29 1268.7,-418.73"/>
<polygon fill="midnightblue" stroke="midnightblue" points="1269.88,-422.04 1278.59,-416.01 1268.02,-415.29 1269.88,-422.04"/>
</g>
<!-- Node73 -->
<g id="node48" class="node">
<title>Node73</title>
<g id="a_node48"><a xlink:href="_sound_8hpp.html" target="_top" xlink:title=" ">
<polygon fill="none" stroke="black" points="1412.48,-397 1412.48,-416 1474.48,-416 1474.48,-397 1412.48,-397"/>
<text text-anchor="middle" x="1443.48" y="-404" font-family="Helvetica,sans-Serif" font-size="10.00">Sound.hpp</text>
</a>
</g>
</g>
<!-- Node1&#45;&gt;Node73 -->
<g id="edge60" class="edge">
<title>Node1&#45;&gt;Node73</title>
<path fill="none" stroke="midnightblue" d="M1171.09,-460.16C1234.31,-453.54 1325.55,-441.56 1403.48,-422 1406.46,-421.25 1409.54,-420.36 1412.59,-419.4"/>
<polygon fill="midnightblue" stroke="midnightblue" points="1413.8,-422.68 1422.14,-416.14 1411.55,-416.06 1413.8,-422.68"/>
</g>
<!-- Node75 -->
<g id="node50" class="node">
<title>Node75</title>
<g id="a_node50"><a xlink:title=" ">
<polygon fill="none" stroke="#bfbfbf" points="1492.48,-397 1492.48,-416 1628.48,-416 1628.48,-397 1492.48,-397"/>
<text text-anchor="middle" x="1560.48" y="-404" font-family="Helvetica,sans-Serif" font-size="10.00">../../Game/Player/Player.hpp</text>
</a>
</g>
</g>
<!-- Node1&#45;&gt;Node75 -->
<g id="edge62" class="edge">
<title>Node1&#45;&gt;Node75</title>
<path fill="none" stroke="midnightblue" d="M1171.02,-459.7C1249.88,-451.88 1375.49,-438.38 1483.48,-422 1491.51,-420.78 1499.99,-419.34 1508.26,-417.85"/>
<polygon fill="midnightblue" stroke="midnightblue" points="1509.01,-421.27 1518.21,-416.02 1507.74,-414.39 1509.01,-421.27"/>
</g>
<!-- Node4 -->
<g id="node4" class="node">
<title>Node4</title>
<g id="a_node4"><a xlink:href="_neko_exception_8hpp.html" target="_top" xlink:title="Contains the NekoEngine main exception type.">
<polygon fill="none" stroke="black" points="774.98,-257.5 774.98,-287.5 911.98,-287.5 911.98,-257.5 774.98,-257.5"/>
<text text-anchor="start" x="782.98" y="-275.5" font-family="Helvetica,sans-Serif" font-size="10.00">NekoEngine/NekoException</text>
<text text-anchor="middle" x="843.48" y="-264.5" font-family="Helvetica,sans-Serif" font-size="10.00">/NekoException.hpp</text>
</a>
</g>
</g>
<!-- Node3&#45;&gt;Node4 -->
<g id="edge3" class="edge">
<title>Node3&#45;&gt;Node4</title>
<path fill="none" stroke="midnightblue" d="M868.1,-396.99C886.05,-389.13 909.48,-375.52 920.48,-355 926.99,-342.86 927.03,-336.12 920.48,-324 913.32,-310.74 900.99,-300.4 888.28,-292.63"/>
<polygon fill="midnightblue" stroke="midnightblue" points="889.9,-289.52 879.47,-287.65 886.46,-295.62 889.9,-289.52"/>
</g>
<!-- Node6 -->
<g id="node6" class="node">
<title>Node6</title>
<g id="a_node6"><a xlink:href="_neko_window_exception_8hpp.html" target="_top" xlink:title="WindowException handling class inheriting from NekoException.">
<polygon fill="none" stroke="black" points="774.98,-324.5 774.98,-354.5 911.98,-354.5 911.98,-324.5 774.98,-324.5"/>
<text text-anchor="start" x="782.98" y="-342.5" font-family="Helvetica,sans-Serif" font-size="10.00">NekoEngine/Graphics</text>
<text text-anchor="middle" x="843.48" y="-331.5" font-family="Helvetica,sans-Serif" font-size="10.00">/NekoWindowException.hpp</text>
</a>
</g>
</g>
<!-- Node3&#45;&gt;Node6 -->
<g id="edge5" class="edge">
<title>Node3&#45;&gt;Node6</title>
<path fill="none" stroke="midnightblue" d="M844.34,-396.73C844.22,-388.54 844.02,-375.92 843.85,-364.71"/>
<polygon fill="midnightblue" stroke="midnightblue" points="847.35,-364.53 843.7,-354.59 840.35,-364.64 847.35,-364.53"/>
</g>
<!-- Node7 -->
<g id="node7" class="node">
<title>Node7</title>
<g id="a_node7"><a xlink:href="_vector_8hpp.html" target="_top" xlink:title="Contains all headers for all Vector types.">
<polygon fill="none" stroke="black" points="2677.98,-56.5 2677.98,-86.5 2802.98,-86.5 2802.98,-56.5 2677.98,-56.5"/>
<text text-anchor="start" x="2685.98" y="-74.5" font-family="Helvetica,sans-Serif" font-size="10.00">NekoEngine/Math/Vector</text>
<text text-anchor="middle" x="2740.48" y="-63.5" font-family="Helvetica,sans-Serif" font-size="10.00">/Vector.hpp</text>
</a>
</g>
</g>
<!-- Node3&#45;&gt;Node7 -->
<g id="edge7" class="edge">
<title>Node3&#45;&gt;Node7</title>
<path fill="none" stroke="midnightblue" d="M802.58,-396.99C790.05,-394.72 776.25,-392.48 763.48,-391 617.14,-373.99 238.76,-408.49 101.48,-355 48.38,-334.31 2.48,-330.49 2.48,-273.5 2.48,-273.5 2.48,-273.5 2.48,-204.5 2.48,-167.31 -7.44,-146.39 21.48,-123 74.42,-80.18 2241.02,-73.52 2667.89,-72.63"/>
<polygon fill="midnightblue" stroke="midnightblue" points="2667.95,-76.13 2677.95,-72.61 2667.94,-69.13 2667.95,-76.13"/>
</g>
<!-- Node11 -->
<g id="node11" class="node">
<title>Node11</title>
<g id="a_node11"><a xlink:href="_quaternion_8hpp.html" target="_top" xlink:title="Utmost basic implementation of a Quaternion, i.e. just a Vector4.">
<polygon fill="none" stroke="black" points="30.48,-123.5 30.48,-153.5 174.48,-153.5 174.48,-123.5 30.48,-123.5"/>
<text text-anchor="start" x="38.48" y="-141.5" font-family="Helvetica,sans-Serif" font-size="10.00">NekoEngine/Math/Quaternion</text>
<text text-anchor="middle" x="102.48" y="-130.5" font-family="Helvetica,sans-Serif" font-size="10.00">/Quaternion.hpp</text>
</a>
</g>
</g>
<!-- Node3&#45;&gt;Node11 -->
<g id="edge11" class="edge">
<title>Node3&#45;&gt;Node11</title>
<path fill="none" stroke="midnightblue" d="M802.16,-396.93C789.74,-394.69 776.11,-392.48 763.48,-391 693.62,-382.79 188.36,-396.37 131.48,-355 72.14,-311.85 86.19,-210 96.39,-163.46"/>
<polygon fill="midnightblue" stroke="midnightblue" points="99.82,-164.18 98.67,-153.64 93,-162.59 99.82,-164.18"/>
</g>
<!-- Node12 -->
<g id="node12" class="node">
<title>Node12</title>
<g id="a_node12"><a xlink:href="_matrix_8hpp.html" target="_top" xlink:title="Contains Matrix template class.">
<polygon fill="none" stroke="black" points="140.98,-324.5 140.98,-354.5 263.98,-354.5 263.98,-324.5 140.98,-324.5"/>
<text text-anchor="start" x="148.98" y="-342.5" font-family="Helvetica,sans-Serif" font-size="10.00">NekoEngine/Math/Matrix</text>
<text text-anchor="middle" x="202.48" y="-331.5" font-family="Helvetica,sans-Serif" font-size="10.00">/Matrix.hpp</text>
</a>
</g>
</g>
<!-- Node3&#45;&gt;Node12 -->
<g id="edge13" class="edge">
<title>Node3&#45;&gt;Node12</title>
<path fill="none" stroke="midnightblue" d="M800.87,-396.97C788.79,-394.81 775.66,-392.63 763.48,-391 588.37,-367.49 381,-352.01 274.13,-344.94"/>
<polygon fill="midnightblue" stroke="midnightblue" points="274.31,-341.44 264.1,-344.28 273.85,-348.43 274.31,-341.44"/>
</g>
<!-- Node14 -->
<g id="node14" class="node">
<title>Node14</title>
<g id="a_node14"><a xlink:href="_coordinator_8hpp.html" target="_top" xlink:title="Coordinator class.">
<polygon fill="none" stroke="black" points="560.48,-263 560.48,-282 722.48,-282 722.48,-263 560.48,-263"/>
<text text-anchor="middle" x="641.48" y="-270" font-family="Helvetica,sans-Serif" font-size="10.00">NekoEngine/ECS/Coordinator.hpp</text>
</a>
</g>
</g>
<!-- Node3&#45;&gt;Node14 -->
<g id="edge16" class="edge">
<title>Node3&#45;&gt;Node14</title>
<path fill="none" stroke="midnightblue" d="M829.88,-396.86C813.77,-387.17 787.24,-370.75 765.48,-355 747.82,-342.22 745.37,-336.44 727.48,-324 707.81,-310.32 684.28,-296.68 666.8,-287.02"/>
<polygon fill="midnightblue" stroke="midnightblue" points="668.24,-283.82 657.78,-282.1 664.88,-289.96 668.24,-283.82"/>
</g>
<!-- Node33 -->
<g id="node19" class="node">
<title>Node33</title>
<g id="a_node19"><a xlink:href="_scene_8hpp.html" target="_top" xlink:title="Scene class.">
<polygon fill="none" stroke="black" points="564.48,-330 564.48,-349 718.48,-349 718.48,-330 564.48,-330"/>
<text text-anchor="middle" x="641.48" y="-337" font-family="Helvetica,sans-Serif" font-size="10.00">NekoEngine/Scenes/Scene.hpp</text>
</a>
</g>
</g>
<!-- Node3&#45;&gt;Node33 -->
<g id="edge22" class="edge">
<title>Node3&#45;&gt;Node33</title>
<path fill="none" stroke="midnightblue" d="M817.52,-396.87C781.63,-385.38 718.02,-365.01 677.89,-352.16"/>
<polygon fill="midnightblue" stroke="midnightblue" points="678.82,-348.78 668.22,-349.06 676.68,-355.45 678.82,-348.78"/>
</g>
<!-- Node34 -->
<g id="node20" class="node">
<title>Node34</title>
<g id="a_node20"><a xlink:href="_components_8hpp.html" target="_top" xlink:title="Components.">
<polygon fill="none" stroke="black" points="2196.98,-257.5 2196.98,-287.5 2345.98,-287.5 2345.98,-257.5 2196.98,-257.5"/>
<text text-anchor="start" x="2204.98" y="-275.5" font-family="Helvetica,sans-Serif" font-size="10.00">NekoEngine/ECS/Components</text>
<text text-anchor="middle" x="2271.48" y="-264.5" font-family="Helvetica,sans-Serif" font-size="10.00">/Components.hpp</text>
</a>
</g>
</g>
<!-- Node3&#45;&gt;Node34 -->
<g id="edge24" class="edge">
<title>Node3&#45;&gt;Node34</title>
<path fill="none" stroke="midnightblue" d="M908.91,-396.98C1016.13,-382.78 1219.69,-355.76 1221.48,-355 1241.85,-346.33 1239.76,-331.82 1260.48,-324 1345.9,-291.77 1958.82,-278.59 2186.56,-274.77"/>
<polygon fill="midnightblue" stroke="midnightblue" points="2186.84,-278.26 2196.78,-274.6 2186.73,-271.27 2186.84,-278.26"/>
</g>
<!-- Node56 -->
<g id="node39" class="node">
<title>Node56</title>
<g id="a_node39"><a xlink:href="_systems_8hpp.html" target="_top" xlink:title="Systems.">
<polygon fill="none" stroke="red" points="1079.98,-324.5 1079.98,-354.5 1212.98,-354.5 1212.98,-324.5 1079.98,-324.5"/>
<text text-anchor="start" x="1087.98" y="-342.5" font-family="Helvetica,sans-Serif" font-size="10.00">NekoEngine/ECS/Systems</text>
<text text-anchor="middle" x="1146.48" y="-331.5" font-family="Helvetica,sans-Serif" font-size="10.00">/Systems.hpp</text>
</a>
</g>
</g>
<!-- Node3&#45;&gt;Node56 -->
<g id="edge48" class="edge">
<title>Node3&#45;&gt;Node56</title>
<path fill="none" stroke="midnightblue" d="M884.27,-396.94C931.66,-386.74 1011.85,-369.48 1071.1,-356.72"/>
<polygon fill="midnightblue" stroke="midnightblue" points="1072.12,-360.09 1081.16,-354.56 1070.65,-353.24 1072.12,-360.09"/>
</g>
<!-- Node69 -->
<g id="node44" class="node">
<title>Node69</title>
<g id="a_node44"><a xlink:href="_window_8hpp.html" target="_top" xlink:title="Contains the NekoEngine Window class wrapper.">
<polygon fill="none" stroke="black" points="1269.98,-324.5 1269.98,-354.5 1380.98,-354.5 1380.98,-324.5 1269.98,-324.5"/>
<text text-anchor="start" x="1277.98" y="-342.5" font-family="Helvetica,sans-Serif" font-size="10.00">NekoEngine/Graphics</text>
<text text-anchor="middle" x="1325.48" y="-331.5" font-family="Helvetica,sans-Serif" font-size="10.00">/Window.hpp</text>
</a>
</g>
</g>
<!-- Node3&#45;&gt;Node69 -->
<g id="edge53" class="edge">
<title>Node3&#45;&gt;Node69</title>
<path fill="none" stroke="midnightblue" d="M893.28,-396.99C906.02,-394.9 919.75,-392.76 932.48,-391 1075.57,-371.25 1112.83,-377.67 1255.48,-355 1256.93,-354.77 1258.41,-354.53 1259.89,-354.28"/>
<polygon fill="midnightblue" stroke="midnightblue" points="1260.54,-357.72 1269.78,-352.53 1259.32,-350.82 1260.54,-357.72"/>
</g>
<!-- Node5 -->
<g id="node5" class="node">
<title>Node5</title>
<g id="a_node5"><a xlink:title=" ">
<polygon fill="none" stroke="#bfbfbf" points="885.98,-196 885.98,-215 926.98,-215 926.98,-196 885.98,-196"/>
<text text-anchor="middle" x="906.48" y="-203" font-family="Helvetica,sans-Serif" font-size="10.00">string</text>
</a>
</g>
</g>
<!-- Node4&#45;&gt;Node5 -->
<g id="edge4" class="edge">
<title>Node4&#45;&gt;Node5</title>
<path fill="none" stroke="midnightblue" d="M857.15,-257.4C867.07,-247.16 880.51,-233.3 890.85,-222.62"/>
<polygon fill="midnightblue" stroke="midnightblue" points="893.61,-224.81 898.05,-215.19 888.58,-219.94 893.61,-224.81"/>
</g>
<!-- Node6&#45;&gt;Node4 -->
<g id="edge6" class="edge">
<title>Node6&#45;&gt;Node4</title>
<path fill="none" stroke="midnightblue" d="M843.48,-324.4C843.48,-316.64 843.48,-306.81 843.48,-297.86"/>
<polygon fill="midnightblue" stroke="midnightblue" points="846.98,-297.58 843.48,-287.58 839.98,-297.58 846.98,-297.58"/>
</g>
<!-- Node8 -->
<g id="node8" class="node">
<title>Node8</title>
<g id="a_node8"><a xlink:href="_vector2_8hpp.html" target="_top" xlink:title="Contains Vector2 template class.">
<polygon fill="none" stroke="black" points="2620.48,-0.5 2620.48,-19.5 2688.48,-19.5 2688.48,-0.5 2620.48,-0.5"/>
<text text-anchor="middle" x="2654.48" y="-7.5" font-family="Helvetica,sans-Serif" font-size="10.00">Vector2.hpp</text>
</a>
</g>
</g>
<!-- Node7&#45;&gt;Node8 -->
<g id="edge8" class="edge">
<title>Node7&#45;&gt;Node8</title>
<path fill="none" stroke="midnightblue" d="M2720.1,-56.4C2706.57,-47.04 2688.87,-34.79 2675.26,-25.38"/>
<polygon fill="midnightblue" stroke="midnightblue" points="2677.21,-22.47 2666.99,-19.66 2673.23,-28.23 2677.21,-22.47"/>
</g>
<!-- Node9 -->
<g id="node9" class="node">
<title>Node9</title>
<g id="a_node9"><a xlink:href="_vector3_8hpp.html" target="_top" xlink:title="Contains Vector3 template class.">
<polygon fill="none" stroke="black" points="2706.48,-0.5 2706.48,-19.5 2774.48,-19.5 2774.48,-0.5 2706.48,-0.5"/>
<text text-anchor="middle" x="2740.48" y="-7.5" font-family="Helvetica,sans-Serif" font-size="10.00">Vector3.hpp</text>
</a>
</g>
</g>
<!-- Node7&#45;&gt;Node9 -->
<g id="edge9" class="edge">
<title>Node7&#45;&gt;Node9</title>
<path fill="none" stroke="midnightblue" d="M2740.48,-56.4C2740.48,-48.47 2740.48,-38.46 2740.48,-29.86"/>
<polygon fill="midnightblue" stroke="midnightblue" points="2743.98,-29.66 2740.48,-19.66 2736.98,-29.66 2743.98,-29.66"/>
</g>
<!-- Node10 -->
<g id="node10" class="node">
<title>Node10</title>
<g id="a_node10"><a xlink:href="_vector4_8hpp.html" target="_top" xlink:title="Contains Vector4 template class.">
<polygon fill="none" stroke="black" points="2792.48,-0.5 2792.48,-19.5 2860.48,-19.5 2860.48,-0.5 2792.48,-0.5"/>
<text text-anchor="middle" x="2826.48" y="-7.5" font-family="Helvetica,sans-Serif" font-size="10.00">Vector4.hpp</text>
</a>
</g>
</g>
<!-- Node7&#45;&gt;Node10 -->
<g id="edge10" class="edge">
<title>Node7&#45;&gt;Node10</title>
<path fill="none" stroke="midnightblue" d="M2760.86,-56.4C2774.39,-47.04 2792.09,-34.79 2805.7,-25.38"/>
<polygon fill="midnightblue" stroke="midnightblue" points="2807.73,-28.23 2813.97,-19.66 2803.75,-22.47 2807.73,-28.23"/>
</g>
<!-- Node11&#45;&gt;Node7 -->
<g id="edge12" class="edge">
<title>Node11&#45;&gt;Node7</title>
<path fill="none" stroke="midnightblue" d="M174.64,-124.54C179.31,-123.95 183.96,-123.42 188.48,-123 688.72,-76.14 2305.04,-72.67 2667.77,-72.49"/>
<polygon fill="midnightblue" stroke="midnightblue" points="2667.89,-75.99 2677.88,-72.49 2667.88,-68.99 2667.89,-75.99"/>
</g>
<!-- Node12&#45;&gt;Node7 -->
<g id="edge14" class="edge">
<title>Node12&#45;&gt;Node7</title>
<path fill="none" stroke="midnightblue" d="M199.14,-324.46C192.97,-294.64 183.65,-224.89 221.48,-190 313.78,-104.86 2264.39,-77.95 2667.85,-73.28"/>
<polygon fill="midnightblue" stroke="midnightblue" points="2667.97,-76.78 2677.93,-73.17 2667.89,-69.78 2667.97,-76.78"/>
</g>
<!-- Node13 -->
<g id="node13" class="node">
<title>Node13</title>
<g id="a_node13"><a xlink:title=" ">
<polygon fill="none" stroke="#bfbfbf" points="114.98,-263 114.98,-282 173.98,-282 173.98,-263 114.98,-263"/>
<text text-anchor="middle" x="144.48" y="-270" font-family="Helvetica,sans-Serif" font-size="10.00">Matrix.tpp</text>
</a>
</g>
</g>
<!-- Node12&#45;&gt;Node13 -->
<g id="edge15" class="edge">
<title>Node12&#45;&gt;Node13</title>
<path fill="none" stroke="midnightblue" d="M189.89,-324.4C180.85,-314.26 168.63,-300.57 159.15,-289.94"/>
<polygon fill="midnightblue" stroke="midnightblue" points="161.51,-287.33 152.24,-282.19 156.28,-291.99 161.51,-287.33"/>
</g>
<!-- Node15 -->
<g id="node15" class="node">
<title>Node15</title>
<g id="a_node15"><a xlink:href="_component_manager_8hpp.html" target="_top" xlink:title="Component Manmager class.">
<polygon fill="none" stroke="red" points="330.48,-190.5 330.48,-220.5 474.48,-220.5 474.48,-190.5 330.48,-190.5"/>
<text text-anchor="start" x="338.48" y="-208.5" font-family="Helvetica,sans-Serif" font-size="10.00">NekoEngine/ECS/Component</text>
<text text-anchor="middle" x="402.48" y="-197.5" font-family="Helvetica,sans-Serif" font-size="10.00">Manager.hpp</text>
</a>
</g>
</g>
<!-- Node14&#45;&gt;Node15 -->
<g id="edge17" class="edge">
<title>Node14&#45;&gt;Node15</title>
<path fill="none" stroke="midnightblue" d="M609.74,-262.87C572.64,-252.78 510.37,-235.84 463.76,-223.16"/>
<polygon fill="midnightblue" stroke="midnightblue" points="464.63,-219.78 454.06,-220.53 462.79,-226.53 464.63,-219.78"/>
</g>
<!-- Node26 -->
<g id="node16" class="node">
<title>Node26</title>
<g id="a_node16"><a xlink:href="_entity_manager_8hpp.html" target="_top" xlink:title="Entities are fun.">
<polygon fill="none" stroke="red" points="492.48,-196 492.48,-215 666.48,-215 666.48,-196 492.48,-196"/>
<text text-anchor="middle" x="579.48" y="-203" font-family="Helvetica,sans-Serif" font-size="10.00">NekoEngine/ECS/EntityManager.hpp</text>
</a>
</g>
</g>
<!-- Node14&#45;&gt;Node26 -->
<g id="edge18" class="edge">
<title>Node14&#45;&gt;Node26</title>
<path fill="none" stroke="midnightblue" d="M633.12,-262.73C623.36,-252.5 607.01,-235.36 594.92,-222.69"/>
<polygon fill="midnightblue" stroke="midnightblue" points="597.14,-219.95 587.71,-215.13 592.08,-224.78 597.14,-219.95"/>
</g>
<!-- Node28 -->
<g id="node17" class="node">
<title>Node28</title>
<g id="a_node17"><a xlink:href="_system_manager_8hpp.html" target="_top" xlink:title=" ">
<polygon fill="none" stroke="red" points="684.98,-196 684.98,-215 867.98,-215 867.98,-196 684.98,-196"/>
<text text-anchor="middle" x="776.48" y="-203" font-family="Helvetica,sans-Serif" font-size="10.00">NekoEngine/ECS/SystemManager.hpp</text>
</a>
</g>
</g>
<!-- Node14&#45;&gt;Node28 -->
<g id="edge19" class="edge">
<title>Node14&#45;&gt;Node28</title>
<path fill="none" stroke="midnightblue" d="M654.65,-262.87C675.46,-251.7 715.83,-232.15 744.49,-219.26"/>
<polygon fill="midnightblue" stroke="midnightblue" points="745.99,-222.42 753.71,-215.17 743.15,-216.02 745.99,-222.42"/>
</g>
<!-- Node32 -->
<g id="node18" class="node">
<title>Node32</title>
<g id="a_node18"><a xlink:title=" ">
<polygon fill="none" stroke="#bfbfbf" points="230.48,-196 230.48,-215 312.48,-215 312.48,-196 230.48,-196"/>
<text text-anchor="middle" x="271.48" y="-203" font-family="Helvetica,sans-Serif" font-size="10.00">Coordinator.tpp</text>
</a>
</g>
</g>
<!-- Node14&#45;&gt;Node32 -->
<g id="edge21" class="edge">
<title>Node14&#45;&gt;Node32</title>
<path fill="none" stroke="midnightblue" d="M571.09,-262.98C505.93,-254.48 406.57,-239.97 321.48,-221 317.26,-220.06 312.87,-218.96 308.53,-217.81"/>
<polygon fill="midnightblue" stroke="midnightblue" points="309.14,-214.34 298.57,-215.03 307.26,-221.08 309.14,-214.34"/>
</g>
<!-- Node28&#45;&gt;Node14 -->
<g id="edge20" class="edge">
<title>Node28&#45;&gt;Node14</title>
<path fill="none" stroke="midnightblue" d="M763.25,-215.17C742.39,-226.35 702.01,-245.91 673.38,-258.78"/>
<polygon fill="midnightblue" stroke="midnightblue" points="671.89,-255.61 664.17,-262.87 674.73,-262.01 671.89,-255.61"/>
</g>
<!-- Node33&#45;&gt;Node14 -->
<g id="edge23" class="edge">
<title>Node33&#45;&gt;Node14</title>
<path fill="none" stroke="midnightblue" d="M641.48,-329.73C641.48,-320.18 641.48,-304.62 641.48,-292.28"/>
<polygon fill="midnightblue" stroke="midnightblue" points="644.98,-292.13 641.48,-282.13 637.98,-292.13 644.98,-292.13"/>
</g>
<!-- Node35 -->
<g id="node21" class="node">
<title>Node35</title>
<g id="a_node21"><a xlink:href="_transform_8hpp.html" target="_top" xlink:title="Transform component.">
<polygon fill="none" stroke="black" points="2818.98,-123.5 2818.98,-153.5 2967.98,-153.5 2967.98,-123.5 2818.98,-123.5"/>
<text text-anchor="start" x="2826.98" y="-141.5" font-family="Helvetica,sans-Serif" font-size="10.00">NekoEngine/ECS/Components</text>
<text text-anchor="middle" x="2893.48" y="-130.5" font-family="Helvetica,sans-Serif" font-size="10.00">/Transform.hpp</text>
</a>
</g>
</g>
<!-- Node34&#45;&gt;Node35 -->
<g id="edge25" class="edge">
<title>Node34&#45;&gt;Node35</title>
<path fill="none" stroke="midnightblue" d="M2346.18,-271.77C2519.04,-271.62 2935.14,-266.47 2977.48,-221 2998.34,-198.6 2965.57,-174.34 2935.06,-158.17"/>
<polygon fill="midnightblue" stroke="midnightblue" points="2936.64,-155.05 2926.14,-153.63 2933.46,-161.29 2936.64,-155.05"/>
</g>
<!-- Node36 -->
<g id="node22" class="node">
<title>Node36</title>
<g id="a_node22"><a xlink:href="_timer_8hpp.html" target="_top" xlink:title="Timer component.">
<polygon fill="none" stroke="red" points="3060.98,-190.5 3060.98,-220.5 3209.98,-220.5 3209.98,-190.5 3060.98,-190.5"/>
<text text-anchor="start" x="3068.98" y="-208.5" font-family="Helvetica,sans-Serif" font-size="10.00">NekoEngine/ECS/Components</text>
<text text-anchor="middle" x="3135.48" y="-197.5" font-family="Helvetica,sans-Serif" font-size="10.00">/Timer.hpp</text>
</a>
</g>
</g>
<!-- Node34&#45;&gt;Node36 -->
<g id="edge27" class="edge">
<title>Node34&#45;&gt;Node36</title>
<path fill="none" stroke="midnightblue" d="M2346.07,-269.09C2484.62,-264.06 2790.96,-250.41 3047.48,-221 3048.56,-220.88 3049.64,-220.75 3050.73,-220.62"/>
<polygon fill="midnightblue" stroke="midnightblue" points="3051.18,-224.09 3060.66,-219.34 3050.29,-217.15 3051.18,-224.09"/>
</g>
<!-- Node38 -->
<g id="node23" class="node">
<title>Node38</title>
<g id="a_node23"><a xlink:href="_renderable_8hpp.html" target="_top" xlink:title="Renderable component.">
<polygon fill="none" stroke="black" points="3227.98,-190.5 3227.98,-220.5 3376.98,-220.5 3376.98,-190.5 3227.98,-190.5"/>
<text text-anchor="start" x="3235.98" y="-208.5" font-family="Helvetica,sans-Serif" font-size="10.00">NekoEngine/ECS/Components</text>
<text text-anchor="middle" x="3302.48" y="-197.5" font-family="Helvetica,sans-Serif" font-size="10.00">/Renderable.hpp</text>
</a>
</g>
</g>
<!-- Node34&#45;&gt;Node38 -->
<g id="edge28" class="edge">
<title>Node34&#45;&gt;Node38</title>
<path fill="none" stroke="midnightblue" d="M2346.09,-270.56C2504.79,-267.9 2887.68,-257.99 3217.65,-221.12"/>
<polygon fill="midnightblue" stroke="midnightblue" points="3218.34,-224.56 3227.88,-219.97 3217.55,-217.61 3218.34,-224.56"/>
</g>
<!-- Node39 -->
<g id="node24" class="node">
<title>Node39</title>
<g id="a_node24"><a xlink:href="_color_8hpp.html" target="_top" xlink:title="Color component.">
<polygon fill="none" stroke="red" points="3394.98,-190.5 3394.98,-220.5 3543.98,-220.5 3543.98,-190.5 3394.98,-190.5"/>
<text text-anchor="start" x="3402.98" y="-208.5" font-family="Helvetica,sans-Serif" font-size="10.00">NekoEngine/ECS/Components</text>
<text text-anchor="middle" x="3469.48" y="-197.5" font-family="Helvetica,sans-Serif" font-size="10.00">/Color.hpp</text>
</a>
</g>
</g>
<!-- Node34&#45;&gt;Node39 -->
<g id="edge29" class="edge">
<title>Node34&#45;&gt;Node39</title>
<path fill="none" stroke="midnightblue" d="M2346.11,-271.4C2524.25,-270.47 2988.4,-263.84 3384.66,-221.11"/>
<polygon fill="midnightblue" stroke="midnightblue" points="3385.32,-224.56 3394.89,-219.99 3384.57,-217.6 3385.32,-224.56"/>
</g>
<!-- Node40 -->
<g id="node25" class="node">
<title>Node40</title>
<g id="a_node25"><a xlink:href="_rigid_body_8hpp.html" target="_top" xlink:title="RigidBody component.">
<polygon fill="none" stroke="black" points="2614.98,-123.5 2614.98,-153.5 2763.98,-153.5 2763.98,-123.5 2614.98,-123.5"/>
<text text-anchor="start" x="2622.98" y="-141.5" font-family="Helvetica,sans-Serif" font-size="10.00">NekoEngine/ECS/Components</text>
<text text-anchor="middle" x="2689.48" y="-130.5" font-family="Helvetica,sans-Serif" font-size="10.00">/RigidBody.hpp</text>
</a>
</g>
</g>
<!-- Node34&#45;&gt;Node40 -->
<g id="edge30" class="edge">
<title>Node34&#45;&gt;Node40</title>
<path fill="none" stroke="midnightblue" d="M2346.19,-269.4C2479.1,-264.9 2745.39,-252.06 2773.48,-221 2793.92,-198.4 2761.58,-174.3 2731.28,-158.23"/>
<polygon fill="midnightblue" stroke="midnightblue" points="2732.51,-154.92 2722.01,-153.5 2729.33,-161.16 2732.51,-154.92"/>
</g>
<!-- Node41 -->
<g id="node26" class="node">
<title>Node41</title>
<g id="a_node26"><a xlink:href="_gravity_8hpp.html" target="_top" xlink:title="Gravity component.">
<polygon fill="none" stroke="black" points="2985.98,-123.5 2985.98,-153.5 3134.98,-153.5 3134.98,-123.5 2985.98,-123.5"/>
<text text-anchor="start" x="2993.98" y="-141.5" font-family="Helvetica,sans-Serif" font-size="10.00">NekoEngine/ECS/Components</text>
<text text-anchor="middle" x="3060.48" y="-130.5" font-family="Helvetica,sans-Serif" font-size="10.00">/Gravity.hpp</text>
</a>
</g>
</g>
<!-- Node34&#45;&gt;Node41 -->
<g id="edge32" class="edge">
<title>Node34&#45;&gt;Node41</title>
<path fill="none" stroke="midnightblue" d="M2346.25,-269.64C2519.51,-264.86 2938.05,-250.37 2994.48,-221 3019.05,-208.21 3037.72,-181.85 3048.83,-162.56"/>
<polygon fill="midnightblue" stroke="midnightblue" points="3051.92,-164.19 3053.67,-153.74 3045.79,-160.82 3051.92,-164.19"/>
</g>
<!-- Node42 -->
<g id="node27" class="node">
<title>Node42</title>
<g id="a_node27"><a xlink:href="_skin_8hpp.html" target="_top" xlink:title="Skin component.">
<polygon fill="none" stroke="red" points="944.98,-190.5 944.98,-220.5 1093.98,-220.5 1093.98,-190.5 944.98,-190.5"/>
<text text-anchor="start" x="952.98" y="-208.5" font-family="Helvetica,sans-Serif" font-size="10.00">NekoEngine/ECS/Components</text>
<text text-anchor="middle" x="1019.48" y="-197.5" font-family="Helvetica,sans-Serif" font-size="10.00">/Skin.hpp</text>
</a>
</g>
</g>
<!-- Node34&#45;&gt;Node42 -->
<g id="edge34" class="edge">
<title>Node34&#45;&gt;Node42</title>
<path fill="none" stroke="midnightblue" d="M2196.69,-271.63C2012.45,-271.22 1521.95,-265.73 1104.23,-221.1"/>
<polygon fill="midnightblue" stroke="midnightblue" points="1104.39,-217.59 1094.07,-220 1103.64,-224.55 1104.39,-217.59"/>
</g>
<!-- Node44 -->
<g id="node28" class="node">
<title>Node44</title>
<g id="a_node28"><a xlink:href="_networkable_8hpp.html" target="_top" xlink:title="Networkable component.">
<polygon fill="none" stroke="black" points="1111.98,-190.5 1111.98,-220.5 1260.98,-220.5 1260.98,-190.5 1111.98,-190.5"/>
<text text-anchor="start" x="1119.98" y="-208.5" font-family="Helvetica,sans-Serif" font-size="10.00">NekoEngine/ECS/Components</text>
<text text-anchor="middle" x="1186.48" y="-197.5" font-family="Helvetica,sans-Serif" font-size="10.00">/Networkable.hpp</text>
</a>
</g>
</g>
<!-- Node34&#45;&gt;Node44 -->
<g id="edge35" class="edge">
<title>Node34&#45;&gt;Node44</title>
<path fill="none" stroke="midnightblue" d="M2196.75,-270.86C2031.49,-268.77 1622.47,-259.87 1271.19,-221.1"/>
<polygon fill="midnightblue" stroke="midnightblue" points="1271.4,-217.6 1261.07,-219.98 1270.63,-224.56 1271.4,-217.6"/>
</g>
<!-- Node45 -->
<g id="node29" class="node">
<title>Node45</title>
<g id="a_node29"><a xlink:href="_uid_8hpp.html" target="_top" xlink:title="Uid component.">
<polygon fill="none" stroke="red" points="1278.98,-190.5 1278.98,-220.5 1427.98,-220.5 1427.98,-190.5 1278.98,-190.5"/>
<text text-anchor="start" x="1286.98" y="-208.5" font-family="Helvetica,sans-Serif" font-size="10.00">NekoEngine/ECS/Components</text>
<text text-anchor="middle" x="1353.48" y="-197.5" font-family="Helvetica,sans-Serif" font-size="10.00">/Uid.hpp</text>
</a>
</g>
</g>
<!-- Node34&#45;&gt;Node45 -->
<g id="edge36" class="edge">
<title>Node34&#45;&gt;Node45</title>
<path fill="none" stroke="midnightblue" d="M2196.76,-269.74C2052.24,-265.74 1724.27,-253.71 1438.23,-220.99"/>
<polygon fill="midnightblue" stroke="midnightblue" points="1438.41,-217.49 1428.07,-219.82 1437.6,-224.44 1438.41,-217.49"/>
</g>
<!-- Node46 -->
<g id="node30" class="node">
<title>Node46</title>
<g id="a_node30"><a xlink:href="_hostile_8hpp.html" target="_top" xlink:title=" ">
<polygon fill="none" stroke="black" points="1445.98,-190.5 1445.98,-220.5 1594.98,-220.5 1594.98,-190.5 1445.98,-190.5"/>
<text text-anchor="start" x="1453.98" y="-208.5" font-family="Helvetica,sans-Serif" font-size="10.00">NekoEngine/ECS/Components</text>
<text text-anchor="middle" x="1520.48" y="-197.5" font-family="Helvetica,sans-Serif" font-size="10.00">/Hostile.hpp</text>
</a>
</g>
</g>
<!-- Node34&#45;&gt;Node46 -->
<g id="edge37" class="edge">
<title>Node34&#45;&gt;Node46</title>
<path fill="none" stroke="midnightblue" d="M2196.73,-268.17C2075,-262.23 1826.23,-247.96 1605.25,-221.01"/>
<polygon fill="midnightblue" stroke="midnightblue" points="1605.43,-217.51 1595.08,-219.76 1604.58,-224.45 1605.43,-217.51"/>
</g>
<!-- Node47 -->
<g id="node31" class="node">
<title>Node47</title>
<g id="a_node31"><a xlink:href="_but_8hpp.html" target="_top" xlink:title=" ">
<polygon fill="none" stroke="black" points="1612.98,-190.5 1612.98,-220.5 1761.98,-220.5 1761.98,-190.5 1612.98,-190.5"/>
<text text-anchor="start" x="1620.98" y="-208.5" font-family="Helvetica,sans-Serif" font-size="10.00">NekoEngine/ECS/Components</text>
<text text-anchor="middle" x="1687.48" y="-197.5" font-family="Helvetica,sans-Serif" font-size="10.00">/But.hpp</text>
</a>
</g>
</g>
<!-- Node34&#45;&gt;Node47 -->
<g id="edge38" class="edge">
<title>Node34&#45;&gt;Node47</title>
<path fill="none" stroke="midnightblue" d="M2196.74,-265.6C2100.93,-257.67 1929.46,-242.23 1772.41,-221.06"/>
<polygon fill="midnightblue" stroke="midnightblue" points="1772.47,-217.54 1762.09,-219.66 1771.53,-224.47 1772.47,-217.54"/>
</g>
<!-- Node48 -->
<g id="node32" class="node">
<title>Node48</title>
<g id="a_node32"><a xlink:href="_textinfo_8hpp.html" target="_top" xlink:title=" ">
<polygon fill="none" stroke="red" points="1779.98,-190.5 1779.98,-220.5 1928.98,-220.5 1928.98,-190.5 1779.98,-190.5"/>
<text text-anchor="start" x="1787.98" y="-208.5" font-family="Helvetica,sans-Serif" font-size="10.00">NekoEngine/ECS/Components</text>
<text text-anchor="middle" x="1854.48" y="-197.5" font-family="Helvetica,sans-Serif" font-size="10.00">/Textinfo.hpp</text>
</a>
</g>
</g>
<!-- Node34&#45;&gt;Node48 -->
<g id="edge39" class="edge">
<title>Node34&#45;&gt;Node48</title>
<path fill="none" stroke="midnightblue" d="M2196.69,-260.6C2131.46,-251 2034.02,-236.4 1939.18,-221.09"/>
<polygon fill="midnightblue" stroke="midnightblue" points="1939.55,-217.61 1929.12,-219.47 1938.43,-224.52 1939.55,-217.61"/>
</g>
<!-- Node49 -->
<g id="node33" class="node">
<title>Node49</title>
<g id="a_node33"><a xlink:href="_patterns_8hpp.html" target="_top" xlink:title="Patterns component.">
<polygon fill="none" stroke="red" points="2818.98,-190.5 2818.98,-220.5 2967.98,-220.5 2967.98,-190.5 2818.98,-190.5"/>
<text text-anchor="start" x="2826.98" y="-208.5" font-family="Helvetica,sans-Serif" font-size="10.00">NekoEngine/ECS/Components</text>
<text text-anchor="middle" x="2893.48" y="-197.5" font-family="Helvetica,sans-Serif" font-size="10.00">/Patterns.hpp</text>
</a>
</g>
</g>
<!-- Node34&#45;&gt;Node49 -->
<g id="edge40" class="edge">
<title>Node34&#45;&gt;Node49</title>
<path fill="none" stroke="midnightblue" d="M2346.39,-266.06C2449.86,-258.16 2642.25,-242.14 2805.48,-221 2806.55,-220.86 2807.64,-220.72 2808.72,-220.57"/>
<polygon fill="midnightblue" stroke="midnightblue" points="2809.22,-224.04 2818.64,-219.19 2808.25,-217.11 2809.22,-224.04"/>
</g>
<!-- Node51 -->
<g id="node34" class="node">
<title>Node51</title>
<g id="a_node34"><a xlink:href="_alien_8hpp.html" target="_top" xlink:title="Alien component.">
<polygon fill="none" stroke="black" points="1946.98,-190.5 1946.98,-220.5 2095.98,-220.5 2095.98,-190.5 1946.98,-190.5"/>
<text text-anchor="start" x="1954.98" y="-208.5" font-family="Helvetica,sans-Serif" font-size="10.00">NekoEngine/ECS/Components</text>
<text text-anchor="middle" x="2021.48" y="-197.5" font-family="Helvetica,sans-Serif" font-size="10.00">/Alien.hpp</text>
</a>
</g>
</g>
<!-- Node34&#45;&gt;Node51 -->
<g id="edge43" class="edge">
<title>Node34&#45;&gt;Node51</title>
<path fill="none" stroke="midnightblue" d="M2217.54,-257.48C2178.82,-247.41 2126.48,-233.8 2085.61,-223.17"/>
<polygon fill="midnightblue" stroke="midnightblue" points="2086.31,-219.74 2075.75,-220.61 2084.55,-226.51 2086.31,-219.74"/>
</g>
<!-- Node52 -->
<g id="node35" class="node">
<title>Node52</title>
<g id="a_node35"><a xlink:href="_entity_type_8hpp.html" target="_top" xlink:title=" ">
<polygon fill="none" stroke="black" points="2113.98,-190.5 2113.98,-220.5 2262.98,-220.5 2262.98,-190.5 2113.98,-190.5"/>
<text text-anchor="start" x="2121.98" y="-208.5" font-family="Helvetica,sans-Serif" font-size="10.00">NekoEngine/ECS/Components</text>
<text text-anchor="middle" x="2188.48" y="-197.5" font-family="Helvetica,sans-Serif" font-size="10.00">/EntityType.hpp</text>
</a>
</g>
</g>
<!-- Node34&#45;&gt;Node52 -->
<g id="edge44" class="edge">
<title>Node34&#45;&gt;Node52</title>
<path fill="none" stroke="midnightblue" d="M2253.47,-257.4C2242.05,-248.45 2227.09,-236.74 2214.4,-226.8"/>
<polygon fill="midnightblue" stroke="midnightblue" points="2216.48,-223.99 2206.45,-220.58 2212.17,-229.5 2216.48,-223.99"/>
</g>
<!-- Node53 -->
<g id="node36" class="node">
<title>Node53</title>
<g id="a_node36"><a xlink:href="_gorb_background_8hpp.html" target="_top" xlink:title=" ">
<polygon fill="none" stroke="black" points="2280.98,-190.5 2280.98,-220.5 2429.98,-220.5 2429.98,-190.5 2280.98,-190.5"/>
<text text-anchor="start" x="2288.98" y="-208.5" font-family="Helvetica,sans-Serif" font-size="10.00">NekoEngine/ECS/Components</text>
<text text-anchor="middle" x="2355.48" y="-197.5" font-family="Helvetica,sans-Serif" font-size="10.00">/GorbBackground.hpp</text>
</a>
</g>
</g>
<!-- Node34&#45;&gt;Node53 -->
<g id="edge45" class="edge">
<title>Node34&#45;&gt;Node53</title>
<path fill="none" stroke="midnightblue" d="M2289.71,-257.4C2301.26,-248.45 2316.4,-236.74 2329.24,-226.8"/>
<polygon fill="midnightblue" stroke="midnightblue" points="2331.52,-229.46 2337.29,-220.58 2327.24,-223.93 2331.52,-229.46"/>
</g>
<!-- Node54 -->
<g id="node37" class="node">
<title>Node54</title>
<g id="a_node37"><a xlink:href="_animation_8hpp.html" target="_top" xlink:title=" ">
<polygon fill="none" stroke="black" points="2447.98,-190.5 2447.98,-220.5 2596.98,-220.5 2596.98,-190.5 2447.98,-190.5"/>
<text text-anchor="start" x="2455.98" y="-208.5" font-family="Helvetica,sans-Serif" font-size="10.00">NekoEngine/ECS/Components</text>
<text text-anchor="middle" x="2522.48" y="-197.5" font-family="Helvetica,sans-Serif" font-size="10.00">/Animation.hpp</text>
</a>
</g>
</g>
<!-- Node34&#45;&gt;Node54 -->
<g id="edge46" class="edge">
<title>Node34&#45;&gt;Node54</title>
<path fill="none" stroke="midnightblue" d="M2325.63,-257.48C2364.51,-247.41 2417.06,-233.8 2458.09,-223.17"/>
<polygon fill="midnightblue" stroke="midnightblue" points="2459.19,-226.51 2467.99,-220.61 2457.43,-219.73 2459.19,-226.51"/>
</g>
<!-- Node55 -->
<g id="node38" class="node">
<title>Node55</title>
<g id="a_node38"><a xlink:href="_player_shoot_8hpp.html" target="_top" xlink:title=" ">
<polygon fill="none" stroke="black" points="2614.98,-190.5 2614.98,-220.5 2763.98,-220.5 2763.98,-190.5 2614.98,-190.5"/>
<text text-anchor="start" x="2622.98" y="-208.5" font-family="Helvetica,sans-Serif" font-size="10.00">NekoEngine/ECS/Components</text>
<text text-anchor="middle" x="2689.48" y="-197.5" font-family="Helvetica,sans-Serif" font-size="10.00">/PlayerShoot.hpp</text>
</a>
</g>
</g>
<!-- Node34&#45;&gt;Node55 -->
<g id="edge47" class="edge">
<title>Node34&#45;&gt;Node55</title>
<path fill="none" stroke="midnightblue" d="M2346.07,-260.77C2411.69,-251.2 2510.07,-236.59 2604.8,-221.25"/>
<polygon fill="midnightblue" stroke="midnightblue" points="2605.53,-224.68 2614.84,-219.62 2604.4,-217.77 2605.53,-224.68"/>
</g>
<!-- Node35&#45;&gt;Node7 -->
<g id="edge26" class="edge">
<title>Node35&#45;&gt;Node7</title>
<path fill="none" stroke="midnightblue" d="M2860.28,-123.4C2837.62,-113.77 2807.41,-100.94 2783,-90.56"/>
<polygon fill="midnightblue" stroke="midnightblue" points="2784.19,-87.27 2773.61,-86.58 2781.45,-93.71 2784.19,-87.27"/>
</g>
<!-- Node40&#45;&gt;Node7 -->
<g id="edge31" class="edge">
<title>Node40&#45;&gt;Node7</title>
<path fill="none" stroke="midnightblue" d="M2700.55,-123.4C2707.16,-114.96 2715.71,-104.07 2723.2,-94.52"/>
<polygon fill="midnightblue" stroke="midnightblue" points="2726.02,-96.6 2729.43,-86.58 2720.51,-92.28 2726.02,-96.6"/>
</g>
<!-- Node41&#45;&gt;Node7 -->
<g id="edge33" class="edge">
<title>Node41&#45;&gt;Node7</title>
<path fill="none" stroke="midnightblue" d="M2991.44,-123.48C2938.88,-112.8 2866.71,-98.14 2813.25,-87.28"/>
<polygon fill="midnightblue" stroke="midnightblue" points="2813.66,-83.79 2803.16,-85.23 2812.26,-90.65 2813.66,-83.79"/>
</g>
<!-- Node49&#45;&gt;Node7 -->
<g id="edge41" class="edge">
<title>Node49&#45;&gt;Node7</title>
<path fill="none" stroke="midnightblue" d="M2865.49,-190.37C2848.66,-181.19 2827.32,-168.3 2810.48,-154 2789.77,-136.42 2769.97,-112.47 2756.75,-95.09"/>
<polygon fill="midnightblue" stroke="midnightblue" points="2759.25,-92.58 2750.46,-86.66 2753.64,-96.77 2759.25,-92.58"/>
</g>
<!-- Node49&#45;&gt;Node35 -->
<g id="edge42" class="edge">
<title>Node49&#45;&gt;Node35</title>
<path fill="none" stroke="midnightblue" d="M2893.48,-190.4C2893.48,-182.64 2893.48,-172.81 2893.48,-163.86"/>
<polygon fill="midnightblue" stroke="midnightblue" points="2896.98,-163.58 2893.48,-153.58 2889.98,-163.58 2896.98,-163.58"/>
</g>
<!-- Node57 -->
<g id="node40" class="node">
<title>Node57</title>
<g id="a_node40"><a xlink:href="_timer_system_8hpp.html" target="_top" xlink:title="Controls System class.">
<polygon fill="none" stroke="red" points="1080.98,-257.5 1080.98,-287.5 1213.98,-287.5 1213.98,-257.5 1080.98,-257.5"/>
<text text-anchor="start" x="1088.98" y="-275.5" font-family="Helvetica,sans-Serif" font-size="10.00">NekoEngine/ECS/Systems</text>
<text text-anchor="middle" x="1147.48" y="-264.5" font-family="Helvetica,sans-Serif" font-size="10.00">/TimerSystem.hpp</text>
</a>
</g>
</g>
<!-- Node56&#45;&gt;Node57 -->
<g id="edge49" class="edge">
<title>Node56&#45;&gt;Node57</title>
<path fill="none" stroke="midnightblue" d="M1146.7,-324.4C1146.82,-316.64 1146.97,-306.81 1147.1,-297.86"/>
<polygon fill="midnightblue" stroke="midnightblue" points="1150.61,-297.63 1147.26,-287.58 1143.61,-297.52 1150.61,-297.63"/>
</g>
<!-- Node58 -->
<g id="node41" class="node">
<title>Node58</title>
<g id="a_node41"><a xlink:href="_render_system_8hpp.html" target="_top" xlink:title="Render System class.">
<polygon fill="none" stroke="red" points="1231.98,-257.5 1231.98,-287.5 1364.98,-287.5 1364.98,-257.5 1231.98,-257.5"/>
<text text-anchor="start" x="1239.98" y="-275.5" font-family="Helvetica,sans-Serif" font-size="10.00">NekoEngine/ECS/Systems</text>
<text text-anchor="middle" x="1298.48" y="-264.5" font-family="Helvetica,sans-Serif" font-size="10.00">/RenderSystem.hpp</text>
</a>
</g>
</g>
<!-- Node56&#45;&gt;Node58 -->
<g id="edge50" class="edge">
<title>Node56&#45;&gt;Node58</title>
<path fill="none" stroke="midnightblue" d="M1179.46,-324.4C1201.97,-314.77 1231.98,-301.94 1256.24,-291.56"/>
<polygon fill="midnightblue" stroke="midnightblue" points="1257.74,-294.73 1265.56,-287.58 1254.99,-288.29 1257.74,-294.73"/>
</g>
<!-- Node59 -->
<g id="node42" class="node">
<title>Node59</title>
<g id="a_node42"><a xlink:href="_mouse_system_8hpp.html" target="_top" xlink:title="Mouse System class.">
<polygon fill="none" stroke="red" points="1382.98,-257.5 1382.98,-287.5 1515.98,-287.5 1515.98,-257.5 1382.98,-257.5"/>
<text text-anchor="start" x="1390.98" y="-275.5" font-family="Helvetica,sans-Serif" font-size="10.00">NekoEngine/ECS/Systems</text>
<text text-anchor="middle" x="1449.48" y="-264.5" font-family="Helvetica,sans-Serif" font-size="10.00">/MouseSystem.hpp</text>
</a>
</g>
</g>
<!-- Node56&#45;&gt;Node59 -->
<g id="edge51" class="edge">
<title>Node56&#45;&gt;Node59</title>
<path fill="none" stroke="midnightblue" d="M1211.85,-324.48C1259.46,-314.26 1324.06,-300.41 1373.88,-289.72"/>
<polygon fill="midnightblue" stroke="midnightblue" points="1374.92,-293.07 1383.96,-287.55 1373.45,-286.23 1374.92,-293.07"/>
</g>
<!-- Node60 -->
<g id="node43" class="node">
<title>Node60</title>
<g id="a_node43"><a xlink:href="_text_system_8hpp.html" target="_top" xlink:title=" ">
<polygon fill="none" stroke="red" points="929.98,-257.5 929.98,-287.5 1062.98,-287.5 1062.98,-257.5 929.98,-257.5"/>
<text text-anchor="start" x="937.98" y="-275.5" font-family="Helvetica,sans-Serif" font-size="10.00">NekoEngine/ECS/Systems</text>
<text text-anchor="middle" x="996.48" y="-264.5" font-family="Helvetica,sans-Serif" font-size="10.00">/TextSystem.hpp</text>
</a>
</g>
</g>
<!-- Node56&#45;&gt;Node60 -->
<g id="edge52" class="edge">
<title>Node56&#45;&gt;Node60</title>
<path fill="none" stroke="midnightblue" d="M1113.93,-324.4C1091.72,-314.77 1062.1,-301.94 1038.16,-291.56"/>
<polygon fill="midnightblue" stroke="midnightblue" points="1039.53,-288.34 1028.96,-287.58 1036.75,-294.76 1039.53,-288.34"/>
</g>
<!-- Node69&#45;&gt;Node1 -->
<g id="edge56" class="edge">
<title>Node69&#45;&gt;Node1</title>
<path fill="none" stroke="midnightblue" d="M1269.77,-352.46C1264.95,-353.37 1260.13,-354.23 1255.48,-355 1191.41,-365.59 1008.48,-342.33 965.48,-391 938.08,-422.01 995.02,-443.96 1041.53,-456.05"/>
<polygon fill="midnightblue" stroke="midnightblue" points="1040.71,-459.45 1051.26,-458.48 1042.4,-452.66 1040.71,-459.45"/>
</g>
<!-- Node69&#45;&gt;Node7 -->
<g id="edge55" class="edge">
<title>Node69&#45;&gt;Node7</title>
<path fill="none" stroke="midnightblue" d="M1381.03,-325.41C1384.22,-324.88 1387.38,-324.4 1390.48,-324 1816.13,-269.05 1926.76,-307.98 2355.48,-288 2488.65,-281.79 3461.88,-317.87 3553.48,-221 3658.04,-110.43 3031.07,-81.14 2813.13,-74.35"/>
<polygon fill="midnightblue" stroke="midnightblue" points="2813.16,-70.85 2803.06,-74.04 2812.95,-77.84 2813.16,-70.85"/>
</g>
<!-- Node69&#45;&gt;Node34 -->
<g id="edge54" class="edge">
<title>Node69&#45;&gt;Node34</title>
<path fill="none" stroke="midnightblue" d="M1381.04,-325.48C1384.22,-324.93 1387.39,-324.43 1390.48,-324 1680.75,-283.58 2029.16,-275.37 2186.73,-273.8"/>
<polygon fill="midnightblue" stroke="midnightblue" points="2186.86,-277.3 2196.83,-273.71 2186.79,-270.3 2186.86,-277.3"/>
</g>
<!-- Node74 -->
<g id="node49" class="node">
<title>Node74</title>
<g id="a_node49"><a xlink:title=" ">
<polygon fill="none" stroke="#bfbfbf" points="1398.98,-330 1398.98,-349 1487.98,-349 1487.98,-330 1398.98,-330"/>
<text text-anchor="middle" x="1443.48" y="-337" font-family="Helvetica,sans-Serif" font-size="10.00">SFML/Audio.hpp</text>
</a>
</g>
</g>
<!-- Node73&#45;&gt;Node74 -->
<g id="edge61" class="edge">
<title>Node73&#45;&gt;Node74</title>
<path fill="none" stroke="midnightblue" d="M1443.48,-396.73C1443.48,-387.18 1443.48,-371.62 1443.48,-359.28"/>
<polygon fill="midnightblue" stroke="midnightblue" points="1446.98,-359.13 1443.48,-349.13 1439.98,-359.13 1446.98,-359.13"/>
</g>
</g>
</svg>
