<?xml version="1.0" encoding="UTF-8" standalone="no"?>
<!DOCTYPE svg PUBLIC "-//W3C//DTD SVG 1.1//EN"
 "http://www.w3.org/Graphics/SVG/1.1/DTD/svg11.dtd">
<!-- Generated by graphviz version 2.49.3 (20211027.1501)
 -->
<!-- Title: NekoEngine/src/ECS/EntityManager.cpp Pages: 1 -->
<svg width="490pt" height="218pt"
 viewBox="0.00 0.00 489.50 218.00" xmlns="http://www.w3.org/2000/svg" xmlns:xlink="http://www.w3.org/1999/xlink">
<g id="graph0" class="graph" transform="scale(1 1) rotate(0) translate(4 214)">
<title>NekoEngine/src/ECS/EntityManager.cpp</title>
<!-- Node1 -->
<g id="node1" class="node">
<title>Node1</title>
<g id="a_node1"><a xlink:title="Contains the implementation of the Entity Manager.">
<polygon fill="#bfbfbf" stroke="black" points="286.5,-179.5 286.5,-209.5 394.5,-209.5 394.5,-179.5 286.5,-179.5"/>
<text text-anchor="start" x="294.5" y="-197.5" font-family="Helvetica,sans-Serif" font-size="10.00">NekoEngine/src/ECS</text>
<text text-anchor="middle" x="340.5" y="-186.5" font-family="Helvetica,sans-Serif" font-size="10.00">/EntityManager.cpp</text>
</a>
</g>
</g>
<!-- Node2 -->
<g id="node2" class="node">
<title>Node2</title>
<g id="a_node2"><a xlink:href="_entity_manager_8hpp.html" target="_top" xlink:title="Entities are fun.">
<polygon fill="none" stroke="black" points="56.5,-118 56.5,-137 230.5,-137 230.5,-118 56.5,-118"/>
<text text-anchor="middle" x="143.5" y="-125" font-family="Helvetica,sans-Serif" font-size="10.00">NekoEngine/ECS/EntityManager.hpp</text>
</a>
</g>
</g>
<!-- Node1&#45;&gt;Node2 -->
<g id="edge1" class="edge">
<title>Node1&#45;&gt;Node2</title>
<path fill="none" stroke="midnightblue" d="M297.75,-179.4C262.27,-167.69 212.39,-151.23 179.06,-140.23"/>
<polygon fill="midnightblue" stroke="midnightblue" points="179.88,-136.82 169.28,-137.01 177.68,-143.46 179.88,-136.82"/>
</g>
<!-- Node9 -->
<g id="node9" class="node">
<title>Node9</title>
<g id="a_node9"><a xlink:href="_neko_exception_8hpp.html" target="_top" xlink:title="Contains the NekoEngine main exception type.">
<polygon fill="none" stroke="black" points="272,-112.5 272,-142.5 409,-142.5 409,-112.5 272,-112.5"/>
<text text-anchor="start" x="280" y="-130.5" font-family="Helvetica,sans-Serif" font-size="10.00">NekoEngine/NekoException</text>
<text text-anchor="middle" x="340.5" y="-119.5" font-family="Helvetica,sans-Serif" font-size="10.00">/NekoException.hpp</text>
</a>
</g>
</g>
<!-- Node1&#45;&gt;Node9 -->
<g id="edge8" class="edge">
<title>Node1&#45;&gt;Node9</title>
<path fill="none" stroke="midnightblue" d="M340.5,-179.4C340.5,-171.64 340.5,-161.81 340.5,-152.86"/>
<polygon fill="midnightblue" stroke="midnightblue" points="344,-152.58 340.5,-142.58 337,-152.58 344,-152.58"/>
</g>
<!-- Node11 -->
<g id="node11" class="node">
<title>Node11</title>
<g id="a_node11"><a xlink:title=" ">
<polygon fill="none" stroke="#bfbfbf" points="427.5,-118 427.5,-137 481.5,-137 481.5,-118 427.5,-118"/>
<text text-anchor="middle" x="454.5" y="-125" font-family="Helvetica,sans-Serif" font-size="10.00">iostream</text>
</a>
</g>
</g>
<!-- Node1&#45;&gt;Node11 -->
<g id="edge10" class="edge">
<title>Node1&#45;&gt;Node11</title>
<path fill="none" stroke="midnightblue" d="M365.24,-179.4C384.71,-168.29 411.67,-152.92 430.85,-141.98"/>
<polygon fill="midnightblue" stroke="midnightblue" points="432.63,-145 439.58,-137.01 429.16,-138.92 432.63,-145"/>
</g>
<!-- Node3 -->
<g id="node3" class="node">
<title>Node3</title>
<g id="a_node3"><a xlink:title=" ">
<polygon fill="none" stroke="#bfbfbf" points="0,-56.5 0,-75.5 43,-75.5 43,-56.5 0,-56.5"/>
<text text-anchor="middle" x="21.5" y="-63.5" font-family="Helvetica,sans-Serif" font-size="10.00">queue</text>
</a>
</g>
</g>
<!-- Node2&#45;&gt;Node3 -->
<g id="edge2" class="edge">
<title>Node2&#45;&gt;Node3</title>
<path fill="none" stroke="midnightblue" d="M126.02,-117.98C105.64,-108.03 71.72,-91.49 48.08,-79.96"/>
<polygon fill="midnightblue" stroke="midnightblue" points="49.47,-76.75 38.95,-75.51 46.4,-83.04 49.47,-76.75"/>
</g>
<!-- Node4 -->
<g id="node4" class="node">
<title>Node4</title>
<g id="a_node4"><a xlink:title=" ">
<polygon fill="none" stroke="#bfbfbf" points="61.5,-56.5 61.5,-75.5 99.5,-75.5 99.5,-56.5 61.5,-56.5"/>
<text text-anchor="middle" x="80.5" y="-63.5" font-family="Helvetica,sans-Serif" font-size="10.00">array</text>
</a>
</g>
</g>
<!-- Node2&#45;&gt;Node4 -->
<g id="edge3" class="edge">
<title>Node2&#45;&gt;Node4</title>
<path fill="none" stroke="midnightblue" d="M134.47,-117.98C124.74,-108.78 109.04,-93.96 97.08,-82.66"/>
<polygon fill="midnightblue" stroke="midnightblue" points="99.18,-79.83 89.51,-75.51 94.38,-84.92 99.18,-79.83"/>
</g>
<!-- Node5 -->
<g id="node5" class="node">
<title>Node5</title>
<g id="a_node5"><a xlink:title=" ">
<polygon fill="none" stroke="#bfbfbf" points="118,-56.5 118,-75.5 169,-75.5 169,-56.5 118,-56.5"/>
<text text-anchor="middle" x="143.5" y="-63.5" font-family="Helvetica,sans-Serif" font-size="10.00">memory</text>
</a>
</g>
</g>
<!-- Node2&#45;&gt;Node5 -->
<g id="edge4" class="edge">
<title>Node2&#45;&gt;Node5</title>
<path fill="none" stroke="midnightblue" d="M143.5,-117.98C143.5,-109.58 143.5,-96.48 143.5,-85.66"/>
<polygon fill="midnightblue" stroke="midnightblue" points="147,-85.51 143.5,-75.51 140,-85.51 147,-85.51"/>
</g>
<!-- Node6 -->
<g id="node6" class="node">
<title>Node6</title>
<g id="a_node6"><a xlink:href="_types_8hpp.html" target="_top" xlink:title="NekoEngine types definition.">
<polygon fill="none" stroke="black" points="187,-56.5 187,-75.5 326,-75.5 326,-56.5 187,-56.5"/>
<text text-anchor="middle" x="256.5" y="-63.5" font-family="Helvetica,sans-Serif" font-size="10.00">NekoEngine/ECS/Types.hpp</text>
</a>
</g>
</g>
<!-- Node2&#45;&gt;Node6 -->
<g id="edge5" class="edge">
<title>Node2&#45;&gt;Node6</title>
<path fill="none" stroke="midnightblue" d="M159.69,-117.98C178.4,-108.12 209.42,-91.79 231.3,-80.27"/>
<polygon fill="midnightblue" stroke="midnightblue" points="233.12,-83.27 240.34,-75.51 229.86,-77.07 233.12,-83.27"/>
</g>
<!-- Node7 -->
<g id="node7" class="node">
<title>Node7</title>
<g id="a_node7"><a xlink:title=" ">
<polygon fill="none" stroke="#bfbfbf" points="202.5,-0.5 202.5,-19.5 248.5,-19.5 248.5,-0.5 202.5,-0.5"/>
<text text-anchor="middle" x="225.5" y="-7.5" font-family="Helvetica,sans-Serif" font-size="10.00">cstdint</text>
</a>
</g>
</g>
<!-- Node6&#45;&gt;Node7 -->
<g id="edge6" class="edge">
<title>Node6&#45;&gt;Node7</title>
<path fill="none" stroke="midnightblue" d="M251.38,-56.08C247.09,-48.61 240.84,-37.72 235.56,-28.52"/>
<polygon fill="midnightblue" stroke="midnightblue" points="238.54,-26.68 230.52,-19.75 232.47,-30.17 238.54,-26.68"/>
</g>
<!-- Node8 -->
<g id="node8" class="node">
<title>Node8</title>
<g id="a_node8"><a xlink:title=" ">
<polygon fill="none" stroke="#bfbfbf" points="267,-0.5 267,-19.5 308,-19.5 308,-0.5 267,-0.5"/>
<text text-anchor="middle" x="287.5" y="-7.5" font-family="Helvetica,sans-Serif" font-size="10.00">bitset</text>
</a>
</g>
</g>
<!-- Node6&#45;&gt;Node8 -->
<g id="edge7" class="edge">
<title>Node6&#45;&gt;Node8</title>
<path fill="none" stroke="midnightblue" d="M261.62,-56.08C265.91,-48.61 272.16,-37.72 277.44,-28.52"/>
<polygon fill="midnightblue" stroke="midnightblue" points="280.53,-30.17 282.48,-19.75 274.46,-26.68 280.53,-30.17"/>
</g>
<!-- Node10 -->
<g id="node10" class="node">
<title>Node10</title>
<g id="a_node10"><a xlink:title=" ">
<polygon fill="none" stroke="#bfbfbf" points="344,-56.5 344,-75.5 385,-75.5 385,-56.5 344,-56.5"/>
<text text-anchor="middle" x="364.5" y="-63.5" font-family="Helvetica,sans-Serif" font-size="10.00">string</text>
</a>
</g>
</g>
<!-- Node9&#45;&gt;Node10 -->
<g id="edge9" class="edge">
<title>Node9&#45;&gt;Node10</title>
<path fill="none" stroke="midnightblue" d="M346.19,-112.4C349.5,-104.2 353.7,-93.78 357.24,-84.99"/>
<polygon fill="midnightblue" stroke="midnightblue" points="360.51,-86.24 361.01,-75.66 354.02,-83.62 360.51,-86.24"/>
</g>
</g>
</svg>
