<?xml version="1.0" encoding="UTF-8" standalone="no"?>
<!DOCTYPE svg PUBLIC "-//W3C//DTD SVG 1.1//EN"
 "http://www.w3.org/Graphics/SVG/1.1/DTD/svg11.dtd">
<!-- Generated by graphviz version 2.49.3 (20211027.1501)
 -->
<!-- Title: NekoEngine/include/NekoEngine/ECS/Components/Hostile.hpp Pages: 1 -->
<svg width="1610pt" height="563pt"
 viewBox="0.00 0.00 1610.00 563.00" xmlns="http://www.w3.org/2000/svg" xmlns:xlink="http://www.w3.org/1999/xlink">
<g id="graph0" class="graph" transform="scale(1 1) rotate(0) translate(4 559)">
<title>NekoEngine/include/NekoEngine/ECS/Components/Hostile.hpp</title>
<!-- Node1 -->
<g id="node1" class="node">
<title>Node1</title>
<g id="a_node1"><a xlink:title=" ">
<polygon fill="#bfbfbf" stroke="black" points="559,-513.5 559,-554.5 711,-554.5 711,-513.5 559,-513.5"/>
<text text-anchor="start" x="567" y="-542.5" font-family="Helvetica,sans-Serif" font-size="10.00">NekoEngine/include</text>
<text text-anchor="start" x="567" y="-531.5" font-family="Helvetica,sans-Serif" font-size="10.00">/NekoEngine/ECS/Components</text>
<text text-anchor="middle" x="635" y="-520.5" font-family="Helvetica,sans-Serif" font-size="10.00">/Hostile.hpp</text>
</a>
</g>
</g>
<!-- Node2 -->
<g id="node2" class="node">
<title>Node2</title>
<g id="a_node2"><a xlink:href="_components_8hpp.html" target="_top" xlink:title="Components.">
<polygon fill="none" stroke="black" points="559,-435.5 559,-476.5 711,-476.5 711,-435.5 559,-435.5"/>
<text text-anchor="start" x="567" y="-464.5" font-family="Helvetica,sans-Serif" font-size="10.00">NekoEngine/include</text>
<text text-anchor="start" x="567" y="-453.5" font-family="Helvetica,sans-Serif" font-size="10.00">/NekoEngine/ECS/Components</text>
<text text-anchor="middle" x="635" y="-442.5" font-family="Helvetica,sans-Serif" font-size="10.00">/Components.hpp</text>
</a>
</g>
</g>
<!-- Node1&#45;&gt;Node2 -->
<g id="edge1" class="edge">
<title>Node1&#45;&gt;Node2</title>
<path fill="none" stroke="midnightblue" d="M635,-503.3C635,-494.3 635,-484.65 635,-476.51"/>
<polygon fill="midnightblue" stroke="midnightblue" points="631.5,-503.43 635,-513.43 638.5,-503.43 631.5,-503.43"/>
</g>
<!-- Node3 -->
<g id="node3" class="node">
<title>Node3</title>
<g id="a_node3"><a xlink:href="_client_collision_8hpp.html" target="_top" xlink:title=" ">
<polygon fill="none" stroke="black" points="89,-368.5 89,-387.5 247,-387.5 247,-368.5 89,-368.5"/>
<text text-anchor="middle" x="168" y="-375.5" font-family="Helvetica,sans-Serif" font-size="10.00">Client/include/ClientCollision.hpp</text>
</a>
</g>
</g>
<!-- Node2&#45;&gt;Node3 -->
<g id="edge2" class="edge">
<title>Node2&#45;&gt;Node3</title>
<path fill="none" stroke="midnightblue" d="M548.94,-440.99C452.8,-425.35 300.22,-400.52 220.47,-387.54"/>
<polygon fill="midnightblue" stroke="midnightblue" points="548.5,-444.47 558.93,-442.62 549.62,-437.56 548.5,-444.47"/>
</g>
<!-- Node8 -->
<g id="node8" class="node">
<title>Node8</title>
<g id="a_node8"><a xlink:href="_bonus_system_8hpp.html" target="_top" xlink:title=" ">
<polygon fill="none" stroke="black" points="490,-357.5 490,-398.5 626,-398.5 626,-357.5 490,-357.5"/>
<text text-anchor="start" x="498" y="-386.5" font-family="Helvetica,sans-Serif" font-size="10.00">NekoEngine/include</text>
<text text-anchor="start" x="498" y="-375.5" font-family="Helvetica,sans-Serif" font-size="10.00">/NekoEngine/ECS/Systems</text>
<text text-anchor="middle" x="558" y="-364.5" font-family="Helvetica,sans-Serif" font-size="10.00">/BonusSystem.hpp</text>
</a>
</g>
</g>
<!-- Node2&#45;&gt;Node8 -->
<g id="edge7" class="edge">
<title>Node2&#45;&gt;Node8</title>
<path fill="none" stroke="midnightblue" d="M607.85,-428.2C597.93,-418.42 586.91,-407.54 577.76,-398.51"/>
<polygon fill="midnightblue" stroke="midnightblue" points="605.59,-430.89 615.17,-435.43 610.51,-425.91 605.59,-430.89"/>
</g>
<!-- Node10 -->
<g id="node10" class="node">
<title>Node10</title>
<g id="a_node10"><a xlink:href="_neko_engine_8hpp.html" target="_top" xlink:title=" ">
<polygon fill="none" stroke="black" points="405,-212.5 405,-242.5 551,-242.5 551,-212.5 405,-212.5"/>
<text text-anchor="start" x="413" y="-230.5" font-family="Helvetica,sans-Serif" font-size="10.00">NekoEngine/include</text>
<text text-anchor="middle" x="478" y="-219.5" font-family="Helvetica,sans-Serif" font-size="10.00">/NekoEngine/NekoEngine.hpp</text>
</a>
</g>
</g>
<!-- Node2&#45;&gt;Node10 -->
<g id="edge36" class="edge">
<title>Node2&#45;&gt;Node10</title>
<path fill="none" stroke="midnightblue" d="M549.22,-432.82C495.57,-413.51 432.52,-379.2 410,-321 403.26,-303.59 401.61,-295.68 410,-279 417.99,-263.1 433.62,-250.95 447.88,-242.56"/>
<polygon fill="midnightblue" stroke="midnightblue" points="548.18,-436.16 558.77,-436.14 550.47,-429.55 548.18,-436.16"/>
</g>
<!-- Node12 -->
<g id="node12" class="node">
<title>Node12</title>
<g id="a_node12"><a xlink:href="_window_8hpp.html" target="_top" xlink:title="Contains the NekoEngine Window class wrapper.">
<polygon fill="none" stroke="black" points="818,-67.5 818,-108.5 932,-108.5 932,-67.5 818,-67.5"/>
<text text-anchor="start" x="826" y="-96.5" font-family="Helvetica,sans-Serif" font-size="10.00">NekoEngine/include</text>
<text text-anchor="start" x="826" y="-85.5" font-family="Helvetica,sans-Serif" font-size="10.00">/NekoEngine/Graphics</text>
<text text-anchor="middle" x="875" y="-74.5" font-family="Helvetica,sans-Serif" font-size="10.00">/Window.hpp</text>
</a>
</g>
</g>
<!-- Node2&#45;&gt;Node12 -->
<g id="edge35" class="edge">
<title>Node2&#45;&gt;Node12</title>
<path fill="none" stroke="midnightblue" d="M721.29,-436.76C790.1,-416.57 875,-376.38 875,-301 875,-301 875,-301 875,-226.5 875,-184.49 875,-135.25 875,-108.58"/>
<polygon fill="midnightblue" stroke="midnightblue" points="719.94,-433.51 711.27,-439.6 721.84,-440.25 719.94,-433.51"/>
</g>
<!-- Node25 -->
<g id="node25" class="node">
<title>Node25</title>
<g id="a_node25"><a xlink:href="_collision_8hpp.html" target="_top" xlink:title=" ">
<polygon fill="none" stroke="black" points="644,-357.5 644,-398.5 780,-398.5 780,-357.5 644,-357.5"/>
<text text-anchor="start" x="652" y="-386.5" font-family="Helvetica,sans-Serif" font-size="10.00">NekoEngine/include</text>
<text text-anchor="start" x="652" y="-375.5" font-family="Helvetica,sans-Serif" font-size="10.00">/NekoEngine/ECS/Systems</text>
<text text-anchor="middle" x="712" y="-364.5" font-family="Helvetica,sans-Serif" font-size="10.00">/Collision.hpp</text>
</a>
</g>
</g>
<!-- Node2&#45;&gt;Node25 -->
<g id="edge32" class="edge">
<title>Node2&#45;&gt;Node25</title>
<path fill="none" stroke="midnightblue" d="M662.15,-428.2C672.07,-418.42 683.09,-407.54 692.24,-398.51"/>
<polygon fill="midnightblue" stroke="midnightblue" points="659.49,-425.91 654.83,-435.43 664.41,-430.89 659.49,-425.91"/>
</g>
<!-- Node27 -->
<g id="node27" class="node">
<title>Node27</title>
<g id="a_node27"><a xlink:href="_animation_system_8cpp.html" target="_top" xlink:title=" ">
<polygon fill="none" stroke="black" points="903.5,-363 903.5,-393 1058.5,-393 1058.5,-363 903.5,-363"/>
<text text-anchor="start" x="911.5" y="-381" font-family="Helvetica,sans-Serif" font-size="10.00">NekoEngine/src/ECS</text>
<text text-anchor="middle" x="981" y="-370" font-family="Helvetica,sans-Serif" font-size="10.00">/Systems/AnimationSystem.cpp</text>
</a>
</g>
</g>
<!-- Node2&#45;&gt;Node27 -->
<g id="edge37" class="edge">
<title>Node2&#45;&gt;Node27</title>
<path fill="none" stroke="midnightblue" d="M721.31,-436.04C782.03,-422.7 861.95,-405.15 917.01,-393.05"/>
<polygon fill="midnightblue" stroke="midnightblue" points="720.38,-432.66 711.36,-438.23 721.88,-439.5 720.38,-432.66"/>
</g>
<!-- Node4 -->
<g id="node4" class="node">
<title>Node4</title>
<g id="a_node4"><a xlink:href="_client_game_8hpp.html" target="_top" xlink:title=" ">
<polygon fill="none" stroke="black" points="145.5,-78.5 145.5,-97.5 292.5,-97.5 292.5,-78.5 145.5,-78.5"/>
<text text-anchor="middle" x="219" y="-85.5" font-family="Helvetica,sans-Serif" font-size="10.00">Client/include/ClientGame.hpp</text>
</a>
</g>
</g>
<!-- Node3&#45;&gt;Node4 -->
<g id="edge3" class="edge">
<title>Node3&#45;&gt;Node4</title>
<path fill="none" stroke="midnightblue" d="M171.33,-358.11C178.29,-318.56 194.94,-224.17 209,-145 211.97,-128.28 215.46,-108.74 217.44,-97.73"/>
<polygon fill="midnightblue" stroke="midnightblue" points="167.85,-357.69 169.56,-368.15 174.74,-358.91 167.85,-357.69"/>
</g>
<!-- Node7 -->
<g id="node7" class="node">
<title>Node7</title>
<g id="a_node7"><a xlink:href="_client_collision_8cpp.html" target="_top" xlink:title=" ">
<polygon fill="none" stroke="black" points="0,-290.5 0,-309.5 140,-309.5 140,-290.5 0,-290.5"/>
<text text-anchor="middle" x="70" y="-297.5" font-family="Helvetica,sans-Serif" font-size="10.00">Client/src/ClientCollision.cpp</text>
</a>
</g>
</g>
<!-- Node3&#45;&gt;Node7 -->
<g id="edge6" class="edge">
<title>Node3&#45;&gt;Node7</title>
<path fill="none" stroke="midnightblue" d="M148.85,-362.15C128.67,-346.5 97.57,-322.38 81.11,-309.62"/>
<polygon fill="midnightblue" stroke="midnightblue" points="146.71,-364.92 156.76,-368.28 151,-359.39 146.71,-364.92"/>
</g>
<!-- Node5 -->
<g id="node5" class="node">
<title>Node5</title>
<g id="a_node5"><a xlink:href="_client_game_8cpp.html" target="_top" xlink:title=" ">
<polygon fill="none" stroke="black" points="154,-6 154,-25 284,-25 284,-6 154,-6"/>
<text text-anchor="middle" x="219" y="-13" font-family="Helvetica,sans-Serif" font-size="10.00">Client/src/ClientGame.cpp</text>
</a>
</g>
</g>
<!-- Node4&#45;&gt;Node5 -->
<g id="edge4" class="edge">
<title>Node4&#45;&gt;Node5</title>
<path fill="none" stroke="midnightblue" d="M219,-67.94C219,-54.03 219,-35.82 219,-25.22"/>
<polygon fill="midnightblue" stroke="midnightblue" points="215.5,-68.36 219,-78.36 222.5,-68.36 215.5,-68.36"/>
</g>
<!-- Node6 -->
<g id="node6" class="node">
<title>Node6</title>
<g id="a_node6"><a xlink:href="main_8cpp.html" target="_top" xlink:title="Entrypoint.">
<polygon fill="none" stroke="black" points="539,-6 539,-25 639,-25 639,-6 539,-6"/>
<text text-anchor="middle" x="589" y="-13" font-family="Helvetica,sans-Serif" font-size="10.00">Client/src/main.cpp</text>
</a>
</g>
</g>
<!-- Node4&#45;&gt;Node6 -->
<g id="edge5" class="edge">
<title>Node4&#45;&gt;Node6</title>
<path fill="none" stroke="midnightblue" d="M268.56,-76.31C283.18,-73.23 299.22,-69.91 314,-67 393.06,-51.42 485.22,-34.81 540.25,-25.06"/>
<polygon fill="midnightblue" stroke="midnightblue" points="267.76,-72.9 258.7,-78.4 269.21,-79.75 267.76,-72.9"/>
</g>
<!-- Node9 -->
<g id="node9" class="node">
<title>Node9</title>
<g id="a_node9"><a xlink:href="_systems_8hpp.html" target="_top" xlink:title="Systems.">
<polygon fill="none" stroke="black" points="577,-279.5 577,-320.5 713,-320.5 713,-279.5 577,-279.5"/>
<text text-anchor="start" x="585" y="-308.5" font-family="Helvetica,sans-Serif" font-size="10.00">NekoEngine/include</text>
<text text-anchor="start" x="585" y="-297.5" font-family="Helvetica,sans-Serif" font-size="10.00">/NekoEngine/ECS/Systems</text>
<text text-anchor="middle" x="645" y="-286.5" font-family="Helvetica,sans-Serif" font-size="10.00">/Systems.hpp</text>
</a>
</g>
</g>
<!-- Node8&#45;&gt;Node9 -->
<g id="edge8" class="edge">
<title>Node8&#45;&gt;Node9</title>
<path fill="none" stroke="midnightblue" d="M588.02,-350.78C599.39,-340.84 612.13,-329.72 622.67,-320.51"/>
<polygon fill="midnightblue" stroke="midnightblue" points="585.63,-348.21 580.4,-357.43 590.24,-353.49 585.63,-348.21"/>
</g>
<!-- Node24 -->
<g id="node24" class="node">
<title>Node24</title>
<g id="a_node24"><a xlink:href="_bonus_system_8cpp.html" target="_top" xlink:title=" ">
<polygon fill="none" stroke="black" points="419,-285 419,-315 559,-315 559,-285 419,-285"/>
<text text-anchor="start" x="427" y="-303" font-family="Helvetica,sans-Serif" font-size="10.00">NekoEngine/src/ECS</text>
<text text-anchor="middle" x="489" y="-292" font-family="Helvetica,sans-Serif" font-size="10.00">/Systems/BonusSystem.cpp</text>
</a>
</g>
</g>
<!-- Node8&#45;&gt;Node24 -->
<g id="edge31" class="edge">
<title>Node8&#45;&gt;Node24</title>
<path fill="none" stroke="midnightblue" d="M533.48,-349.99C522.82,-338.25 510.78,-324.99 501.92,-315.23"/>
<polygon fill="midnightblue" stroke="midnightblue" points="530.92,-352.38 540.23,-357.43 536.1,-347.67 530.92,-352.38"/>
</g>
<!-- Node9&#45;&gt;Node10 -->
<g id="edge9" class="edge">
<title>Node9&#45;&gt;Node10</title>
<path fill="none" stroke="midnightblue" d="M589.17,-275.43C563.35,-264.53 533.55,-251.95 511.3,-242.56"/>
<polygon fill="midnightblue" stroke="midnightblue" points="587.91,-278.7 598.48,-279.36 590.63,-272.25 587.91,-278.7"/>
</g>
<!-- Node22 -->
<g id="node22" class="node">
<title>Node22</title>
<g id="a_node22"><a xlink:href="_timer_system_8cpp.html" target="_top" xlink:title=" ">
<polygon fill="none" stroke="black" points="709.5,-212.5 709.5,-242.5 846.5,-242.5 846.5,-212.5 709.5,-212.5"/>
<text text-anchor="start" x="717.5" y="-230.5" font-family="Helvetica,sans-Serif" font-size="10.00">NekoEngine/src/ECS</text>
<text text-anchor="middle" x="778" y="-219.5" font-family="Helvetica,sans-Serif" font-size="10.00">/Systems/TimerSystem.cpp</text>
</a>
</g>
</g>
<!-- Node9&#45;&gt;Node22 -->
<g id="edge29" class="edge">
<title>Node9&#45;&gt;Node22</title>
<path fill="none" stroke="midnightblue" d="M691.06,-274.58C711.17,-263.93 734.03,-251.81 751.27,-242.67"/>
<polygon fill="midnightblue" stroke="midnightblue" points="689.24,-271.59 682.05,-279.36 692.52,-277.77 689.24,-271.59"/>
</g>
<!-- Node23 -->
<g id="node23" class="node">
<title>Node23</title>
<g id="a_node23"><a xlink:href="_scene_8cpp.html" target="_top" xlink:title="For the love of god.">
<polygon fill="none" stroke="black" points="569,-212.5 569,-242.5 691,-242.5 691,-212.5 569,-212.5"/>
<text text-anchor="start" x="577" y="-230.5" font-family="Helvetica,sans-Serif" font-size="10.00">NekoEngine/src/Scenes</text>
<text text-anchor="middle" x="630" y="-219.5" font-family="Helvetica,sans-Serif" font-size="10.00">/Scene.cpp</text>
</a>
</g>
</g>
<!-- Node9&#45;&gt;Node23 -->
<g id="edge30" class="edge">
<title>Node9&#45;&gt;Node23</title>
<path fill="none" stroke="midnightblue" d="M638.7,-269.38C636.75,-260.21 634.69,-250.53 633.06,-242.89"/>
<polygon fill="midnightblue" stroke="midnightblue" points="635.32,-270.31 640.82,-279.36 642.16,-268.85 635.32,-270.31"/>
</g>
<!-- Node10&#45;&gt;Node4 -->
<g id="edge10" class="edge">
<title>Node10&#45;&gt;Node4</title>
<path fill="none" stroke="midnightblue" d="M394.55,-220.61C329.68,-214.14 247.11,-201.14 225,-176 205.5,-153.83 212.23,-114.96 216.54,-97.69"/>
<polygon fill="midnightblue" stroke="midnightblue" points="394.51,-224.12 404.8,-221.59 395.18,-217.15 394.51,-224.12"/>
</g>
<!-- Node10&#45;&gt;Node6 -->
<g id="edge27" class="edge">
<title>Node10&#45;&gt;Node6</title>
<path fill="none" stroke="midnightblue" d="M557.38,-208.44C573.4,-201.04 588.28,-190.64 598,-176 630.38,-127.25 603.27,-50.51 592.74,-25.03"/>
<polygon fill="midnightblue" stroke="midnightblue" points="555.71,-205.34 547.85,-212.45 558.43,-211.79 555.71,-205.34"/>
</g>
<!-- Node11 -->
<g id="node11" class="node">
<title>Node11</title>
<g id="a_node11"><a xlink:href="_custom_client_8hpp.html" target="_top" xlink:title=" ">
<polygon fill="none" stroke="black" points="646.5,-151 646.5,-170 801.5,-170 801.5,-151 646.5,-151"/>
<text text-anchor="middle" x="724" y="-158" font-family="Helvetica,sans-Serif" font-size="10.00">Client/include/CustomClient.hpp</text>
</a>
</g>
</g>
<!-- Node10&#45;&gt;Node11 -->
<g id="edge11" class="edge">
<title>Node10&#45;&gt;Node11</title>
<path fill="none" stroke="midnightblue" d="M540.79,-209.91C588.96,-197.18 653.5,-180.13 691.72,-170.03"/>
<polygon fill="midnightblue" stroke="midnightblue" points="539.85,-206.54 531.08,-212.48 541.64,-213.31 539.85,-206.54"/>
</g>
<!-- Node19 -->
<g id="node19" class="node">
<title>Node19</title>
<g id="a_node19"><a xlink:href="_player_system_8hpp.html" target="_top" xlink:title=" ">
<polygon fill="none" stroke="black" points="234,-151 234,-170 390,-170 390,-151 234,-151"/>
<text text-anchor="middle" x="312" y="-158" font-family="Helvetica,sans-Serif" font-size="10.00">Client/include/PlayerSystem.hpp</text>
</a>
</g>
</g>
<!-- Node10&#45;&gt;Node19 -->
<g id="edge23" class="edge">
<title>Node10&#45;&gt;Node19</title>
<path fill="none" stroke="midnightblue" d="M432.34,-208.62C400.21,-196.04 358.65,-179.77 333.73,-170.01"/>
<polygon fill="midnightblue" stroke="midnightblue" points="431.39,-212.01 441.98,-212.4 433.95,-205.49 431.39,-212.01"/>
</g>
<!-- Node20 -->
<g id="node20" class="node">
<title>Node20</title>
<g id="a_node20"><a xlink:href="_player_system_8cpp.html" target="_top" xlink:title=" ">
<polygon fill="none" stroke="black" points="323.5,-78.5 323.5,-97.5 462.5,-97.5 462.5,-78.5 323.5,-78.5"/>
<text text-anchor="middle" x="393" y="-85.5" font-family="Helvetica,sans-Serif" font-size="10.00">Client/src/PlayerSystem.cpp</text>
</a>
</g>
</g>
<!-- Node10&#45;&gt;Node20 -->
<g id="edge26" class="edge">
<title>Node10&#45;&gt;Node20</title>
<path fill="none" stroke="midnightblue" d="M458.36,-204.42C451.21,-195.85 443.33,-185.77 437,-176 419.42,-148.87 403.58,-113.79 396.67,-97.73"/>
<polygon fill="midnightblue" stroke="midnightblue" points="455.77,-206.78 464.93,-212.11 461.1,-202.23 455.77,-206.78"/>
</g>
<!-- Node21 -->
<g id="node21" class="node">
<title>Node21</title>
<g id="a_node21"><a xlink:href="_pattern_system_8cpp.html" target="_top" xlink:title="Physics System class implementation.">
<polygon fill="none" stroke="black" points="446.5,-145.5 446.5,-175.5 589.5,-175.5 589.5,-145.5 446.5,-145.5"/>
<text text-anchor="start" x="454.5" y="-163.5" font-family="Helvetica,sans-Serif" font-size="10.00">NekoEngine/src/ECS</text>
<text text-anchor="middle" x="518" y="-152.5" font-family="Helvetica,sans-Serif" font-size="10.00">/Systems/PatternSystem.cpp</text>
</a>
</g>
</g>
<!-- Node10&#45;&gt;Node21 -->
<g id="edge28" class="edge">
<title>Node10&#45;&gt;Node21</title>
<path fill="none" stroke="midnightblue" d="M491.93,-203.87C497.72,-194.46 504.26,-183.83 509.34,-175.58"/>
<polygon fill="midnightblue" stroke="midnightblue" points="488.94,-202.05 486.68,-212.4 494.9,-205.71 488.94,-202.05"/>
</g>
<!-- Node11&#45;&gt;Node6 -->
<g id="edge12" class="edge">
<title>Node11&#45;&gt;Node6</title>
<path fill="none" stroke="midnightblue" d="M708.81,-143.41C680.2,-113.1 619.22,-48.51 597.17,-25.15"/>
<polygon fill="midnightblue" stroke="midnightblue" points="706.55,-146.11 715.96,-150.98 711.64,-141.31 706.55,-146.11"/>
</g>
<!-- Node11&#45;&gt;Node12 -->
<g id="edge13" class="edge">
<title>Node11&#45;&gt;Node12</title>
<path fill="none" stroke="midnightblue" d="M751.31,-146.75C774.09,-136.12 806.91,-120.79 833.02,-108.6"/>
<polygon fill="midnightblue" stroke="midnightblue" points="749.79,-143.59 742.21,-151 752.76,-149.94 749.79,-143.59"/>
</g>
<!-- Node18 -->
<g id="node18" class="node">
<title>Node18</title>
<g id="a_node18"><a xlink:href="_window_8cpp.html" target="_top" xlink:title="Contains the NekoEngine Window class implementation.">
<polygon fill="none" stroke="black" points="657,-0.5 657,-30.5 785,-30.5 785,-0.5 657,-0.5"/>
<text text-anchor="start" x="665" y="-18.5" font-family="Helvetica,sans-Serif" font-size="10.00">NekoEngine/src/Graphics</text>
<text text-anchor="middle" x="721" y="-7.5" font-family="Helvetica,sans-Serif" font-size="10.00">/Window.cpp</text>
</a>
</g>
</g>
<!-- Node11&#45;&gt;Node18 -->
<g id="edge22" class="edge">
<title>Node11&#45;&gt;Node18</title>
<path fill="none" stroke="midnightblue" d="M723.6,-140.62C723,-111.65 721.85,-56.85 721.3,-30.86"/>
<polygon fill="midnightblue" stroke="midnightblue" points="720.11,-141.06 723.82,-150.98 727.11,-140.91 720.11,-141.06"/>
</g>
<!-- Node12&#45;&gt;Node6 -->
<g id="edge14" class="edge">
<title>Node12&#45;&gt;Node6</title>
<path fill="none" stroke="midnightblue" d="M808.03,-70.49C750.28,-56.26 669.19,-36.27 623.62,-25.03"/>
<polygon fill="midnightblue" stroke="midnightblue" points="807.26,-73.91 817.81,-72.9 808.94,-67.11 807.26,-73.91"/>
</g>
<!-- Node12&#45;&gt;Node10 -->
<g id="edge15" class="edge">
<title>Node12&#45;&gt;Node10</title>
<path fill="none" stroke="midnightblue" d="M861.72,-117.43C850.93,-137.2 833.78,-162.36 811,-176 714.31,-233.89 671.28,-194.19 560,-212 557.14,-212.46 554.24,-212.93 551.3,-213.42"/>
<polygon fill="midnightblue" stroke="midnightblue" points="864.85,-119 866.37,-108.51 858.64,-115.77 864.85,-119"/>
</g>
<!-- Node13 -->
<g id="node13" class="node">
<title>Node13</title>
<g id="a_node13"><a xlink:href="_background_system_8cpp.html" target="_top" xlink:title=" ">
<polygon fill="none" stroke="black" points="1114,-0.5 1114,-30.5 1278,-30.5 1278,-0.5 1114,-0.5"/>
<text text-anchor="start" x="1122" y="-18.5" font-family="Helvetica,sans-Serif" font-size="10.00">NekoEngine/src/ECS</text>
<text text-anchor="middle" x="1196" y="-7.5" font-family="Helvetica,sans-Serif" font-size="10.00">/Systems/BackgroundSystem.cpp</text>
</a>
</g>
</g>
<!-- Node12&#45;&gt;Node13 -->
<g id="edge16" class="edge">
<title>Node12&#45;&gt;Node13</title>
<path fill="none" stroke="midnightblue" d="M941.83,-72.32C997.74,-60.04 1076.99,-42.64 1132.08,-30.54"/>
<polygon fill="midnightblue" stroke="midnightblue" points="941.03,-68.91 932.02,-74.48 942.54,-75.75 941.03,-68.91"/>
</g>
<!-- Node14 -->
<g id="node14" class="node">
<title>Node14</title>
<g id="a_node14"><a xlink:href="_mouse_system_8cpp.html" target="_top" xlink:title=" ">
<polygon fill="none" stroke="black" points="1296.5,-0.5 1296.5,-30.5 1437.5,-30.5 1437.5,-0.5 1296.5,-0.5"/>
<text text-anchor="start" x="1304.5" y="-18.5" font-family="Helvetica,sans-Serif" font-size="10.00">NekoEngine/src/ECS</text>
<text text-anchor="middle" x="1367" y="-7.5" font-family="Helvetica,sans-Serif" font-size="10.00">/Systems/MouseSystem.cpp</text>
</a>
</g>
</g>
<!-- Node12&#45;&gt;Node14 -->
<g id="edge17" class="edge">
<title>Node12&#45;&gt;Node14</title>
<path fill="none" stroke="midnightblue" d="M942.24,-78.79C1023.92,-68.6 1165.81,-50.21 1287,-31 1290.07,-30.51 1293.2,-30 1296.36,-29.48"/>
<polygon fill="midnightblue" stroke="midnightblue" points="941.59,-75.34 932.1,-80.05 942.46,-82.29 941.59,-75.34"/>
</g>
<!-- Node15 -->
<g id="node15" class="node">
<title>Node15</title>
<g id="a_node15"><a xlink:href="_parallax_system_8cpp.html" target="_top" xlink:title=" ">
<polygon fill="none" stroke="black" points="1456,-0.5 1456,-30.5 1602,-30.5 1602,-0.5 1456,-0.5"/>
<text text-anchor="start" x="1464" y="-18.5" font-family="Helvetica,sans-Serif" font-size="10.00">NekoEngine/src/ECS</text>
<text text-anchor="middle" x="1529" y="-7.5" font-family="Helvetica,sans-Serif" font-size="10.00">/Systems/ParallaxSystem.cpp</text>
</a>
</g>
</g>
<!-- Node12&#45;&gt;Node15 -->
<g id="edge18" class="edge">
<title>Node12&#45;&gt;Node15</title>
<path fill="none" stroke="midnightblue" d="M942.01,-82.13C1049.04,-73.98 1265.05,-55.96 1447,-31 1449.86,-30.61 1452.78,-30.19 1455.73,-29.75"/>
<polygon fill="midnightblue" stroke="midnightblue" points="941.71,-78.64 932,-82.89 942.24,-85.62 941.71,-78.64"/>
</g>
<!-- Node16 -->
<g id="node16" class="node">
<title>Node16</title>
<g id="a_node16"><a xlink:href="_render_system_8cpp.html" target="_top" xlink:title="Render System class implementation.">
<polygon fill="none" stroke="black" points="803.5,-0.5 803.5,-30.5 946.5,-30.5 946.5,-0.5 803.5,-0.5"/>
<text text-anchor="start" x="811.5" y="-18.5" font-family="Helvetica,sans-Serif" font-size="10.00">NekoEngine/src/ECS</text>
<text text-anchor="middle" x="875" y="-7.5" font-family="Helvetica,sans-Serif" font-size="10.00">/Systems/RenderSystem.cpp</text>
</a>
</g>
</g>
<!-- Node12&#45;&gt;Node16 -->
<g id="edge19" class="edge">
<title>Node12&#45;&gt;Node16</title>
<path fill="none" stroke="midnightblue" d="M875,-57.08C875,-48.01 875,-38.45 875,-30.89"/>
<polygon fill="midnightblue" stroke="midnightblue" points="871.5,-57.36 875,-67.36 878.5,-57.36 871.5,-57.36"/>
</g>
<!-- Node17 -->
<g id="node17" class="node">
<title>Node17</title>
<g id="a_node17"><a xlink:href="_text_system_8cpp.html" target="_top" xlink:title=" ">
<polygon fill="none" stroke="black" points="964.5,-0.5 964.5,-30.5 1095.5,-30.5 1095.5,-0.5 964.5,-0.5"/>
<text text-anchor="start" x="972.5" y="-18.5" font-family="Helvetica,sans-Serif" font-size="10.00">NekoEngine/src/ECS</text>
<text text-anchor="middle" x="1030" y="-7.5" font-family="Helvetica,sans-Serif" font-size="10.00">/Systems/TextSystem.cpp</text>
</a>
</g>
</g>
<!-- Node12&#45;&gt;Node17 -->
<g id="edge20" class="edge">
<title>Node12&#45;&gt;Node17</title>
<path fill="none" stroke="midnightblue" d="M927.42,-63.16C951.15,-52.36 978.4,-39.97 998.85,-30.67"/>
<polygon fill="midnightblue" stroke="midnightblue" points="925.83,-60.04 918.18,-67.36 928.73,-66.41 925.83,-60.04"/>
</g>
<!-- Node12&#45;&gt;Node18 -->
<g id="edge21" class="edge">
<title>Node12&#45;&gt;Node18</title>
<path fill="none" stroke="midnightblue" d="M822.92,-63.16C799.34,-52.36 772.27,-39.97 751.95,-30.67"/>
<polygon fill="midnightblue" stroke="midnightblue" points="821.55,-66.38 832.1,-67.36 824.47,-60.02 821.55,-66.38"/>
</g>
<!-- Node19&#45;&gt;Node4 -->
<g id="edge24" class="edge">
<title>Node19&#45;&gt;Node4</title>
<path fill="none" stroke="midnightblue" d="M292.43,-144.67C273.66,-130.44 245.96,-109.43 230.5,-97.72"/>
<polygon fill="midnightblue" stroke="midnightblue" points="290.51,-147.6 300.6,-150.86 294.74,-142.03 290.51,-147.6"/>
</g>
<!-- Node19&#45;&gt;Node20 -->
<g id="edge25" class="edge">
<title>Node19&#45;&gt;Node20</title>
<path fill="none" stroke="midnightblue" d="M329.71,-144.08C346.04,-129.87 369.71,-109.27 382.99,-97.72"/>
<polygon fill="midnightblue" stroke="midnightblue" points="327.18,-141.65 321.93,-150.86 331.77,-146.93 327.18,-141.65"/>
</g>
<!-- Node25&#45;&gt;Node9 -->
<g id="edge33" class="edge">
<title>Node25&#45;&gt;Node9</title>
<path fill="none" stroke="midnightblue" d="M688.12,-349.92C679.56,-340.2 670.08,-329.45 662.2,-320.51"/>
<polygon fill="midnightblue" stroke="midnightblue" points="685.51,-352.24 694.75,-357.43 690.76,-347.61 685.51,-352.24"/>
</g>
<!-- Node26 -->
<g id="node26" class="node">
<title>Node26</title>
<g id="a_node26"><a xlink:href="_collision_8cpp.html" target="_top" xlink:title=" ">
<polygon fill="none" stroke="black" points="731,-285 731,-315 847,-315 847,-285 731,-285"/>
<text text-anchor="start" x="739" y="-303" font-family="Helvetica,sans-Serif" font-size="10.00">NekoEngine/src/ECS</text>
<text text-anchor="middle" x="789" y="-292" font-family="Helvetica,sans-Serif" font-size="10.00">/Systems/Collision.cpp</text>
</a>
</g>
</g>
<!-- Node25&#45;&gt;Node26 -->
<g id="edge34" class="edge">
<title>Node25&#45;&gt;Node26</title>
<path fill="none" stroke="midnightblue" d="M739.03,-350.32C751,-338.51 764.6,-325.08 774.59,-315.23"/>
<polygon fill="midnightblue" stroke="midnightblue" points="736.49,-347.91 731.83,-357.43 741.41,-352.89 736.49,-347.91"/>
</g>
</g>
</svg>
