<?xml version="1.0" encoding="UTF-8" standalone="no"?>
<!DOCTYPE svg PUBLIC "-//W3C//DTD SVG 1.1//EN"
 "http://www.w3.org/Graphics/SVG/1.1/DTD/svg11.dtd">
<!-- Generated by graphviz version 2.49.3 (20211027.1501)
 -->
<!-- Title: NekoEngine/include/NekoEngine/Math/Matrix/Matrix.hpp Pages: 1 -->
<svg width="268pt" height="173pt"
 viewBox="0.00 0.00 267.50 173.00" xmlns="http://www.w3.org/2000/svg" xmlns:xlink="http://www.w3.org/1999/xlink">
<g id="graph0" class="graph" transform="scale(1 1) rotate(0) translate(4 169)">
<title>NekoEngine/include/NekoEngine/Math/Matrix/Matrix.hpp</title>
<!-- Node1 -->
<g id="node1" class="node">
<title>Node1</title>
<g id="a_node1"><a xlink:title="Contains Matrix template class.">
<polygon fill="#bfbfbf" stroke="black" points="112,-123.5 112,-164.5 238,-164.5 238,-123.5 112,-123.5"/>
<text text-anchor="start" x="120" y="-152.5" font-family="Helvetica,sans-Serif" font-size="10.00">NekoEngine/include</text>
<text text-anchor="start" x="120" y="-141.5" font-family="Helvetica,sans-Serif" font-size="10.00">/NekoEngine/Math/Matrix</text>
<text text-anchor="middle" x="175" y="-130.5" font-family="Helvetica,sans-Serif" font-size="10.00">/Matrix.hpp</text>
</a>
</g>
</g>
<!-- Node2 -->
<g id="node2" class="node">
<title>Node2</title>
<g id="a_node2"><a xlink:href="_vector_8hpp.html" target="_top" xlink:title="Contains all headers for all Vector types.">
<polygon fill="none" stroke="black" points="57.5,-56.5 57.5,-86.5 182.5,-86.5 182.5,-56.5 57.5,-56.5"/>
<text text-anchor="start" x="65.5" y="-74.5" font-family="Helvetica,sans-Serif" font-size="10.00">NekoEngine/Math/Vector</text>
<text text-anchor="middle" x="120" y="-63.5" font-family="Helvetica,sans-Serif" font-size="10.00">/Vector.hpp</text>
</a>
</g>
</g>
<!-- Node1&#45;&gt;Node2 -->
<g id="edge1" class="edge">
<title>Node1&#45;&gt;Node2</title>
<path fill="none" stroke="midnightblue" d="M159.68,-123.36C152.77,-114.5 144.57,-104 137.43,-94.84"/>
<polygon fill="midnightblue" stroke="midnightblue" points="140.14,-92.62 131.23,-86.89 134.62,-96.93 140.14,-92.62"/>
</g>
<!-- Node6 -->
<g id="node6" class="node">
<title>Node6</title>
<g id="a_node6"><a xlink:title=" ">
<polygon fill="none" stroke="#bfbfbf" points="200.5,-62 200.5,-81 259.5,-81 259.5,-62 200.5,-62"/>
<text text-anchor="middle" x="230" y="-69" font-family="Helvetica,sans-Serif" font-size="10.00">Matrix.tpp</text>
</a>
</g>
</g>
<!-- Node1&#45;&gt;Node6 -->
<g id="edge5" class="edge">
<title>Node1&#45;&gt;Node6</title>
<path fill="none" stroke="midnightblue" d="M190.32,-123.36C198.68,-112.65 208.92,-99.52 216.9,-89.29"/>
<polygon fill="midnightblue" stroke="midnightblue" points="219.84,-91.21 223.23,-81.17 214.32,-86.91 219.84,-91.21"/>
</g>
<!-- Node3 -->
<g id="node3" class="node">
<title>Node3</title>
<g id="a_node3"><a xlink:href="_vector2_8hpp.html" target="_top" xlink:title="Contains Vector2 template class.">
<polygon fill="none" stroke="black" points="0,-0.5 0,-19.5 68,-19.5 68,-0.5 0,-0.5"/>
<text text-anchor="middle" x="34" y="-7.5" font-family="Helvetica,sans-Serif" font-size="10.00">Vector2.hpp</text>
</a>
</g>
</g>
<!-- Node2&#45;&gt;Node3 -->
<g id="edge2" class="edge">
<title>Node2&#45;&gt;Node3</title>
<path fill="none" stroke="midnightblue" d="M99.62,-56.4C86.09,-47.04 68.39,-34.79 54.78,-25.38"/>
<polygon fill="midnightblue" stroke="midnightblue" points="56.73,-22.47 46.51,-19.66 52.75,-28.23 56.73,-22.47"/>
</g>
<!-- Node4 -->
<g id="node4" class="node">
<title>Node4</title>
<g id="a_node4"><a xlink:href="_vector3_8hpp.html" target="_top" xlink:title="Contains Vector3 template class.">
<polygon fill="none" stroke="black" points="86,-0.5 86,-19.5 154,-19.5 154,-0.5 86,-0.5"/>
<text text-anchor="middle" x="120" y="-7.5" font-family="Helvetica,sans-Serif" font-size="10.00">Vector3.hpp</text>
</a>
</g>
</g>
<!-- Node2&#45;&gt;Node4 -->
<g id="edge3" class="edge">
<title>Node2&#45;&gt;Node4</title>
<path fill="none" stroke="midnightblue" d="M120,-56.4C120,-48.47 120,-38.46 120,-29.86"/>
<polygon fill="midnightblue" stroke="midnightblue" points="123.5,-29.66 120,-19.66 116.5,-29.66 123.5,-29.66"/>
</g>
<!-- Node5 -->
<g id="node5" class="node">
<title>Node5</title>
<g id="a_node5"><a xlink:href="_vector4_8hpp.html" target="_top" xlink:title="Contains Vector4 template class.">
<polygon fill="none" stroke="black" points="172,-0.5 172,-19.5 240,-19.5 240,-0.5 172,-0.5"/>
<text text-anchor="middle" x="206" y="-7.5" font-family="Helvetica,sans-Serif" font-size="10.00">Vector4.hpp</text>
</a>
</g>
</g>
<!-- Node2&#45;&gt;Node5 -->
<g id="edge4" class="edge">
<title>Node2&#45;&gt;Node5</title>
<path fill="none" stroke="midnightblue" d="M140.38,-56.4C153.91,-47.04 171.61,-34.79 185.22,-25.38"/>
<polygon fill="midnightblue" stroke="midnightblue" points="187.25,-28.23 193.49,-19.66 183.27,-22.47 187.25,-28.23"/>
</g>
</g>
</svg>
