<?xml version="1.0" encoding="UTF-8" standalone="no"?>
<!DOCTYPE svg PUBLIC "-//W3C//DTD SVG 1.1//EN"
 "http://www.w3.org/Graphics/SVG/1.1/DTD/svg11.dtd">
<!-- Generated by graphviz version 2.49.3 (20211027.1501)
 -->
<!-- Title: NekoEngine/src/ECS/Systems/MouseSystem.cpp Pages: 1 -->
<svg width="3573pt" height="564pt"
 viewBox="0.00 0.00 3573.12 564.00" xmlns="http://www.w3.org/2000/svg" xmlns:xlink="http://www.w3.org/1999/xlink">
<g id="graph0" class="graph" transform="scale(1 1) rotate(0) translate(4 560)">
<title>NekoEngine/src/ECS/Systems/MouseSystem.cpp</title>
<!-- Node1 -->
<g id="node1" class="node">
<title>Node1</title>
<g id="a_node1"><a xlink:title=" ">
<polygon fill="#bfbfbf" stroke="black" points="2186.5,-525.5 2186.5,-555.5 2327.5,-555.5 2327.5,-525.5 2186.5,-525.5"/>
<text text-anchor="start" x="2194.5" y="-543.5" font-family="Helvetica,sans-Serif" font-size="10.00">NekoEngine/src/ECS</text>
<text text-anchor="middle" x="2257" y="-532.5" font-family="Helvetica,sans-Serif" font-size="10.00">/Systems/MouseSystem.cpp</text>
</a>
</g>
</g>
<!-- Node2 -->
<g id="node2" class="node">
<title>Node2</title>
<g id="a_node2"><a xlink:href="_coordinator_8hpp.html" target="_top" xlink:title="Coordinator class.">
<polygon fill="none" stroke="black" points="473,-263 473,-282 635,-282 635,-263 473,-263"/>
<text text-anchor="middle" x="554" y="-270" font-family="Helvetica,sans-Serif" font-size="10.00">NekoEngine/ECS/Coordinator.hpp</text>
</a>
</g>
</g>
<!-- Node1&#45;&gt;Node2 -->
<g id="edge1" class="edge">
<title>Node1&#45;&gt;Node2</title>
<path fill="none" stroke="midnightblue" d="M2186.23,-536.8C1940.22,-526.88 1123.54,-489.54 871,-422 753.79,-390.65 626.61,-317.89 576.29,-287.37"/>
<polygon fill="midnightblue" stroke="midnightblue" points="577.9,-284.25 567.54,-282.02 574.24,-290.22 577.9,-284.25"/>
</g>
<!-- Node21 -->
<g id="node17" class="node">
<title>Node21</title>
<g id="a_node17"><a xlink:href="_mouse_system_8hpp.html" target="_top" xlink:title="Mouse System class.">
<polygon fill="none" stroke="black" points="235.5,-391.5 235.5,-421.5 368.5,-421.5 368.5,-391.5 235.5,-391.5"/>
<text text-anchor="start" x="243.5" y="-409.5" font-family="Helvetica,sans-Serif" font-size="10.00">NekoEngine/ECS/Systems</text>
<text text-anchor="middle" x="302" y="-398.5" font-family="Helvetica,sans-Serif" font-size="10.00">/MouseSystem.hpp</text>
</a>
</g>
</g>
<!-- Node1&#45;&gt;Node21 -->
<g id="edge27" class="edge">
<title>Node1&#45;&gt;Node21</title>
<path fill="none" stroke="midnightblue" d="M2186.22,-538.88C1920.59,-536.31 983.29,-524.84 687,-489 571.46,-475.02 439.21,-443.56 363.65,-424.07"/>
<polygon fill="midnightblue" stroke="midnightblue" points="364.38,-420.64 353.82,-421.52 362.62,-427.42 364.38,-420.64"/>
</g>
<!-- Node22 -->
<g id="node18" class="node">
<title>Node22</title>
<g id="a_node18"><a xlink:href="_transform_8hpp.html" target="_top" xlink:title="Transform component.">
<polygon fill="none" stroke="black" points="3143.5,-123.5 3143.5,-153.5 3292.5,-153.5 3292.5,-123.5 3143.5,-123.5"/>
<text text-anchor="start" x="3151.5" y="-141.5" font-family="Helvetica,sans-Serif" font-size="10.00">NekoEngine/ECS/Components</text>
<text text-anchor="middle" x="3218" y="-130.5" font-family="Helvetica,sans-Serif" font-size="10.00">/Transform.hpp</text>
</a>
</g>
</g>
<!-- Node1&#45;&gt;Node22 -->
<g id="edge29" class="edge">
<title>Node1&#45;&gt;Node22</title>
<path fill="none" stroke="midnightblue" d="M2327.53,-538.59C2572.41,-534.49 3371,-513.03 3371,-407.5 3371,-407.5 3371,-407.5 3371,-271.5 3371,-234.4 3377.32,-218.01 3353,-190 3339.67,-174.65 3321.19,-163.95 3302.19,-156.5"/>
<polygon fill="midnightblue" stroke="midnightblue" points="3303.12,-153.12 3292.53,-153 3300.74,-159.7 3303.12,-153.12"/>
</g>
<!-- Node27 -->
<g id="node23" class="node">
<title>Node27</title>
<g id="a_node23"><a xlink:href="_window_8hpp.html" target="_top" xlink:title="Contains the NekoEngine Window class wrapper.">
<polygon fill="none" stroke="black" points="2201.5,-458.5 2201.5,-488.5 2312.5,-488.5 2312.5,-458.5 2201.5,-458.5"/>
<text text-anchor="start" x="2209.5" y="-476.5" font-family="Helvetica,sans-Serif" font-size="10.00">NekoEngine/Graphics</text>
<text text-anchor="middle" x="2257" y="-465.5" font-family="Helvetica,sans-Serif" font-size="10.00">/Window.hpp</text>
</a>
</g>
</g>
<!-- Node1&#45;&gt;Node27 -->
<g id="edge34" class="edge">
<title>Node1&#45;&gt;Node27</title>
<path fill="none" stroke="midnightblue" d="M2257,-525.4C2257,-517.64 2257,-507.81 2257,-498.86"/>
<polygon fill="midnightblue" stroke="midnightblue" points="2260.5,-498.58 2257,-488.58 2253.5,-498.58 2260.5,-498.58"/>
</g>
<!-- Node77 -->
<g id="node50" class="node">
<title>Node77</title>
<g id="a_node50"><a xlink:title=" ">
<polygon fill="none" stroke="#bfbfbf" points="3399,-458.5 3399,-488.5 3509,-488.5 3509,-458.5 3399,-458.5"/>
<text text-anchor="start" x="3407" y="-476.5" font-family="Helvetica,sans-Serif" font-size="10.00">../Client/include/Client</text>
<text text-anchor="middle" x="3454" y="-465.5" font-family="Helvetica,sans-Serif" font-size="10.00">Game.hpp</text>
</a>
</g>
</g>
<!-- Node1&#45;&gt;Node77 -->
<g id="edge71" class="edge">
<title>Node1&#45;&gt;Node77</title>
<path fill="none" stroke="midnightblue" d="M2327.62,-537.84C2541.32,-532.58 3178.98,-515.08 3385,-489 3386.26,-488.84 3387.54,-488.67 3388.82,-488.49"/>
<polygon fill="midnightblue" stroke="midnightblue" points="3389.43,-491.94 3398.77,-486.93 3388.35,-485.02 3389.43,-491.94"/>
</g>
<!-- Node3 -->
<g id="node3" class="node">
<title>Node3</title>
<g id="a_node3"><a xlink:href="_component_manager_8hpp.html" target="_top" xlink:title="Component Manmager class.">
<polygon fill="none" stroke="black" points="582,-190.5 582,-220.5 726,-220.5 726,-190.5 582,-190.5"/>
<text text-anchor="start" x="590" y="-208.5" font-family="Helvetica,sans-Serif" font-size="10.00">NekoEngine/ECS/Component</text>
<text text-anchor="middle" x="654" y="-197.5" font-family="Helvetica,sans-Serif" font-size="10.00">Manager.hpp</text>
</a>
</g>
</g>
<!-- Node2&#45;&gt;Node3 -->
<g id="edge2" class="edge">
<title>Node2&#45;&gt;Node3</title>
<path fill="none" stroke="midnightblue" d="M567.49,-262.73C581.85,-253.4 605.04,-238.32 623.8,-226.13"/>
<polygon fill="midnightblue" stroke="midnightblue" points="625.85,-228.97 632.32,-220.59 622.03,-223.1 625.85,-228.97"/>
</g>
<!-- Node14 -->
<g id="node10" class="node">
<title>Node14</title>
<g id="a_node10"><a xlink:href="_entity_manager_8hpp.html" target="_top" xlink:title="Entities are fun.">
<polygon fill="none" stroke="black" points="400,-129 400,-148 574,-148 574,-129 400,-129"/>
<text text-anchor="middle" x="487" y="-136" font-family="Helvetica,sans-Serif" font-size="10.00">NekoEngine/ECS/EntityManager.hpp</text>
</a>
</g>
</g>
<!-- Node2&#45;&gt;Node14 -->
<g id="edge12" class="edge">
<title>Node2&#45;&gt;Node14</title>
<path fill="none" stroke="midnightblue" d="M553.48,-262.89C552.22,-247.42 548.1,-214.3 535,-190 527.75,-176.56 515.98,-164.09 505.91,-154.91"/>
<polygon fill="midnightblue" stroke="midnightblue" points="508.15,-152.22 498.31,-148.29 503.55,-157.5 508.15,-152.22"/>
</g>
<!-- Node16 -->
<g id="node12" class="node">
<title>Node16</title>
<g id="a_node12"><a xlink:href="_system_manager_8hpp.html" target="_top" xlink:title=" ">
<polygon fill="none" stroke="black" points="242.5,-196 242.5,-215 425.5,-215 425.5,-196 242.5,-196"/>
<text text-anchor="middle" x="334" y="-203" font-family="Helvetica,sans-Serif" font-size="10.00">NekoEngine/ECS/SystemManager.hpp</text>
</a>
</g>
</g>
<!-- Node2&#45;&gt;Node16 -->
<g id="edge17" class="edge">
<title>Node2&#45;&gt;Node16</title>
<path fill="none" stroke="midnightblue" d="M520.03,-262.87C478.59,-251.35 409.26,-230.92 367.87,-218.08"/>
<polygon fill="midnightblue" stroke="midnightblue" points="368.83,-214.71 358.24,-215.06 366.74,-221.39 368.83,-214.71"/>
</g>
<!-- Node20 -->
<g id="node16" class="node">
<title>Node20</title>
<g id="a_node16"><a xlink:title=" ">
<polygon fill="none" stroke="#bfbfbf" points="444,-196 444,-215 526,-215 526,-196 444,-196"/>
<text text-anchor="middle" x="485" y="-203" font-family="Helvetica,sans-Serif" font-size="10.00">Coordinator.tpp</text>
</a>
</g>
</g>
<!-- Node2&#45;&gt;Node20 -->
<g id="edge26" class="edge">
<title>Node2&#45;&gt;Node20</title>
<path fill="none" stroke="midnightblue" d="M544.69,-262.73C533.73,-252.4 515.29,-235.04 501.81,-222.33"/>
<polygon fill="midnightblue" stroke="midnightblue" points="503.84,-219.44 494.16,-215.13 499.04,-224.53 503.84,-219.44"/>
</g>
<!-- Node4 -->
<g id="node4" class="node">
<title>Node4</title>
<g id="a_node4"><a xlink:title=" ">
<polygon fill="none" stroke="#bfbfbf" points="583,-62 583,-81 621,-81 621,-62 583,-62"/>
<text text-anchor="middle" x="602" y="-69" font-family="Helvetica,sans-Serif" font-size="10.00">array</text>
</a>
</g>
</g>
<!-- Node3&#45;&gt;Node4 -->
<g id="edge3" class="edge">
<title>Node3&#45;&gt;Node4</title>
<path fill="none" stroke="midnightblue" d="M642.74,-190.25C635.56,-180.53 626.6,-167.1 621,-154 612.28,-133.59 607.2,-108.52 604.52,-91.62"/>
<polygon fill="midnightblue" stroke="midnightblue" points="607.94,-90.77 603.04,-81.38 601.01,-91.78 607.94,-90.77"/>
</g>
<!-- Node5 -->
<g id="node5" class="node">
<title>Node5</title>
<g id="a_node5"><a xlink:title=" ">
<polygon fill="none" stroke="#bfbfbf" points="784.5,-62 784.5,-81 819.5,-81 819.5,-62 784.5,-62"/>
<text text-anchor="middle" x="802" y="-69" font-family="Helvetica,sans-Serif" font-size="10.00">map</text>
</a>
</g>
</g>
<!-- Node3&#45;&gt;Node5 -->
<g id="edge4" class="edge">
<title>Node3&#45;&gt;Node5</title>
<path fill="none" stroke="midnightblue" d="M726.05,-202.89C806.37,-199.38 928.86,-188.39 958,-154 996.8,-108.22 884.24,-84.71 829.73,-76.25"/>
<polygon fill="midnightblue" stroke="midnightblue" points="830.07,-72.76 819.67,-74.76 829.05,-79.69 830.07,-72.76"/>
</g>
<!-- Node6 -->
<g id="node6" class="node">
<title>Node6</title>
<g id="a_node6"><a xlink:title=" ">
<polygon fill="none" stroke="#bfbfbf" points="364.5,-62 364.5,-81 415.5,-81 415.5,-62 364.5,-62"/>
<text text-anchor="middle" x="390" y="-69" font-family="Helvetica,sans-Serif" font-size="10.00">memory</text>
</a>
</g>
</g>
<!-- Node3&#45;&gt;Node6 -->
<g id="edge5" class="edge">
<title>Node3&#45;&gt;Node6</title>
<path fill="none" stroke="midnightblue" d="M581.92,-195.38C508.37,-185.34 403.27,-168.67 391,-154 376.49,-136.66 379.7,-109.23 384.17,-91.05"/>
<polygon fill="midnightblue" stroke="midnightblue" points="387.56,-91.9 386.89,-81.33 380.82,-90.01 387.56,-91.9"/>
</g>
<!-- Node7 -->
<g id="node7" class="node">
<title>Node7</title>
<g id="a_node7"><a xlink:href="_types_8hpp.html" target="_top" xlink:title="NekoEngine types definition.">
<polygon fill="none" stroke="red" points="207.5,-62 207.5,-81 346.5,-81 346.5,-62 207.5,-62"/>
<text text-anchor="middle" x="277" y="-69" font-family="Helvetica,sans-Serif" font-size="10.00">NekoEngine/ECS/Types.hpp</text>
</a>
</g>
</g>
<!-- Node3&#45;&gt;Node7 -->
<g id="edge6" class="edge">
<title>Node3&#45;&gt;Node7</title>
<path fill="none" stroke="midnightblue" d="M581.99,-195.52C512.46,-186.11 412.62,-170.43 377,-154 342.45,-138.07 309.72,-107.4 291.61,-88.56"/>
<polygon fill="midnightblue" stroke="midnightblue" points="293.97,-85.96 284.57,-81.06 288.86,-90.75 293.97,-85.96"/>
</g>
<!-- Node10 -->
<g id="node8" class="node">
<title>Node10</title>
<g id="a_node8"><a xlink:href="_component_array_8hpp.html" target="_top" xlink:title="Component Array template class.">
<polygon fill="none" stroke="red" points="630,-123.5 630,-153.5 774,-153.5 774,-123.5 630,-123.5"/>
<text text-anchor="start" x="638" y="-141.5" font-family="Helvetica,sans-Serif" font-size="10.00">NekoEngine/ECS/Component</text>
<text text-anchor="middle" x="702" y="-130.5" font-family="Helvetica,sans-Serif" font-size="10.00">Array.hpp</text>
</a>
</g>
</g>
<!-- Node3&#45;&gt;Node10 -->
<g id="edge7" class="edge">
<title>Node3&#45;&gt;Node10</title>
<path fill="none" stroke="midnightblue" d="M664.42,-190.4C670.58,-182.05 678.53,-171.29 685.52,-161.81"/>
<polygon fill="midnightblue" stroke="midnightblue" points="688.48,-163.7 691.61,-153.58 682.85,-159.54 688.48,-163.7"/>
</g>
<!-- Node13 -->
<g id="node9" class="node">
<title>Node13</title>
<g id="a_node9"><a xlink:title=" ">
<polygon fill="none" stroke="#bfbfbf" points="830.5,-129 830.5,-148 949.5,-148 949.5,-129 830.5,-129"/>
<text text-anchor="middle" x="890" y="-136" font-family="Helvetica,sans-Serif" font-size="10.00">ComponentManager.tpp</text>
</a>
</g>
</g>
<!-- Node3&#45;&gt;Node13 -->
<g id="edge11" class="edge">
<title>Node3&#45;&gt;Node13</title>
<path fill="none" stroke="midnightblue" d="M704.92,-190.48C748.14,-178.57 809.34,-161.72 849.34,-150.7"/>
<polygon fill="midnightblue" stroke="midnightblue" points="850.32,-154.06 859.03,-148.03 848.46,-147.31 850.32,-154.06"/>
</g>
<!-- Node10&#45;&gt;Node4 -->
<g id="edge8" class="edge">
<title>Node10&#45;&gt;Node4</title>
<path fill="none" stroke="midnightblue" d="M680.3,-123.4C663.53,-112.5 640.43,-97.48 623.67,-86.58"/>
<polygon fill="midnightblue" stroke="midnightblue" points="625.38,-83.52 615.09,-81.01 621.56,-89.39 625.38,-83.52"/>
</g>
<!-- Node10&#45;&gt;Node5 -->
<g id="edge9" class="edge">
<title>Node10&#45;&gt;Node5</title>
<path fill="none" stroke="midnightblue" d="M723.7,-123.4C740.47,-112.5 763.57,-97.48 780.33,-86.58"/>
<polygon fill="midnightblue" stroke="midnightblue" points="782.44,-89.39 788.91,-81.01 778.62,-83.52 782.44,-89.39"/>
</g>
<!-- Node10&#45;&gt;Node6 -->
<g id="edge10" class="edge">
<title>Node10&#45;&gt;Node6</title>
<path fill="none" stroke="midnightblue" d="M632.49,-123.5C583.19,-113.5 515.49,-99.64 456,-87 446.12,-84.9 435.42,-82.57 425.57,-80.41"/>
<polygon fill="midnightblue" stroke="midnightblue" points="426.2,-76.96 415.68,-78.23 424.7,-83.8 426.2,-76.96"/>
</g>
<!-- Node14&#45;&gt;Node4 -->
<g id="edge14" class="edge">
<title>Node14&#45;&gt;Node4</title>
<path fill="none" stroke="midnightblue" d="M502.51,-128.73C521.91,-117.77 555.33,-98.88 578.03,-86.05"/>
<polygon fill="midnightblue" stroke="midnightblue" points="579.75,-89.09 586.74,-81.13 576.31,-83 579.75,-89.09"/>
</g>
<!-- Node14&#45;&gt;Node6 -->
<g id="edge15" class="edge">
<title>Node14&#45;&gt;Node6</title>
<path fill="none" stroke="midnightblue" d="M473.92,-128.73C457.85,-117.96 430.37,-99.55 411.25,-86.74"/>
<polygon fill="midnightblue" stroke="midnightblue" points="413.13,-83.79 402.87,-81.13 409.23,-89.6 413.13,-83.79"/>
</g>
<!-- Node14&#45;&gt;Node7 -->
<g id="edge16" class="edge">
<title>Node14&#45;&gt;Node7</title>
<path fill="none" stroke="midnightblue" d="M459.11,-128.87C421.9,-117.35 355.9,-96.92 314.4,-84.08"/>
<polygon fill="midnightblue" stroke="midnightblue" points="315.26,-80.68 304.67,-81.06 313.19,-87.36 315.26,-80.68"/>
</g>
<!-- Node15 -->
<g id="node11" class="node">
<title>Node15</title>
<g id="a_node11"><a xlink:title=" ">
<polygon fill="none" stroke="#bfbfbf" points="465.5,-62 465.5,-81 508.5,-81 508.5,-62 465.5,-62"/>
<text text-anchor="middle" x="487" y="-69" font-family="Helvetica,sans-Serif" font-size="10.00">queue</text>
</a>
</g>
</g>
<!-- Node14&#45;&gt;Node15 -->
<g id="edge13" class="edge">
<title>Node14&#45;&gt;Node15</title>
<path fill="none" stroke="midnightblue" d="M487,-128.73C487,-119.18 487,-103.62 487,-91.28"/>
<polygon fill="midnightblue" stroke="midnightblue" points="490.5,-91.13 487,-81.13 483.5,-91.13 490.5,-91.13"/>
</g>
<!-- Node16&#45;&gt;Node2 -->
<g id="edge24" class="edge">
<title>Node16&#45;&gt;Node2</title>
<path fill="none" stroke="midnightblue" d="M367.73,-215.06C409.06,-226.55 478.39,-246.97 519.88,-259.85"/>
<polygon fill="midnightblue" stroke="midnightblue" points="518.96,-263.23 529.55,-262.87 521.05,-256.54 518.96,-263.23"/>
</g>
<!-- Node16&#45;&gt;Node5 -->
<g id="edge19" class="edge">
<title>Node16&#45;&gt;Node5</title>
<path fill="none" stroke="midnightblue" d="M390.57,-195.98C405.04,-193.91 420.58,-191.78 435,-190 512.16,-180.47 724.67,-205.41 783,-154 800.59,-138.49 803.55,-110.14 803.34,-91.31"/>
<polygon fill="midnightblue" stroke="midnightblue" points="806.83,-91.09 802.92,-81.25 799.84,-91.38 806.83,-91.09"/>
</g>
<!-- Node16&#45;&gt;Node6 -->
<g id="edge18" class="edge">
<title>Node16&#45;&gt;Node6</title>
<path fill="none" stroke="midnightblue" d="M335.76,-195.65C338.97,-180.37 346.55,-148.26 358,-123 363.34,-111.23 371.05,-98.96 377.57,-89.47"/>
<polygon fill="midnightblue" stroke="midnightblue" points="380.63,-91.2 383.55,-81.02 374.92,-87.15 380.63,-91.2"/>
</g>
<!-- Node17 -->
<g id="node13" class="node">
<title>Node17</title>
<g id="a_node13"><a xlink:href="_system_8hpp.html" target="_top" xlink:title="ECS System.">
<polygon fill="none" stroke="black" points="0,-129 0,-148 146,-148 146,-129 0,-129"/>
<text text-anchor="middle" x="73" y="-136" font-family="Helvetica,sans-Serif" font-size="10.00">NekoEngine/ECS/System.hpp</text>
</a>
</g>
</g>
<!-- Node16&#45;&gt;Node17 -->
<g id="edge20" class="edge">
<title>Node16&#45;&gt;Node17</title>
<path fill="none" stroke="midnightblue" d="M299.61,-195.94C252.76,-184.27 168.83,-163.37 117.32,-150.54"/>
<polygon fill="midnightblue" stroke="midnightblue" points="118.02,-147.1 107.47,-148.08 116.32,-153.9 118.02,-147.1"/>
</g>
<!-- Node19 -->
<g id="node15" class="node">
<title>Node19</title>
<g id="a_node15"><a xlink:title=" ">
<polygon fill="none" stroke="#bfbfbf" points="164.5,-129 164.5,-148 267.5,-148 267.5,-129 164.5,-129"/>
<text text-anchor="middle" x="216" y="-136" font-family="Helvetica,sans-Serif" font-size="10.00">SystemManager.tpp</text>
</a>
</g>
</g>
<!-- Node16&#45;&gt;Node19 -->
<g id="edge25" class="edge">
<title>Node16&#45;&gt;Node19</title>
<path fill="none" stroke="midnightblue" d="M318.09,-195.73C298.18,-184.77 263.89,-165.88 240.6,-153.05"/>
<polygon fill="midnightblue" stroke="midnightblue" points="242.11,-149.89 231.66,-148.13 238.73,-156.02 242.11,-149.89"/>
</g>
<!-- Node17&#45;&gt;Node6 -->
<g id="edge22" class="edge">
<title>Node17&#45;&gt;Node6</title>
<path fill="none" stroke="midnightblue" d="M120.89,-128.99C200.62,-114.81 352.19,-87.82 355,-87 357.29,-86.33 359.63,-85.56 361.97,-84.73"/>
<polygon fill="midnightblue" stroke="midnightblue" points="363.31,-87.96 371.38,-81.09 360.79,-81.43 363.31,-87.96"/>
</g>
<!-- Node17&#45;&gt;Node7 -->
<g id="edge23" class="edge">
<title>Node17&#45;&gt;Node7</title>
<path fill="none" stroke="midnightblue" d="M100.09,-128.87C136.16,-117.38 200.08,-97.01 240.41,-84.16"/>
<polygon fill="midnightblue" stroke="midnightblue" points="241.66,-87.43 250.12,-81.06 239.53,-80.76 241.66,-87.43"/>
</g>
<!-- Node18 -->
<g id="node14" class="node">
<title>Node18</title>
<g id="a_node14"><a xlink:title=" ">
<polygon fill="none" stroke="#bfbfbf" points="58,-62 58,-81 88,-81 88,-62 58,-62"/>
<text text-anchor="middle" x="73" y="-69" font-family="Helvetica,sans-Serif" font-size="10.00">set</text>
</a>
</g>
</g>
<!-- Node17&#45;&gt;Node18 -->
<g id="edge21" class="edge">
<title>Node17&#45;&gt;Node18</title>
<path fill="none" stroke="midnightblue" d="M73,-128.73C73,-119.18 73,-103.62 73,-91.28"/>
<polygon fill="midnightblue" stroke="midnightblue" points="76.5,-91.13 73,-81.13 69.5,-91.13 76.5,-91.13"/>
</g>
<!-- Node21&#45;&gt;Node17 -->
<g id="edge28" class="edge">
<title>Node21&#45;&gt;Node17</title>
<path fill="none" stroke="midnightblue" d="M289.69,-391.2C250.43,-345.59 128.34,-203.78 86.91,-155.66"/>
<polygon fill="midnightblue" stroke="midnightblue" points="89.54,-153.34 80.36,-148.05 84.23,-157.91 89.54,-153.34"/>
</g>
<!-- Node23 -->
<g id="node19" class="node">
<title>Node23</title>
<g id="a_node19"><a xlink:href="_vector_8hpp.html" target="_top" xlink:title="Contains all headers for all Vector types.">
<polygon fill="none" stroke="black" points="2966.5,-56.5 2966.5,-86.5 3091.5,-86.5 3091.5,-56.5 2966.5,-56.5"/>
<text text-anchor="start" x="2974.5" y="-74.5" font-family="Helvetica,sans-Serif" font-size="10.00">NekoEngine/Math/Vector</text>
<text text-anchor="middle" x="3029" y="-63.5" font-family="Helvetica,sans-Serif" font-size="10.00">/Vector.hpp</text>
</a>
</g>
</g>
<!-- Node22&#45;&gt;Node23 -->
<g id="edge30" class="edge">
<title>Node22&#45;&gt;Node23</title>
<path fill="none" stroke="midnightblue" d="M3176.99,-123.4C3148.38,-113.56 3110.03,-100.37 3079.53,-89.88"/>
<polygon fill="midnightblue" stroke="midnightblue" points="3080.52,-86.52 3069.93,-86.58 3078.25,-93.14 3080.52,-86.52"/>
</g>
<!-- Node24 -->
<g id="node20" class="node">
<title>Node24</title>
<g id="a_node20"><a xlink:href="_vector2_8hpp.html" target="_top" xlink:title="Contains Vector2 template class.">
<polygon fill="none" stroke="black" points="2909,-0.5 2909,-19.5 2977,-19.5 2977,-0.5 2909,-0.5"/>
<text text-anchor="middle" x="2943" y="-7.5" font-family="Helvetica,sans-Serif" font-size="10.00">Vector2.hpp</text>
</a>
</g>
</g>
<!-- Node23&#45;&gt;Node24 -->
<g id="edge31" class="edge">
<title>Node23&#45;&gt;Node24</title>
<path fill="none" stroke="midnightblue" d="M3008.62,-56.4C2995.09,-47.04 2977.39,-34.79 2963.78,-25.38"/>
<polygon fill="midnightblue" stroke="midnightblue" points="2965.73,-22.47 2955.51,-19.66 2961.75,-28.23 2965.73,-22.47"/>
</g>
<!-- Node25 -->
<g id="node21" class="node">
<title>Node25</title>
<g id="a_node21"><a xlink:href="_vector3_8hpp.html" target="_top" xlink:title="Contains Vector3 template class.">
<polygon fill="none" stroke="black" points="2995,-0.5 2995,-19.5 3063,-19.5 3063,-0.5 2995,-0.5"/>
<text text-anchor="middle" x="3029" y="-7.5" font-family="Helvetica,sans-Serif" font-size="10.00">Vector3.hpp</text>
</a>
</g>
</g>
<!-- Node23&#45;&gt;Node25 -->
<g id="edge32" class="edge">
<title>Node23&#45;&gt;Node25</title>
<path fill="none" stroke="midnightblue" d="M3029,-56.4C3029,-48.47 3029,-38.46 3029,-29.86"/>
<polygon fill="midnightblue" stroke="midnightblue" points="3032.5,-29.66 3029,-19.66 3025.5,-29.66 3032.5,-29.66"/>
</g>
<!-- Node26 -->
<g id="node22" class="node">
<title>Node26</title>
<g id="a_node22"><a xlink:href="_vector4_8hpp.html" target="_top" xlink:title="Contains Vector4 template class.">
<polygon fill="none" stroke="black" points="3081,-0.5 3081,-19.5 3149,-19.5 3149,-0.5 3081,-0.5"/>
<text text-anchor="middle" x="3115" y="-7.5" font-family="Helvetica,sans-Serif" font-size="10.00">Vector4.hpp</text>
</a>
</g>
</g>
<!-- Node23&#45;&gt;Node26 -->
<g id="edge33" class="edge">
<title>Node23&#45;&gt;Node26</title>
<path fill="none" stroke="midnightblue" d="M3049.38,-56.4C3062.91,-47.04 3080.61,-34.79 3094.22,-25.38"/>
<polygon fill="midnightblue" stroke="midnightblue" points="3096.25,-28.23 3102.49,-19.66 3092.27,-22.47 3096.25,-28.23"/>
</g>
<!-- Node27&#45;&gt;Node23 -->
<g id="edge58" class="edge">
<title>Node27&#45;&gt;Node23</title>
<path fill="none" stroke="midnightblue" d="M2201.09,-473.09C1943.66,-475.07 885,-475.03 885,-340.5 885,-340.5 885,-340.5 885,-271.5 885,-234.4 874.73,-214.02 903,-190 982.91,-122.1 2591.92,-82.25 2956.14,-74.07"/>
<polygon fill="midnightblue" stroke="midnightblue" points="2956.38,-77.57 2966.3,-73.85 2956.22,-70.57 2956.38,-77.57"/>
</g>
<!-- Node28 -->
<g id="node24" class="node">
<title>Node28</title>
<g id="a_node24"><a xlink:href="_components_8hpp.html" target="_top" xlink:title="Components.">
<polygon fill="none" stroke="black" points="2248.5,-257.5 2248.5,-287.5 2397.5,-287.5 2397.5,-257.5 2248.5,-257.5"/>
<text text-anchor="start" x="2256.5" y="-275.5" font-family="Helvetica,sans-Serif" font-size="10.00">NekoEngine/ECS/Components</text>
<text text-anchor="middle" x="2323" y="-264.5" font-family="Helvetica,sans-Serif" font-size="10.00">/Components.hpp</text>
</a>
</g>
</g>
<!-- Node27&#45;&gt;Node28 -->
<g id="edge35" class="edge">
<title>Node27&#45;&gt;Node28</title>
<path fill="none" stroke="midnightblue" d="M2250.49,-458.32C2238.8,-430.57 2217.61,-367.95 2242,-324 2249.45,-310.58 2262.11,-300.26 2275.24,-292.55"/>
<polygon fill="midnightblue" stroke="midnightblue" points="2277.21,-295.46 2284.34,-287.63 2273.88,-289.31 2277.21,-295.46"/>
</g>
<!-- Node49 -->
<g id="node42" class="node">
<title>Node49</title>
<g id="a_node42"><a xlink:href="_custom_client_8hpp.html" target="_top" xlink:title=" ">
<polygon fill="none" stroke="black" points="2627.5,-397 2627.5,-416 2754.5,-416 2754.5,-397 2627.5,-397"/>
<text text-anchor="middle" x="2691" y="-404" font-family="Helvetica,sans-Serif" font-size="10.00">include/CustomClient.hpp</text>
</a>
</g>
</g>
<!-- Node27&#45;&gt;Node49 -->
<g id="edge59" class="edge">
<title>Node27&#45;&gt;Node49</title>
<path fill="none" stroke="midnightblue" d="M2312.85,-464.14C2392.49,-452.21 2538.47,-430.34 2623.88,-417.55"/>
<polygon fill="midnightblue" stroke="midnightblue" points="2624.62,-420.98 2633.99,-416.04 2623.58,-414.06 2624.62,-420.98"/>
</g>
<!-- Node28&#45;&gt;Node22 -->
<g id="edge36" class="edge">
<title>Node28&#45;&gt;Node22</title>
<path fill="none" stroke="midnightblue" d="M2397.65,-270.27C2588.31,-266.65 3082.85,-254.16 3149,-221 3162.33,-214.32 3186.15,-183.86 3202.01,-162.14"/>
<polygon fill="midnightblue" stroke="midnightblue" points="3205.05,-163.9 3208.07,-153.75 3199.38,-159.81 3205.05,-163.9"/>
</g>
<!-- Node29 -->
<g id="node25" class="node">
<title>Node29</title>
<g id="a_node25"><a xlink:href="_timer_8hpp.html" target="_top" xlink:title="Timer component.">
<polygon fill="none" stroke="red" points="3194.5,-190.5 3194.5,-220.5 3343.5,-220.5 3343.5,-190.5 3194.5,-190.5"/>
<text text-anchor="start" x="3202.5" y="-208.5" font-family="Helvetica,sans-Serif" font-size="10.00">NekoEngine/ECS/Components</text>
<text text-anchor="middle" x="3269" y="-197.5" font-family="Helvetica,sans-Serif" font-size="10.00">/Timer.hpp</text>
</a>
</g>
</g>
<!-- Node28&#45;&gt;Node29 -->
<g id="edge37" class="edge">
<title>Node28&#45;&gt;Node29</title>
<path fill="none" stroke="midnightblue" d="M2397.53,-269.73C2546.7,-265.62 2892.38,-253.18 3181,-221 3182.08,-220.88 3183.16,-220.76 3184.25,-220.63"/>
<polygon fill="midnightblue" stroke="midnightblue" points="3184.7,-224.1 3194.18,-219.37 3183.82,-217.15 3184.7,-224.1"/>
</g>
<!-- Node31 -->
<g id="node26" class="node">
<title>Node31</title>
<g id="a_node26"><a xlink:href="_renderable_8hpp.html" target="_top" xlink:title="Renderable component.">
<polygon fill="none" stroke="black" points="912.5,-190.5 912.5,-220.5 1061.5,-220.5 1061.5,-190.5 912.5,-190.5"/>
<text text-anchor="start" x="920.5" y="-208.5" font-family="Helvetica,sans-Serif" font-size="10.00">NekoEngine/ECS/Components</text>
<text text-anchor="middle" x="987" y="-197.5" font-family="Helvetica,sans-Serif" font-size="10.00">/Renderable.hpp</text>
</a>
</g>
</g>
<!-- Node28&#45;&gt;Node31 -->
<g id="edge38" class="edge">
<title>Node28&#45;&gt;Node31</title>
<path fill="none" stroke="midnightblue" d="M2248.25,-271.94C2055,-272.33 1523,-268.69 1071.57,-221.07"/>
<polygon fill="midnightblue" stroke="midnightblue" points="1071.9,-217.59 1061.59,-220.01 1071.16,-224.55 1071.9,-217.59"/>
</g>
<!-- Node32 -->
<g id="node27" class="node">
<title>Node32</title>
<g id="a_node27"><a xlink:href="_color_8hpp.html" target="_top" xlink:title="Color component.">
<polygon fill="none" stroke="red" points="1079.5,-190.5 1079.5,-220.5 1228.5,-220.5 1228.5,-190.5 1079.5,-190.5"/>
<text text-anchor="start" x="1087.5" y="-208.5" font-family="Helvetica,sans-Serif" font-size="10.00">NekoEngine/ECS/Components</text>
<text text-anchor="middle" x="1154" y="-197.5" font-family="Helvetica,sans-Serif" font-size="10.00">/Color.hpp</text>
</a>
</g>
</g>
<!-- Node28&#45;&gt;Node32 -->
<g id="edge39" class="edge">
<title>Node28&#45;&gt;Node32</title>
<path fill="none" stroke="midnightblue" d="M2248.35,-271.27C2073.46,-270.05 1623.51,-262.82 1238.81,-221.11"/>
<polygon fill="midnightblue" stroke="midnightblue" points="1238.91,-217.6 1228.59,-219.99 1238.15,-224.56 1238.91,-217.6"/>
</g>
<!-- Node33 -->
<g id="node28" class="node">
<title>Node33</title>
<g id="a_node28"><a xlink:href="_rigid_body_8hpp.html" target="_top" xlink:title="RigidBody component.">
<polygon fill="none" stroke="black" points="2580.5,-123.5 2580.5,-153.5 2729.5,-153.5 2729.5,-123.5 2580.5,-123.5"/>
<text text-anchor="start" x="2588.5" y="-141.5" font-family="Helvetica,sans-Serif" font-size="10.00">NekoEngine/ECS/Components</text>
<text text-anchor="middle" x="2655" y="-130.5" font-family="Helvetica,sans-Serif" font-size="10.00">/RigidBody.hpp</text>
</a>
</g>
</g>
<!-- Node28&#45;&gt;Node33 -->
<g id="edge40" class="edge">
<title>Node28&#45;&gt;Node33</title>
<path fill="none" stroke="midnightblue" d="M2348.27,-257.34C2365.02,-247.67 2387.27,-234.24 2406,-221 2423.8,-208.42 2424.47,-199.67 2444,-190 2483.37,-170.51 2530.65,-158.3 2570.47,-150.78"/>
<polygon fill="midnightblue" stroke="midnightblue" points="2571.22,-154.2 2580.43,-148.97 2569.96,-147.32 2571.22,-154.2"/>
</g>
<!-- Node34 -->
<g id="node29" class="node">
<title>Node34</title>
<g id="a_node29"><a xlink:href="_gravity_8hpp.html" target="_top" xlink:title="Gravity component.">
<polygon fill="none" stroke="black" points="2765.5,-123.5 2765.5,-153.5 2914.5,-153.5 2914.5,-123.5 2765.5,-123.5"/>
<text text-anchor="start" x="2773.5" y="-141.5" font-family="Helvetica,sans-Serif" font-size="10.00">NekoEngine/ECS/Components</text>
<text text-anchor="middle" x="2840" y="-130.5" font-family="Helvetica,sans-Serif" font-size="10.00">/Gravity.hpp</text>
</a>
</g>
</g>
<!-- Node28&#45;&gt;Node34 -->
<g id="edge42" class="edge">
<title>Node28&#45;&gt;Node34</title>
<path fill="none" stroke="midnightblue" d="M2397.76,-269C2457.85,-264.54 2543.11,-252.59 2611,-221 2630.45,-211.95 2628.94,-199.86 2648,-190 2681.16,-172.85 2720.63,-161.17 2755.13,-153.41"/>
<polygon fill="midnightblue" stroke="midnightblue" points="2756.16,-156.76 2765.19,-151.22 2754.68,-149.92 2756.16,-156.76"/>
</g>
<!-- Node35 -->
<g id="node30" class="node">
<title>Node35</title>
<g id="a_node30"><a xlink:href="_skin_8hpp.html" target="_top" xlink:title="Skin component.">
<polygon fill="none" stroke="red" points="1246.5,-190.5 1246.5,-220.5 1395.5,-220.5 1395.5,-190.5 1246.5,-190.5"/>
<text text-anchor="start" x="1254.5" y="-208.5" font-family="Helvetica,sans-Serif" font-size="10.00">NekoEngine/ECS/Components</text>
<text text-anchor="middle" x="1321" y="-197.5" font-family="Helvetica,sans-Serif" font-size="10.00">/Skin.hpp</text>
</a>
</g>
</g>
<!-- Node28&#45;&gt;Node35 -->
<g id="edge44" class="edge">
<title>Node28&#45;&gt;Node35</title>
<path fill="none" stroke="midnightblue" d="M2248.3,-270.38C2093.1,-267.4 1724.38,-256.97 1405.95,-221.14"/>
<polygon fill="midnightblue" stroke="midnightblue" points="1405.93,-217.61 1395.6,-219.96 1405.14,-224.57 1405.93,-217.61"/>
</g>
<!-- Node37 -->
<g id="node31" class="node">
<title>Node37</title>
<g id="a_node31"><a xlink:href="_networkable_8hpp.html" target="_top" xlink:title="Networkable component.">
<polygon fill="none" stroke="black" points="1413.5,-190.5 1413.5,-220.5 1562.5,-220.5 1562.5,-190.5 1413.5,-190.5"/>
<text text-anchor="start" x="1421.5" y="-208.5" font-family="Helvetica,sans-Serif" font-size="10.00">NekoEngine/ECS/Components</text>
<text text-anchor="middle" x="1488" y="-197.5" font-family="Helvetica,sans-Serif" font-size="10.00">/Networkable.hpp</text>
</a>
</g>
</g>
<!-- Node28&#45;&gt;Node37 -->
<g id="edge45" class="edge">
<title>Node28&#45;&gt;Node37</title>
<path fill="none" stroke="midnightblue" d="M2248.31,-269.11C2114.68,-264.25 1825.74,-251.13 1572.72,-221.13"/>
<polygon fill="midnightblue" stroke="midnightblue" points="1572.95,-217.63 1562.6,-219.92 1572.11,-224.58 1572.95,-217.63"/>
</g>
<!-- Node38 -->
<g id="node32" class="node">
<title>Node38</title>
<g id="a_node32"><a xlink:href="_uid_8hpp.html" target="_top" xlink:title="Uid component.">
<polygon fill="none" stroke="red" points="1580.5,-190.5 1580.5,-220.5 1729.5,-220.5 1729.5,-190.5 1580.5,-190.5"/>
<text text-anchor="start" x="1588.5" y="-208.5" font-family="Helvetica,sans-Serif" font-size="10.00">NekoEngine/ECS/Components</text>
<text text-anchor="middle" x="1655" y="-197.5" font-family="Helvetica,sans-Serif" font-size="10.00">/Uid.hpp</text>
</a>
</g>
</g>
<!-- Node28&#45;&gt;Node38 -->
<g id="edge46" class="edge">
<title>Node28&#45;&gt;Node38</title>
<path fill="none" stroke="midnightblue" d="M2248.44,-267.14C2139,-260.29 1928.29,-245.34 1739.71,-221.16"/>
<polygon fill="midnightblue" stroke="midnightblue" points="1739.98,-217.66 1729.61,-219.85 1739.08,-224.6 1739.98,-217.66"/>
</g>
<!-- Node39 -->
<g id="node33" class="node">
<title>Node39</title>
<g id="a_node33"><a xlink:href="_hostile_8hpp.html" target="_top" xlink:title=" ">
<polygon fill="none" stroke="black" points="1747.5,-190.5 1747.5,-220.5 1896.5,-220.5 1896.5,-190.5 1747.5,-190.5"/>
<text text-anchor="start" x="1755.5" y="-208.5" font-family="Helvetica,sans-Serif" font-size="10.00">NekoEngine/ECS/Components</text>
<text text-anchor="middle" x="1822" y="-197.5" font-family="Helvetica,sans-Serif" font-size="10.00">/Hostile.hpp</text>
</a>
</g>
</g>
<!-- Node28&#45;&gt;Node39 -->
<g id="edge47" class="edge">
<title>Node28&#45;&gt;Node39</title>
<path fill="none" stroke="midnightblue" d="M2248.47,-263.69C2166.95,-254.89 2032.2,-239.53 1906.79,-221.22"/>
<polygon fill="midnightblue" stroke="midnightblue" points="1907.03,-217.72 1896.63,-219.73 1906.01,-224.65 1907.03,-217.72"/>
</g>
<!-- Node40 -->
<g id="node34" class="node">
<title>Node40</title>
<g id="a_node34"><a xlink:href="_but_8hpp.html" target="_top" xlink:title=" ">
<polygon fill="none" stroke="black" points="1914.5,-190.5 1914.5,-220.5 2063.5,-220.5 2063.5,-190.5 1914.5,-190.5"/>
<text text-anchor="start" x="1922.5" y="-208.5" font-family="Helvetica,sans-Serif" font-size="10.00">NekoEngine/ECS/Components</text>
<text text-anchor="middle" x="1989" y="-197.5" font-family="Helvetica,sans-Serif" font-size="10.00">/But.hpp</text>
</a>
</g>
</g>
<!-- Node28&#45;&gt;Node40 -->
<g id="edge48" class="edge">
<title>Node28&#45;&gt;Node40</title>
<path fill="none" stroke="midnightblue" d="M2250.94,-257.48C2198.13,-247.2 2126.36,-233.23 2071.3,-222.52"/>
<polygon fill="midnightblue" stroke="midnightblue" points="2071.7,-219.03 2061.22,-220.55 2070.37,-225.9 2071.7,-219.03"/>
</g>
<!-- Node41 -->
<g id="node35" class="node">
<title>Node41</title>
<g id="a_node35"><a xlink:href="_textinfo_8hpp.html" target="_top" xlink:title=" ">
<polygon fill="none" stroke="red" points="2081.5,-190.5 2081.5,-220.5 2230.5,-220.5 2230.5,-190.5 2081.5,-190.5"/>
<text text-anchor="start" x="2089.5" y="-208.5" font-family="Helvetica,sans-Serif" font-size="10.00">NekoEngine/ECS/Components</text>
<text text-anchor="middle" x="2156" y="-197.5" font-family="Helvetica,sans-Serif" font-size="10.00">/Textinfo.hpp</text>
</a>
</g>
</g>
<!-- Node28&#45;&gt;Node41 -->
<g id="edge49" class="edge">
<title>Node28&#45;&gt;Node41</title>
<path fill="none" stroke="midnightblue" d="M2286.76,-257.4C2261.82,-247.69 2228.47,-234.71 2201.7,-224.29"/>
<polygon fill="midnightblue" stroke="midnightblue" points="2202.75,-220.94 2192.17,-220.58 2200.22,-227.47 2202.75,-220.94"/>
</g>
<!-- Node42 -->
<g id="node36" class="node">
<title>Node42</title>
<g id="a_node36"><a xlink:href="_patterns_8hpp.html" target="_top" xlink:title="Patterns component.">
<polygon fill="none" stroke="red" points="3398.5,-190.5 3398.5,-220.5 3547.5,-220.5 3547.5,-190.5 3398.5,-190.5"/>
<text text-anchor="start" x="3406.5" y="-208.5" font-family="Helvetica,sans-Serif" font-size="10.00">NekoEngine/ECS/Components</text>
<text text-anchor="middle" x="3473" y="-197.5" font-family="Helvetica,sans-Serif" font-size="10.00">/Patterns.hpp</text>
</a>
</g>
</g>
<!-- Node28&#45;&gt;Node42 -->
<g id="edge50" class="edge">
<title>Node28&#45;&gt;Node42</title>
<path fill="none" stroke="midnightblue" d="M2397.76,-269.66C2567.71,-265.08 2995.99,-251.28 3353,-221 3364.32,-220.04 3376.22,-218.84 3387.95,-217.54"/>
<polygon fill="midnightblue" stroke="midnightblue" points="3388.65,-220.98 3398.19,-216.37 3387.86,-214.03 3388.65,-220.98"/>
</g>
<!-- Node44 -->
<g id="node37" class="node">
<title>Node44</title>
<g id="a_node37"><a xlink:href="_alien_8hpp.html" target="_top" xlink:title="Alien component.">
<polygon fill="none" stroke="black" points="2248.5,-190.5 2248.5,-220.5 2397.5,-220.5 2397.5,-190.5 2248.5,-190.5"/>
<text text-anchor="start" x="2256.5" y="-208.5" font-family="Helvetica,sans-Serif" font-size="10.00">NekoEngine/ECS/Components</text>
<text text-anchor="middle" x="2323" y="-197.5" font-family="Helvetica,sans-Serif" font-size="10.00">/Alien.hpp</text>
</a>
</g>
</g>
<!-- Node28&#45;&gt;Node44 -->
<g id="edge53" class="edge">
<title>Node28&#45;&gt;Node44</title>
<path fill="none" stroke="midnightblue" d="M2323,-257.4C2323,-249.64 2323,-239.81 2323,-230.86"/>
<polygon fill="midnightblue" stroke="midnightblue" points="2326.5,-230.58 2323,-220.58 2319.5,-230.58 2326.5,-230.58"/>
</g>
<!-- Node45 -->
<g id="node38" class="node">
<title>Node45</title>
<g id="a_node38"><a xlink:href="_entity_type_8hpp.html" target="_top" xlink:title=" ">
<polygon fill="none" stroke="black" points="2452.5,-190.5 2452.5,-220.5 2601.5,-220.5 2601.5,-190.5 2452.5,-190.5"/>
<text text-anchor="start" x="2460.5" y="-208.5" font-family="Helvetica,sans-Serif" font-size="10.00">NekoEngine/ECS/Components</text>
<text text-anchor="middle" x="2527" y="-197.5" font-family="Helvetica,sans-Serif" font-size="10.00">/EntityType.hpp</text>
</a>
</g>
</g>
<!-- Node28&#45;&gt;Node45 -->
<g id="edge54" class="edge">
<title>Node28&#45;&gt;Node45</title>
<path fill="none" stroke="midnightblue" d="M2367.01,-257.48C2398.14,-247.56 2440.06,-234.2 2473.18,-223.65"/>
<polygon fill="midnightblue" stroke="midnightblue" points="2474.25,-226.98 2482.71,-220.61 2472.12,-220.31 2474.25,-226.98"/>
</g>
<!-- Node46 -->
<g id="node39" class="node">
<title>Node46</title>
<g id="a_node39"><a xlink:href="_gorb_background_8hpp.html" target="_top" xlink:title=" ">
<polygon fill="none" stroke="black" points="2656.5,-190.5 2656.5,-220.5 2805.5,-220.5 2805.5,-190.5 2656.5,-190.5"/>
<text text-anchor="start" x="2664.5" y="-208.5" font-family="Helvetica,sans-Serif" font-size="10.00">NekoEngine/ECS/Components</text>
<text text-anchor="middle" x="2731" y="-197.5" font-family="Helvetica,sans-Serif" font-size="10.00">/GorbBackground.hpp</text>
</a>
</g>
</g>
<!-- Node28&#45;&gt;Node46 -->
<g id="edge55" class="edge">
<title>Node28&#45;&gt;Node46</title>
<path fill="none" stroke="midnightblue" d="M2397.7,-259.86C2462.57,-249.71 2559.02,-234.55 2643,-221 2644.07,-220.83 2645.15,-220.65 2646.23,-220.48"/>
<polygon fill="midnightblue" stroke="midnightblue" points="2646.8,-223.93 2656.11,-218.87 2645.68,-217.02 2646.8,-223.93"/>
</g>
<!-- Node47 -->
<g id="node40" class="node">
<title>Node47</title>
<g id="a_node40"><a xlink:href="_animation_8hpp.html" target="_top" xlink:title=" ">
<polygon fill="none" stroke="black" points="2823.5,-190.5 2823.5,-220.5 2972.5,-220.5 2972.5,-190.5 2823.5,-190.5"/>
<text text-anchor="start" x="2831.5" y="-208.5" font-family="Helvetica,sans-Serif" font-size="10.00">NekoEngine/ECS/Components</text>
<text text-anchor="middle" x="2898" y="-197.5" font-family="Helvetica,sans-Serif" font-size="10.00">/Animation.hpp</text>
</a>
</g>
</g>
<!-- Node28&#45;&gt;Node47 -->
<g id="edge56" class="edge">
<title>Node28&#45;&gt;Node47</title>
<path fill="none" stroke="midnightblue" d="M2397.8,-265.48C2492.33,-257.5 2660.24,-242.09 2813.32,-221.18"/>
<polygon fill="midnightblue" stroke="midnightblue" points="2813.95,-224.62 2823.38,-219.79 2813,-217.69 2813.95,-224.62"/>
</g>
<!-- Node48 -->
<g id="node41" class="node">
<title>Node48</title>
<g id="a_node41"><a xlink:href="_player_shoot_8hpp.html" target="_top" xlink:title=" ">
<polygon fill="none" stroke="black" points="2990.5,-190.5 2990.5,-220.5 3139.5,-220.5 3139.5,-190.5 2990.5,-190.5"/>
<text text-anchor="start" x="2998.5" y="-208.5" font-family="Helvetica,sans-Serif" font-size="10.00">NekoEngine/ECS/Components</text>
<text text-anchor="middle" x="3065" y="-197.5" font-family="Helvetica,sans-Serif" font-size="10.00">/PlayerShoot.hpp</text>
</a>
</g>
</g>
<!-- Node28&#45;&gt;Node48 -->
<g id="edge57" class="edge">
<title>Node28&#45;&gt;Node48</title>
<path fill="none" stroke="midnightblue" d="M2397.85,-268.12C2518.48,-262.15 2763.52,-247.88 2980.41,-221.13"/>
<polygon fill="midnightblue" stroke="midnightblue" points="2980.9,-224.59 2990.39,-219.88 2980.04,-217.65 2980.9,-224.59"/>
</g>
<!-- Node33&#45;&gt;Node23 -->
<g id="edge41" class="edge">
<title>Node33&#45;&gt;Node23</title>
<path fill="none" stroke="midnightblue" d="M2729.79,-124.5C2795.65,-113.06 2890.98,-96.49 2956.23,-85.15"/>
<polygon fill="midnightblue" stroke="midnightblue" points="2957.19,-88.53 2966.44,-83.37 2955.99,-81.64 2957.19,-88.53"/>
</g>
<!-- Node34&#45;&gt;Node23 -->
<g id="edge43" class="edge">
<title>Node34&#45;&gt;Node23</title>
<path fill="none" stroke="midnightblue" d="M2881.01,-123.4C2909.62,-113.56 2947.97,-100.37 2978.47,-89.88"/>
<polygon fill="midnightblue" stroke="midnightblue" points="2979.75,-93.14 2988.07,-86.58 2977.48,-86.52 2979.75,-93.14"/>
</g>
<!-- Node42&#45;&gt;Node22 -->
<g id="edge52" class="edge">
<title>Node42&#45;&gt;Node22</title>
<path fill="none" stroke="midnightblue" d="M3417.98,-190.48C3378.4,-180.39 3324.87,-166.74 3283.15,-156.11"/>
<polygon fill="midnightblue" stroke="midnightblue" points="3283.91,-152.69 3273.36,-153.61 3282.18,-159.47 3283.91,-152.69"/>
</g>
<!-- Node42&#45;&gt;Node23 -->
<g id="edge51" class="edge">
<title>Node42&#45;&gt;Node23</title>
<path fill="none" stroke="midnightblue" d="M3448.64,-190.37C3416.21,-172.15 3356.58,-140.72 3302,-123 3235.86,-101.53 3157.56,-88.22 3101.82,-80.69"/>
<polygon fill="midnightblue" stroke="midnightblue" points="3102.05,-77.19 3091.68,-79.35 3101.13,-84.13 3102.05,-77.19"/>
</g>
<!-- Node50 -->
<g id="node43" class="node">
<title>Node50</title>
<g id="a_node43"><a xlink:title=" ">
<polygon fill="none" stroke="#bfbfbf" points="2835,-330 2835,-349 2939,-349 2939,-330 2835,-330"/>
<text text-anchor="middle" x="2887" y="-337" font-family="Helvetica,sans-Serif" font-size="10.00">NyaNet/NyaNet.hpp</text>
</a>
</g>
</g>
<!-- Node49&#45;&gt;Node50 -->
<g id="edge60" class="edge">
<title>Node49&#45;&gt;Node50</title>
<path fill="none" stroke="midnightblue" d="M2717.03,-396.87C2751.54,-385.42 2812.58,-365.18 2851.35,-352.32"/>
<polygon fill="midnightblue" stroke="midnightblue" points="2852.79,-355.53 2861.18,-349.06 2850.58,-348.89 2852.79,-355.53"/>
</g>
<!-- Node51 -->
<g id="node44" class="node">
<title>Node51</title>
<g id="a_node44"><a xlink:href="_neko_engine_8hpp.html" target="_top" xlink:title=" ">
<polygon fill="none" stroke="red" points="2251.5,-330 2251.5,-349 2394.5,-349 2394.5,-330 2251.5,-330"/>
<text text-anchor="middle" x="2323" y="-337" font-family="Helvetica,sans-Serif" font-size="10.00">NekoEngine/NekoEngine.hpp</text>
</a>
</g>
</g>
<!-- Node49&#45;&gt;Node51 -->
<g id="edge61" class="edge">
<title>Node49&#45;&gt;Node51</title>
<path fill="none" stroke="midnightblue" d="M2642.24,-396.97C2585.14,-386.96 2487.69,-369.85 2404,-355 2396.38,-353.65 2388.37,-352.22 2380.46,-350.81"/>
<polygon fill="midnightblue" stroke="midnightblue" points="2381,-347.35 2370.54,-349.03 2379.77,-354.24 2381,-347.35"/>
</g>
<!-- Node71 -->
<g id="node45" class="node">
<title>Node71</title>
<g id="a_node45"><a xlink:title=" ">
<polygon fill="none" stroke="#bfbfbf" points="2957.5,-324.5 2957.5,-354.5 3070.5,-354.5 3070.5,-324.5 2957.5,-324.5"/>
<text text-anchor="start" x="2965.5" y="-342.5" font-family="Helvetica,sans-Serif" font-size="10.00">../../Game/Ennemies</text>
<text text-anchor="middle" x="3014" y="-331.5" font-family="Helvetica,sans-Serif" font-size="10.00">/EnnemiesFactory.hpp</text>
</a>
</g>
</g>
<!-- Node49&#45;&gt;Node71 -->
<g id="edge66" class="edge">
<title>Node49&#45;&gt;Node71</title>
<path fill="none" stroke="midnightblue" d="M2736.09,-396.95C2785.45,-387.53 2867.18,-371.72 2947.68,-355.04"/>
<polygon fill="midnightblue" stroke="midnightblue" points="2948.41,-358.46 2957.49,-353 2946.99,-351.61 2948.41,-358.46"/>
</g>
<!-- Node72 -->
<g id="node46" class="node">
<title>Node72</title>
<g id="a_node46"><a xlink:title=" ">
<polygon fill="none" stroke="#bfbfbf" points="3089,-324.5 3089,-354.5 3189,-354.5 3189,-324.5 3089,-324.5"/>
<text text-anchor="start" x="3097" y="-342.5" font-family="Helvetica,sans-Serif" font-size="10.00">../../Game/Bullets</text>
<text text-anchor="middle" x="3139" y="-331.5" font-family="Helvetica,sans-Serif" font-size="10.00">/BulletsFactory.hpp</text>
</a>
</g>
</g>
<!-- Node49&#45;&gt;Node72 -->
<g id="edge67" class="edge">
<title>Node49&#45;&gt;Node72</title>
<path fill="none" stroke="midnightblue" d="M2754.68,-399.44C2829.89,-391.8 2958.91,-377.13 3078.78,-355.1"/>
<polygon fill="midnightblue" stroke="midnightblue" points="3079.68,-358.49 3088.87,-353.22 3078.4,-351.61 3079.68,-358.49"/>
</g>
<!-- Node73 -->
<g id="node47" class="node">
<title>Node73</title>
<g id="a_node47"><a xlink:title=" ">
<polygon fill="none" stroke="#bfbfbf" points="2413,-330 2413,-349 2583,-349 2583,-330 2413,-330"/>
<text text-anchor="middle" x="2498" y="-337" font-family="Helvetica,sans-Serif" font-size="10.00">../../Game/Bonus/BonusFactory.hpp</text>
</a>
</g>
</g>
<!-- Node49&#45;&gt;Node73 -->
<g id="edge68" class="edge">
<title>Node49&#45;&gt;Node73</title>
<path fill="none" stroke="midnightblue" d="M2665.37,-396.87C2631.39,-385.42 2571.28,-365.18 2533.1,-352.32"/>
<polygon fill="midnightblue" stroke="midnightblue" points="2534.02,-348.94 2523.43,-349.06 2531.79,-355.57 2534.02,-348.94"/>
</g>
<!-- Node74 -->
<g id="node48" class="node">
<title>Node74</title>
<g id="a_node48"><a xlink:href="_sound_8hpp.html" target="_top" xlink:title=" ">
<polygon fill="none" stroke="red" points="2601,-330 2601,-349 2663,-349 2663,-330 2601,-330"/>
<text text-anchor="middle" x="2632" y="-337" font-family="Helvetica,sans-Serif" font-size="10.00">Sound.hpp</text>
</a>
</g>
</g>
<!-- Node49&#45;&gt;Node74 -->
<g id="edge69" class="edge">
<title>Node49&#45;&gt;Node74</title>
<path fill="none" stroke="midnightblue" d="M2683.04,-396.73C2673.75,-386.5 2658.2,-369.36 2646.7,-356.69"/>
<polygon fill="midnightblue" stroke="midnightblue" points="2649.14,-354.18 2639.83,-349.13 2643.96,-358.88 2649.14,-354.18"/>
</g>
<!-- Node76 -->
<g id="node49" class="node">
<title>Node76</title>
<g id="a_node49"><a xlink:title=" ">
<polygon fill="none" stroke="#bfbfbf" points="2681,-330 2681,-349 2817,-349 2817,-330 2681,-330"/>
<text text-anchor="middle" x="2749" y="-337" font-family="Helvetica,sans-Serif" font-size="10.00">../../Game/Player/Player.hpp</text>
</a>
</g>
</g>
<!-- Node49&#45;&gt;Node76 -->
<g id="edge70" class="edge">
<title>Node49&#45;&gt;Node76</title>
<path fill="none" stroke="midnightblue" d="M2698.82,-396.73C2707.95,-386.5 2723.24,-369.36 2734.55,-356.69"/>
<polygon fill="midnightblue" stroke="midnightblue" points="2737.26,-358.92 2741.3,-349.13 2732.03,-354.26 2737.26,-358.92"/>
</g>
<!-- Node51&#45;&gt;Node2 -->
<g id="edge63" class="edge">
<title>Node51&#45;&gt;Node2</title>
<path fill="none" stroke="midnightblue" d="M2251.46,-335.87C1972.4,-325.62 957.06,-288.31 645.53,-276.86"/>
<polygon fill="midnightblue" stroke="midnightblue" points="645.31,-273.35 635.18,-276.48 645.05,-280.35 645.31,-273.35"/>
</g>
<!-- Node51&#45;&gt;Node23 -->
<g id="edge62" class="edge">
<title>Node51&#45;&gt;Node23</title>
<path fill="none" stroke="midnightblue" d="M2366.61,-329.97C2378.69,-327.8 2391.82,-325.63 2404,-324 2531.48,-306.93 3470.19,-315.91 3557,-221 3621.42,-150.57 3261.15,-99.38 3101.84,-80.49"/>
<polygon fill="midnightblue" stroke="midnightblue" points="3101.98,-76.98 3091.64,-79.29 3101.16,-83.93 3101.98,-76.98"/>
</g>
<!-- Node51&#45;&gt;Node27 -->
<g id="edge65" class="edge">
<title>Node51&#45;&gt;Node27</title>
<path fill="none" stroke="midnightblue" d="M2318.7,-349.1C2308.71,-369.08 2283.63,-419.25 2268.7,-449.1"/>
<polygon fill="midnightblue" stroke="midnightblue" points="2265.4,-447.86 2264.06,-458.37 2271.67,-450.99 2265.4,-447.86"/>
</g>
<!-- Node51&#45;&gt;Node28 -->
<g id="edge64" class="edge">
<title>Node51&#45;&gt;Node28</title>
<path fill="none" stroke="midnightblue" d="M2323,-329.73C2323,-321.54 2323,-308.92 2323,-297.71"/>
<polygon fill="midnightblue" stroke="midnightblue" points="2326.5,-297.59 2323,-287.59 2319.5,-297.59 2326.5,-297.59"/>
</g>
</g>
</svg>
