<?xml version="1.0" encoding="UTF-8" standalone="no"?>
<!DOCTYPE svg PUBLIC "-//W3C//DTD SVG 1.1//EN"
 "http://www.w3.org/Graphics/SVG/1.1/DTD/svg11.dtd">
<!-- Generated by graphviz version 2.49.3 (20211027.1501)
 -->
<!-- Title: NekoEngine/include/NekoEngine/ECS/Systems/MouseSystem.hpp Pages: 1 -->
<svg width="1219pt" height="407pt"
 viewBox="0.00 0.00 1218.50 407.00" xmlns="http://www.w3.org/2000/svg" xmlns:xlink="http://www.w3.org/1999/xlink">
<g id="graph0" class="graph" transform="scale(1 1) rotate(0) translate(4 403)">
<title>NekoEngine/include/NekoEngine/ECS/Systems/MouseSystem.hpp</title>
<!-- Node1 -->
<g id="node1" class="node">
<title>Node1</title>
<g id="a_node1"><a xlink:title="Mouse System class.">
<polygon fill="#bfbfbf" stroke="black" points="846,-357.5 846,-398.5 982,-398.5 982,-357.5 846,-357.5"/>
<text text-anchor="start" x="854" y="-386.5" font-family="Helvetica,sans-Serif" font-size="10.00">NekoEngine/include</text>
<text text-anchor="start" x="854" y="-375.5" font-family="Helvetica,sans-Serif" font-size="10.00">/NekoEngine/ECS/Systems</text>
<text text-anchor="middle" x="914" y="-364.5" font-family="Helvetica,sans-Serif" font-size="10.00">/MouseSystem.hpp</text>
</a>
</g>
</g>
<!-- Node2 -->
<g id="node2" class="node">
<title>Node2</title>
<g id="a_node2"><a xlink:href="_systems_8hpp.html" target="_top" xlink:title="Systems.">
<polygon fill="none" stroke="black" points="615,-279.5 615,-320.5 751,-320.5 751,-279.5 615,-279.5"/>
<text text-anchor="start" x="623" y="-308.5" font-family="Helvetica,sans-Serif" font-size="10.00">NekoEngine/include</text>
<text text-anchor="start" x="623" y="-297.5" font-family="Helvetica,sans-Serif" font-size="10.00">/NekoEngine/ECS/Systems</text>
<text text-anchor="middle" x="683" y="-286.5" font-family="Helvetica,sans-Serif" font-size="10.00">/Systems.hpp</text>
</a>
</g>
</g>
<!-- Node1&#45;&gt;Node2 -->
<g id="edge1" class="edge">
<title>Node1&#45;&gt;Node2</title>
<path fill="none" stroke="midnightblue" d="M844.59,-354.17C811.98,-343.44 773.51,-330.78 742.29,-320.51"/>
<polygon fill="midnightblue" stroke="midnightblue" points="843.92,-357.63 854.51,-357.43 846.11,-350.98 843.92,-357.63"/>
</g>
<!-- Node10 -->
<g id="node10" class="node">
<title>Node10</title>
<g id="a_node10"><a xlink:href="_mouse_system_8cpp.html" target="_top" xlink:title=" ">
<polygon fill="none" stroke="black" points="1069.5,-0.5 1069.5,-30.5 1210.5,-30.5 1210.5,-0.5 1069.5,-0.5"/>
<text text-anchor="start" x="1077.5" y="-18.5" font-family="Helvetica,sans-Serif" font-size="10.00">NekoEngine/src/ECS</text>
<text text-anchor="middle" x="1140" y="-7.5" font-family="Helvetica,sans-Serif" font-size="10.00">/Systems/MouseSystem.cpp</text>
</a>
</g>
</g>
<!-- Node1&#45;&gt;Node10 -->
<g id="edge26" class="edge">
<title>Node1&#45;&gt;Node10</title>
<path fill="none" stroke="midnightblue" d="M991.91,-356.97C1052.73,-336.09 1127,-296.64 1127,-228.5 1127,-228.5 1127,-228.5 1127,-159.5 1127,-112.14 1134.16,-56.31 1137.85,-30.67"/>
<polygon fill="midnightblue" stroke="midnightblue" points="990.66,-353.69 982.27,-360.16 992.87,-360.34 990.66,-353.69"/>
</g>
<!-- Node3 -->
<g id="node3" class="node">
<title>Node3</title>
<g id="a_node3"><a xlink:href="_neko_engine_8hpp.html" target="_top" xlink:title=" ">
<polygon fill="none" stroke="black" points="686,-212.5 686,-242.5 832,-242.5 832,-212.5 686,-212.5"/>
<text text-anchor="start" x="694" y="-230.5" font-family="Helvetica,sans-Serif" font-size="10.00">NekoEngine/include</text>
<text text-anchor="middle" x="759" y="-219.5" font-family="Helvetica,sans-Serif" font-size="10.00">/NekoEngine/NekoEngine.hpp</text>
</a>
</g>
</g>
<!-- Node2&#45;&gt;Node3 -->
<g id="edge2" class="edge">
<title>Node2&#45;&gt;Node3</title>
<path fill="none" stroke="midnightblue" d="M711.77,-272.31C722.54,-262.32 734.36,-251.35 743.49,-242.89"/>
<polygon fill="midnightblue" stroke="midnightblue" points="709.12,-269.99 704.17,-279.36 713.88,-275.13 709.12,-269.99"/>
</g>
<!-- Node18 -->
<g id="node18" class="node">
<title>Node18</title>
<g id="a_node18"><a xlink:href="_timer_system_8cpp.html" target="_top" xlink:title=" ">
<polygon fill="none" stroke="black" points="390.5,-212.5 390.5,-242.5 527.5,-242.5 527.5,-212.5 390.5,-212.5"/>
<text text-anchor="start" x="398.5" y="-230.5" font-family="Helvetica,sans-Serif" font-size="10.00">NekoEngine/src/ECS</text>
<text text-anchor="middle" x="459" y="-219.5" font-family="Helvetica,sans-Serif" font-size="10.00">/Systems/TimerSystem.cpp</text>
</a>
</g>
</g>
<!-- Node2&#45;&gt;Node18 -->
<g id="edge24" class="edge">
<title>Node2&#45;&gt;Node18</title>
<path fill="none" stroke="midnightblue" d="M611.13,-276.38C575.87,-265.28 534.48,-252.26 503.79,-242.6"/>
<polygon fill="midnightblue" stroke="midnightblue" points="610.31,-279.79 620.9,-279.46 612.41,-273.11 610.31,-279.79"/>
</g>
<!-- Node19 -->
<g id="node19" class="node">
<title>Node19</title>
<g id="a_node19"><a xlink:href="_scene_8cpp.html" target="_top" xlink:title="For the love of god.">
<polygon fill="none" stroke="black" points="546,-212.5 546,-242.5 668,-242.5 668,-212.5 546,-212.5"/>
<text text-anchor="start" x="554" y="-230.5" font-family="Helvetica,sans-Serif" font-size="10.00">NekoEngine/src/Scenes</text>
<text text-anchor="middle" x="607" y="-219.5" font-family="Helvetica,sans-Serif" font-size="10.00">/Scene.cpp</text>
</a>
</g>
</g>
<!-- Node2&#45;&gt;Node19 -->
<g id="edge25" class="edge">
<title>Node2&#45;&gt;Node19</title>
<path fill="none" stroke="midnightblue" d="M654.23,-272.31C643.46,-262.32 631.64,-251.35 622.51,-242.89"/>
<polygon fill="midnightblue" stroke="midnightblue" points="652.12,-275.13 661.83,-279.36 656.88,-269.99 652.12,-275.13"/>
</g>
<!-- Node4 -->
<g id="node4" class="node">
<title>Node4</title>
<g id="a_node4"><a xlink:href="_client_game_8hpp.html" target="_top" xlink:title=" ">
<polygon fill="none" stroke="black" points="925.5,-78.5 925.5,-97.5 1072.5,-97.5 1072.5,-78.5 925.5,-78.5"/>
<text text-anchor="middle" x="999" y="-85.5" font-family="Helvetica,sans-Serif" font-size="10.00">Client/include/ClientGame.hpp</text>
</a>
</g>
</g>
<!-- Node3&#45;&gt;Node4 -->
<g id="edge3" class="edge">
<title>Node3&#45;&gt;Node4</title>
<path fill="none" stroke="midnightblue" d="M842.17,-215.21C893.11,-206.71 952.06,-193.53 971,-176 993.83,-154.88 998.11,-115.1 998.87,-97.62"/>
<polygon fill="midnightblue" stroke="midnightblue" points="841.41,-211.79 832.1,-216.85 842.54,-218.7 841.41,-211.79"/>
</g>
<!-- Node6 -->
<g id="node6" class="node">
<title>Node6</title>
<g id="a_node6"><a xlink:href="main_8cpp.html" target="_top" xlink:title="Entrypoint.">
<polygon fill="none" stroke="black" points="803,-6 803,-25 903,-25 903,-6 803,-6"/>
<text text-anchor="middle" x="853" y="-13" font-family="Helvetica,sans-Serif" font-size="10.00">Client/src/main.cpp</text>
</a>
</g>
</g>
<!-- Node3&#45;&gt;Node6 -->
<g id="edge22" class="edge">
<title>Node3&#45;&gt;Node6</title>
<path fill="none" stroke="midnightblue" d="M751.92,-202.75C743.56,-169.73 733.74,-109.25 759,-67 771.93,-45.38 797.65,-32.48 818.92,-25.13"/>
<polygon fill="midnightblue" stroke="midnightblue" points="748.55,-203.71 754.54,-212.45 755.31,-201.88 748.55,-203.71"/>
</g>
<!-- Node7 -->
<g id="node7" class="node">
<title>Node7</title>
<g id="a_node7"><a xlink:href="_custom_client_8hpp.html" target="_top" xlink:title=" ">
<polygon fill="none" stroke="black" points="357.5,-151 357.5,-170 512.5,-170 512.5,-151 357.5,-151"/>
<text text-anchor="middle" x="435" y="-158" font-family="Helvetica,sans-Serif" font-size="10.00">Client/include/CustomClient.hpp</text>
</a>
</g>
</g>
<!-- Node3&#45;&gt;Node7 -->
<g id="edge6" class="edge">
<title>Node3&#45;&gt;Node7</title>
<path fill="none" stroke="midnightblue" d="M679.07,-210.47C615.34,-197.68 528.59,-180.27 477.51,-170.03"/>
<polygon fill="midnightblue" stroke="midnightblue" points="678.6,-213.94 689.1,-212.48 679.98,-207.08 678.6,-213.94"/>
</g>
<!-- Node15 -->
<g id="node15" class="node">
<title>Node15</title>
<g id="a_node15"><a xlink:href="_player_system_8hpp.html" target="_top" xlink:title=" ">
<polygon fill="none" stroke="black" points="806,-151 806,-170 962,-170 962,-151 806,-151"/>
<text text-anchor="middle" x="884" y="-158" font-family="Helvetica,sans-Serif" font-size="10.00">Client/include/PlayerSystem.hpp</text>
</a>
</g>
</g>
<!-- Node3&#45;&gt;Node15 -->
<g id="edge18" class="edge">
<title>Node3&#45;&gt;Node15</title>
<path fill="none" stroke="midnightblue" d="M795.27,-207.64C819.19,-195.2 849.36,-179.51 867.64,-170.01"/>
<polygon fill="midnightblue" stroke="midnightblue" points="793.38,-204.68 786.12,-212.4 796.61,-210.89 793.38,-204.68"/>
</g>
<!-- Node16 -->
<g id="node16" class="node">
<title>Node16</title>
<g id="a_node16"><a xlink:href="_player_system_8cpp.html" target="_top" xlink:title=" ">
<polygon fill="none" stroke="black" points="768.5,-78.5 768.5,-97.5 907.5,-97.5 907.5,-78.5 768.5,-78.5"/>
<text text-anchor="middle" x="838" y="-85.5" font-family="Helvetica,sans-Serif" font-size="10.00">Client/src/PlayerSystem.cpp</text>
</a>
</g>
</g>
<!-- Node3&#45;&gt;Node16 -->
<g id="edge21" class="edge">
<title>Node3&#45;&gt;Node16</title>
<path fill="none" stroke="midnightblue" d="M768.62,-202.74C775.68,-186.14 785.94,-163.69 797,-145 807.43,-127.37 822.09,-108.46 830.76,-97.74"/>
<polygon fill="midnightblue" stroke="midnightblue" points="765.27,-201.66 764.65,-212.23 771.73,-204.35 765.27,-201.66"/>
</g>
<!-- Node17 -->
<g id="node17" class="node">
<title>Node17</title>
<g id="a_node17"><a xlink:href="_pattern_system_8cpp.html" target="_top" xlink:title="Physics System class implementation.">
<polygon fill="none" stroke="black" points="530.5,-145.5 530.5,-175.5 673.5,-175.5 673.5,-145.5 530.5,-145.5"/>
<text text-anchor="start" x="538.5" y="-163.5" font-family="Helvetica,sans-Serif" font-size="10.00">NekoEngine/src/ECS</text>
<text text-anchor="middle" x="602" y="-152.5" font-family="Helvetica,sans-Serif" font-size="10.00">/Systems/PatternSystem.cpp</text>
</a>
</g>
</g>
<!-- Node3&#45;&gt;Node17 -->
<g id="edge23" class="edge">
<title>Node3&#45;&gt;Node17</title>
<path fill="none" stroke="midnightblue" d="M715.63,-208.54C690.51,-198.14 659.34,-185.24 636,-175.58"/>
<polygon fill="midnightblue" stroke="midnightblue" points="714.36,-211.8 724.93,-212.4 717.03,-205.34 714.36,-211.8"/>
</g>
<!-- Node5 -->
<g id="node5" class="node">
<title>Node5</title>
<g id="a_node5"><a xlink:href="_client_game_8cpp.html" target="_top" xlink:title=" ">
<polygon fill="none" stroke="black" points="921,-6 921,-25 1051,-25 1051,-6 921,-6"/>
<text text-anchor="middle" x="986" y="-13" font-family="Helvetica,sans-Serif" font-size="10.00">Client/src/ClientGame.cpp</text>
</a>
</g>
</g>
<!-- Node4&#45;&gt;Node5 -->
<g id="edge4" class="edge">
<title>Node4&#45;&gt;Node5</title>
<path fill="none" stroke="midnightblue" d="M995.56,-68.36C992.99,-54.4 989.58,-35.93 987.61,-25.22"/>
<polygon fill="midnightblue" stroke="midnightblue" points="992.15,-69.16 997.41,-78.36 999.03,-67.89 992.15,-69.16"/>
</g>
<!-- Node4&#45;&gt;Node6 -->
<g id="edge5" class="edge">
<title>Node4&#45;&gt;Node6</title>
<path fill="none" stroke="midnightblue" d="M972.07,-74C942.52,-59.73 895.92,-37.23 870.67,-25.03"/>
<polygon fill="midnightblue" stroke="midnightblue" points="970.86,-77.3 981.39,-78.5 973.91,-71 970.86,-77.3"/>
</g>
<!-- Node7&#45;&gt;Node6 -->
<g id="edge7" class="edge">
<title>Node7&#45;&gt;Node6</title>
<path fill="none" stroke="midnightblue" d="M485.5,-148.75C525.26,-139.73 581.81,-125.66 630,-109 674.01,-93.78 683.02,-84.94 726,-67 762.57,-51.74 805.47,-34.9 830.88,-25.03"/>
<polygon fill="midnightblue" stroke="midnightblue" points="484.51,-145.38 475.51,-150.99 486.04,-152.21 484.51,-145.38"/>
</g>
<!-- Node8 -->
<g id="node8" class="node">
<title>Node8</title>
<g id="a_node8"><a xlink:href="_window_8hpp.html" target="_top" xlink:title="Contains the NekoEngine Window class wrapper.">
<polygon fill="none" stroke="black" points="507,-67.5 507,-108.5 621,-108.5 621,-67.5 507,-67.5"/>
<text text-anchor="start" x="515" y="-96.5" font-family="Helvetica,sans-Serif" font-size="10.00">NekoEngine/include</text>
<text text-anchor="start" x="515" y="-85.5" font-family="Helvetica,sans-Serif" font-size="10.00">/NekoEngine/Graphics</text>
<text text-anchor="middle" x="564" y="-74.5" font-family="Helvetica,sans-Serif" font-size="10.00">/Window.hpp</text>
</a>
</g>
</g>
<!-- Node7&#45;&gt;Node8 -->
<g id="edge8" class="edge">
<title>Node7&#45;&gt;Node8</title>
<path fill="none" stroke="midnightblue" d="M459.38,-146.17C478.79,-135.57 506.23,-120.57 528.14,-108.6"/>
<polygon fill="midnightblue" stroke="midnightblue" points="457.66,-143.13 450.56,-151 461.01,-149.27 457.66,-143.13"/>
</g>
<!-- Node14 -->
<g id="node14" class="node">
<title>Node14</title>
<g id="a_node14"><a xlink:href="_window_8cpp.html" target="_top" xlink:title="Contains the NekoEngine Window class implementation.">
<polygon fill="none" stroke="black" points="0,-0.5 0,-30.5 128,-30.5 128,-0.5 0,-0.5"/>
<text text-anchor="start" x="8" y="-18.5" font-family="Helvetica,sans-Serif" font-size="10.00">NekoEngine/src/Graphics</text>
<text text-anchor="middle" x="64" y="-7.5" font-family="Helvetica,sans-Serif" font-size="10.00">/Window.cpp</text>
</a>
</g>
</g>
<!-- Node7&#45;&gt;Node14 -->
<g id="edge17" class="edge">
<title>Node7&#45;&gt;Node14</title>
<path fill="none" stroke="midnightblue" d="M403.51,-147.36C335.06,-120.98 173.06,-58.54 100.39,-30.53"/>
<polygon fill="midnightblue" stroke="midnightblue" points="402.31,-150.65 412.9,-150.98 404.83,-144.12 402.31,-150.65"/>
</g>
<!-- Node8&#45;&gt;Node3 -->
<g id="edge10" class="edge">
<title>Node8&#45;&gt;Node3</title>
<path fill="none" stroke="midnightblue" d="M624.92,-112.69C644.04,-121.47 664.66,-132.4 682,-145 709.08,-164.68 734.53,-194.71 748.32,-212.29"/>
<polygon fill="midnightblue" stroke="midnightblue" points="626.23,-109.45 615.67,-108.56 623.37,-115.84 626.23,-109.45"/>
</g>
<!-- Node8&#45;&gt;Node6 -->
<g id="edge9" class="edge">
<title>Node8&#45;&gt;Node6</title>
<path fill="none" stroke="midnightblue" d="M631.02,-70.72C676.91,-59.57 739.14,-44.42 794,-31 801.89,-29.07 810.37,-26.99 818.37,-25.02"/>
<polygon fill="midnightblue" stroke="midnightblue" points="630.08,-67.35 621.19,-73.11 631.74,-74.15 630.08,-67.35"/>
</g>
<!-- Node9 -->
<g id="node9" class="node">
<title>Node9</title>
<g id="a_node9"><a xlink:href="_background_system_8cpp.html" target="_top" xlink:title=" ">
<polygon fill="none" stroke="black" points="146,-0.5 146,-30.5 310,-30.5 310,-0.5 146,-0.5"/>
<text text-anchor="start" x="154" y="-18.5" font-family="Helvetica,sans-Serif" font-size="10.00">NekoEngine/src/ECS</text>
<text text-anchor="middle" x="228" y="-7.5" font-family="Helvetica,sans-Serif" font-size="10.00">/Systems/BackgroundSystem.cpp</text>
</a>
</g>
</g>
<!-- Node8&#45;&gt;Node9 -->
<g id="edge11" class="edge">
<title>Node8&#45;&gt;Node9</title>
<path fill="none" stroke="midnightblue" d="M496.72,-72.88C438.08,-60.58 353.5,-42.83 294.96,-30.55"/>
<polygon fill="midnightblue" stroke="midnightblue" points="496.12,-76.33 506.62,-74.96 497.55,-69.48 496.12,-76.33"/>
</g>
<!-- Node8&#45;&gt;Node10 -->
<g id="edge12" class="edge">
<title>Node8&#45;&gt;Node10</title>
<path fill="none" stroke="midnightblue" d="M631.41,-79.95C747.13,-67.77 978.96,-42.91 1060,-31 1063.07,-30.55 1066.21,-30.07 1069.37,-29.57"/>
<polygon fill="midnightblue" stroke="midnightblue" points="630.83,-76.5 621.26,-81.02 631.57,-83.46 630.83,-76.5"/>
</g>
<!-- Node11 -->
<g id="node11" class="node">
<title>Node11</title>
<g id="a_node11"><a xlink:href="_parallax_system_8cpp.html" target="_top" xlink:title=" ">
<polygon fill="none" stroke="black" points="328,-0.5 328,-30.5 474,-30.5 474,-0.5 328,-0.5"/>
<text text-anchor="start" x="336" y="-18.5" font-family="Helvetica,sans-Serif" font-size="10.00">NekoEngine/src/ECS</text>
<text text-anchor="middle" x="401" y="-7.5" font-family="Helvetica,sans-Serif" font-size="10.00">/Systems/ParallaxSystem.cpp</text>
</a>
</g>
</g>
<!-- Node8&#45;&gt;Node11 -->
<g id="edge13" class="edge">
<title>Node8&#45;&gt;Node11</title>
<path fill="none" stroke="midnightblue" d="M509.18,-63.29C484.05,-52.42 455.12,-39.91 433.51,-30.56"/>
<polygon fill="midnightblue" stroke="midnightblue" points="508.03,-66.6 518.6,-67.36 510.81,-60.18 508.03,-66.6"/>
</g>
<!-- Node12 -->
<g id="node12" class="node">
<title>Node12</title>
<g id="a_node12"><a xlink:href="_render_system_8cpp.html" target="_top" xlink:title="Render System class implementation.">
<polygon fill="none" stroke="black" points="492.5,-0.5 492.5,-30.5 635.5,-30.5 635.5,-0.5 492.5,-0.5"/>
<text text-anchor="start" x="500.5" y="-18.5" font-family="Helvetica,sans-Serif" font-size="10.00">NekoEngine/src/ECS</text>
<text text-anchor="middle" x="564" y="-7.5" font-family="Helvetica,sans-Serif" font-size="10.00">/Systems/RenderSystem.cpp</text>
</a>
</g>
</g>
<!-- Node8&#45;&gt;Node12 -->
<g id="edge14" class="edge">
<title>Node8&#45;&gt;Node12</title>
<path fill="none" stroke="midnightblue" d="M564,-57.08C564,-48.01 564,-38.45 564,-30.89"/>
<polygon fill="midnightblue" stroke="midnightblue" points="560.5,-57.36 564,-67.36 567.5,-57.36 560.5,-57.36"/>
</g>
<!-- Node13 -->
<g id="node13" class="node">
<title>Node13</title>
<g id="a_node13"><a xlink:href="_text_system_8cpp.html" target="_top" xlink:title=" ">
<polygon fill="none" stroke="black" points="653.5,-0.5 653.5,-30.5 784.5,-30.5 784.5,-0.5 653.5,-0.5"/>
<text text-anchor="start" x="661.5" y="-18.5" font-family="Helvetica,sans-Serif" font-size="10.00">NekoEngine/src/ECS</text>
<text text-anchor="middle" x="719" y="-7.5" font-family="Helvetica,sans-Serif" font-size="10.00">/Systems/TextSystem.cpp</text>
</a>
</g>
</g>
<!-- Node8&#45;&gt;Node13 -->
<g id="edge15" class="edge">
<title>Node8&#45;&gt;Node13</title>
<path fill="none" stroke="midnightblue" d="M616.42,-63.16C640.15,-52.36 667.4,-39.97 687.85,-30.67"/>
<polygon fill="midnightblue" stroke="midnightblue" points="614.83,-60.04 607.18,-67.36 617.73,-66.41 614.83,-60.04"/>
</g>
<!-- Node8&#45;&gt;Node14 -->
<g id="edge16" class="edge">
<title>Node8&#45;&gt;Node14</title>
<path fill="none" stroke="midnightblue" d="M496.89,-79.58C412.62,-69.95 263.72,-51.87 137,-31 134.07,-30.52 131.07,-30 128.05,-29.47"/>
<polygon fill="midnightblue" stroke="midnightblue" points="496.51,-83.06 506.84,-80.71 497.3,-76.1 496.51,-83.06"/>
</g>
<!-- Node15&#45;&gt;Node4 -->
<g id="edge19" class="edge">
<title>Node15&#45;&gt;Node4</title>
<path fill="none" stroke="midnightblue" d="M906.64,-145.62C929.85,-131.39 965.24,-109.7 984.78,-97.72"/>
<polygon fill="midnightblue" stroke="midnightblue" points="904.8,-142.64 898.1,-150.86 908.46,-148.61 904.8,-142.64"/>
</g>
<!-- Node15&#45;&gt;Node16 -->
<g id="edge20" class="edge">
<title>Node15&#45;&gt;Node16</title>
<path fill="none" stroke="midnightblue" d="M872.64,-142.09C863.45,-128 850.88,-108.74 843.69,-97.72"/>
<polygon fill="midnightblue" stroke="midnightblue" points="869.96,-144.39 878.36,-150.86 875.83,-140.57 869.96,-144.39"/>
</g>
</g>
</svg>
