<?xml version="1.0" encoding="UTF-8" standalone="no"?>
<!DOCTYPE svg PUBLIC "-//W3C//DTD SVG 1.1//EN"
 "http://www.w3.org/Graphics/SVG/1.1/DTD/svg11.dtd">
<!-- Generated by graphviz version 2.49.3 (20211027.1501)
 -->
<!-- Title: NekoEngine/src/Graphics/NekoWindowException.cpp Pages: 1 -->
<svg width="145pt" height="229pt"
 viewBox="0.00 0.00 145.00 229.00" xmlns="http://www.w3.org/2000/svg" xmlns:xlink="http://www.w3.org/1999/xlink">
<g id="graph0" class="graph" transform="scale(1 1) rotate(0) translate(4 225)">
<title>NekoEngine/src/Graphics/NekoWindowException.cpp</title>
<!-- Node1 -->
<g id="node1" class="node">
<title>Node1</title>
<g id="a_node1"><a xlink:title="Contains NekoWindowException.hpp constructor implementation.">
<polygon fill="#bfbfbf" stroke="black" points="0,-190.5 0,-220.5 137,-220.5 137,-190.5 0,-190.5"/>
<text text-anchor="start" x="8" y="-208.5" font-family="Helvetica,sans-Serif" font-size="10.00">NekoEngine/src/Graphics</text>
<text text-anchor="middle" x="68.5" y="-197.5" font-family="Helvetica,sans-Serif" font-size="10.00">/NekoWindowException.cpp</text>
</a>
</g>
</g>
<!-- Node2 -->
<g id="node2" class="node">
<title>Node2</title>
<g id="a_node2"><a xlink:href="_neko_window_exception_8hpp.html" target="_top" xlink:title="WindowException handling class inheriting from NekoException.">
<polygon fill="none" stroke="black" points="0,-123.5 0,-153.5 137,-153.5 137,-123.5 0,-123.5"/>
<text text-anchor="start" x="8" y="-141.5" font-family="Helvetica,sans-Serif" font-size="10.00">NekoEngine/Graphics</text>
<text text-anchor="middle" x="68.5" y="-130.5" font-family="Helvetica,sans-Serif" font-size="10.00">/NekoWindowException.hpp</text>
</a>
</g>
</g>
<!-- Node1&#45;&gt;Node2 -->
<g id="edge1" class="edge">
<title>Node1&#45;&gt;Node2</title>
<path fill="none" stroke="midnightblue" d="M68.5,-190.4C68.5,-182.64 68.5,-172.81 68.5,-163.86"/>
<polygon fill="midnightblue" stroke="midnightblue" points="72,-163.58 68.5,-153.58 65,-163.58 72,-163.58"/>
</g>
<!-- Node3 -->
<g id="node3" class="node">
<title>Node3</title>
<g id="a_node3"><a xlink:href="_neko_exception_8hpp.html" target="_top" xlink:title="Contains the NekoEngine main exception type.">
<polygon fill="none" stroke="black" points="0,-56.5 0,-86.5 137,-86.5 137,-56.5 0,-56.5"/>
<text text-anchor="start" x="8" y="-74.5" font-family="Helvetica,sans-Serif" font-size="10.00">NekoEngine/NekoException</text>
<text text-anchor="middle" x="68.5" y="-63.5" font-family="Helvetica,sans-Serif" font-size="10.00">/NekoException.hpp</text>
</a>
</g>
</g>
<!-- Node2&#45;&gt;Node3 -->
<g id="edge2" class="edge">
<title>Node2&#45;&gt;Node3</title>
<path fill="none" stroke="midnightblue" d="M68.5,-123.4C68.5,-115.64 68.5,-105.81 68.5,-96.86"/>
<polygon fill="midnightblue" stroke="midnightblue" points="72,-96.58 68.5,-86.58 65,-96.58 72,-96.58"/>
</g>
<!-- Node4 -->
<g id="node4" class="node">
<title>Node4</title>
<g id="a_node4"><a xlink:title=" ">
<polygon fill="none" stroke="#bfbfbf" points="48,-0.5 48,-19.5 89,-19.5 89,-0.5 48,-0.5"/>
<text text-anchor="middle" x="68.5" y="-7.5" font-family="Helvetica,sans-Serif" font-size="10.00">string</text>
</a>
</g>
</g>
<!-- Node3&#45;&gt;Node4 -->
<g id="edge3" class="edge">
<title>Node3&#45;&gt;Node4</title>
<path fill="none" stroke="midnightblue" d="M68.5,-56.4C68.5,-48.47 68.5,-38.46 68.5,-29.86"/>
<polygon fill="midnightblue" stroke="midnightblue" points="72,-29.66 68.5,-19.66 65,-29.66 72,-29.66"/>
</g>
</g>
</svg>
