<?xml version="1.0" encoding="UTF-8" standalone="no"?>
<!DOCTYPE svg PUBLIC "-//W3C//DTD SVG 1.1//EN"
 "http://www.w3.org/Graphics/SVG/1.1/DTD/svg11.dtd">
<!-- Generated by graphviz version 2.49.3 (20211027.1501)
 -->
<!-- Title: NyaLog/NyaLog/NyaLog.hpp Pages: 1 -->
<svg width="332pt" height="84pt"
 viewBox="0.00 0.00 331.50 84.00" xmlns="http://www.w3.org/2000/svg" xmlns:xlink="http://www.w3.org/1999/xlink">
<g id="graph0" class="graph" transform="scale(1 1) rotate(0) translate(4 80)">
<title>NyaLog/NyaLog/NyaLog.hpp</title>
<!-- Node1 -->
<g id="node1" class="node">
<title>Node1</title>
<g id="a_node1"><a xlink:title="NyaLog logger.">
<polygon fill="#bfbfbf" stroke="black" points="85.5,-56.5 85.5,-75.5 227.5,-75.5 227.5,-56.5 85.5,-56.5"/>
<text text-anchor="middle" x="156.5" y="-63.5" font-family="Helvetica,sans-Serif" font-size="10.00">NyaLog/NyaLog/NyaLog.hpp</text>
</a>
</g>
</g>
<!-- Node2 -->
<g id="node2" class="node">
<title>Node2</title>
<g id="a_node2"><a xlink:title=" ">
<polygon fill="none" stroke="#bfbfbf" points="0,-0.5 0,-19.5 41,-19.5 41,-0.5 0,-0.5"/>
<text text-anchor="middle" x="20.5" y="-7.5" font-family="Helvetica,sans-Serif" font-size="10.00">string</text>
</a>
</g>
</g>
<!-- Node1&#45;&gt;Node2 -->
<g id="edge1" class="edge">
<title>Node1&#45;&gt;Node2</title>
<path fill="none" stroke="midnightblue" d="M134.95,-56.44C112.2,-47.41 76.18,-33.11 50.62,-22.96"/>
<polygon fill="midnightblue" stroke="midnightblue" points="51.64,-19.6 41.06,-19.16 49.06,-26.11 51.64,-19.6"/>
</g>
<!-- Node3 -->
<g id="node3" class="node">
<title>Node3</title>
<g id="a_node3"><a xlink:title=" ">
<polygon fill="none" stroke="#bfbfbf" points="59.5,-0.5 59.5,-19.5 113.5,-19.5 113.5,-0.5 59.5,-0.5"/>
<text text-anchor="middle" x="86.5" y="-7.5" font-family="Helvetica,sans-Serif" font-size="10.00">iostream</text>
</a>
</g>
</g>
<!-- Node1&#45;&gt;Node3 -->
<g id="edge2" class="edge">
<title>Node1&#45;&gt;Node3</title>
<path fill="none" stroke="midnightblue" d="M145.25,-56.32C134.7,-48.18 118.7,-35.84 106.06,-26.09"/>
<polygon fill="midnightblue" stroke="midnightblue" points="108.01,-23.17 97.95,-19.83 103.73,-28.71 108.01,-23.17"/>
</g>
<!-- Node4 -->
<g id="node4" class="node">
<title>Node4</title>
<g id="a_node4"><a xlink:title=" ">
<polygon fill="none" stroke="#bfbfbf" points="131.5,-0.5 131.5,-19.5 181.5,-19.5 181.5,-0.5 131.5,-0.5"/>
<text text-anchor="middle" x="156.5" y="-7.5" font-family="Helvetica,sans-Serif" font-size="10.00">fstream</text>
</a>
</g>
</g>
<!-- Node1&#45;&gt;Node4 -->
<g id="edge3" class="edge">
<title>Node1&#45;&gt;Node4</title>
<path fill="none" stroke="midnightblue" d="M156.5,-56.08C156.5,-49.01 156.5,-38.86 156.5,-29.99"/>
<polygon fill="midnightblue" stroke="midnightblue" points="160,-29.75 156.5,-19.75 153,-29.75 160,-29.75"/>
</g>
<!-- Node5 -->
<g id="node5" class="node">
<title>Node5</title>
<g id="a_node5"><a xlink:title=" ">
<polygon fill="none" stroke="#bfbfbf" points="200,-0.5 200,-19.5 243,-19.5 243,-0.5 200,-0.5"/>
<text text-anchor="middle" x="221.5" y="-7.5" font-family="Helvetica,sans-Serif" font-size="10.00">mutex</text>
</a>
</g>
</g>
<!-- Node1&#45;&gt;Node5 -->
<g id="edge4" class="edge">
<title>Node1&#45;&gt;Node5</title>
<path fill="none" stroke="midnightblue" d="M166.94,-56.32C176.65,-48.26 191.32,-36.08 203,-26.37"/>
<polygon fill="midnightblue" stroke="midnightblue" points="205.41,-28.92 210.87,-19.83 200.94,-23.53 205.41,-28.92"/>
</g>
<!-- Node6 -->
<g id="node6" class="node">
<title>Node6</title>
<g id="a_node6"><a xlink:href="_nya_log_8inl.html" target="_top" xlink:title="NyaLog logger implementation.">
<polygon fill="none" stroke="black" points="261.5,-0.5 261.5,-19.5 323.5,-19.5 323.5,-0.5 261.5,-0.5"/>
<text text-anchor="middle" x="292.5" y="-7.5" font-family="Helvetica,sans-Serif" font-size="10.00">NyaLog.inl</text>
</a>
</g>
</g>
<!-- Node1&#45;&gt;Node6 -->
<g id="edge5" class="edge">
<title>Node1&#45;&gt;Node6</title>
<path fill="none" stroke="midnightblue" d="M178.05,-56.44C200.53,-47.52 235.99,-33.44 261.48,-23.32"/>
<polygon fill="midnightblue" stroke="midnightblue" points="263.05,-26.46 271.05,-19.52 260.47,-19.95 263.05,-26.46"/>
</g>
</g>
</svg>
