<?xml version="1.0" encoding="UTF-8" standalone="no"?>
<!DOCTYPE svg PUBLIC "-//W3C//DTD SVG 1.1//EN"
 "http://www.w3.org/Graphics/SVG/1.1/DTD/svg11.dtd">
<!-- Generated by graphviz version 2.49.3 (20211027.1501)
 -->
<!-- Title: NyaLog/NyaLog/NyaLog.inl Pages: 1 -->
<svg width="270pt" height="151pt"
 viewBox="0.00 0.00 269.50 151.00" xmlns="http://www.w3.org/2000/svg" xmlns:xlink="http://www.w3.org/1999/xlink">
<g id="graph0" class="graph" transform="scale(1 1) rotate(0) translate(4 147)">
<title>NyaLog/NyaLog/NyaLog.inl</title>
<!-- Node1 -->
<g id="node1" class="node">
<title>Node1</title>
<g id="a_node1"><a xlink:title="NyaLog logger implementation.">
<polygon fill="#bfbfbf" stroke="black" points="52,-123.5 52,-142.5 188,-142.5 188,-123.5 52,-123.5"/>
<text text-anchor="middle" x="120" y="-130.5" font-family="Helvetica,sans-Serif" font-size="10.00">NyaLog/NyaLog/NyaLog.inl</text>
</a>
</g>
</g>
<!-- Node2 -->
<g id="node2" class="node">
<title>Node2</title>
<g id="a_node2"><a xlink:href="_nya_log_8hpp.html" target="_top" xlink:title="NyaLog logger.">
<polygon fill="none" stroke="black" points="49,-67.5 49,-86.5 191,-86.5 191,-67.5 49,-67.5"/>
<text text-anchor="middle" x="120" y="-74.5" font-family="Helvetica,sans-Serif" font-size="10.00">NyaLog/NyaLog/NyaLog.hpp</text>
</a>
</g>
</g>
<!-- Node1&#45;&gt;Node2 -->
<g id="edge1" class="edge">
<title>Node1&#45;&gt;Node2</title>
<path fill="none" stroke="midnightblue" d="M120,-112.8C120,-103.91 120,-93.78 120,-86.75"/>
<polygon fill="midnightblue" stroke="midnightblue" points="116.5,-113.08 120,-123.08 123.5,-113.08 116.5,-113.08"/>
</g>
<!-- Node3 -->
<g id="node3" class="node">
<title>Node3</title>
<g id="a_node3"><a xlink:href="main_8cpp.html" target="_top" xlink:title="Entrypoint.">
<polygon fill="none" stroke="black" points="0,-6 0,-25 100,-25 100,-6 0,-6"/>
<text text-anchor="middle" x="50" y="-13" font-family="Helvetica,sans-Serif" font-size="10.00">Client/src/main.cpp</text>
</a>
</g>
</g>
<!-- Node2&#45;&gt;Node3 -->
<g id="edge2" class="edge">
<title>Node2&#45;&gt;Node3</title>
<path fill="none" stroke="midnightblue" d="M102.32,-60.97C88.93,-49.59 71.02,-34.37 60.01,-25.01"/>
<polygon fill="midnightblue" stroke="midnightblue" points="100.08,-63.67 109.97,-67.48 104.62,-58.33 100.08,-63.67"/>
</g>
<!-- Node4 -->
<g id="node4" class="node">
<title>Node4</title>
<g id="a_node4"><a xlink:href="_pattern_system_8cpp.html" target="_top" xlink:title="Physics System class implementation.">
<polygon fill="none" stroke="black" points="118.5,-0.5 118.5,-30.5 261.5,-30.5 261.5,-0.5 118.5,-0.5"/>
<text text-anchor="start" x="126.5" y="-18.5" font-family="Helvetica,sans-Serif" font-size="10.00">NekoEngine/src/ECS</text>
<text text-anchor="middle" x="190" y="-7.5" font-family="Helvetica,sans-Serif" font-size="10.00">/Systems/PatternSystem.cpp</text>
</a>
</g>
</g>
<!-- Node2&#45;&gt;Node4 -->
<g id="edge3" class="edge">
<title>Node2&#45;&gt;Node4</title>
<path fill="none" stroke="midnightblue" d="M137.74,-60.92C148.73,-51.58 162.75,-39.66 173.5,-30.52"/>
<polygon fill="midnightblue" stroke="midnightblue" points="135.38,-58.33 130.03,-67.48 139.92,-63.67 135.38,-58.33"/>
</g>
</g>
</svg>
