<?xml version="1.0" encoding="UTF-8" standalone="no"?>
<!DOCTYPE svg PUBLIC "-//W3C//DTD SVG 1.1//EN"
 "http://www.w3.org/Graphics/SVG/1.1/DTD/svg11.dtd">
<!-- Generated by graphviz version 2.49.3 (20211027.1501)
 -->
<!-- Title: NekoEngine/include/NekoEngine/ECS/Systems/ParallaxSystem.hpp Pages: 1 -->
<svg width="1218pt" height="407pt"
 viewBox="0.00 0.00 1218.00 407.00" xmlns="http://www.w3.org/2000/svg" xmlns:xlink="http://www.w3.org/1999/xlink">
<g id="graph0" class="graph" transform="scale(1 1) rotate(0) translate(4 403)">
<title>NekoEngine/include/NekoEngine/ECS/Systems/ParallaxSystem.hpp</title>
<!-- Node1 -->
<g id="node1" class="node">
<title>Node1</title>
<g id="a_node1"><a xlink:title=" ">
<polygon fill="#bfbfbf" stroke="black" points="842,-357.5 842,-398.5 978,-398.5 978,-357.5 842,-357.5"/>
<text text-anchor="start" x="850" y="-386.5" font-family="Helvetica,sans-Serif" font-size="10.00">NekoEngine/include</text>
<text text-anchor="start" x="850" y="-375.5" font-family="Helvetica,sans-Serif" font-size="10.00">/NekoEngine/ECS/Systems</text>
<text text-anchor="middle" x="910" y="-364.5" font-family="Helvetica,sans-Serif" font-size="10.00">/ParallaxSystem.hpp</text>
</a>
</g>
</g>
<!-- Node2 -->
<g id="node2" class="node">
<title>Node2</title>
<g id="a_node2"><a xlink:href="_systems_8hpp.html" target="_top" xlink:title="Systems.">
<polygon fill="none" stroke="black" points="610,-279.5 610,-320.5 746,-320.5 746,-279.5 610,-279.5"/>
<text text-anchor="start" x="618" y="-308.5" font-family="Helvetica,sans-Serif" font-size="10.00">NekoEngine/include</text>
<text text-anchor="start" x="618" y="-297.5" font-family="Helvetica,sans-Serif" font-size="10.00">/NekoEngine/ECS/Systems</text>
<text text-anchor="middle" x="678" y="-286.5" font-family="Helvetica,sans-Serif" font-size="10.00">/Systems.hpp</text>
</a>
</g>
</g>
<!-- Node1&#45;&gt;Node2 -->
<g id="edge1" class="edge">
<title>Node1&#45;&gt;Node2</title>
<path fill="none" stroke="midnightblue" d="M840.72,-354.3C807.88,-343.55 769.04,-330.82 737.54,-320.51"/>
<polygon fill="midnightblue" stroke="midnightblue" points="839.66,-357.64 850.25,-357.43 841.84,-350.99 839.66,-357.64"/>
</g>
<!-- Node11 -->
<g id="node11" class="node">
<title>Node11</title>
<g id="a_node11"><a xlink:href="_parallax_system_8cpp.html" target="_top" xlink:title=" ">
<polygon fill="none" stroke="black" points="1064,-0.5 1064,-30.5 1210,-30.5 1210,-0.5 1064,-0.5"/>
<text text-anchor="start" x="1072" y="-18.5" font-family="Helvetica,sans-Serif" font-size="10.00">NekoEngine/src/ECS</text>
<text text-anchor="middle" x="1137" y="-7.5" font-family="Helvetica,sans-Serif" font-size="10.00">/Systems/ParallaxSystem.cpp</text>
</a>
</g>
</g>
<!-- Node1&#45;&gt;Node11 -->
<g id="edge26" class="edge">
<title>Node1&#45;&gt;Node11</title>
<path fill="none" stroke="midnightblue" d="M987.91,-356.97C1048.73,-336.09 1123,-296.64 1123,-228.5 1123,-228.5 1123,-228.5 1123,-159.5 1123,-112.1 1130.71,-56.29 1134.69,-30.66"/>
<polygon fill="midnightblue" stroke="midnightblue" points="986.66,-353.69 978.27,-360.16 988.87,-360.34 986.66,-353.69"/>
</g>
<!-- Node3 -->
<g id="node3" class="node">
<title>Node3</title>
<g id="a_node3"><a xlink:href="_neko_engine_8hpp.html" target="_top" xlink:title=" ">
<polygon fill="none" stroke="black" points="681,-212.5 681,-242.5 827,-242.5 827,-212.5 681,-212.5"/>
<text text-anchor="start" x="689" y="-230.5" font-family="Helvetica,sans-Serif" font-size="10.00">NekoEngine/include</text>
<text text-anchor="middle" x="754" y="-219.5" font-family="Helvetica,sans-Serif" font-size="10.00">/NekoEngine/NekoEngine.hpp</text>
</a>
</g>
</g>
<!-- Node2&#45;&gt;Node3 -->
<g id="edge2" class="edge">
<title>Node2&#45;&gt;Node3</title>
<path fill="none" stroke="midnightblue" d="M706.77,-272.31C717.54,-262.32 729.36,-251.35 738.49,-242.89"/>
<polygon fill="midnightblue" stroke="midnightblue" points="704.12,-269.99 699.17,-279.36 708.88,-275.13 704.12,-269.99"/>
</g>
<!-- Node18 -->
<g id="node18" class="node">
<title>Node18</title>
<g id="a_node18"><a xlink:href="_timer_system_8cpp.html" target="_top" xlink:title=" ">
<polygon fill="none" stroke="black" points="385.5,-212.5 385.5,-242.5 522.5,-242.5 522.5,-212.5 385.5,-212.5"/>
<text text-anchor="start" x="393.5" y="-230.5" font-family="Helvetica,sans-Serif" font-size="10.00">NekoEngine/src/ECS</text>
<text text-anchor="middle" x="454" y="-219.5" font-family="Helvetica,sans-Serif" font-size="10.00">/Systems/TimerSystem.cpp</text>
</a>
</g>
</g>
<!-- Node2&#45;&gt;Node18 -->
<g id="edge24" class="edge">
<title>Node2&#45;&gt;Node18</title>
<path fill="none" stroke="midnightblue" d="M606.13,-276.38C570.87,-265.28 529.48,-252.26 498.79,-242.6"/>
<polygon fill="midnightblue" stroke="midnightblue" points="605.31,-279.79 615.9,-279.46 607.41,-273.11 605.31,-279.79"/>
</g>
<!-- Node19 -->
<g id="node19" class="node">
<title>Node19</title>
<g id="a_node19"><a xlink:href="_scene_8cpp.html" target="_top" xlink:title="For the love of god.">
<polygon fill="none" stroke="black" points="541,-212.5 541,-242.5 663,-242.5 663,-212.5 541,-212.5"/>
<text text-anchor="start" x="549" y="-230.5" font-family="Helvetica,sans-Serif" font-size="10.00">NekoEngine/src/Scenes</text>
<text text-anchor="middle" x="602" y="-219.5" font-family="Helvetica,sans-Serif" font-size="10.00">/Scene.cpp</text>
</a>
</g>
</g>
<!-- Node2&#45;&gt;Node19 -->
<g id="edge25" class="edge">
<title>Node2&#45;&gt;Node19</title>
<path fill="none" stroke="midnightblue" d="M649.23,-272.31C638.46,-262.32 626.64,-251.35 617.51,-242.89"/>
<polygon fill="midnightblue" stroke="midnightblue" points="647.12,-275.13 656.83,-279.36 651.88,-269.99 647.12,-275.13"/>
</g>
<!-- Node4 -->
<g id="node4" class="node">
<title>Node4</title>
<g id="a_node4"><a xlink:href="_client_game_8hpp.html" target="_top" xlink:title=" ">
<polygon fill="none" stroke="black" points="920.5,-78.5 920.5,-97.5 1067.5,-97.5 1067.5,-78.5 920.5,-78.5"/>
<text text-anchor="middle" x="994" y="-85.5" font-family="Helvetica,sans-Serif" font-size="10.00">Client/include/ClientGame.hpp</text>
</a>
</g>
</g>
<!-- Node3&#45;&gt;Node4 -->
<g id="edge3" class="edge">
<title>Node3&#45;&gt;Node4</title>
<path fill="none" stroke="midnightblue" d="M837.17,-215.21C888.11,-206.71 947.06,-193.53 966,-176 988.83,-154.88 993.11,-115.1 993.87,-97.62"/>
<polygon fill="midnightblue" stroke="midnightblue" points="836.41,-211.79 827.1,-216.85 837.54,-218.7 836.41,-211.79"/>
</g>
<!-- Node6 -->
<g id="node6" class="node">
<title>Node6</title>
<g id="a_node6"><a xlink:href="main_8cpp.html" target="_top" xlink:title="Entrypoint.">
<polygon fill="none" stroke="black" points="798,-6 798,-25 898,-25 898,-6 798,-6"/>
<text text-anchor="middle" x="848" y="-13" font-family="Helvetica,sans-Serif" font-size="10.00">Client/src/main.cpp</text>
</a>
</g>
</g>
<!-- Node3&#45;&gt;Node6 -->
<g id="edge22" class="edge">
<title>Node3&#45;&gt;Node6</title>
<path fill="none" stroke="midnightblue" d="M746.92,-202.75C738.56,-169.73 728.74,-109.25 754,-67 766.93,-45.38 792.65,-32.48 813.92,-25.13"/>
<polygon fill="midnightblue" stroke="midnightblue" points="743.55,-203.71 749.54,-212.45 750.31,-201.88 743.55,-203.71"/>
</g>
<!-- Node7 -->
<g id="node7" class="node">
<title>Node7</title>
<g id="a_node7"><a xlink:href="_custom_client_8hpp.html" target="_top" xlink:title=" ">
<polygon fill="none" stroke="black" points="352.5,-151 352.5,-170 507.5,-170 507.5,-151 352.5,-151"/>
<text text-anchor="middle" x="430" y="-158" font-family="Helvetica,sans-Serif" font-size="10.00">Client/include/CustomClient.hpp</text>
</a>
</g>
</g>
<!-- Node3&#45;&gt;Node7 -->
<g id="edge6" class="edge">
<title>Node3&#45;&gt;Node7</title>
<path fill="none" stroke="midnightblue" d="M674.07,-210.47C610.34,-197.68 523.59,-180.27 472.51,-170.03"/>
<polygon fill="midnightblue" stroke="midnightblue" points="673.6,-213.94 684.1,-212.48 674.98,-207.08 673.6,-213.94"/>
</g>
<!-- Node15 -->
<g id="node15" class="node">
<title>Node15</title>
<g id="a_node15"><a xlink:href="_player_system_8hpp.html" target="_top" xlink:title=" ">
<polygon fill="none" stroke="black" points="801,-151 801,-170 957,-170 957,-151 801,-151"/>
<text text-anchor="middle" x="879" y="-158" font-family="Helvetica,sans-Serif" font-size="10.00">Client/include/PlayerSystem.hpp</text>
</a>
</g>
</g>
<!-- Node3&#45;&gt;Node15 -->
<g id="edge18" class="edge">
<title>Node3&#45;&gt;Node15</title>
<path fill="none" stroke="midnightblue" d="M790.27,-207.64C814.19,-195.2 844.36,-179.51 862.64,-170.01"/>
<polygon fill="midnightblue" stroke="midnightblue" points="788.38,-204.68 781.12,-212.4 791.61,-210.89 788.38,-204.68"/>
</g>
<!-- Node16 -->
<g id="node16" class="node">
<title>Node16</title>
<g id="a_node16"><a xlink:href="_player_system_8cpp.html" target="_top" xlink:title=" ">
<polygon fill="none" stroke="black" points="763.5,-78.5 763.5,-97.5 902.5,-97.5 902.5,-78.5 763.5,-78.5"/>
<text text-anchor="middle" x="833" y="-85.5" font-family="Helvetica,sans-Serif" font-size="10.00">Client/src/PlayerSystem.cpp</text>
</a>
</g>
</g>
<!-- Node3&#45;&gt;Node16 -->
<g id="edge21" class="edge">
<title>Node3&#45;&gt;Node16</title>
<path fill="none" stroke="midnightblue" d="M763.62,-202.74C770.68,-186.14 780.94,-163.69 792,-145 802.43,-127.37 817.09,-108.46 825.76,-97.74"/>
<polygon fill="midnightblue" stroke="midnightblue" points="760.27,-201.66 759.65,-212.23 766.73,-204.35 760.27,-201.66"/>
</g>
<!-- Node17 -->
<g id="node17" class="node">
<title>Node17</title>
<g id="a_node17"><a xlink:href="_pattern_system_8cpp.html" target="_top" xlink:title="Physics System class implementation.">
<polygon fill="none" stroke="black" points="525.5,-145.5 525.5,-175.5 668.5,-175.5 668.5,-145.5 525.5,-145.5"/>
<text text-anchor="start" x="533.5" y="-163.5" font-family="Helvetica,sans-Serif" font-size="10.00">NekoEngine/src/ECS</text>
<text text-anchor="middle" x="597" y="-152.5" font-family="Helvetica,sans-Serif" font-size="10.00">/Systems/PatternSystem.cpp</text>
</a>
</g>
</g>
<!-- Node3&#45;&gt;Node17 -->
<g id="edge23" class="edge">
<title>Node3&#45;&gt;Node17</title>
<path fill="none" stroke="midnightblue" d="M710.63,-208.54C685.51,-198.14 654.34,-185.24 631,-175.58"/>
<polygon fill="midnightblue" stroke="midnightblue" points="709.36,-211.8 719.93,-212.4 712.03,-205.34 709.36,-211.8"/>
</g>
<!-- Node5 -->
<g id="node5" class="node">
<title>Node5</title>
<g id="a_node5"><a xlink:href="_client_game_8cpp.html" target="_top" xlink:title=" ">
<polygon fill="none" stroke="black" points="916,-6 916,-25 1046,-25 1046,-6 916,-6"/>
<text text-anchor="middle" x="981" y="-13" font-family="Helvetica,sans-Serif" font-size="10.00">Client/src/ClientGame.cpp</text>
</a>
</g>
</g>
<!-- Node4&#45;&gt;Node5 -->
<g id="edge4" class="edge">
<title>Node4&#45;&gt;Node5</title>
<path fill="none" stroke="midnightblue" d="M990.56,-68.36C987.99,-54.4 984.58,-35.93 982.61,-25.22"/>
<polygon fill="midnightblue" stroke="midnightblue" points="987.15,-69.16 992.41,-78.36 994.03,-67.89 987.15,-69.16"/>
</g>
<!-- Node4&#45;&gt;Node6 -->
<g id="edge5" class="edge">
<title>Node4&#45;&gt;Node6</title>
<path fill="none" stroke="midnightblue" d="M967.07,-74C937.52,-59.73 890.92,-37.23 865.67,-25.03"/>
<polygon fill="midnightblue" stroke="midnightblue" points="965.86,-77.3 976.39,-78.5 968.91,-71 965.86,-77.3"/>
</g>
<!-- Node7&#45;&gt;Node6 -->
<g id="edge7" class="edge">
<title>Node7&#45;&gt;Node6</title>
<path fill="none" stroke="midnightblue" d="M480.5,-148.75C520.26,-139.73 576.81,-125.66 625,-109 669.01,-93.78 678.02,-84.94 721,-67 757.57,-51.74 800.47,-34.9 825.88,-25.03"/>
<polygon fill="midnightblue" stroke="midnightblue" points="479.51,-145.38 470.51,-150.99 481.04,-152.21 479.51,-145.38"/>
</g>
<!-- Node8 -->
<g id="node8" class="node">
<title>Node8</title>
<g id="a_node8"><a xlink:href="_window_8hpp.html" target="_top" xlink:title="Contains the NekoEngine Window class wrapper.">
<polygon fill="none" stroke="black" points="502,-67.5 502,-108.5 616,-108.5 616,-67.5 502,-67.5"/>
<text text-anchor="start" x="510" y="-96.5" font-family="Helvetica,sans-Serif" font-size="10.00">NekoEngine/include</text>
<text text-anchor="start" x="510" y="-85.5" font-family="Helvetica,sans-Serif" font-size="10.00">/NekoEngine/Graphics</text>
<text text-anchor="middle" x="559" y="-74.5" font-family="Helvetica,sans-Serif" font-size="10.00">/Window.hpp</text>
</a>
</g>
</g>
<!-- Node7&#45;&gt;Node8 -->
<g id="edge8" class="edge">
<title>Node7&#45;&gt;Node8</title>
<path fill="none" stroke="midnightblue" d="M454.38,-146.17C473.79,-135.57 501.23,-120.57 523.14,-108.6"/>
<polygon fill="midnightblue" stroke="midnightblue" points="452.66,-143.13 445.56,-151 456.01,-149.27 452.66,-143.13"/>
</g>
<!-- Node14 -->
<g id="node14" class="node">
<title>Node14</title>
<g id="a_node14"><a xlink:href="_window_8cpp.html" target="_top" xlink:title="Contains the NekoEngine Window class implementation.">
<polygon fill="none" stroke="black" points="0,-0.5 0,-30.5 128,-30.5 128,-0.5 0,-0.5"/>
<text text-anchor="start" x="8" y="-18.5" font-family="Helvetica,sans-Serif" font-size="10.00">NekoEngine/src/Graphics</text>
<text text-anchor="middle" x="64" y="-7.5" font-family="Helvetica,sans-Serif" font-size="10.00">/Window.cpp</text>
</a>
</g>
</g>
<!-- Node7&#45;&gt;Node14 -->
<g id="edge17" class="edge">
<title>Node7&#45;&gt;Node14</title>
<path fill="none" stroke="midnightblue" d="M398.51,-147.2C330.75,-120.72 171.45,-58.48 99.9,-30.53"/>
<polygon fill="midnightblue" stroke="midnightblue" points="397.61,-150.6 408.2,-150.98 400.16,-144.08 397.61,-150.6"/>
</g>
<!-- Node8&#45;&gt;Node3 -->
<g id="edge10" class="edge">
<title>Node8&#45;&gt;Node3</title>
<path fill="none" stroke="midnightblue" d="M619.92,-112.69C639.04,-121.47 659.66,-132.4 677,-145 704.08,-164.68 729.53,-194.71 743.32,-212.29"/>
<polygon fill="midnightblue" stroke="midnightblue" points="621.23,-109.45 610.67,-108.56 618.37,-115.84 621.23,-109.45"/>
</g>
<!-- Node8&#45;&gt;Node6 -->
<g id="edge9" class="edge">
<title>Node8&#45;&gt;Node6</title>
<path fill="none" stroke="midnightblue" d="M626.02,-70.72C671.91,-59.57 734.14,-44.42 789,-31 796.89,-29.07 805.37,-26.99 813.37,-25.02"/>
<polygon fill="midnightblue" stroke="midnightblue" points="625.08,-67.35 616.19,-73.11 626.74,-74.15 625.08,-67.35"/>
</g>
<!-- Node9 -->
<g id="node9" class="node">
<title>Node9</title>
<g id="a_node9"><a xlink:href="_background_system_8cpp.html" target="_top" xlink:title=" ">
<polygon fill="none" stroke="black" points="146,-0.5 146,-30.5 310,-30.5 310,-0.5 146,-0.5"/>
<text text-anchor="start" x="154" y="-18.5" font-family="Helvetica,sans-Serif" font-size="10.00">NekoEngine/src/ECS</text>
<text text-anchor="middle" x="228" y="-7.5" font-family="Helvetica,sans-Serif" font-size="10.00">/Systems/BackgroundSystem.cpp</text>
</a>
</g>
</g>
<!-- Node8&#45;&gt;Node9 -->
<g id="edge11" class="edge">
<title>Node8&#45;&gt;Node9</title>
<path fill="none" stroke="midnightblue" d="M491.61,-72.65C433.89,-60.35 351.25,-42.75 293.95,-30.55"/>
<polygon fill="midnightblue" stroke="midnightblue" points="491.21,-76.14 501.72,-74.8 492.67,-69.29 491.21,-76.14"/>
</g>
<!-- Node10 -->
<g id="node10" class="node">
<title>Node10</title>
<g id="a_node10"><a xlink:href="_mouse_system_8cpp.html" target="_top" xlink:title=" ">
<polygon fill="none" stroke="black" points="328.5,-0.5 328.5,-30.5 469.5,-30.5 469.5,-0.5 328.5,-0.5"/>
<text text-anchor="start" x="336.5" y="-18.5" font-family="Helvetica,sans-Serif" font-size="10.00">NekoEngine/src/ECS</text>
<text text-anchor="middle" x="399" y="-7.5" font-family="Helvetica,sans-Serif" font-size="10.00">/Systems/MouseSystem.cpp</text>
</a>
</g>
</g>
<!-- Node8&#45;&gt;Node10 -->
<g id="edge12" class="edge">
<title>Node8&#45;&gt;Node10</title>
<path fill="none" stroke="midnightblue" d="M505.18,-63.29C480.52,-52.42 452.13,-39.91 430.91,-30.56"/>
<polygon fill="midnightblue" stroke="midnightblue" points="503.87,-66.53 514.43,-67.36 506.69,-60.13 503.87,-66.53"/>
</g>
<!-- Node8&#45;&gt;Node11 -->
<g id="edge13" class="edge">
<title>Node8&#45;&gt;Node11</title>
<path fill="none" stroke="midnightblue" d="M626.4,-79.92C742.12,-67.67 973.93,-42.73 1055,-31 1057.86,-30.59 1060.78,-30.15 1063.72,-29.69"/>
<polygon fill="midnightblue" stroke="midnightblue" points="625.83,-76.46 616.25,-80.99 626.56,-83.42 625.83,-76.46"/>
</g>
<!-- Node12 -->
<g id="node12" class="node">
<title>Node12</title>
<g id="a_node12"><a xlink:href="_render_system_8cpp.html" target="_top" xlink:title="Render System class implementation.">
<polygon fill="none" stroke="black" points="487.5,-0.5 487.5,-30.5 630.5,-30.5 630.5,-0.5 487.5,-0.5"/>
<text text-anchor="start" x="495.5" y="-18.5" font-family="Helvetica,sans-Serif" font-size="10.00">NekoEngine/src/ECS</text>
<text text-anchor="middle" x="559" y="-7.5" font-family="Helvetica,sans-Serif" font-size="10.00">/Systems/RenderSystem.cpp</text>
</a>
</g>
</g>
<!-- Node8&#45;&gt;Node12 -->
<g id="edge14" class="edge">
<title>Node8&#45;&gt;Node12</title>
<path fill="none" stroke="midnightblue" d="M559,-57.08C559,-48.01 559,-38.45 559,-30.89"/>
<polygon fill="midnightblue" stroke="midnightblue" points="555.5,-57.36 559,-67.36 562.5,-57.36 555.5,-57.36"/>
</g>
<!-- Node13 -->
<g id="node13" class="node">
<title>Node13</title>
<g id="a_node13"><a xlink:href="_text_system_8cpp.html" target="_top" xlink:title=" ">
<polygon fill="none" stroke="black" points="648.5,-0.5 648.5,-30.5 779.5,-30.5 779.5,-0.5 648.5,-0.5"/>
<text text-anchor="start" x="656.5" y="-18.5" font-family="Helvetica,sans-Serif" font-size="10.00">NekoEngine/src/ECS</text>
<text text-anchor="middle" x="714" y="-7.5" font-family="Helvetica,sans-Serif" font-size="10.00">/Systems/TextSystem.cpp</text>
</a>
</g>
</g>
<!-- Node8&#45;&gt;Node13 -->
<g id="edge15" class="edge">
<title>Node8&#45;&gt;Node13</title>
<path fill="none" stroke="midnightblue" d="M611.42,-63.16C635.15,-52.36 662.4,-39.97 682.85,-30.67"/>
<polygon fill="midnightblue" stroke="midnightblue" points="609.83,-60.04 602.18,-67.36 612.73,-66.41 609.83,-60.04"/>
</g>
<!-- Node8&#45;&gt;Node14 -->
<g id="edge16" class="edge">
<title>Node8&#45;&gt;Node14</title>
<path fill="none" stroke="midnightblue" d="M491.73,-79.42C408.28,-69.71 261.77,-51.65 137,-31 134.07,-30.51 131.07,-30 128.05,-29.46"/>
<polygon fill="midnightblue" stroke="midnightblue" points="491.5,-82.92 501.83,-80.59 492.3,-75.97 491.5,-82.92"/>
</g>
<!-- Node15&#45;&gt;Node4 -->
<g id="edge19" class="edge">
<title>Node15&#45;&gt;Node4</title>
<path fill="none" stroke="midnightblue" d="M901.64,-145.62C924.85,-131.39 960.24,-109.7 979.78,-97.72"/>
<polygon fill="midnightblue" stroke="midnightblue" points="899.8,-142.64 893.1,-150.86 903.46,-148.61 899.8,-142.64"/>
</g>
<!-- Node15&#45;&gt;Node16 -->
<g id="edge20" class="edge">
<title>Node15&#45;&gt;Node16</title>
<path fill="none" stroke="midnightblue" d="M867.64,-142.09C858.45,-128 845.88,-108.74 838.69,-97.72"/>
<polygon fill="midnightblue" stroke="midnightblue" points="864.96,-144.39 873.36,-150.86 870.83,-140.57 864.96,-144.39"/>
</g>
</g>
</svg>
