<?xml version="1.0" encoding="UTF-8" standalone="no"?>
<!DOCTYPE svg PUBLIC "-//W3C//DTD SVG 1.1//EN"
 "http://www.w3.org/Graphics/SVG/1.1/DTD/svg11.dtd">
<!-- Generated by graphviz version 2.49.3 (20211027.1501)
 -->
<!-- Title: NekoEngine/src/ECS/Systems/ParallaxSystem.cpp Pages: 1 -->
<svg width="3692pt" height="564pt"
 viewBox="0.00 0.00 3691.86 564.00" xmlns="http://www.w3.org/2000/svg" xmlns:xlink="http://www.w3.org/1999/xlink">
<g id="graph0" class="graph" transform="scale(1 1) rotate(0) translate(4 560)">
<title>NekoEngine/src/ECS/Systems/ParallaxSystem.cpp</title>
<!-- Node1 -->
<g id="node1" class="node">
<title>Node1</title>
<g id="a_node1"><a xlink:title=" ">
<polygon fill="#bfbfbf" stroke="black" points="865,-525.5 865,-555.5 1011,-555.5 1011,-525.5 865,-525.5"/>
<text text-anchor="start" x="873" y="-543.5" font-family="Helvetica,sans-Serif" font-size="10.00">NekoEngine/src/ECS</text>
<text text-anchor="middle" x="938" y="-532.5" font-family="Helvetica,sans-Serif" font-size="10.00">/Systems/ParallaxSystem.cpp</text>
</a>
</g>
</g>
<!-- Node2 -->
<g id="node2" class="node">
<title>Node2</title>
<g id="a_node2"><a xlink:href="_coordinator_8hpp.html" target="_top" xlink:title="Coordinator class.">
<polygon fill="none" stroke="black" points="451,-263 451,-282 613,-282 613,-263 451,-263"/>
<text text-anchor="middle" x="532" y="-270" font-family="Helvetica,sans-Serif" font-size="10.00">NekoEngine/ECS/Coordinator.hpp</text>
</a>
</g>
</g>
<!-- Node1&#45;&gt;Node2 -->
<g id="edge1" class="edge">
<title>Node1&#45;&gt;Node2</title>
<path fill="none" stroke="midnightblue" d="M916.46,-525.39C846.17,-479.34 624,-333.78 553.61,-287.66"/>
<polygon fill="midnightblue" stroke="midnightblue" points="555.36,-284.62 545.08,-282.07 551.52,-290.48 555.36,-284.62"/>
</g>
<!-- Node21 -->
<g id="node17" class="node">
<title>Node21</title>
<g id="a_node17"><a xlink:href="_parallax_system_8hpp.html" target="_top" xlink:title=" ">
<polygon fill="none" stroke="black" points="205.5,-458.5 205.5,-488.5 338.5,-488.5 338.5,-458.5 205.5,-458.5"/>
<text text-anchor="start" x="213.5" y="-476.5" font-family="Helvetica,sans-Serif" font-size="10.00">NekoEngine/ECS/Systems</text>
<text text-anchor="middle" x="272" y="-465.5" font-family="Helvetica,sans-Serif" font-size="10.00">/ParallaxSystem.hpp</text>
</a>
</g>
</g>
<!-- Node1&#45;&gt;Node21 -->
<g id="edge27" class="edge">
<title>Node1&#45;&gt;Node21</title>
<path fill="none" stroke="midnightblue" d="M864.82,-532.36C737.99,-519.98 478.53,-494.66 349.05,-482.02"/>
<polygon fill="midnightblue" stroke="midnightblue" points="349.12,-478.51 338.83,-481.02 348.44,-485.48 349.12,-478.51"/>
</g>
<!-- Node22 -->
<g id="node18" class="node">
<title>Node22</title>
<g id="a_node18"><a xlink:href="_skin_8hpp.html" target="_top" xlink:title="Skin component.">
<polygon fill="none" stroke="black" points="3520.5,-190.5 3520.5,-220.5 3669.5,-220.5 3669.5,-190.5 3520.5,-190.5"/>
<text text-anchor="start" x="3528.5" y="-208.5" font-family="Helvetica,sans-Serif" font-size="10.00">NekoEngine/ECS/Components</text>
<text text-anchor="middle" x="3595" y="-197.5" font-family="Helvetica,sans-Serif" font-size="10.00">/Skin.hpp</text>
</a>
</g>
</g>
<!-- Node1&#45;&gt;Node22 -->
<g id="edge29" class="edge">
<title>Node1&#45;&gt;Node22</title>
<path fill="none" stroke="midnightblue" d="M1011.13,-539.88C1444.69,-541.65 3659,-544.03 3659,-407.5 3659,-407.5 3659,-407.5 3659,-338.5 3659,-296.58 3632.54,-254 3613.65,-228.94"/>
<polygon fill="midnightblue" stroke="midnightblue" points="3616.25,-226.57 3607.34,-220.83 3610.72,-230.87 3616.25,-226.57"/>
</g>
<!-- Node24 -->
<g id="node20" class="node">
<title>Node24</title>
<g id="a_node20"><a xlink:href="_transform_8hpp.html" target="_top" xlink:title="Transform component.">
<polygon fill="none" stroke="black" points="1210.5,-123.5 1210.5,-153.5 1359.5,-153.5 1359.5,-123.5 1210.5,-123.5"/>
<text text-anchor="start" x="1218.5" y="-141.5" font-family="Helvetica,sans-Serif" font-size="10.00">NekoEngine/ECS/Components</text>
<text text-anchor="middle" x="1285" y="-130.5" font-family="Helvetica,sans-Serif" font-size="10.00">/Transform.hpp</text>
</a>
</g>
</g>
<!-- Node1&#45;&gt;Node24 -->
<g id="edge31" class="edge">
<title>Node1&#45;&gt;Node24</title>
<path fill="none" stroke="midnightblue" d="M960.27,-525.44C991.09,-504.05 1043,-460.21 1043,-407.5 1043,-407.5 1043,-407.5 1043,-271.5 1043,-227.55 1063.15,-215.43 1099,-190 1116.24,-177.77 1161.79,-165.31 1203.49,-155.82"/>
<polygon fill="midnightblue" stroke="midnightblue" points="1204.43,-159.2 1213.43,-153.6 1202.9,-152.37 1204.43,-159.2"/>
</g>
<!-- Node29 -->
<g id="node25" class="node">
<title>Node29</title>
<g id="a_node25"><a xlink:href="_window_8hpp.html" target="_top" xlink:title="Contains the NekoEngine Window class wrapper.">
<polygon fill="none" stroke="black" points="1400.5,-458.5 1400.5,-488.5 1511.5,-488.5 1511.5,-458.5 1400.5,-458.5"/>
<text text-anchor="start" x="1408.5" y="-476.5" font-family="Helvetica,sans-Serif" font-size="10.00">NekoEngine/Graphics</text>
<text text-anchor="middle" x="1456" y="-465.5" font-family="Helvetica,sans-Serif" font-size="10.00">/Window.hpp</text>
</a>
</g>
</g>
<!-- Node1&#45;&gt;Node29 -->
<g id="edge36" class="edge">
<title>Node1&#45;&gt;Node29</title>
<path fill="none" stroke="midnightblue" d="M1011.12,-530.32C1112.26,-517.63 1293.33,-494.91 1390.35,-482.74"/>
<polygon fill="midnightblue" stroke="midnightblue" points="1390.84,-486.2 1400.33,-481.49 1389.97,-479.26 1390.84,-486.2"/>
</g>
<!-- Node65 -->
<g id="node50" class="node">
<title>Node65</title>
<g id="a_node50"><a xlink:href="_background_system_8hpp.html" target="_top" xlink:title=" ">
<polygon fill="none" stroke="black" points="379.5,-391.5 379.5,-421.5 512.5,-421.5 512.5,-391.5 379.5,-391.5"/>
<text text-anchor="start" x="387.5" y="-409.5" font-family="Helvetica,sans-Serif" font-size="10.00">NekoEngine/ECS/Systems</text>
<text text-anchor="middle" x="446" y="-398.5" font-family="Helvetica,sans-Serif" font-size="10.00">/BackgroundSystem.hpp</text>
</a>
</g>
</g>
<!-- Node1&#45;&gt;Node65 -->
<g id="edge73" class="edge">
<title>Node1&#45;&gt;Node65</title>
<path fill="none" stroke="midnightblue" d="M885.81,-525.5C794.48,-500.99 606.07,-450.45 508.15,-424.18"/>
<polygon fill="midnightblue" stroke="midnightblue" points="508.96,-420.77 498.39,-421.56 507.14,-427.53 508.96,-420.77"/>
</g>
<!-- Node3 -->
<g id="node3" class="node">
<title>Node3</title>
<g id="a_node3"><a xlink:href="_component_manager_8hpp.html" target="_top" xlink:title="Component Manmager class.">
<polygon fill="none" stroke="black" points="592,-190.5 592,-220.5 736,-220.5 736,-190.5 592,-190.5"/>
<text text-anchor="start" x="600" y="-208.5" font-family="Helvetica,sans-Serif" font-size="10.00">NekoEngine/ECS/Component</text>
<text text-anchor="middle" x="664" y="-197.5" font-family="Helvetica,sans-Serif" font-size="10.00">Manager.hpp</text>
</a>
</g>
</g>
<!-- Node2&#45;&gt;Node3 -->
<g id="edge2" class="edge">
<title>Node2&#45;&gt;Node3</title>
<path fill="none" stroke="midnightblue" d="M549.53,-262.87C568.93,-253.31 600.79,-237.63 625.97,-225.22"/>
<polygon fill="midnightblue" stroke="midnightblue" points="627.84,-228.21 635.26,-220.65 624.74,-221.93 627.84,-228.21"/>
</g>
<!-- Node14 -->
<g id="node10" class="node">
<title>Node14</title>
<g id="a_node10"><a xlink:href="_entity_manager_8hpp.html" target="_top" xlink:title="Entities are fun.">
<polygon fill="none" stroke="black" points="362,-129 362,-148 536,-148 536,-129 362,-129"/>
<text text-anchor="middle" x="449" y="-136" font-family="Helvetica,sans-Serif" font-size="10.00">NekoEngine/ECS/EntityManager.hpp</text>
</a>
</g>
</g>
<!-- Node2&#45;&gt;Node14 -->
<g id="edge12" class="edge">
<title>Node2&#45;&gt;Node14</title>
<path fill="none" stroke="midnightblue" d="M521.17,-262.82C510.1,-253.48 493,-237.69 482,-221 468.91,-201.13 459.53,-175.25 454.19,-158.04"/>
<polygon fill="midnightblue" stroke="midnightblue" points="457.45,-156.73 451.27,-148.13 450.74,-158.71 457.45,-156.73"/>
</g>
<!-- Node16 -->
<g id="node12" class="node">
<title>Node16</title>
<g id="a_node12"><a xlink:href="_system_manager_8hpp.html" target="_top" xlink:title=" ">
<polygon fill="none" stroke="black" points="244.5,-196 244.5,-215 427.5,-215 427.5,-196 244.5,-196"/>
<text text-anchor="middle" x="336" y="-203" font-family="Helvetica,sans-Serif" font-size="10.00">NekoEngine/ECS/SystemManager.hpp</text>
</a>
</g>
</g>
<!-- Node2&#45;&gt;Node16 -->
<g id="edge17" class="edge">
<title>Node2&#45;&gt;Node16</title>
<path fill="none" stroke="midnightblue" d="M501.21,-262.87C464.42,-251.47 403.55,-231.35 366.77,-218.49"/>
<polygon fill="midnightblue" stroke="midnightblue" points="367.67,-215.09 357.08,-215.06 365.34,-221.69 367.67,-215.09"/>
</g>
<!-- Node20 -->
<g id="node16" class="node">
<title>Node20</title>
<g id="a_node16"><a xlink:title=" ">
<polygon fill="none" stroke="#bfbfbf" points="491,-196 491,-215 573,-215 573,-196 491,-196"/>
<text text-anchor="middle" x="532" y="-203" font-family="Helvetica,sans-Serif" font-size="10.00">Coordinator.tpp</text>
</a>
</g>
</g>
<!-- Node2&#45;&gt;Node20 -->
<g id="edge26" class="edge">
<title>Node2&#45;&gt;Node20</title>
<path fill="none" stroke="midnightblue" d="M532,-262.73C532,-253.18 532,-237.62 532,-225.28"/>
<polygon fill="midnightblue" stroke="midnightblue" points="535.5,-225.13 532,-215.13 528.5,-225.13 535.5,-225.13"/>
</g>
<!-- Node4 -->
<g id="node4" class="node">
<title>Node4</title>
<g id="a_node4"><a xlink:title=" ">
<polygon fill="none" stroke="#bfbfbf" points="645,-62 645,-81 683,-81 683,-62 645,-62"/>
<text text-anchor="middle" x="664" y="-69" font-family="Helvetica,sans-Serif" font-size="10.00">array</text>
</a>
</g>
</g>
<!-- Node3&#45;&gt;Node4 -->
<g id="edge3" class="edge">
<title>Node3&#45;&gt;Node4</title>
<path fill="none" stroke="midnightblue" d="M702.66,-190.37C718.77,-182.34 735.83,-170.52 745,-154 751.69,-141.95 751.69,-135.05 745,-123 733.89,-102.98 711.18,-89.86 692.62,-82.02"/>
<polygon fill="midnightblue" stroke="midnightblue" points="693.7,-78.69 683.11,-78.3 691.15,-85.21 693.7,-78.69"/>
</g>
<!-- Node5 -->
<g id="node5" class="node">
<title>Node5</title>
<g id="a_node5"><a xlink:title=" ">
<polygon fill="none" stroke="#bfbfbf" points="746.5,-62 746.5,-81 781.5,-81 781.5,-62 746.5,-62"/>
<text text-anchor="middle" x="764" y="-69" font-family="Helvetica,sans-Serif" font-size="10.00">map</text>
</a>
</g>
</g>
<!-- Node3&#45;&gt;Node5 -->
<g id="edge4" class="edge">
<title>Node3&#45;&gt;Node5</title>
<path fill="none" stroke="midnightblue" d="M736.14,-202.4C813.86,-198.45 930.17,-187.02 958,-154 1005.74,-97.36 856.14,-79.31 791.87,-74.26"/>
<polygon fill="midnightblue" stroke="midnightblue" points="791.85,-70.75 781.62,-73.51 791.34,-77.73 791.85,-70.75"/>
</g>
<!-- Node6 -->
<g id="node6" class="node">
<title>Node6</title>
<g id="a_node6"><a xlink:title=" ">
<polygon fill="none" stroke="#bfbfbf" points="403.5,-62 403.5,-81 454.5,-81 454.5,-62 403.5,-62"/>
<text text-anchor="middle" x="429" y="-69" font-family="Helvetica,sans-Serif" font-size="10.00">memory</text>
</a>
</g>
</g>
<!-- Node3&#45;&gt;Node6 -->
<g id="edge5" class="edge">
<title>Node3&#45;&gt;Node6</title>
<path fill="none" stroke="midnightblue" d="M639.73,-190.47C623.37,-180.74 601.47,-167.21 583,-154 565.27,-141.32 563.61,-134.34 545,-123 541.02,-120.57 491.32,-99.16 458.28,-85.01"/>
<polygon fill="midnightblue" stroke="midnightblue" points="459.61,-81.77 449.04,-81.06 456.86,-88.21 459.61,-81.77"/>
</g>
<!-- Node7 -->
<g id="node7" class="node">
<title>Node7</title>
<g id="a_node7"><a xlink:href="_types_8hpp.html" target="_top" xlink:title="NekoEngine types definition.">
<polygon fill="none" stroke="red" points="226.5,-62 226.5,-81 365.5,-81 365.5,-62 226.5,-62"/>
<text text-anchor="middle" x="296" y="-69" font-family="Helvetica,sans-Serif" font-size="10.00">NekoEngine/ECS/Types.hpp</text>
</a>
</g>
</g>
<!-- Node3&#45;&gt;Node7 -->
<g id="edge6" class="edge">
<title>Node3&#45;&gt;Node7</title>
<path fill="none" stroke="midnightblue" d="M591.58,-191.62C588.34,-191.06 585.14,-190.52 582,-190 480.38,-173.03 440.39,-208.57 353,-154 328.9,-138.95 312.24,-109.58 303.4,-90.52"/>
<polygon fill="midnightblue" stroke="midnightblue" points="306.52,-88.9 299.3,-81.14 300.1,-91.7 306.52,-88.9"/>
</g>
<!-- Node10 -->
<g id="node8" class="node">
<title>Node10</title>
<g id="a_node8"><a xlink:href="_component_array_8hpp.html" target="_top" xlink:title="Component Array template class.">
<polygon fill="none" stroke="red" points="592,-123.5 592,-153.5 736,-153.5 736,-123.5 592,-123.5"/>
<text text-anchor="start" x="600" y="-141.5" font-family="Helvetica,sans-Serif" font-size="10.00">NekoEngine/ECS/Component</text>
<text text-anchor="middle" x="664" y="-130.5" font-family="Helvetica,sans-Serif" font-size="10.00">Array.hpp</text>
</a>
</g>
</g>
<!-- Node3&#45;&gt;Node10 -->
<g id="edge7" class="edge">
<title>Node3&#45;&gt;Node10</title>
<path fill="none" stroke="midnightblue" d="M664,-190.4C664,-182.64 664,-172.81 664,-163.86"/>
<polygon fill="midnightblue" stroke="midnightblue" points="667.5,-163.58 664,-153.58 660.5,-163.58 667.5,-163.58"/>
</g>
<!-- Node13 -->
<g id="node9" class="node">
<title>Node13</title>
<g id="a_node9"><a xlink:title=" ">
<polygon fill="none" stroke="#bfbfbf" points="830.5,-129 830.5,-148 949.5,-148 949.5,-129 830.5,-129"/>
<text text-anchor="middle" x="890" y="-136" font-family="Helvetica,sans-Serif" font-size="10.00">ComponentManager.tpp</text>
</a>
</g>
</g>
<!-- Node3&#45;&gt;Node13 -->
<g id="edge11" class="edge">
<title>Node3&#45;&gt;Node13</title>
<path fill="none" stroke="midnightblue" d="M712.76,-190.48C753.97,-178.62 812.26,-161.86 850.58,-150.84"/>
<polygon fill="midnightblue" stroke="midnightblue" points="851.7,-154.16 860.35,-148.03 849.77,-147.43 851.7,-154.16"/>
</g>
<!-- Node10&#45;&gt;Node4 -->
<g id="edge8" class="edge">
<title>Node10&#45;&gt;Node4</title>
<path fill="none" stroke="midnightblue" d="M664,-123.4C664,-114.06 664,-101.71 664,-91.52"/>
<polygon fill="midnightblue" stroke="midnightblue" points="667.5,-91.19 664,-81.19 660.5,-91.19 667.5,-91.19"/>
</g>
<!-- Node10&#45;&gt;Node5 -->
<g id="edge9" class="edge">
<title>Node10&#45;&gt;Node5</title>
<path fill="none" stroke="midnightblue" d="M685.7,-123.4C702.47,-112.5 725.57,-97.48 742.33,-86.58"/>
<polygon fill="midnightblue" stroke="midnightblue" points="744.44,-89.39 750.91,-81.01 740.62,-83.52 744.44,-89.39"/>
</g>
<!-- Node10&#45;&gt;Node6 -->
<g id="edge10" class="edge">
<title>Node10&#45;&gt;Node6</title>
<path fill="none" stroke="midnightblue" d="M597.16,-123.48C557.68,-114.51 506.99,-101.8 463,-87 461.08,-86.36 459.13,-85.65 457.16,-84.91"/>
<polygon fill="midnightblue" stroke="midnightblue" points="458.09,-81.51 447.5,-81.01 455.47,-88 458.09,-81.51"/>
</g>
<!-- Node14&#45;&gt;Node4 -->
<g id="edge14" class="edge">
<title>Node14&#45;&gt;Node4</title>
<path fill="none" stroke="midnightblue" d="M477.55,-128.87C518.62,-116.45 593.95,-93.68 635.17,-81.22"/>
<polygon fill="midnightblue" stroke="midnightblue" points="636.32,-84.53 644.87,-78.28 634.29,-77.83 636.32,-84.53"/>
</g>
<!-- Node14&#45;&gt;Node6 -->
<g id="edge15" class="edge">
<title>Node14&#45;&gt;Node6</title>
<path fill="none" stroke="midnightblue" d="M446.3,-128.73C443.33,-119.09 438.48,-103.3 434.66,-90.91"/>
<polygon fill="midnightblue" stroke="midnightblue" points="437.94,-89.66 431.65,-81.13 431.25,-91.71 437.94,-89.66"/>
</g>
<!-- Node14&#45;&gt;Node7 -->
<g id="edge16" class="edge">
<title>Node14&#45;&gt;Node7</title>
<path fill="none" stroke="midnightblue" d="M428.68,-128.87C402.28,-117.65 355.97,-97.98 325.64,-85.09"/>
<polygon fill="midnightblue" stroke="midnightblue" points="326.97,-81.86 316.4,-81.17 324.24,-88.3 326.97,-81.86"/>
</g>
<!-- Node15 -->
<g id="node11" class="node">
<title>Node15</title>
<g id="a_node11"><a xlink:title=" ">
<polygon fill="none" stroke="#bfbfbf" points="472.5,-62 472.5,-81 515.5,-81 515.5,-62 472.5,-62"/>
<text text-anchor="middle" x="494" y="-69" font-family="Helvetica,sans-Serif" font-size="10.00">queue</text>
</a>
</g>
</g>
<!-- Node14&#45;&gt;Node15 -->
<g id="edge13" class="edge">
<title>Node14&#45;&gt;Node15</title>
<path fill="none" stroke="midnightblue" d="M455.07,-128.73C462.02,-118.7 473.57,-102.01 482.29,-89.42"/>
<polygon fill="midnightblue" stroke="midnightblue" points="485.21,-91.34 488.03,-81.13 479.46,-87.36 485.21,-91.34"/>
</g>
<!-- Node16&#45;&gt;Node2 -->
<g id="edge24" class="edge">
<title>Node16&#45;&gt;Node2</title>
<path fill="none" stroke="midnightblue" d="M366.57,-215.06C403.26,-226.42 464.14,-246.54 501.01,-259.44"/>
<polygon fill="midnightblue" stroke="midnightblue" points="500.14,-262.84 510.73,-262.87 502.47,-256.24 500.14,-262.84"/>
</g>
<!-- Node16&#45;&gt;Node5 -->
<g id="edge19" class="edge">
<title>Node16&#45;&gt;Node5</title>
<path fill="none" stroke="midnightblue" d="M414.36,-195.96C531.4,-183.05 738.9,-159.49 745,-154 762.44,-138.32 765.44,-110.01 765.28,-91.23"/>
<polygon fill="midnightblue" stroke="midnightblue" points="768.77,-91.06 764.88,-81.21 761.78,-91.34 768.77,-91.06"/>
</g>
<!-- Node16&#45;&gt;Node6 -->
<g id="edge18" class="edge">
<title>Node16&#45;&gt;Node6</title>
<path fill="none" stroke="midnightblue" d="M335.74,-195.83C335.68,-179.98 337.53,-145.86 353,-123 364.21,-106.44 382.84,-93.93 398.85,-85.51"/>
<polygon fill="midnightblue" stroke="midnightblue" points="400.5,-88.6 407.9,-81.02 397.38,-82.33 400.5,-88.6"/>
</g>
<!-- Node17 -->
<g id="node13" class="node">
<title>Node17</title>
<g id="a_node13"><a xlink:href="_system_8hpp.html" target="_top" xlink:title="ECS System.">
<polygon fill="none" stroke="black" points="0,-129 0,-148 146,-148 146,-129 0,-129"/>
<text text-anchor="middle" x="73" y="-136" font-family="Helvetica,sans-Serif" font-size="10.00">NekoEngine/ECS/System.hpp</text>
</a>
</g>
</g>
<!-- Node16&#45;&gt;Node17 -->
<g id="edge20" class="edge">
<title>Node16&#45;&gt;Node17</title>
<path fill="none" stroke="midnightblue" d="M301.35,-195.94C254.14,-184.27 169.57,-163.37 117.66,-150.54"/>
<polygon fill="midnightblue" stroke="midnightblue" points="118.28,-147.09 107.73,-148.08 116.6,-153.88 118.28,-147.09"/>
</g>
<!-- Node19 -->
<g id="node15" class="node">
<title>Node19</title>
<g id="a_node15"><a xlink:title=" ">
<polygon fill="none" stroke="#bfbfbf" points="164.5,-129 164.5,-148 267.5,-148 267.5,-129 164.5,-129"/>
<text text-anchor="middle" x="216" y="-136" font-family="Helvetica,sans-Serif" font-size="10.00">SystemManager.tpp</text>
</a>
</g>
</g>
<!-- Node16&#45;&gt;Node19 -->
<g id="edge25" class="edge">
<title>Node16&#45;&gt;Node19</title>
<path fill="none" stroke="midnightblue" d="M319.82,-195.73C299.57,-184.77 264.7,-165.88 241.01,-153.05"/>
<polygon fill="midnightblue" stroke="midnightblue" points="242.39,-149.81 231.93,-148.13 239.05,-155.97 242.39,-149.81"/>
</g>
<!-- Node17&#45;&gt;Node6 -->
<g id="edge22" class="edge">
<title>Node17&#45;&gt;Node6</title>
<path fill="none" stroke="midnightblue" d="M120.68,-128.97C131.93,-126.98 143.88,-124.9 155,-123 252.23,-106.41 277.53,-107.6 374,-87 380.34,-85.65 387.04,-84.03 393.5,-82.39"/>
<polygon fill="midnightblue" stroke="midnightblue" points="394.59,-85.72 403.38,-79.79 392.82,-78.95 394.59,-85.72"/>
</g>
<!-- Node17&#45;&gt;Node7 -->
<g id="edge23" class="edge">
<title>Node17&#45;&gt;Node7</title>
<path fill="none" stroke="midnightblue" d="M102.61,-128.87C142.29,-117.3 212.81,-96.75 256.84,-83.91"/>
<polygon fill="midnightblue" stroke="midnightblue" points="258,-87.22 266.62,-81.06 256.04,-80.5 258,-87.22"/>
</g>
<!-- Node18 -->
<g id="node14" class="node">
<title>Node18</title>
<g id="a_node14"><a xlink:title=" ">
<polygon fill="none" stroke="#bfbfbf" points="58,-62 58,-81 88,-81 88,-62 58,-62"/>
<text text-anchor="middle" x="73" y="-69" font-family="Helvetica,sans-Serif" font-size="10.00">set</text>
</a>
</g>
</g>
<!-- Node17&#45;&gt;Node18 -->
<g id="edge21" class="edge">
<title>Node17&#45;&gt;Node18</title>
<path fill="none" stroke="midnightblue" d="M73,-128.73C73,-119.18 73,-103.62 73,-91.28"/>
<polygon fill="midnightblue" stroke="midnightblue" points="76.5,-91.13 73,-81.13 69.5,-91.13 76.5,-91.13"/>
</g>
<!-- Node21&#45;&gt;Node17 -->
<g id="edge28" class="edge">
<title>Node21&#45;&gt;Node17</title>
<path fill="none" stroke="midnightblue" d="M220.52,-458.38C167.94,-440.47 94,-403.98 94,-340.5 94,-340.5 94,-340.5 94,-271.5 94,-230.47 83.98,-183.14 77.78,-157.79"/>
<polygon fill="midnightblue" stroke="midnightblue" points="81.17,-156.91 75.33,-148.07 74.38,-158.63 81.17,-156.91"/>
</g>
<!-- Node23 -->
<g id="node19" class="node">
<title>Node23</title>
<g id="a_node19"><a xlink:title=" ">
<polygon fill="none" stroke="#bfbfbf" points="3459,-129 3459,-148 3563,-148 3563,-129 3459,-129"/>
<text text-anchor="middle" x="3511" y="-136" font-family="Helvetica,sans-Serif" font-size="10.00">SFML/Graphics.hpp</text>
</a>
</g>
</g>
<!-- Node22&#45;&gt;Node23 -->
<g id="edge30" class="edge">
<title>Node22&#45;&gt;Node23</title>
<path fill="none" stroke="midnightblue" d="M3576.77,-190.4C3563.03,-179.76 3544.22,-165.2 3530.23,-154.38"/>
<polygon fill="midnightblue" stroke="midnightblue" points="3532.29,-151.55 3522.24,-148.19 3528,-157.08 3532.29,-151.55"/>
</g>
<!-- Node25 -->
<g id="node21" class="node">
<title>Node25</title>
<g id="a_node21"><a xlink:href="_vector_8hpp.html" target="_top" xlink:title="Contains all headers for all Vector types.">
<polygon fill="none" stroke="black" points="1273.5,-56.5 1273.5,-86.5 1398.5,-86.5 1398.5,-56.5 1273.5,-56.5"/>
<text text-anchor="start" x="1281.5" y="-74.5" font-family="Helvetica,sans-Serif" font-size="10.00">NekoEngine/Math/Vector</text>
<text text-anchor="middle" x="1336" y="-63.5" font-family="Helvetica,sans-Serif" font-size="10.00">/Vector.hpp</text>
</a>
</g>
</g>
<!-- Node24&#45;&gt;Node25 -->
<g id="edge32" class="edge">
<title>Node24&#45;&gt;Node25</title>
<path fill="none" stroke="midnightblue" d="M1296.07,-123.4C1302.68,-114.96 1311.23,-104.07 1318.72,-94.52"/>
<polygon fill="midnightblue" stroke="midnightblue" points="1321.54,-96.6 1324.96,-86.58 1316.03,-92.28 1321.54,-96.6"/>
</g>
<!-- Node26 -->
<g id="node22" class="node">
<title>Node26</title>
<g id="a_node22"><a xlink:href="_vector2_8hpp.html" target="_top" xlink:title="Contains Vector2 template class.">
<polygon fill="none" stroke="black" points="1216,-0.5 1216,-19.5 1284,-19.5 1284,-0.5 1216,-0.5"/>
<text text-anchor="middle" x="1250" y="-7.5" font-family="Helvetica,sans-Serif" font-size="10.00">Vector2.hpp</text>
</a>
</g>
</g>
<!-- Node25&#45;&gt;Node26 -->
<g id="edge33" class="edge">
<title>Node25&#45;&gt;Node26</title>
<path fill="none" stroke="midnightblue" d="M1315.62,-56.4C1302.09,-47.04 1284.39,-34.79 1270.78,-25.38"/>
<polygon fill="midnightblue" stroke="midnightblue" points="1272.73,-22.47 1262.51,-19.66 1268.75,-28.23 1272.73,-22.47"/>
</g>
<!-- Node27 -->
<g id="node23" class="node">
<title>Node27</title>
<g id="a_node23"><a xlink:href="_vector3_8hpp.html" target="_top" xlink:title="Contains Vector3 template class.">
<polygon fill="none" stroke="black" points="1302,-0.5 1302,-19.5 1370,-19.5 1370,-0.5 1302,-0.5"/>
<text text-anchor="middle" x="1336" y="-7.5" font-family="Helvetica,sans-Serif" font-size="10.00">Vector3.hpp</text>
</a>
</g>
</g>
<!-- Node25&#45;&gt;Node27 -->
<g id="edge34" class="edge">
<title>Node25&#45;&gt;Node27</title>
<path fill="none" stroke="midnightblue" d="M1336,-56.4C1336,-48.47 1336,-38.46 1336,-29.86"/>
<polygon fill="midnightblue" stroke="midnightblue" points="1339.5,-29.66 1336,-19.66 1332.5,-29.66 1339.5,-29.66"/>
</g>
<!-- Node28 -->
<g id="node24" class="node">
<title>Node28</title>
<g id="a_node24"><a xlink:href="_vector4_8hpp.html" target="_top" xlink:title="Contains Vector4 template class.">
<polygon fill="none" stroke="black" points="1388,-0.5 1388,-19.5 1456,-19.5 1456,-0.5 1388,-0.5"/>
<text text-anchor="middle" x="1422" y="-7.5" font-family="Helvetica,sans-Serif" font-size="10.00">Vector4.hpp</text>
</a>
</g>
</g>
<!-- Node25&#45;&gt;Node28 -->
<g id="edge35" class="edge">
<title>Node25&#45;&gt;Node28</title>
<path fill="none" stroke="midnightblue" d="M1356.38,-56.4C1369.91,-47.04 1387.61,-34.79 1401.22,-25.38"/>
<polygon fill="midnightblue" stroke="midnightblue" points="1403.25,-28.23 1409.49,-19.66 1399.27,-22.47 1403.25,-28.23"/>
</g>
<!-- Node29&#45;&gt;Node25 -->
<g id="edge61" class="edge">
<title>Node29&#45;&gt;Node25</title>
<path fill="none" stroke="midnightblue" d="M1511.53,-470.8C1865.51,-459.34 3788.54,-387.83 3679,-190 3651.82,-140.91 3625.75,-139.1 3572,-123 3466.2,-91.31 1781.76,-76.06 1408.76,-73.06"/>
<polygon fill="midnightblue" stroke="midnightblue" points="1408.65,-69.56 1398.63,-72.98 1408.6,-76.56 1408.65,-69.56"/>
</g>
<!-- Node30 -->
<g id="node26" class="node">
<title>Node30</title>
<g id="a_node26"><a xlink:href="_components_8hpp.html" target="_top" xlink:title="Components.">
<polygon fill="none" stroke="black" points="1966.5,-257.5 1966.5,-287.5 2115.5,-287.5 2115.5,-257.5 1966.5,-257.5"/>
<text text-anchor="start" x="1974.5" y="-275.5" font-family="Helvetica,sans-Serif" font-size="10.00">NekoEngine/ECS/Components</text>
<text text-anchor="middle" x="2041" y="-264.5" font-family="Helvetica,sans-Serif" font-size="10.00">/Components.hpp</text>
</a>
</g>
</g>
<!-- Node29&#45;&gt;Node30 -->
<g id="edge37" class="edge">
<title>Node29&#45;&gt;Node30</title>
<path fill="none" stroke="midnightblue" d="M1511.59,-461.84C1595.62,-444.77 1759.19,-407.77 1891,-355 1934.14,-337.73 1980.7,-311.05 2010.31,-292.96"/>
<polygon fill="midnightblue" stroke="midnightblue" points="2012.26,-295.87 2018.93,-287.64 2008.58,-289.91 2012.26,-295.87"/>
</g>
<!-- Node49 -->
<g id="node43" class="node">
<title>Node49</title>
<g id="a_node43"><a xlink:href="_custom_client_8hpp.html" target="_top" xlink:title=" ">
<polygon fill="none" stroke="red" points="1392.5,-397 1392.5,-416 1519.5,-416 1519.5,-397 1392.5,-397"/>
<text text-anchor="middle" x="1456" y="-404" font-family="Helvetica,sans-Serif" font-size="10.00">include/CustomClient.hpp</text>
</a>
</g>
</g>
<!-- Node29&#45;&gt;Node49 -->
<g id="edge62" class="edge">
<title>Node29&#45;&gt;Node49</title>
<path fill="none" stroke="midnightblue" d="M1456,-458.4C1456,-449.06 1456,-436.71 1456,-426.52"/>
<polygon fill="midnightblue" stroke="midnightblue" points="1459.5,-426.19 1456,-416.19 1452.5,-426.19 1459.5,-426.19"/>
</g>
<!-- Node30&#45;&gt;Node22 -->
<g id="edge46" class="edge">
<title>Node30&#45;&gt;Node22</title>
<path fill="none" stroke="midnightblue" d="M2115.6,-270.31C2371.98,-266 3216.75,-250 3510.21,-221.07"/>
<polygon fill="midnightblue" stroke="midnightblue" points="3510.82,-224.52 3520.41,-220.03 3510.11,-217.56 3510.82,-224.52"/>
</g>
<!-- Node30&#45;&gt;Node24 -->
<g id="edge38" class="edge">
<title>Node30&#45;&gt;Node24</title>
<path fill="none" stroke="midnightblue" d="M1966.34,-271.33C1789.02,-270.24 1353.63,-263.24 1304,-221 1287.72,-207.15 1283.88,-182.3 1283.55,-163.67"/>
<polygon fill="midnightblue" stroke="midnightblue" points="1287.05,-163.6 1283.7,-153.55 1280.06,-163.5 1287.05,-163.6"/>
</g>
<!-- Node31 -->
<g id="node27" class="node">
<title>Node31</title>
<g id="a_node27"><a xlink:href="_timer_8hpp.html" target="_top" xlink:title="Timer component.">
<polygon fill="none" stroke="red" points="1479.5,-190.5 1479.5,-220.5 1628.5,-220.5 1628.5,-190.5 1479.5,-190.5"/>
<text text-anchor="start" x="1487.5" y="-208.5" font-family="Helvetica,sans-Serif" font-size="10.00">NekoEngine/ECS/Components</text>
<text text-anchor="middle" x="1554" y="-197.5" font-family="Helvetica,sans-Serif" font-size="10.00">/Timer.hpp</text>
</a>
</g>
</g>
<!-- Node30&#45;&gt;Node31 -->
<g id="edge39" class="edge">
<title>Node30&#45;&gt;Node31</title>
<path fill="none" stroke="midnightblue" d="M1966.21,-263.18C1887.41,-254.17 1759.44,-238.87 1638.78,-221.07"/>
<polygon fill="midnightblue" stroke="midnightblue" points="1639.03,-217.57 1628.63,-219.57 1638,-224.5 1639.03,-217.57"/>
</g>
<!-- Node33 -->
<g id="node28" class="node">
<title>Node33</title>
<g id="a_node28"><a xlink:href="_renderable_8hpp.html" target="_top" xlink:title="Renderable component.">
<polygon fill="none" stroke="black" points="1646.5,-190.5 1646.5,-220.5 1795.5,-220.5 1795.5,-190.5 1646.5,-190.5"/>
<text text-anchor="start" x="1654.5" y="-208.5" font-family="Helvetica,sans-Serif" font-size="10.00">NekoEngine/ECS/Components</text>
<text text-anchor="middle" x="1721" y="-197.5" font-family="Helvetica,sans-Serif" font-size="10.00">/Renderable.hpp</text>
</a>
</g>
</g>
<!-- Node30&#45;&gt;Node33 -->
<g id="edge40" class="edge">
<title>Node30&#45;&gt;Node33</title>
<path fill="none" stroke="midnightblue" d="M1971.96,-257.48C1921.47,-247.22 1852.89,-233.29 1800.18,-222.58"/>
<polygon fill="midnightblue" stroke="midnightblue" points="1800.69,-219.12 1790.19,-220.55 1799.3,-225.98 1800.69,-219.12"/>
</g>
<!-- Node34 -->
<g id="node29" class="node">
<title>Node34</title>
<g id="a_node29"><a xlink:href="_color_8hpp.html" target="_top" xlink:title="Color component.">
<polygon fill="none" stroke="red" points="1813.5,-190.5 1813.5,-220.5 1962.5,-220.5 1962.5,-190.5 1813.5,-190.5"/>
<text text-anchor="start" x="1821.5" y="-208.5" font-family="Helvetica,sans-Serif" font-size="10.00">NekoEngine/ECS/Components</text>
<text text-anchor="middle" x="1888" y="-197.5" font-family="Helvetica,sans-Serif" font-size="10.00">/Color.hpp</text>
</a>
</g>
</g>
<!-- Node30&#45;&gt;Node34 -->
<g id="edge41" class="edge">
<title>Node30&#45;&gt;Node34</title>
<path fill="none" stroke="midnightblue" d="M2007.8,-257.4C1985.15,-247.77 1954.93,-234.94 1930.52,-224.56"/>
<polygon fill="midnightblue" stroke="midnightblue" points="1931.71,-221.27 1921.13,-220.58 1928.97,-227.71 1931.71,-221.27"/>
</g>
<!-- Node35 -->
<g id="node30" class="node">
<title>Node35</title>
<g id="a_node30"><a xlink:href="_rigid_body_8hpp.html" target="_top" xlink:title="RigidBody component.">
<polygon fill="none" stroke="black" points="1665.5,-123.5 1665.5,-153.5 1814.5,-153.5 1814.5,-123.5 1665.5,-123.5"/>
<text text-anchor="start" x="1673.5" y="-141.5" font-family="Helvetica,sans-Serif" font-size="10.00">NekoEngine/ECS/Components</text>
<text text-anchor="middle" x="1740" y="-130.5" font-family="Helvetica,sans-Serif" font-size="10.00">/RigidBody.hpp</text>
</a>
</g>
</g>
<!-- Node30&#45;&gt;Node35 -->
<g id="edge42" class="edge">
<title>Node30&#45;&gt;Node35</title>
<path fill="none" stroke="midnightblue" d="M2033,-257.21C2021.84,-238.66 1999.81,-206.72 1972,-190 1927.57,-163.29 1870.8,-150.63 1824.53,-144.67"/>
<polygon fill="midnightblue" stroke="midnightblue" points="1824.88,-141.19 1814.53,-143.46 1824.04,-148.14 1824.88,-141.19"/>
</g>
<!-- Node36 -->
<g id="node31" class="node">
<title>Node36</title>
<g id="a_node31"><a xlink:href="_gravity_8hpp.html" target="_top" xlink:title="Gravity component.">
<polygon fill="none" stroke="black" points="1043.5,-123.5 1043.5,-153.5 1192.5,-153.5 1192.5,-123.5 1043.5,-123.5"/>
<text text-anchor="start" x="1051.5" y="-141.5" font-family="Helvetica,sans-Serif" font-size="10.00">NekoEngine/ECS/Components</text>
<text text-anchor="middle" x="1118" y="-130.5" font-family="Helvetica,sans-Serif" font-size="10.00">/Gravity.hpp</text>
</a>
</g>
</g>
<!-- Node30&#45;&gt;Node36 -->
<g id="edge44" class="edge">
<title>Node30&#45;&gt;Node36</title>
<path fill="none" stroke="midnightblue" d="M1966.28,-270.27C1748.65,-266.31 1128.7,-252.33 1099,-221 1084.19,-205.38 1092.89,-180.54 1102.85,-162.38"/>
<polygon fill="midnightblue" stroke="midnightblue" points="1105.97,-163.97 1108.05,-153.58 1099.95,-160.41 1105.97,-163.97"/>
</g>
<!-- Node37 -->
<g id="node32" class="node">
<title>Node37</title>
<g id="a_node32"><a xlink:href="_networkable_8hpp.html" target="_top" xlink:title="Networkable component.">
<polygon fill="none" stroke="black" points="2017.5,-190.5 2017.5,-220.5 2166.5,-220.5 2166.5,-190.5 2017.5,-190.5"/>
<text text-anchor="start" x="2025.5" y="-208.5" font-family="Helvetica,sans-Serif" font-size="10.00">NekoEngine/ECS/Components</text>
<text text-anchor="middle" x="2092" y="-197.5" font-family="Helvetica,sans-Serif" font-size="10.00">/Networkable.hpp</text>
</a>
</g>
</g>
<!-- Node30&#45;&gt;Node37 -->
<g id="edge47" class="edge">
<title>Node30&#45;&gt;Node37</title>
<path fill="none" stroke="midnightblue" d="M2052.07,-257.4C2058.68,-248.96 2067.23,-238.07 2074.72,-228.52"/>
<polygon fill="midnightblue" stroke="midnightblue" points="2077.54,-230.6 2080.96,-220.58 2072.03,-226.28 2077.54,-230.6"/>
</g>
<!-- Node38 -->
<g id="node33" class="node">
<title>Node38</title>
<g id="a_node33"><a xlink:href="_uid_8hpp.html" target="_top" xlink:title="Uid component.">
<polygon fill="none" stroke="red" points="2184.5,-190.5 2184.5,-220.5 2333.5,-220.5 2333.5,-190.5 2184.5,-190.5"/>
<text text-anchor="start" x="2192.5" y="-208.5" font-family="Helvetica,sans-Serif" font-size="10.00">NekoEngine/ECS/Components</text>
<text text-anchor="middle" x="2259" y="-197.5" font-family="Helvetica,sans-Serif" font-size="10.00">/Uid.hpp</text>
</a>
</g>
</g>
<!-- Node30&#45;&gt;Node38 -->
<g id="edge48" class="edge">
<title>Node30&#45;&gt;Node38</title>
<path fill="none" stroke="midnightblue" d="M2088.03,-257.48C2121.44,-247.51 2166.48,-234.09 2201.94,-223.51"/>
<polygon fill="midnightblue" stroke="midnightblue" points="2203.09,-226.82 2211.67,-220.61 2201.09,-220.11 2203.09,-226.82"/>
</g>
<!-- Node39 -->
<g id="node34" class="node">
<title>Node39</title>
<g id="a_node34"><a xlink:href="_hostile_8hpp.html" target="_top" xlink:title=" ">
<polygon fill="none" stroke="black" points="2351.5,-190.5 2351.5,-220.5 2500.5,-220.5 2500.5,-190.5 2351.5,-190.5"/>
<text text-anchor="start" x="2359.5" y="-208.5" font-family="Helvetica,sans-Serif" font-size="10.00">NekoEngine/ECS/Components</text>
<text text-anchor="middle" x="2426" y="-197.5" font-family="Helvetica,sans-Serif" font-size="10.00">/Hostile.hpp</text>
</a>
</g>
</g>
<!-- Node30&#45;&gt;Node39 -->
<g id="edge49" class="edge">
<title>Node30&#45;&gt;Node39</title>
<path fill="none" stroke="midnightblue" d="M2115.8,-259.15C2174.54,-249.41 2258.7,-235.38 2341.29,-221.29"/>
<polygon fill="midnightblue" stroke="midnightblue" points="2342.08,-224.7 2351.35,-219.57 2340.9,-217.8 2342.08,-224.7"/>
</g>
<!-- Node40 -->
<g id="node35" class="node">
<title>Node40</title>
<g id="a_node35"><a xlink:href="_but_8hpp.html" target="_top" xlink:title=" ">
<polygon fill="none" stroke="black" points="2518.5,-190.5 2518.5,-220.5 2667.5,-220.5 2667.5,-190.5 2518.5,-190.5"/>
<text text-anchor="start" x="2526.5" y="-208.5" font-family="Helvetica,sans-Serif" font-size="10.00">NekoEngine/ECS/Components</text>
<text text-anchor="middle" x="2593" y="-197.5" font-family="Helvetica,sans-Serif" font-size="10.00">/But.hpp</text>
</a>
</g>
</g>
<!-- Node30&#45;&gt;Node40 -->
<g id="edge50" class="edge">
<title>Node30&#45;&gt;Node40</title>
<path fill="none" stroke="midnightblue" d="M2115.51,-265C2206.1,-256.76 2363.85,-241.3 2508.44,-221.17"/>
<polygon fill="midnightblue" stroke="midnightblue" points="2508.96,-224.63 2518.38,-219.77 2507.99,-217.7 2508.96,-224.63"/>
</g>
<!-- Node41 -->
<g id="node36" class="node">
<title>Node41</title>
<g id="a_node36"><a xlink:href="_textinfo_8hpp.html" target="_top" xlink:title=" ">
<polygon fill="none" stroke="black" points="3353.5,-190.5 3353.5,-220.5 3502.5,-220.5 3502.5,-190.5 3353.5,-190.5"/>
<text text-anchor="start" x="3361.5" y="-208.5" font-family="Helvetica,sans-Serif" font-size="10.00">NekoEngine/ECS/Components</text>
<text text-anchor="middle" x="3428" y="-197.5" font-family="Helvetica,sans-Serif" font-size="10.00">/Textinfo.hpp</text>
</a>
</g>
</g>
<!-- Node30&#45;&gt;Node41 -->
<g id="edge51" class="edge">
<title>Node30&#45;&gt;Node41</title>
<path fill="none" stroke="midnightblue" d="M2115.86,-272.11C2314.52,-272.97 2871.53,-270.49 3343.33,-221.08"/>
<polygon fill="midnightblue" stroke="midnightblue" points="3343.83,-224.55 3353.41,-220.02 3343.1,-217.59 3343.83,-224.55"/>
</g>
<!-- Node42 -->
<g id="node37" class="node">
<title>Node42</title>
<g id="a_node37"><a xlink:href="_patterns_8hpp.html" target="_top" xlink:title="Patterns component.">
<polygon fill="none" stroke="red" points="1312.5,-190.5 1312.5,-220.5 1461.5,-220.5 1461.5,-190.5 1312.5,-190.5"/>
<text text-anchor="start" x="1320.5" y="-208.5" font-family="Helvetica,sans-Serif" font-size="10.00">NekoEngine/ECS/Components</text>
<text text-anchor="middle" x="1387" y="-197.5" font-family="Helvetica,sans-Serif" font-size="10.00">/Patterns.hpp</text>
</a>
</g>
</g>
<!-- Node30&#45;&gt;Node42 -->
<g id="edge53" class="edge">
<title>Node30&#45;&gt;Node42</title>
<path fill="none" stroke="midnightblue" d="M1966.09,-266.84C1858.89,-259.74 1655.35,-244.61 1471.72,-221.02"/>
<polygon fill="midnightblue" stroke="midnightblue" points="1471.97,-217.52 1461.61,-219.71 1471.07,-224.46 1471.97,-217.52"/>
</g>
<!-- Node44 -->
<g id="node38" class="node">
<title>Node44</title>
<g id="a_node38"><a xlink:href="_alien_8hpp.html" target="_top" xlink:title="Alien component.">
<polygon fill="none" stroke="black" points="2685.5,-190.5 2685.5,-220.5 2834.5,-220.5 2834.5,-190.5 2685.5,-190.5"/>
<text text-anchor="start" x="2693.5" y="-208.5" font-family="Helvetica,sans-Serif" font-size="10.00">NekoEngine/ECS/Components</text>
<text text-anchor="middle" x="2760" y="-197.5" font-family="Helvetica,sans-Serif" font-size="10.00">/Alien.hpp</text>
</a>
</g>
</g>
<!-- Node30&#45;&gt;Node44 -->
<g id="edge56" class="edge">
<title>Node30&#45;&gt;Node44</title>
<path fill="none" stroke="midnightblue" d="M2115.65,-267.85C2232.79,-261.61 2467.11,-247.11 2675.19,-221.16"/>
<polygon fill="midnightblue" stroke="midnightblue" points="2675.91,-224.6 2685.39,-219.87 2675.03,-217.65 2675.91,-224.6"/>
</g>
<!-- Node45 -->
<g id="node39" class="node">
<title>Node45</title>
<g id="a_node39"><a xlink:href="_entity_type_8hpp.html" target="_top" xlink:title=" ">
<polygon fill="none" stroke="black" points="2852.5,-190.5 2852.5,-220.5 3001.5,-220.5 3001.5,-190.5 2852.5,-190.5"/>
<text text-anchor="start" x="2860.5" y="-208.5" font-family="Helvetica,sans-Serif" font-size="10.00">NekoEngine/ECS/Components</text>
<text text-anchor="middle" x="2927" y="-197.5" font-family="Helvetica,sans-Serif" font-size="10.00">/EntityType.hpp</text>
</a>
</g>
</g>
<!-- Node30&#45;&gt;Node45 -->
<g id="edge57" class="edge">
<title>Node30&#45;&gt;Node45</title>
<path fill="none" stroke="midnightblue" d="M2115.7,-269.55C2256.17,-265.28 2569.38,-252.91 2842.3,-221.12"/>
<polygon fill="midnightblue" stroke="midnightblue" points="2842.88,-224.58 2852.4,-219.93 2842.06,-217.62 2842.88,-224.58"/>
</g>
<!-- Node46 -->
<g id="node40" class="node">
<title>Node46</title>
<g id="a_node40"><a xlink:href="_gorb_background_8hpp.html" target="_top" xlink:title=" ">
<polygon fill="none" stroke="black" points="3019.5,-190.5 3019.5,-220.5 3168.5,-220.5 3168.5,-190.5 3019.5,-190.5"/>
<text text-anchor="start" x="3027.5" y="-208.5" font-family="Helvetica,sans-Serif" font-size="10.00">NekoEngine/ECS/Components</text>
<text text-anchor="middle" x="3094" y="-197.5" font-family="Helvetica,sans-Serif" font-size="10.00">/GorbBackground.hpp</text>
</a>
</g>
</g>
<!-- Node30&#45;&gt;Node46 -->
<g id="edge58" class="edge">
<title>Node30&#45;&gt;Node46</title>
<path fill="none" stroke="midnightblue" d="M2115.79,-270.68C2277.3,-268.25 2670.81,-258.74 3009.4,-221.09"/>
<polygon fill="midnightblue" stroke="midnightblue" points="3009.86,-224.56 3019.4,-219.97 3009.08,-217.61 3009.86,-224.56"/>
</g>
<!-- Node47 -->
<g id="node41" class="node">
<title>Node47</title>
<g id="a_node41"><a xlink:href="_animation_8hpp.html" target="_top" xlink:title=" ">
<polygon fill="none" stroke="black" points="3186.5,-190.5 3186.5,-220.5 3335.5,-220.5 3335.5,-190.5 3186.5,-190.5"/>
<text text-anchor="start" x="3194.5" y="-208.5" font-family="Helvetica,sans-Serif" font-size="10.00">NekoEngine/ECS/Components</text>
<text text-anchor="middle" x="3261" y="-197.5" font-family="Helvetica,sans-Serif" font-size="10.00">/Animation.hpp</text>
</a>
</g>
</g>
<!-- Node30&#45;&gt;Node47 -->
<g id="edge59" class="edge">
<title>Node30&#45;&gt;Node47</title>
<path fill="none" stroke="midnightblue" d="M2115.75,-271.5C2296.44,-270.77 2771.29,-264.61 3176.25,-221.1"/>
<polygon fill="midnightblue" stroke="midnightblue" points="3176.84,-224.55 3186.41,-220 3176.09,-217.6 3176.84,-224.55"/>
</g>
<!-- Node48 -->
<g id="node42" class="node">
<title>Node48</title>
<g id="a_node42"><a xlink:href="_player_shoot_8hpp.html" target="_top" xlink:title=" ">
<polygon fill="none" stroke="black" points="1108.5,-190.5 1108.5,-220.5 1257.5,-220.5 1257.5,-190.5 1108.5,-190.5"/>
<text text-anchor="start" x="1116.5" y="-208.5" font-family="Helvetica,sans-Serif" font-size="10.00">NekoEngine/ECS/Components</text>
<text text-anchor="middle" x="1183" y="-197.5" font-family="Helvetica,sans-Serif" font-size="10.00">/PlayerShoot.hpp</text>
</a>
</g>
</g>
<!-- Node30&#45;&gt;Node48 -->
<g id="edge60" class="edge">
<title>Node30&#45;&gt;Node48</title>
<path fill="none" stroke="midnightblue" d="M1966.45,-269.04C1828.71,-263.94 1525.21,-250.21 1271,-221 1269.92,-220.88 1268.84,-220.75 1267.75,-220.62"/>
<polygon fill="midnightblue" stroke="midnightblue" points="1268.19,-217.14 1257.82,-219.34 1267.29,-224.09 1268.19,-217.14"/>
</g>
<!-- Node35&#45;&gt;Node25 -->
<g id="edge43" class="edge">
<title>Node35&#45;&gt;Node25</title>
<path fill="none" stroke="midnightblue" d="M1665.43,-125.5C1592.16,-113.71 1481.07,-95.84 1408.51,-84.17"/>
<polygon fill="midnightblue" stroke="midnightblue" points="1408.97,-80.7 1398.54,-82.56 1407.86,-87.61 1408.97,-80.7"/>
</g>
<!-- Node36&#45;&gt;Node25 -->
<g id="edge45" class="edge">
<title>Node36&#45;&gt;Node25</title>
<path fill="none" stroke="midnightblue" d="M1165.03,-123.48C1198.44,-113.51 1243.48,-100.09 1278.94,-89.51"/>
<polygon fill="midnightblue" stroke="midnightblue" points="1280.09,-92.82 1288.67,-86.61 1278.09,-86.11 1280.09,-92.82"/>
</g>
<!-- Node41&#45;&gt;Node23 -->
<g id="edge52" class="edge">
<title>Node41&#45;&gt;Node23</title>
<path fill="none" stroke="midnightblue" d="M3446.01,-190.4C3459.59,-179.76 3478.18,-165.2 3492,-154.38"/>
<polygon fill="midnightblue" stroke="midnightblue" points="3494.18,-157.12 3499.9,-148.19 3489.87,-151.6 3494.18,-157.12"/>
</g>
<!-- Node42&#45;&gt;Node24 -->
<g id="edge55" class="edge">
<title>Node42&#45;&gt;Node24</title>
<path fill="none" stroke="midnightblue" d="M1364.87,-190.4C1350.43,-181.2 1331.4,-169.07 1315.53,-158.95"/>
<polygon fill="midnightblue" stroke="midnightblue" points="1317.4,-156 1307.09,-153.58 1313.64,-161.9 1317.4,-156"/>
</g>
<!-- Node42&#45;&gt;Node25 -->
<g id="edge54" class="edge">
<title>Node42&#45;&gt;Node25</title>
<path fill="none" stroke="midnightblue" d="M1385.15,-190.21C1382.67,-173.58 1377.44,-145.51 1368,-123 1363.99,-113.44 1358.24,-103.65 1352.72,-95.27"/>
<polygon fill="midnightblue" stroke="midnightblue" points="1355.45,-93.07 1346.9,-86.8 1349.68,-97.03 1355.45,-93.07"/>
</g>
<!-- Node50 -->
<g id="node44" class="node">
<title>Node50</title>
<g id="a_node44"><a xlink:title=" ">
<polygon fill="none" stroke="#bfbfbf" points="1340,-330 1340,-349 1444,-349 1444,-330 1340,-330"/>
<text text-anchor="middle" x="1392" y="-337" font-family="Helvetica,sans-Serif" font-size="10.00">NyaNet/NyaNet.hpp</text>
</a>
</g>
</g>
<!-- Node49&#45;&gt;Node50 -->
<g id="edge63" class="edge">
<title>Node49&#45;&gt;Node50</title>
<path fill="none" stroke="midnightblue" d="M1447.37,-396.73C1437.2,-386.4 1420.1,-369.04 1407.59,-356.33"/>
<polygon fill="midnightblue" stroke="midnightblue" points="1410,-353.8 1400.49,-349.13 1405.02,-358.71 1410,-353.8"/>
</g>
<!-- Node51 -->
<g id="node45" class="node">
<title>Node51</title>
<g id="a_node45"><a xlink:href="_neko_engine_8hpp.html" target="_top" xlink:title=" ">
<polygon fill="none" stroke="red" points="1098.5,-330 1098.5,-349 1241.5,-349 1241.5,-330 1098.5,-330"/>
<text text-anchor="middle" x="1170" y="-337" font-family="Helvetica,sans-Serif" font-size="10.00">NekoEngine/NekoEngine.hpp</text>
</a>
</g>
</g>
<!-- Node49&#45;&gt;Node51 -->
<g id="edge64" class="edge">
<title>Node49&#45;&gt;Node51</title>
<path fill="none" stroke="midnightblue" d="M1418.32,-396.94C1366.77,-385.22 1274.25,-364.19 1217.86,-351.38"/>
<polygon fill="midnightblue" stroke="midnightblue" points="1218.29,-347.89 1207.77,-349.08 1216.74,-354.71 1218.29,-347.89"/>
</g>
<!-- Node71 -->
<g id="node46" class="node">
<title>Node71</title>
<g id="a_node46"><a xlink:title=" ">
<polygon fill="none" stroke="#bfbfbf" points="1462.5,-324.5 1462.5,-354.5 1575.5,-354.5 1575.5,-324.5 1462.5,-324.5"/>
<text text-anchor="start" x="1470.5" y="-342.5" font-family="Helvetica,sans-Serif" font-size="10.00">../../Game/Ennemies</text>
<text text-anchor="middle" x="1519" y="-331.5" font-family="Helvetica,sans-Serif" font-size="10.00">/EnnemiesFactory.hpp</text>
</a>
</g>
</g>
<!-- Node49&#45;&gt;Node71 -->
<g id="edge69" class="edge">
<title>Node49&#45;&gt;Node71</title>
<path fill="none" stroke="midnightblue" d="M1464.5,-396.73C1473.09,-387.86 1486.71,-373.81 1498.19,-361.97"/>
<polygon fill="midnightblue" stroke="midnightblue" points="1500.9,-364.21 1505.34,-354.59 1495.87,-359.33 1500.9,-364.21"/>
</g>
<!-- Node72 -->
<g id="node47" class="node">
<title>Node72</title>
<g id="a_node47"><a xlink:title=" ">
<polygon fill="none" stroke="#bfbfbf" points="1594,-324.5 1594,-354.5 1694,-354.5 1694,-324.5 1594,-324.5"/>
<text text-anchor="start" x="1602" y="-342.5" font-family="Helvetica,sans-Serif" font-size="10.00">../../Game/Bullets</text>
<text text-anchor="middle" x="1644" y="-331.5" font-family="Helvetica,sans-Serif" font-size="10.00">/BulletsFactory.hpp</text>
</a>
</g>
</g>
<!-- Node49&#45;&gt;Node72 -->
<g id="edge70" class="edge">
<title>Node49&#45;&gt;Node72</title>
<path fill="none" stroke="midnightblue" d="M1480.96,-396.87C1509.66,-386.95 1557.5,-370.41 1593.95,-357.81"/>
<polygon fill="midnightblue" stroke="midnightblue" points="1595.12,-361.1 1603.43,-354.53 1592.83,-354.49 1595.12,-361.1"/>
</g>
<!-- Node73 -->
<g id="node48" class="node">
<title>Node73</title>
<g id="a_node48"><a xlink:title=" ">
<polygon fill="none" stroke="#bfbfbf" points="1712,-330 1712,-349 1882,-349 1882,-330 1712,-330"/>
<text text-anchor="middle" x="1797" y="-337" font-family="Helvetica,sans-Serif" font-size="10.00">../../Game/Bonus/BonusFactory.hpp</text>
</a>
</g>
</g>
<!-- Node49&#45;&gt;Node73 -->
<g id="edge71" class="edge">
<title>Node49&#45;&gt;Node73</title>
<path fill="none" stroke="midnightblue" d="M1500.93,-396.94C1563.12,-385.08 1675.31,-363.7 1742.3,-350.93"/>
<polygon fill="midnightblue" stroke="midnightblue" points="1743.07,-354.34 1752.24,-349.03 1741.76,-347.47 1743.07,-354.34"/>
</g>
<!-- Node74 -->
<g id="node49" class="node">
<title>Node74</title>
<g id="a_node49"><a xlink:href="_sound_8hpp.html" target="_top" xlink:title=" ">
<polygon fill="none" stroke="red" points="1260,-330 1260,-349 1322,-349 1322,-330 1260,-330"/>
<text text-anchor="middle" x="1291" y="-337" font-family="Helvetica,sans-Serif" font-size="10.00">Sound.hpp</text>
</a>
</g>
</g>
<!-- Node49&#45;&gt;Node74 -->
<g id="edge72" class="edge">
<title>Node49&#45;&gt;Node74</title>
<path fill="none" stroke="midnightblue" d="M1434.09,-396.87C1405.41,-385.57 1354.96,-365.7 1322.27,-352.82"/>
<polygon fill="midnightblue" stroke="midnightblue" points="1323.33,-349.47 1312.74,-349.06 1320.76,-355.99 1323.33,-349.47"/>
</g>
<!-- Node51&#45;&gt;Node2 -->
<g id="edge66" class="edge">
<title>Node51&#45;&gt;Node2</title>
<path fill="none" stroke="midnightblue" d="M1098.36,-331.2C981.81,-319.33 751.29,-295.84 623.21,-282.79"/>
<polygon fill="midnightblue" stroke="midnightblue" points="623.33,-279.29 613.03,-281.76 622.62,-286.25 623.33,-279.29"/>
</g>
<!-- Node51&#45;&gt;Node25 -->
<g id="edge65" class="edge">
<title>Node51&#45;&gt;Node25</title>
<path fill="none" stroke="midnightblue" d="M1156.87,-329.91C1112.17,-299.69 972.11,-196.1 1034,-123 1062.82,-88.96 1183.64,-77.85 1263.45,-74.23"/>
<polygon fill="midnightblue" stroke="midnightblue" points="1263.61,-77.73 1273.46,-73.81 1263.32,-70.73 1263.61,-77.73"/>
</g>
<!-- Node51&#45;&gt;Node29 -->
<g id="edge68" class="edge">
<title>Node51&#45;&gt;Node29</title>
<path fill="none" stroke="midnightblue" d="M1188.67,-349.12C1234.62,-370.32 1353.99,-425.42 1416.5,-454.27"/>
<polygon fill="midnightblue" stroke="midnightblue" points="1415.12,-457.49 1425.66,-458.5 1418.05,-451.13 1415.12,-457.49"/>
</g>
<!-- Node51&#45;&gt;Node30 -->
<g id="edge67" class="edge">
<title>Node51&#45;&gt;Node30</title>
<path fill="none" stroke="midnightblue" d="M1212.32,-329.99C1224.74,-327.75 1238.38,-325.53 1251,-324 1506.65,-293.05 1811.29,-280.35 1956.25,-275.77"/>
<polygon fill="midnightblue" stroke="midnightblue" points="1956.52,-279.26 1966.41,-275.45 1956.3,-272.27 1956.52,-279.26"/>
</g>
<!-- Node65&#45;&gt;Node17 -->
<g id="edge74" class="edge">
<title>Node65&#45;&gt;Node17</title>
<path fill="none" stroke="midnightblue" d="M426.21,-391.39C361.77,-345.43 158.36,-200.37 93.25,-153.94"/>
<polygon fill="midnightblue" stroke="midnightblue" points="95.19,-151.02 85.01,-148.07 91.12,-156.72 95.19,-151.02"/>
</g>
</g>
</svg>
