<?xml version="1.0" encoding="UTF-8" standalone="no"?>
<!DOCTYPE svg PUBLIC "-//W3C//DTD SVG 1.1//EN"
 "http://www.w3.org/Graphics/SVG/1.1/DTD/svg11.dtd">
<!-- Generated by graphviz version 2.49.3 (20211027.1501)
 -->
<!-- Title: NekoEngine/src/ECS/Components/Patterns.cpp Pages: 1 -->
<svg width="655pt" height="296pt"
 viewBox="0.00 0.00 654.75 296.00" xmlns="http://www.w3.org/2000/svg" xmlns:xlink="http://www.w3.org/1999/xlink">
<g id="graph0" class="graph" transform="scale(1 1) rotate(0) translate(4 292)">
<title>NekoEngine/src/ECS/Components/Patterns.cpp</title>
<!-- Node1 -->
<g id="node1" class="node">
<title>Node1</title>
<g id="a_node1"><a xlink:title="Patterns implementation.">
<polygon fill="#bfbfbf" stroke="black" points="299.75,-257.5 299.75,-287.5 431.75,-287.5 431.75,-257.5 299.75,-257.5"/>
<text text-anchor="start" x="307.75" y="-275.5" font-family="Helvetica,sans-Serif" font-size="10.00">NekoEngine/src/ECS</text>
<text text-anchor="middle" x="365.75" y="-264.5" font-family="Helvetica,sans-Serif" font-size="10.00">/Components/Patterns.cpp</text>
</a>
</g>
</g>
<!-- Node2 -->
<g id="node2" class="node">
<title>Node2</title>
<g id="a_node2"><a xlink:href="_patterns_8hpp.html" target="_top" xlink:title="Patterns component.">
<polygon fill="none" stroke="black" points="12.25,-190.5 12.25,-220.5 161.25,-220.5 161.25,-190.5 12.25,-190.5"/>
<text text-anchor="start" x="20.25" y="-208.5" font-family="Helvetica,sans-Serif" font-size="10.00">NekoEngine/ECS/Components</text>
<text text-anchor="middle" x="86.75" y="-197.5" font-family="Helvetica,sans-Serif" font-size="10.00">/Patterns.hpp</text>
</a>
</g>
</g>
<!-- Node1&#45;&gt;Node2 -->
<g id="edge1" class="edge">
<title>Node1&#45;&gt;Node2</title>
<path fill="none" stroke="midnightblue" d="M305.55,-257.48C261.98,-247.32 202.94,-233.57 157.17,-222.91"/>
<polygon fill="midnightblue" stroke="midnightblue" points="157.85,-219.47 147.32,-220.61 156.26,-226.29 157.85,-219.47"/>
</g>
<!-- Node3 -->
<g id="node3" class="node">
<title>Node3</title>
<g id="a_node3"><a xlink:href="_vector_8hpp.html" target="_top" xlink:title="Contains all headers for all Vector types.">
<polygon fill="none" stroke="black" points="104.25,-56.5 104.25,-86.5 229.25,-86.5 229.25,-56.5 104.25,-56.5"/>
<text text-anchor="start" x="112.25" y="-74.5" font-family="Helvetica,sans-Serif" font-size="10.00">NekoEngine/Math/Vector</text>
<text text-anchor="middle" x="166.75" y="-63.5" font-family="Helvetica,sans-Serif" font-size="10.00">/Vector.hpp</text>
</a>
</g>
</g>
<!-- Node1&#45;&gt;Node3 -->
<g id="edge9" class="edge">
<title>Node1&#45;&gt;Node3</title>
<path fill="none" stroke="midnightblue" d="M335.44,-257.32C319.74,-248.69 301.28,-236.36 288.75,-221 259.11,-184.68 280,-158.81 249.75,-123 238.75,-109.98 223.51,-99.37 209.08,-91.3"/>
<polygon fill="midnightblue" stroke="midnightblue" points="210.72,-88.21 200.25,-86.6 207.43,-94.39 210.72,-88.21"/>
</g>
<!-- Node7 -->
<g id="node7" class="node">
<title>Node7</title>
<g id="a_node7"><a xlink:href="_transform_8hpp.html" target="_top" xlink:title="Transform component.">
<polygon fill="none" stroke="black" points="92.25,-123.5 92.25,-153.5 241.25,-153.5 241.25,-123.5 92.25,-123.5"/>
<text text-anchor="start" x="100.25" y="-141.5" font-family="Helvetica,sans-Serif" font-size="10.00">NekoEngine/ECS/Components</text>
<text text-anchor="middle" x="166.75" y="-130.5" font-family="Helvetica,sans-Serif" font-size="10.00">/Transform.hpp</text>
</a>
</g>
</g>
<!-- Node1&#45;&gt;Node7 -->
<g id="edge12" class="edge">
<title>Node1&#45;&gt;Node7</title>
<path fill="none" stroke="midnightblue" d="M326.91,-257.4C304.85,-248.54 277.22,-235.95 254.75,-221 228.89,-203.8 203.29,-178.97 186.43,-161.25"/>
<polygon fill="midnightblue" stroke="midnightblue" points="188.71,-158.57 179.32,-153.66 183.6,-163.35 188.71,-158.57"/>
</g>
<!-- Node9 -->
<g id="node9" class="node">
<title>Node9</title>
<g id="a_node9"><a xlink:href="_neko_exception_8hpp.html" target="_top" xlink:title="Contains the NekoEngine main exception type.">
<polygon fill="none" stroke="black" points="297.25,-190.5 297.25,-220.5 434.25,-220.5 434.25,-190.5 297.25,-190.5"/>
<text text-anchor="start" x="305.25" y="-208.5" font-family="Helvetica,sans-Serif" font-size="10.00">NekoEngine/NekoException</text>
<text text-anchor="middle" x="365.75" y="-197.5" font-family="Helvetica,sans-Serif" font-size="10.00">/NekoException.hpp</text>
</a>
</g>
</g>
<!-- Node1&#45;&gt;Node9 -->
<g id="edge10" class="edge">
<title>Node1&#45;&gt;Node9</title>
<path fill="none" stroke="midnightblue" d="M365.75,-257.4C365.75,-249.64 365.75,-239.81 365.75,-230.86"/>
<polygon fill="midnightblue" stroke="midnightblue" points="369.25,-230.58 365.75,-220.58 362.25,-230.58 369.25,-230.58"/>
</g>
<!-- Node11 -->
<g id="node11" class="node">
<title>Node11</title>
<g id="a_node11"><a xlink:title=" ">
<polygon fill="none" stroke="#bfbfbf" points="452.75,-196 452.75,-215 512.75,-215 512.75,-196 452.75,-196"/>
<text text-anchor="middle" x="482.75" y="-203" font-family="Helvetica,sans-Serif" font-size="10.00">filesystem</text>
</a>
</g>
</g>
<!-- Node1&#45;&gt;Node11 -->
<g id="edge13" class="edge">
<title>Node1&#45;&gt;Node11</title>
<path fill="none" stroke="midnightblue" d="M391.14,-257.4C411.12,-246.29 438.79,-230.92 458.48,-219.98"/>
<polygon fill="midnightblue" stroke="midnightblue" points="460.39,-222.92 467.44,-215.01 457,-216.8 460.39,-222.92"/>
</g>
<!-- Node12 -->
<g id="node12" class="node">
<title>Node12</title>
<g id="a_node12"><a xlink:title=" ">
<polygon fill="none" stroke="#bfbfbf" points="530.75,-196 530.75,-215 584.75,-215 584.75,-196 530.75,-196"/>
<text text-anchor="middle" x="557.75" y="-203" font-family="Helvetica,sans-Serif" font-size="10.00">iostream</text>
</a>
</g>
</g>
<!-- Node1&#45;&gt;Node12 -->
<g id="edge14" class="edge">
<title>Node1&#45;&gt;Node12</title>
<path fill="none" stroke="midnightblue" d="M412.11,-257.42C443.29,-247.73 485.22,-234.25 521.75,-221 523.65,-220.31 525.6,-219.58 527.56,-218.84"/>
<polygon fill="midnightblue" stroke="midnightblue" points="529.25,-221.94 537.28,-215.03 526.7,-215.42 529.25,-221.94"/>
</g>
<!-- Node13 -->
<g id="node13" class="node">
<title>Node13</title>
<g id="a_node13"><a xlink:title=" ">
<polygon fill="none" stroke="#bfbfbf" points="602.75,-196 602.75,-215 646.75,-215 646.75,-196 602.75,-196"/>
<text text-anchor="middle" x="624.75" y="-203" font-family="Helvetica,sans-Serif" font-size="10.00">cmath</text>
</a>
</g>
</g>
<!-- Node1&#45;&gt;Node13 -->
<g id="edge15" class="edge">
<title>Node1&#45;&gt;Node13</title>
<path fill="none" stroke="midnightblue" d="M432.15,-260.77C478.21,-252.37 540.59,-239.08 593.75,-221 595.41,-220.43 597.1,-219.81 598.8,-219.14"/>
<polygon fill="midnightblue" stroke="midnightblue" points="600.52,-222.21 608.29,-215.01 597.73,-215.79 600.52,-222.21"/>
</g>
<!-- Node2&#45;&gt;Node3 -->
<g id="edge2" class="edge">
<title>Node2&#45;&gt;Node3</title>
<path fill="none" stroke="midnightblue" d="M48.09,-190.37C31.98,-182.34 14.92,-170.52 5.75,-154 -0.94,-141.95 -2.41,-134.1 5.75,-123 26.1,-95.29 61.63,-82.37 94.14,-76.51"/>
<polygon fill="midnightblue" stroke="midnightblue" points="94.79,-79.95 104.11,-74.91 93.68,-73.04 94.79,-79.95"/>
</g>
<!-- Node2&#45;&gt;Node7 -->
<g id="edge6" class="edge">
<title>Node2&#45;&gt;Node7</title>
<path fill="none" stroke="midnightblue" d="M104.11,-190.4C115.01,-181.54 129.26,-169.96 141.41,-160.09"/>
<polygon fill="midnightblue" stroke="midnightblue" points="143.87,-162.6 149.42,-153.58 139.46,-157.17 143.87,-162.6"/>
</g>
<!-- Node8 -->
<g id="node8" class="node">
<title>Node8</title>
<g id="a_node8"><a xlink:title=" ">
<polygon fill="none" stroke="#bfbfbf" points="15.25,-129 15.25,-148 74.25,-148 74.25,-129 15.25,-129"/>
<text text-anchor="middle" x="44.75" y="-136" font-family="Helvetica,sans-Serif" font-size="10.00">functional</text>
</a>
</g>
</g>
<!-- Node2&#45;&gt;Node8 -->
<g id="edge8" class="edge">
<title>Node2&#45;&gt;Node8</title>
<path fill="none" stroke="midnightblue" d="M77.64,-190.4C71.28,-180.56 62.76,-167.38 55.99,-156.89"/>
<polygon fill="midnightblue" stroke="midnightblue" points="58.73,-154.69 50.37,-148.19 52.85,-158.49 58.73,-154.69"/>
</g>
<!-- Node4 -->
<g id="node4" class="node">
<title>Node4</title>
<g id="a_node4"><a xlink:href="_vector2_8hpp.html" target="_top" xlink:title="Contains Vector2 template class.">
<polygon fill="none" stroke="black" points="46.75,-0.5 46.75,-19.5 114.75,-19.5 114.75,-0.5 46.75,-0.5"/>
<text text-anchor="middle" x="80.75" y="-7.5" font-family="Helvetica,sans-Serif" font-size="10.00">Vector2.hpp</text>
</a>
</g>
</g>
<!-- Node3&#45;&gt;Node4 -->
<g id="edge3" class="edge">
<title>Node3&#45;&gt;Node4</title>
<path fill="none" stroke="midnightblue" d="M146.37,-56.4C132.84,-47.04 115.14,-34.79 101.53,-25.38"/>
<polygon fill="midnightblue" stroke="midnightblue" points="103.48,-22.47 93.26,-19.66 99.5,-28.23 103.48,-22.47"/>
</g>
<!-- Node5 -->
<g id="node5" class="node">
<title>Node5</title>
<g id="a_node5"><a xlink:href="_vector3_8hpp.html" target="_top" xlink:title="Contains Vector3 template class.">
<polygon fill="none" stroke="black" points="132.75,-0.5 132.75,-19.5 200.75,-19.5 200.75,-0.5 132.75,-0.5"/>
<text text-anchor="middle" x="166.75" y="-7.5" font-family="Helvetica,sans-Serif" font-size="10.00">Vector3.hpp</text>
</a>
</g>
</g>
<!-- Node3&#45;&gt;Node5 -->
<g id="edge4" class="edge">
<title>Node3&#45;&gt;Node5</title>
<path fill="none" stroke="midnightblue" d="M166.75,-56.4C166.75,-48.47 166.75,-38.46 166.75,-29.86"/>
<polygon fill="midnightblue" stroke="midnightblue" points="170.25,-29.66 166.75,-19.66 163.25,-29.66 170.25,-29.66"/>
</g>
<!-- Node6 -->
<g id="node6" class="node">
<title>Node6</title>
<g id="a_node6"><a xlink:href="_vector4_8hpp.html" target="_top" xlink:title="Contains Vector4 template class.">
<polygon fill="none" stroke="black" points="218.75,-0.5 218.75,-19.5 286.75,-19.5 286.75,-0.5 218.75,-0.5"/>
<text text-anchor="middle" x="252.75" y="-7.5" font-family="Helvetica,sans-Serif" font-size="10.00">Vector4.hpp</text>
</a>
</g>
</g>
<!-- Node3&#45;&gt;Node6 -->
<g id="edge5" class="edge">
<title>Node3&#45;&gt;Node6</title>
<path fill="none" stroke="midnightblue" d="M187.13,-56.4C200.66,-47.04 218.36,-34.79 231.97,-25.38"/>
<polygon fill="midnightblue" stroke="midnightblue" points="234,-28.23 240.24,-19.66 230.02,-22.47 234,-28.23"/>
</g>
<!-- Node7&#45;&gt;Node3 -->
<g id="edge7" class="edge">
<title>Node7&#45;&gt;Node3</title>
<path fill="none" stroke="midnightblue" d="M166.75,-123.4C166.75,-115.64 166.75,-105.81 166.75,-96.86"/>
<polygon fill="midnightblue" stroke="midnightblue" points="170.25,-96.58 166.75,-86.58 163.25,-96.58 170.25,-96.58"/>
</g>
<!-- Node10 -->
<g id="node10" class="node">
<title>Node10</title>
<g id="a_node10"><a xlink:title=" ">
<polygon fill="none" stroke="#bfbfbf" points="345.25,-129 345.25,-148 386.25,-148 386.25,-129 345.25,-129"/>
<text text-anchor="middle" x="365.75" y="-136" font-family="Helvetica,sans-Serif" font-size="10.00">string</text>
</a>
</g>
</g>
<!-- Node9&#45;&gt;Node10 -->
<g id="edge11" class="edge">
<title>Node9&#45;&gt;Node10</title>
<path fill="none" stroke="midnightblue" d="M365.75,-190.4C365.75,-181.06 365.75,-168.71 365.75,-158.52"/>
<polygon fill="midnightblue" stroke="midnightblue" points="369.25,-158.19 365.75,-148.19 362.25,-158.19 369.25,-158.19"/>
</g>
</g>
</svg>
