<?xml version="1.0" encoding="UTF-8" standalone="no"?>
<!DOCTYPE svg PUBLIC "-//W3C//DTD SVG 1.1//EN"
 "http://www.w3.org/Graphics/SVG/1.1/DTD/svg11.dtd">
<!-- Generated by graphviz version 2.49.3 (20211027.1501)
 -->
<!-- Title: NekoEngine/include/NekoEngine/ECS/Components/Patterns.hpp Pages: 1 -->
<svg width="331pt" height="240pt"
 viewBox="0.00 0.00 330.50 240.00" xmlns="http://www.w3.org/2000/svg" xmlns:xlink="http://www.w3.org/1999/xlink">
<g id="graph0" class="graph" transform="scale(1 1) rotate(0) translate(4 236)">
<title>NekoEngine/include/NekoEngine/ECS/Components/Patterns.hpp</title>
<!-- Node1 -->
<g id="node1" class="node">
<title>Node1</title>
<g id="a_node1"><a xlink:title="Patterns component.">
<polygon fill="#bfbfbf" stroke="black" points="95,-190.5 95,-231.5 247,-231.5 247,-190.5 95,-190.5"/>
<text text-anchor="start" x="103" y="-219.5" font-family="Helvetica,sans-Serif" font-size="10.00">NekoEngine/include</text>
<text text-anchor="start" x="103" y="-208.5" font-family="Helvetica,sans-Serif" font-size="10.00">/NekoEngine/ECS/Components</text>
<text text-anchor="middle" x="171" y="-197.5" font-family="Helvetica,sans-Serif" font-size="10.00">/Patterns.hpp</text>
</a>
</g>
</g>
<!-- Node2 -->
<g id="node2" class="node">
<title>Node2</title>
<g id="a_node2"><a xlink:href="_vector_8hpp.html" target="_top" xlink:title="Contains all headers for all Vector types.">
<polygon fill="none" stroke="black" points="57.5,-56.5 57.5,-86.5 182.5,-86.5 182.5,-56.5 57.5,-56.5"/>
<text text-anchor="start" x="65.5" y="-74.5" font-family="Helvetica,sans-Serif" font-size="10.00">NekoEngine/Math/Vector</text>
<text text-anchor="middle" x="120" y="-63.5" font-family="Helvetica,sans-Serif" font-size="10.00">/Vector.hpp</text>
</a>
</g>
</g>
<!-- Node1&#45;&gt;Node2 -->
<g id="edge1" class="edge">
<title>Node1&#45;&gt;Node2</title>
<path fill="none" stroke="midnightblue" d="M125.63,-190.32C110.9,-181.49 96.24,-169.5 88,-154 77.79,-134.8 88.99,-111.61 100.85,-94.88"/>
<polygon fill="midnightblue" stroke="midnightblue" points="103.74,-96.86 107.01,-86.78 98.17,-92.62 103.74,-96.86"/>
</g>
<!-- Node6 -->
<g id="node6" class="node">
<title>Node6</title>
<g id="a_node6"><a xlink:href="_transform_8hpp.html" target="_top" xlink:title="Transform component.">
<polygon fill="none" stroke="black" points="96.5,-123.5 96.5,-153.5 245.5,-153.5 245.5,-123.5 96.5,-123.5"/>
<text text-anchor="start" x="104.5" y="-141.5" font-family="Helvetica,sans-Serif" font-size="10.00">NekoEngine/ECS/Components</text>
<text text-anchor="middle" x="171" y="-130.5" font-family="Helvetica,sans-Serif" font-size="10.00">/Transform.hpp</text>
</a>
</g>
</g>
<!-- Node1&#45;&gt;Node6 -->
<g id="edge5" class="edge">
<title>Node1&#45;&gt;Node6</title>
<path fill="none" stroke="midnightblue" d="M171,-190.36C171,-182.23 171,-172.7 171,-164.11"/>
<polygon fill="midnightblue" stroke="midnightblue" points="174.5,-163.89 171,-153.89 167.5,-163.89 174.5,-163.89"/>
</g>
<!-- Node7 -->
<g id="node7" class="node">
<title>Node7</title>
<g id="a_node7"><a xlink:title=" ">
<polygon fill="none" stroke="#bfbfbf" points="263.5,-129 263.5,-148 322.5,-148 322.5,-129 263.5,-129"/>
<text text-anchor="middle" x="293" y="-136" font-family="Helvetica,sans-Serif" font-size="10.00">functional</text>
</a>
</g>
</g>
<!-- Node1&#45;&gt;Node7 -->
<g id="edge7" class="edge">
<title>Node1&#45;&gt;Node7</title>
<path fill="none" stroke="midnightblue" d="M204.98,-190.36C225.4,-178.57 250.87,-163.85 269.15,-153.28"/>
<polygon fill="midnightblue" stroke="midnightblue" points="271.08,-156.21 277.99,-148.17 267.58,-150.15 271.08,-156.21"/>
</g>
<!-- Node3 -->
<g id="node3" class="node">
<title>Node3</title>
<g id="a_node3"><a xlink:href="_vector2_8hpp.html" target="_top" xlink:title="Contains Vector2 template class.">
<polygon fill="none" stroke="black" points="0,-0.5 0,-19.5 68,-19.5 68,-0.5 0,-0.5"/>
<text text-anchor="middle" x="34" y="-7.5" font-family="Helvetica,sans-Serif" font-size="10.00">Vector2.hpp</text>
</a>
</g>
</g>
<!-- Node2&#45;&gt;Node3 -->
<g id="edge2" class="edge">
<title>Node2&#45;&gt;Node3</title>
<path fill="none" stroke="midnightblue" d="M99.62,-56.4C86.09,-47.04 68.39,-34.79 54.78,-25.38"/>
<polygon fill="midnightblue" stroke="midnightblue" points="56.73,-22.47 46.51,-19.66 52.75,-28.23 56.73,-22.47"/>
</g>
<!-- Node4 -->
<g id="node4" class="node">
<title>Node4</title>
<g id="a_node4"><a xlink:href="_vector3_8hpp.html" target="_top" xlink:title="Contains Vector3 template class.">
<polygon fill="none" stroke="black" points="86,-0.5 86,-19.5 154,-19.5 154,-0.5 86,-0.5"/>
<text text-anchor="middle" x="120" y="-7.5" font-family="Helvetica,sans-Serif" font-size="10.00">Vector3.hpp</text>
</a>
</g>
</g>
<!-- Node2&#45;&gt;Node4 -->
<g id="edge3" class="edge">
<title>Node2&#45;&gt;Node4</title>
<path fill="none" stroke="midnightblue" d="M120,-56.4C120,-48.47 120,-38.46 120,-29.86"/>
<polygon fill="midnightblue" stroke="midnightblue" points="123.5,-29.66 120,-19.66 116.5,-29.66 123.5,-29.66"/>
</g>
<!-- Node5 -->
<g id="node5" class="node">
<title>Node5</title>
<g id="a_node5"><a xlink:href="_vector4_8hpp.html" target="_top" xlink:title="Contains Vector4 template class.">
<polygon fill="none" stroke="black" points="172,-0.5 172,-19.5 240,-19.5 240,-0.5 172,-0.5"/>
<text text-anchor="middle" x="206" y="-7.5" font-family="Helvetica,sans-Serif" font-size="10.00">Vector4.hpp</text>
</a>
</g>
</g>
<!-- Node2&#45;&gt;Node5 -->
<g id="edge4" class="edge">
<title>Node2&#45;&gt;Node5</title>
<path fill="none" stroke="midnightblue" d="M140.38,-56.4C153.91,-47.04 171.61,-34.79 185.22,-25.38"/>
<polygon fill="midnightblue" stroke="midnightblue" points="187.25,-28.23 193.49,-19.66 183.27,-22.47 187.25,-28.23"/>
</g>
<!-- Node6&#45;&gt;Node2 -->
<g id="edge6" class="edge">
<title>Node6&#45;&gt;Node2</title>
<path fill="none" stroke="midnightblue" d="M159.93,-123.4C153.32,-114.96 144.77,-104.07 137.28,-94.52"/>
<polygon fill="midnightblue" stroke="midnightblue" points="139.97,-92.28 131.04,-86.58 134.46,-96.6 139.97,-92.28"/>
</g>
</g>
</svg>
