<?xml version="1.0" encoding="UTF-8" standalone="no"?>
<!DOCTYPE svg PUBLIC "-//W3C//DTD SVG 1.1//EN"
 "http://www.w3.org/Graphics/SVG/1.1/DTD/svg11.dtd">
<!-- Generated by graphviz version 2.49.3 (20211027.1501)
 -->
<!-- Title: NekoEngine/include/NekoEngine/ECS/Systems/PatternSystem.hpp Pages: 1 -->
<svg width="1401pt" height="407pt"
 viewBox="0.00 0.00 1401.00 407.00" xmlns="http://www.w3.org/2000/svg" xmlns:xlink="http://www.w3.org/1999/xlink">
<g id="graph0" class="graph" transform="scale(1 1) rotate(0) translate(4 403)">
<title>NekoEngine/include/NekoEngine/ECS/Systems/PatternSystem.hpp</title>
<!-- Node1 -->
<g id="node1" class="node">
<title>Node1</title>
<g id="a_node1"><a xlink:title="Physics System class.">
<polygon fill="#bfbfbf" stroke="black" points="159.5,-357.5 159.5,-398.5 295.5,-398.5 295.5,-357.5 159.5,-357.5"/>
<text text-anchor="start" x="167.5" y="-386.5" font-family="Helvetica,sans-Serif" font-size="10.00">NekoEngine/include</text>
<text text-anchor="start" x="167.5" y="-375.5" font-family="Helvetica,sans-Serif" font-size="10.00">/NekoEngine/ECS/Systems</text>
<text text-anchor="middle" x="227.5" y="-364.5" font-family="Helvetica,sans-Serif" font-size="10.00">/PatternSystem.hpp</text>
</a>
</g>
</g>
<!-- Node2 -->
<g id="node2" class="node">
<title>Node2</title>
<g id="a_node2"><a xlink:href="_systems_8hpp.html" target="_top" xlink:title="Systems.">
<polygon fill="none" stroke="black" points="342.5,-279.5 342.5,-320.5 478.5,-320.5 478.5,-279.5 342.5,-279.5"/>
<text text-anchor="start" x="350.5" y="-308.5" font-family="Helvetica,sans-Serif" font-size="10.00">NekoEngine/include</text>
<text text-anchor="start" x="350.5" y="-297.5" font-family="Helvetica,sans-Serif" font-size="10.00">/NekoEngine/ECS/Systems</text>
<text text-anchor="middle" x="410.5" y="-286.5" font-family="Helvetica,sans-Serif" font-size="10.00">/Systems.hpp</text>
</a>
</g>
</g>
<!-- Node1&#45;&gt;Node2 -->
<g id="edge1" class="edge">
<title>Node1&#45;&gt;Node2</title>
<path fill="none" stroke="midnightblue" d="M284.16,-353.47C309.63,-342.89 339.33,-330.56 363.53,-320.51"/>
<polygon fill="midnightblue" stroke="midnightblue" points="282.52,-350.36 274.63,-357.43 285.2,-356.82 282.52,-350.36"/>
</g>
<!-- Node17 -->
<g id="node17" class="node">
<title>Node17</title>
<g id="a_node17"><a xlink:href="_pattern_system_8cpp.html" target="_top" xlink:title="Physics System class implementation.">
<polygon fill="none" stroke="black" points="0,-145.5 0,-175.5 143,-175.5 143,-145.5 0,-145.5"/>
<text text-anchor="start" x="8" y="-163.5" font-family="Helvetica,sans-Serif" font-size="10.00">NekoEngine/src/ECS</text>
<text text-anchor="middle" x="71.5" y="-152.5" font-family="Helvetica,sans-Serif" font-size="10.00">/Systems/PatternSystem.cpp</text>
</a>
</g>
</g>
<!-- Node1&#45;&gt;Node17 -->
<g id="edge26" class="edge">
<title>Node1&#45;&gt;Node17</title>
<path fill="none" stroke="midnightblue" d="M207.5,-349.38C173.86,-302.91 107.14,-210.74 81.69,-175.58"/>
<polygon fill="midnightblue" stroke="midnightblue" points="204.68,-351.45 213.38,-357.5 210.35,-347.34 204.68,-351.45"/>
</g>
<!-- Node3 -->
<g id="node3" class="node">
<title>Node3</title>
<g id="a_node3"><a xlink:href="_neko_engine_8hpp.html" target="_top" xlink:title=" ">
<polygon fill="none" stroke="black" points="257.5,-212.5 257.5,-242.5 403.5,-242.5 403.5,-212.5 257.5,-212.5"/>
<text text-anchor="start" x="265.5" y="-230.5" font-family="Helvetica,sans-Serif" font-size="10.00">NekoEngine/include</text>
<text text-anchor="middle" x="330.5" y="-219.5" font-family="Helvetica,sans-Serif" font-size="10.00">/NekoEngine/NekoEngine.hpp</text>
</a>
</g>
</g>
<!-- Node2&#45;&gt;Node3 -->
<g id="edge2" class="edge">
<title>Node2&#45;&gt;Node3</title>
<path fill="none" stroke="midnightblue" d="M380.49,-272.55C368.98,-262.41 356.29,-251.23 346.58,-242.67"/>
<polygon fill="midnightblue" stroke="midnightblue" points="378.4,-275.38 388.22,-279.36 383.03,-270.12 378.4,-275.38"/>
</g>
<!-- Node18 -->
<g id="node18" class="node">
<title>Node18</title>
<g id="a_node18"><a xlink:href="_timer_system_8cpp.html" target="_top" xlink:title=" ">
<polygon fill="none" stroke="black" points="422,-212.5 422,-242.5 559,-242.5 559,-212.5 422,-212.5"/>
<text text-anchor="start" x="430" y="-230.5" font-family="Helvetica,sans-Serif" font-size="10.00">NekoEngine/src/ECS</text>
<text text-anchor="middle" x="490.5" y="-219.5" font-family="Helvetica,sans-Serif" font-size="10.00">/Systems/TimerSystem.cpp</text>
</a>
</g>
</g>
<!-- Node2&#45;&gt;Node18 -->
<g id="edge24" class="edge">
<title>Node2&#45;&gt;Node18</title>
<path fill="none" stroke="midnightblue" d="M440.51,-272.55C452.02,-262.41 464.71,-251.23 474.42,-242.67"/>
<polygon fill="midnightblue" stroke="midnightblue" points="437.97,-270.12 432.78,-279.36 442.6,-275.38 437.97,-270.12"/>
</g>
<!-- Node19 -->
<g id="node19" class="node">
<title>Node19</title>
<g id="a_node19"><a xlink:href="_scene_8cpp.html" target="_top" xlink:title="For the love of god.">
<polygon fill="none" stroke="black" points="577.5,-212.5 577.5,-242.5 699.5,-242.5 699.5,-212.5 577.5,-212.5"/>
<text text-anchor="start" x="585.5" y="-230.5" font-family="Helvetica,sans-Serif" font-size="10.00">NekoEngine/src/Scenes</text>
<text text-anchor="middle" x="638.5" y="-219.5" font-family="Helvetica,sans-Serif" font-size="10.00">/Scene.cpp</text>
</a>
</g>
</g>
<!-- Node2&#45;&gt;Node19 -->
<g id="edge25" class="edge">
<title>Node2&#45;&gt;Node19</title>
<path fill="none" stroke="midnightblue" d="M483.65,-276.38C519.55,-265.28 561.67,-252.26 592.91,-242.6"/>
<polygon fill="midnightblue" stroke="midnightblue" points="482.23,-273.16 473.71,-279.46 484.3,-279.85 482.23,-273.16"/>
</g>
<!-- Node4 -->
<g id="node4" class="node">
<title>Node4</title>
<g id="a_node4"><a xlink:href="_client_game_8hpp.html" target="_top" xlink:title=" ">
<polygon fill="none" stroke="black" points="89,-78.5 89,-97.5 236,-97.5 236,-78.5 89,-78.5"/>
<text text-anchor="middle" x="162.5" y="-85.5" font-family="Helvetica,sans-Serif" font-size="10.00">Client/include/ClientGame.hpp</text>
</a>
</g>
</g>
<!-- Node3&#45;&gt;Node4 -->
<g id="edge3" class="edge">
<title>Node3&#45;&gt;Node4</title>
<path fill="none" stroke="midnightblue" d="M247.6,-210.38C226.73,-202.89 205.91,-191.96 190.5,-176 169.01,-153.74 164.01,-114.91 162.85,-97.67"/>
<polygon fill="midnightblue" stroke="midnightblue" points="246.58,-213.72 257.17,-213.58 248.8,-207.09 246.58,-213.72"/>
</g>
<!-- Node6 -->
<g id="node6" class="node">
<title>Node6</title>
<g id="a_node6"><a xlink:href="main_8cpp.html" target="_top" xlink:title="Entrypoint.">
<polygon fill="none" stroke="black" points="329.5,-6 329.5,-25 429.5,-25 429.5,-6 329.5,-6"/>
<text text-anchor="middle" x="379.5" y="-13" font-family="Helvetica,sans-Serif" font-size="10.00">Client/src/main.cpp</text>
</a>
</g>
</g>
<!-- Node3&#45;&gt;Node6 -->
<g id="edge22" class="edge">
<title>Node3&#45;&gt;Node6</title>
<path fill="none" stroke="midnightblue" d="M355.94,-205.39C364.73,-197.01 374,-186.79 380.5,-176 396.6,-149.27 396.78,-139.85 401.5,-109 404.32,-90.55 405.31,-85.27 401.5,-67 398.26,-51.46 389.97,-34.84 384.54,-25.07"/>
<polygon fill="midnightblue" stroke="midnightblue" points="353.44,-202.93 348.41,-212.25 358.16,-208.1 353.44,-202.93"/>
</g>
<!-- Node7 -->
<g id="node7" class="node">
<title>Node7</title>
<g id="a_node7"><a xlink:href="_custom_client_8hpp.html" target="_top" xlink:title=" ">
<polygon fill="none" stroke="black" points="450,-151 450,-170 605,-170 605,-151 450,-151"/>
<text text-anchor="middle" x="527.5" y="-158" font-family="Helvetica,sans-Serif" font-size="10.00">Client/include/CustomClient.hpp</text>
</a>
</g>
</g>
<!-- Node3&#45;&gt;Node7 -->
<g id="edge6" class="edge">
<title>Node3&#45;&gt;Node7</title>
<path fill="none" stroke="midnightblue" d="M383.21,-209.11C421.54,-196.46 471.76,-179.89 501.72,-170.01"/>
<polygon fill="midnightblue" stroke="midnightblue" points="381.65,-205.94 373.25,-212.4 383.84,-212.59 381.65,-205.94"/>
</g>
<!-- Node15 -->
<g id="node15" class="node">
<title>Node15</title>
<g id="a_node15"><a xlink:href="_player_system_8hpp.html" target="_top" xlink:title=" ">
<polygon fill="none" stroke="black" points="199.5,-151 199.5,-170 355.5,-170 355.5,-151 199.5,-151"/>
<text text-anchor="middle" x="277.5" y="-158" font-family="Helvetica,sans-Serif" font-size="10.00">Client/include/PlayerSystem.hpp</text>
</a>
</g>
</g>
<!-- Node3&#45;&gt;Node15 -->
<g id="edge18" class="edge">
<title>Node3&#45;&gt;Node15</title>
<path fill="none" stroke="midnightblue" d="M312.41,-204.32C302.86,-192.6 291.67,-178.88 284.59,-170.19"/>
<polygon fill="midnightblue" stroke="midnightblue" points="309.97,-206.86 319,-212.4 315.39,-202.43 309.97,-206.86"/>
</g>
<!-- Node16 -->
<g id="node16" class="node">
<title>Node16</title>
<g id="a_node16"><a xlink:href="_player_system_8cpp.html" target="_top" xlink:title=" ">
<polygon fill="none" stroke="black" points="254,-78.5 254,-97.5 393,-97.5 393,-78.5 254,-78.5"/>
<text text-anchor="middle" x="323.5" y="-85.5" font-family="Helvetica,sans-Serif" font-size="10.00">Client/src/PlayerSystem.cpp</text>
</a>
</g>
</g>
<!-- Node3&#45;&gt;Node16 -->
<g id="edge21" class="edge">
<title>Node3&#45;&gt;Node16</title>
<path fill="none" stroke="midnightblue" d="M349.65,-204.22C355.62,-195.92 361.43,-186.05 364.5,-176 368.52,-162.82 368.78,-158.1 364.5,-145 358.28,-125.99 342.89,-108.09 332.83,-97.85"/>
<polygon fill="midnightblue" stroke="midnightblue" points="346.8,-202.19 343.49,-212.25 352.35,-206.45 346.8,-202.19"/>
</g>
<!-- Node3&#45;&gt;Node17 -->
<g id="edge23" class="edge">
<title>Node3&#45;&gt;Node17</title>
<path fill="none" stroke="midnightblue" d="M264.69,-209.98C222.39,-199.37 168.01,-185.72 127.73,-175.61"/>
<polygon fill="midnightblue" stroke="midnightblue" points="264.07,-213.44 274.62,-212.48 265.77,-206.65 264.07,-213.44"/>
</g>
<!-- Node5 -->
<g id="node5" class="node">
<title>Node5</title>
<g id="a_node5"><a xlink:href="_client_game_8cpp.html" target="_top" xlink:title=" ">
<polygon fill="none" stroke="black" points="97.5,-6 97.5,-25 227.5,-25 227.5,-6 97.5,-6"/>
<text text-anchor="middle" x="162.5" y="-13" font-family="Helvetica,sans-Serif" font-size="10.00">Client/src/ClientGame.cpp</text>
</a>
</g>
</g>
<!-- Node4&#45;&gt;Node5 -->
<g id="edge4" class="edge">
<title>Node4&#45;&gt;Node5</title>
<path fill="none" stroke="midnightblue" d="M162.5,-67.94C162.5,-54.03 162.5,-35.82 162.5,-25.22"/>
<polygon fill="midnightblue" stroke="midnightblue" points="159,-68.36 162.5,-78.36 166,-68.36 159,-68.36"/>
</g>
<!-- Node4&#45;&gt;Node6 -->
<g id="edge5" class="edge">
<title>Node4&#45;&gt;Node6</title>
<path fill="none" stroke="midnightblue" d="M198.3,-75.37C241.9,-61.21 314.48,-37.62 353.23,-25.03"/>
<polygon fill="midnightblue" stroke="midnightblue" points="197.1,-72.08 188.68,-78.5 199.27,-78.73 197.1,-72.08"/>
</g>
<!-- Node7&#45;&gt;Node6 -->
<g id="edge7" class="edge">
<title>Node7&#45;&gt;Node6</title>
<path fill="none" stroke="midnightblue" d="M511.89,-143.28C493.79,-124.59 462.93,-93.12 435.5,-67 419.76,-52.01 400.89,-35.23 389.56,-25.28"/>
<polygon fill="midnightblue" stroke="midnightblue" points="509.56,-145.91 519.03,-150.67 514.6,-141.05 509.56,-145.91"/>
</g>
<!-- Node8 -->
<g id="node8" class="node">
<title>Node8</title>
<g id="a_node8"><a xlink:href="_window_8hpp.html" target="_top" xlink:title="Contains the NekoEngine Window class wrapper.">
<polygon fill="none" stroke="black" points="602.5,-67.5 602.5,-108.5 716.5,-108.5 716.5,-67.5 602.5,-67.5"/>
<text text-anchor="start" x="610.5" y="-96.5" font-family="Helvetica,sans-Serif" font-size="10.00">NekoEngine/include</text>
<text text-anchor="start" x="610.5" y="-85.5" font-family="Helvetica,sans-Serif" font-size="10.00">/NekoEngine/Graphics</text>
<text text-anchor="middle" x="659.5" y="-74.5" font-family="Helvetica,sans-Serif" font-size="10.00">/Window.hpp</text>
</a>
</g>
</g>
<!-- Node7&#45;&gt;Node8 -->
<g id="edge8" class="edge">
<title>Node7&#45;&gt;Node8</title>
<path fill="none" stroke="midnightblue" d="M552.45,-146.17C572.31,-135.57 600.39,-120.57 622.81,-108.6"/>
<polygon fill="midnightblue" stroke="midnightblue" points="550.59,-143.2 543.42,-151 553.89,-149.37 550.59,-143.2"/>
</g>
<!-- Node14 -->
<g id="node14" class="node">
<title>Node14</title>
<g id="a_node14"><a xlink:href="_window_8cpp.html" target="_top" xlink:title="Contains the NekoEngine Window class implementation.">
<polygon fill="none" stroke="black" points="447.5,-0.5 447.5,-30.5 575.5,-30.5 575.5,-0.5 447.5,-0.5"/>
<text text-anchor="start" x="455.5" y="-18.5" font-family="Helvetica,sans-Serif" font-size="10.00">NekoEngine/src/Graphics</text>
<text text-anchor="middle" x="511.5" y="-7.5" font-family="Helvetica,sans-Serif" font-size="10.00">/Window.cpp</text>
</a>
</g>
</g>
<!-- Node7&#45;&gt;Node14 -->
<g id="edge17" class="edge">
<title>Node7&#45;&gt;Node14</title>
<path fill="none" stroke="midnightblue" d="M525.43,-141.01C522.2,-112.13 516.03,-56.96 513.11,-30.86"/>
<polygon fill="midnightblue" stroke="midnightblue" points="521.96,-141.43 526.55,-150.98 528.91,-140.66 521.96,-141.43"/>
</g>
<!-- Node8&#45;&gt;Node3 -->
<g id="edge10" class="edge">
<title>Node8&#45;&gt;Node3</title>
<path fill="none" stroke="midnightblue" d="M651.79,-118.21C645.13,-137.61 633.51,-162 614.5,-176 614.23,-176.2 487.61,-198.66 403.55,-213.56"/>
<polygon fill="midnightblue" stroke="midnightblue" points="655.15,-119.19 654.84,-108.6 648.48,-117.07 655.15,-119.19"/>
</g>
<!-- Node8&#45;&gt;Node6 -->
<g id="edge9" class="edge">
<title>Node8&#45;&gt;Node6</title>
<path fill="none" stroke="midnightblue" d="M592.25,-70.07C535.85,-55.87 457.63,-36.17 413.45,-25.05"/>
<polygon fill="midnightblue" stroke="midnightblue" points="591.61,-73.52 602.16,-72.56 593.32,-66.73 591.61,-73.52"/>
</g>
<!-- Node9 -->
<g id="node9" class="node">
<title>Node9</title>
<g id="a_node9"><a xlink:href="_background_system_8cpp.html" target="_top" xlink:title=" ">
<polygon fill="none" stroke="black" points="743.5,-0.5 743.5,-30.5 907.5,-30.5 907.5,-0.5 743.5,-0.5"/>
<text text-anchor="start" x="751.5" y="-18.5" font-family="Helvetica,sans-Serif" font-size="10.00">NekoEngine/src/ECS</text>
<text text-anchor="middle" x="825.5" y="-7.5" font-family="Helvetica,sans-Serif" font-size="10.00">/Systems/BackgroundSystem.cpp</text>
</a>
</g>
</g>
<!-- Node8&#45;&gt;Node9 -->
<g id="edge11" class="edge">
<title>Node8&#45;&gt;Node9</title>
<path fill="none" stroke="midnightblue" d="M715,-63.43C740.66,-52.53 770.28,-39.95 792.4,-30.56"/>
<polygon fill="midnightblue" stroke="midnightblue" points="713.58,-60.23 705.74,-67.36 716.31,-66.67 713.58,-60.23"/>
</g>
<!-- Node10 -->
<g id="node10" class="node">
<title>Node10</title>
<g id="a_node10"><a xlink:href="_mouse_system_8cpp.html" target="_top" xlink:title=" ">
<polygon fill="none" stroke="black" points="926,-0.5 926,-30.5 1067,-30.5 1067,-0.5 926,-0.5"/>
<text text-anchor="start" x="934" y="-18.5" font-family="Helvetica,sans-Serif" font-size="10.00">NekoEngine/src/ECS</text>
<text text-anchor="middle" x="996.5" y="-7.5" font-family="Helvetica,sans-Serif" font-size="10.00">/Systems/MouseSystem.cpp</text>
</a>
</g>
</g>
<!-- Node8&#45;&gt;Node10 -->
<g id="edge12" class="edge">
<title>Node8&#45;&gt;Node10</title>
<path fill="none" stroke="midnightblue" d="M726.61,-72.96C785.48,-60.65 870.63,-42.83 929.48,-30.52"/>
<polygon fill="midnightblue" stroke="midnightblue" points="725.74,-69.57 716.67,-75.04 727.17,-76.42 725.74,-69.57"/>
</g>
<!-- Node11 -->
<g id="node11" class="node">
<title>Node11</title>
<g id="a_node11"><a xlink:href="_parallax_system_8cpp.html" target="_top" xlink:title=" ">
<polygon fill="none" stroke="black" points="1085.5,-0.5 1085.5,-30.5 1231.5,-30.5 1231.5,-0.5 1085.5,-0.5"/>
<text text-anchor="start" x="1093.5" y="-18.5" font-family="Helvetica,sans-Serif" font-size="10.00">NekoEngine/src/ECS</text>
<text text-anchor="middle" x="1158.5" y="-7.5" font-family="Helvetica,sans-Serif" font-size="10.00">/Systems/ParallaxSystem.cpp</text>
</a>
</g>
</g>
<!-- Node8&#45;&gt;Node11 -->
<g id="edge13" class="edge">
<title>Node8&#45;&gt;Node11</title>
<path fill="none" stroke="midnightblue" d="M726.6,-78.86C809.1,-68.65 953.34,-50.15 1076.5,-31 1079.36,-30.56 1082.27,-30.09 1085.21,-29.62"/>
<polygon fill="midnightblue" stroke="midnightblue" points="726.1,-75.4 716.6,-80.09 726.96,-82.34 726.1,-75.4"/>
</g>
<!-- Node12 -->
<g id="node12" class="node">
<title>Node12</title>
<g id="a_node12"><a xlink:href="_render_system_8cpp.html" target="_top" xlink:title="Render System class implementation.">
<polygon fill="none" stroke="black" points="1250,-0.5 1250,-30.5 1393,-30.5 1393,-0.5 1250,-0.5"/>
<text text-anchor="start" x="1258" y="-18.5" font-family="Helvetica,sans-Serif" font-size="10.00">NekoEngine/src/ECS</text>
<text text-anchor="middle" x="1321.5" y="-7.5" font-family="Helvetica,sans-Serif" font-size="10.00">/Systems/RenderSystem.cpp</text>
</a>
</g>
</g>
<!-- Node8&#45;&gt;Node12 -->
<g id="edge14" class="edge">
<title>Node8&#45;&gt;Node12</title>
<path fill="none" stroke="midnightblue" d="M726.72,-82.3C835.15,-74.32 1055.23,-56.47 1240.5,-31 1243.61,-30.57 1246.79,-30.11 1250,-29.62"/>
<polygon fill="midnightblue" stroke="midnightblue" points="726.3,-78.82 716.58,-83.04 726.81,-85.8 726.3,-78.82"/>
</g>
<!-- Node13 -->
<g id="node13" class="node">
<title>Node13</title>
<g id="a_node13"><a xlink:href="_text_system_8cpp.html" target="_top" xlink:title=" ">
<polygon fill="none" stroke="black" points="594,-0.5 594,-30.5 725,-30.5 725,-0.5 594,-0.5"/>
<text text-anchor="start" x="602" y="-18.5" font-family="Helvetica,sans-Serif" font-size="10.00">NekoEngine/src/ECS</text>
<text text-anchor="middle" x="659.5" y="-7.5" font-family="Helvetica,sans-Serif" font-size="10.00">/Systems/TextSystem.cpp</text>
</a>
</g>
</g>
<!-- Node8&#45;&gt;Node13 -->
<g id="edge15" class="edge">
<title>Node8&#45;&gt;Node13</title>
<path fill="none" stroke="midnightblue" d="M659.5,-57.08C659.5,-48.01 659.5,-38.45 659.5,-30.89"/>
<polygon fill="midnightblue" stroke="midnightblue" points="656,-57.36 659.5,-67.36 663,-57.36 656,-57.36"/>
</g>
<!-- Node8&#45;&gt;Node14 -->
<g id="edge16" class="edge">
<title>Node8&#45;&gt;Node14</title>
<path fill="none" stroke="midnightblue" d="M609.15,-63.02C586.56,-52.25 560.68,-39.93 541.25,-30.67"/>
<polygon fill="midnightblue" stroke="midnightblue" points="607.74,-66.22 618.27,-67.36 610.75,-59.9 607.74,-66.22"/>
</g>
<!-- Node15&#45;&gt;Node4 -->
<g id="edge19" class="edge">
<title>Node15&#45;&gt;Node4</title>
<path fill="none" stroke="midnightblue" d="M254.86,-145.62C231.65,-131.39 196.26,-109.7 176.72,-97.72"/>
<polygon fill="midnightblue" stroke="midnightblue" points="253.04,-148.61 263.4,-150.86 256.7,-142.64 253.04,-148.61"/>
</g>
<!-- Node15&#45;&gt;Node16 -->
<g id="edge20" class="edge">
<title>Node15&#45;&gt;Node16</title>
<path fill="none" stroke="midnightblue" d="M288.86,-142.09C298.05,-128 310.62,-108.74 317.81,-97.72"/>
<polygon fill="midnightblue" stroke="midnightblue" points="285.67,-140.57 283.14,-150.86 291.54,-144.39 285.67,-140.57"/>
</g>
</g>
</svg>
