<?xml version="1.0" encoding="UTF-8" standalone="no"?>
<!DOCTYPE svg PUBLIC "-//W3C//DTD SVG 1.1//EN"
 "http://www.w3.org/Graphics/SVG/1.1/DTD/svg11.dtd">
<!-- Generated by graphviz version 2.49.3 (20211027.1501)
 -->
<!-- Title: Client/include/PlayerSystem.hpp Pages: 1 -->
<svg width="3569pt" height="542pt"
 viewBox="0.00 0.00 3569.33 542.00" xmlns="http://www.w3.org/2000/svg" xmlns:xlink="http://www.w3.org/1999/xlink">
<g id="graph0" class="graph" transform="scale(1 1) rotate(0) translate(4 538)">
<title>Client/include/PlayerSystem.hpp</title>
<!-- Node1 -->
<g id="node1" class="node">
<title>Node1</title>
<g id="a_node1"><a xlink:title=" ">
<polygon fill="#bfbfbf" stroke="black" points="392.33,-514.5 392.33,-533.5 548.33,-533.5 548.33,-514.5 392.33,-514.5"/>
<text text-anchor="middle" x="470.33" y="-521.5" font-family="Helvetica,sans-Serif" font-size="10.00">Client/include/PlayerSystem.hpp</text>
</a>
</g>
</g>
<!-- Node2 -->
<g id="node2" class="node">
<title>Node2</title>
<g id="a_node2"><a xlink:href="_neko_engine_8hpp.html" target="_top" xlink:title=" ">
<polygon fill="none" stroke="black" points="1270.83,-458.5 1270.83,-477.5 1413.83,-477.5 1413.83,-458.5 1270.83,-458.5"/>
<text text-anchor="middle" x="1342.33" y="-465.5" font-family="Helvetica,sans-Serif" font-size="10.00">NekoEngine/NekoEngine.hpp</text>
</a>
</g>
</g>
<!-- Node1&#45;&gt;Node2 -->
<g id="edge1" class="edge">
<title>Node1&#45;&gt;Node2</title>
<path fill="none" stroke="midnightblue" d="M548.48,-518.16C712.96,-507.97 1093.46,-484.41 1260.83,-474.05"/>
<polygon fill="midnightblue" stroke="midnightblue" points="1261.05,-477.54 1270.82,-473.43 1260.62,-470.55 1261.05,-477.54"/>
</g>
<!-- Node77 -->
<g id="node50" class="node">
<title>Node77</title>
<g id="a_node50"><a xlink:href="_controller_8hpp.html" target="_top" xlink:title=" ">
<polygon fill="none" stroke="black" points="368.33,-458.5 368.33,-477.5 444.33,-477.5 444.33,-458.5 368.33,-458.5"/>
<text text-anchor="middle" x="406.33" y="-465.5" font-family="Helvetica,sans-Serif" font-size="10.00">Controller.hpp</text>
</a>
</g>
</g>
<!-- Node1&#45;&gt;Node77 -->
<g id="edge64" class="edge">
<title>Node1&#45;&gt;Node77</title>
<path fill="none" stroke="midnightblue" d="M460.05,-514.32C450.5,-506.26 436.05,-494.08 424.55,-484.37"/>
<polygon fill="midnightblue" stroke="midnightblue" points="426.7,-481.61 416.8,-477.83 422.19,-486.96 426.7,-481.61"/>
</g>
<!-- Node3 -->
<g id="node3" class="node">
<title>Node3</title>
<g id="a_node3"><a xlink:href="_neko_exception_8hpp.html" target="_top" xlink:title="Contains the NekoEngine main exception type.">
<polygon fill="none" stroke="black" points="928.83,-324.5 928.83,-354.5 1065.83,-354.5 1065.83,-324.5 928.83,-324.5"/>
<text text-anchor="start" x="936.83" y="-342.5" font-family="Helvetica,sans-Serif" font-size="10.00">NekoEngine/NekoException</text>
<text text-anchor="middle" x="997.33" y="-331.5" font-family="Helvetica,sans-Serif" font-size="10.00">/NekoException.hpp</text>
</a>
</g>
</g>
<!-- Node2&#45;&gt;Node3 -->
<g id="edge2" class="edge">
<title>Node2&#45;&gt;Node3</title>
<path fill="none" stroke="midnightblue" d="M1270.71,-460.28C1225.59,-454.21 1166.89,-442.87 1118.33,-422 1096.36,-412.55 1094.11,-404.45 1074.33,-391 1059.11,-380.65 1042.01,-369.4 1027.8,-360.15"/>
<polygon fill="midnightblue" stroke="midnightblue" points="1029.66,-357.18 1019.37,-354.67 1025.85,-363.05 1029.66,-357.18"/>
</g>
<!-- Node5 -->
<g id="node5" class="node">
<title>Node5</title>
<g id="a_node5"><a xlink:href="_neko_window_exception_8hpp.html" target="_top" xlink:title="WindowException handling class inheriting from NekoException.">
<polygon fill="none" stroke="black" points="928.83,-391.5 928.83,-421.5 1065.83,-421.5 1065.83,-391.5 928.83,-391.5"/>
<text text-anchor="start" x="936.83" y="-409.5" font-family="Helvetica,sans-Serif" font-size="10.00">NekoEngine/Graphics</text>
<text text-anchor="middle" x="997.33" y="-398.5" font-family="Helvetica,sans-Serif" font-size="10.00">/NekoWindowException.hpp</text>
</a>
</g>
</g>
<!-- Node2&#45;&gt;Node5 -->
<g id="edge4" class="edge">
<title>Node2&#45;&gt;Node5</title>
<path fill="none" stroke="midnightblue" d="M1292.59,-458.5C1239.88,-449.48 1154.23,-434.8 1080.33,-422 1079.03,-421.78 1077.73,-421.55 1076.41,-421.32"/>
<polygon fill="midnightblue" stroke="midnightblue" points="1076.62,-417.8 1066.17,-419.54 1075.43,-424.7 1076.62,-417.8"/>
</g>
<!-- Node6 -->
<g id="node6" class="node">
<title>Node6</title>
<g id="a_node6"><a xlink:href="_vector_8hpp.html" target="_top" xlink:title="Contains all headers for all Vector types.">
<polygon fill="none" stroke="black" points="3213.83,-56.5 3213.83,-86.5 3338.83,-86.5 3338.83,-56.5 3213.83,-56.5"/>
<text text-anchor="start" x="3221.83" y="-74.5" font-family="Helvetica,sans-Serif" font-size="10.00">NekoEngine/Math/Vector</text>
<text text-anchor="middle" x="3276.33" y="-63.5" font-family="Helvetica,sans-Serif" font-size="10.00">/Vector.hpp</text>
</a>
</g>
</g>
<!-- Node2&#45;&gt;Node6 -->
<g id="edge6" class="edge">
<title>Node2&#45;&gt;Node6</title>
<path fill="none" stroke="midnightblue" d="M1414.1,-465.86C1578.23,-462.79 1993.48,-452.42 2339.33,-422 2567.51,-401.93 2624.11,-390.91 2850.33,-355 3010.64,-329.55 3058.25,-347.31 3209.33,-288 3261.21,-267.63 3287.71,-269.41 3315.33,-221 3336.92,-183.16 3331.9,-164.06 3317.33,-123 3313.55,-112.35 3306.47,-102.32 3299.24,-94.04"/>
<polygon fill="midnightblue" stroke="midnightblue" points="3301.75,-91.6 3292.36,-86.68 3296.63,-96.38 3301.75,-91.6"/>
</g>
<!-- Node10 -->
<g id="node10" class="node">
<title>Node10</title>
<g id="a_node10"><a xlink:href="_quaternion_8hpp.html" target="_top" xlink:title="Utmost basic implementation of a Quaternion, i.e. just a Vector4.">
<polygon fill="none" stroke="black" points="3417.33,-123.5 3417.33,-153.5 3561.33,-153.5 3561.33,-123.5 3417.33,-123.5"/>
<text text-anchor="start" x="3425.33" y="-141.5" font-family="Helvetica,sans-Serif" font-size="10.00">NekoEngine/Math/Quaternion</text>
<text text-anchor="middle" x="3489.33" y="-130.5" font-family="Helvetica,sans-Serif" font-size="10.00">/Quaternion.hpp</text>
</a>
</g>
</g>
<!-- Node2&#45;&gt;Node10 -->
<g id="edge10" class="edge">
<title>Node2&#45;&gt;Node10</title>
<path fill="none" stroke="midnightblue" d="M1413.93,-466.5C1776.16,-463.84 3391.26,-450.41 3434.33,-422 3467.54,-400.1 3471.33,-380.28 3471.33,-340.5 3471.33,-340.5 3471.33,-340.5 3471.33,-271.5 3471.33,-233.49 3478.75,-189.88 3484.06,-163.52"/>
<polygon fill="midnightblue" stroke="midnightblue" points="3487.5,-164.18 3486.11,-153.67 3480.65,-162.75 3487.5,-164.18"/>
</g>
<!-- Node11 -->
<g id="node11" class="node">
<title>Node11</title>
<g id="a_node11"><a xlink:href="_matrix_8hpp.html" target="_top" xlink:title="Contains Matrix template class.">
<polygon fill="none" stroke="black" points="3301.83,-391.5 3301.83,-421.5 3424.83,-421.5 3424.83,-391.5 3301.83,-391.5"/>
<text text-anchor="start" x="3309.83" y="-409.5" font-family="Helvetica,sans-Serif" font-size="10.00">NekoEngine/Math/Matrix</text>
<text text-anchor="middle" x="3363.33" y="-398.5" font-family="Helvetica,sans-Serif" font-size="10.00">/Matrix.hpp</text>
</a>
</g>
</g>
<!-- Node2&#45;&gt;Node11 -->
<g id="edge12" class="edge">
<title>Node2&#45;&gt;Node11</title>
<path fill="none" stroke="midnightblue" d="M1414.08,-466.93C1719.6,-466.38 2913.57,-461.7 3287.33,-422 3288.65,-421.86 3289.97,-421.71 3291.31,-421.55"/>
<polygon fill="midnightblue" stroke="midnightblue" points="3292.22,-424.96 3301.66,-420.15 3291.28,-418.02 3292.22,-424.96"/>
</g>
<!-- Node13 -->
<g id="node13" class="node">
<title>Node13</title>
<g id="a_node13"><a xlink:href="_coordinator_8hpp.html" target="_top" xlink:title="Coordinator class.">
<polygon fill="none" stroke="black" points="500.33,-263 500.33,-282 662.33,-282 662.33,-263 500.33,-263"/>
<text text-anchor="middle" x="581.33" y="-270" font-family="Helvetica,sans-Serif" font-size="10.00">NekoEngine/ECS/Coordinator.hpp</text>
</a>
</g>
</g>
<!-- Node2&#45;&gt;Node13 -->
<g id="edge15" class="edge">
<title>Node2&#45;&gt;Node13</title>
<path fill="none" stroke="midnightblue" d="M1270.76,-461.57C1232.87,-456 1186.94,-444.73 1151.33,-422 1104.64,-392.2 1122.85,-350.72 1074.33,-324 1007.35,-287.11 795.7,-277.1 672.58,-274.43"/>
<polygon fill="midnightblue" stroke="midnightblue" points="672.48,-270.93 662.41,-274.22 672.33,-277.93 672.48,-270.93"/>
</g>
<!-- Node32 -->
<g id="node18" class="node">
<title>Node32</title>
<g id="a_node18"><a xlink:href="_scene_8hpp.html" target="_top" xlink:title="Scene class.">
<polygon fill="none" stroke="black" points="1160.33,-397 1160.33,-416 1314.33,-416 1314.33,-397 1160.33,-397"/>
<text text-anchor="middle" x="1237.33" y="-404" font-family="Helvetica,sans-Serif" font-size="10.00">NekoEngine/Scenes/Scene.hpp</text>
</a>
</g>
</g>
<!-- Node2&#45;&gt;Node32 -->
<g id="edge21" class="edge">
<title>Node2&#45;&gt;Node32</title>
<path fill="none" stroke="midnightblue" d="M1327.29,-458.48C1310.06,-448.71 1281.59,-432.58 1261.3,-421.08"/>
<polygon fill="midnightblue" stroke="midnightblue" points="1262.77,-417.89 1252.35,-416.01 1259.32,-423.98 1262.77,-417.89"/>
</g>
<!-- Node33 -->
<g id="node19" class="node">
<title>Node33</title>
<g id="a_node19"><a xlink:href="_components_8hpp.html" target="_top" xlink:title="Components.">
<polygon fill="none" stroke="black" points="2022.83,-257.5 2022.83,-287.5 2171.83,-287.5 2171.83,-257.5 2022.83,-257.5"/>
<text text-anchor="start" x="2030.83" y="-275.5" font-family="Helvetica,sans-Serif" font-size="10.00">NekoEngine/ECS/Components</text>
<text text-anchor="middle" x="2097.33" y="-264.5" font-family="Helvetica,sans-Serif" font-size="10.00">/Components.hpp</text>
</a>
</g>
</g>
<!-- Node2&#45;&gt;Node33 -->
<g id="edge23" class="edge">
<title>Node2&#45;&gt;Node33</title>
<path fill="none" stroke="midnightblue" d="M1340.24,-458.29C1334.76,-433.16 1322.98,-359.99 1361.33,-324 1407.91,-280.29 1828.78,-274.04 2012.35,-273.41"/>
<polygon fill="midnightblue" stroke="midnightblue" points="2012.52,-276.91 2022.51,-273.38 2012.5,-269.91 2012.52,-276.91"/>
</g>
<!-- Node55 -->
<g id="node39" class="node">
<title>Node55</title>
<g id="a_node39"><a xlink:href="_systems_8hpp.html" target="_top" xlink:title="Systems.">
<polygon fill="none" stroke="red" points="1898.83,-391.5 1898.83,-421.5 2031.83,-421.5 2031.83,-391.5 1898.83,-391.5"/>
<text text-anchor="start" x="1906.83" y="-409.5" font-family="Helvetica,sans-Serif" font-size="10.00">NekoEngine/ECS/Systems</text>
<text text-anchor="middle" x="1965.33" y="-398.5" font-family="Helvetica,sans-Serif" font-size="10.00">/Systems.hpp</text>
</a>
</g>
</g>
<!-- Node2&#45;&gt;Node55 -->
<g id="edge49" class="edge">
<title>Node2&#45;&gt;Node55</title>
<path fill="none" stroke="midnightblue" d="M1414.1,-460.15C1532.36,-448.85 1767.14,-426.43 1888.58,-414.83"/>
<polygon fill="midnightblue" stroke="midnightblue" points="1888.93,-418.31 1898.55,-413.88 1888.26,-411.34 1888.93,-418.31"/>
</g>
<!-- Node68 -->
<g id="node49" class="node">
<title>Node68</title>
<g id="a_node49"><a xlink:href="_window_8hpp.html" target="_top" xlink:title="Contains the NekoEngine Window class wrapper.">
<polygon fill="none" stroke="red" points="2729.83,-324.5 2729.83,-354.5 2840.83,-354.5 2840.83,-324.5 2729.83,-324.5"/>
<text text-anchor="start" x="2737.83" y="-342.5" font-family="Helvetica,sans-Serif" font-size="10.00">NekoEngine/Graphics</text>
<text text-anchor="middle" x="2785.33" y="-331.5" font-family="Helvetica,sans-Serif" font-size="10.00">/Window.hpp</text>
</a>
</g>
</g>
<!-- Node2&#45;&gt;Node68 -->
<g id="edge61" class="edge">
<title>Node2&#45;&gt;Node68</title>
<path fill="none" stroke="midnightblue" d="M1413.86,-465.2C1617.44,-459.21 2217.2,-435.64 2719.58,-355.17"/>
<polygon fill="midnightblue" stroke="midnightblue" points="2720.25,-358.61 2729.56,-353.56 2719.13,-351.7 2720.25,-358.61"/>
</g>
<!-- Node4 -->
<g id="node4" class="node">
<title>Node4</title>
<g id="a_node4"><a xlink:title=" ">
<polygon fill="none" stroke="#bfbfbf" points="440.83,-263 440.83,-282 481.83,-282 481.83,-263 440.83,-263"/>
<text text-anchor="middle" x="461.33" y="-270" font-family="Helvetica,sans-Serif" font-size="10.00">string</text>
</a>
</g>
</g>
<!-- Node3&#45;&gt;Node4 -->
<g id="edge3" class="edge">
<title>Node3&#45;&gt;Node4</title>
<path fill="none" stroke="midnightblue" d="M928.82,-339.18C830.21,-338.49 643.43,-330.89 491.33,-288 489.45,-287.47 487.55,-286.83 485.66,-286.11"/>
<polygon fill="midnightblue" stroke="midnightblue" points="487.06,-282.91 476.49,-282.1 484.25,-289.32 487.06,-282.91"/>
</g>
<!-- Node5&#45;&gt;Node3 -->
<g id="edge5" class="edge">
<title>Node5&#45;&gt;Node3</title>
<path fill="none" stroke="midnightblue" d="M997.33,-391.4C997.33,-383.64 997.33,-373.81 997.33,-364.86"/>
<polygon fill="midnightblue" stroke="midnightblue" points="1000.83,-364.58 997.33,-354.58 993.83,-364.58 1000.83,-364.58"/>
</g>
<!-- Node7 -->
<g id="node7" class="node">
<title>Node7</title>
<g id="a_node7"><a xlink:href="_vector2_8hpp.html" target="_top" xlink:title="Contains Vector2 template class.">
<polygon fill="none" stroke="black" points="3156.33,-0.5 3156.33,-19.5 3224.33,-19.5 3224.33,-0.5 3156.33,-0.5"/>
<text text-anchor="middle" x="3190.33" y="-7.5" font-family="Helvetica,sans-Serif" font-size="10.00">Vector2.hpp</text>
</a>
</g>
</g>
<!-- Node6&#45;&gt;Node7 -->
<g id="edge7" class="edge">
<title>Node6&#45;&gt;Node7</title>
<path fill="none" stroke="midnightblue" d="M3255.95,-56.4C3242.42,-47.04 3224.72,-34.79 3211.11,-25.38"/>
<polygon fill="midnightblue" stroke="midnightblue" points="3213.06,-22.47 3202.85,-19.66 3209.08,-28.23 3213.06,-22.47"/>
</g>
<!-- Node8 -->
<g id="node8" class="node">
<title>Node8</title>
<g id="a_node8"><a xlink:href="_vector3_8hpp.html" target="_top" xlink:title="Contains Vector3 template class.">
<polygon fill="none" stroke="black" points="3242.33,-0.5 3242.33,-19.5 3310.33,-19.5 3310.33,-0.5 3242.33,-0.5"/>
<text text-anchor="middle" x="3276.33" y="-7.5" font-family="Helvetica,sans-Serif" font-size="10.00">Vector3.hpp</text>
</a>
</g>
</g>
<!-- Node6&#45;&gt;Node8 -->
<g id="edge8" class="edge">
<title>Node6&#45;&gt;Node8</title>
<path fill="none" stroke="midnightblue" d="M3276.33,-56.4C3276.33,-48.47 3276.33,-38.46 3276.33,-29.86"/>
<polygon fill="midnightblue" stroke="midnightblue" points="3279.83,-29.66 3276.33,-19.66 3272.83,-29.66 3279.83,-29.66"/>
</g>
<!-- Node9 -->
<g id="node9" class="node">
<title>Node9</title>
<g id="a_node9"><a xlink:href="_vector4_8hpp.html" target="_top" xlink:title="Contains Vector4 template class.">
<polygon fill="none" stroke="black" points="3328.33,-0.5 3328.33,-19.5 3396.33,-19.5 3396.33,-0.5 3328.33,-0.5"/>
<text text-anchor="middle" x="3362.33" y="-7.5" font-family="Helvetica,sans-Serif" font-size="10.00">Vector4.hpp</text>
</a>
</g>
</g>
<!-- Node6&#45;&gt;Node9 -->
<g id="edge9" class="edge">
<title>Node6&#45;&gt;Node9</title>
<path fill="none" stroke="midnightblue" d="M3296.71,-56.4C3310.24,-47.04 3327.94,-34.79 3341.55,-25.38"/>
<polygon fill="midnightblue" stroke="midnightblue" points="3343.59,-28.23 3349.82,-19.66 3339.6,-22.47 3343.59,-28.23"/>
</g>
<!-- Node10&#45;&gt;Node6 -->
<g id="edge11" class="edge">
<title>Node10&#45;&gt;Node6</title>
<path fill="none" stroke="midnightblue" d="M3443.38,-123.48C3410.87,-113.56 3367.11,-100.2 3332.52,-89.65"/>
<polygon fill="midnightblue" stroke="midnightblue" points="3333.16,-86.18 3322.57,-86.61 3331.12,-92.88 3333.16,-86.18"/>
</g>
<!-- Node11&#45;&gt;Node6 -->
<g id="edge13" class="edge">
<title>Node11&#45;&gt;Node6</title>
<path fill="none" stroke="midnightblue" d="M3367.98,-391.42C3375.46,-367.48 3389.33,-317.18 3389.33,-273.5 3389.33,-273.5 3389.33,-273.5 3389.33,-204.5 3389.33,-166.74 3388.8,-152.58 3365.33,-123 3354.64,-109.51 3339.29,-99 3324.34,-91.15"/>
<polygon fill="midnightblue" stroke="midnightblue" points="3325.65,-87.89 3315.13,-86.59 3322.54,-94.16 3325.65,-87.89"/>
</g>
<!-- Node12 -->
<g id="node12" class="node">
<title>Node12</title>
<g id="a_node12"><a xlink:title=" ">
<polygon fill="none" stroke="#bfbfbf" points="3301.83,-330 3301.83,-349 3360.83,-349 3360.83,-330 3301.83,-330"/>
<text text-anchor="middle" x="3331.33" y="-337" font-family="Helvetica,sans-Serif" font-size="10.00">Matrix.tpp</text>
</a>
</g>
</g>
<!-- Node11&#45;&gt;Node12 -->
<g id="edge14" class="edge">
<title>Node11&#45;&gt;Node12</title>
<path fill="none" stroke="midnightblue" d="M3356.39,-391.4C3351.6,-381.66 3345.19,-368.65 3340.05,-358.21"/>
<polygon fill="midnightblue" stroke="midnightblue" points="3343.17,-356.62 3335.61,-349.19 3336.89,-359.71 3343.17,-356.62"/>
</g>
<!-- Node14 -->
<g id="node14" class="node">
<title>Node14</title>
<g id="a_node14"><a xlink:href="_component_manager_8hpp.html" target="_top" xlink:title="Component Manmager class.">
<polygon fill="none" stroke="red" points="332.33,-190.5 332.33,-220.5 476.33,-220.5 476.33,-190.5 332.33,-190.5"/>
<text text-anchor="start" x="340.33" y="-208.5" font-family="Helvetica,sans-Serif" font-size="10.00">NekoEngine/ECS/Component</text>
<text text-anchor="middle" x="404.33" y="-197.5" font-family="Helvetica,sans-Serif" font-size="10.00">Manager.hpp</text>
</a>
</g>
</g>
<!-- Node13&#45;&gt;Node14 -->
<g id="edge16" class="edge">
<title>Node13&#45;&gt;Node14</title>
<path fill="none" stroke="midnightblue" d="M557.83,-262.87C531.04,-253.03 486.54,-236.69 452.33,-224.13"/>
<polygon fill="midnightblue" stroke="midnightblue" points="453.13,-220.69 442.53,-220.53 450.71,-227.26 453.13,-220.69"/>
</g>
<!-- Node25 -->
<g id="node15" class="node">
<title>Node25</title>
<g id="a_node15"><a xlink:href="_entity_manager_8hpp.html" target="_top" xlink:title="Entities are fun.">
<polygon fill="none" stroke="red" points="494.33,-196 494.33,-215 668.33,-215 668.33,-196 494.33,-196"/>
<text text-anchor="middle" x="581.33" y="-203" font-family="Helvetica,sans-Serif" font-size="10.00">NekoEngine/ECS/EntityManager.hpp</text>
</a>
</g>
</g>
<!-- Node13&#45;&gt;Node25 -->
<g id="edge17" class="edge">
<title>Node13&#45;&gt;Node25</title>
<path fill="none" stroke="midnightblue" d="M581.33,-262.73C581.33,-253.18 581.33,-237.62 581.33,-225.28"/>
<polygon fill="midnightblue" stroke="midnightblue" points="584.83,-225.13 581.33,-215.13 577.83,-225.13 584.83,-225.13"/>
</g>
<!-- Node27 -->
<g id="node16" class="node">
<title>Node27</title>
<g id="a_node16"><a xlink:href="_system_manager_8hpp.html" target="_top" xlink:title=" ">
<polygon fill="none" stroke="red" points="30.83,-196 30.83,-215 213.83,-215 213.83,-196 30.83,-196"/>
<text text-anchor="middle" x="122.33" y="-203" font-family="Helvetica,sans-Serif" font-size="10.00">NekoEngine/ECS/SystemManager.hpp</text>
</a>
</g>
</g>
<!-- Node13&#45;&gt;Node27 -->
<g id="edge18" class="edge">
<title>Node13&#45;&gt;Node27</title>
<path fill="none" stroke="midnightblue" d="M520.18,-262.93C507.29,-260.92 493.84,-258.84 481.33,-257 362.87,-239.58 332.93,-237.51 214.33,-221 203.96,-219.56 192.99,-218.01 182.37,-216.48"/>
<polygon fill="midnightblue" stroke="midnightblue" points="182.72,-212.99 172.32,-215.02 181.72,-219.92 182.72,-212.99"/>
</g>
<!-- Node31 -->
<g id="node17" class="node">
<title>Node31</title>
<g id="a_node17"><a xlink:title=" ">
<polygon fill="none" stroke="#bfbfbf" points="232.33,-196 232.33,-215 314.33,-215 314.33,-196 232.33,-196"/>
<text text-anchor="middle" x="273.33" y="-203" font-family="Helvetica,sans-Serif" font-size="10.00">Coordinator.tpp</text>
</a>
</g>
</g>
<!-- Node13&#45;&gt;Node31 -->
<g id="edge20" class="edge">
<title>Node13&#45;&gt;Node31</title>
<path fill="none" stroke="midnightblue" d="M530.62,-262.95C478.38,-253.82 394.75,-238.31 323.33,-221 319.28,-220.02 315.07,-218.92 310.88,-217.78"/>
<polygon fill="midnightblue" stroke="midnightblue" points="311.82,-214.41 301.25,-215.07 309.93,-221.15 311.82,-214.41"/>
</g>
<!-- Node27&#45;&gt;Node13 -->
<g id="edge19" class="edge">
<title>Node27&#45;&gt;Node13</title>
<path fill="none" stroke="midnightblue" d="M189.81,-215.02C203.92,-217 218.65,-219.1 232.33,-221 350.93,-237.51 380.87,-239.58 499.33,-257 508.51,-258.35 518.21,-259.83 527.61,-261.32"/>
<polygon fill="midnightblue" stroke="midnightblue" points="527.22,-264.8 537.65,-262.93 528.33,-257.89 527.22,-264.8"/>
</g>
<!-- Node32&#45;&gt;Node13 -->
<g id="edge22" class="edge">
<title>Node32&#45;&gt;Node13</title>
<path fill="none" stroke="midnightblue" d="M1230.96,-396.9C1217.55,-379.54 1184.46,-340.56 1146.33,-324 1063.66,-288.09 810.36,-277.72 672.7,-274.72"/>
<polygon fill="midnightblue" stroke="midnightblue" points="672.65,-271.22 662.58,-274.51 672.51,-278.21 672.65,-271.22"/>
</g>
<!-- Node34 -->
<g id="node20" class="node">
<title>Node34</title>
<g id="a_node20"><a xlink:href="_transform_8hpp.html" target="_top" xlink:title="Transform component.">
<polygon fill="none" stroke="black" points="2727.83,-123.5 2727.83,-153.5 2876.83,-153.5 2876.83,-123.5 2727.83,-123.5"/>
<text text-anchor="start" x="2735.83" y="-141.5" font-family="Helvetica,sans-Serif" font-size="10.00">NekoEngine/ECS/Components</text>
<text text-anchor="middle" x="2802.33" y="-130.5" font-family="Helvetica,sans-Serif" font-size="10.00">/Transform.hpp</text>
</a>
</g>
</g>
<!-- Node33&#45;&gt;Node34 -->
<g id="edge24" class="edge">
<title>Node33&#45;&gt;Node34</title>
<path fill="none" stroke="midnightblue" d="M2172.08,-266.23C2223.68,-260.3 2292.74,-247.71 2348.33,-221 2367.67,-211.71 2365.65,-198.53 2385.33,-190 2443.21,-164.92 2613.28,-150.67 2717.49,-144.07"/>
<polygon fill="midnightblue" stroke="midnightblue" points="2717.91,-147.55 2727.67,-143.44 2717.47,-140.57 2717.91,-147.55"/>
</g>
<!-- Node35 -->
<g id="node21" class="node">
<title>Node35</title>
<g id="a_node21"><a xlink:href="_timer_8hpp.html" target="_top" xlink:title="Timer component.">
<polygon fill="none" stroke="red" points="2969.83,-190.5 2969.83,-220.5 3118.83,-220.5 3118.83,-190.5 2969.83,-190.5"/>
<text text-anchor="start" x="2977.83" y="-208.5" font-family="Helvetica,sans-Serif" font-size="10.00">NekoEngine/ECS/Components</text>
<text text-anchor="middle" x="3044.33" y="-197.5" font-family="Helvetica,sans-Serif" font-size="10.00">/Timer.hpp</text>
</a>
</g>
</g>
<!-- Node33&#45;&gt;Node35 -->
<g id="edge26" class="edge">
<title>Node33&#45;&gt;Node35</title>
<path fill="none" stroke="midnightblue" d="M2171.95,-269.74C2321.29,-265.63 2667.37,-253.21 2956.33,-221 2957.41,-220.88 2958.49,-220.76 2959.58,-220.63"/>
<polygon fill="midnightblue" stroke="midnightblue" points="2960.03,-224.1 2969.51,-219.37 2959.15,-217.15 2960.03,-224.1"/>
</g>
<!-- Node37 -->
<g id="node22" class="node">
<title>Node37</title>
<g id="a_node22"><a xlink:href="_renderable_8hpp.html" target="_top" xlink:title="Renderable component.">
<polygon fill="none" stroke="black" points="3136.83,-190.5 3136.83,-220.5 3285.83,-220.5 3285.83,-190.5 3136.83,-190.5"/>
<text text-anchor="start" x="3144.83" y="-208.5" font-family="Helvetica,sans-Serif" font-size="10.00">NekoEngine/ECS/Components</text>
<text text-anchor="middle" x="3211.33" y="-197.5" font-family="Helvetica,sans-Serif" font-size="10.00">/Renderable.hpp</text>
</a>
</g>
</g>
<!-- Node33&#45;&gt;Node37 -->
<g id="edge27" class="edge">
<title>Node33&#45;&gt;Node37</title>
<path fill="none" stroke="midnightblue" d="M2171.98,-271.01C2340.57,-269.22 2763.73,-260.89 3126.56,-221.11"/>
<polygon fill="midnightblue" stroke="midnightblue" points="3127.18,-224.56 3136.74,-219.98 3126.41,-217.6 3127.18,-224.56"/>
</g>
<!-- Node38 -->
<g id="node23" class="node">
<title>Node38</title>
<g id="a_node23"><a xlink:href="_color_8hpp.html" target="_top" xlink:title="Color component.">
<polygon fill="none" stroke="red" points="853.83,-190.5 853.83,-220.5 1002.83,-220.5 1002.83,-190.5 853.83,-190.5"/>
<text text-anchor="start" x="861.83" y="-208.5" font-family="Helvetica,sans-Serif" font-size="10.00">NekoEngine/ECS/Components</text>
<text text-anchor="middle" x="928.33" y="-197.5" font-family="Helvetica,sans-Serif" font-size="10.00">/Color.hpp</text>
</a>
</g>
</g>
<!-- Node33&#45;&gt;Node38 -->
<g id="edge28" class="edge">
<title>Node33&#45;&gt;Node38</title>
<path fill="none" stroke="midnightblue" d="M2022.69,-271.27C1847.8,-270.05 1397.84,-262.82 1013.14,-221.11"/>
<polygon fill="midnightblue" stroke="midnightblue" points="1013.25,-217.6 1002.93,-219.99 1012.49,-224.56 1013.25,-217.6"/>
</g>
<!-- Node39 -->
<g id="node24" class="node">
<title>Node39</title>
<g id="a_node24"><a xlink:href="_rigid_body_8hpp.html" target="_top" xlink:title="RigidBody component.">
<polygon fill="none" stroke="black" points="2959.83,-123.5 2959.83,-153.5 3108.83,-153.5 3108.83,-123.5 2959.83,-123.5"/>
<text text-anchor="start" x="2967.83" y="-141.5" font-family="Helvetica,sans-Serif" font-size="10.00">NekoEngine/ECS/Components</text>
<text text-anchor="middle" x="3034.33" y="-130.5" font-family="Helvetica,sans-Serif" font-size="10.00">/RigidBody.hpp</text>
</a>
</g>
</g>
<!-- Node33&#45;&gt;Node39 -->
<g id="edge29" class="edge">
<title>Node33&#45;&gt;Node39</title>
<path fill="none" stroke="midnightblue" d="M2172.04,-272.05C2342.71,-272.47 2756.5,-268.37 2886.33,-221 2908.13,-213.05 2908.44,-201.93 2928.33,-190 2948.31,-178.02 2971.58,-166.67 2991.22,-157.77"/>
<polygon fill="midnightblue" stroke="midnightblue" points="2992.83,-160.89 3000.54,-153.61 2989.98,-154.5 2992.83,-160.89"/>
</g>
<!-- Node40 -->
<g id="node25" class="node">
<title>Node40</title>
<g id="a_node25"><a xlink:href="_gravity_8hpp.html" target="_top" xlink:title="Gravity component.">
<polygon fill="none" stroke="black" points="3131.83,-123.5 3131.83,-153.5 3280.83,-153.5 3280.83,-123.5 3131.83,-123.5"/>
<text text-anchor="start" x="3139.83" y="-141.5" font-family="Helvetica,sans-Serif" font-size="10.00">NekoEngine/ECS/Components</text>
<text text-anchor="middle" x="3206.33" y="-130.5" font-family="Helvetica,sans-Serif" font-size="10.00">/Gravity.hpp</text>
</a>
</g>
</g>
<!-- Node33&#45;&gt;Node40 -->
<g id="edge31" class="edge">
<title>Node33&#45;&gt;Node40</title>
<path fill="none" stroke="midnightblue" d="M2172.14,-269.43C2361.98,-263.82 2852.34,-246.99 2921.33,-221 2942.38,-213.07 2940.9,-199.4 2961.33,-190 2976.06,-183.22 3056.97,-167.17 3121.85,-154.97"/>
<polygon fill="midnightblue" stroke="midnightblue" points="3122.51,-158.4 3131.7,-153.12 3121.22,-151.52 3122.51,-158.4"/>
</g>
<!-- Node41 -->
<g id="node26" class="node">
<title>Node41</title>
<g id="a_node26"><a xlink:href="_skin_8hpp.html" target="_top" xlink:title="Skin component.">
<polygon fill="none" stroke="black" points="686.83,-190.5 686.83,-220.5 835.83,-220.5 835.83,-190.5 686.83,-190.5"/>
<text text-anchor="start" x="694.83" y="-208.5" font-family="Helvetica,sans-Serif" font-size="10.00">NekoEngine/ECS/Components</text>
<text text-anchor="middle" x="761.33" y="-197.5" font-family="Helvetica,sans-Serif" font-size="10.00">/Skin.hpp</text>
</a>
</g>
</g>
<!-- Node33&#45;&gt;Node41 -->
<g id="edge33" class="edge">
<title>Node33&#45;&gt;Node41</title>
<path fill="none" stroke="midnightblue" d="M2022.58,-271.94C1829.33,-272.33 1297.33,-268.69 845.9,-221.07"/>
<polygon fill="midnightblue" stroke="midnightblue" points="846.24,-217.59 835.92,-220.01 845.5,-224.55 846.24,-217.59"/>
</g>
<!-- Node43 -->
<g id="node28" class="node">
<title>Node43</title>
<g id="a_node28"><a xlink:href="_networkable_8hpp.html" target="_top" xlink:title="Networkable component.">
<polygon fill="none" stroke="black" points="1187.83,-190.5 1187.83,-220.5 1336.83,-220.5 1336.83,-190.5 1187.83,-190.5"/>
<text text-anchor="start" x="1195.83" y="-208.5" font-family="Helvetica,sans-Serif" font-size="10.00">NekoEngine/ECS/Components</text>
<text text-anchor="middle" x="1262.33" y="-197.5" font-family="Helvetica,sans-Serif" font-size="10.00">/Networkable.hpp</text>
</a>
</g>
</g>
<!-- Node33&#45;&gt;Node43 -->
<g id="edge35" class="edge">
<title>Node33&#45;&gt;Node43</title>
<path fill="none" stroke="midnightblue" d="M2022.64,-269.11C1889.01,-264.25 1600.07,-251.13 1347.05,-221.13"/>
<polygon fill="midnightblue" stroke="midnightblue" points="1347.28,-217.63 1336.93,-219.92 1346.45,-224.58 1347.28,-217.63"/>
</g>
<!-- Node44 -->
<g id="node29" class="node">
<title>Node44</title>
<g id="a_node29"><a xlink:href="_uid_8hpp.html" target="_top" xlink:title="Uid component.">
<polygon fill="none" stroke="red" points="1354.83,-190.5 1354.83,-220.5 1503.83,-220.5 1503.83,-190.5 1354.83,-190.5"/>
<text text-anchor="start" x="1362.83" y="-208.5" font-family="Helvetica,sans-Serif" font-size="10.00">NekoEngine/ECS/Components</text>
<text text-anchor="middle" x="1429.33" y="-197.5" font-family="Helvetica,sans-Serif" font-size="10.00">/Uid.hpp</text>
</a>
</g>
</g>
<!-- Node33&#45;&gt;Node44 -->
<g id="edge36" class="edge">
<title>Node33&#45;&gt;Node44</title>
<path fill="none" stroke="midnightblue" d="M2022.77,-267.14C1913.34,-260.29 1702.62,-245.34 1514.04,-221.16"/>
<polygon fill="midnightblue" stroke="midnightblue" points="1514.31,-217.66 1503.94,-219.85 1513.41,-224.6 1514.31,-217.66"/>
</g>
<!-- Node45 -->
<g id="node30" class="node">
<title>Node45</title>
<g id="a_node30"><a xlink:href="_hostile_8hpp.html" target="_top" xlink:title=" ">
<polygon fill="none" stroke="black" points="1521.83,-190.5 1521.83,-220.5 1670.83,-220.5 1670.83,-190.5 1521.83,-190.5"/>
<text text-anchor="start" x="1529.83" y="-208.5" font-family="Helvetica,sans-Serif" font-size="10.00">NekoEngine/ECS/Components</text>
<text text-anchor="middle" x="1596.33" y="-197.5" font-family="Helvetica,sans-Serif" font-size="10.00">/Hostile.hpp</text>
</a>
</g>
</g>
<!-- Node33&#45;&gt;Node45 -->
<g id="edge37" class="edge">
<title>Node33&#45;&gt;Node45</title>
<path fill="none" stroke="midnightblue" d="M2022.8,-263.69C1941.28,-254.89 1806.53,-239.53 1681.13,-221.22"/>
<polygon fill="midnightblue" stroke="midnightblue" points="1681.36,-217.72 1670.96,-219.73 1680.34,-224.65 1681.36,-217.72"/>
</g>
<!-- Node46 -->
<g id="node31" class="node">
<title>Node46</title>
<g id="a_node31"><a xlink:href="_but_8hpp.html" target="_top" xlink:title=" ">
<polygon fill="none" stroke="black" points="1688.83,-190.5 1688.83,-220.5 1837.83,-220.5 1837.83,-190.5 1688.83,-190.5"/>
<text text-anchor="start" x="1696.83" y="-208.5" font-family="Helvetica,sans-Serif" font-size="10.00">NekoEngine/ECS/Components</text>
<text text-anchor="middle" x="1763.33" y="-197.5" font-family="Helvetica,sans-Serif" font-size="10.00">/But.hpp</text>
</a>
</g>
</g>
<!-- Node33&#45;&gt;Node46 -->
<g id="edge38" class="edge">
<title>Node33&#45;&gt;Node46</title>
<path fill="none" stroke="midnightblue" d="M2025.27,-257.48C1972.46,-247.2 1900.69,-233.23 1845.63,-222.52"/>
<polygon fill="midnightblue" stroke="midnightblue" points="1846.04,-219.03 1835.55,-220.55 1844.7,-225.9 1846.04,-219.03"/>
</g>
<!-- Node47 -->
<g id="node32" class="node">
<title>Node47</title>
<g id="a_node32"><a xlink:href="_textinfo_8hpp.html" target="_top" xlink:title=" ">
<polygon fill="none" stroke="black" points="1020.83,-190.5 1020.83,-220.5 1169.83,-220.5 1169.83,-190.5 1020.83,-190.5"/>
<text text-anchor="start" x="1028.83" y="-208.5" font-family="Helvetica,sans-Serif" font-size="10.00">NekoEngine/ECS/Components</text>
<text text-anchor="middle" x="1095.33" y="-197.5" font-family="Helvetica,sans-Serif" font-size="10.00">/Textinfo.hpp</text>
</a>
</g>
</g>
<!-- Node33&#45;&gt;Node47 -->
<g id="edge39" class="edge">
<title>Node33&#45;&gt;Node47</title>
<path fill="none" stroke="midnightblue" d="M2022.63,-270.38C1867.43,-267.4 1498.71,-256.97 1180.28,-221.14"/>
<polygon fill="midnightblue" stroke="midnightblue" points="1180.26,-217.61 1169.93,-219.96 1179.47,-224.57 1180.26,-217.61"/>
</g>
<!-- Node48 -->
<g id="node33" class="node">
<title>Node48</title>
<g id="a_node33"><a xlink:href="_patterns_8hpp.html" target="_top" xlink:title="Patterns component.">
<polygon fill="none" stroke="red" points="2727.83,-190.5 2727.83,-220.5 2876.83,-220.5 2876.83,-190.5 2727.83,-190.5"/>
<text text-anchor="start" x="2735.83" y="-208.5" font-family="Helvetica,sans-Serif" font-size="10.00">NekoEngine/ECS/Components</text>
<text text-anchor="middle" x="2802.33" y="-197.5" font-family="Helvetica,sans-Serif" font-size="10.00">/Patterns.hpp</text>
</a>
</g>
</g>
<!-- Node33&#45;&gt;Node48 -->
<g id="edge41" class="edge">
<title>Node33&#45;&gt;Node48</title>
<path fill="none" stroke="midnightblue" d="M2172.24,-267.65C2287.44,-261.23 2515.17,-246.59 2717.79,-221.13"/>
<polygon fill="midnightblue" stroke="midnightblue" points="2718.24,-224.6 2727.72,-219.87 2717.36,-217.65 2718.24,-224.6"/>
</g>
<!-- Node50 -->
<g id="node34" class="node">
<title>Node50</title>
<g id="a_node34"><a xlink:href="_alien_8hpp.html" target="_top" xlink:title="Alien component.">
<polygon fill="none" stroke="black" points="1855.83,-190.5 1855.83,-220.5 2004.83,-220.5 2004.83,-190.5 1855.83,-190.5"/>
<text text-anchor="start" x="1863.83" y="-208.5" font-family="Helvetica,sans-Serif" font-size="10.00">NekoEngine/ECS/Components</text>
<text text-anchor="middle" x="1930.33" y="-197.5" font-family="Helvetica,sans-Serif" font-size="10.00">/Alien.hpp</text>
</a>
</g>
</g>
<!-- Node33&#45;&gt;Node50 -->
<g id="edge44" class="edge">
<title>Node33&#45;&gt;Node50</title>
<path fill="none" stroke="midnightblue" d="M2061.1,-257.4C2036.15,-247.69 2002.81,-234.71 1976.04,-224.29"/>
<polygon fill="midnightblue" stroke="midnightblue" points="1977.09,-220.94 1966.5,-220.58 1974.55,-227.47 1977.09,-220.94"/>
</g>
<!-- Node51 -->
<g id="node35" class="node">
<title>Node51</title>
<g id="a_node35"><a xlink:href="_entity_type_8hpp.html" target="_top" xlink:title=" ">
<polygon fill="none" stroke="black" points="2022.83,-190.5 2022.83,-220.5 2171.83,-220.5 2171.83,-190.5 2022.83,-190.5"/>
<text text-anchor="start" x="2030.83" y="-208.5" font-family="Helvetica,sans-Serif" font-size="10.00">NekoEngine/ECS/Components</text>
<text text-anchor="middle" x="2097.33" y="-197.5" font-family="Helvetica,sans-Serif" font-size="10.00">/EntityType.hpp</text>
</a>
</g>
</g>
<!-- Node33&#45;&gt;Node51 -->
<g id="edge45" class="edge">
<title>Node33&#45;&gt;Node51</title>
<path fill="none" stroke="midnightblue" d="M2097.33,-257.4C2097.33,-249.64 2097.33,-239.81 2097.33,-230.86"/>
<polygon fill="midnightblue" stroke="midnightblue" points="2100.83,-230.58 2097.33,-220.58 2093.83,-230.58 2100.83,-230.58"/>
</g>
<!-- Node52 -->
<g id="node36" class="node">
<title>Node52</title>
<g id="a_node36"><a xlink:href="_gorb_background_8hpp.html" target="_top" xlink:title=" ">
<polygon fill="none" stroke="black" points="2189.83,-190.5 2189.83,-220.5 2338.83,-220.5 2338.83,-190.5 2189.83,-190.5"/>
<text text-anchor="start" x="2197.83" y="-208.5" font-family="Helvetica,sans-Serif" font-size="10.00">NekoEngine/ECS/Components</text>
<text text-anchor="middle" x="2264.33" y="-197.5" font-family="Helvetica,sans-Serif" font-size="10.00">/GorbBackground.hpp</text>
</a>
</g>
</g>
<!-- Node33&#45;&gt;Node52 -->
<g id="edge46" class="edge">
<title>Node33&#45;&gt;Node52</title>
<path fill="none" stroke="midnightblue" d="M2133.57,-257.4C2158.52,-247.69 2191.86,-234.71 2218.63,-224.29"/>
<polygon fill="midnightblue" stroke="midnightblue" points="2220.12,-227.47 2228.17,-220.58 2217.58,-220.94 2220.12,-227.47"/>
</g>
<!-- Node53 -->
<g id="node37" class="node">
<title>Node53</title>
<g id="a_node37"><a xlink:href="_animation_8hpp.html" target="_top" xlink:title=" ">
<polygon fill="none" stroke="black" points="2393.83,-190.5 2393.83,-220.5 2542.83,-220.5 2542.83,-190.5 2393.83,-190.5"/>
<text text-anchor="start" x="2401.83" y="-208.5" font-family="Helvetica,sans-Serif" font-size="10.00">NekoEngine/ECS/Components</text>
<text text-anchor="middle" x="2468.33" y="-197.5" font-family="Helvetica,sans-Serif" font-size="10.00">/Animation.hpp</text>
</a>
</g>
</g>
<!-- Node33&#45;&gt;Node53 -->
<g id="edge47" class="edge">
<title>Node33&#45;&gt;Node53</title>
<path fill="none" stroke="midnightblue" d="M2171.96,-258.42C2233.22,-247.69 2319.96,-232.49 2383.78,-221.31"/>
<polygon fill="midnightblue" stroke="midnightblue" points="2384.57,-224.73 2393.82,-219.55 2383.37,-217.83 2384.57,-224.73"/>
</g>
<!-- Node54 -->
<g id="node38" class="node">
<title>Node54</title>
<g id="a_node38"><a xlink:href="_player_shoot_8hpp.html" target="_top" xlink:title=" ">
<polygon fill="none" stroke="black" points="2560.83,-190.5 2560.83,-220.5 2709.83,-220.5 2709.83,-190.5 2560.83,-190.5"/>
<text text-anchor="start" x="2568.83" y="-208.5" font-family="Helvetica,sans-Serif" font-size="10.00">NekoEngine/ECS/Components</text>
<text text-anchor="middle" x="2635.33" y="-197.5" font-family="Helvetica,sans-Serif" font-size="10.00">/PlayerShoot.hpp</text>
</a>
</g>
</g>
<!-- Node33&#45;&gt;Node54 -->
<g id="edge48" class="edge">
<title>Node33&#45;&gt;Node54</title>
<path fill="none" stroke="midnightblue" d="M2171.99,-264.66C2260.16,-256.25 2411.47,-240.8 2550.71,-221.18"/>
<polygon fill="midnightblue" stroke="midnightblue" points="2551.3,-224.63 2560.71,-219.76 2550.32,-217.7 2551.3,-224.63"/>
</g>
<!-- Node34&#45;&gt;Node6 -->
<g id="edge25" class="edge">
<title>Node34&#45;&gt;Node6</title>
<path fill="none" stroke="midnightblue" d="M2876.92,-127.27C2966.29,-115.02 3115.02,-94.62 3203.57,-82.48"/>
<polygon fill="midnightblue" stroke="midnightblue" points="3204.11,-85.94 3213.54,-81.11 3203.15,-79 3204.11,-85.94"/>
</g>
<!-- Node39&#45;&gt;Node6 -->
<g id="edge30" class="edge">
<title>Node39&#45;&gt;Node6</title>
<path fill="none" stroke="midnightblue" d="M3086.54,-123.48C3123.95,-113.43 3174.48,-99.86 3214,-89.24"/>
<polygon fill="midnightblue" stroke="midnightblue" points="3215.05,-92.59 3223.8,-86.61 3213.23,-85.82 3215.05,-92.59"/>
</g>
<!-- Node40&#45;&gt;Node6 -->
<g id="edge32" class="edge">
<title>Node40&#45;&gt;Node6</title>
<path fill="none" stroke="midnightblue" d="M3221.52,-123.4C3230.88,-114.71 3243.05,-103.4 3253.55,-93.66"/>
<polygon fill="midnightblue" stroke="midnightblue" points="3256.23,-95.95 3261.17,-86.58 3251.46,-90.82 3256.23,-95.95"/>
</g>
<!-- Node42 -->
<g id="node27" class="node">
<title>Node42</title>
<g id="a_node27"><a xlink:title=" ">
<polygon fill="none" stroke="#bfbfbf" points="709.33,-129 709.33,-148 813.33,-148 813.33,-129 709.33,-129"/>
<text text-anchor="middle" x="761.33" y="-136" font-family="Helvetica,sans-Serif" font-size="10.00">SFML/Graphics.hpp</text>
</a>
</g>
</g>
<!-- Node41&#45;&gt;Node42 -->
<g id="edge34" class="edge">
<title>Node41&#45;&gt;Node42</title>
<path fill="none" stroke="midnightblue" d="M761.33,-190.4C761.33,-181.06 761.33,-168.71 761.33,-158.52"/>
<polygon fill="midnightblue" stroke="midnightblue" points="764.83,-158.19 761.33,-148.19 757.83,-158.19 764.83,-158.19"/>
</g>
<!-- Node47&#45;&gt;Node42 -->
<g id="edge40" class="edge">
<title>Node47&#45;&gt;Node42</title>
<path fill="none" stroke="midnightblue" d="M1023.27,-190.48C960.81,-178.32 871.8,-161 815.31,-150.01"/>
<polygon fill="midnightblue" stroke="midnightblue" points="815.64,-146.5 805.16,-148.03 814.3,-153.37 815.64,-146.5"/>
</g>
<!-- Node48&#45;&gt;Node6 -->
<g id="edge42" class="edge">
<title>Node48&#45;&gt;Node6</title>
<path fill="none" stroke="midnightblue" d="M2825.83,-190.34C2860.98,-169.39 2925.86,-131.65 2951.33,-123 3035.16,-94.54 3136.66,-82.03 3203.67,-76.59"/>
<polygon fill="midnightblue" stroke="midnightblue" points="3204.02,-80.07 3213.71,-75.8 3203.47,-73.09 3204.02,-80.07"/>
</g>
<!-- Node48&#45;&gt;Node34 -->
<g id="edge43" class="edge">
<title>Node48&#45;&gt;Node34</title>
<path fill="none" stroke="midnightblue" d="M2802.33,-190.4C2802.33,-182.64 2802.33,-172.81 2802.33,-163.86"/>
<polygon fill="midnightblue" stroke="midnightblue" points="2805.83,-163.58 2802.33,-153.58 2798.83,-163.58 2805.83,-163.58"/>
</g>
<!-- Node56 -->
<g id="node40" class="node">
<title>Node56</title>
<g id="a_node40"><a xlink:href="_timer_system_8hpp.html" target="_top" xlink:title="Controls System class.">
<polygon fill="none" stroke="red" points="1672.83,-324.5 1672.83,-354.5 1805.83,-354.5 1805.83,-324.5 1672.83,-324.5"/>
<text text-anchor="start" x="1680.83" y="-342.5" font-family="Helvetica,sans-Serif" font-size="10.00">NekoEngine/ECS/Systems</text>
<text text-anchor="middle" x="1739.33" y="-331.5" font-family="Helvetica,sans-Serif" font-size="10.00">/TimerSystem.hpp</text>
</a>
</g>
</g>
<!-- Node55&#45;&gt;Node56 -->
<g id="edge50" class="edge">
<title>Node55&#45;&gt;Node56</title>
<path fill="none" stroke="midnightblue" d="M1916.57,-391.48C1881.79,-381.47 1834.85,-367.97 1798.01,-357.38"/>
<polygon fill="midnightblue" stroke="midnightblue" points="1798.97,-354.01 1788.39,-354.61 1797.04,-360.74 1798.97,-354.01"/>
</g>
<!-- Node57 -->
<g id="node41" class="node">
<title>Node57</title>
<g id="a_node41"><a xlink:href="_render_system_8hpp.html" target="_top" xlink:title="Render System class.">
<polygon fill="none" stroke="red" points="1823.83,-324.5 1823.83,-354.5 1956.83,-354.5 1956.83,-324.5 1823.83,-324.5"/>
<text text-anchor="start" x="1831.83" y="-342.5" font-family="Helvetica,sans-Serif" font-size="10.00">NekoEngine/ECS/Systems</text>
<text text-anchor="middle" x="1890.33" y="-331.5" font-family="Helvetica,sans-Serif" font-size="10.00">/RenderSystem.hpp</text>
</a>
</g>
</g>
<!-- Node55&#45;&gt;Node57 -->
<g id="edge51" class="edge">
<title>Node55&#45;&gt;Node57</title>
<path fill="none" stroke="midnightblue" d="M1949.06,-391.4C1938.94,-382.62 1925.74,-371.18 1914.41,-361.37"/>
<polygon fill="midnightblue" stroke="midnightblue" points="1916.42,-358.48 1906.57,-354.58 1911.84,-363.77 1916.42,-358.48"/>
</g>
<!-- Node58 -->
<g id="node42" class="node">
<title>Node58</title>
<g id="a_node42"><a xlink:href="_mouse_system_8hpp.html" target="_top" xlink:title="Mouse System class.">
<polygon fill="none" stroke="red" points="1974.83,-324.5 1974.83,-354.5 2107.83,-354.5 2107.83,-324.5 1974.83,-324.5"/>
<text text-anchor="start" x="1982.83" y="-342.5" font-family="Helvetica,sans-Serif" font-size="10.00">NekoEngine/ECS/Systems</text>
<text text-anchor="middle" x="2041.33" y="-331.5" font-family="Helvetica,sans-Serif" font-size="10.00">/MouseSystem.hpp</text>
</a>
</g>
</g>
<!-- Node55&#45;&gt;Node58 -->
<g id="edge52" class="edge">
<title>Node55&#45;&gt;Node58</title>
<path fill="none" stroke="midnightblue" d="M1981.82,-391.4C1992.18,-382.54 2005.72,-370.96 2017.26,-361.09"/>
<polygon fill="midnightblue" stroke="midnightblue" points="2019.55,-363.74 2024.87,-354.58 2015,-358.42 2019.55,-363.74"/>
</g>
<!-- Node59 -->
<g id="node43" class="node">
<title>Node59</title>
<g id="a_node43"><a xlink:href="_text_system_8hpp.html" target="_top" xlink:title=" ">
<polygon fill="none" stroke="red" points="2125.83,-324.5 2125.83,-354.5 2258.83,-354.5 2258.83,-324.5 2125.83,-324.5"/>
<text text-anchor="start" x="2133.83" y="-342.5" font-family="Helvetica,sans-Serif" font-size="10.00">NekoEngine/ECS/Systems</text>
<text text-anchor="middle" x="2192.33" y="-331.5" font-family="Helvetica,sans-Serif" font-size="10.00">/TextSystem.hpp</text>
</a>
</g>
</g>
<!-- Node55&#45;&gt;Node59 -->
<g id="edge53" class="edge">
<title>Node55&#45;&gt;Node59</title>
<path fill="none" stroke="midnightblue" d="M2014.31,-391.48C2049.24,-381.47 2096.39,-367.97 2133.39,-357.38"/>
<polygon fill="midnightblue" stroke="midnightblue" points="2134.4,-360.73 2143.05,-354.61 2132.48,-354 2134.4,-360.73"/>
</g>
<!-- Node60 -->
<g id="node44" class="node">
<title>Node60</title>
<g id="a_node44"><a xlink:href="_pattern_system_8hpp.html" target="_top" xlink:title="Physics System class.">
<polygon fill="none" stroke="red" points="2276.83,-324.5 2276.83,-354.5 2409.83,-354.5 2409.83,-324.5 2276.83,-324.5"/>
<text text-anchor="start" x="2284.83" y="-342.5" font-family="Helvetica,sans-Serif" font-size="10.00">NekoEngine/ECS/Systems</text>
<text text-anchor="middle" x="2343.33" y="-331.5" font-family="Helvetica,sans-Serif" font-size="10.00">/PatternSystem.hpp</text>
</a>
</g>
</g>
<!-- Node55&#45;&gt;Node60 -->
<g id="edge54" class="edge">
<title>Node55&#45;&gt;Node60</title>
<path fill="none" stroke="midnightblue" d="M2031.92,-394.91C2091.08,-385.38 2180.2,-370.75 2266.7,-355.27"/>
<polygon fill="midnightblue" stroke="midnightblue" points="2267.47,-358.69 2276.69,-353.48 2266.23,-351.8 2267.47,-358.69"/>
</g>
<!-- Node61 -->
<g id="node45" class="node">
<title>Node61</title>
<g id="a_node45"><a xlink:href="_background_system_8hpp.html" target="_top" xlink:title=" ">
<polygon fill="none" stroke="red" points="2427.83,-324.5 2427.83,-354.5 2560.83,-354.5 2560.83,-324.5 2427.83,-324.5"/>
<text text-anchor="start" x="2435.83" y="-342.5" font-family="Helvetica,sans-Serif" font-size="10.00">NekoEngine/ECS/Systems</text>
<text text-anchor="middle" x="2494.33" y="-331.5" font-family="Helvetica,sans-Serif" font-size="10.00">/BackgroundSystem.hpp</text>
</a>
</g>
</g>
<!-- Node55&#45;&gt;Node61 -->
<g id="edge55" class="edge">
<title>Node55&#45;&gt;Node61</title>
<path fill="none" stroke="midnightblue" d="M2032.1,-399.76C2118.73,-391.94 2274.79,-376.57 2417.47,-355.21"/>
<polygon fill="midnightblue" stroke="midnightblue" points="2418.36,-358.62 2427.72,-353.67 2417.31,-351.7 2418.36,-358.62"/>
</g>
<!-- Node62 -->
<g id="node46" class="node">
<title>Node62</title>
<g id="a_node46"><a xlink:href="_parallax_system_8hpp.html" target="_top" xlink:title=" ">
<polygon fill="none" stroke="red" points="2578.83,-324.5 2578.83,-354.5 2711.83,-354.5 2711.83,-324.5 2578.83,-324.5"/>
<text text-anchor="start" x="2586.83" y="-342.5" font-family="Helvetica,sans-Serif" font-size="10.00">NekoEngine/ECS/Systems</text>
<text text-anchor="middle" x="2645.33" y="-331.5" font-family="Helvetica,sans-Serif" font-size="10.00">/ParallaxSystem.hpp</text>
</a>
</g>
</g>
<!-- Node55&#45;&gt;Node62 -->
<g id="edge56" class="edge">
<title>Node55&#45;&gt;Node62</title>
<path fill="none" stroke="midnightblue" d="M2031.84,-402.3C2141.65,-396.49 2367.93,-382.35 2568.6,-355.15"/>
<polygon fill="midnightblue" stroke="midnightblue" points="2569.31,-358.59 2578.74,-353.76 2568.36,-351.65 2569.31,-358.59"/>
</g>
<!-- Node63 -->
<g id="node47" class="node">
<title>Node63</title>
<g id="a_node47"><a xlink:href="_animation_system_8hpp.html" target="_top" xlink:title=" ">
<polygon fill="none" stroke="red" points="1521.83,-324.5 1521.83,-354.5 1654.83,-354.5 1654.83,-324.5 1521.83,-324.5"/>
<text text-anchor="start" x="1529.83" y="-342.5" font-family="Helvetica,sans-Serif" font-size="10.00">NekoEngine/ECS/Systems</text>
<text text-anchor="middle" x="1588.33" y="-331.5" font-family="Helvetica,sans-Serif" font-size="10.00">/AnimationSystem.hpp</text>
</a>
</g>
</g>
<!-- Node55&#45;&gt;Node63 -->
<g id="edge57" class="edge">
<title>Node55&#45;&gt;Node63</title>
<path fill="none" stroke="midnightblue" d="M1898.67,-394.85C1839.7,-385.31 1751.04,-370.7 1664.92,-355.26"/>
<polygon fill="midnightblue" stroke="midnightblue" points="1665.43,-351.8 1654.97,-353.47 1664.19,-358.69 1665.43,-351.8"/>
</g>
<!-- Node64 -->
<g id="node48" class="node">
<title>Node64</title>
<g id="a_node48"><a xlink:href="_collision_8hpp.html" target="_top" xlink:title=" ">
<polygon fill="none" stroke="red" points="1370.83,-324.5 1370.83,-354.5 1503.83,-354.5 1503.83,-324.5 1370.83,-324.5"/>
<text text-anchor="start" x="1378.83" y="-342.5" font-family="Helvetica,sans-Serif" font-size="10.00">NekoEngine/ECS/Systems</text>
<text text-anchor="middle" x="1437.33" y="-331.5" font-family="Helvetica,sans-Serif" font-size="10.00">/Collision.hpp</text>
</a>
</g>
</g>
<!-- Node55&#45;&gt;Node64 -->
<g id="edge58" class="edge">
<title>Node55&#45;&gt;Node64</title>
<path fill="none" stroke="midnightblue" d="M1898.72,-399.75C1812.27,-391.92 1656.56,-376.54 1514.17,-355.21"/>
<polygon fill="midnightblue" stroke="midnightblue" points="1514.35,-351.7 1503.94,-353.66 1513.3,-358.62 1514.35,-351.7"/>
</g>
<!-- Node64&#45;&gt;Node13 -->
<g id="edge60" class="edge">
<title>Node64&#45;&gt;Node13</title>
<path fill="none" stroke="midnightblue" d="M1370.52,-333.43C1218.33,-321.87 845.68,-293.57 672.53,-280.42"/>
<polygon fill="midnightblue" stroke="midnightblue" points="672.66,-276.92 662.42,-279.66 672.13,-283.9 672.66,-276.92"/>
</g>
<!-- Node64&#45;&gt;Node33 -->
<g id="edge59" class="edge">
<title>Node64&#45;&gt;Node33</title>
<path fill="none" stroke="midnightblue" d="M1503.93,-325.25C1506.76,-324.8 1509.57,-324.38 1512.33,-324 1689.48,-299.3 1898.6,-284.74 2012.65,-278.02"/>
<polygon fill="midnightblue" stroke="midnightblue" points="2012.93,-281.51 2022.71,-277.43 2012.53,-274.52 2012.93,-281.51"/>
</g>
<!-- Node68&#45;&gt;Node6 -->
<g id="edge63" class="edge">
<title>Node68&#45;&gt;Node6</title>
<path fill="none" stroke="midnightblue" d="M2841.1,-334.18C2961.39,-323.58 3238.97,-291.83 3295.33,-221 3324.08,-184.88 3303.79,-127.39 3288.67,-95.58"/>
<polygon fill="midnightblue" stroke="midnightblue" points="3291.78,-93.98 3284.2,-86.58 3285.51,-97.09 3291.78,-93.98"/>
</g>
<!-- Node68&#45;&gt;Node33 -->
<g id="edge62" class="edge">
<title>Node68&#45;&gt;Node33</title>
<path fill="none" stroke="midnightblue" d="M2729.57,-325.38C2726.79,-324.88 2724.03,-324.41 2721.33,-324 2530.03,-294.74 2302.96,-281.75 2182.43,-276.56"/>
<polygon fill="midnightblue" stroke="midnightblue" points="2182.31,-273.05 2172.17,-276.12 2182.01,-280.04 2182.31,-273.05"/>
</g>
<!-- Node77&#45;&gt;Node42 -->
<g id="edge65" class="edge">
<title>Node77&#45;&gt;Node42</title>
<path fill="none" stroke="midnightblue" d="M368.32,-463.31C267.75,-452.5 2.33,-416.75 2.33,-340.5 2.33,-340.5 2.33,-340.5 2.33,-271.5 2.33,-234.31 -7,-214.1 21.33,-190 72.4,-146.55 530.14,-140.37 699.07,-139.58"/>
<polygon fill="midnightblue" stroke="midnightblue" points="699.3,-143.08 709.29,-139.54 699.27,-136.08 699.3,-143.08"/>
</g>
</g>
</svg>
