<?xml version="1.0" encoding="UTF-8" standalone="no"?>
<!DOCTYPE svg PUBLIC "-//W3C//DTD SVG 1.1//EN"
 "http://www.w3.org/Graphics/SVG/1.1/DTD/svg11.dtd">
<!-- Generated by graphviz version 2.49.3 (20211027.1501)
 -->
<!-- Title: Client/src/PlayerSystem.cpp Pages: 1 -->
<svg width="3615pt" height="531pt"
 viewBox="0.00 0.00 3614.66 531.00" xmlns="http://www.w3.org/2000/svg" xmlns:xlink="http://www.w3.org/1999/xlink">
<g id="graph0" class="graph" transform="scale(1 1) rotate(0) translate(4 527)">
<title>Client/src/PlayerSystem.cpp</title>
<!-- Node1 -->
<g id="node1" class="node">
<title>Node1</title>
<g id="a_node1"><a xlink:title=" ">
<polygon fill="#bfbfbf" stroke="black" points="1680.5,-503.5 1680.5,-522.5 1819.5,-522.5 1819.5,-503.5 1680.5,-503.5"/>
<text text-anchor="middle" x="1750" y="-510.5" font-family="Helvetica,sans-Serif" font-size="10.00">Client/src/PlayerSystem.cpp</text>
</a>
</g>
</g>
<!-- Node2 -->
<g id="node2" class="node">
<title>Node2</title>
<g id="a_node2"><a xlink:href="_player_system_8hpp.html" target="_top" xlink:title=" ">
<polygon fill="none" stroke="black" points="1732,-447.5 1732,-466.5 1860,-466.5 1860,-447.5 1732,-447.5"/>
<text text-anchor="middle" x="1796" y="-454.5" font-family="Helvetica,sans-Serif" font-size="10.00">include/PlayerSystem.hpp</text>
</a>
</g>
</g>
<!-- Node1&#45;&gt;Node2 -->
<g id="edge1" class="edge">
<title>Node1&#45;&gt;Node2</title>
<path fill="none" stroke="midnightblue" d="M1757.6,-503.08C1764.23,-495.3 1774.02,-483.8 1782.06,-474.37"/>
<polygon fill="midnightblue" stroke="midnightblue" points="1784.73,-476.63 1788.55,-466.75 1779.4,-472.09 1784.73,-476.63"/>
</g>
<!-- Node3 -->
<g id="node3" class="node">
<title>Node3</title>
<g id="a_node3"><a xlink:href="_neko_engine_8hpp.html" target="_top" xlink:title=" ">
<polygon fill="none" stroke="black" points="1632.5,-391.5 1632.5,-410.5 1775.5,-410.5 1775.5,-391.5 1632.5,-391.5"/>
<text text-anchor="middle" x="1704" y="-398.5" font-family="Helvetica,sans-Serif" font-size="10.00">NekoEngine/NekoEngine.hpp</text>
</a>
</g>
</g>
<!-- Node1&#45;&gt;Node3 -->
<g id="edge64" class="edge">
<title>Node1&#45;&gt;Node3</title>
<path fill="none" stroke="midnightblue" d="M1743.92,-503.4C1737.93,-494.59 1728.84,-480.36 1723,-467 1716.37,-451.85 1711.29,-433.73 1708.06,-420.48"/>
<polygon fill="midnightblue" stroke="midnightblue" points="1711.45,-419.61 1705.79,-410.66 1704.63,-421.19 1711.45,-419.61"/>
</g>
<!-- Node2&#45;&gt;Node3 -->
<g id="edge2" class="edge">
<title>Node2&#45;&gt;Node3</title>
<path fill="none" stroke="midnightblue" d="M1781.22,-447.32C1766.73,-438.82 1744.43,-425.73 1727.51,-415.8"/>
<polygon fill="midnightblue" stroke="midnightblue" points="1729.14,-412.7 1718.74,-410.65 1725.6,-418.74 1729.14,-412.7"/>
</g>
<!-- Node78 -->
<g id="node50" class="node">
<title>Node78</title>
<g id="a_node50"><a xlink:href="_controller_8hpp.html" target="_top" xlink:title=" ">
<polygon fill="none" stroke="black" points="2708,-391.5 2708,-410.5 2784,-410.5 2784,-391.5 2708,-391.5"/>
<text text-anchor="middle" x="2746" y="-398.5" font-family="Helvetica,sans-Serif" font-size="10.00">Controller.hpp</text>
</a>
</g>
</g>
<!-- Node2&#45;&gt;Node78 -->
<g id="edge62" class="edge">
<title>Node2&#45;&gt;Node78</title>
<path fill="none" stroke="midnightblue" d="M1860.18,-452.35C2038.85,-442.2 2539.24,-413.75 2697.42,-404.76"/>
<polygon fill="midnightblue" stroke="midnightblue" points="2697.99,-408.23 2707.78,-404.17 2697.59,-401.25 2697.99,-408.23"/>
</g>
<!-- Node4 -->
<g id="node4" class="node">
<title>Node4</title>
<g id="a_node4"><a xlink:href="_neko_exception_8hpp.html" target="_top" xlink:title="Contains the NekoEngine main exception type.">
<polygon fill="none" stroke="black" points="277.5,-257.5 277.5,-287.5 414.5,-287.5 414.5,-257.5 277.5,-257.5"/>
<text text-anchor="start" x="285.5" y="-275.5" font-family="Helvetica,sans-Serif" font-size="10.00">NekoEngine/NekoException</text>
<text text-anchor="middle" x="346" y="-264.5" font-family="Helvetica,sans-Serif" font-size="10.00">/NekoException.hpp</text>
</a>
</g>
</g>
<!-- Node3&#45;&gt;Node4 -->
<g id="edge3" class="edge">
<title>Node3&#45;&gt;Node4</title>
<path fill="none" stroke="midnightblue" d="M1632.48,-391.79C1500.64,-376.86 1210.3,-344.84 965,-324 727.1,-303.78 666.04,-316.58 429,-288 427.69,-287.84 426.38,-287.68 425.05,-287.51"/>
<polygon fill="midnightblue" stroke="midnightblue" points="425.14,-283.99 414.76,-286.09 424.19,-290.92 425.14,-283.99"/>
</g>
<!-- Node6 -->
<g id="node6" class="node">
<title>Node6</title>
<g id="a_node6"><a xlink:href="_neko_window_exception_8hpp.html" target="_top" xlink:title="WindowException handling class inheriting from NekoException.">
<polygon fill="none" stroke="black" points="819.5,-324.5 819.5,-354.5 956.5,-354.5 956.5,-324.5 819.5,-324.5"/>
<text text-anchor="start" x="827.5" y="-342.5" font-family="Helvetica,sans-Serif" font-size="10.00">NekoEngine/Graphics</text>
<text text-anchor="middle" x="888" y="-331.5" font-family="Helvetica,sans-Serif" font-size="10.00">/NekoWindowException.hpp</text>
</a>
</g>
</g>
<!-- Node3&#45;&gt;Node6 -->
<g id="edge5" class="edge">
<title>Node3&#45;&gt;Node6</title>
<path fill="none" stroke="midnightblue" d="M1632.3,-394.77C1479.99,-383.67 1125.18,-357.79 966.79,-346.25"/>
<polygon fill="midnightblue" stroke="midnightblue" points="966.88,-342.74 956.65,-345.51 966.37,-349.72 966.88,-342.74"/>
</g>
<!-- Node7 -->
<g id="node7" class="node">
<title>Node7</title>
<g id="a_node7"><a xlink:href="_vector_8hpp.html" target="_top" xlink:title="Contains all headers for all Vector types.">
<polygon fill="none" stroke="black" points="1503.5,-56.5 1503.5,-86.5 1628.5,-86.5 1628.5,-56.5 1503.5,-56.5"/>
<text text-anchor="start" x="1511.5" y="-74.5" font-family="Helvetica,sans-Serif" font-size="10.00">NekoEngine/Math/Vector</text>
<text text-anchor="middle" x="1566" y="-63.5" font-family="Helvetica,sans-Serif" font-size="10.00">/Vector.hpp</text>
</a>
</g>
</g>
<!-- Node3&#45;&gt;Node7 -->
<g id="edge7" class="edge">
<title>Node3&#45;&gt;Node7</title>
<path fill="none" stroke="midnightblue" d="M1716.97,-391.38C1757.25,-365.16 1884.6,-286.35 2003,-257 2051.79,-244.91 2872.17,-257.24 2907,-221 2916.55,-211.07 2909.27,-203.59 2907,-190 2901.82,-158.95 2909.27,-141.78 2884,-123 2833.76,-85.66 1907.55,-75.26 1638.63,-73.03"/>
<polygon fill="midnightblue" stroke="midnightblue" points="1638.62,-69.53 1628.59,-72.94 1638.56,-76.53 1638.62,-69.53"/>
</g>
<!-- Node11 -->
<g id="node11" class="node">
<title>Node11</title>
<g id="a_node11"><a xlink:href="_quaternion_8hpp.html" target="_top" xlink:title="Utmost basic implementation of a Quaternion, i.e. just a Vector4.">
<polygon fill="none" stroke="black" points="0,-123.5 0,-153.5 144,-153.5 144,-123.5 0,-123.5"/>
<text text-anchor="start" x="8" y="-141.5" font-family="Helvetica,sans-Serif" font-size="10.00">NekoEngine/Math/Quaternion</text>
<text text-anchor="middle" x="72" y="-130.5" font-family="Helvetica,sans-Serif" font-size="10.00">/Quaternion.hpp</text>
</a>
</g>
</g>
<!-- Node3&#45;&gt;Node11 -->
<g id="edge11" class="edge">
<title>Node3&#45;&gt;Node11</title>
<path fill="none" stroke="midnightblue" d="M1632.47,-400.08C1336.47,-400.14 220.1,-397.53 159,-355 94.93,-310.4 78.01,-210.11 73.57,-163.8"/>
<polygon fill="midnightblue" stroke="midnightblue" points="77.05,-163.42 72.72,-153.75 70.07,-164.01 77.05,-163.42"/>
</g>
<!-- Node12 -->
<g id="node12" class="node">
<title>Node12</title>
<g id="a_node12"><a xlink:href="_matrix_8hpp.html" target="_top" xlink:title="Contains Matrix template class.">
<polygon fill="none" stroke="black" points="168.5,-324.5 168.5,-354.5 291.5,-354.5 291.5,-324.5 168.5,-324.5"/>
<text text-anchor="start" x="176.5" y="-342.5" font-family="Helvetica,sans-Serif" font-size="10.00">NekoEngine/Math/Matrix</text>
<text text-anchor="middle" x="230" y="-331.5" font-family="Helvetica,sans-Serif" font-size="10.00">/Matrix.hpp</text>
</a>
</g>
</g>
<!-- Node3&#45;&gt;Node12 -->
<g id="edge13" class="edge">
<title>Node3&#45;&gt;Node12</title>
<path fill="none" stroke="midnightblue" d="M1632.41,-397.11C1382.63,-387.03 551.41,-353.47 301.61,-343.39"/>
<polygon fill="midnightblue" stroke="midnightblue" points="301.69,-339.89 291.56,-342.98 301.41,-346.89 301.69,-339.89"/>
</g>
<!-- Node14 -->
<g id="node14" class="node">
<title>Node14</title>
<g id="a_node14"><a xlink:href="_coordinator_8hpp.html" target="_top" xlink:title="Coordinator class.">
<polygon fill="none" stroke="black" points="3221,-263 3221,-282 3383,-282 3383,-263 3221,-263"/>
<text text-anchor="middle" x="3302" y="-270" font-family="Helvetica,sans-Serif" font-size="10.00">NekoEngine/ECS/Coordinator.hpp</text>
</a>
</g>
</g>
<!-- Node3&#45;&gt;Node14 -->
<g id="edge16" class="edge">
<title>Node3&#45;&gt;Node14</title>
<path fill="none" stroke="midnightblue" d="M1775.66,-398.87C1999.71,-395.11 2685.2,-381.67 2906,-355 3036.35,-339.26 3187.63,-303.01 3259.66,-284.63"/>
<polygon fill="midnightblue" stroke="midnightblue" points="3260.89,-287.92 3269.7,-282.05 3259.15,-281.14 3260.89,-287.92"/>
</g>
<!-- Node33 -->
<g id="node19" class="node">
<title>Node33</title>
<g id="a_node19"><a xlink:href="_scene_8hpp.html" target="_top" xlink:title="Scene class.">
<polygon fill="none" stroke="black" points="2743,-330 2743,-349 2897,-349 2897,-330 2743,-330"/>
<text text-anchor="middle" x="2820" y="-337" font-family="Helvetica,sans-Serif" font-size="10.00">NekoEngine/Scenes/Scene.hpp</text>
</a>
</g>
</g>
<!-- Node3&#45;&gt;Node33 -->
<g id="edge22" class="edge">
<title>Node3&#45;&gt;Node33</title>
<path fill="none" stroke="midnightblue" d="M1775.51,-396.89C1928.36,-390.15 2298.19,-373.3 2608,-355 2649.07,-352.57 2694.6,-349.51 2732.9,-346.82"/>
<polygon fill="midnightblue" stroke="midnightblue" points="2733.26,-350.31 2742.99,-346.11 2732.77,-343.32 2733.26,-350.31"/>
</g>
<!-- Node34 -->
<g id="node20" class="node">
<title>Node34</title>
<g id="a_node20"><a xlink:href="_components_8hpp.html" target="_top" xlink:title="Components.">
<polygon fill="none" stroke="black" points="1587.5,-257.5 1587.5,-287.5 1736.5,-287.5 1736.5,-257.5 1587.5,-257.5"/>
<text text-anchor="start" x="1595.5" y="-275.5" font-family="Helvetica,sans-Serif" font-size="10.00">NekoEngine/ECS/Components</text>
<text text-anchor="middle" x="1662" y="-264.5" font-family="Helvetica,sans-Serif" font-size="10.00">/Components.hpp</text>
</a>
</g>
</g>
<!-- Node3&#45;&gt;Node34 -->
<g id="edge24" class="edge">
<title>Node3&#45;&gt;Node34</title>
<path fill="none" stroke="midnightblue" d="M1702.2,-391.44C1699.11,-377.23 1692.32,-347.97 1684,-324 1680.89,-315.04 1676.89,-305.44 1673.15,-297.04"/>
<polygon fill="midnightblue" stroke="midnightblue" points="1676.29,-295.5 1668.96,-287.85 1669.92,-298.4 1676.29,-295.5"/>
</g>
<!-- Node56 -->
<g id="node40" class="node">
<title>Node56</title>
<g id="a_node40"><a xlink:href="_systems_8hpp.html" target="_top" xlink:title="Systems.">
<polygon fill="none" stroke="red" points="2465.5,-324.5 2465.5,-354.5 2598.5,-354.5 2598.5,-324.5 2465.5,-324.5"/>
<text text-anchor="start" x="2473.5" y="-342.5" font-family="Helvetica,sans-Serif" font-size="10.00">NekoEngine/ECS/Systems</text>
<text text-anchor="middle" x="2532" y="-331.5" font-family="Helvetica,sans-Serif" font-size="10.00">/Systems.hpp</text>
</a>
</g>
</g>
<!-- Node3&#45;&gt;Node56 -->
<g id="edge50" class="edge">
<title>Node3&#45;&gt;Node56</title>
<path fill="none" stroke="midnightblue" d="M1775.67,-394.85C1930.59,-383.72 2295.53,-357.49 2455.08,-346.03"/>
<polygon fill="midnightblue" stroke="midnightblue" points="2455.56,-349.5 2465.29,-345.29 2455.06,-342.52 2455.56,-349.5"/>
</g>
<!-- Node69 -->
<g id="node49" class="node">
<title>Node69</title>
<g id="a_node49"><a xlink:href="_window_8hpp.html" target="_top" xlink:title="Contains the NekoEngine Window class wrapper.">
<polygon fill="none" stroke="red" points="1564.5,-324.5 1564.5,-354.5 1675.5,-354.5 1675.5,-324.5 1564.5,-324.5"/>
<text text-anchor="start" x="1572.5" y="-342.5" font-family="Helvetica,sans-Serif" font-size="10.00">NekoEngine/Graphics</text>
<text text-anchor="middle" x="1620" y="-331.5" font-family="Helvetica,sans-Serif" font-size="10.00">/Window.hpp</text>
</a>
</g>
</g>
<!-- Node3&#45;&gt;Node69 -->
<g id="edge59" class="edge">
<title>Node3&#45;&gt;Node69</title>
<path fill="none" stroke="midnightblue" d="M1691.96,-391.48C1680.59,-383.42 1663.09,-371.02 1648.2,-360.47"/>
<polygon fill="midnightblue" stroke="midnightblue" points="1649.98,-357.45 1639.8,-354.52 1645.93,-363.16 1649.98,-357.45"/>
</g>
<!-- Node5 -->
<g id="node5" class="node">
<title>Node5</title>
<g id="a_node5"><a xlink:title=" ">
<polygon fill="none" stroke="#bfbfbf" points="200.5,-196 200.5,-215 241.5,-215 241.5,-196 200.5,-196"/>
<text text-anchor="middle" x="221" y="-203" font-family="Helvetica,sans-Serif" font-size="10.00">string</text>
</a>
</g>
</g>
<!-- Node4&#45;&gt;Node5 -->
<g id="edge4" class="edge">
<title>Node4&#45;&gt;Node5</title>
<path fill="none" stroke="midnightblue" d="M318.88,-257.4C297.33,-246.19 267.43,-230.64 246.36,-219.69"/>
<polygon fill="midnightblue" stroke="midnightblue" points="247.85,-216.52 237.36,-215.01 244.62,-222.73 247.85,-216.52"/>
</g>
<!-- Node6&#45;&gt;Node4 -->
<g id="edge6" class="edge">
<title>Node6&#45;&gt;Node4</title>
<path fill="none" stroke="midnightblue" d="M819.4,-332.32C729.52,-323.91 567.1,-307.64 429,-288 427.7,-287.81 426.38,-287.62 425.06,-287.43"/>
<polygon fill="midnightblue" stroke="midnightblue" points="425.2,-283.91 414.79,-285.86 424.15,-290.83 425.2,-283.91"/>
</g>
<!-- Node8 -->
<g id="node8" class="node">
<title>Node8</title>
<g id="a_node8"><a xlink:href="_vector2_8hpp.html" target="_top" xlink:title="Contains Vector2 template class.">
<polygon fill="none" stroke="black" points="1446,-0.5 1446,-19.5 1514,-19.5 1514,-0.5 1446,-0.5"/>
<text text-anchor="middle" x="1480" y="-7.5" font-family="Helvetica,sans-Serif" font-size="10.00">Vector2.hpp</text>
</a>
</g>
</g>
<!-- Node7&#45;&gt;Node8 -->
<g id="edge8" class="edge">
<title>Node7&#45;&gt;Node8</title>
<path fill="none" stroke="midnightblue" d="M1545.62,-56.4C1532.09,-47.04 1514.39,-34.79 1500.78,-25.38"/>
<polygon fill="midnightblue" stroke="midnightblue" points="1502.73,-22.47 1492.51,-19.66 1498.75,-28.23 1502.73,-22.47"/>
</g>
<!-- Node9 -->
<g id="node9" class="node">
<title>Node9</title>
<g id="a_node9"><a xlink:href="_vector3_8hpp.html" target="_top" xlink:title="Contains Vector3 template class.">
<polygon fill="none" stroke="black" points="1532,-0.5 1532,-19.5 1600,-19.5 1600,-0.5 1532,-0.5"/>
<text text-anchor="middle" x="1566" y="-7.5" font-family="Helvetica,sans-Serif" font-size="10.00">Vector3.hpp</text>
</a>
</g>
</g>
<!-- Node7&#45;&gt;Node9 -->
<g id="edge9" class="edge">
<title>Node7&#45;&gt;Node9</title>
<path fill="none" stroke="midnightblue" d="M1566,-56.4C1566,-48.47 1566,-38.46 1566,-29.86"/>
<polygon fill="midnightblue" stroke="midnightblue" points="1569.5,-29.66 1566,-19.66 1562.5,-29.66 1569.5,-29.66"/>
</g>
<!-- Node10 -->
<g id="node10" class="node">
<title>Node10</title>
<g id="a_node10"><a xlink:href="_vector4_8hpp.html" target="_top" xlink:title="Contains Vector4 template class.">
<polygon fill="none" stroke="black" points="1618,-0.5 1618,-19.5 1686,-19.5 1686,-0.5 1618,-0.5"/>
<text text-anchor="middle" x="1652" y="-7.5" font-family="Helvetica,sans-Serif" font-size="10.00">Vector4.hpp</text>
</a>
</g>
</g>
<!-- Node7&#45;&gt;Node10 -->
<g id="edge10" class="edge">
<title>Node7&#45;&gt;Node10</title>
<path fill="none" stroke="midnightblue" d="M1586.38,-56.4C1599.91,-47.04 1617.61,-34.79 1631.22,-25.38"/>
<polygon fill="midnightblue" stroke="midnightblue" points="1633.25,-28.23 1639.49,-19.66 1629.27,-22.47 1633.25,-28.23"/>
</g>
<!-- Node11&#45;&gt;Node7 -->
<g id="edge12" class="edge">
<title>Node11&#45;&gt;Node7</title>
<path fill="none" stroke="midnightblue" d="M144.17,-124.63C148.84,-124.01 153.48,-123.46 158,-123 420.97,-96.23 1243.49,-78.67 1493.31,-73.85"/>
<polygon fill="midnightblue" stroke="midnightblue" points="1493.44,-77.34 1503.37,-73.65 1493.3,-70.35 1493.44,-77.34"/>
</g>
<!-- Node12&#45;&gt;Node7 -->
<g id="edge14" class="edge">
<title>Node12&#45;&gt;Node7</title>
<path fill="none" stroke="midnightblue" d="M214.74,-324.17C205.94,-314.83 195.72,-301.84 191,-288 176.94,-246.78 165.31,-225.17 191,-190 248.8,-110.9 304.55,-140.16 401,-123 612.16,-85.43 1271.87,-75.46 1492.95,-73.13"/>
<polygon fill="midnightblue" stroke="midnightblue" points="1493.18,-76.63 1503.15,-73.03 1493.11,-69.63 1493.18,-76.63"/>
</g>
<!-- Node13 -->
<g id="node13" class="node">
<title>Node13</title>
<g id="a_node13"><a xlink:title=" ">
<polygon fill="none" stroke="#bfbfbf" points="200.5,-263 200.5,-282 259.5,-282 259.5,-263 200.5,-263"/>
<text text-anchor="middle" x="230" y="-270" font-family="Helvetica,sans-Serif" font-size="10.00">Matrix.tpp</text>
</a>
</g>
</g>
<!-- Node12&#45;&gt;Node13 -->
<g id="edge15" class="edge">
<title>Node12&#45;&gt;Node13</title>
<path fill="none" stroke="midnightblue" d="M230,-324.4C230,-315.06 230,-302.71 230,-292.52"/>
<polygon fill="midnightblue" stroke="midnightblue" points="233.5,-292.19 230,-282.19 226.5,-292.19 233.5,-292.19"/>
</g>
<!-- Node15 -->
<g id="node15" class="node">
<title>Node15</title>
<g id="a_node15"><a xlink:href="_component_manager_8hpp.html" target="_top" xlink:title="Component Manmager class.">
<polygon fill="none" stroke="red" points="3053,-190.5 3053,-220.5 3197,-220.5 3197,-190.5 3053,-190.5"/>
<text text-anchor="start" x="3061" y="-208.5" font-family="Helvetica,sans-Serif" font-size="10.00">NekoEngine/ECS/Component</text>
<text text-anchor="middle" x="3125" y="-197.5" font-family="Helvetica,sans-Serif" font-size="10.00">Manager.hpp</text>
</a>
</g>
</g>
<!-- Node14&#45;&gt;Node15 -->
<g id="edge17" class="edge">
<title>Node14&#45;&gt;Node15</title>
<path fill="none" stroke="midnightblue" d="M3278.5,-262.87C3251.71,-253.03 3207.21,-236.69 3173,-224.13"/>
<polygon fill="midnightblue" stroke="midnightblue" points="3173.79,-220.69 3163.2,-220.53 3171.38,-227.26 3173.79,-220.69"/>
</g>
<!-- Node26 -->
<g id="node16" class="node">
<title>Node26</title>
<g id="a_node16"><a xlink:href="_entity_manager_8hpp.html" target="_top" xlink:title="Entities are fun.">
<polygon fill="none" stroke="red" points="3215,-196 3215,-215 3389,-215 3389,-196 3215,-196"/>
<text text-anchor="middle" x="3302" y="-203" font-family="Helvetica,sans-Serif" font-size="10.00">NekoEngine/ECS/EntityManager.hpp</text>
</a>
</g>
</g>
<!-- Node14&#45;&gt;Node26 -->
<g id="edge18" class="edge">
<title>Node14&#45;&gt;Node26</title>
<path fill="none" stroke="midnightblue" d="M3302,-262.73C3302,-253.18 3302,-237.62 3302,-225.28"/>
<polygon fill="midnightblue" stroke="midnightblue" points="3305.5,-225.13 3302,-215.13 3298.5,-225.13 3305.5,-225.13"/>
</g>
<!-- Node28 -->
<g id="node17" class="node">
<title>Node28</title>
<g id="a_node17"><a xlink:href="_system_manager_8hpp.html" target="_top" xlink:title=" ">
<polygon fill="none" stroke="red" points="3407.5,-196 3407.5,-215 3590.5,-215 3590.5,-196 3407.5,-196"/>
<text text-anchor="middle" x="3499" y="-203" font-family="Helvetica,sans-Serif" font-size="10.00">NekoEngine/ECS/SystemManager.hpp</text>
</a>
</g>
</g>
<!-- Node14&#45;&gt;Node28 -->
<g id="edge19" class="edge">
<title>Node14&#45;&gt;Node28</title>
<path fill="none" stroke="midnightblue" d="M3323.4,-262.87C3355.85,-251.35 3417.58,-230.92 3458.6,-218.08"/>
<polygon fill="midnightblue" stroke="midnightblue" points="3459.79,-221.37 3468.3,-215.06 3457.71,-214.69 3459.79,-221.37"/>
</g>
<!-- Node32 -->
<g id="node18" class="node">
<title>Node32</title>
<g id="a_node18"><a xlink:title=" ">
<polygon fill="none" stroke="#bfbfbf" points="2953,-196 2953,-215 3035,-215 3035,-196 2953,-196"/>
<text text-anchor="middle" x="2994" y="-203" font-family="Helvetica,sans-Serif" font-size="10.00">Coordinator.tpp</text>
</a>
</g>
</g>
<!-- Node14&#45;&gt;Node32 -->
<g id="edge21" class="edge">
<title>Node14&#45;&gt;Node32</title>
<path fill="none" stroke="midnightblue" d="M3251.29,-262.95C3199.05,-253.82 3115.42,-238.31 3044,-221 3039.95,-220.02 3035.73,-218.92 3031.55,-217.78"/>
<polygon fill="midnightblue" stroke="midnightblue" points="3032.49,-214.41 3021.91,-215.07 3030.59,-221.15 3032.49,-214.41"/>
</g>
<!-- Node28&#45;&gt;Node14 -->
<g id="edge20" class="edge">
<title>Node28&#45;&gt;Node14</title>
<path fill="none" stroke="midnightblue" d="M3477.79,-215.06C3445.46,-226.55 3383.74,-246.97 3342.64,-259.85"/>
<polygon fill="midnightblue" stroke="midnightblue" points="3341.43,-256.56 3332.92,-262.87 3343.51,-263.24 3341.43,-256.56"/>
</g>
<!-- Node33&#45;&gt;Node14 -->
<g id="edge23" class="edge">
<title>Node33&#45;&gt;Node14</title>
<path fill="none" stroke="midnightblue" d="M2891.62,-329.96C2970.29,-320.43 3100.29,-304.19 3212,-288 3221.3,-286.65 3231.13,-285.15 3240.74,-283.64"/>
<polygon fill="midnightblue" stroke="midnightblue" points="3241.32,-287.09 3250.64,-282.06 3240.22,-280.18 3241.32,-287.09"/>
</g>
<!-- Node35 -->
<g id="node21" class="node">
<title>Node35</title>
<g id="a_node21"><a xlink:href="_transform_8hpp.html" target="_top" xlink:title="Transform component.">
<polygon fill="none" stroke="black" points="1440.5,-123.5 1440.5,-153.5 1589.5,-153.5 1589.5,-123.5 1440.5,-123.5"/>
<text text-anchor="start" x="1448.5" y="-141.5" font-family="Helvetica,sans-Serif" font-size="10.00">NekoEngine/ECS/Components</text>
<text text-anchor="middle" x="1515" y="-130.5" font-family="Helvetica,sans-Serif" font-size="10.00">/Transform.hpp</text>
</a>
</g>
</g>
<!-- Node34&#45;&gt;Node35 -->
<g id="edge25" class="edge">
<title>Node34&#45;&gt;Node35</title>
<path fill="none" stroke="midnightblue" d="M1587.23,-271.51C1312.14,-271.17 369.97,-266.67 326,-221 316.44,-211.08 316.47,-199.95 326,-190 364.11,-150.23 1163.97,-141.68 1429.89,-139.93"/>
<polygon fill="midnightblue" stroke="midnightblue" points="1430.28,-143.43 1440.26,-139.86 1430.23,-136.43 1430.28,-143.43"/>
</g>
<!-- Node36 -->
<g id="node22" class="node">
<title>Node36</title>
<g id="a_node22"><a xlink:href="_timer_8hpp.html" target="_top" xlink:title="Timer component.">
<polygon fill="none" stroke="red" points="1913.5,-190.5 1913.5,-220.5 2062.5,-220.5 2062.5,-190.5 1913.5,-190.5"/>
<text text-anchor="start" x="1921.5" y="-208.5" font-family="Helvetica,sans-Serif" font-size="10.00">NekoEngine/ECS/Components</text>
<text text-anchor="middle" x="1988" y="-197.5" font-family="Helvetica,sans-Serif" font-size="10.00">/Timer.hpp</text>
</a>
</g>
</g>
<!-- Node34&#45;&gt;Node36 -->
<g id="edge27" class="edge">
<title>Node34&#45;&gt;Node36</title>
<path fill="none" stroke="midnightblue" d="M1732.34,-257.48C1783.88,-247.2 1853.93,-233.23 1907.67,-222.52"/>
<polygon fill="midnightblue" stroke="midnightblue" points="1908.39,-225.94 1917.51,-220.55 1907.02,-219.08 1908.39,-225.94"/>
</g>
<!-- Node38 -->
<g id="node23" class="node">
<title>Node38</title>
<g id="a_node23"><a xlink:href="_renderable_8hpp.html" target="_top" xlink:title="Renderable component.">
<polygon fill="none" stroke="black" points="2080.5,-190.5 2080.5,-220.5 2229.5,-220.5 2229.5,-190.5 2080.5,-190.5"/>
<text text-anchor="start" x="2088.5" y="-208.5" font-family="Helvetica,sans-Serif" font-size="10.00">NekoEngine/ECS/Components</text>
<text text-anchor="middle" x="2155" y="-197.5" font-family="Helvetica,sans-Serif" font-size="10.00">/Renderable.hpp</text>
</a>
</g>
</g>
<!-- Node34&#45;&gt;Node38 -->
<g id="edge28" class="edge">
<title>Node34&#45;&gt;Node38</title>
<path fill="none" stroke="midnightblue" d="M1736.78,-263.36C1816.73,-254.41 1947.46,-239.06 2070.4,-221.04"/>
<polygon fill="midnightblue" stroke="midnightblue" points="2070.99,-224.49 2080.37,-219.57 2069.97,-217.57 2070.99,-224.49"/>
</g>
<!-- Node39 -->
<g id="node24" class="node">
<title>Node39</title>
<g id="a_node24"><a xlink:href="_color_8hpp.html" target="_top" xlink:title="Color component.">
<polygon fill="none" stroke="red" points="2247.5,-190.5 2247.5,-220.5 2396.5,-220.5 2396.5,-190.5 2247.5,-190.5"/>
<text text-anchor="start" x="2255.5" y="-208.5" font-family="Helvetica,sans-Serif" font-size="10.00">NekoEngine/ECS/Components</text>
<text text-anchor="middle" x="2322" y="-197.5" font-family="Helvetica,sans-Serif" font-size="10.00">/Color.hpp</text>
</a>
</g>
</g>
<!-- Node34&#45;&gt;Node39 -->
<g id="edge29" class="edge">
<title>Node34&#45;&gt;Node39</title>
<path fill="none" stroke="midnightblue" d="M1736.78,-266.95C1844.91,-259.91 2051.39,-244.82 2237.43,-221"/>
<polygon fill="midnightblue" stroke="midnightblue" points="2237.92,-224.46 2247.39,-219.71 2237.03,-217.52 2237.92,-224.46"/>
</g>
<!-- Node40 -->
<g id="node25" class="node">
<title>Node40</title>
<g id="a_node25"><a xlink:href="_rigid_body_8hpp.html" target="_top" xlink:title="RigidBody component.">
<polygon fill="none" stroke="black" points="1644.5,-123.5 1644.5,-153.5 1793.5,-153.5 1793.5,-123.5 1644.5,-123.5"/>
<text text-anchor="start" x="1652.5" y="-141.5" font-family="Helvetica,sans-Serif" font-size="10.00">NekoEngine/ECS/Components</text>
<text text-anchor="middle" x="1719" y="-130.5" font-family="Helvetica,sans-Serif" font-size="10.00">/RigidBody.hpp</text>
</a>
</g>
</g>
<!-- Node34&#45;&gt;Node40 -->
<g id="edge30" class="edge">
<title>Node34&#45;&gt;Node40</title>
<path fill="none" stroke="midnightblue" d="M1736.69,-268.32C1770.55,-262.67 1807.7,-249.7 1829,-221 1849.22,-193.76 1812.69,-171.56 1776.41,-157.24"/>
<polygon fill="midnightblue" stroke="midnightblue" points="1777.33,-153.85 1766.73,-153.6 1774.86,-160.4 1777.33,-153.85"/>
</g>
<!-- Node41 -->
<g id="node26" class="node">
<title>Node41</title>
<g id="a_node26"><a xlink:href="_gravity_8hpp.html" target="_top" xlink:title="Gravity component.">
<polygon fill="none" stroke="black" points="1811.5,-123.5 1811.5,-153.5 1960.5,-153.5 1960.5,-123.5 1811.5,-123.5"/>
<text text-anchor="start" x="1819.5" y="-141.5" font-family="Helvetica,sans-Serif" font-size="10.00">NekoEngine/ECS/Components</text>
<text text-anchor="middle" x="1886" y="-130.5" font-family="Helvetica,sans-Serif" font-size="10.00">/Gravity.hpp</text>
</a>
</g>
</g>
<!-- Node34&#45;&gt;Node41 -->
<g id="edge32" class="edge">
<title>Node34&#45;&gt;Node41</title>
<path fill="none" stroke="midnightblue" d="M1736.68,-265.34C1773.03,-259.02 1815.37,-246.34 1846,-221 1863.85,-206.23 1874.39,-181.56 1880.13,-163.22"/>
<polygon fill="midnightblue" stroke="midnightblue" points="1883.51,-164.11 1882.9,-153.53 1876.78,-162.18 1883.51,-164.11"/>
</g>
<!-- Node42 -->
<g id="node27" class="node">
<title>Node42</title>
<g id="a_node27"><a xlink:href="_skin_8hpp.html" target="_top" xlink:title="Skin component.">
<polygon fill="none" stroke="black" points="2748.5,-190.5 2748.5,-220.5 2897.5,-220.5 2897.5,-190.5 2748.5,-190.5"/>
<text text-anchor="start" x="2756.5" y="-208.5" font-family="Helvetica,sans-Serif" font-size="10.00">NekoEngine/ECS/Components</text>
<text text-anchor="middle" x="2823" y="-197.5" font-family="Helvetica,sans-Serif" font-size="10.00">/Skin.hpp</text>
</a>
</g>
</g>
<!-- Node34&#45;&gt;Node42 -->
<g id="edge34" class="edge">
<title>Node34&#45;&gt;Node42</title>
<path fill="none" stroke="midnightblue" d="M1736.68,-267.98C1799.06,-265.04 1890.33,-260.74 1970,-257 2308.88,-241.1 2397.74,-258.21 2738.26,-221.1"/>
<polygon fill="midnightblue" stroke="midnightblue" points="2738.85,-224.56 2748.41,-219.99 2738.08,-217.6 2738.85,-224.56"/>
</g>
<!-- Node44 -->
<g id="node29" class="node">
<title>Node44</title>
<g id="a_node29"><a xlink:href="_networkable_8hpp.html" target="_top" xlink:title="Networkable component.">
<polygon fill="none" stroke="black" points="2581.5,-190.5 2581.5,-220.5 2730.5,-220.5 2730.5,-190.5 2581.5,-190.5"/>
<text text-anchor="start" x="2589.5" y="-208.5" font-family="Helvetica,sans-Serif" font-size="10.00">NekoEngine/ECS/Components</text>
<text text-anchor="middle" x="2656" y="-197.5" font-family="Helvetica,sans-Serif" font-size="10.00">/Networkable.hpp</text>
</a>
</g>
</g>
<!-- Node34&#45;&gt;Node44 -->
<g id="edge36" class="edge">
<title>Node34&#45;&gt;Node44</title>
<path fill="none" stroke="midnightblue" d="M1736.71,-267.87C1933.05,-258.24 2455.89,-232.15 2571.26,-221.02"/>
<polygon fill="midnightblue" stroke="midnightblue" points="2571.82,-224.48 2581.4,-219.96 2571.09,-217.52 2571.82,-224.48"/>
</g>
<!-- Node45 -->
<g id="node30" class="node">
<title>Node45</title>
<g id="a_node30"><a xlink:href="_uid_8hpp.html" target="_top" xlink:title="Uid component.">
<polygon fill="none" stroke="red" points="335.5,-190.5 335.5,-220.5 484.5,-220.5 484.5,-190.5 335.5,-190.5"/>
<text text-anchor="start" x="343.5" y="-208.5" font-family="Helvetica,sans-Serif" font-size="10.00">NekoEngine/ECS/Components</text>
<text text-anchor="middle" x="410" y="-197.5" font-family="Helvetica,sans-Serif" font-size="10.00">/Uid.hpp</text>
</a>
</g>
</g>
<!-- Node34&#45;&gt;Node45 -->
<g id="edge37" class="edge">
<title>Node34&#45;&gt;Node45</title>
<path fill="none" stroke="midnightblue" d="M1587.21,-271.63C1402.97,-271.22 912.47,-265.73 494.76,-221.1"/>
<polygon fill="midnightblue" stroke="midnightblue" points="494.91,-217.59 484.59,-220 494.16,-224.55 494.91,-217.59"/>
</g>
<!-- Node46 -->
<g id="node31" class="node">
<title>Node46</title>
<g id="a_node31"><a xlink:href="_hostile_8hpp.html" target="_top" xlink:title=" ">
<polygon fill="none" stroke="black" points="502.5,-190.5 502.5,-220.5 651.5,-220.5 651.5,-190.5 502.5,-190.5"/>
<text text-anchor="start" x="510.5" y="-208.5" font-family="Helvetica,sans-Serif" font-size="10.00">NekoEngine/ECS/Components</text>
<text text-anchor="middle" x="577" y="-197.5" font-family="Helvetica,sans-Serif" font-size="10.00">/Hostile.hpp</text>
</a>
</g>
</g>
<!-- Node34&#45;&gt;Node46 -->
<g id="edge38" class="edge">
<title>Node34&#45;&gt;Node46</title>
<path fill="none" stroke="midnightblue" d="M1587.27,-270.86C1422.01,-268.77 1012.99,-259.87 661.71,-221.1"/>
<polygon fill="midnightblue" stroke="midnightblue" points="661.92,-217.6 651.59,-219.98 661.15,-224.56 661.92,-217.6"/>
</g>
<!-- Node47 -->
<g id="node32" class="node">
<title>Node47</title>
<g id="a_node32"><a xlink:href="_but_8hpp.html" target="_top" xlink:title=" ">
<polygon fill="none" stroke="black" points="669.5,-190.5 669.5,-220.5 818.5,-220.5 818.5,-190.5 669.5,-190.5"/>
<text text-anchor="start" x="677.5" y="-208.5" font-family="Helvetica,sans-Serif" font-size="10.00">NekoEngine/ECS/Components</text>
<text text-anchor="middle" x="744" y="-197.5" font-family="Helvetica,sans-Serif" font-size="10.00">/But.hpp</text>
</a>
</g>
</g>
<!-- Node34&#45;&gt;Node47 -->
<g id="edge39" class="edge">
<title>Node34&#45;&gt;Node47</title>
<path fill="none" stroke="midnightblue" d="M1587.47,-269.8C1442.92,-265.9 1114.29,-254.04 828.74,-221.12"/>
<polygon fill="midnightblue" stroke="midnightblue" points="828.94,-217.62 818.6,-219.94 828.13,-224.57 828.94,-217.62"/>
</g>
<!-- Node48 -->
<g id="node33" class="node">
<title>Node48</title>
<g id="a_node33"><a xlink:href="_textinfo_8hpp.html" target="_top" xlink:title=" ">
<polygon fill="none" stroke="black" points="2414.5,-190.5 2414.5,-220.5 2563.5,-220.5 2563.5,-190.5 2414.5,-190.5"/>
<text text-anchor="start" x="2422.5" y="-208.5" font-family="Helvetica,sans-Serif" font-size="10.00">NekoEngine/ECS/Components</text>
<text text-anchor="middle" x="2489" y="-197.5" font-family="Helvetica,sans-Serif" font-size="10.00">/Textinfo.hpp</text>
</a>
</g>
</g>
<!-- Node34&#45;&gt;Node48 -->
<g id="edge40" class="edge">
<title>Node34&#45;&gt;Node48</title>
<path fill="none" stroke="midnightblue" d="M1736.8,-267.4C1894.88,-258.58 2259.57,-237.36 2404.36,-220.96"/>
<polygon fill="midnightblue" stroke="midnightblue" points="2404.88,-224.42 2414.4,-219.79 2404.07,-217.47 2404.88,-224.42"/>
</g>
<!-- Node49 -->
<g id="node34" class="node">
<title>Node49</title>
<g id="a_node34"><a xlink:href="_patterns_8hpp.html" target="_top" xlink:title="Patterns component.">
<polygon fill="none" stroke="red" points="1671.5,-190.5 1671.5,-220.5 1820.5,-220.5 1820.5,-190.5 1671.5,-190.5"/>
<text text-anchor="start" x="1679.5" y="-208.5" font-family="Helvetica,sans-Serif" font-size="10.00">NekoEngine/ECS/Components</text>
<text text-anchor="middle" x="1746" y="-197.5" font-family="Helvetica,sans-Serif" font-size="10.00">/Patterns.hpp</text>
</a>
</g>
</g>
<!-- Node34&#45;&gt;Node49 -->
<g id="edge42" class="edge">
<title>Node34&#45;&gt;Node49</title>
<path fill="none" stroke="midnightblue" d="M1680.23,-257.4C1691.78,-248.45 1706.92,-236.74 1719.76,-226.8"/>
<polygon fill="midnightblue" stroke="midnightblue" points="1722.04,-229.46 1727.81,-220.58 1717.76,-223.93 1722.04,-229.46"/>
</g>
<!-- Node51 -->
<g id="node35" class="node">
<title>Node51</title>
<g id="a_node35"><a xlink:href="_alien_8hpp.html" target="_top" xlink:title="Alien component.">
<polygon fill="none" stroke="black" points="836.5,-190.5 836.5,-220.5 985.5,-220.5 985.5,-190.5 836.5,-190.5"/>
<text text-anchor="start" x="844.5" y="-208.5" font-family="Helvetica,sans-Serif" font-size="10.00">NekoEngine/ECS/Components</text>
<text text-anchor="middle" x="911" y="-197.5" font-family="Helvetica,sans-Serif" font-size="10.00">/Alien.hpp</text>
</a>
</g>
</g>
<!-- Node34&#45;&gt;Node51 -->
<g id="edge45" class="edge">
<title>Node34&#45;&gt;Node51</title>
<path fill="none" stroke="midnightblue" d="M1587.38,-268.24C1465.55,-262.38 1216.21,-248.22 995.75,-221.14"/>
<polygon fill="midnightblue" stroke="midnightblue" points="995.96,-217.64 985.61,-219.89 995.1,-224.59 995.96,-217.64"/>
</g>
<!-- Node52 -->
<g id="node36" class="node">
<title>Node52</title>
<g id="a_node36"><a xlink:href="_entity_type_8hpp.html" target="_top" xlink:title=" ">
<polygon fill="none" stroke="black" points="1003.5,-190.5 1003.5,-220.5 1152.5,-220.5 1152.5,-190.5 1003.5,-190.5"/>
<text text-anchor="start" x="1011.5" y="-208.5" font-family="Helvetica,sans-Serif" font-size="10.00">NekoEngine/ECS/Components</text>
<text text-anchor="middle" x="1078" y="-197.5" font-family="Helvetica,sans-Serif" font-size="10.00">/EntityType.hpp</text>
</a>
</g>
</g>
<!-- Node34&#45;&gt;Node52 -->
<g id="edge46" class="edge">
<title>Node34&#45;&gt;Node52</title>
<path fill="none" stroke="midnightblue" d="M1587.1,-265.66C1491.09,-257.78 1319.27,-242.41 1162.89,-221.2"/>
<polygon fill="midnightblue" stroke="midnightblue" points="1163,-217.69 1152.62,-219.8 1162.05,-224.62 1163,-217.69"/>
</g>
<!-- Node53 -->
<g id="node37" class="node">
<title>Node53</title>
<g id="a_node37"><a xlink:href="_gorb_background_8hpp.html" target="_top" xlink:title=" ">
<polygon fill="none" stroke="black" points="1170.5,-190.5 1170.5,-220.5 1319.5,-220.5 1319.5,-190.5 1170.5,-190.5"/>
<text text-anchor="start" x="1178.5" y="-208.5" font-family="Helvetica,sans-Serif" font-size="10.00">NekoEngine/ECS/Components</text>
<text text-anchor="middle" x="1245" y="-197.5" font-family="Helvetica,sans-Serif" font-size="10.00">/GorbBackground.hpp</text>
</a>
</g>
</g>
<!-- Node34&#45;&gt;Node53 -->
<g id="edge47" class="edge">
<title>Node34&#45;&gt;Node53</title>
<path fill="none" stroke="midnightblue" d="M1587.31,-260.71C1521.88,-251.14 1423.96,-236.54 1329.64,-221.25"/>
<polygon fill="midnightblue" stroke="midnightblue" points="1330.08,-217.77 1319.64,-219.62 1328.95,-224.68 1330.08,-217.77"/>
</g>
<!-- Node54 -->
<g id="node38" class="node">
<title>Node54</title>
<g id="a_node38"><a xlink:href="_animation_8hpp.html" target="_top" xlink:title=" ">
<polygon fill="none" stroke="black" points="1337.5,-190.5 1337.5,-220.5 1486.5,-220.5 1486.5,-190.5 1337.5,-190.5"/>
<text text-anchor="start" x="1345.5" y="-208.5" font-family="Helvetica,sans-Serif" font-size="10.00">NekoEngine/ECS/Components</text>
<text text-anchor="middle" x="1412" y="-197.5" font-family="Helvetica,sans-Serif" font-size="10.00">/Animation.hpp</text>
</a>
</g>
</g>
<!-- Node34&#45;&gt;Node54 -->
<g id="edge48" class="edge">
<title>Node34&#45;&gt;Node54</title>
<path fill="none" stroke="midnightblue" d="M1608.06,-257.48C1569.34,-247.41 1517,-233.8 1476.13,-223.17"/>
<polygon fill="midnightblue" stroke="midnightblue" points="1476.83,-219.74 1466.27,-220.61 1475.07,-226.51 1476.83,-219.74"/>
</g>
<!-- Node55 -->
<g id="node39" class="node">
<title>Node55</title>
<g id="a_node39"><a xlink:href="_player_shoot_8hpp.html" target="_top" xlink:title=" ">
<polygon fill="none" stroke="black" points="1504.5,-190.5 1504.5,-220.5 1653.5,-220.5 1653.5,-190.5 1504.5,-190.5"/>
<text text-anchor="start" x="1512.5" y="-208.5" font-family="Helvetica,sans-Serif" font-size="10.00">NekoEngine/ECS/Components</text>
<text text-anchor="middle" x="1579" y="-197.5" font-family="Helvetica,sans-Serif" font-size="10.00">/PlayerShoot.hpp</text>
</a>
</g>
</g>
<!-- Node34&#45;&gt;Node55 -->
<g id="edge49" class="edge">
<title>Node34&#45;&gt;Node55</title>
<path fill="none" stroke="midnightblue" d="M1643.99,-257.4C1632.57,-248.45 1617.61,-236.74 1604.92,-226.8"/>
<polygon fill="midnightblue" stroke="midnightblue" points="1607.01,-223.99 1596.97,-220.58 1602.69,-229.5 1607.01,-223.99"/>
</g>
<!-- Node35&#45;&gt;Node7 -->
<g id="edge26" class="edge">
<title>Node35&#45;&gt;Node7</title>
<path fill="none" stroke="midnightblue" d="M1526.07,-123.4C1532.68,-114.96 1541.23,-104.07 1548.72,-94.52"/>
<polygon fill="midnightblue" stroke="midnightblue" points="1551.54,-96.6 1554.96,-86.58 1546.03,-92.28 1551.54,-96.6"/>
</g>
<!-- Node40&#45;&gt;Node7 -->
<g id="edge31" class="edge">
<title>Node40&#45;&gt;Node7</title>
<path fill="none" stroke="midnightblue" d="M1685.8,-123.4C1663.15,-113.77 1632.93,-100.94 1608.52,-90.56"/>
<polygon fill="midnightblue" stroke="midnightblue" points="1609.71,-87.27 1599.13,-86.58 1606.97,-93.71 1609.71,-87.27"/>
</g>
<!-- Node41&#45;&gt;Node7 -->
<g id="edge33" class="edge">
<title>Node41&#45;&gt;Node7</title>
<path fill="none" stroke="midnightblue" d="M1816.96,-123.48C1764.4,-112.8 1692.23,-98.14 1638.77,-87.28"/>
<polygon fill="midnightblue" stroke="midnightblue" points="1639.18,-83.79 1628.68,-85.23 1637.78,-90.65 1639.18,-83.79"/>
</g>
<!-- Node43 -->
<g id="node28" class="node">
<title>Node43</title>
<g id="a_node28"><a xlink:title=" ">
<polygon fill="none" stroke="#bfbfbf" points="2771,-129 2771,-148 2875,-148 2875,-129 2771,-129"/>
<text text-anchor="middle" x="2823" y="-136" font-family="Helvetica,sans-Serif" font-size="10.00">SFML/Graphics.hpp</text>
</a>
</g>
</g>
<!-- Node42&#45;&gt;Node43 -->
<g id="edge35" class="edge">
<title>Node42&#45;&gt;Node43</title>
<path fill="none" stroke="midnightblue" d="M2823,-190.4C2823,-181.06 2823,-168.71 2823,-158.52"/>
<polygon fill="midnightblue" stroke="midnightblue" points="2826.5,-158.19 2823,-148.19 2819.5,-158.19 2826.5,-158.19"/>
</g>
<!-- Node48&#45;&gt;Node43 -->
<g id="edge41" class="edge">
<title>Node48&#45;&gt;Node43</title>
<path fill="none" stroke="midnightblue" d="M2561.06,-190.48C2623.53,-178.32 2712.53,-161 2769.02,-150.01"/>
<polygon fill="midnightblue" stroke="midnightblue" points="2770.03,-153.37 2779.18,-148.03 2768.69,-146.5 2770.03,-153.37"/>
</g>
<!-- Node49&#45;&gt;Node7 -->
<g id="edge43" class="edge">
<title>Node49&#45;&gt;Node7</title>
<path fill="none" stroke="midnightblue" d="M1704.07,-190.49C1682.2,-181.98 1655.77,-169.71 1635,-154 1613.22,-137.52 1593.66,-113.02 1580.97,-95.19"/>
<polygon fill="midnightblue" stroke="midnightblue" points="1583.56,-92.77 1574.99,-86.54 1577.8,-96.76 1583.56,-92.77"/>
</g>
<!-- Node49&#45;&gt;Node35 -->
<g id="edge44" class="edge">
<title>Node49&#45;&gt;Node35</title>
<path fill="none" stroke="midnightblue" d="M1696.16,-190.48C1660.61,-180.47 1612.63,-166.97 1574.98,-156.38"/>
<polygon fill="midnightblue" stroke="midnightblue" points="1575.72,-152.95 1565.15,-153.61 1573.83,-159.69 1575.72,-152.95"/>
</g>
<!-- Node57 -->
<g id="node41" class="node">
<title>Node57</title>
<g id="a_node41"><a xlink:href="_timer_system_8hpp.html" target="_top" xlink:title="Controls System class.">
<polygon fill="none" stroke="red" points="2012.5,-257.5 2012.5,-287.5 2145.5,-287.5 2145.5,-257.5 2012.5,-257.5"/>
<text text-anchor="start" x="2020.5" y="-275.5" font-family="Helvetica,sans-Serif" font-size="10.00">NekoEngine/ECS/Systems</text>
<text text-anchor="middle" x="2079" y="-264.5" font-family="Helvetica,sans-Serif" font-size="10.00">/TimerSystem.hpp</text>
</a>
</g>
</g>
<!-- Node56&#45;&gt;Node57 -->
<g id="edge51" class="edge">
<title>Node56&#45;&gt;Node57</title>
<path fill="none" stroke="midnightblue" d="M2465.25,-330.77C2391.73,-321.99 2269.78,-306.64 2155.58,-288.21"/>
<polygon fill="midnightblue" stroke="midnightblue" points="2156.05,-284.74 2145.62,-286.59 2154.93,-291.65 2156.05,-284.74"/>
</g>
<!-- Node58 -->
<g id="node42" class="node">
<title>Node58</title>
<g id="a_node42"><a xlink:href="_render_system_8hpp.html" target="_top" xlink:title="Render System class.">
<polygon fill="none" stroke="red" points="2163.5,-257.5 2163.5,-287.5 2296.5,-287.5 2296.5,-257.5 2163.5,-257.5"/>
<text text-anchor="start" x="2171.5" y="-275.5" font-family="Helvetica,sans-Serif" font-size="10.00">NekoEngine/ECS/Systems</text>
<text text-anchor="middle" x="2230" y="-264.5" font-family="Helvetica,sans-Serif" font-size="10.00">/RenderSystem.hpp</text>
</a>
</g>
</g>
<!-- Node56&#45;&gt;Node58 -->
<g id="edge52" class="edge">
<title>Node56&#45;&gt;Node58</title>
<path fill="none" stroke="midnightblue" d="M2466.84,-324.48C2419.39,-314.26 2355.01,-300.41 2305.35,-289.72"/>
<polygon fill="midnightblue" stroke="midnightblue" points="2305.81,-286.24 2295.3,-287.55 2304.34,-293.08 2305.81,-286.24"/>
</g>
<!-- Node59 -->
<g id="node43" class="node">
<title>Node59</title>
<g id="a_node43"><a xlink:href="_mouse_system_8hpp.html" target="_top" xlink:title="Mouse System class.">
<polygon fill="none" stroke="red" points="2314.5,-257.5 2314.5,-287.5 2447.5,-287.5 2447.5,-257.5 2314.5,-257.5"/>
<text text-anchor="start" x="2322.5" y="-275.5" font-family="Helvetica,sans-Serif" font-size="10.00">NekoEngine/ECS/Systems</text>
<text text-anchor="middle" x="2381" y="-264.5" font-family="Helvetica,sans-Serif" font-size="10.00">/MouseSystem.hpp</text>
</a>
</g>
</g>
<!-- Node56&#45;&gt;Node59 -->
<g id="edge53" class="edge">
<title>Node56&#45;&gt;Node59</title>
<path fill="none" stroke="midnightblue" d="M2499.24,-324.4C2476.88,-314.77 2447.06,-301.94 2422.96,-291.56"/>
<polygon fill="midnightblue" stroke="midnightblue" points="2424.27,-288.32 2413.7,-287.58 2421.5,-294.75 2424.27,-288.32"/>
</g>
<!-- Node60 -->
<g id="node44" class="node">
<title>Node60</title>
<g id="a_node44"><a xlink:href="_text_system_8hpp.html" target="_top" xlink:title=" ">
<polygon fill="none" stroke="red" points="2465.5,-257.5 2465.5,-287.5 2598.5,-287.5 2598.5,-257.5 2465.5,-257.5"/>
<text text-anchor="start" x="2473.5" y="-275.5" font-family="Helvetica,sans-Serif" font-size="10.00">NekoEngine/ECS/Systems</text>
<text text-anchor="middle" x="2532" y="-264.5" font-family="Helvetica,sans-Serif" font-size="10.00">/TextSystem.hpp</text>
</a>
</g>
</g>
<!-- Node56&#45;&gt;Node60 -->
<g id="edge54" class="edge">
<title>Node56&#45;&gt;Node60</title>
<path fill="none" stroke="midnightblue" d="M2532,-324.4C2532,-316.64 2532,-306.81 2532,-297.86"/>
<polygon fill="midnightblue" stroke="midnightblue" points="2535.5,-297.58 2532,-287.58 2528.5,-297.58 2535.5,-297.58"/>
</g>
<!-- Node61 -->
<g id="node45" class="node">
<title>Node61</title>
<g id="a_node45"><a xlink:href="_pattern_system_8hpp.html" target="_top" xlink:title="Physics System class.">
<polygon fill="none" stroke="red" points="2616.5,-257.5 2616.5,-287.5 2749.5,-287.5 2749.5,-257.5 2616.5,-257.5"/>
<text text-anchor="start" x="2624.5" y="-275.5" font-family="Helvetica,sans-Serif" font-size="10.00">NekoEngine/ECS/Systems</text>
<text text-anchor="middle" x="2683" y="-264.5" font-family="Helvetica,sans-Serif" font-size="10.00">/PatternSystem.hpp</text>
</a>
</g>
</g>
<!-- Node56&#45;&gt;Node61 -->
<g id="edge55" class="edge">
<title>Node56&#45;&gt;Node61</title>
<path fill="none" stroke="midnightblue" d="M2564.76,-324.4C2587.12,-314.77 2616.94,-301.94 2641.04,-291.56"/>
<polygon fill="midnightblue" stroke="midnightblue" points="2642.5,-294.75 2650.3,-287.58 2639.73,-288.32 2642.5,-294.75"/>
</g>
<!-- Node62 -->
<g id="node46" class="node">
<title>Node62</title>
<g id="a_node46"><a xlink:href="_background_system_8hpp.html" target="_top" xlink:title=" ">
<polygon fill="none" stroke="red" points="2767.5,-257.5 2767.5,-287.5 2900.5,-287.5 2900.5,-257.5 2767.5,-257.5"/>
<text text-anchor="start" x="2775.5" y="-275.5" font-family="Helvetica,sans-Serif" font-size="10.00">NekoEngine/ECS/Systems</text>
<text text-anchor="middle" x="2834" y="-264.5" font-family="Helvetica,sans-Serif" font-size="10.00">/BackgroundSystem.hpp</text>
</a>
</g>
</g>
<!-- Node56&#45;&gt;Node62 -->
<g id="edge56" class="edge">
<title>Node56&#45;&gt;Node62</title>
<path fill="none" stroke="midnightblue" d="M2597.16,-324.48C2644.61,-314.26 2708.99,-300.41 2758.65,-289.72"/>
<polygon fill="midnightblue" stroke="midnightblue" points="2759.66,-293.08 2768.7,-287.55 2758.19,-286.24 2759.66,-293.08"/>
</g>
<!-- Node63 -->
<g id="node47" class="node">
<title>Node63</title>
<g id="a_node47"><a xlink:href="_parallax_system_8hpp.html" target="_top" xlink:title=" ">
<polygon fill="none" stroke="red" points="2918.5,-257.5 2918.5,-287.5 3051.5,-287.5 3051.5,-257.5 2918.5,-257.5"/>
<text text-anchor="start" x="2926.5" y="-275.5" font-family="Helvetica,sans-Serif" font-size="10.00">NekoEngine/ECS/Systems</text>
<text text-anchor="middle" x="2985" y="-264.5" font-family="Helvetica,sans-Serif" font-size="10.00">/ParallaxSystem.hpp</text>
</a>
</g>
</g>
<!-- Node56&#45;&gt;Node63 -->
<g id="edge57" class="edge">
<title>Node56&#45;&gt;Node63</title>
<path fill="none" stroke="midnightblue" d="M2598.75,-330.77C2672.27,-321.99 2794.22,-306.64 2908.42,-288.21"/>
<polygon fill="midnightblue" stroke="midnightblue" points="2909.07,-291.65 2918.38,-286.59 2907.95,-284.74 2909.07,-291.65"/>
</g>
<!-- Node64 -->
<g id="node48" class="node">
<title>Node64</title>
<g id="a_node48"><a xlink:href="_animation_system_8hpp.html" target="_top" xlink:title=" ">
<polygon fill="none" stroke="red" points="3069.5,-257.5 3069.5,-287.5 3202.5,-287.5 3202.5,-257.5 3069.5,-257.5"/>
<text text-anchor="start" x="3077.5" y="-275.5" font-family="Helvetica,sans-Serif" font-size="10.00">NekoEngine/ECS/Systems</text>
<text text-anchor="middle" x="3136" y="-264.5" font-family="Helvetica,sans-Serif" font-size="10.00">/AnimationSystem.hpp</text>
</a>
</g>
</g>
<!-- Node56&#45;&gt;Node64 -->
<g id="edge58" class="edge">
<title>Node56&#45;&gt;Node64</title>
<path fill="none" stroke="midnightblue" d="M2598.63,-334.2C2697.26,-327.37 2888.05,-312.43 3059.44,-288.14"/>
<polygon fill="midnightblue" stroke="midnightblue" points="3060,-291.6 3069.4,-286.72 3059,-284.67 3060,-291.6"/>
</g>
<!-- Node69&#45;&gt;Node7 -->
<g id="edge61" class="edge">
<title>Node69&#45;&gt;Node7</title>
<path fill="none" stroke="midnightblue" d="M1564.32,-335.57C1320.57,-322.47 357.88,-267.91 315,-221 305.7,-210.83 305.72,-200.19 315,-190 394.62,-102.55 1237.13,-78.94 1492.83,-73.77"/>
<polygon fill="midnightblue" stroke="midnightblue" points="1493.19,-77.26 1503.12,-73.56 1493.05,-70.26 1493.19,-77.26"/>
</g>
<!-- Node69&#45;&gt;Node34 -->
<g id="edge60" class="edge">
<title>Node69&#45;&gt;Node34</title>
<path fill="none" stroke="midnightblue" d="M1629.11,-324.4C1634.45,-316.13 1641.32,-305.51 1647.4,-296.1"/>
<polygon fill="midnightblue" stroke="midnightblue" points="1650.42,-297.88 1652.9,-287.58 1644.54,-294.08 1650.42,-297.88"/>
</g>
<!-- Node78&#45;&gt;Node43 -->
<g id="edge63" class="edge">
<title>Node78&#45;&gt;Node43</title>
<path fill="none" stroke="midnightblue" d="M2784.26,-398.45C2937.24,-391.36 3501.49,-356.22 3600,-221 3608.11,-209.86 3609.42,-200.05 3600,-190 3575.66,-164.03 3065.23,-146.6 2885.19,-141.25"/>
<polygon fill="midnightblue" stroke="midnightblue" points="2885.19,-137.75 2875.09,-140.95 2884.98,-144.74 2885.19,-137.75"/>
</g>
</g>
</svg>
