<?xml version="1.0" encoding="UTF-8" standalone="no"?>
<!DOCTYPE svg PUBLIC "-//W3C//DTD SVG 1.1//EN"
 "http://www.w3.org/Graphics/SVG/1.1/DTD/svg11.dtd">
<!-- Generated by graphviz version 2.49.3 (20211027.1501)
 -->
<!-- Title: NekoEngine/include/NekoEngine/ECS/Systems/RenderSystem.hpp Pages: 1 -->
<svg width="1220pt" height="407pt"
 viewBox="0.00 0.00 1219.50 407.00" xmlns="http://www.w3.org/2000/svg" xmlns:xlink="http://www.w3.org/1999/xlink">
<g id="graph0" class="graph" transform="scale(1 1) rotate(0) translate(4 403)">
<title>NekoEngine/include/NekoEngine/ECS/Systems/RenderSystem.hpp</title>
<!-- Node1 -->
<g id="node1" class="node">
<title>Node1</title>
<g id="a_node1"><a xlink:title="Render System class.">
<polygon fill="#bfbfbf" stroke="black" points="845,-357.5 845,-398.5 981,-398.5 981,-357.5 845,-357.5"/>
<text text-anchor="start" x="853" y="-386.5" font-family="Helvetica,sans-Serif" font-size="10.00">NekoEngine/include</text>
<text text-anchor="start" x="853" y="-375.5" font-family="Helvetica,sans-Serif" font-size="10.00">/NekoEngine/ECS/Systems</text>
<text text-anchor="middle" x="913" y="-364.5" font-family="Helvetica,sans-Serif" font-size="10.00">/RenderSystem.hpp</text>
</a>
</g>
</g>
<!-- Node2 -->
<g id="node2" class="node">
<title>Node2</title>
<g id="a_node2"><a xlink:href="_systems_8hpp.html" target="_top" xlink:title="Systems.">
<polygon fill="none" stroke="black" points="614,-279.5 614,-320.5 750,-320.5 750,-279.5 614,-279.5"/>
<text text-anchor="start" x="622" y="-308.5" font-family="Helvetica,sans-Serif" font-size="10.00">NekoEngine/include</text>
<text text-anchor="start" x="622" y="-297.5" font-family="Helvetica,sans-Serif" font-size="10.00">/NekoEngine/ECS/Systems</text>
<text text-anchor="middle" x="682" y="-286.5" font-family="Helvetica,sans-Serif" font-size="10.00">/Systems.hpp</text>
</a>
</g>
</g>
<!-- Node1&#45;&gt;Node2 -->
<g id="edge1" class="edge">
<title>Node1&#45;&gt;Node2</title>
<path fill="none" stroke="midnightblue" d="M843.59,-354.17C810.98,-343.44 772.51,-330.78 741.29,-320.51"/>
<polygon fill="midnightblue" stroke="midnightblue" points="842.92,-357.63 853.51,-357.43 845.11,-350.98 842.92,-357.63"/>
</g>
<!-- Node12 -->
<g id="node12" class="node">
<title>Node12</title>
<g id="a_node12"><a xlink:href="_render_system_8cpp.html" target="_top" xlink:title="Render System class implementation.">
<polygon fill="none" stroke="black" points="1068.5,-0.5 1068.5,-30.5 1211.5,-30.5 1211.5,-0.5 1068.5,-0.5"/>
<text text-anchor="start" x="1076.5" y="-18.5" font-family="Helvetica,sans-Serif" font-size="10.00">NekoEngine/src/ECS</text>
<text text-anchor="middle" x="1140" y="-7.5" font-family="Helvetica,sans-Serif" font-size="10.00">/Systems/RenderSystem.cpp</text>
</a>
</g>
</g>
<!-- Node1&#45;&gt;Node12 -->
<g id="edge26" class="edge">
<title>Node1&#45;&gt;Node12</title>
<path fill="none" stroke="midnightblue" d="M990.91,-356.97C1051.73,-336.09 1126,-296.64 1126,-228.5 1126,-228.5 1126,-228.5 1126,-159.5 1126,-112.1 1133.71,-56.29 1137.69,-30.66"/>
<polygon fill="midnightblue" stroke="midnightblue" points="989.66,-353.69 981.27,-360.16 991.87,-360.34 989.66,-353.69"/>
</g>
<!-- Node3 -->
<g id="node3" class="node">
<title>Node3</title>
<g id="a_node3"><a xlink:href="_neko_engine_8hpp.html" target="_top" xlink:title=" ">
<polygon fill="none" stroke="black" points="685,-212.5 685,-242.5 831,-242.5 831,-212.5 685,-212.5"/>
<text text-anchor="start" x="693" y="-230.5" font-family="Helvetica,sans-Serif" font-size="10.00">NekoEngine/include</text>
<text text-anchor="middle" x="758" y="-219.5" font-family="Helvetica,sans-Serif" font-size="10.00">/NekoEngine/NekoEngine.hpp</text>
</a>
</g>
</g>
<!-- Node2&#45;&gt;Node3 -->
<g id="edge2" class="edge">
<title>Node2&#45;&gt;Node3</title>
<path fill="none" stroke="midnightblue" d="M710.77,-272.31C721.54,-262.32 733.36,-251.35 742.49,-242.89"/>
<polygon fill="midnightblue" stroke="midnightblue" points="708.12,-269.99 703.17,-279.36 712.88,-275.13 708.12,-269.99"/>
</g>
<!-- Node18 -->
<g id="node18" class="node">
<title>Node18</title>
<g id="a_node18"><a xlink:href="_timer_system_8cpp.html" target="_top" xlink:title=" ">
<polygon fill="none" stroke="black" points="389.5,-212.5 389.5,-242.5 526.5,-242.5 526.5,-212.5 389.5,-212.5"/>
<text text-anchor="start" x="397.5" y="-230.5" font-family="Helvetica,sans-Serif" font-size="10.00">NekoEngine/src/ECS</text>
<text text-anchor="middle" x="458" y="-219.5" font-family="Helvetica,sans-Serif" font-size="10.00">/Systems/TimerSystem.cpp</text>
</a>
</g>
</g>
<!-- Node2&#45;&gt;Node18 -->
<g id="edge24" class="edge">
<title>Node2&#45;&gt;Node18</title>
<path fill="none" stroke="midnightblue" d="M610.13,-276.38C574.87,-265.28 533.48,-252.26 502.79,-242.6"/>
<polygon fill="midnightblue" stroke="midnightblue" points="609.31,-279.79 619.9,-279.46 611.41,-273.11 609.31,-279.79"/>
</g>
<!-- Node19 -->
<g id="node19" class="node">
<title>Node19</title>
<g id="a_node19"><a xlink:href="_scene_8cpp.html" target="_top" xlink:title="For the love of god.">
<polygon fill="none" stroke="black" points="545,-212.5 545,-242.5 667,-242.5 667,-212.5 545,-212.5"/>
<text text-anchor="start" x="553" y="-230.5" font-family="Helvetica,sans-Serif" font-size="10.00">NekoEngine/src/Scenes</text>
<text text-anchor="middle" x="606" y="-219.5" font-family="Helvetica,sans-Serif" font-size="10.00">/Scene.cpp</text>
</a>
</g>
</g>
<!-- Node2&#45;&gt;Node19 -->
<g id="edge25" class="edge">
<title>Node2&#45;&gt;Node19</title>
<path fill="none" stroke="midnightblue" d="M653.23,-272.31C642.46,-262.32 630.64,-251.35 621.51,-242.89"/>
<polygon fill="midnightblue" stroke="midnightblue" points="651.12,-275.13 660.83,-279.36 655.88,-269.99 651.12,-275.13"/>
</g>
<!-- Node4 -->
<g id="node4" class="node">
<title>Node4</title>
<g id="a_node4"><a xlink:href="_client_game_8hpp.html" target="_top" xlink:title=" ">
<polygon fill="none" stroke="black" points="924.5,-78.5 924.5,-97.5 1071.5,-97.5 1071.5,-78.5 924.5,-78.5"/>
<text text-anchor="middle" x="998" y="-85.5" font-family="Helvetica,sans-Serif" font-size="10.00">Client/include/ClientGame.hpp</text>
</a>
</g>
</g>
<!-- Node3&#45;&gt;Node4 -->
<g id="edge3" class="edge">
<title>Node3&#45;&gt;Node4</title>
<path fill="none" stroke="midnightblue" d="M841.17,-215.21C892.11,-206.71 951.06,-193.53 970,-176 992.83,-154.88 997.11,-115.1 997.87,-97.62"/>
<polygon fill="midnightblue" stroke="midnightblue" points="840.41,-211.79 831.1,-216.85 841.54,-218.7 840.41,-211.79"/>
</g>
<!-- Node6 -->
<g id="node6" class="node">
<title>Node6</title>
<g id="a_node6"><a xlink:href="main_8cpp.html" target="_top" xlink:title="Entrypoint.">
<polygon fill="none" stroke="black" points="802,-6 802,-25 902,-25 902,-6 802,-6"/>
<text text-anchor="middle" x="852" y="-13" font-family="Helvetica,sans-Serif" font-size="10.00">Client/src/main.cpp</text>
</a>
</g>
</g>
<!-- Node3&#45;&gt;Node6 -->
<g id="edge22" class="edge">
<title>Node3&#45;&gt;Node6</title>
<path fill="none" stroke="midnightblue" d="M750.92,-202.75C742.56,-169.73 732.74,-109.25 758,-67 770.93,-45.38 796.65,-32.48 817.92,-25.13"/>
<polygon fill="midnightblue" stroke="midnightblue" points="747.55,-203.71 753.54,-212.45 754.31,-201.88 747.55,-203.71"/>
</g>
<!-- Node7 -->
<g id="node7" class="node">
<title>Node7</title>
<g id="a_node7"><a xlink:href="_custom_client_8hpp.html" target="_top" xlink:title=" ">
<polygon fill="none" stroke="black" points="356.5,-151 356.5,-170 511.5,-170 511.5,-151 356.5,-151"/>
<text text-anchor="middle" x="434" y="-158" font-family="Helvetica,sans-Serif" font-size="10.00">Client/include/CustomClient.hpp</text>
</a>
</g>
</g>
<!-- Node3&#45;&gt;Node7 -->
<g id="edge6" class="edge">
<title>Node3&#45;&gt;Node7</title>
<path fill="none" stroke="midnightblue" d="M678.07,-210.47C614.34,-197.68 527.59,-180.27 476.51,-170.03"/>
<polygon fill="midnightblue" stroke="midnightblue" points="677.6,-213.94 688.1,-212.48 678.98,-207.08 677.6,-213.94"/>
</g>
<!-- Node15 -->
<g id="node15" class="node">
<title>Node15</title>
<g id="a_node15"><a xlink:href="_player_system_8hpp.html" target="_top" xlink:title=" ">
<polygon fill="none" stroke="black" points="805,-151 805,-170 961,-170 961,-151 805,-151"/>
<text text-anchor="middle" x="883" y="-158" font-family="Helvetica,sans-Serif" font-size="10.00">Client/include/PlayerSystem.hpp</text>
</a>
</g>
</g>
<!-- Node3&#45;&gt;Node15 -->
<g id="edge18" class="edge">
<title>Node3&#45;&gt;Node15</title>
<path fill="none" stroke="midnightblue" d="M794.27,-207.64C818.19,-195.2 848.36,-179.51 866.64,-170.01"/>
<polygon fill="midnightblue" stroke="midnightblue" points="792.38,-204.68 785.12,-212.4 795.61,-210.89 792.38,-204.68"/>
</g>
<!-- Node16 -->
<g id="node16" class="node">
<title>Node16</title>
<g id="a_node16"><a xlink:href="_player_system_8cpp.html" target="_top" xlink:title=" ">
<polygon fill="none" stroke="black" points="767.5,-78.5 767.5,-97.5 906.5,-97.5 906.5,-78.5 767.5,-78.5"/>
<text text-anchor="middle" x="837" y="-85.5" font-family="Helvetica,sans-Serif" font-size="10.00">Client/src/PlayerSystem.cpp</text>
</a>
</g>
</g>
<!-- Node3&#45;&gt;Node16 -->
<g id="edge21" class="edge">
<title>Node3&#45;&gt;Node16</title>
<path fill="none" stroke="midnightblue" d="M767.62,-202.74C774.68,-186.14 784.94,-163.69 796,-145 806.43,-127.37 821.09,-108.46 829.76,-97.74"/>
<polygon fill="midnightblue" stroke="midnightblue" points="764.27,-201.66 763.65,-212.23 770.73,-204.35 764.27,-201.66"/>
</g>
<!-- Node17 -->
<g id="node17" class="node">
<title>Node17</title>
<g id="a_node17"><a xlink:href="_pattern_system_8cpp.html" target="_top" xlink:title="Physics System class implementation.">
<polygon fill="none" stroke="black" points="529.5,-145.5 529.5,-175.5 672.5,-175.5 672.5,-145.5 529.5,-145.5"/>
<text text-anchor="start" x="537.5" y="-163.5" font-family="Helvetica,sans-Serif" font-size="10.00">NekoEngine/src/ECS</text>
<text text-anchor="middle" x="601" y="-152.5" font-family="Helvetica,sans-Serif" font-size="10.00">/Systems/PatternSystem.cpp</text>
</a>
</g>
</g>
<!-- Node3&#45;&gt;Node17 -->
<g id="edge23" class="edge">
<title>Node3&#45;&gt;Node17</title>
<path fill="none" stroke="midnightblue" d="M714.63,-208.54C689.51,-198.14 658.34,-185.24 635,-175.58"/>
<polygon fill="midnightblue" stroke="midnightblue" points="713.36,-211.8 723.93,-212.4 716.03,-205.34 713.36,-211.8"/>
</g>
<!-- Node5 -->
<g id="node5" class="node">
<title>Node5</title>
<g id="a_node5"><a xlink:href="_client_game_8cpp.html" target="_top" xlink:title=" ">
<polygon fill="none" stroke="black" points="920,-6 920,-25 1050,-25 1050,-6 920,-6"/>
<text text-anchor="middle" x="985" y="-13" font-family="Helvetica,sans-Serif" font-size="10.00">Client/src/ClientGame.cpp</text>
</a>
</g>
</g>
<!-- Node4&#45;&gt;Node5 -->
<g id="edge4" class="edge">
<title>Node4&#45;&gt;Node5</title>
<path fill="none" stroke="midnightblue" d="M994.56,-68.36C991.99,-54.4 988.58,-35.93 986.61,-25.22"/>
<polygon fill="midnightblue" stroke="midnightblue" points="991.15,-69.16 996.41,-78.36 998.03,-67.89 991.15,-69.16"/>
</g>
<!-- Node4&#45;&gt;Node6 -->
<g id="edge5" class="edge">
<title>Node4&#45;&gt;Node6</title>
<path fill="none" stroke="midnightblue" d="M971.07,-74C941.52,-59.73 894.92,-37.23 869.67,-25.03"/>
<polygon fill="midnightblue" stroke="midnightblue" points="969.86,-77.3 980.39,-78.5 972.91,-71 969.86,-77.3"/>
</g>
<!-- Node7&#45;&gt;Node6 -->
<g id="edge7" class="edge">
<title>Node7&#45;&gt;Node6</title>
<path fill="none" stroke="midnightblue" d="M483.57,-148.68C522.91,-139.58 579.08,-125.44 627,-109 671.82,-93.63 681.2,-85.09 725,-67 761.62,-51.87 804.51,-34.99 829.9,-25.08"/>
<polygon fill="midnightblue" stroke="midnightblue" points="482.66,-145.3 473.69,-150.94 484.22,-152.12 482.66,-145.3"/>
</g>
<!-- Node8 -->
<g id="node8" class="node">
<title>Node8</title>
<g id="a_node8"><a xlink:href="_window_8hpp.html" target="_top" xlink:title="Contains the NekoEngine Window class wrapper.">
<polygon fill="none" stroke="black" points="504,-67.5 504,-108.5 618,-108.5 618,-67.5 504,-67.5"/>
<text text-anchor="start" x="512" y="-96.5" font-family="Helvetica,sans-Serif" font-size="10.00">NekoEngine/include</text>
<text text-anchor="start" x="512" y="-85.5" font-family="Helvetica,sans-Serif" font-size="10.00">/NekoEngine/Graphics</text>
<text text-anchor="middle" x="561" y="-74.5" font-family="Helvetica,sans-Serif" font-size="10.00">/Window.hpp</text>
</a>
</g>
</g>
<!-- Node7&#45;&gt;Node8 -->
<g id="edge8" class="edge">
<title>Node7&#45;&gt;Node8</title>
<path fill="none" stroke="midnightblue" d="M458.54,-145.88C477.66,-135.26 504.45,-120.39 525.84,-108.52"/>
<polygon fill="midnightblue" stroke="midnightblue" points="456.62,-142.94 449.57,-150.86 460.01,-149.06 456.62,-142.94"/>
</g>
<!-- Node14 -->
<g id="node14" class="node">
<title>Node14</title>
<g id="a_node14"><a xlink:href="_window_8cpp.html" target="_top" xlink:title="Contains the NekoEngine Window class implementation.">
<polygon fill="none" stroke="black" points="0,-0.5 0,-30.5 128,-30.5 128,-0.5 0,-0.5"/>
<text text-anchor="start" x="8" y="-18.5" font-family="Helvetica,sans-Serif" font-size="10.00">NekoEngine/src/Graphics</text>
<text text-anchor="middle" x="64" y="-7.5" font-family="Helvetica,sans-Serif" font-size="10.00">/Window.cpp</text>
</a>
</g>
</g>
<!-- Node7&#45;&gt;Node14 -->
<g id="edge17" class="edge">
<title>Node7&#45;&gt;Node14</title>
<path fill="none" stroke="midnightblue" d="M402.59,-147.36C334.33,-120.98 172.77,-58.54 100.29,-30.53"/>
<polygon fill="midnightblue" stroke="midnightblue" points="401.37,-150.64 411.96,-150.98 403.9,-144.11 401.37,-150.64"/>
</g>
<!-- Node8&#45;&gt;Node3 -->
<g id="edge10" class="edge">
<title>Node8&#45;&gt;Node3</title>
<path fill="none" stroke="midnightblue" d="M623.23,-112.67C642.6,-121.42 663.46,-132.34 681,-145 708.15,-164.6 733.57,-194.65 747.34,-212.26"/>
<polygon fill="midnightblue" stroke="midnightblue" points="624.43,-109.37 613.86,-108.55 621.61,-115.78 624.43,-109.37"/>
</g>
<!-- Node8&#45;&gt;Node6 -->
<g id="edge9" class="edge">
<title>Node8&#45;&gt;Node6</title>
<path fill="none" stroke="midnightblue" d="M628.14,-70.87C674.48,-59.72 737.49,-44.52 793,-31 800.89,-29.08 809.37,-27 817.38,-25.03"/>
<polygon fill="midnightblue" stroke="midnightblue" points="627.13,-67.52 618.22,-73.26 628.76,-74.32 627.13,-67.52"/>
</g>
<!-- Node9 -->
<g id="node9" class="node">
<title>Node9</title>
<g id="a_node9"><a xlink:href="_background_system_8cpp.html" target="_top" xlink:title=" ">
<polygon fill="none" stroke="black" points="146,-0.5 146,-30.5 310,-30.5 310,-0.5 146,-0.5"/>
<text text-anchor="start" x="154" y="-18.5" font-family="Helvetica,sans-Serif" font-size="10.00">NekoEngine/src/ECS</text>
<text text-anchor="middle" x="228" y="-7.5" font-family="Helvetica,sans-Serif" font-size="10.00">/Systems/BackgroundSystem.cpp</text>
</a>
</g>
</g>
<!-- Node8&#45;&gt;Node9 -->
<g id="edge11" class="edge">
<title>Node8&#45;&gt;Node9</title>
<path fill="none" stroke="midnightblue" d="M493.93,-72.8C435.78,-60.49 352.11,-42.77 294.21,-30.52"/>
<polygon fill="midnightblue" stroke="midnightblue" points="493.25,-76.23 503.76,-74.88 494.7,-69.39 493.25,-76.23"/>
</g>
<!-- Node10 -->
<g id="node10" class="node">
<title>Node10</title>
<g id="a_node10"><a xlink:href="_mouse_system_8cpp.html" target="_top" xlink:title=" ">
<polygon fill="none" stroke="black" points="328.5,-0.5 328.5,-30.5 469.5,-30.5 469.5,-0.5 328.5,-0.5"/>
<text text-anchor="start" x="336.5" y="-18.5" font-family="Helvetica,sans-Serif" font-size="10.00">NekoEngine/src/ECS</text>
<text text-anchor="middle" x="399" y="-7.5" font-family="Helvetica,sans-Serif" font-size="10.00">/Systems/MouseSystem.cpp</text>
</a>
</g>
</g>
<!-- Node8&#45;&gt;Node10 -->
<g id="edge12" class="edge">
<title>Node8&#45;&gt;Node10</title>
<path fill="none" stroke="midnightblue" d="M506.51,-63.29C481.54,-52.42 452.79,-39.91 431.31,-30.56"/>
<polygon fill="midnightblue" stroke="midnightblue" points="505.31,-66.58 515.87,-67.36 508.1,-60.16 505.31,-66.58"/>
</g>
<!-- Node11 -->
<g id="node11" class="node">
<title>Node11</title>
<g id="a_node11"><a xlink:href="_parallax_system_8cpp.html" target="_top" xlink:title=" ">
<polygon fill="none" stroke="black" points="488,-0.5 488,-30.5 634,-30.5 634,-0.5 488,-0.5"/>
<text text-anchor="start" x="496" y="-18.5" font-family="Helvetica,sans-Serif" font-size="10.00">NekoEngine/src/ECS</text>
<text text-anchor="middle" x="561" y="-7.5" font-family="Helvetica,sans-Serif" font-size="10.00">/Systems/ParallaxSystem.cpp</text>
</a>
</g>
</g>
<!-- Node8&#45;&gt;Node11 -->
<g id="edge13" class="edge">
<title>Node8&#45;&gt;Node11</title>
<path fill="none" stroke="midnightblue" d="M561,-57.08C561,-48.01 561,-38.45 561,-30.89"/>
<polygon fill="midnightblue" stroke="midnightblue" points="557.5,-57.36 561,-67.36 564.5,-57.36 557.5,-57.36"/>
</g>
<!-- Node8&#45;&gt;Node12 -->
<g id="edge14" class="edge">
<title>Node8&#45;&gt;Node12</title>
<path fill="none" stroke="midnightblue" d="M628.23,-79.99C744.27,-67.8 977.52,-42.86 1059,-31 1062.11,-30.55 1065.28,-30.07 1068.49,-29.56"/>
<polygon fill="midnightblue" stroke="midnightblue" points="627.63,-76.53 618.05,-81.06 628.36,-83.49 627.63,-76.53"/>
</g>
<!-- Node13 -->
<g id="node13" class="node">
<title>Node13</title>
<g id="a_node13"><a xlink:href="_text_system_8cpp.html" target="_top" xlink:title=" ">
<polygon fill="none" stroke="black" points="652.5,-0.5 652.5,-30.5 783.5,-30.5 783.5,-0.5 652.5,-0.5"/>
<text text-anchor="start" x="660.5" y="-18.5" font-family="Helvetica,sans-Serif" font-size="10.00">NekoEngine/src/ECS</text>
<text text-anchor="middle" x="718" y="-7.5" font-family="Helvetica,sans-Serif" font-size="10.00">/Systems/TextSystem.cpp</text>
</a>
</g>
</g>
<!-- Node8&#45;&gt;Node13 -->
<g id="edge15" class="edge">
<title>Node8&#45;&gt;Node13</title>
<path fill="none" stroke="midnightblue" d="M614.09,-63.16C638.13,-52.36 665.73,-39.97 686.44,-30.67"/>
<polygon fill="midnightblue" stroke="midnightblue" points="612.42,-60.07 604.73,-67.36 615.29,-66.46 612.42,-60.07"/>
</g>
<!-- Node8&#45;&gt;Node14 -->
<g id="edge16" class="edge">
<title>Node8&#45;&gt;Node14</title>
<path fill="none" stroke="midnightblue" d="M493.76,-79.48C409.98,-69.8 262.53,-51.73 137,-31 134.07,-30.52 131.07,-30 128.05,-29.47"/>
<polygon fill="midnightblue" stroke="midnightblue" points="493.57,-82.98 503.9,-80.65 494.37,-76.03 493.57,-82.98"/>
</g>
<!-- Node15&#45;&gt;Node4 -->
<g id="edge19" class="edge">
<title>Node15&#45;&gt;Node4</title>
<path fill="none" stroke="midnightblue" d="M905.64,-145.62C928.85,-131.39 964.24,-109.7 983.78,-97.72"/>
<polygon fill="midnightblue" stroke="midnightblue" points="903.8,-142.64 897.1,-150.86 907.46,-148.61 903.8,-142.64"/>
</g>
<!-- Node15&#45;&gt;Node16 -->
<g id="edge20" class="edge">
<title>Node15&#45;&gt;Node16</title>
<path fill="none" stroke="midnightblue" d="M871.64,-142.09C862.45,-128 849.88,-108.74 842.69,-97.72"/>
<polygon fill="midnightblue" stroke="midnightblue" points="868.96,-144.39 877.36,-150.86 874.83,-140.57 868.96,-144.39"/>
</g>
</g>
</svg>
