<?xml version="1.0" encoding="UTF-8" standalone="no"?>
<!DOCTYPE svg PUBLIC "-//W3C//DTD SVG 1.1//EN"
 "http://www.w3.org/Graphics/SVG/1.1/DTD/svg11.dtd">
<!-- Generated by graphviz version 2.49.3 (20211027.1501)
 -->
<!-- Title: NekoEngine/include/NekoEngine/ECS/Components/RigidBody.hpp Pages: 1 -->
<svg width="1736pt" height="563pt"
 viewBox="0.00 0.00 1735.50 563.00" xmlns="http://www.w3.org/2000/svg" xmlns:xlink="http://www.w3.org/1999/xlink">
<g id="graph0" class="graph" transform="scale(1 1) rotate(0) translate(4 559)">
<title>NekoEngine/include/NekoEngine/ECS/Components/RigidBody.hpp</title>
<!-- Node1 -->
<g id="node1" class="node">
<title>Node1</title>
<g id="a_node1"><a xlink:title="RigidBody component.">
<polygon fill="#bfbfbf" stroke="black" points="795,-513.5 795,-554.5 947,-554.5 947,-513.5 795,-513.5"/>
<text text-anchor="start" x="803" y="-542.5" font-family="Helvetica,sans-Serif" font-size="10.00">NekoEngine/include</text>
<text text-anchor="start" x="803" y="-531.5" font-family="Helvetica,sans-Serif" font-size="10.00">/NekoEngine/ECS/Components</text>
<text text-anchor="middle" x="871" y="-520.5" font-family="Helvetica,sans-Serif" font-size="10.00">/RigidBody.hpp</text>
</a>
</g>
</g>
<!-- Node2 -->
<g id="node2" class="node">
<title>Node2</title>
<g id="a_node2"><a xlink:href="_components_8hpp.html" target="_top" xlink:title="Components.">
<polygon fill="none" stroke="black" points="634,-435.5 634,-476.5 786,-476.5 786,-435.5 634,-435.5"/>
<text text-anchor="start" x="642" y="-464.5" font-family="Helvetica,sans-Serif" font-size="10.00">NekoEngine/include</text>
<text text-anchor="start" x="642" y="-453.5" font-family="Helvetica,sans-Serif" font-size="10.00">/NekoEngine/ECS/Components</text>
<text text-anchor="middle" x="710" y="-442.5" font-family="Helvetica,sans-Serif" font-size="10.00">/Components.hpp</text>
</a>
</g>
</g>
<!-- Node1&#45;&gt;Node2 -->
<g id="edge1" class="edge">
<title>Node1&#45;&gt;Node2</title>
<path fill="none" stroke="midnightblue" d="M820.26,-509.05C798.06,-498.57 772.33,-486.42 751.32,-476.51"/>
<polygon fill="midnightblue" stroke="midnightblue" points="819,-512.32 829.54,-513.43 821.99,-505.99 819,-512.32"/>
</g>
<!-- Node21 -->
<g id="node21" class="node">
<title>Node21</title>
<g id="a_node21"><a xlink:href="_pattern_system_8cpp.html" target="_top" xlink:title="Physics System class implementation.">
<polygon fill="none" stroke="black" points="1022.5,-145.5 1022.5,-175.5 1165.5,-175.5 1165.5,-145.5 1022.5,-145.5"/>
<text text-anchor="start" x="1030.5" y="-163.5" font-family="Helvetica,sans-Serif" font-size="10.00">NekoEngine/src/ECS</text>
<text text-anchor="middle" x="1094" y="-152.5" font-family="Helvetica,sans-Serif" font-size="10.00">/Systems/PatternSystem.cpp</text>
</a>
</g>
</g>
<!-- Node1&#45;&gt;Node21 -->
<g id="edge38" class="edge">
<title>Node1&#45;&gt;Node21</title>
<path fill="none" stroke="midnightblue" d="M940.36,-509.54C995.35,-486.04 1063,-443.93 1063,-379 1063,-379 1063,-379 1063,-299 1063,-253 1079.72,-200.41 1088.6,-175.71"/>
<polygon fill="midnightblue" stroke="midnightblue" points="938.86,-506.37 930.96,-513.43 941.54,-512.84 938.86,-506.37"/>
</g>
<!-- Node3 -->
<g id="node3" class="node">
<title>Node3</title>
<g id="a_node3"><a xlink:href="_client_collision_8hpp.html" target="_top" xlink:title=" ">
<polygon fill="none" stroke="black" points="456,-368.5 456,-387.5 614,-387.5 614,-368.5 456,-368.5"/>
<text text-anchor="middle" x="535" y="-375.5" font-family="Helvetica,sans-Serif" font-size="10.00">Client/include/ClientCollision.hpp</text>
</a>
</g>
</g>
<!-- Node2&#45;&gt;Node3 -->
<g id="edge2" class="edge">
<title>Node2&#45;&gt;Node3</title>
<path fill="none" stroke="midnightblue" d="M655.49,-431.33C621.19,-416.43 578.96,-398.09 554.69,-387.55"/>
<polygon fill="midnightblue" stroke="midnightblue" points="654.37,-434.65 664.93,-435.43 657.15,-428.23 654.37,-434.65"/>
</g>
<!-- Node8 -->
<g id="node8" class="node">
<title>Node8</title>
<g id="a_node8"><a xlink:href="_bonus_system_8hpp.html" target="_top" xlink:title=" ">
<polygon fill="none" stroke="black" points="148,-357.5 148,-398.5 284,-398.5 284,-357.5 148,-357.5"/>
<text text-anchor="start" x="156" y="-386.5" font-family="Helvetica,sans-Serif" font-size="10.00">NekoEngine/include</text>
<text text-anchor="start" x="156" y="-375.5" font-family="Helvetica,sans-Serif" font-size="10.00">/NekoEngine/ECS/Systems</text>
<text text-anchor="middle" x="216" y="-364.5" font-family="Helvetica,sans-Serif" font-size="10.00">/BonusSystem.hpp</text>
</a>
</g>
</g>
<!-- Node2&#45;&gt;Node8 -->
<g id="edge7" class="edge">
<title>Node2&#45;&gt;Node8</title>
<path fill="none" stroke="midnightblue" d="M623.75,-446.49C539.08,-437.41 406.48,-421.27 293,-399 290.15,-398.44 287.26,-397.84 284.34,-397.21"/>
<polygon fill="midnightblue" stroke="midnightblue" points="623.52,-449.99 633.84,-447.56 624.26,-443.02 623.52,-449.99"/>
</g>
<!-- Node10 -->
<g id="node10" class="node">
<title>Node10</title>
<g id="a_node10"><a xlink:href="_neko_engine_8hpp.html" target="_top" xlink:title=" ">
<polygon fill="none" stroke="black" points="671,-212.5 671,-242.5 817,-242.5 817,-212.5 671,-212.5"/>
<text text-anchor="start" x="679" y="-230.5" font-family="Helvetica,sans-Serif" font-size="10.00">NekoEngine/include</text>
<text text-anchor="middle" x="744" y="-219.5" font-family="Helvetica,sans-Serif" font-size="10.00">/NekoEngine/NekoEngine.hpp</text>
</a>
</g>
</g>
<!-- Node2&#45;&gt;Node10 -->
<g id="edge36" class="edge">
<title>Node2&#45;&gt;Node10</title>
<path fill="none" stroke="midnightblue" d="M767.21,-429.77C779.13,-421.73 790.15,-411.56 797,-399 826.25,-345.39 779.1,-273.32 755.81,-242.95"/>
<polygon fill="midnightblue" stroke="midnightblue" points="765.05,-427 758.42,-435.26 768.76,-432.94 765.05,-427"/>
</g>
<!-- Node12 -->
<g id="node12" class="node">
<title>Node12</title>
<g id="a_node12"><a xlink:href="_window_8hpp.html" target="_top" xlink:title="Contains the NekoEngine Window class wrapper.">
<polygon fill="none" stroke="black" points="937,-67.5 937,-108.5 1051,-108.5 1051,-67.5 937,-67.5"/>
<text text-anchor="start" x="945" y="-96.5" font-family="Helvetica,sans-Serif" font-size="10.00">NekoEngine/include</text>
<text text-anchor="start" x="945" y="-85.5" font-family="Helvetica,sans-Serif" font-size="10.00">/NekoEngine/Graphics</text>
<text text-anchor="middle" x="994" y="-74.5" font-family="Helvetica,sans-Serif" font-size="10.00">/Window.hpp</text>
</a>
</g>
</g>
<!-- Node2&#45;&gt;Node12 -->
<g id="edge35" class="edge">
<title>Node2&#45;&gt;Node12</title>
<path fill="none" stroke="midnightblue" d="M796.14,-444.82C879.71,-429.58 994,-392.09 994,-301 994,-301 994,-301 994,-226.5 994,-184.49 994,-135.25 994,-108.58"/>
<polygon fill="midnightblue" stroke="midnightblue" points="795.36,-441.41 786.11,-446.57 796.56,-448.3 795.36,-441.41"/>
</g>
<!-- Node25 -->
<g id="node25" class="node">
<title>Node25</title>
<g id="a_node25"><a xlink:href="_collision_8hpp.html" target="_top" xlink:title=" ">
<polygon fill="none" stroke="black" points="302,-357.5 302,-398.5 438,-398.5 438,-357.5 302,-357.5"/>
<text text-anchor="start" x="310" y="-386.5" font-family="Helvetica,sans-Serif" font-size="10.00">NekoEngine/include</text>
<text text-anchor="start" x="310" y="-375.5" font-family="Helvetica,sans-Serif" font-size="10.00">/NekoEngine/ECS/Systems</text>
<text text-anchor="middle" x="370" y="-364.5" font-family="Helvetica,sans-Serif" font-size="10.00">/Collision.hpp</text>
</a>
</g>
</g>
<!-- Node2&#45;&gt;Node25 -->
<g id="edge32" class="edge">
<title>Node2&#45;&gt;Node25</title>
<path fill="none" stroke="midnightblue" d="M623.76,-437.64C572.32,-427.04 505.78,-412.88 447,-399 444.18,-398.33 441.3,-397.64 438.39,-396.93"/>
<polygon fill="midnightblue" stroke="midnightblue" points="623.34,-441.13 633.84,-439.71 624.75,-434.27 623.34,-441.13"/>
</g>
<!-- Node27 -->
<g id="node27" class="node">
<title>Node27</title>
<g id="a_node27"><a xlink:href="_animation_system_8cpp.html" target="_top" xlink:title=" ">
<polygon fill="none" stroke="black" points="632.5,-363 632.5,-393 787.5,-393 787.5,-363 632.5,-363"/>
<text text-anchor="start" x="640.5" y="-381" font-family="Helvetica,sans-Serif" font-size="10.00">NekoEngine/src/ECS</text>
<text text-anchor="middle" x="710" y="-370" font-family="Helvetica,sans-Serif" font-size="10.00">/Systems/AnimationSystem.cpp</text>
</a>
</g>
</g>
<!-- Node2&#45;&gt;Node27 -->
<g id="edge37" class="edge">
<title>Node2&#45;&gt;Node27</title>
<path fill="none" stroke="midnightblue" d="M710,-425.28C710,-414.25 710,-402.25 710,-393.23"/>
<polygon fill="midnightblue" stroke="midnightblue" points="706.5,-425.43 710,-435.43 713.5,-425.43 706.5,-425.43"/>
</g>
<!-- Node4 -->
<g id="node4" class="node">
<title>Node4</title>
<g id="a_node4"><a xlink:href="_client_game_8hpp.html" target="_top" xlink:title=" ">
<polygon fill="none" stroke="black" points="411.5,-78.5 411.5,-97.5 558.5,-97.5 558.5,-78.5 411.5,-78.5"/>
<text text-anchor="middle" x="485" y="-85.5" font-family="Helvetica,sans-Serif" font-size="10.00">Client/include/ClientGame.hpp</text>
</a>
</g>
</g>
<!-- Node3&#45;&gt;Node4 -->
<g id="edge3" class="edge">
<title>Node3&#45;&gt;Node4</title>
<path fill="none" stroke="midnightblue" d="M511.95,-362.65C498.43,-352.79 482.55,-338.37 475,-321 440.13,-240.76 471.56,-129.86 481.95,-97.93"/>
<polygon fill="midnightblue" stroke="midnightblue" points="510.17,-365.67 520.39,-368.46 514.14,-359.91 510.17,-365.67"/>
</g>
<!-- Node7 -->
<g id="node7" class="node">
<title>Node7</title>
<g id="a_node7"><a xlink:href="_client_collision_8cpp.html" target="_top" xlink:title=" ">
<polygon fill="none" stroke="black" points="484,-290.5 484,-309.5 624,-309.5 624,-290.5 484,-290.5"/>
<text text-anchor="middle" x="554" y="-297.5" font-family="Helvetica,sans-Serif" font-size="10.00">Client/src/ClientCollision.cpp</text>
</a>
</g>
</g>
<!-- Node3&#45;&gt;Node7 -->
<g id="edge6" class="edge">
<title>Node3&#45;&gt;Node7</title>
<path fill="none" stroke="midnightblue" d="M539.69,-358.22C543.58,-342.7 548.91,-321.36 551.85,-309.62"/>
<polygon fill="midnightblue" stroke="midnightblue" points="536.21,-357.73 537.18,-368.28 543,-359.43 536.21,-357.73"/>
</g>
<!-- Node5 -->
<g id="node5" class="node">
<title>Node5</title>
<g id="a_node5"><a xlink:href="_client_game_8cpp.html" target="_top" xlink:title=" ">
<polygon fill="none" stroke="black" points="420,-6 420,-25 550,-25 550,-6 420,-6"/>
<text text-anchor="middle" x="485" y="-13" font-family="Helvetica,sans-Serif" font-size="10.00">Client/src/ClientGame.cpp</text>
</a>
</g>
</g>
<!-- Node4&#45;&gt;Node5 -->
<g id="edge4" class="edge">
<title>Node4&#45;&gt;Node5</title>
<path fill="none" stroke="midnightblue" d="M485,-67.94C485,-54.03 485,-35.82 485,-25.22"/>
<polygon fill="midnightblue" stroke="midnightblue" points="481.5,-68.36 485,-78.36 488.5,-68.36 481.5,-68.36"/>
</g>
<!-- Node6 -->
<g id="node6" class="node">
<title>Node6</title>
<g id="a_node6"><a xlink:href="main_8cpp.html" target="_top" xlink:title="Entrypoint.">
<polygon fill="none" stroke="black" points="664,-6 664,-25 764,-25 764,-6 664,-6"/>
<text text-anchor="middle" x="714" y="-13" font-family="Helvetica,sans-Serif" font-size="10.00">Client/src/main.cpp</text>
</a>
</g>
</g>
<!-- Node4&#45;&gt;Node6 -->
<g id="edge5" class="edge">
<title>Node4&#45;&gt;Node6</title>
<path fill="none" stroke="midnightblue" d="M522.21,-75.55C568.14,-61.4 645.22,-37.68 686.28,-25.03"/>
<polygon fill="midnightblue" stroke="midnightblue" points="521.15,-72.21 512.62,-78.5 523.21,-78.9 521.15,-72.21"/>
</g>
<!-- Node9 -->
<g id="node9" class="node">
<title>Node9</title>
<g id="a_node9"><a xlink:href="_systems_8hpp.html" target="_top" xlink:title="Systems.">
<polygon fill="none" stroke="black" points="158,-279.5 158,-320.5 294,-320.5 294,-279.5 158,-279.5"/>
<text text-anchor="start" x="166" y="-308.5" font-family="Helvetica,sans-Serif" font-size="10.00">NekoEngine/include</text>
<text text-anchor="start" x="166" y="-297.5" font-family="Helvetica,sans-Serif" font-size="10.00">/NekoEngine/ECS/Systems</text>
<text text-anchor="middle" x="226" y="-286.5" font-family="Helvetica,sans-Serif" font-size="10.00">/Systems.hpp</text>
</a>
</g>
</g>
<!-- Node8&#45;&gt;Node9 -->
<g id="edge8" class="edge">
<title>Node8&#45;&gt;Node9</title>
<path fill="none" stroke="midnightblue" d="M219.91,-347.3C221.09,-338.3 222.36,-328.65 223.43,-320.51"/>
<polygon fill="midnightblue" stroke="midnightblue" points="216.41,-347.06 218.58,-357.43 223.35,-347.97 216.41,-347.06"/>
</g>
<!-- Node24 -->
<g id="node24" class="node">
<title>Node24</title>
<g id="a_node24"><a xlink:href="_bonus_system_8cpp.html" target="_top" xlink:title=" ">
<polygon fill="none" stroke="black" points="0,-285 0,-315 140,-315 140,-285 0,-285"/>
<text text-anchor="start" x="8" y="-303" font-family="Helvetica,sans-Serif" font-size="10.00">NekoEngine/src/ECS</text>
<text text-anchor="middle" x="70" y="-292" font-family="Helvetica,sans-Serif" font-size="10.00">/Systems/BonusSystem.cpp</text>
</a>
</g>
</g>
<!-- Node8&#45;&gt;Node24 -->
<g id="edge31" class="edge">
<title>Node8&#45;&gt;Node24</title>
<path fill="none" stroke="midnightblue" d="M169.52,-352.81C145.74,-340.43 117.6,-325.78 97.33,-315.23"/>
<polygon fill="midnightblue" stroke="midnightblue" points="167.92,-355.92 178.4,-357.43 171.15,-349.71 167.92,-355.92"/>
</g>
<!-- Node9&#45;&gt;Node10 -->
<g id="edge9" class="edge">
<title>Node9&#45;&gt;Node10</title>
<path fill="none" stroke="midnightblue" d="M304.39,-278.87C438.78,-254.39 585.25,-240.53 670.96,-233.71"/>
<polygon fill="midnightblue" stroke="midnightblue" points="303.52,-275.47 294.32,-280.72 304.79,-282.35 303.52,-275.47"/>
</g>
<!-- Node22 -->
<g id="node22" class="node">
<title>Node22</title>
<g id="a_node22"><a xlink:href="_timer_system_8cpp.html" target="_top" xlink:title=" ">
<polygon fill="none" stroke="black" points="79.5,-212.5 79.5,-242.5 216.5,-242.5 216.5,-212.5 79.5,-212.5"/>
<text text-anchor="start" x="87.5" y="-230.5" font-family="Helvetica,sans-Serif" font-size="10.00">NekoEngine/src/ECS</text>
<text text-anchor="middle" x="148" y="-219.5" font-family="Helvetica,sans-Serif" font-size="10.00">/Systems/TimerSystem.cpp</text>
</a>
</g>
</g>
<!-- Node9&#45;&gt;Node22 -->
<g id="edge29" class="edge">
<title>Node9&#45;&gt;Node22</title>
<path fill="none" stroke="midnightblue" d="M196.79,-272.6C185.65,-262.53 173.38,-251.44 163.92,-242.89"/>
<polygon fill="midnightblue" stroke="midnightblue" points="194.51,-275.25 204.27,-279.36 199.2,-270.06 194.51,-275.25"/>
</g>
<!-- Node23 -->
<g id="node23" class="node">
<title>Node23</title>
<g id="a_node23"><a xlink:href="_scene_8cpp.html" target="_top" xlink:title="For the love of god.">
<polygon fill="none" stroke="black" points="235,-212.5 235,-242.5 357,-242.5 357,-212.5 235,-212.5"/>
<text text-anchor="start" x="243" y="-230.5" font-family="Helvetica,sans-Serif" font-size="10.00">NekoEngine/src/Scenes</text>
<text text-anchor="middle" x="296" y="-219.5" font-family="Helvetica,sans-Serif" font-size="10.00">/Scene.cpp</text>
</a>
</g>
</g>
<!-- Node9&#45;&gt;Node23 -->
<g id="edge30" class="edge">
<title>Node9&#45;&gt;Node23</title>
<path fill="none" stroke="midnightblue" d="M252.79,-272.02C262.63,-262.11 273.39,-251.27 281.71,-242.89"/>
<polygon fill="midnightblue" stroke="midnightblue" points="250.06,-269.8 245.5,-279.36 255.03,-274.73 250.06,-269.8"/>
</g>
<!-- Node10&#45;&gt;Node4 -->
<g id="edge10" class="edge">
<title>Node10&#45;&gt;Node4</title>
<path fill="none" stroke="midnightblue" d="M660.75,-217.11C603.72,-209.07 534.64,-195.66 513,-176 489.98,-155.09 485.8,-115.2 485.1,-97.65"/>
<polygon fill="midnightblue" stroke="midnightblue" points="660.49,-220.61 670.88,-218.5 661.44,-213.67 660.49,-220.61"/>
</g>
<!-- Node10&#45;&gt;Node6 -->
<g id="edge27" class="edge">
<title>Node10&#45;&gt;Node6</title>
<path fill="none" stroke="midnightblue" d="M741.85,-202.37C738.9,-171.04 733.02,-114.73 725,-67 722.5,-52.13 718.54,-35.03 716.12,-25.03"/>
<polygon fill="midnightblue" stroke="midnightblue" points="738.37,-202.72 742.77,-212.35 745.34,-202.07 738.37,-202.72"/>
</g>
<!-- Node11 -->
<g id="node11" class="node">
<title>Node11</title>
<g id="a_node11"><a xlink:href="_custom_client_8hpp.html" target="_top" xlink:title=" ">
<polygon fill="none" stroke="black" points="772.5,-151 772.5,-170 927.5,-170 927.5,-151 772.5,-151"/>
<text text-anchor="middle" x="850" y="-158" font-family="Helvetica,sans-Serif" font-size="10.00">Client/include/CustomClient.hpp</text>
</a>
</g>
</g>
<!-- Node10&#45;&gt;Node11 -->
<g id="edge11" class="edge">
<title>Node10&#45;&gt;Node11</title>
<path fill="none" stroke="midnightblue" d="M775.57,-207.14C795.72,-194.79 820.83,-179.39 836.13,-170.01"/>
<polygon fill="midnightblue" stroke="midnightblue" points="773.7,-204.18 767,-212.4 777.35,-210.15 773.7,-204.18"/>
</g>
<!-- Node19 -->
<g id="node19" class="node">
<title>Node19</title>
<g id="a_node19"><a xlink:href="_player_system_8hpp.html" target="_top" xlink:title=" ">
<polygon fill="none" stroke="black" points="522,-151 522,-170 678,-170 678,-151 522,-151"/>
<text text-anchor="middle" x="600" y="-158" font-family="Helvetica,sans-Serif" font-size="10.00">Client/include/PlayerSystem.hpp</text>
</a>
</g>
</g>
<!-- Node10&#45;&gt;Node19 -->
<g id="edge23" class="edge">
<title>Node10&#45;&gt;Node19</title>
<path fill="none" stroke="midnightblue" d="M703.31,-208.13C675.59,-195.62 640.19,-179.64 618.85,-170.01"/>
<polygon fill="midnightblue" stroke="midnightblue" points="702.2,-211.47 712.75,-212.4 705.08,-205.09 702.2,-211.47"/>
</g>
<!-- Node20 -->
<g id="node20" class="node">
<title>Node20</title>
<g id="a_node20"><a xlink:href="_player_system_8cpp.html" target="_top" xlink:title=" ">
<polygon fill="none" stroke="black" points="576.5,-78.5 576.5,-97.5 715.5,-97.5 715.5,-78.5 576.5,-78.5"/>
<text text-anchor="middle" x="646" y="-85.5" font-family="Helvetica,sans-Serif" font-size="10.00">Client/src/PlayerSystem.cpp</text>
</a>
</g>
</g>
<!-- Node10&#45;&gt;Node20 -->
<g id="edge26" class="edge">
<title>Node10&#45;&gt;Node20</title>
<path fill="none" stroke="midnightblue" d="M728.38,-203.89C717,-187.48 701.16,-164.79 687,-145 674.94,-128.15 660.58,-108.66 652.45,-97.69"/>
<polygon fill="midnightblue" stroke="midnightblue" points="725.64,-206.07 734.21,-212.3 731.39,-202.09 725.64,-206.07"/>
</g>
<!-- Node10&#45;&gt;Node21 -->
<g id="edge28" class="edge">
<title>Node10&#45;&gt;Node21</title>
<path fill="none" stroke="midnightblue" d="M827.47,-211C886.81,-199.98 965.7,-185.33 1022.22,-174.83"/>
<polygon fill="midnightblue" stroke="midnightblue" points="826.56,-207.61 817.37,-212.87 827.84,-214.49 826.56,-207.61"/>
</g>
<!-- Node11&#45;&gt;Node6 -->
<g id="edge12" class="edge">
<title>Node11&#45;&gt;Node6</title>
<path fill="none" stroke="midnightblue" d="M834.69,-143.41C805.87,-113.1 744.44,-48.51 722.23,-25.15"/>
<polygon fill="midnightblue" stroke="midnightblue" points="832.47,-146.15 841.9,-150.98 837.54,-141.32 832.47,-146.15"/>
</g>
<!-- Node11&#45;&gt;Node12 -->
<g id="edge13" class="edge">
<title>Node11&#45;&gt;Node12</title>
<path fill="none" stroke="midnightblue" d="M876.63,-146.46C898.32,-135.84 929.29,-120.68 953.97,-108.6"/>
<polygon fill="midnightblue" stroke="midnightblue" points="874.81,-143.46 867.37,-151 877.89,-149.74 874.81,-143.46"/>
</g>
<!-- Node18 -->
<g id="node18" class="node">
<title>Node18</title>
<g id="a_node18"><a xlink:href="_window_8cpp.html" target="_top" xlink:title="Contains the NekoEngine Window class implementation.">
<polygon fill="none" stroke="black" points="782,-0.5 782,-30.5 910,-30.5 910,-0.5 782,-0.5"/>
<text text-anchor="start" x="790" y="-18.5" font-family="Helvetica,sans-Serif" font-size="10.00">NekoEngine/src/Graphics</text>
<text text-anchor="middle" x="846" y="-7.5" font-family="Helvetica,sans-Serif" font-size="10.00">/Window.cpp</text>
</a>
</g>
</g>
<!-- Node11&#45;&gt;Node18 -->
<g id="edge22" class="edge">
<title>Node11&#45;&gt;Node18</title>
<path fill="none" stroke="midnightblue" d="M849.47,-140.62C848.66,-111.65 847.13,-56.85 846.4,-30.86"/>
<polygon fill="midnightblue" stroke="midnightblue" points="845.98,-141.08 849.76,-150.98 852.98,-140.89 845.98,-141.08"/>
</g>
<!-- Node12&#45;&gt;Node6 -->
<g id="edge14" class="edge">
<title>Node12&#45;&gt;Node6</title>
<path fill="none" stroke="midnightblue" d="M926.75,-70.07C870.35,-55.87 792.13,-36.17 747.95,-25.05"/>
<polygon fill="midnightblue" stroke="midnightblue" points="926.11,-73.52 936.66,-72.56 927.82,-66.73 926.11,-73.52"/>
</g>
<!-- Node12&#45;&gt;Node10 -->
<g id="edge15" class="edge">
<title>Node12&#45;&gt;Node10</title>
<path fill="none" stroke="midnightblue" d="M981.85,-117.9C972.34,-137.1 957.32,-161.39 937,-176 902.13,-201.07 855.76,-213.7 817.21,-220.06"/>
<polygon fill="midnightblue" stroke="midnightblue" points="985.1,-119.21 986.2,-108.67 978.77,-116.22 985.1,-119.21"/>
</g>
<!-- Node13 -->
<g id="node13" class="node">
<title>Node13</title>
<g id="a_node13"><a xlink:href="_background_system_8cpp.html" target="_top" xlink:title=" ">
<polygon fill="none" stroke="black" points="1078,-0.5 1078,-30.5 1242,-30.5 1242,-0.5 1078,-0.5"/>
<text text-anchor="start" x="1086" y="-18.5" font-family="Helvetica,sans-Serif" font-size="10.00">NekoEngine/src/ECS</text>
<text text-anchor="middle" x="1160" y="-7.5" font-family="Helvetica,sans-Serif" font-size="10.00">/Systems/BackgroundSystem.cpp</text>
</a>
</g>
</g>
<!-- Node12&#45;&gt;Node13 -->
<g id="edge16" class="edge">
<title>Node12&#45;&gt;Node13</title>
<path fill="none" stroke="midnightblue" d="M1049.5,-63.43C1075.16,-52.53 1104.78,-39.95 1126.9,-30.56"/>
<polygon fill="midnightblue" stroke="midnightblue" points="1048.08,-60.23 1040.24,-67.36 1050.81,-66.67 1048.08,-60.23"/>
</g>
<!-- Node14 -->
<g id="node14" class="node">
<title>Node14</title>
<g id="a_node14"><a xlink:href="_mouse_system_8cpp.html" target="_top" xlink:title=" ">
<polygon fill="none" stroke="black" points="1260.5,-0.5 1260.5,-30.5 1401.5,-30.5 1401.5,-0.5 1260.5,-0.5"/>
<text text-anchor="start" x="1268.5" y="-18.5" font-family="Helvetica,sans-Serif" font-size="10.00">NekoEngine/src/ECS</text>
<text text-anchor="middle" x="1331" y="-7.5" font-family="Helvetica,sans-Serif" font-size="10.00">/Systems/MouseSystem.cpp</text>
</a>
</g>
</g>
<!-- Node12&#45;&gt;Node14 -->
<g id="edge17" class="edge">
<title>Node12&#45;&gt;Node14</title>
<path fill="none" stroke="midnightblue" d="M1061.11,-72.96C1119.98,-60.65 1205.13,-42.83 1263.98,-30.52"/>
<polygon fill="midnightblue" stroke="midnightblue" points="1060.24,-69.57 1051.17,-75.04 1061.67,-76.42 1060.24,-69.57"/>
</g>
<!-- Node15 -->
<g id="node15" class="node">
<title>Node15</title>
<g id="a_node15"><a xlink:href="_parallax_system_8cpp.html" target="_top" xlink:title=" ">
<polygon fill="none" stroke="black" points="1420,-0.5 1420,-30.5 1566,-30.5 1566,-0.5 1420,-0.5"/>
<text text-anchor="start" x="1428" y="-18.5" font-family="Helvetica,sans-Serif" font-size="10.00">NekoEngine/src/ECS</text>
<text text-anchor="middle" x="1493" y="-7.5" font-family="Helvetica,sans-Serif" font-size="10.00">/Systems/ParallaxSystem.cpp</text>
</a>
</g>
</g>
<!-- Node12&#45;&gt;Node15 -->
<g id="edge18" class="edge">
<title>Node12&#45;&gt;Node15</title>
<path fill="none" stroke="midnightblue" d="M1061.1,-78.86C1143.6,-68.65 1287.84,-50.15 1411,-31 1413.86,-30.56 1416.77,-30.09 1419.71,-29.62"/>
<polygon fill="midnightblue" stroke="midnightblue" points="1060.6,-75.4 1051.1,-80.09 1061.46,-82.34 1060.6,-75.4"/>
</g>
<!-- Node16 -->
<g id="node16" class="node">
<title>Node16</title>
<g id="a_node16"><a xlink:href="_render_system_8cpp.html" target="_top" xlink:title="Render System class implementation.">
<polygon fill="none" stroke="black" points="1584.5,-0.5 1584.5,-30.5 1727.5,-30.5 1727.5,-0.5 1584.5,-0.5"/>
<text text-anchor="start" x="1592.5" y="-18.5" font-family="Helvetica,sans-Serif" font-size="10.00">NekoEngine/src/ECS</text>
<text text-anchor="middle" x="1656" y="-7.5" font-family="Helvetica,sans-Serif" font-size="10.00">/Systems/RenderSystem.cpp</text>
</a>
</g>
</g>
<!-- Node12&#45;&gt;Node16 -->
<g id="edge19" class="edge">
<title>Node12&#45;&gt;Node16</title>
<path fill="none" stroke="midnightblue" d="M1061.22,-82.3C1169.65,-74.32 1389.73,-56.47 1575,-31 1578.11,-30.57 1581.29,-30.11 1584.5,-29.62"/>
<polygon fill="midnightblue" stroke="midnightblue" points="1060.8,-78.82 1051.08,-83.04 1061.31,-85.8 1060.8,-78.82"/>
</g>
<!-- Node17 -->
<g id="node17" class="node">
<title>Node17</title>
<g id="a_node17"><a xlink:href="_text_system_8cpp.html" target="_top" xlink:title=" ">
<polygon fill="none" stroke="black" points="928.5,-0.5 928.5,-30.5 1059.5,-30.5 1059.5,-0.5 928.5,-0.5"/>
<text text-anchor="start" x="936.5" y="-18.5" font-family="Helvetica,sans-Serif" font-size="10.00">NekoEngine/src/ECS</text>
<text text-anchor="middle" x="994" y="-7.5" font-family="Helvetica,sans-Serif" font-size="10.00">/Systems/TextSystem.cpp</text>
</a>
</g>
</g>
<!-- Node12&#45;&gt;Node17 -->
<g id="edge20" class="edge">
<title>Node12&#45;&gt;Node17</title>
<path fill="none" stroke="midnightblue" d="M994,-57.08C994,-48.01 994,-38.45 994,-30.89"/>
<polygon fill="midnightblue" stroke="midnightblue" points="990.5,-57.36 994,-67.36 997.5,-57.36 990.5,-57.36"/>
</g>
<!-- Node12&#45;&gt;Node18 -->
<g id="edge21" class="edge">
<title>Node12&#45;&gt;Node18</title>
<path fill="none" stroke="midnightblue" d="M943.65,-63.02C921.06,-52.25 895.18,-39.93 875.75,-30.67"/>
<polygon fill="midnightblue" stroke="midnightblue" points="942.24,-66.22 952.77,-67.36 945.25,-59.9 942.24,-66.22"/>
</g>
<!-- Node19&#45;&gt;Node4 -->
<g id="edge24" class="edge">
<title>Node19&#45;&gt;Node4</title>
<path fill="none" stroke="midnightblue" d="M577.36,-145.62C554.15,-131.39 518.76,-109.7 499.22,-97.72"/>
<polygon fill="midnightblue" stroke="midnightblue" points="575.54,-148.61 585.9,-150.86 579.2,-142.64 575.54,-148.61"/>
</g>
<!-- Node19&#45;&gt;Node20 -->
<g id="edge25" class="edge">
<title>Node19&#45;&gt;Node20</title>
<path fill="none" stroke="midnightblue" d="M611.36,-142.09C620.55,-128 633.12,-108.74 640.31,-97.72"/>
<polygon fill="midnightblue" stroke="midnightblue" points="608.17,-140.57 605.64,-150.86 614.04,-144.39 608.17,-140.57"/>
</g>
<!-- Node25&#45;&gt;Node9 -->
<g id="edge33" class="edge">
<title>Node25&#45;&gt;Node9</title>
<path fill="none" stroke="midnightblue" d="M323.82,-352.63C304.14,-342.24 281.5,-330.29 262.96,-320.51"/>
<polygon fill="midnightblue" stroke="midnightblue" points="322.44,-355.86 332.92,-357.43 325.71,-349.67 322.44,-355.86"/>
</g>
<!-- Node26 -->
<g id="node26" class="node">
<title>Node26</title>
<g id="a_node26"><a xlink:href="_collision_8cpp.html" target="_top" xlink:title=" ">
<polygon fill="none" stroke="black" points="312,-285 312,-315 428,-315 428,-285 312,-285"/>
<text text-anchor="start" x="320" y="-303" font-family="Helvetica,sans-Serif" font-size="10.00">NekoEngine/src/ECS</text>
<text text-anchor="middle" x="370" y="-292" font-family="Helvetica,sans-Serif" font-size="10.00">/Systems/Collision.cpp</text>
</a>
</g>
</g>
<!-- Node25&#45;&gt;Node26 -->
<g id="edge34" class="edge">
<title>Node25&#45;&gt;Node26</title>
<path fill="none" stroke="midnightblue" d="M370,-347.28C370,-336.25 370,-324.25 370,-315.23"/>
<polygon fill="midnightblue" stroke="midnightblue" points="366.5,-347.43 370,-357.43 373.5,-347.43 366.5,-347.43"/>
</g>
</g>
</svg>
