<?xml version="1.0" encoding="UTF-8" standalone="no"?>
<!DOCTYPE svg PUBLIC "-//W3C//DTD SVG 1.1//EN"
 "http://www.w3.org/Graphics/SVG/1.1/DTD/svg11.dtd">
<!-- Generated by graphviz version 2.49.3 (20211027.1501)
 -->
<!-- Title: NekoEngine/include/NekoEngine/Scenes/Scene.hpp Pages: 1 -->
<svg width="1299pt" height="318pt"
 viewBox="0.00 0.00 1299.00 318.00" xmlns="http://www.w3.org/2000/svg" xmlns:xlink="http://www.w3.org/1999/xlink">
<g id="graph0" class="graph" transform="scale(1 1) rotate(0) translate(4 314)">
<title>NekoEngine/include/NekoEngine/Scenes/Scene.hpp</title>
<!-- Node1 -->
<g id="node1" class="node">
<title>Node1</title>
<g id="a_node1"><a xlink:title="Scene class.">
<polygon fill="#bfbfbf" stroke="black" points="330,-279.5 330,-309.5 487,-309.5 487,-279.5 330,-279.5"/>
<text text-anchor="start" x="338" y="-297.5" font-family="Helvetica,sans-Serif" font-size="10.00">NekoEngine/include</text>
<text text-anchor="middle" x="408.5" y="-286.5" font-family="Helvetica,sans-Serif" font-size="10.00">/NekoEngine/Scenes/Scene.hpp</text>
</a>
</g>
</g>
<!-- Node2 -->
<g id="node2" class="node">
<title>Node2</title>
<g id="a_node2"><a xlink:href="_neko_engine_8hpp.html" target="_top" xlink:title=" ">
<polygon fill="none" stroke="black" points="259.5,-212.5 259.5,-242.5 405.5,-242.5 405.5,-212.5 259.5,-212.5"/>
<text text-anchor="start" x="267.5" y="-230.5" font-family="Helvetica,sans-Serif" font-size="10.00">NekoEngine/include</text>
<text text-anchor="middle" x="332.5" y="-219.5" font-family="Helvetica,sans-Serif" font-size="10.00">/NekoEngine/NekoEngine.hpp</text>
</a>
</g>
</g>
<!-- Node1&#45;&gt;Node2 -->
<g id="edge1" class="edge">
<title>Node1&#45;&gt;Node2</title>
<path fill="none" stroke="midnightblue" d="M384.39,-272.88C372.84,-263.01 359.31,-251.43 348.96,-242.58"/>
<polygon fill="midnightblue" stroke="midnightblue" points="382.13,-275.56 392.01,-279.4 386.68,-270.24 382.13,-275.56"/>
</g>
<!-- Node17 -->
<g id="node17" class="node">
<title>Node17</title>
<g id="a_node17"><a xlink:href="_scene_8cpp.html" target="_top" xlink:title="For the love of god.">
<polygon fill="none" stroke="black" points="423.5,-212.5 423.5,-242.5 545.5,-242.5 545.5,-212.5 423.5,-212.5"/>
<text text-anchor="start" x="431.5" y="-230.5" font-family="Helvetica,sans-Serif" font-size="10.00">NekoEngine/src/Scenes</text>
<text text-anchor="middle" x="484.5" y="-219.5" font-family="Helvetica,sans-Serif" font-size="10.00">/Scene.cpp</text>
</a>
</g>
</g>
<!-- Node1&#45;&gt;Node17 -->
<g id="edge23" class="edge">
<title>Node1&#45;&gt;Node17</title>
<path fill="none" stroke="midnightblue" d="M432.61,-272.88C444.16,-263.01 457.69,-251.43 468.04,-242.58"/>
<polygon fill="midnightblue" stroke="midnightblue" points="430.32,-270.24 424.99,-279.4 434.87,-275.56 430.32,-270.24"/>
</g>
<!-- Node3 -->
<g id="node3" class="node">
<title>Node3</title>
<g id="a_node3"><a xlink:href="_client_game_8hpp.html" target="_top" xlink:title=" ">
<polygon fill="none" stroke="black" points="0,-78.5 0,-97.5 147,-97.5 147,-78.5 0,-78.5"/>
<text text-anchor="middle" x="73.5" y="-85.5" font-family="Helvetica,sans-Serif" font-size="10.00">Client/include/ClientGame.hpp</text>
</a>
</g>
</g>
<!-- Node2&#45;&gt;Node3 -->
<g id="edge2" class="edge">
<title>Node2&#45;&gt;Node3</title>
<path fill="none" stroke="midnightblue" d="M249.25,-217.11C192.22,-209.07 123.14,-195.66 101.5,-176 78.48,-155.09 74.3,-115.2 73.6,-97.65"/>
<polygon fill="midnightblue" stroke="midnightblue" points="248.99,-220.61 259.38,-218.5 249.94,-213.67 248.99,-220.61"/>
</g>
<!-- Node5 -->
<g id="node5" class="node">
<title>Node5</title>
<g id="a_node5"><a xlink:href="main_8cpp.html" target="_top" xlink:title="Entrypoint.">
<polygon fill="none" stroke="black" points="227.5,-6 227.5,-25 327.5,-25 327.5,-6 227.5,-6"/>
<text text-anchor="middle" x="277.5" y="-13" font-family="Helvetica,sans-Serif" font-size="10.00">Client/src/main.cpp</text>
</a>
</g>
</g>
<!-- Node2&#45;&gt;Node5 -->
<g id="edge21" class="edge">
<title>Node2&#45;&gt;Node5</title>
<path fill="none" stroke="midnightblue" d="M333.29,-202.06C333.5,-169.96 331.04,-112.37 313.5,-67 307.21,-50.73 294.46,-34.83 285.95,-25.35"/>
<polygon fill="midnightblue" stroke="midnightblue" points="329.78,-202.23 333.12,-212.29 336.78,-202.35 329.78,-202.23"/>
</g>
<!-- Node6 -->
<g id="node6" class="node">
<title>Node6</title>
<g id="a_node6"><a xlink:href="_custom_client_8hpp.html" target="_top" xlink:title=" ">
<polygon fill="none" stroke="black" points="361,-151 361,-170 516,-170 516,-151 361,-151"/>
<text text-anchor="middle" x="438.5" y="-158" font-family="Helvetica,sans-Serif" font-size="10.00">Client/include/CustomClient.hpp</text>
</a>
</g>
</g>
<!-- Node2&#45;&gt;Node6 -->
<g id="edge5" class="edge">
<title>Node2&#45;&gt;Node6</title>
<path fill="none" stroke="midnightblue" d="M364.07,-207.14C384.22,-194.79 409.33,-179.39 424.63,-170.01"/>
<polygon fill="midnightblue" stroke="midnightblue" points="362.2,-204.18 355.5,-212.4 365.85,-210.15 362.2,-204.18"/>
</g>
<!-- Node14 -->
<g id="node14" class="node">
<title>Node14</title>
<g id="a_node14"><a xlink:href="_player_system_8hpp.html" target="_top" xlink:title=" ">
<polygon fill="none" stroke="black" points="110.5,-151 110.5,-170 266.5,-170 266.5,-151 110.5,-151"/>
<text text-anchor="middle" x="188.5" y="-158" font-family="Helvetica,sans-Serif" font-size="10.00">Client/include/PlayerSystem.hpp</text>
</a>
</g>
</g>
<!-- Node2&#45;&gt;Node14 -->
<g id="edge17" class="edge">
<title>Node2&#45;&gt;Node14</title>
<path fill="none" stroke="midnightblue" d="M291.81,-208.13C264.09,-195.62 228.69,-179.64 207.35,-170.01"/>
<polygon fill="midnightblue" stroke="midnightblue" points="290.7,-211.47 301.25,-212.4 293.58,-205.09 290.7,-211.47"/>
</g>
<!-- Node15 -->
<g id="node15" class="node">
<title>Node15</title>
<g id="a_node15"><a xlink:href="_player_system_8cpp.html" target="_top" xlink:title=" ">
<polygon fill="none" stroke="black" points="165,-78.5 165,-97.5 304,-97.5 304,-78.5 165,-78.5"/>
<text text-anchor="middle" x="234.5" y="-85.5" font-family="Helvetica,sans-Serif" font-size="10.00">Client/src/PlayerSystem.cpp</text>
</a>
</g>
</g>
<!-- Node2&#45;&gt;Node15 -->
<g id="edge20" class="edge">
<title>Node2&#45;&gt;Node15</title>
<path fill="none" stroke="midnightblue" d="M316.88,-203.89C305.5,-187.48 289.66,-164.79 275.5,-145 263.44,-128.15 249.08,-108.66 240.95,-97.69"/>
<polygon fill="midnightblue" stroke="midnightblue" points="314.14,-206.07 322.71,-212.3 319.89,-202.09 314.14,-206.07"/>
</g>
<!-- Node16 -->
<g id="node16" class="node">
<title>Node16</title>
<g id="a_node16"><a xlink:href="_pattern_system_8cpp.html" target="_top" xlink:title="Physics System class implementation.">
<polygon fill="none" stroke="black" points="573,-145.5 573,-175.5 716,-175.5 716,-145.5 573,-145.5"/>
<text text-anchor="start" x="581" y="-163.5" font-family="Helvetica,sans-Serif" font-size="10.00">NekoEngine/src/ECS</text>
<text text-anchor="middle" x="644.5" y="-152.5" font-family="Helvetica,sans-Serif" font-size="10.00">/Systems/PatternSystem.cpp</text>
</a>
</g>
</g>
<!-- Node2&#45;&gt;Node16 -->
<g id="edge22" class="edge">
<title>Node2&#45;&gt;Node16</title>
<path fill="none" stroke="midnightblue" d="M409.86,-210.38C461.18,-199.69 527.88,-185.8 577.04,-175.55"/>
<polygon fill="midnightblue" stroke="midnightblue" points="408.89,-207.01 399.82,-212.48 410.32,-213.86 408.89,-207.01"/>
</g>
<!-- Node4 -->
<g id="node4" class="node">
<title>Node4</title>
<g id="a_node4"><a xlink:href="_client_game_8cpp.html" target="_top" xlink:title=" ">
<polygon fill="none" stroke="black" points="8.5,-6 8.5,-25 138.5,-25 138.5,-6 8.5,-6"/>
<text text-anchor="middle" x="73.5" y="-13" font-family="Helvetica,sans-Serif" font-size="10.00">Client/src/ClientGame.cpp</text>
</a>
</g>
</g>
<!-- Node3&#45;&gt;Node4 -->
<g id="edge3" class="edge">
<title>Node3&#45;&gt;Node4</title>
<path fill="none" stroke="midnightblue" d="M73.5,-67.94C73.5,-54.03 73.5,-35.82 73.5,-25.22"/>
<polygon fill="midnightblue" stroke="midnightblue" points="70,-68.36 73.5,-78.36 77,-68.36 70,-68.36"/>
</g>
<!-- Node3&#45;&gt;Node5 -->
<g id="edge4" class="edge">
<title>Node3&#45;&gt;Node5</title>
<path fill="none" stroke="midnightblue" d="M107.68,-75.19C148.71,-61.01 216.53,-37.57 252.81,-25.03"/>
<polygon fill="midnightblue" stroke="midnightblue" points="106.42,-71.92 98.11,-78.5 108.7,-78.54 106.42,-71.92"/>
</g>
<!-- Node6&#45;&gt;Node5 -->
<g id="edge6" class="edge">
<title>Node6&#45;&gt;Node5</title>
<path fill="none" stroke="midnightblue" d="M423.9,-143.35C406.32,-124.27 375.53,-91.95 346.5,-67 327.92,-51.03 304.63,-34.67 290.42,-25.05"/>
<polygon fill="midnightblue" stroke="midnightblue" points="421.46,-145.87 430.79,-150.89 426.63,-141.15 421.46,-145.87"/>
</g>
<!-- Node7 -->
<g id="node7" class="node">
<title>Node7</title>
<g id="a_node7"><a xlink:href="_window_8hpp.html" target="_top" xlink:title="Contains the NekoEngine Window class wrapper.">
<polygon fill="none" stroke="black" points="500.5,-67.5 500.5,-108.5 614.5,-108.5 614.5,-67.5 500.5,-67.5"/>
<text text-anchor="start" x="508.5" y="-96.5" font-family="Helvetica,sans-Serif" font-size="10.00">NekoEngine/include</text>
<text text-anchor="start" x="508.5" y="-85.5" font-family="Helvetica,sans-Serif" font-size="10.00">/NekoEngine/Graphics</text>
<text text-anchor="middle" x="557.5" y="-74.5" font-family="Helvetica,sans-Serif" font-size="10.00">/Window.hpp</text>
</a>
</g>
</g>
<!-- Node6&#45;&gt;Node7 -->
<g id="edge7" class="edge">
<title>Node6&#45;&gt;Node7</title>
<path fill="none" stroke="midnightblue" d="M461.71,-145.75C479.53,-135.19 504.39,-120.47 524.31,-108.66"/>
<polygon fill="midnightblue" stroke="midnightblue" points="459.91,-142.75 453.09,-150.86 463.48,-148.77 459.91,-142.75"/>
</g>
<!-- Node13 -->
<g id="node13" class="node">
<title>Node13</title>
<g id="a_node13"><a xlink:href="_window_8cpp.html" target="_top" xlink:title="Contains the NekoEngine Window class implementation.">
<polygon fill="none" stroke="black" points="345.5,-0.5 345.5,-30.5 473.5,-30.5 473.5,-0.5 345.5,-0.5"/>
<text text-anchor="start" x="353.5" y="-18.5" font-family="Helvetica,sans-Serif" font-size="10.00">NekoEngine/src/Graphics</text>
<text text-anchor="middle" x="409.5" y="-7.5" font-family="Helvetica,sans-Serif" font-size="10.00">/Window.cpp</text>
</a>
</g>
</g>
<!-- Node6&#45;&gt;Node13 -->
<g id="edge16" class="edge">
<title>Node6&#45;&gt;Node13</title>
<path fill="none" stroke="midnightblue" d="M434.75,-141.01C428.89,-112.13 417.71,-56.96 412.41,-30.86"/>
<polygon fill="midnightblue" stroke="midnightblue" points="431.35,-141.88 436.77,-150.98 438.22,-140.49 431.35,-141.88"/>
</g>
<!-- Node7&#45;&gt;Node2 -->
<g id="edge9" class="edge">
<title>Node7&#45;&gt;Node2</title>
<path fill="none" stroke="midnightblue" d="M553.67,-118.79C549.71,-137.71 541.69,-161.31 525.5,-176 515.8,-184.8 450.19,-200.83 398.13,-212.48"/>
<polygon fill="midnightblue" stroke="midnightblue" points="557.13,-119.32 555.48,-108.86 550.24,-118.07 557.13,-119.32"/>
</g>
<!-- Node7&#45;&gt;Node5 -->
<g id="edge8" class="edge">
<title>Node7&#45;&gt;Node5</title>
<path fill="none" stroke="midnightblue" d="M490.25,-70.07C433.85,-55.87 355.63,-36.17 311.45,-25.05"/>
<polygon fill="midnightblue" stroke="midnightblue" points="489.61,-73.52 500.16,-72.56 491.32,-66.73 489.61,-73.52"/>
</g>
<!-- Node8 -->
<g id="node8" class="node">
<title>Node8</title>
<g id="a_node8"><a xlink:href="_background_system_8cpp.html" target="_top" xlink:title=" ">
<polygon fill="none" stroke="black" points="641.5,-0.5 641.5,-30.5 805.5,-30.5 805.5,-0.5 641.5,-0.5"/>
<text text-anchor="start" x="649.5" y="-18.5" font-family="Helvetica,sans-Serif" font-size="10.00">NekoEngine/src/ECS</text>
<text text-anchor="middle" x="723.5" y="-7.5" font-family="Helvetica,sans-Serif" font-size="10.00">/Systems/BackgroundSystem.cpp</text>
</a>
</g>
</g>
<!-- Node7&#45;&gt;Node8 -->
<g id="edge10" class="edge">
<title>Node7&#45;&gt;Node8</title>
<path fill="none" stroke="midnightblue" d="M613,-63.43C638.66,-52.53 668.28,-39.95 690.4,-30.56"/>
<polygon fill="midnightblue" stroke="midnightblue" points="611.58,-60.23 603.74,-67.36 614.31,-66.67 611.58,-60.23"/>
</g>
<!-- Node9 -->
<g id="node9" class="node">
<title>Node9</title>
<g id="a_node9"><a xlink:href="_mouse_system_8cpp.html" target="_top" xlink:title=" ">
<polygon fill="none" stroke="black" points="824,-0.5 824,-30.5 965,-30.5 965,-0.5 824,-0.5"/>
<text text-anchor="start" x="832" y="-18.5" font-family="Helvetica,sans-Serif" font-size="10.00">NekoEngine/src/ECS</text>
<text text-anchor="middle" x="894.5" y="-7.5" font-family="Helvetica,sans-Serif" font-size="10.00">/Systems/MouseSystem.cpp</text>
</a>
</g>
</g>
<!-- Node7&#45;&gt;Node9 -->
<g id="edge11" class="edge">
<title>Node7&#45;&gt;Node9</title>
<path fill="none" stroke="midnightblue" d="M624.61,-72.96C683.48,-60.65 768.63,-42.83 827.48,-30.52"/>
<polygon fill="midnightblue" stroke="midnightblue" points="623.74,-69.57 614.67,-75.04 625.17,-76.42 623.74,-69.57"/>
</g>
<!-- Node10 -->
<g id="node10" class="node">
<title>Node10</title>
<g id="a_node10"><a xlink:href="_parallax_system_8cpp.html" target="_top" xlink:title=" ">
<polygon fill="none" stroke="black" points="983.5,-0.5 983.5,-30.5 1129.5,-30.5 1129.5,-0.5 983.5,-0.5"/>
<text text-anchor="start" x="991.5" y="-18.5" font-family="Helvetica,sans-Serif" font-size="10.00">NekoEngine/src/ECS</text>
<text text-anchor="middle" x="1056.5" y="-7.5" font-family="Helvetica,sans-Serif" font-size="10.00">/Systems/ParallaxSystem.cpp</text>
</a>
</g>
</g>
<!-- Node7&#45;&gt;Node10 -->
<g id="edge12" class="edge">
<title>Node7&#45;&gt;Node10</title>
<path fill="none" stroke="midnightblue" d="M624.6,-78.86C707.1,-68.65 851.34,-50.15 974.5,-31 977.36,-30.56 980.27,-30.09 983.21,-29.62"/>
<polygon fill="midnightblue" stroke="midnightblue" points="624.1,-75.4 614.6,-80.09 624.96,-82.34 624.1,-75.4"/>
</g>
<!-- Node11 -->
<g id="node11" class="node">
<title>Node11</title>
<g id="a_node11"><a xlink:href="_render_system_8cpp.html" target="_top" xlink:title="Render System class implementation.">
<polygon fill="none" stroke="black" points="1148,-0.5 1148,-30.5 1291,-30.5 1291,-0.5 1148,-0.5"/>
<text text-anchor="start" x="1156" y="-18.5" font-family="Helvetica,sans-Serif" font-size="10.00">NekoEngine/src/ECS</text>
<text text-anchor="middle" x="1219.5" y="-7.5" font-family="Helvetica,sans-Serif" font-size="10.00">/Systems/RenderSystem.cpp</text>
</a>
</g>
</g>
<!-- Node7&#45;&gt;Node11 -->
<g id="edge13" class="edge">
<title>Node7&#45;&gt;Node11</title>
<path fill="none" stroke="midnightblue" d="M624.72,-82.3C733.15,-74.32 953.23,-56.47 1138.5,-31 1141.61,-30.57 1144.79,-30.11 1148,-29.62"/>
<polygon fill="midnightblue" stroke="midnightblue" points="624.3,-78.82 614.58,-83.04 624.81,-85.8 624.3,-78.82"/>
</g>
<!-- Node12 -->
<g id="node12" class="node">
<title>Node12</title>
<g id="a_node12"><a xlink:href="_text_system_8cpp.html" target="_top" xlink:title=" ">
<polygon fill="none" stroke="black" points="492,-0.5 492,-30.5 623,-30.5 623,-0.5 492,-0.5"/>
<text text-anchor="start" x="500" y="-18.5" font-family="Helvetica,sans-Serif" font-size="10.00">NekoEngine/src/ECS</text>
<text text-anchor="middle" x="557.5" y="-7.5" font-family="Helvetica,sans-Serif" font-size="10.00">/Systems/TextSystem.cpp</text>
</a>
</g>
</g>
<!-- Node7&#45;&gt;Node12 -->
<g id="edge14" class="edge">
<title>Node7&#45;&gt;Node12</title>
<path fill="none" stroke="midnightblue" d="M557.5,-57.08C557.5,-48.01 557.5,-38.45 557.5,-30.89"/>
<polygon fill="midnightblue" stroke="midnightblue" points="554,-57.36 557.5,-67.36 561,-57.36 554,-57.36"/>
</g>
<!-- Node7&#45;&gt;Node13 -->
<g id="edge15" class="edge">
<title>Node7&#45;&gt;Node13</title>
<path fill="none" stroke="midnightblue" d="M507.15,-63.02C484.56,-52.25 458.68,-39.93 439.25,-30.67"/>
<polygon fill="midnightblue" stroke="midnightblue" points="505.74,-66.22 516.27,-67.36 508.75,-59.9 505.74,-66.22"/>
</g>
<!-- Node14&#45;&gt;Node3 -->
<g id="edge18" class="edge">
<title>Node14&#45;&gt;Node3</title>
<path fill="none" stroke="midnightblue" d="M165.86,-145.62C142.65,-131.39 107.26,-109.7 87.72,-97.72"/>
<polygon fill="midnightblue" stroke="midnightblue" points="164.04,-148.61 174.4,-150.86 167.7,-142.64 164.04,-148.61"/>
</g>
<!-- Node14&#45;&gt;Node15 -->
<g id="edge19" class="edge">
<title>Node14&#45;&gt;Node15</title>
<path fill="none" stroke="midnightblue" d="M199.86,-142.09C209.05,-128 221.62,-108.74 228.81,-97.72"/>
<polygon fill="midnightblue" stroke="midnightblue" points="196.67,-140.57 194.14,-150.86 202.54,-144.39 196.67,-140.57"/>
</g>
</g>
</svg>
