<?xml version="1.0" encoding="UTF-8" standalone="no"?>
<!DOCTYPE svg PUBLIC "-//W3C//DTD SVG 1.1//EN"
 "http://www.w3.org/Graphics/SVG/1.1/DTD/svg11.dtd">
<!-- Generated by graphviz version 2.49.3 (20211027.1501)
 -->
<!-- Title: NekoEngine/include/NekoEngine/Scenes/Scene.hpp Pages: 1 -->
<svg width="996pt" height="408pt"
 viewBox="0.00 0.00 995.50 408.00" xmlns="http://www.w3.org/2000/svg" xmlns:xlink="http://www.w3.org/1999/xlink">
<g id="graph0" class="graph" transform="scale(1 1) rotate(0) translate(4 404)">
<title>NekoEngine/include/NekoEngine/Scenes/Scene.hpp</title>
<!-- Node1 -->
<g id="node1" class="node">
<title>Node1</title>
<g id="a_node1"><a xlink:title="Scene class.">
<polygon fill="#bfbfbf" stroke="black" points="594.5,-369.5 594.5,-399.5 751.5,-399.5 751.5,-369.5 594.5,-369.5"/>
<text text-anchor="start" x="602.5" y="-387.5" font-family="Helvetica,sans-Serif" font-size="10.00">NekoEngine/include</text>
<text text-anchor="middle" x="673" y="-376.5" font-family="Helvetica,sans-Serif" font-size="10.00">/NekoEngine/Scenes/Scene.hpp</text>
</a>
</g>
</g>
<!-- Node2 -->
<g id="node2" class="node">
<title>Node2</title>
<g id="a_node2"><a xlink:href="_coordinator_8hpp.html" target="_top" xlink:title="Coordinator class.">
<polygon fill="none" stroke="black" points="592,-313.5 592,-332.5 754,-332.5 754,-313.5 592,-313.5"/>
<text text-anchor="middle" x="673" y="-320.5" font-family="Helvetica,sans-Serif" font-size="10.00">NekoEngine/ECS/Coordinator.hpp</text>
</a>
</g>
</g>
<!-- Node1&#45;&gt;Node2 -->
<g id="edge1" class="edge">
<title>Node1&#45;&gt;Node2</title>
<path fill="none" stroke="midnightblue" d="M673,-369.4C673,-361.47 673,-351.46 673,-342.86"/>
<polygon fill="midnightblue" stroke="midnightblue" points="676.5,-342.66 673,-332.66 669.5,-342.66 676.5,-342.66"/>
</g>
<!-- Node3 -->
<g id="node3" class="node">
<title>Node3</title>
<g id="a_node3"><a xlink:href="_component_manager_8hpp.html" target="_top" xlink:title="Component Manmager class.">
<polygon fill="none" stroke="black" points="368,-246.5 368,-276.5 512,-276.5 512,-246.5 368,-246.5"/>
<text text-anchor="start" x="376" y="-264.5" font-family="Helvetica,sans-Serif" font-size="10.00">NekoEngine/ECS/Component</text>
<text text-anchor="middle" x="440" y="-253.5" font-family="Helvetica,sans-Serif" font-size="10.00">Manager.hpp</text>
</a>
</g>
</g>
<!-- Node2&#45;&gt;Node3 -->
<g id="edge2" class="edge">
<title>Node2&#45;&gt;Node3</title>
<path fill="none" stroke="midnightblue" d="M639.62,-313.48C604.52,-304.51 548.43,-290.19 504.63,-279"/>
<polygon fill="midnightblue" stroke="midnightblue" points="505.47,-275.61 494.91,-276.52 503.74,-282.39 505.47,-275.61"/>
</g>
<!-- Node14 -->
<g id="node14" class="node">
<title>Node14</title>
<g id="a_node14"><a xlink:href="_entity_manager_8hpp.html" target="_top" xlink:title="Entities are fun.">
<polygon fill="none" stroke="black" points="0,-185 0,-204 174,-204 174,-185 0,-185"/>
<text text-anchor="middle" x="87" y="-192" font-family="Helvetica,sans-Serif" font-size="10.00">NekoEngine/ECS/EntityManager.hpp</text>
</a>
</g>
</g>
<!-- Node2&#45;&gt;Node14 -->
<g id="edge17" class="edge">
<title>Node2&#45;&gt;Node14</title>
<path fill="none" stroke="midnightblue" d="M591.74,-313.72C527.99,-306.41 437.25,-294.23 359,-277 271.67,-257.77 171.52,-224.87 120.58,-207.33"/>
<polygon fill="midnightblue" stroke="midnightblue" points="121.66,-204 111.06,-204.03 119.37,-210.61 121.66,-204"/>
</g>
<!-- Node16 -->
<g id="node16" class="node">
<title>Node16</title>
<g id="a_node16"><a xlink:href="_system_manager_8hpp.html" target="_top" xlink:title=" ">
<polygon fill="none" stroke="black" points="581.5,-252 581.5,-271 764.5,-271 764.5,-252 581.5,-252"/>
<text text-anchor="middle" x="673" y="-259" font-family="Helvetica,sans-Serif" font-size="10.00">NekoEngine/ECS/SystemManager.hpp</text>
</a>
</g>
</g>
<!-- Node2&#45;&gt;Node16 -->
<g id="edge22" class="edge">
<title>Node2&#45;&gt;Node16</title>
<path fill="none" stroke="midnightblue" d="M668.1,-313.48C666.27,-305.08 665.8,-291.98 666.69,-281.16"/>
<polygon fill="midnightblue" stroke="midnightblue" points="670.19,-281.4 668.1,-271.01 663.25,-280.43 670.19,-281.4"/>
</g>
<!-- Node20 -->
<g id="node20" class="node">
<title>Node20</title>
<g id="a_node20"><a xlink:title=" ">
<polygon fill="none" stroke="#bfbfbf" points="783,-252 783,-271 865,-271 865,-252 783,-252"/>
<text text-anchor="middle" x="824" y="-259" font-family="Helvetica,sans-Serif" font-size="10.00">Coordinator.tpp</text>
</a>
</g>
</g>
<!-- Node2&#45;&gt;Node20 -->
<g id="edge31" class="edge">
<title>Node2&#45;&gt;Node20</title>
<path fill="none" stroke="midnightblue" d="M694.63,-313.48C720.42,-303.31 763.71,-286.26 793.04,-274.7"/>
<polygon fill="midnightblue" stroke="midnightblue" points="794.38,-277.93 802.41,-271.01 791.82,-271.42 794.38,-277.93"/>
</g>
<!-- Node4 -->
<g id="node4" class="node">
<title>Node4</title>
<g id="a_node4"><a xlink:title=" ">
<polygon fill="none" stroke="#bfbfbf" points="174,-118 174,-137 212,-137 212,-118 174,-118"/>
<text text-anchor="middle" x="193" y="-125" font-family="Helvetica,sans-Serif" font-size="10.00">array</text>
</a>
</g>
</g>
<!-- Node3&#45;&gt;Node4 -->
<g id="edge3" class="edge">
<title>Node3&#45;&gt;Node4</title>
<path fill="none" stroke="midnightblue" d="M367.96,-250.72C314.47,-242.16 247.26,-228.23 226,-210 207.3,-193.96 199.06,-165.75 195.53,-147.09"/>
<polygon fill="midnightblue" stroke="midnightblue" points="198.97,-146.44 193.91,-137.13 192.06,-147.56 198.97,-146.44"/>
</g>
<!-- Node5 -->
<g id="node5" class="node">
<title>Node5</title>
<g id="a_node5"><a xlink:title=" ">
<polygon fill="none" stroke="#bfbfbf" points="625.5,-118 625.5,-137 660.5,-137 660.5,-118 625.5,-118"/>
<text text-anchor="middle" x="643" y="-125" font-family="Helvetica,sans-Serif" font-size="10.00">map</text>
</a>
</g>
</g>
<!-- Node3&#45;&gt;Node5 -->
<g id="edge4" class="edge">
<title>Node3&#45;&gt;Node5</title>
<path fill="none" stroke="midnightblue" d="M512.17,-248.77C540.6,-241.35 572.1,-229.34 596,-210 616.59,-193.34 629.95,-165.08 636.98,-146.6"/>
<polygon fill="midnightblue" stroke="midnightblue" points="640.34,-147.61 640.4,-137.02 633.75,-145.26 640.34,-147.61"/>
</g>
<!-- Node6 -->
<g id="node6" class="node">
<title>Node6</title>
<g id="a_node6"><a xlink:title=" ">
<polygon fill="none" stroke="#bfbfbf" points="556.5,-118 556.5,-137 607.5,-137 607.5,-118 556.5,-118"/>
<text text-anchor="middle" x="582" y="-125" font-family="Helvetica,sans-Serif" font-size="10.00">memory</text>
</a>
</g>
</g>
<!-- Node3&#45;&gt;Node6 -->
<g id="edge5" class="edge">
<title>Node3&#45;&gt;Node6</title>
<path fill="none" stroke="midnightblue" d="M439.56,-246.39C439.75,-228.62 442.7,-198.13 459,-179 486.41,-146.84 507.92,-159.09 547,-143 548.59,-142.35 550.22,-141.67 551.86,-141"/>
<polygon fill="midnightblue" stroke="midnightblue" points="553.37,-144.16 561.28,-137.1 550.7,-137.69 553.37,-144.16"/>
</g>
<!-- Node7 -->
<g id="node7" class="node">
<title>Node7</title>
<g id="a_node7"><a xlink:href="_types_8hpp.html" target="_top" xlink:title="NekoEngine types definition.">
<polygon fill="none" stroke="black" points="221.5,-56.5 221.5,-75.5 360.5,-75.5 360.5,-56.5 221.5,-56.5"/>
<text text-anchor="middle" x="291" y="-63.5" font-family="Helvetica,sans-Serif" font-size="10.00">NekoEngine/ECS/Types.hpp</text>
</a>
</g>
</g>
<!-- Node3&#45;&gt;Node7 -->
<g id="edge6" class="edge">
<title>Node3&#45;&gt;Node7</title>
<path fill="none" stroke="midnightblue" d="M367.79,-249.45C323.4,-241.01 272.51,-227.8 259,-210 232.66,-175.31 245.75,-153.49 259,-112 262.34,-101.54 269.1,-91.43 275.55,-83.45"/>
<polygon fill="midnightblue" stroke="midnightblue" points="278.35,-85.56 282.25,-75.71 273.06,-80.98 278.35,-85.56"/>
</g>
<!-- Node10 -->
<g id="node10" class="node">
<title>Node10</title>
<g id="a_node10"><a xlink:href="_component_array_8hpp.html" target="_top" xlink:title="Component Array template class.">
<polygon fill="none" stroke="black" points="268,-179.5 268,-209.5 412,-209.5 412,-179.5 268,-179.5"/>
<text text-anchor="start" x="276" y="-197.5" font-family="Helvetica,sans-Serif" font-size="10.00">NekoEngine/ECS/Component</text>
<text text-anchor="middle" x="340" y="-186.5" font-family="Helvetica,sans-Serif" font-size="10.00">Array.hpp</text>
</a>
</g>
</g>
<!-- Node3&#45;&gt;Node10 -->
<g id="edge9" class="edge">
<title>Node3&#45;&gt;Node10</title>
<path fill="none" stroke="midnightblue" d="M418.3,-246.4C404.28,-237.28 385.83,-225.29 370.36,-215.24"/>
<polygon fill="midnightblue" stroke="midnightblue" points="371.95,-212.09 361.66,-209.58 368.13,-217.96 371.95,-212.09"/>
</g>
<!-- Node13 -->
<g id="node13" class="node">
<title>Node13</title>
<g id="a_node13"><a xlink:title=" ">
<polygon fill="none" stroke="#bfbfbf" points="468.5,-185 468.5,-204 587.5,-204 587.5,-185 468.5,-185"/>
<text text-anchor="middle" x="528" y="-192" font-family="Helvetica,sans-Serif" font-size="10.00">ComponentManager.tpp</text>
</a>
</g>
</g>
<!-- Node3&#45;&gt;Node13 -->
<g id="edge16" class="edge">
<title>Node3&#45;&gt;Node13</title>
<path fill="none" stroke="midnightblue" d="M459.09,-246.4C473.58,-235.7 493.43,-221.03 508.11,-210.19"/>
<polygon fill="midnightblue" stroke="midnightblue" points="510.52,-212.76 516.48,-204.01 506.36,-207.13 510.52,-212.76"/>
</g>
<!-- Node8 -->
<g id="node8" class="node">
<title>Node8</title>
<g id="a_node8"><a xlink:title=" ">
<polygon fill="none" stroke="#bfbfbf" points="237,-0.5 237,-19.5 283,-19.5 283,-0.5 237,-0.5"/>
<text text-anchor="middle" x="260" y="-7.5" font-family="Helvetica,sans-Serif" font-size="10.00">cstdint</text>
</a>
</g>
</g>
<!-- Node7&#45;&gt;Node8 -->
<g id="edge7" class="edge">
<title>Node7&#45;&gt;Node8</title>
<path fill="none" stroke="midnightblue" d="M285.88,-56.08C281.59,-48.61 275.34,-37.72 270.06,-28.52"/>
<polygon fill="midnightblue" stroke="midnightblue" points="273.04,-26.68 265.02,-19.75 266.97,-30.17 273.04,-26.68"/>
</g>
<!-- Node9 -->
<g id="node9" class="node">
<title>Node9</title>
<g id="a_node9"><a xlink:title=" ">
<polygon fill="none" stroke="#bfbfbf" points="301.5,-0.5 301.5,-19.5 342.5,-19.5 342.5,-0.5 301.5,-0.5"/>
<text text-anchor="middle" x="322" y="-7.5" font-family="Helvetica,sans-Serif" font-size="10.00">bitset</text>
</a>
</g>
</g>
<!-- Node7&#45;&gt;Node9 -->
<g id="edge8" class="edge">
<title>Node7&#45;&gt;Node9</title>
<path fill="none" stroke="midnightblue" d="M296.12,-56.08C300.41,-48.61 306.66,-37.72 311.94,-28.52"/>
<polygon fill="midnightblue" stroke="midnightblue" points="315.03,-30.17 316.98,-19.75 308.96,-26.68 315.03,-30.17"/>
</g>
<!-- Node10&#45;&gt;Node4 -->
<g id="edge10" class="edge">
<title>Node10&#45;&gt;Node4</title>
<path fill="none" stroke="midnightblue" d="M308.1,-179.4C282.31,-167.99 246.33,-152.08 221.49,-141.1"/>
<polygon fill="midnightblue" stroke="midnightblue" points="222.8,-137.85 212.24,-137.01 219.97,-144.25 222.8,-137.85"/>
</g>
<!-- Node10&#45;&gt;Node5 -->
<g id="edge11" class="edge">
<title>Node10&#45;&gt;Node5</title>
<path fill="none" stroke="midnightblue" d="M412.13,-182.91C480.91,-172.34 579.28,-155.86 616,-143 617.24,-142.56 618.5,-142.08 619.75,-141.55"/>
<polygon fill="midnightblue" stroke="midnightblue" points="621.61,-144.54 629.09,-137.04 618.56,-138.24 621.61,-144.54"/>
</g>
<!-- Node10&#45;&gt;Node6 -->
<g id="edge12" class="edge">
<title>Node10&#45;&gt;Node6</title>
<path fill="none" stroke="midnightblue" d="M408.8,-179.5C449.44,-170.54 501.64,-157.83 547,-143 549.13,-142.3 551.32,-141.53 553.51,-140.72"/>
<polygon fill="midnightblue" stroke="midnightblue" points="554.92,-143.93 562.94,-137.02 552.36,-137.42 554.92,-143.93"/>
</g>
<!-- Node11 -->
<g id="node11" class="node">
<title>Node11</title>
<g id="a_node11"><a xlink:href="_i_component_array_8hpp.html" target="_top" xlink:title="Interface for the Component Array template class.">
<polygon fill="none" stroke="black" points="268.5,-112.5 268.5,-142.5 415.5,-142.5 415.5,-112.5 268.5,-112.5"/>
<text text-anchor="start" x="276.5" y="-130.5" font-family="Helvetica,sans-Serif" font-size="10.00">NekoEngine/ECS/IComponent</text>
<text text-anchor="middle" x="342" y="-119.5" font-family="Helvetica,sans-Serif" font-size="10.00">Array.hpp</text>
</a>
</g>
</g>
<!-- Node10&#45;&gt;Node11 -->
<g id="edge13" class="edge">
<title>Node10&#45;&gt;Node11</title>
<path fill="none" stroke="midnightblue" d="M340.43,-179.4C340.67,-171.64 340.98,-161.81 341.25,-152.86"/>
<polygon fill="midnightblue" stroke="midnightblue" points="344.76,-152.68 341.57,-142.58 337.76,-152.46 344.76,-152.68"/>
</g>
<!-- Node12 -->
<g id="node12" class="node">
<title>Node12</title>
<g id="a_node12"><a xlink:title=" ">
<polygon fill="none" stroke="#bfbfbf" points="434,-118 434,-137 538,-137 538,-118 434,-118"/>
<text text-anchor="middle" x="486" y="-125" font-family="Helvetica,sans-Serif" font-size="10.00">ComponentArray.tpp</text>
</a>
</g>
</g>
<!-- Node10&#45;&gt;Node12 -->
<g id="edge15" class="edge">
<title>Node10&#45;&gt;Node12</title>
<path fill="none" stroke="midnightblue" d="M371.68,-179.4C397.3,-167.99 433.04,-152.08 457.7,-141.1"/>
<polygon fill="midnightblue" stroke="midnightblue" points="459.18,-144.27 466.89,-137.01 456.33,-137.88 459.18,-144.27"/>
</g>
<!-- Node11&#45;&gt;Node7 -->
<g id="edge14" class="edge">
<title>Node11&#45;&gt;Node7</title>
<path fill="none" stroke="midnightblue" d="M329.91,-112.4C322.43,-103.66 312.78,-92.41 304.97,-83.3"/>
<polygon fill="midnightblue" stroke="midnightblue" points="307.59,-80.97 298.42,-75.66 302.27,-85.53 307.59,-80.97"/>
</g>
<!-- Node14&#45;&gt;Node4 -->
<g id="edge19" class="edge">
<title>Node14&#45;&gt;Node4</title>
<path fill="none" stroke="midnightblue" d="M101.3,-184.73C119.02,-173.87 149.43,-155.22 170.34,-142.39"/>
<polygon fill="midnightblue" stroke="midnightblue" points="172.24,-145.34 178.93,-137.13 168.58,-139.37 172.24,-145.34"/>
</g>
<!-- Node14&#45;&gt;Node6 -->
<g id="edge20" class="edge">
<title>Node14&#45;&gt;Node6</title>
<path fill="none" stroke="midnightblue" d="M174.01,-185.29C297.31,-173.45 511.86,-152.01 547,-143 549.51,-142.36 552.07,-141.57 554.62,-140.69"/>
<polygon fill="midnightblue" stroke="midnightblue" points="556.09,-143.88 564.17,-137.03 553.58,-137.34 556.09,-143.88"/>
</g>
<!-- Node14&#45;&gt;Node7 -->
<g id="edge21" class="edge">
<title>Node14&#45;&gt;Node7</title>
<path fill="none" stroke="midnightblue" d="M93.27,-184.6C105.35,-168.07 133.45,-132.46 165,-112 188.9,-96.51 218.81,-85.53 243.49,-78.3"/>
<polygon fill="midnightblue" stroke="midnightblue" points="244.68,-81.6 253.36,-75.52 242.79,-74.86 244.68,-81.6"/>
</g>
<!-- Node15 -->
<g id="node15" class="node">
<title>Node15</title>
<g id="a_node15"><a xlink:title=" ">
<polygon fill="none" stroke="#bfbfbf" points="65.5,-118 65.5,-137 108.5,-137 108.5,-118 65.5,-118"/>
<text text-anchor="middle" x="87" y="-125" font-family="Helvetica,sans-Serif" font-size="10.00">queue</text>
</a>
</g>
</g>
<!-- Node14&#45;&gt;Node15 -->
<g id="edge18" class="edge">
<title>Node14&#45;&gt;Node15</title>
<path fill="none" stroke="midnightblue" d="M87,-184.73C87,-175.18 87,-159.62 87,-147.28"/>
<polygon fill="midnightblue" stroke="midnightblue" points="90.5,-147.13 87,-137.13 83.5,-147.13 90.5,-147.13"/>
</g>
<!-- Node16&#45;&gt;Node2 -->
<g id="edge29" class="edge">
<title>Node16&#45;&gt;Node2</title>
<path fill="none" stroke="midnightblue" d="M677.9,-271.01C679.73,-279.4 680.2,-292.5 679.32,-303.32"/>
<polygon fill="midnightblue" stroke="midnightblue" points="675.81,-303.09 677.9,-313.48 682.75,-304.05 675.81,-303.09"/>
</g>
<!-- Node16&#45;&gt;Node5 -->
<g id="edge24" class="edge">
<title>Node16&#45;&gt;Node5</title>
<path fill="none" stroke="midnightblue" d="M673.58,-251.75C674.34,-236.63 674.86,-204.75 668,-179 664.9,-167.35 658.99,-155.22 653.7,-145.77"/>
<polygon fill="midnightblue" stroke="midnightblue" points="656.64,-143.86 648.55,-137.02 650.6,-147.41 656.64,-143.86"/>
</g>
<!-- Node16&#45;&gt;Node6 -->
<g id="edge23" class="edge">
<title>Node16&#45;&gt;Node6</title>
<path fill="none" stroke="midnightblue" d="M667.03,-251.84C652.18,-230.3 613.37,-174 593.73,-145.52"/>
<polygon fill="midnightblue" stroke="midnightblue" points="596.43,-143.27 587.87,-137.02 590.67,-147.24 596.43,-143.27"/>
</g>
<!-- Node17 -->
<g id="node17" class="node">
<title>Node17</title>
<g id="a_node17"><a xlink:href="_system_8hpp.html" target="_top" xlink:title="ECS System.">
<polygon fill="none" stroke="black" points="720,-185 720,-204 866,-204 866,-185 720,-185"/>
<text text-anchor="middle" x="793" y="-192" font-family="Helvetica,sans-Serif" font-size="10.00">NekoEngine/ECS/System.hpp</text>
</a>
</g>
</g>
<!-- Node16&#45;&gt;Node17 -->
<g id="edge25" class="edge">
<title>Node16&#45;&gt;Node17</title>
<path fill="none" stroke="midnightblue" d="M689.18,-251.73C709.43,-240.77 744.3,-221.88 767.99,-209.05"/>
<polygon fill="midnightblue" stroke="midnightblue" points="769.95,-211.97 777.07,-204.13 766.61,-205.81 769.95,-211.97"/>
</g>
<!-- Node19 -->
<g id="node19" class="node">
<title>Node19</title>
<g id="a_node19"><a xlink:title=" ">
<polygon fill="none" stroke="#bfbfbf" points="884.5,-185 884.5,-204 987.5,-204 987.5,-185 884.5,-185"/>
<text text-anchor="middle" x="936" y="-192" font-family="Helvetica,sans-Serif" font-size="10.00">SystemManager.tpp</text>
</a>
</g>
</g>
<!-- Node16&#45;&gt;Node19 -->
<g id="edge30" class="edge">
<title>Node16&#45;&gt;Node19</title>
<path fill="none" stroke="midnightblue" d="M707.65,-251.94C754.86,-240.27 839.43,-219.37 891.34,-206.54"/>
<polygon fill="midnightblue" stroke="midnightblue" points="892.4,-209.88 901.27,-204.08 890.72,-203.09 892.4,-209.88"/>
</g>
<!-- Node17&#45;&gt;Node6 -->
<g id="edge27" class="edge">
<title>Node17&#45;&gt;Node6</title>
<path fill="none" stroke="midnightblue" d="M758.34,-184.98C722.36,-175.82 664.64,-160.24 616,-143 614.14,-142.34 612.24,-141.63 610.33,-140.89"/>
<polygon fill="midnightblue" stroke="midnightblue" points="611.48,-137.58 600.9,-137.05 608.84,-144.07 611.48,-137.58"/>
</g>
<!-- Node17&#45;&gt;Node7 -->
<g id="edge28" class="edge">
<title>Node17&#45;&gt;Node7</title>
<path fill="none" stroke="midnightblue" d="M783.27,-184.76C763.44,-167.5 716.19,-129.22 669,-112 615.91,-92.62 465.06,-79.05 370.76,-72.18"/>
<polygon fill="midnightblue" stroke="midnightblue" points="370.91,-68.68 360.68,-71.45 370.41,-75.66 370.91,-68.68"/>
</g>
<!-- Node18 -->
<g id="node18" class="node">
<title>Node18</title>
<g id="a_node18"><a xlink:title=" ">
<polygon fill="none" stroke="#bfbfbf" points="778,-118 778,-137 808,-137 808,-118 778,-118"/>
<text text-anchor="middle" x="793" y="-125" font-family="Helvetica,sans-Serif" font-size="10.00">set</text>
</a>
</g>
</g>
<!-- Node17&#45;&gt;Node18 -->
<g id="edge26" class="edge">
<title>Node17&#45;&gt;Node18</title>
<path fill="none" stroke="midnightblue" d="M793,-184.73C793,-175.18 793,-159.62 793,-147.28"/>
<polygon fill="midnightblue" stroke="midnightblue" points="796.5,-147.13 793,-137.13 789.5,-147.13 796.5,-147.13"/>
</g>
</g>
</svg>
