<?xml version="1.0" encoding="UTF-8" standalone="no"?>
<!DOCTYPE svg PUBLIC "-//W3C//DTD SVG 1.1//EN"
 "http://www.w3.org/Graphics/SVG/1.1/DTD/svg11.dtd">
<!-- Generated by graphviz version 2.49.3 (20211027.1501)
 -->
<!-- Title: NekoEngine/include/NekoEngine/ECS/Components/Skin.hpp Pages: 1 -->
<svg width="1305pt" height="563pt"
 viewBox="0.00 0.00 1305.00 563.00" xmlns="http://www.w3.org/2000/svg" xmlns:xlink="http://www.w3.org/1999/xlink">
<g id="graph0" class="graph" transform="scale(1 1) rotate(0) translate(4 559)">
<title>NekoEngine/include/NekoEngine/ECS/Components/Skin.hpp</title>
<!-- Node1 -->
<g id="node1" class="node">
<title>Node1</title>
<g id="a_node1"><a xlink:title="Skin component.">
<polygon fill="#bfbfbf" stroke="black" points="864.5,-513.5 864.5,-554.5 1016.5,-554.5 1016.5,-513.5 864.5,-513.5"/>
<text text-anchor="start" x="872.5" y="-542.5" font-family="Helvetica,sans-Serif" font-size="10.00">NekoEngine/include</text>
<text text-anchor="start" x="872.5" y="-531.5" font-family="Helvetica,sans-Serif" font-size="10.00">/NekoEngine/ECS/Components</text>
<text text-anchor="middle" x="940.5" y="-520.5" font-family="Helvetica,sans-Serif" font-size="10.00">/Skin.hpp</text>
</a>
</g>
</g>
<!-- Node2 -->
<g id="node2" class="node">
<title>Node2</title>
<g id="a_node2"><a xlink:href="_components_8hpp.html" target="_top" xlink:title="Components.">
<polygon fill="none" stroke="black" points="533.5,-435.5 533.5,-476.5 685.5,-476.5 685.5,-435.5 533.5,-435.5"/>
<text text-anchor="start" x="541.5" y="-464.5" font-family="Helvetica,sans-Serif" font-size="10.00">NekoEngine/include</text>
<text text-anchor="start" x="541.5" y="-453.5" font-family="Helvetica,sans-Serif" font-size="10.00">/NekoEngine/ECS/Components</text>
<text text-anchor="middle" x="609.5" y="-442.5" font-family="Helvetica,sans-Serif" font-size="10.00">/Components.hpp</text>
</a>
</g>
</g>
<!-- Node1&#45;&gt;Node2 -->
<g id="edge1" class="edge">
<title>Node1&#45;&gt;Node2</title>
<path fill="none" stroke="midnightblue" d="M854.23,-513.19C802.02,-501.2 736.05,-486.06 685.76,-474.51"/>
<polygon fill="midnightblue" stroke="midnightblue" points="853.62,-516.64 864.15,-515.47 855.18,-509.82 853.62,-516.64"/>
</g>
<!-- Node13 -->
<g id="node13" class="node">
<title>Node13</title>
<g id="a_node13"><a xlink:href="_background_system_8cpp.html" target="_top" xlink:title=" ">
<polygon fill="none" stroke="black" points="807.5,-0.5 807.5,-30.5 971.5,-30.5 971.5,-0.5 807.5,-0.5"/>
<text text-anchor="start" x="815.5" y="-18.5" font-family="Helvetica,sans-Serif" font-size="10.00">NekoEngine/src/ECS</text>
<text text-anchor="middle" x="889.5" y="-7.5" font-family="Helvetica,sans-Serif" font-size="10.00">/Systems/BackgroundSystem.cpp</text>
</a>
</g>
</g>
<!-- Node1&#45;&gt;Node13 -->
<g id="edge38" class="edge">
<title>Node1&#45;&gt;Node13</title>
<path fill="none" stroke="midnightblue" d="M934.59,-503.04C929.02,-472.11 921.5,-422.38 921.5,-379 921.5,-379 921.5,-379 921.5,-159.5 921.5,-111.42 904.06,-56.39 894.93,-30.88"/>
<polygon fill="midnightblue" stroke="midnightblue" points="931.21,-503.97 936.47,-513.16 938.09,-502.69 931.21,-503.97"/>
</g>
<!-- Node15 -->
<g id="node15" class="node">
<title>Node15</title>
<g id="a_node15"><a xlink:href="_parallax_system_8cpp.html" target="_top" xlink:title=" ">
<polygon fill="none" stroke="black" points="989.5,-0.5 989.5,-30.5 1135.5,-30.5 1135.5,-0.5 989.5,-0.5"/>
<text text-anchor="start" x="997.5" y="-18.5" font-family="Helvetica,sans-Serif" font-size="10.00">NekoEngine/src/ECS</text>
<text text-anchor="middle" x="1062.5" y="-7.5" font-family="Helvetica,sans-Serif" font-size="10.00">/Systems/ParallaxSystem.cpp</text>
</a>
</g>
</g>
<!-- Node1&#45;&gt;Node15 -->
<g id="edge39" class="edge">
<title>Node1&#45;&gt;Node15</title>
<path fill="none" stroke="midnightblue" d="M966.26,-505.8C990.95,-476.77 1024.5,-428.27 1024.5,-379 1024.5,-379 1024.5,-379 1024.5,-159.5 1024.5,-110.95 1045.21,-56.14 1056.05,-30.78"/>
<polygon fill="midnightblue" stroke="midnightblue" points="963.51,-503.62 959.56,-513.46 968.78,-508.23 963.51,-503.62"/>
</g>
<!-- Node16 -->
<g id="node16" class="node">
<title>Node16</title>
<g id="a_node16"><a xlink:href="_render_system_8cpp.html" target="_top" xlink:title="Render System class implementation.">
<polygon fill="none" stroke="black" points="1154,-0.5 1154,-30.5 1297,-30.5 1297,-0.5 1154,-0.5"/>
<text text-anchor="start" x="1162" y="-18.5" font-family="Helvetica,sans-Serif" font-size="10.00">NekoEngine/src/ECS</text>
<text text-anchor="middle" x="1225.5" y="-7.5" font-family="Helvetica,sans-Serif" font-size="10.00">/Systems/RenderSystem.cpp</text>
</a>
</g>
</g>
<!-- Node1&#45;&gt;Node16 -->
<g id="edge40" class="edge">
<title>Node1&#45;&gt;Node16</title>
<path fill="none" stroke="midnightblue" d="M1026.94,-517.19C1099.88,-498.27 1192.5,-458.58 1192.5,-379 1192.5,-379 1192.5,-379 1192.5,-159.5 1192.5,-111.34 1210.49,-56.35 1219.9,-30.86"/>
<polygon fill="midnightblue" stroke="midnightblue" points="1025.65,-513.9 1016.79,-519.72 1027.34,-520.69 1025.65,-513.9"/>
</g>
<!-- Node3 -->
<g id="node3" class="node">
<title>Node3</title>
<g id="a_node3"><a xlink:href="_client_collision_8hpp.html" target="_top" xlink:title=" ">
<polygon fill="none" stroke="black" points="37.5,-368.5 37.5,-387.5 195.5,-387.5 195.5,-368.5 37.5,-368.5"/>
<text text-anchor="middle" x="116.5" y="-375.5" font-family="Helvetica,sans-Serif" font-size="10.00">Client/include/ClientCollision.hpp</text>
</a>
</g>
</g>
<!-- Node2&#45;&gt;Node3 -->
<g id="edge2" class="edge">
<title>Node2&#45;&gt;Node3</title>
<path fill="none" stroke="midnightblue" d="M523.38,-445.27C441.15,-435.47 313.93,-418.96 204.5,-399 186.78,-395.77 167.22,-391.4 151.05,-387.58"/>
<polygon fill="midnightblue" stroke="midnightblue" points="523.08,-448.76 533.43,-446.46 523.91,-441.81 523.08,-448.76"/>
</g>
<!-- Node8 -->
<g id="node8" class="node">
<title>Node8</title>
<g id="a_node8"><a xlink:href="_bonus_system_8hpp.html" target="_top" xlink:title=" ">
<polygon fill="none" stroke="black" points="541.5,-357.5 541.5,-398.5 677.5,-398.5 677.5,-357.5 541.5,-357.5"/>
<text text-anchor="start" x="549.5" y="-386.5" font-family="Helvetica,sans-Serif" font-size="10.00">NekoEngine/include</text>
<text text-anchor="start" x="549.5" y="-375.5" font-family="Helvetica,sans-Serif" font-size="10.00">/NekoEngine/ECS/Systems</text>
<text text-anchor="middle" x="609.5" y="-364.5" font-family="Helvetica,sans-Serif" font-size="10.00">/BonusSystem.hpp</text>
</a>
</g>
</g>
<!-- Node2&#45;&gt;Node8 -->
<g id="edge7" class="edge">
<title>Node2&#45;&gt;Node8</title>
<path fill="none" stroke="midnightblue" d="M609.5,-425.3C609.5,-416.3 609.5,-406.65 609.5,-398.51"/>
<polygon fill="midnightblue" stroke="midnightblue" points="606,-425.43 609.5,-435.43 613,-425.43 606,-425.43"/>
</g>
<!-- Node10 -->
<g id="node10" class="node">
<title>Node10</title>
<g id="a_node10"><a xlink:href="_neko_engine_8hpp.html" target="_top" xlink:title=" ">
<polygon fill="none" stroke="black" points="365.5,-212.5 365.5,-242.5 511.5,-242.5 511.5,-212.5 365.5,-212.5"/>
<text text-anchor="start" x="373.5" y="-230.5" font-family="Helvetica,sans-Serif" font-size="10.00">NekoEngine/include</text>
<text text-anchor="middle" x="438.5" y="-219.5" font-family="Helvetica,sans-Serif" font-size="10.00">/NekoEngine/NekoEngine.hpp</text>
</a>
</g>
</g>
<!-- Node2&#45;&gt;Node10 -->
<g id="edge36" class="edge">
<title>Node2&#45;&gt;Node10</title>
<path fill="none" stroke="midnightblue" d="M658.99,-429.56C670.02,-421.38 680.28,-411.21 686.5,-399 710.7,-351.47 720.24,-320.3 686.5,-279 664.71,-252.33 576.63,-239.39 511.6,-233.36"/>
<polygon fill="midnightblue" stroke="midnightblue" points="656.71,-426.87 650.45,-435.42 660.68,-432.64 656.71,-426.87"/>
</g>
<!-- Node12 -->
<g id="node12" class="node">
<title>Node12</title>
<g id="a_node12"><a xlink:href="_window_8hpp.html" target="_top" xlink:title="Contains the NekoEngine Window class wrapper.">
<polygon fill="none" stroke="black" points="654.5,-67.5 654.5,-108.5 768.5,-108.5 768.5,-67.5 654.5,-67.5"/>
<text text-anchor="start" x="662.5" y="-96.5" font-family="Helvetica,sans-Serif" font-size="10.00">NekoEngine/include</text>
<text text-anchor="start" x="662.5" y="-85.5" font-family="Helvetica,sans-Serif" font-size="10.00">/NekoEngine/Graphics</text>
<text text-anchor="middle" x="711.5" y="-74.5" font-family="Helvetica,sans-Serif" font-size="10.00">/Window.hpp</text>
</a>
</g>
</g>
<!-- Node2&#45;&gt;Node12 -->
<g id="edge35" class="edge">
<title>Node2&#45;&gt;Node12</title>
<path fill="none" stroke="midnightblue" d="M668.6,-430.58C683.19,-422.3 697.71,-411.83 708.5,-399 738.28,-363.61 743.5,-347.25 743.5,-301 743.5,-301 743.5,-301 743.5,-226.5 743.5,-183.61 728.55,-135.1 719.08,-108.7"/>
<polygon fill="midnightblue" stroke="midnightblue" points="666.69,-427.63 659.54,-435.45 670.01,-433.8 666.69,-427.63"/>
</g>
<!-- Node25 -->
<g id="node25" class="node">
<title>Node25</title>
<g id="a_node25"><a xlink:href="_collision_8hpp.html" target="_top" xlink:title=" ">
<polygon fill="none" stroke="black" points="213.5,-357.5 213.5,-398.5 349.5,-398.5 349.5,-357.5 213.5,-357.5"/>
<text text-anchor="start" x="221.5" y="-386.5" font-family="Helvetica,sans-Serif" font-size="10.00">NekoEngine/include</text>
<text text-anchor="start" x="221.5" y="-375.5" font-family="Helvetica,sans-Serif" font-size="10.00">/NekoEngine/ECS/Systems</text>
<text text-anchor="middle" x="281.5" y="-364.5" font-family="Helvetica,sans-Serif" font-size="10.00">/Collision.hpp</text>
</a>
</g>
</g>
<!-- Node2&#45;&gt;Node25 -->
<g id="edge32" class="edge">
<title>Node2&#45;&gt;Node25</title>
<path fill="none" stroke="midnightblue" d="M523.53,-436.42C475.24,-425.82 413.92,-412.07 359.5,-399 356.24,-398.22 352.9,-397.4 349.53,-396.58"/>
<polygon fill="midnightblue" stroke="midnightblue" points="522.8,-439.85 533.32,-438.57 524.3,-433.01 522.8,-439.85"/>
</g>
<!-- Node27 -->
<g id="node27" class="node">
<title>Node27</title>
<g id="a_node27"><a xlink:href="_animation_system_8cpp.html" target="_top" xlink:title=" ">
<polygon fill="none" stroke="black" points="368,-363 368,-393 523,-393 523,-363 368,-363"/>
<text text-anchor="start" x="376" y="-381" font-family="Helvetica,sans-Serif" font-size="10.00">NekoEngine/src/ECS</text>
<text text-anchor="middle" x="445.5" y="-370" font-family="Helvetica,sans-Serif" font-size="10.00">/Systems/AnimationSystem.cpp</text>
</a>
</g>
</g>
<!-- Node2&#45;&gt;Node27 -->
<g id="edge37" class="edge">
<title>Node2&#45;&gt;Node27</title>
<path fill="none" stroke="midnightblue" d="M557.97,-431.12C531.01,-418.63 498.93,-403.76 475.94,-393.11"/>
<polygon fill="midnightblue" stroke="midnightblue" points="556.72,-434.4 567.27,-435.43 559.66,-428.05 556.72,-434.4"/>
</g>
<!-- Node4 -->
<g id="node4" class="node">
<title>Node4</title>
<g id="a_node4"><a xlink:href="_client_game_8hpp.html" target="_top" xlink:title=" ">
<polygon fill="none" stroke="black" points="0,-78.5 0,-97.5 147,-97.5 147,-78.5 0,-78.5"/>
<text text-anchor="middle" x="73.5" y="-85.5" font-family="Helvetica,sans-Serif" font-size="10.00">Client/include/ClientGame.hpp</text>
</a>
</g>
</g>
<!-- Node3&#45;&gt;Node4 -->
<g id="edge3" class="edge">
<title>Node3&#45;&gt;Node4</title>
<path fill="none" stroke="midnightblue" d="M93.45,-362.65C79.93,-352.79 64.05,-338.37 56.5,-321 21.57,-240.62 58.07,-129.81 70,-97.92"/>
<polygon fill="midnightblue" stroke="midnightblue" points="91.67,-365.67 101.89,-368.46 95.64,-359.91 91.67,-365.67"/>
</g>
<!-- Node7 -->
<g id="node7" class="node">
<title>Node7</title>
<g id="a_node7"><a xlink:href="_client_collision_8cpp.html" target="_top" xlink:title=" ">
<polygon fill="none" stroke="black" points="65.5,-290.5 65.5,-309.5 205.5,-309.5 205.5,-290.5 65.5,-290.5"/>
<text text-anchor="middle" x="135.5" y="-297.5" font-family="Helvetica,sans-Serif" font-size="10.00">Client/src/ClientCollision.cpp</text>
</a>
</g>
</g>
<!-- Node3&#45;&gt;Node7 -->
<g id="edge6" class="edge">
<title>Node3&#45;&gt;Node7</title>
<path fill="none" stroke="midnightblue" d="M121.19,-358.22C125.08,-342.7 130.41,-321.36 133.35,-309.62"/>
<polygon fill="midnightblue" stroke="midnightblue" points="117.71,-357.73 118.68,-368.28 124.5,-359.43 117.71,-357.73"/>
</g>
<!-- Node5 -->
<g id="node5" class="node">
<title>Node5</title>
<g id="a_node5"><a xlink:href="_client_game_8cpp.html" target="_top" xlink:title=" ">
<polygon fill="none" stroke="black" points="8.5,-6 8.5,-25 138.5,-25 138.5,-6 8.5,-6"/>
<text text-anchor="middle" x="73.5" y="-13" font-family="Helvetica,sans-Serif" font-size="10.00">Client/src/ClientGame.cpp</text>
</a>
</g>
</g>
<!-- Node4&#45;&gt;Node5 -->
<g id="edge4" class="edge">
<title>Node4&#45;&gt;Node5</title>
<path fill="none" stroke="midnightblue" d="M73.5,-67.94C73.5,-54.03 73.5,-35.82 73.5,-25.22"/>
<polygon fill="midnightblue" stroke="midnightblue" points="70,-68.36 73.5,-78.36 77,-68.36 70,-68.36"/>
</g>
<!-- Node6 -->
<g id="node6" class="node">
<title>Node6</title>
<g id="a_node6"><a xlink:href="main_8cpp.html" target="_top" xlink:title="Entrypoint.">
<polygon fill="none" stroke="black" points="234.5,-6 234.5,-25 334.5,-25 334.5,-6 234.5,-6"/>
<text text-anchor="middle" x="284.5" y="-13" font-family="Helvetica,sans-Serif" font-size="10.00">Client/src/main.cpp</text>
</a>
</g>
</g>
<!-- Node4&#45;&gt;Node6 -->
<g id="edge5" class="edge">
<title>Node4&#45;&gt;Node6</title>
<path fill="none" stroke="midnightblue" d="M108.58,-75.28C151,-61.11 221.36,-37.6 258.96,-25.03"/>
<polygon fill="midnightblue" stroke="midnightblue" points="107.33,-72.01 98.95,-78.5 109.55,-78.65 107.33,-72.01"/>
</g>
<!-- Node9 -->
<g id="node9" class="node">
<title>Node9</title>
<g id="a_node9"><a xlink:href="_systems_8hpp.html" target="_top" xlink:title="Systems.">
<polygon fill="none" stroke="black" points="357.5,-279.5 357.5,-320.5 493.5,-320.5 493.5,-279.5 357.5,-279.5"/>
<text text-anchor="start" x="365.5" y="-308.5" font-family="Helvetica,sans-Serif" font-size="10.00">NekoEngine/include</text>
<text text-anchor="start" x="365.5" y="-297.5" font-family="Helvetica,sans-Serif" font-size="10.00">/NekoEngine/ECS/Systems</text>
<text text-anchor="middle" x="425.5" y="-286.5" font-family="Helvetica,sans-Serif" font-size="10.00">/Systems.hpp</text>
</a>
</g>
</g>
<!-- Node8&#45;&gt;Node9 -->
<g id="edge8" class="edge">
<title>Node8&#45;&gt;Node9</title>
<path fill="none" stroke="midnightblue" d="M552.87,-353.61C527.19,-343 497.17,-330.6 472.72,-320.51"/>
<polygon fill="midnightblue" stroke="midnightblue" points="551.54,-356.85 562.12,-357.43 554.21,-350.38 551.54,-356.85"/>
</g>
<!-- Node24 -->
<g id="node24" class="node">
<title>Node24</title>
<g id="a_node24"><a xlink:href="_bonus_system_8cpp.html" target="_top" xlink:title=" ">
<polygon fill="none" stroke="black" points="537.5,-285 537.5,-315 677.5,-315 677.5,-285 537.5,-285"/>
<text text-anchor="start" x="545.5" y="-303" font-family="Helvetica,sans-Serif" font-size="10.00">NekoEngine/src/ECS</text>
<text text-anchor="middle" x="607.5" y="-292" font-family="Helvetica,sans-Serif" font-size="10.00">/Systems/BonusSystem.cpp</text>
</a>
</g>
</g>
<!-- Node8&#45;&gt;Node24 -->
<g id="edge31" class="edge">
<title>Node8&#45;&gt;Node24</title>
<path fill="none" stroke="midnightblue" d="M608.72,-347.28C608.43,-336.25 608.11,-324.25 607.87,-315.23"/>
<polygon fill="midnightblue" stroke="midnightblue" points="605.22,-347.52 608.98,-357.43 612.22,-347.34 605.22,-347.52"/>
</g>
<!-- Node9&#45;&gt;Node10 -->
<g id="edge9" class="edge">
<title>Node9&#45;&gt;Node10</title>
<path fill="none" stroke="midnightblue" d="M430.96,-269.38C432.65,-260.21 434.44,-250.53 435.85,-242.89"/>
<polygon fill="midnightblue" stroke="midnightblue" points="427.49,-268.89 429.12,-279.36 434.38,-270.16 427.49,-268.89"/>
</g>
<!-- Node22 -->
<g id="node22" class="node">
<title>Node22</title>
<g id="a_node22"><a xlink:href="_timer_system_8cpp.html" target="_top" xlink:title=" ">
<polygon fill="none" stroke="black" points="210,-212.5 210,-242.5 347,-242.5 347,-212.5 210,-212.5"/>
<text text-anchor="start" x="218" y="-230.5" font-family="Helvetica,sans-Serif" font-size="10.00">NekoEngine/src/ECS</text>
<text text-anchor="middle" x="278.5" y="-219.5" font-family="Helvetica,sans-Serif" font-size="10.00">/Systems/TimerSystem.cpp</text>
</a>
</g>
</g>
<!-- Node9&#45;&gt;Node22 -->
<g id="edge29" class="edge">
<title>Node9&#45;&gt;Node22</title>
<path fill="none" stroke="midnightblue" d="M375.49,-275.02C353.05,-264.25 327.35,-251.93 308.05,-242.67"/>
<polygon fill="midnightblue" stroke="midnightblue" points="374.02,-278.19 384.55,-279.36 377.05,-271.88 374.02,-278.19"/>
</g>
<!-- Node23 -->
<g id="node23" class="node">
<title>Node23</title>
<g id="a_node23"><a xlink:href="_scene_8cpp.html" target="_top" xlink:title="For the love of god.">
<polygon fill="none" stroke="black" points="69.5,-212.5 69.5,-242.5 191.5,-242.5 191.5,-212.5 69.5,-212.5"/>
<text text-anchor="start" x="77.5" y="-230.5" font-family="Helvetica,sans-Serif" font-size="10.00">NekoEngine/src/Scenes</text>
<text text-anchor="middle" x="130.5" y="-219.5" font-family="Helvetica,sans-Serif" font-size="10.00">/Scene.cpp</text>
</a>
</g>
</g>
<!-- Node9&#45;&gt;Node23 -->
<g id="edge30" class="edge">
<title>Node9&#45;&gt;Node23</title>
<path fill="none" stroke="midnightblue" d="M347.03,-278.66C289.14,-264.52 233.04,-251.6 191.68,-242.22"/>
<polygon fill="midnightblue" stroke="midnightblue" points="346.54,-282.15 357.09,-281.13 348.21,-275.35 346.54,-282.15"/>
</g>
<!-- Node10&#45;&gt;Node4 -->
<g id="edge10" class="edge">
<title>Node10&#45;&gt;Node4</title>
<path fill="none" stroke="midnightblue" d="M355.03,-212.02C285.14,-203.87 143.14,-211.06 101.5,-176 77.59,-155.87 73.9,-115.2 73.47,-97.53"/>
<polygon fill="midnightblue" stroke="midnightblue" points="354.82,-215.53 365.2,-213.41 355.77,-208.59 354.82,-215.53"/>
</g>
<!-- Node10&#45;&gt;Node6 -->
<g id="edge27" class="edge">
<title>Node10&#45;&gt;Node6</title>
<path fill="none" stroke="midnightblue" d="M393.64,-207.8C378.89,-199.82 363.48,-189.25 352.5,-176 319.68,-136.37 335.06,-113.72 313.5,-67 306.47,-51.76 296.36,-35.05 290.12,-25.19"/>
<polygon fill="midnightblue" stroke="midnightblue" points="392.2,-211 402.7,-212.43 395.39,-204.76 392.2,-211"/>
</g>
<!-- Node11 -->
<g id="node11" class="node">
<title>Node11</title>
<g id="a_node11"><a xlink:href="_custom_client_8hpp.html" target="_top" xlink:title=" ">
<polygon fill="none" stroke="black" points="361,-151 361,-170 516,-170 516,-151 361,-151"/>
<text text-anchor="middle" x="438.5" y="-158" font-family="Helvetica,sans-Serif" font-size="10.00">Client/include/CustomClient.hpp</text>
</a>
</g>
</g>
<!-- Node10&#45;&gt;Node11 -->
<g id="edge11" class="edge">
<title>Node10&#45;&gt;Node11</title>
<path fill="none" stroke="midnightblue" d="M438.5,-202.25C438.5,-191.02 438.5,-178.38 438.5,-170.19"/>
<polygon fill="midnightblue" stroke="midnightblue" points="435,-202.4 438.5,-212.4 442,-202.4 435,-202.4"/>
</g>
<!-- Node19 -->
<g id="node19" class="node">
<title>Node19</title>
<g id="a_node19"><a xlink:href="_player_system_8hpp.html" target="_top" xlink:title=" ">
<polygon fill="none" stroke="black" points="110.5,-151 110.5,-170 266.5,-170 266.5,-151 110.5,-151"/>
<text text-anchor="middle" x="188.5" y="-158" font-family="Helvetica,sans-Serif" font-size="10.00">Client/include/PlayerSystem.hpp</text>
</a>
</g>
</g>
<!-- Node10&#45;&gt;Node19 -->
<g id="edge23" class="edge">
<title>Node10&#45;&gt;Node19</title>
<path fill="none" stroke="midnightblue" d="M374.69,-209.91C325.73,-197.18 260.14,-180.13 221.3,-170.03"/>
<polygon fill="midnightblue" stroke="midnightblue" points="374,-213.35 384.56,-212.48 375.76,-206.57 374,-213.35"/>
</g>
<!-- Node20 -->
<g id="node20" class="node">
<title>Node20</title>
<g id="a_node20"><a xlink:href="_player_system_8cpp.html" target="_top" xlink:title=" ">
<polygon fill="none" stroke="black" points="165,-78.5 165,-97.5 304,-97.5 304,-78.5 165,-78.5"/>
<text text-anchor="middle" x="234.5" y="-85.5" font-family="Helvetica,sans-Serif" font-size="10.00">Client/src/PlayerSystem.cpp</text>
</a>
</g>
</g>
<!-- Node10&#45;&gt;Node20 -->
<g id="edge26" class="edge">
<title>Node10&#45;&gt;Node20</title>
<path fill="none" stroke="midnightblue" d="M383.94,-208.91C362.54,-200.66 338.39,-189.63 318.5,-176 284.72,-152.86 253.67,-114.49 240.78,-97.52"/>
<polygon fill="midnightblue" stroke="midnightblue" points="382.97,-212.28 393.56,-212.49 385.41,-205.72 382.97,-212.28"/>
</g>
<!-- Node21 -->
<g id="node21" class="node">
<title>Node21</title>
<g id="a_node21"><a xlink:href="_pattern_system_8cpp.html" target="_top" xlink:title="Physics System class implementation.">
<polygon fill="none" stroke="black" points="534,-145.5 534,-175.5 677,-175.5 677,-145.5 534,-145.5"/>
<text text-anchor="start" x="542" y="-163.5" font-family="Helvetica,sans-Serif" font-size="10.00">NekoEngine/src/ECS</text>
<text text-anchor="middle" x="605.5" y="-152.5" font-family="Helvetica,sans-Serif" font-size="10.00">/Systems/PatternSystem.cpp</text>
</a>
</g>
</g>
<!-- Node10&#45;&gt;Node21 -->
<g id="edge28" class="edge">
<title>Node10&#45;&gt;Node21</title>
<path fill="none" stroke="midnightblue" d="M484.28,-208.68C511.06,-198.26 544.4,-185.28 569.33,-175.58"/>
<polygon fill="midnightblue" stroke="midnightblue" points="482.79,-205.51 474.74,-212.4 485.33,-212.03 482.79,-205.51"/>
</g>
<!-- Node11&#45;&gt;Node6 -->
<g id="edge12" class="edge">
<title>Node11&#45;&gt;Node6</title>
<path fill="none" stroke="midnightblue" d="M423.4,-143.32C405.56,-124.44 374.73,-92.56 346.5,-67 329.42,-51.53 308.42,-34.89 295.77,-25.1"/>
<polygon fill="midnightblue" stroke="midnightblue" points="421.02,-145.89 430.41,-150.78 426.12,-141.1 421.02,-145.89"/>
</g>
<!-- Node11&#45;&gt;Node12 -->
<g id="edge13" class="edge">
<title>Node11&#45;&gt;Node12</title>
<path fill="none" stroke="midnightblue" d="M481.22,-148.47C527.86,-136.42 602.78,-117.08 654.43,-103.74"/>
<polygon fill="midnightblue" stroke="midnightblue" points="480.24,-145.11 471.43,-151 481.99,-151.88 480.24,-145.11"/>
</g>
<!-- Node18 -->
<g id="node18" class="node">
<title>Node18</title>
<g id="a_node18"><a xlink:href="_window_8cpp.html" target="_top" xlink:title="Contains the NekoEngine Window class implementation.">
<polygon fill="none" stroke="black" points="352.5,-0.5 352.5,-30.5 480.5,-30.5 480.5,-0.5 352.5,-0.5"/>
<text text-anchor="start" x="360.5" y="-18.5" font-family="Helvetica,sans-Serif" font-size="10.00">NekoEngine/src/Graphics</text>
<text text-anchor="middle" x="416.5" y="-7.5" font-family="Helvetica,sans-Serif" font-size="10.00">/Window.cpp</text>
</a>
</g>
</g>
<!-- Node11&#45;&gt;Node18 -->
<g id="edge22" class="edge">
<title>Node11&#45;&gt;Node18</title>
<path fill="none" stroke="midnightblue" d="M435.65,-141.01C431.21,-112.13 422.72,-56.96 418.71,-30.86"/>
<polygon fill="midnightblue" stroke="midnightblue" points="432.21,-141.63 437.19,-150.98 439.13,-140.57 432.21,-141.63"/>
</g>
<!-- Node12&#45;&gt;Node6 -->
<g id="edge14" class="edge">
<title>Node12&#45;&gt;Node6</title>
<path fill="none" stroke="midnightblue" d="M644.37,-78.63C570.36,-68.97 447.93,-51.73 343.5,-31 334.81,-29.27 325.47,-27.12 316.84,-25"/>
<polygon fill="midnightblue" stroke="midnightblue" points="644.12,-82.13 654.49,-79.94 645.02,-75.19 644.12,-82.13"/>
</g>
<!-- Node12&#45;&gt;Node10 -->
<g id="edge15" class="edge">
<title>Node12&#45;&gt;Node10</title>
<path fill="none" stroke="midnightblue" d="M710.55,-118.58C708.33,-137.61 702.28,-161.42 686.5,-176 661.41,-199.18 575.3,-212.84 511.55,-219.98"/>
<polygon fill="midnightblue" stroke="midnightblue" points="714.04,-118.85 711.43,-108.59 707.07,-118.24 714.04,-118.85"/>
</g>
<!-- Node12&#45;&gt;Node13 -->
<g id="edge16" class="edge">
<title>Node12&#45;&gt;Node13</title>
<path fill="none" stroke="midnightblue" d="M770.65,-63.57C798.25,-52.64 830.19,-39.99 854,-30.56"/>
<polygon fill="midnightblue" stroke="midnightblue" points="769.09,-60.43 761.08,-67.36 771.67,-66.93 769.09,-60.43"/>
</g>
<!-- Node14 -->
<g id="node14" class="node">
<title>Node14</title>
<g id="a_node14"><a xlink:href="_mouse_system_8cpp.html" target="_top" xlink:title=" ">
<polygon fill="none" stroke="black" points="499,-0.5 499,-30.5 640,-30.5 640,-0.5 499,-0.5"/>
<text text-anchor="start" x="507" y="-18.5" font-family="Helvetica,sans-Serif" font-size="10.00">NekoEngine/src/ECS</text>
<text text-anchor="middle" x="569.5" y="-7.5" font-family="Helvetica,sans-Serif" font-size="10.00">/Systems/MouseSystem.cpp</text>
</a>
</g>
</g>
<!-- Node12&#45;&gt;Node14 -->
<g id="edge17" class="edge">
<title>Node12&#45;&gt;Node14</title>
<path fill="none" stroke="midnightblue" d="M662.9,-62.87C641.3,-52.15 616.61,-39.89 598.04,-30.67"/>
<polygon fill="midnightblue" stroke="midnightblue" points="661.43,-66.05 671.95,-67.36 664.54,-59.78 661.43,-66.05"/>
</g>
<!-- Node12&#45;&gt;Node15 -->
<g id="edge18" class="edge">
<title>Node12&#45;&gt;Node15</title>
<path fill="none" stroke="midnightblue" d="M778.65,-73.51C840.02,-61.19 930.44,-43.02 992.65,-30.53"/>
<polygon fill="midnightblue" stroke="midnightblue" points="777.79,-70.12 768.68,-75.52 779.17,-76.98 777.79,-70.12"/>
</g>
<!-- Node12&#45;&gt;Node16 -->
<g id="edge19" class="edge">
<title>Node12&#45;&gt;Node16</title>
<path fill="none" stroke="midnightblue" d="M778.78,-79.32C864.04,-69.36 1015.46,-50.88 1144.5,-31 1147.61,-30.52 1150.78,-30.02 1153.98,-29.5"/>
<polygon fill="midnightblue" stroke="midnightblue" points="778.24,-75.86 768.71,-80.5 779.05,-82.82 778.24,-75.86"/>
</g>
<!-- Node17 -->
<g id="node17" class="node">
<title>Node17</title>
<g id="a_node17"><a xlink:href="_text_system_8cpp.html" target="_top" xlink:title=" ">
<polygon fill="none" stroke="black" points="658,-0.5 658,-30.5 789,-30.5 789,-0.5 658,-0.5"/>
<text text-anchor="start" x="666" y="-18.5" font-family="Helvetica,sans-Serif" font-size="10.00">NekoEngine/src/ECS</text>
<text text-anchor="middle" x="723.5" y="-7.5" font-family="Helvetica,sans-Serif" font-size="10.00">/Systems/TextSystem.cpp</text>
</a>
</g>
</g>
<!-- Node12&#45;&gt;Node17 -->
<g id="edge20" class="edge">
<title>Node12&#45;&gt;Node17</title>
<path fill="none" stroke="midnightblue" d="M716.54,-57.38C718.1,-48.21 719.75,-38.53 721.05,-30.89"/>
<polygon fill="midnightblue" stroke="midnightblue" points="713.07,-56.92 714.84,-67.36 719.97,-58.09 713.07,-56.92"/>
</g>
<!-- Node12&#45;&gt;Node18 -->
<g id="edge21" class="edge">
<title>Node12&#45;&gt;Node18</title>
<path fill="none" stroke="midnightblue" d="M644.33,-70.95C593.31,-58.75 523.85,-42.16 475.08,-30.5"/>
<polygon fill="midnightblue" stroke="midnightblue" points="643.73,-74.4 654.27,-73.32 645.36,-67.59 643.73,-74.4"/>
</g>
<!-- Node19&#45;&gt;Node4 -->
<g id="edge24" class="edge">
<title>Node19&#45;&gt;Node4</title>
<path fill="none" stroke="midnightblue" d="M165.86,-145.62C142.65,-131.39 107.26,-109.7 87.72,-97.72"/>
<polygon fill="midnightblue" stroke="midnightblue" points="164.04,-148.61 174.4,-150.86 167.7,-142.64 164.04,-148.61"/>
</g>
<!-- Node19&#45;&gt;Node20 -->
<g id="edge25" class="edge">
<title>Node19&#45;&gt;Node20</title>
<path fill="none" stroke="midnightblue" d="M199.86,-142.09C209.05,-128 221.62,-108.74 228.81,-97.72"/>
<polygon fill="midnightblue" stroke="midnightblue" points="196.67,-140.57 194.14,-150.86 202.54,-144.39 196.67,-140.57"/>
</g>
<!-- Node25&#45;&gt;Node9 -->
<g id="edge33" class="edge">
<title>Node25&#45;&gt;Node9</title>
<path fill="none" stroke="midnightblue" d="M327.68,-352.63C347.36,-342.24 370,-330.29 388.54,-320.51"/>
<polygon fill="midnightblue" stroke="midnightblue" points="325.79,-349.67 318.58,-357.43 329.06,-355.86 325.79,-349.67"/>
</g>
<!-- Node26 -->
<g id="node26" class="node">
<title>Node26</title>
<g id="a_node26"><a xlink:href="_collision_8cpp.html" target="_top" xlink:title=" ">
<polygon fill="none" stroke="black" points="223.5,-285 223.5,-315 339.5,-315 339.5,-285 223.5,-285"/>
<text text-anchor="start" x="231.5" y="-303" font-family="Helvetica,sans-Serif" font-size="10.00">NekoEngine/src/ECS</text>
<text text-anchor="middle" x="281.5" y="-292" font-family="Helvetica,sans-Serif" font-size="10.00">/Systems/Collision.cpp</text>
</a>
</g>
</g>
<!-- Node25&#45;&gt;Node26 -->
<g id="edge34" class="edge">
<title>Node25&#45;&gt;Node26</title>
<path fill="none" stroke="midnightblue" d="M281.5,-347.28C281.5,-336.25 281.5,-324.25 281.5,-315.23"/>
<polygon fill="midnightblue" stroke="midnightblue" points="278,-347.43 281.5,-357.43 285,-347.43 278,-347.43"/>
</g>
</g>
</svg>
