<?xml version="1.0" encoding="UTF-8" standalone="no"?>
<!DOCTYPE svg PUBLIC "-//W3C//DTD SVG 1.1//EN"
 "http://www.w3.org/Graphics/SVG/1.1/DTD/svg11.dtd">
<!-- Generated by graphviz version 2.49.3 (20211027.1501)
 -->
<!-- Title: Client/include/Sound.hpp Pages: 1 -->
<svg width="1482pt" height="408pt"
 viewBox="0.00 0.00 1481.50 408.00" xmlns="http://www.w3.org/2000/svg" xmlns:xlink="http://www.w3.org/1999/xlink">
<g id="graph0" class="graph" transform="scale(1 1) rotate(0) translate(4 404)">
<title>Client/include/Sound.hpp</title>
<!-- Node1 -->
<g id="node1" class="node">
<title>Node1</title>
<g id="a_node1"><a xlink:title=" ">
<polygon fill="#bfbfbf" stroke="black" points="1148.5,-380.5 1148.5,-399.5 1272.5,-399.5 1272.5,-380.5 1148.5,-380.5"/>
<text text-anchor="middle" x="1210.5" y="-387.5" font-family="Helvetica,sans-Serif" font-size="10.00">Client/include/Sound.hpp</text>
</a>
</g>
</g>
<!-- Node2 -->
<g id="node2" class="node">
<title>Node2</title>
<g id="a_node2"><a xlink:href="_custom_client_8hpp.html" target="_top" xlink:title=" ">
<polygon fill="none" stroke="black" points="1059,-324.5 1059,-343.5 1214,-343.5 1214,-324.5 1059,-324.5"/>
<text text-anchor="middle" x="1136.5" y="-331.5" font-family="Helvetica,sans-Serif" font-size="10.00">Client/include/CustomClient.hpp</text>
</a>
</g>
</g>
<!-- Node1&#45;&gt;Node2 -->
<g id="edge1" class="edge">
<title>Node1&#45;&gt;Node2</title>
<path fill="none" stroke="midnightblue" d="M1190.47,-374.38C1177.09,-364.62 1159.94,-352.11 1148.61,-343.83"/>
<polygon fill="midnightblue" stroke="midnightblue" points="1188.47,-377.26 1198.61,-380.32 1192.6,-371.6 1188.47,-377.26"/>
</g>
<!-- Node17 -->
<g id="node17" class="node">
<title>Node17</title>
<g id="a_node17"><a xlink:href="_sound_8cpp.html" target="_top" xlink:title=" ">
<polygon fill="none" stroke="black" points="1232,-324.5 1232,-343.5 1339,-343.5 1339,-324.5 1232,-324.5"/>
<text text-anchor="middle" x="1285.5" y="-331.5" font-family="Helvetica,sans-Serif" font-size="10.00">Client/src/Sound.cpp</text>
</a>
</g>
</g>
<!-- Node1&#45;&gt;Node17 -->
<g id="edge23" class="edge">
<title>Node1&#45;&gt;Node17</title>
<path fill="none" stroke="midnightblue" d="M1230.81,-374.38C1244.36,-364.62 1261.74,-352.11 1273.23,-343.83"/>
<polygon fill="midnightblue" stroke="midnightblue" points="1228.62,-371.64 1222.55,-380.32 1232.71,-377.32 1228.62,-371.64"/>
</g>
<!-- Node3 -->
<g id="node3" class="node">
<title>Node3</title>
<g id="a_node3"><a xlink:href="main_8cpp.html" target="_top" xlink:title="Entrypoint.">
<polygon fill="none" stroke="black" points="403.5,-0.5 403.5,-19.5 503.5,-19.5 503.5,-0.5 403.5,-0.5"/>
<text text-anchor="middle" x="453.5" y="-7.5" font-family="Helvetica,sans-Serif" font-size="10.00">Client/src/main.cpp</text>
</a>
</g>
</g>
<!-- Node2&#45;&gt;Node3 -->
<g id="edge2" class="edge">
<title>Node2&#45;&gt;Node3</title>
<path fill="none" stroke="midnightblue" d="M1191.67,-322.36C1287.25,-302.35 1473.5,-255.63 1473.5,-195.5 1473.5,-195.5 1473.5,-195.5 1473.5,-126.5 1473.5,-27.76 709.03,-13.42 503.73,-11.35"/>
<polygon fill="midnightblue" stroke="midnightblue" points="1190.68,-318.99 1181.6,-324.45 1192.1,-325.85 1190.68,-318.99"/>
</g>
<!-- Node4 -->
<g id="node4" class="node">
<title>Node4</title>
<g id="a_node4"><a xlink:href="_window_8hpp.html" target="_top" xlink:title="Contains the NekoEngine Window class wrapper.">
<polygon fill="none" stroke="black" points="834.5,-246.5 834.5,-287.5 948.5,-287.5 948.5,-246.5 834.5,-246.5"/>
<text text-anchor="start" x="842.5" y="-275.5" font-family="Helvetica,sans-Serif" font-size="10.00">NekoEngine/include</text>
<text text-anchor="start" x="842.5" y="-264.5" font-family="Helvetica,sans-Serif" font-size="10.00">/NekoEngine/Graphics</text>
<text text-anchor="middle" x="891.5" y="-253.5" font-family="Helvetica,sans-Serif" font-size="10.00">/Window.hpp</text>
</a>
</g>
</g>
<!-- Node2&#45;&gt;Node4 -->
<g id="edge3" class="edge">
<title>Node2&#45;&gt;Node4</title>
<path fill="none" stroke="midnightblue" d="M1094.47,-321.85C1054.27,-311.19 993.35,-295.02 948.74,-283.19"/>
<polygon fill="midnightblue" stroke="midnightblue" points="1093.66,-325.25 1104.22,-324.44 1095.45,-318.49 1093.66,-325.25"/>
</g>
<!-- Node16 -->
<g id="node16" class="node">
<title>Node16</title>
<g id="a_node16"><a xlink:href="_window_8cpp.html" target="_top" xlink:title="Contains the NekoEngine Window class implementation.">
<polygon fill="none" stroke="black" points="1317.5,-179.5 1317.5,-209.5 1445.5,-209.5 1445.5,-179.5 1317.5,-179.5"/>
<text text-anchor="start" x="1325.5" y="-197.5" font-family="Helvetica,sans-Serif" font-size="10.00">NekoEngine/src/Graphics</text>
<text text-anchor="middle" x="1381.5" y="-186.5" font-family="Helvetica,sans-Serif" font-size="10.00">/Window.cpp</text>
</a>
</g>
</g>
<!-- Node2&#45;&gt;Node16 -->
<g id="edge22" class="edge">
<title>Node2&#45;&gt;Node16</title>
<path fill="none" stroke="midnightblue" d="M1160.62,-319.46C1207.18,-293.34 1308.97,-236.21 1356.33,-209.62"/>
<polygon fill="midnightblue" stroke="midnightblue" points="1158.83,-316.45 1151.83,-324.4 1162.26,-322.56 1158.83,-316.45"/>
</g>
<!-- Node4&#45;&gt;Node3 -->
<g id="edge4" class="edge">
<title>Node4&#45;&gt;Node3</title>
<path fill="none" stroke="midnightblue" d="M824.19,-257.59C711.78,-243.4 497.49,-215.7 491.5,-210 477.36,-196.54 459.17,-56.77 454.58,-19.89"/>
<polygon fill="midnightblue" stroke="midnightblue" points="824.05,-261.1 834.41,-258.87 824.92,-254.15 824.05,-261.1"/>
</g>
<!-- Node5 -->
<g id="node5" class="node">
<title>Node5</title>
<g id="a_node5"><a xlink:href="_neko_engine_8hpp.html" target="_top" xlink:title=" ">
<polygon fill="none" stroke="black" points="261.5,-179.5 261.5,-209.5 407.5,-209.5 407.5,-179.5 261.5,-179.5"/>
<text text-anchor="start" x="269.5" y="-197.5" font-family="Helvetica,sans-Serif" font-size="10.00">NekoEngine/include</text>
<text text-anchor="middle" x="334.5" y="-186.5" font-family="Helvetica,sans-Serif" font-size="10.00">/NekoEngine/NekoEngine.hpp</text>
</a>
</g>
</g>
<!-- Node4&#45;&gt;Node5 -->
<g id="edge5" class="edge">
<title>Node4&#45;&gt;Node5</title>
<path fill="none" stroke="midnightblue" d="M824.06,-257.46C718.77,-244.14 516.15,-218.49 407.53,-204.74"/>
<polygon fill="midnightblue" stroke="midnightblue" points="823.89,-260.97 834.25,-258.75 824.77,-254.03 823.89,-260.97"/>
</g>
<!-- Node11 -->
<g id="node11" class="node">
<title>Node11</title>
<g id="a_node11"><a xlink:href="_background_system_8cpp.html" target="_top" xlink:title=" ">
<polygon fill="none" stroke="black" points="975.5,-179.5 975.5,-209.5 1139.5,-209.5 1139.5,-179.5 975.5,-179.5"/>
<text text-anchor="start" x="983.5" y="-197.5" font-family="Helvetica,sans-Serif" font-size="10.00">NekoEngine/src/ECS</text>
<text text-anchor="middle" x="1057.5" y="-186.5" font-family="Helvetica,sans-Serif" font-size="10.00">/Systems/BackgroundSystem.cpp</text>
</a>
</g>
</g>
<!-- Node4&#45;&gt;Node11 -->
<g id="edge16" class="edge">
<title>Node4&#45;&gt;Node11</title>
<path fill="none" stroke="midnightblue" d="M947,-242.43C972.66,-231.53 1002.28,-218.95 1024.4,-209.56"/>
<polygon fill="midnightblue" stroke="midnightblue" points="945.58,-239.23 937.74,-246.36 948.31,-245.67 945.58,-239.23"/>
</g>
<!-- Node12 -->
<g id="node12" class="node">
<title>Node12</title>
<g id="a_node12"><a xlink:href="_mouse_system_8cpp.html" target="_top" xlink:title=" ">
<polygon fill="none" stroke="black" points="1158,-179.5 1158,-209.5 1299,-209.5 1299,-179.5 1158,-179.5"/>
<text text-anchor="start" x="1166" y="-197.5" font-family="Helvetica,sans-Serif" font-size="10.00">NekoEngine/src/ECS</text>
<text text-anchor="middle" x="1228.5" y="-186.5" font-family="Helvetica,sans-Serif" font-size="10.00">/Systems/MouseSystem.cpp</text>
</a>
</g>
</g>
<!-- Node4&#45;&gt;Node12 -->
<g id="edge17" class="edge">
<title>Node4&#45;&gt;Node12</title>
<path fill="none" stroke="midnightblue" d="M958.61,-251.96C1017.48,-239.65 1102.63,-221.83 1161.48,-209.52"/>
<polygon fill="midnightblue" stroke="midnightblue" points="957.74,-248.57 948.67,-254.04 959.17,-255.42 957.74,-248.57"/>
</g>
<!-- Node13 -->
<g id="node13" class="node">
<title>Node13</title>
<g id="a_node13"><a xlink:href="_parallax_system_8cpp.html" target="_top" xlink:title=" ">
<polygon fill="none" stroke="black" points="500.5,-179.5 500.5,-209.5 646.5,-209.5 646.5,-179.5 500.5,-179.5"/>
<text text-anchor="start" x="508.5" y="-197.5" font-family="Helvetica,sans-Serif" font-size="10.00">NekoEngine/src/ECS</text>
<text text-anchor="middle" x="573.5" y="-186.5" font-family="Helvetica,sans-Serif" font-size="10.00">/Systems/ParallaxSystem.cpp</text>
</a>
</g>
</g>
<!-- Node4&#45;&gt;Node13 -->
<g id="edge18" class="edge">
<title>Node4&#45;&gt;Node13</title>
<path fill="none" stroke="midnightblue" d="M824.22,-251.08C768.88,-238.82 691.02,-221.55 636.8,-209.53"/>
<polygon fill="midnightblue" stroke="midnightblue" points="823.76,-254.57 834.28,-253.31 825.28,-247.73 823.76,-254.57"/>
</g>
<!-- Node14 -->
<g id="node14" class="node">
<title>Node14</title>
<g id="a_node14"><a xlink:href="_render_system_8cpp.html" target="_top" xlink:title="Render System class implementation.">
<polygon fill="none" stroke="black" points="665,-179.5 665,-209.5 808,-209.5 808,-179.5 665,-179.5"/>
<text text-anchor="start" x="673" y="-197.5" font-family="Helvetica,sans-Serif" font-size="10.00">NekoEngine/src/ECS</text>
<text text-anchor="middle" x="736.5" y="-186.5" font-family="Helvetica,sans-Serif" font-size="10.00">/Systems/RenderSystem.cpp</text>
</a>
</g>
</g>
<!-- Node4&#45;&gt;Node14 -->
<g id="edge19" class="edge">
<title>Node4&#45;&gt;Node14</title>
<path fill="none" stroke="midnightblue" d="M839.08,-242.16C815.35,-231.36 788.1,-218.97 767.65,-209.67"/>
<polygon fill="midnightblue" stroke="midnightblue" points="837.77,-245.41 848.32,-246.36 840.67,-239.04 837.77,-245.41"/>
</g>
<!-- Node15 -->
<g id="node15" class="node">
<title>Node15</title>
<g id="a_node15"><a xlink:href="_text_system_8cpp.html" target="_top" xlink:title=" ">
<polygon fill="none" stroke="black" points="826,-179.5 826,-209.5 957,-209.5 957,-179.5 826,-179.5"/>
<text text-anchor="start" x="834" y="-197.5" font-family="Helvetica,sans-Serif" font-size="10.00">NekoEngine/src/ECS</text>
<text text-anchor="middle" x="891.5" y="-186.5" font-family="Helvetica,sans-Serif" font-size="10.00">/Systems/TextSystem.cpp</text>
</a>
</g>
</g>
<!-- Node4&#45;&gt;Node15 -->
<g id="edge20" class="edge">
<title>Node4&#45;&gt;Node15</title>
<path fill="none" stroke="midnightblue" d="M891.5,-236.08C891.5,-227.01 891.5,-217.45 891.5,-209.89"/>
<polygon fill="midnightblue" stroke="midnightblue" points="888,-236.36 891.5,-246.36 895,-236.36 888,-236.36"/>
</g>
<!-- Node4&#45;&gt;Node16 -->
<g id="edge21" class="edge">
<title>Node4&#45;&gt;Node16</title>
<path fill="none" stroke="midnightblue" d="M958.67,-258.29C1041.24,-248.52 1185.55,-230.45 1308.5,-210 1311.43,-209.51 1314.43,-209 1317.45,-208.46"/>
<polygon fill="midnightblue" stroke="midnightblue" points="958.19,-254.82 948.66,-259.47 959.01,-261.78 958.19,-254.82"/>
</g>
<!-- Node5&#45;&gt;Node2 -->
<g id="edge9" class="edge">
<title>Node5&#45;&gt;Node2</title>
<path fill="none" stroke="midnightblue" d="M413.87,-211.53C510.8,-230.85 679.85,-263.75 825.5,-288 910.53,-302.15 1009.07,-315.98 1072.05,-324.49"/>
<polygon fill="midnightblue" stroke="midnightblue" points="414.35,-208.05 403.86,-209.53 412.98,-214.92 414.35,-208.05"/>
</g>
<!-- Node5&#45;&gt;Node3 -->
<g id="edge14" class="edge">
<title>Node5&#45;&gt;Node3</title>
<path fill="none" stroke="midnightblue" d="M376.69,-174.51C390.43,-166.51 404.67,-156 414.5,-143 444.19,-103.74 451.35,-42.19 453.02,-19.65"/>
<polygon fill="midnightblue" stroke="midnightblue" points="374.86,-171.52 367.78,-179.41 378.23,-177.66 374.86,-171.52"/>
</g>
<!-- Node6 -->
<g id="node6" class="node">
<title>Node6</title>
<g id="a_node6"><a xlink:href="_client_game_8hpp.html" target="_top" xlink:title=" ">
<polygon fill="none" stroke="black" points="0,-56.5 0,-75.5 147,-75.5 147,-56.5 0,-56.5"/>
<text text-anchor="middle" x="73.5" y="-63.5" font-family="Helvetica,sans-Serif" font-size="10.00">Client/include/ClientGame.hpp</text>
</a>
</g>
</g>
<!-- Node5&#45;&gt;Node6 -->
<g id="edge6" class="edge">
<title>Node5&#45;&gt;Node6</title>
<path fill="none" stroke="midnightblue" d="M251.03,-190.73C174.06,-186.21 67.88,-174.31 41.5,-143 24.16,-122.42 49.55,-91.08 64.26,-75.88"/>
<polygon fill="midnightblue" stroke="midnightblue" points="251.03,-194.23 261.21,-191.29 251.42,-187.25 251.03,-194.23"/>
</g>
<!-- Node8 -->
<g id="node8" class="node">
<title>Node8</title>
<g id="a_node8"><a xlink:href="_player_system_8hpp.html" target="_top" xlink:title=" ">
<polygon fill="none" stroke="black" points="50.5,-118 50.5,-137 206.5,-137 206.5,-118 50.5,-118"/>
<text text-anchor="middle" x="128.5" y="-125" font-family="Helvetica,sans-Serif" font-size="10.00">Client/include/PlayerSystem.hpp</text>
</a>
</g>
</g>
<!-- Node5&#45;&gt;Node8 -->
<g id="edge10" class="edge">
<title>Node5&#45;&gt;Node8</title>
<path fill="none" stroke="midnightblue" d="M280.4,-176.43C240.23,-163.75 187.13,-147 155.53,-137.03"/>
<polygon fill="midnightblue" stroke="midnightblue" points="279.46,-179.8 290.05,-179.48 281.57,-173.13 279.46,-179.8"/>
</g>
<!-- Node9 -->
<g id="node9" class="node">
<title>Node9</title>
<g id="a_node9"><a xlink:href="_player_system_8cpp.html" target="_top" xlink:title=" ">
<polygon fill="none" stroke="black" points="165,-56.5 165,-75.5 304,-75.5 304,-56.5 165,-56.5"/>
<text text-anchor="middle" x="234.5" y="-63.5" font-family="Helvetica,sans-Serif" font-size="10.00">Client/src/PlayerSystem.cpp</text>
</a>
</g>
</g>
<!-- Node5&#45;&gt;Node9 -->
<g id="edge13" class="edge">
<title>Node5&#45;&gt;Node9</title>
<path fill="none" stroke="midnightblue" d="M291.13,-174.65C277.29,-166.7 263.1,-156.19 253.5,-143 238.45,-122.33 235.26,-91.03 234.62,-75.86"/>
<polygon fill="midnightblue" stroke="midnightblue" points="289.65,-177.83 300.12,-179.5 292.98,-171.67 289.65,-177.83"/>
</g>
<!-- Node10 -->
<g id="node10" class="node">
<title>Node10</title>
<g id="a_node10"><a xlink:href="_pattern_system_8cpp.html" target="_top" xlink:title="Physics System class implementation.">
<polygon fill="none" stroke="black" points="263,-112.5 263,-142.5 406,-142.5 406,-112.5 263,-112.5"/>
<text text-anchor="start" x="271" y="-130.5" font-family="Helvetica,sans-Serif" font-size="10.00">NekoEngine/src/ECS</text>
<text text-anchor="middle" x="334.5" y="-119.5" font-family="Helvetica,sans-Serif" font-size="10.00">/Systems/PatternSystem.cpp</text>
</a>
</g>
</g>
<!-- Node5&#45;&gt;Node10 -->
<g id="edge15" class="edge">
<title>Node5&#45;&gt;Node10</title>
<path fill="none" stroke="midnightblue" d="M334.5,-169.11C334.5,-160.15 334.5,-150.32 334.5,-142.58"/>
<polygon fill="midnightblue" stroke="midnightblue" points="331,-169.4 334.5,-179.4 338,-169.4 331,-169.4"/>
</g>
<!-- Node6&#45;&gt;Node3 -->
<g id="edge8" class="edge">
<title>Node6&#45;&gt;Node3</title>
<path fill="none" stroke="midnightblue" d="M144.05,-54.97C219.38,-44.27 336.84,-27.58 403.28,-18.14"/>
<polygon fill="midnightblue" stroke="midnightblue" points="143.12,-51.57 133.71,-56.44 144.11,-58.5 143.12,-51.57"/>
</g>
<!-- Node7 -->
<g id="node7" class="node">
<title>Node7</title>
<g id="a_node7"><a xlink:href="_client_game_8cpp.html" target="_top" xlink:title=" ">
<polygon fill="none" stroke="black" points="8.5,-0.5 8.5,-19.5 138.5,-19.5 138.5,-0.5 8.5,-0.5"/>
<text text-anchor="middle" x="73.5" y="-7.5" font-family="Helvetica,sans-Serif" font-size="10.00">Client/src/ClientGame.cpp</text>
</a>
</g>
</g>
<!-- Node6&#45;&gt;Node7 -->
<g id="edge7" class="edge">
<title>Node6&#45;&gt;Node7</title>
<path fill="none" stroke="midnightblue" d="M73.5,-45.8C73.5,-36.91 73.5,-26.78 73.5,-19.75"/>
<polygon fill="midnightblue" stroke="midnightblue" points="70,-46.08 73.5,-56.08 77,-46.08 70,-46.08"/>
</g>
<!-- Node8&#45;&gt;Node6 -->
<g id="edge11" class="edge">
<title>Node8&#45;&gt;Node6</title>
<path fill="none" stroke="midnightblue" d="M113.71,-110.5C103.3,-99.24 89.77,-84.6 81.37,-75.51"/>
<polygon fill="midnightblue" stroke="midnightblue" points="111.26,-113.01 120.62,-117.98 116.4,-108.26 111.26,-113.01"/>
</g>
<!-- Node8&#45;&gt;Node9 -->
<g id="edge12" class="edge">
<title>Node8&#45;&gt;Node9</title>
<path fill="none" stroke="midnightblue" d="M152.45,-113.06C172.96,-101.54 201.88,-85.31 219.34,-75.51"/>
<polygon fill="midnightblue" stroke="midnightblue" points="150.69,-110.03 143.69,-117.98 154.12,-116.13 150.69,-110.03"/>
</g>
</g>
</svg>
