<?xml version="1.0" encoding="UTF-8" standalone="no"?>
<!DOCTYPE svg PUBLIC "-//W3C//DTD SVG 1.1//EN"
 "http://www.w3.org/Graphics/SVG/1.1/DTD/svg11.dtd">
<!-- Generated by graphviz version 2.49.3 (20211027.1501)
 -->
<!-- Title: NekoEngine/include/NekoEngine/ECS/System.hpp Pages: 1 -->
<svg width="2018pt" height="630pt"
 viewBox="0.00 0.00 2018.00 630.00" xmlns="http://www.w3.org/2000/svg" xmlns:xlink="http://www.w3.org/1999/xlink">
<g id="graph0" class="graph" transform="scale(1 1) rotate(0) translate(4 626)">
<title>NekoEngine/include/NekoEngine/ECS/System.hpp</title>
<!-- Node1 -->
<g id="node1" class="node">
<title>Node1</title>
<g id="a_node1"><a xlink:title="ECS System.">
<polygon fill="#bfbfbf" stroke="black" points="1036.5,-591.5 1036.5,-621.5 1185.5,-621.5 1185.5,-591.5 1036.5,-591.5"/>
<text text-anchor="start" x="1044.5" y="-609.5" font-family="Helvetica,sans-Serif" font-size="10.00">NekoEngine/include</text>
<text text-anchor="middle" x="1111" y="-598.5" font-family="Helvetica,sans-Serif" font-size="10.00">/NekoEngine/ECS/System.hpp</text>
</a>
</g>
</g>
<!-- Node2 -->
<g id="node2" class="node">
<title>Node2</title>
<g id="a_node2"><a xlink:href="_client_collision_8hpp.html" target="_top" xlink:title=" ">
<polygon fill="none" stroke="black" points="182,-368.5 182,-387.5 340,-387.5 340,-368.5 182,-368.5"/>
<text text-anchor="middle" x="261" y="-375.5" font-family="Helvetica,sans-Serif" font-size="10.00">Client/include/ClientCollision.hpp</text>
</a>
</g>
</g>
<!-- Node1&#45;&gt;Node2 -->
<g id="edge1" class="edge">
<title>Node1&#45;&gt;Node2</title>
<path fill="none" stroke="midnightblue" d="M1026.04,-600.88C902.82,-593.54 680.85,-577.66 604,-555 465.33,-514.12 316.48,-416.93 273.35,-387.55"/>
<polygon fill="midnightblue" stroke="midnightblue" points="1026.01,-604.39 1036.19,-601.48 1026.42,-597.4 1026.01,-604.39"/>
</g>
<!-- Node3 -->
<g id="node3" class="node">
<title>Node3</title>
<g id="a_node3"><a xlink:href="_client_game_8hpp.html" target="_top" xlink:title=" ">
<polygon fill="none" stroke="black" points="546.5,-78.5 546.5,-97.5 693.5,-97.5 693.5,-78.5 546.5,-78.5"/>
<text text-anchor="middle" x="620" y="-85.5" font-family="Helvetica,sans-Serif" font-size="10.00">Client/include/ClientGame.hpp</text>
</a>
</g>
</g>
<!-- Node1&#45;&gt;Node3 -->
<g id="edge6" class="edge">
<title>Node1&#45;&gt;Node3</title>
<path fill="none" stroke="midnightblue" d="M1026.25,-603.07C766.66,-594.5 0,-560.46 0,-457 0,-457 0,-457 0,-377 0,-138.44 382.21,-96.95 546.44,-90.13"/>
<polygon fill="midnightblue" stroke="midnightblue" points="1026.27,-606.57 1036.38,-603.4 1026.5,-599.57 1026.27,-606.57"/>
</g>
<!-- Node7 -->
<g id="node7" class="node">
<title>Node7</title>
<g id="a_node7"><a xlink:href="_system_manager_8hpp.html" target="_top" xlink:title=" ">
<polygon fill="none" stroke="black" points="754,-519 754,-549 940,-549 940,-519 754,-519"/>
<text text-anchor="start" x="762" y="-537" font-family="Helvetica,sans-Serif" font-size="10.00">NekoEngine/include</text>
<text text-anchor="middle" x="847" y="-526" font-family="Helvetica,sans-Serif" font-size="10.00">/NekoEngine/ECS/SystemManager.hpp</text>
</a>
</g>
</g>
<!-- Node1&#45;&gt;Node7 -->
<g id="edge7" class="edge">
<title>Node1&#45;&gt;Node7</title>
<path fill="none" stroke="midnightblue" d="M1048.81,-588.89C1003.51,-576.79 942.79,-560.58 899.83,-549.11"/>
<polygon fill="midnightblue" stroke="midnightblue" points="1047.96,-592.29 1058.53,-591.49 1049.77,-585.53 1047.96,-592.29"/>
</g>
<!-- Node9 -->
<g id="node9" class="node">
<title>Node9</title>
<g id="a_node9"><a xlink:href="_bonus_system_8hpp.html" target="_top" xlink:title=" ">
<polygon fill="none" stroke="black" points="358,-357.5 358,-398.5 494,-398.5 494,-357.5 358,-357.5"/>
<text text-anchor="start" x="366" y="-386.5" font-family="Helvetica,sans-Serif" font-size="10.00">NekoEngine/include</text>
<text text-anchor="start" x="366" y="-375.5" font-family="Helvetica,sans-Serif" font-size="10.00">/NekoEngine/ECS/Systems</text>
<text text-anchor="middle" x="426" y="-364.5" font-family="Helvetica,sans-Serif" font-size="10.00">/BonusSystem.hpp</text>
</a>
</g>
</g>
<!-- Node1&#45;&gt;Node9 -->
<g id="edge58" class="edge">
<title>Node1&#45;&gt;Node9</title>
<path fill="none" stroke="midnightblue" d="M1025.94,-599.85C921.89,-592.13 752.28,-576.74 693,-555 592.14,-518.01 491.21,-436.39 447.94,-398.73"/>
<polygon fill="midnightblue" stroke="midnightblue" points="1025.88,-603.35 1036.11,-600.59 1026.39,-596.37 1025.88,-603.35"/>
</g>
<!-- Node26 -->
<g id="node26" class="node">
<title>Node26</title>
<g id="a_node26"><a xlink:href="_collision_8hpp.html" target="_top" xlink:title=" ">
<polygon fill="none" stroke="black" points="1374,-357.5 1374,-398.5 1510,-398.5 1510,-357.5 1374,-357.5"/>
<text text-anchor="start" x="1382" y="-386.5" font-family="Helvetica,sans-Serif" font-size="10.00">NekoEngine/include</text>
<text text-anchor="start" x="1382" y="-375.5" font-family="Helvetica,sans-Serif" font-size="10.00">/NekoEngine/ECS/Systems</text>
<text text-anchor="middle" x="1442" y="-364.5" font-family="Helvetica,sans-Serif" font-size="10.00">/Collision.hpp</text>
</a>
</g>
</g>
<!-- Node1&#45;&gt;Node26 -->
<g id="edge59" class="edge">
<title>Node1&#45;&gt;Node26</title>
<path fill="none" stroke="midnightblue" d="M1139.97,-585.67C1202.68,-542.76 1350.39,-441.69 1413.07,-398.8"/>
<polygon fill="midnightblue" stroke="midnightblue" points="1137.98,-582.8 1131.71,-591.33 1141.93,-588.57 1137.98,-582.8"/>
</g>
<!-- Node30 -->
<g id="node30" class="node">
<title>Node30</title>
<g id="a_node30"><a xlink:href="_animation_system_8hpp.html" target="_top" xlink:title=" ">
<polygon fill="none" stroke="black" points="1043,-435.5 1043,-476.5 1179,-476.5 1179,-435.5 1043,-435.5"/>
<text text-anchor="start" x="1051" y="-464.5" font-family="Helvetica,sans-Serif" font-size="10.00">NekoEngine/include</text>
<text text-anchor="start" x="1051" y="-453.5" font-family="Helvetica,sans-Serif" font-size="10.00">/NekoEngine/ECS/Systems</text>
<text text-anchor="middle" x="1111" y="-442.5" font-family="Helvetica,sans-Serif" font-size="10.00">/AnimationSystem.hpp</text>
</a>
</g>
</g>
<!-- Node1&#45;&gt;Node30 -->
<g id="edge51" class="edge">
<title>Node1&#45;&gt;Node30</title>
<path fill="none" stroke="midnightblue" d="M1111,-581.08C1111,-551.83 1111,-503.44 1111,-476.55"/>
<polygon fill="midnightblue" stroke="midnightblue" points="1107.5,-581.26 1111,-591.26 1114.5,-581.26 1107.5,-581.26"/>
</g>
<!-- Node31 -->
<g id="node31" class="node">
<title>Node31</title>
<g id="a_node31"><a xlink:href="_background_system_8hpp.html" target="_top" xlink:title=" ">
<polygon fill="none" stroke="black" points="1720,-357.5 1720,-398.5 1856,-398.5 1856,-357.5 1720,-357.5"/>
<text text-anchor="start" x="1728" y="-386.5" font-family="Helvetica,sans-Serif" font-size="10.00">NekoEngine/include</text>
<text text-anchor="start" x="1728" y="-375.5" font-family="Helvetica,sans-Serif" font-size="10.00">/NekoEngine/ECS/Systems</text>
<text text-anchor="middle" x="1788" y="-364.5" font-family="Helvetica,sans-Serif" font-size="10.00">/BackgroundSystem.hpp</text>
</a>
</g>
</g>
<!-- Node1&#45;&gt;Node31 -->
<g id="edge54" class="edge">
<title>Node1&#45;&gt;Node31</title>
<path fill="none" stroke="midnightblue" d="M1195.8,-602.22C1311.26,-596.76 1511.18,-583.46 1578,-555 1662.91,-518.84 1739.72,-436.41 1771.95,-398.61"/>
<polygon fill="midnightblue" stroke="midnightblue" points="1195.41,-598.74 1185.59,-602.7 1195.74,-605.73 1195.41,-598.74"/>
</g>
<!-- Node32 -->
<g id="node32" class="node">
<title>Node32</title>
<g id="a_node32"><a xlink:href="_mouse_system_8hpp.html" target="_top" xlink:title="Mouse System class.">
<polygon fill="none" stroke="black" points="1566,-357.5 1566,-398.5 1702,-398.5 1702,-357.5 1566,-357.5"/>
<text text-anchor="start" x="1574" y="-386.5" font-family="Helvetica,sans-Serif" font-size="10.00">NekoEngine/include</text>
<text text-anchor="start" x="1574" y="-375.5" font-family="Helvetica,sans-Serif" font-size="10.00">/NekoEngine/ECS/Systems</text>
<text text-anchor="middle" x="1634" y="-364.5" font-family="Helvetica,sans-Serif" font-size="10.00">/MouseSystem.hpp</text>
</a>
</g>
</g>
<!-- Node1&#45;&gt;Node32 -->
<g id="edge60" class="edge">
<title>Node1&#45;&gt;Node32</title>
<path fill="none" stroke="midnightblue" d="M1195.61,-604.98C1305.64,-602.74 1490.25,-593.2 1545,-555 1599.33,-517.09 1622.38,-435.93 1630.39,-398.57"/>
<polygon fill="midnightblue" stroke="midnightblue" points="1195.46,-601.48 1185.53,-605.17 1195.59,-608.48 1195.46,-601.48"/>
</g>
<!-- Node33 -->
<g id="node33" class="node">
<title>Node33</title>
<g id="a_node33"><a xlink:href="_parallax_system_8hpp.html" target="_top" xlink:title=" ">
<polygon fill="none" stroke="black" points="1874,-357.5 1874,-398.5 2010,-398.5 2010,-357.5 1874,-357.5"/>
<text text-anchor="start" x="1882" y="-386.5" font-family="Helvetica,sans-Serif" font-size="10.00">NekoEngine/include</text>
<text text-anchor="start" x="1882" y="-375.5" font-family="Helvetica,sans-Serif" font-size="10.00">/NekoEngine/ECS/Systems</text>
<text text-anchor="middle" x="1942" y="-364.5" font-family="Helvetica,sans-Serif" font-size="10.00">/ParallaxSystem.hpp</text>
</a>
</g>
</g>
<!-- Node1&#45;&gt;Node33 -->
<g id="edge63" class="edge">
<title>Node1&#45;&gt;Node33</title>
<path fill="none" stroke="midnightblue" d="M1195.89,-601.38C1320.87,-594.61 1548.02,-579.38 1626,-555 1742.28,-518.65 1863.79,-436.32 1915.83,-398.57"/>
<polygon fill="midnightblue" stroke="midnightblue" points="1195.4,-597.9 1185.6,-601.93 1195.77,-604.89 1195.4,-597.9"/>
</g>
<!-- Node34 -->
<g id="node34" class="node">
<title>Node34</title>
<g id="a_node34"><a xlink:href="_pattern_system_8hpp.html" target="_top" xlink:title="Physics System class.">
<polygon fill="none" stroke="black" points="550,-357.5 550,-398.5 686,-398.5 686,-357.5 550,-357.5"/>
<text text-anchor="start" x="558" y="-386.5" font-family="Helvetica,sans-Serif" font-size="10.00">NekoEngine/include</text>
<text text-anchor="start" x="558" y="-375.5" font-family="Helvetica,sans-Serif" font-size="10.00">/NekoEngine/ECS/Systems</text>
<text text-anchor="middle" x="618" y="-364.5" font-family="Helvetica,sans-Serif" font-size="10.00">/PatternSystem.hpp</text>
</a>
</g>
</g>
<!-- Node1&#45;&gt;Node34 -->
<g id="edge66" class="edge">
<title>Node1&#45;&gt;Node34</title>
<path fill="none" stroke="midnightblue" d="M1026.08,-601.47C933.06,-595.72 790.96,-582.64 745,-555 682.52,-517.43 641.93,-436.1 625.84,-398.63"/>
<polygon fill="midnightblue" stroke="midnightblue" points="1026.13,-604.97 1036.32,-602.08 1026.55,-597.99 1026.13,-604.97"/>
</g>
<!-- Node35 -->
<g id="node35" class="node">
<title>Node35</title>
<g id="a_node35"><a xlink:href="_render_system_8hpp.html" target="_top" xlink:title="Render System class.">
<polygon fill="none" stroke="black" points="28,-357.5 28,-398.5 164,-398.5 164,-357.5 28,-357.5"/>
<text text-anchor="start" x="36" y="-386.5" font-family="Helvetica,sans-Serif" font-size="10.00">NekoEngine/include</text>
<text text-anchor="start" x="36" y="-375.5" font-family="Helvetica,sans-Serif" font-size="10.00">/NekoEngine/ECS/Systems</text>
<text text-anchor="middle" x="96" y="-364.5" font-family="Helvetica,sans-Serif" font-size="10.00">/RenderSystem.hpp</text>
</a>
</g>
</g>
<!-- Node1&#45;&gt;Node35 -->
<g id="edge69" class="edge">
<title>Node1&#45;&gt;Node35</title>
<path fill="none" stroke="midnightblue" d="M1026.2,-602.06C881.34,-595.6 592.35,-580.01 494,-555 351.95,-518.88 196.63,-436.43 129.73,-398.61"/>
<polygon fill="midnightblue" stroke="midnightblue" points="1026.23,-605.57 1036.38,-602.51 1026.54,-598.57 1026.23,-605.57"/>
</g>
<!-- Node36 -->
<g id="node36" class="node">
<title>Node36</title>
<g id="a_node36"><a xlink:href="_text_system_8hpp.html" target="_top" xlink:title=" ">
<polygon fill="none" stroke="black" points="1220,-357.5 1220,-398.5 1356,-398.5 1356,-357.5 1220,-357.5"/>
<text text-anchor="start" x="1228" y="-386.5" font-family="Helvetica,sans-Serif" font-size="10.00">NekoEngine/include</text>
<text text-anchor="start" x="1228" y="-375.5" font-family="Helvetica,sans-Serif" font-size="10.00">/NekoEngine/ECS/Systems</text>
<text text-anchor="middle" x="1288" y="-364.5" font-family="Helvetica,sans-Serif" font-size="10.00">/TextSystem.hpp</text>
</a>
</g>
</g>
<!-- Node1&#45;&gt;Node36 -->
<g id="edge72" class="edge">
<title>Node1&#45;&gt;Node36</title>
<path fill="none" stroke="midnightblue" d="M1128.39,-583.25C1162.92,-539.06 1239.63,-440.9 1272.53,-398.8"/>
<polygon fill="midnightblue" stroke="midnightblue" points="1125.47,-581.3 1122.07,-591.33 1130.99,-585.61 1125.47,-581.3"/>
</g>
<!-- Node37 -->
<g id="node37" class="node">
<title>Node37</title>
<g id="a_node37"><a xlink:href="_timer_system_8hpp.html" target="_top" xlink:title="Controls System class.">
<polygon fill="none" stroke="black" points="1400,-513.5 1400,-554.5 1536,-554.5 1536,-513.5 1400,-513.5"/>
<text text-anchor="start" x="1408" y="-542.5" font-family="Helvetica,sans-Serif" font-size="10.00">NekoEngine/include</text>
<text text-anchor="start" x="1408" y="-531.5" font-family="Helvetica,sans-Serif" font-size="10.00">/NekoEngine/ECS/Systems</text>
<text text-anchor="middle" x="1468" y="-520.5" font-family="Helvetica,sans-Serif" font-size="10.00">/TimerSystem.hpp</text>
</a>
</g>
</g>
<!-- Node1&#45;&gt;Node37 -->
<g id="edge75" class="edge">
<title>Node1&#45;&gt;Node37</title>
<path fill="none" stroke="midnightblue" d="M1191.82,-589.54C1254.58,-577.15 1340.62,-560.16 1399.9,-548.45"/>
<polygon fill="midnightblue" stroke="midnightblue" points="1191.09,-586.12 1181.96,-591.49 1192.45,-592.98 1191.09,-586.12"/>
</g>
<!-- Node2&#45;&gt;Node3 -->
<g id="edge2" class="edge">
<title>Node2&#45;&gt;Node3</title>
<path fill="none" stroke="midnightblue" d="M274.68,-360.58C296.44,-334.54 337.27,-285.98 345,-279 435.01,-197.71 561.34,-122.51 604.7,-97.64"/>
<polygon fill="midnightblue" stroke="midnightblue" points="271.83,-358.54 268.11,-368.46 277.2,-363.02 271.83,-358.54"/>
</g>
<!-- Node6 -->
<g id="node6" class="node">
<title>Node6</title>
<g id="a_node6"><a xlink:href="_client_collision_8cpp.html" target="_top" xlink:title=" ">
<polygon fill="none" stroke="black" points="158,-290.5 158,-309.5 298,-309.5 298,-290.5 158,-290.5"/>
<text text-anchor="middle" x="228" y="-297.5" font-family="Helvetica,sans-Serif" font-size="10.00">Client/src/ClientCollision.cpp</text>
</a>
</g>
</g>
<!-- Node2&#45;&gt;Node6 -->
<g id="edge5" class="edge">
<title>Node2&#45;&gt;Node6</title>
<path fill="none" stroke="midnightblue" d="M253.04,-358.67C246.29,-343.11 236.89,-321.47 231.74,-309.62"/>
<polygon fill="midnightblue" stroke="midnightblue" points="250.02,-360.5 257.21,-368.28 256.44,-357.72 250.02,-360.5"/>
</g>
<!-- Node4 -->
<g id="node4" class="node">
<title>Node4</title>
<g id="a_node4"><a xlink:href="_client_game_8cpp.html" target="_top" xlink:title=" ">
<polygon fill="none" stroke="black" points="581,-6 581,-25 711,-25 711,-6 581,-6"/>
<text text-anchor="middle" x="646" y="-13" font-family="Helvetica,sans-Serif" font-size="10.00">Client/src/ClientGame.cpp</text>
</a>
</g>
</g>
<!-- Node3&#45;&gt;Node4 -->
<g id="edge3" class="edge">
<title>Node3&#45;&gt;Node4</title>
<path fill="none" stroke="midnightblue" d="M626.72,-68.77C631.89,-54.76 638.8,-36.03 642.79,-25.22"/>
<polygon fill="midnightblue" stroke="midnightblue" points="623.36,-67.76 623.19,-78.36 629.93,-70.18 623.36,-67.76"/>
</g>
<!-- Node5 -->
<g id="node5" class="node">
<title>Node5</title>
<g id="a_node5"><a xlink:href="main_8cpp.html" target="_top" xlink:title="Entrypoint.">
<polygon fill="none" stroke="black" points="904,-6 904,-25 1004,-25 1004,-6 904,-6"/>
<text text-anchor="middle" x="954" y="-13" font-family="Helvetica,sans-Serif" font-size="10.00">Client/src/main.cpp</text>
</a>
</g>
</g>
<!-- Node3&#45;&gt;Node5 -->
<g id="edge4" class="edge">
<title>Node3&#45;&gt;Node5</title>
<path fill="none" stroke="midnightblue" d="M666.7,-76.19C680.03,-73.16 694.58,-69.9 708,-67 778.95,-51.66 861.67,-34.91 910.84,-25.08"/>
<polygon fill="midnightblue" stroke="midnightblue" points="665.75,-72.82 656.78,-78.46 667.31,-79.64 665.75,-72.82"/>
</g>
<!-- Node8 -->
<g id="node8" class="node">
<title>Node8</title>
<g id="a_node8"><a xlink:href="_coordinator_8hpp.html" target="_top" xlink:title="Coordinator class.">
<polygon fill="none" stroke="black" points="764.5,-441 764.5,-471 929.5,-471 929.5,-441 764.5,-441"/>
<text text-anchor="start" x="772.5" y="-459" font-family="Helvetica,sans-Serif" font-size="10.00">NekoEngine/include</text>
<text text-anchor="middle" x="847" y="-448" font-family="Helvetica,sans-Serif" font-size="10.00">/NekoEngine/ECS/Coordinator.hpp</text>
</a>
</g>
</g>
<!-- Node7&#45;&gt;Node8 -->
<g id="edge8" class="edge">
<title>Node7&#45;&gt;Node8</title>
<path fill="none" stroke="midnightblue" d="M840.65,-508.59C839.89,-496.26 840.21,-481.72 841.6,-471.23"/>
<polygon fill="midnightblue" stroke="midnightblue" points="837.18,-509.07 841.59,-518.7 844.15,-508.42 837.18,-509.07"/>
</g>
<!-- Node8&#45;&gt;Node2 -->
<g id="edge9" class="edge">
<title>Node8&#45;&gt;Node2</title>
<path fill="none" stroke="midnightblue" d="M754.11,-447.67C653.75,-439.03 489.37,-422.77 349,-399 330.93,-395.94 310.99,-391.5 294.67,-387.58"/>
<polygon fill="midnightblue" stroke="midnightblue" points="753.95,-451.17 764.22,-448.54 754.55,-444.2 753.95,-451.17"/>
</g>
<!-- Node8&#45;&gt;Node7 -->
<g id="edge10" class="edge">
<title>Node8&#45;&gt;Node7</title>
<path fill="none" stroke="midnightblue" d="M853.35,-481.33C854.11,-493.66 853.79,-508.2 852.41,-518.7"/>
<polygon fill="midnightblue" stroke="midnightblue" points="856.82,-480.86 852.4,-471.23 849.85,-481.51 856.82,-480.86"/>
</g>
<!-- Node8&#45;&gt;Node9 -->
<g id="edge11" class="edge">
<title>Node8&#45;&gt;Node9</title>
<path fill="none" stroke="midnightblue" d="M754.17,-441.6C685.85,-431.27 590.83,-415.92 508,-399 503.55,-398.09 498.97,-397.11 494.37,-396.08"/>
<polygon fill="midnightblue" stroke="midnightblue" points="754.07,-445.12 764.48,-443.15 755.11,-438.2 754.07,-445.12"/>
</g>
<!-- Node11 -->
<g id="node11" class="node">
<title>Node11</title>
<g id="a_node11"><a xlink:href="_neko_engine_8hpp.html" target="_top" xlink:title=" ">
<polygon fill="none" stroke="black" points="793,-212.5 793,-242.5 939,-242.5 939,-212.5 793,-212.5"/>
<text text-anchor="start" x="801" y="-230.5" font-family="Helvetica,sans-Serif" font-size="10.00">NekoEngine/include</text>
<text text-anchor="middle" x="866" y="-219.5" font-family="Helvetica,sans-Serif" font-size="10.00">/NekoEngine/NekoEngine.hpp</text>
</a>
</g>
</g>
<!-- Node8&#45;&gt;Node11 -->
<g id="edge39" class="edge">
<title>Node8&#45;&gt;Node11</title>
<path fill="none" stroke="midnightblue" d="M825.69,-433.09C795.07,-398.84 745.48,-331.12 776,-279 785.87,-262.15 803.65,-250.49 820.82,-242.66"/>
<polygon fill="midnightblue" stroke="midnightblue" points="823.3,-435.66 832.64,-440.66 828.46,-430.93 823.3,-435.66"/>
</g>
<!-- Node14 -->
<g id="node14" class="node">
<title>Node14</title>
<g id="a_node14"><a xlink:href="_background_system_8cpp.html" target="_top" xlink:title=" ">
<polygon fill="none" stroke="black" points="1477,-0.5 1477,-30.5 1641,-30.5 1641,-0.5 1477,-0.5"/>
<text text-anchor="start" x="1485" y="-18.5" font-family="Helvetica,sans-Serif" font-size="10.00">NekoEngine/src/ECS</text>
<text text-anchor="middle" x="1559" y="-7.5" font-family="Helvetica,sans-Serif" font-size="10.00">/Systems/BackgroundSystem.cpp</text>
</a>
</g>
</g>
<!-- Node8&#45;&gt;Node14 -->
<g id="edge44" class="edge">
<title>Node8&#45;&gt;Node14</title>
<path fill="none" stroke="midnightblue" d="M864.32,-432.83C883.83,-408.08 914.57,-369.81 928,-357 938.45,-347.03 1019.32,-285.92 1032,-279 1072.37,-256.98 1088.43,-264.64 1129,-243 1149.79,-231.91 1151.68,-223.93 1172,-212 1204.58,-192.87 1218.17,-197.83 1249,-176 1255.93,-171.1 1348.63,-71.21 1356,-67 1377.99,-54.43 1436.3,-40.56 1484.81,-30.55"/>
<polygon fill="midnightblue" stroke="midnightblue" points="861.36,-430.94 857.93,-440.96 866.86,-435.26 861.36,-430.94"/>
</g>
<!-- Node15 -->
<g id="node15" class="node">
<title>Node15</title>
<g id="a_node15"><a xlink:href="_mouse_system_8cpp.html" target="_top" xlink:title=" ">
<polygon fill="none" stroke="black" points="1317.5,-0.5 1317.5,-30.5 1458.5,-30.5 1458.5,-0.5 1317.5,-0.5"/>
<text text-anchor="start" x="1325.5" y="-18.5" font-family="Helvetica,sans-Serif" font-size="10.00">NekoEngine/src/ECS</text>
<text text-anchor="middle" x="1388" y="-7.5" font-family="Helvetica,sans-Serif" font-size="10.00">/Systems/MouseSystem.cpp</text>
</a>
</g>
</g>
<!-- Node8&#45;&gt;Node15 -->
<g id="edge45" class="edge">
<title>Node8&#45;&gt;Node15</title>
<path fill="none" stroke="midnightblue" d="M853,-430.91C859.31,-409.52 871.02,-378.4 890,-357 910.89,-333.45 931.05,-345.35 951,-321 983.52,-281.32 949.64,-244.91 989,-212 1067.37,-146.48 1125.77,-223.89 1216,-176 1274.61,-144.9 1268.2,-110.84 1318,-67 1333.3,-53.53 1352.1,-40.12 1366.36,-30.51"/>
<polygon fill="midnightblue" stroke="midnightblue" points="849.55,-430.26 850.25,-440.83 856.29,-432.13 849.55,-430.26"/>
</g>
<!-- Node16 -->
<g id="node16" class="node">
<title>Node16</title>
<g id="a_node16"><a xlink:href="_parallax_system_8cpp.html" target="_top" xlink:title=" ">
<polygon fill="none" stroke="black" points="1687,-0.5 1687,-30.5 1833,-30.5 1833,-0.5 1687,-0.5"/>
<text text-anchor="start" x="1695" y="-18.5" font-family="Helvetica,sans-Serif" font-size="10.00">NekoEngine/src/ECS</text>
<text text-anchor="middle" x="1760" y="-7.5" font-family="Helvetica,sans-Serif" font-size="10.00">/Systems/ParallaxSystem.cpp</text>
</a>
</g>
</g>
<!-- Node8&#45;&gt;Node16 -->
<g id="edge46" class="edge">
<title>Node8&#45;&gt;Node16</title>
<path fill="none" stroke="midnightblue" d="M877.8,-435.14C892.24,-425.14 909.26,-412.32 923,-399 940.04,-382.48 938.19,-372.7 956,-357 979.33,-336.43 991.27,-339.85 1016,-321 1037.5,-304.61 1036.92,-293.08 1060,-279 1101.76,-253.53 1120.72,-265.78 1164,-243 1184.53,-232.19 1185.5,-222.87 1206,-212 1377.43,-121.1 1600.03,-57.33 1703.06,-30.58"/>
<polygon fill="midnightblue" stroke="midnightblue" points="875.49,-432.48 869.19,-440.99 879.43,-438.27 875.49,-432.48"/>
</g>
<!-- Node17 -->
<g id="node17" class="node">
<title>Node17</title>
<g id="a_node17"><a xlink:href="_render_system_8cpp.html" target="_top" xlink:title="Render System class implementation.">
<polygon fill="none" stroke="black" points="419.5,-0.5 419.5,-30.5 562.5,-30.5 562.5,-0.5 419.5,-0.5"/>
<text text-anchor="start" x="427.5" y="-18.5" font-family="Helvetica,sans-Serif" font-size="10.00">NekoEngine/src/ECS</text>
<text text-anchor="middle" x="491" y="-7.5" font-family="Helvetica,sans-Serif" font-size="10.00">/Systems/RenderSystem.cpp</text>
</a>
</g>
</g>
<!-- Node8&#45;&gt;Node17 -->
<g id="edge48" class="edge">
<title>Node8&#45;&gt;Node17</title>
<path fill="none" stroke="midnightblue" d="M754.23,-449.82C675.1,-443.36 569.72,-429.22 541,-399 515.05,-371.69 496.09,-96.91 491.88,-30.77"/>
<polygon fill="midnightblue" stroke="midnightblue" points="753.99,-453.31 764.23,-450.61 754.54,-446.33 753.99,-453.31"/>
</g>
<!-- Node18 -->
<g id="node18" class="node">
<title>Node18</title>
<g id="a_node18"><a xlink:href="_text_system_8cpp.html" target="_top" xlink:title=" ">
<polygon fill="none" stroke="black" points="1168.5,-0.5 1168.5,-30.5 1299.5,-30.5 1299.5,-0.5 1168.5,-0.5"/>
<text text-anchor="start" x="1176.5" y="-18.5" font-family="Helvetica,sans-Serif" font-size="10.00">NekoEngine/src/ECS</text>
<text text-anchor="middle" x="1234" y="-7.5" font-family="Helvetica,sans-Serif" font-size="10.00">/Systems/TextSystem.cpp</text>
</a>
</g>
</g>
<!-- Node8&#45;&gt;Node18 -->
<g id="edge49" class="edge">
<title>Node8&#45;&gt;Node18</title>
<path fill="none" stroke="midnightblue" d="M809.52,-435.6C795.49,-426.41 780.82,-414.11 772,-399 697.19,-270.87 688.14,-155.81 807,-67 869.99,-19.94 1081.21,-42.47 1159,-31 1162.02,-30.55 1165.1,-30.07 1168.21,-29.56"/>
<polygon fill="midnightblue" stroke="midnightblue" points="807.77,-438.63 818.12,-440.91 811.45,-432.68 807.77,-438.63"/>
</g>
<!-- Node22 -->
<g id="node22" class="node">
<title>Node22</title>
<g id="a_node22"><a xlink:href="_pattern_system_8cpp.html" target="_top" xlink:title="Physics System class implementation.">
<polygon fill="none" stroke="black" points="546.5,-145.5 546.5,-175.5 689.5,-175.5 689.5,-145.5 546.5,-145.5"/>
<text text-anchor="start" x="554.5" y="-163.5" font-family="Helvetica,sans-Serif" font-size="10.00">NekoEngine/src/ECS</text>
<text text-anchor="middle" x="618" y="-152.5" font-family="Helvetica,sans-Serif" font-size="10.00">/Systems/PatternSystem.cpp</text>
</a>
</g>
</g>
<!-- Node8&#45;&gt;Node22 -->
<g id="edge47" class="edge">
<title>Node8&#45;&gt;Node22</title>
<path fill="none" stroke="midnightblue" d="M796.26,-436.92C776.26,-427.9 754.24,-415.35 738,-399 669.96,-330.5 633.03,-215.55 621.77,-175.65"/>
<polygon fill="midnightblue" stroke="midnightblue" points="795,-440.19 805.57,-440.95 797.78,-433.77 795,-440.19"/>
</g>
<!-- Node23 -->
<g id="node23" class="node">
<title>Node23</title>
<g id="a_node23"><a xlink:href="_timer_system_8cpp.html" target="_top" xlink:title=" ">
<polygon fill="none" stroke="black" points="1214.5,-212.5 1214.5,-242.5 1351.5,-242.5 1351.5,-212.5 1214.5,-212.5"/>
<text text-anchor="start" x="1222.5" y="-230.5" font-family="Helvetica,sans-Serif" font-size="10.00">NekoEngine/src/ECS</text>
<text text-anchor="middle" x="1283" y="-219.5" font-family="Helvetica,sans-Serif" font-size="10.00">/Systems/TimerSystem.cpp</text>
</a>
</g>
</g>
<!-- Node8&#45;&gt;Node23 -->
<g id="edge50" class="edge">
<title>Node8&#45;&gt;Node23</title>
<path fill="none" stroke="midnightblue" d="M889.62,-436.61C910.45,-426.77 935.4,-413.65 956,-399 978.03,-383.33 977.6,-372.13 1000,-357 1078.92,-303.68 1183.54,-262.8 1240.91,-242.55"/>
<polygon fill="midnightblue" stroke="midnightblue" points="887.97,-433.52 880.37,-440.9 890.91,-439.87 887.97,-433.52"/>
</g>
<!-- Node8&#45;&gt;Node26 -->
<g id="edge36" class="edge">
<title>Node8&#45;&gt;Node26</title>
<path fill="none" stroke="midnightblue" d="M939.74,-445.06C1087.36,-429.23 1359.82,-399.95 1365,-399 1367.85,-398.48 1370.76,-397.91 1373.68,-397.3"/>
<polygon fill="midnightblue" stroke="midnightblue" points="939.34,-441.58 929.77,-446.13 940.08,-448.54 939.34,-441.58"/>
</g>
<!-- Node28 -->
<g id="node28" class="node">
<title>Node28</title>
<g id="a_node28"><a xlink:href="_scene_8hpp.html" target="_top" xlink:title="Scene class.">
<polygon fill="none" stroke="black" points="784.5,-285 784.5,-315 941.5,-315 941.5,-285 784.5,-285"/>
<text text-anchor="start" x="792.5" y="-303" font-family="Helvetica,sans-Serif" font-size="10.00">NekoEngine/include</text>
<text text-anchor="middle" x="863" y="-292" font-family="Helvetica,sans-Serif" font-size="10.00">/NekoEngine/Scenes/Scene.hpp</text>
</a>
</g>
</g>
<!-- Node8&#45;&gt;Node28 -->
<g id="edge40" class="edge">
<title>Node8&#45;&gt;Node28</title>
<path fill="none" stroke="midnightblue" d="M847.27,-430.95C847.72,-411.06 848.91,-382.11 852,-357 853.77,-342.64 857.1,-326.45 859.63,-315.18"/>
<polygon fill="midnightblue" stroke="midnightblue" points="843.77,-430.93 847.09,-440.99 850.77,-431.05 843.77,-430.93"/>
</g>
<!-- Node29 -->
<g id="node29" class="node">
<title>Node29</title>
<g id="a_node29"><a xlink:href="_animation_system_8cpp.html" target="_top" xlink:title=" ">
<polygon fill="none" stroke="black" points="1008.5,-363 1008.5,-393 1163.5,-393 1163.5,-363 1008.5,-363"/>
<text text-anchor="start" x="1016.5" y="-381" font-family="Helvetica,sans-Serif" font-size="10.00">NekoEngine/src/ECS</text>
<text text-anchor="middle" x="1086" y="-370" font-family="Helvetica,sans-Serif" font-size="10.00">/Systems/AnimationSystem.cpp</text>
</a>
</g>
</g>
<!-- Node8&#45;&gt;Node29 -->
<g id="edge43" class="edge">
<title>Node8&#45;&gt;Node29</title>
<path fill="none" stroke="midnightblue" d="M900.74,-437.91C943.26,-424.39 1001.9,-405.74 1041.74,-393.07"/>
<polygon fill="midnightblue" stroke="midnightblue" points="899.58,-434.61 891.11,-440.97 901.71,-441.28 899.58,-434.61"/>
</g>
<!-- Node10 -->
<g id="node10" class="node">
<title>Node10</title>
<g id="a_node10"><a xlink:href="_systems_8hpp.html" target="_top" xlink:title="Systems.">
<polygon fill="none" stroke="black" points="1215,-279.5 1215,-320.5 1351,-320.5 1351,-279.5 1215,-279.5"/>
<text text-anchor="start" x="1223" y="-308.5" font-family="Helvetica,sans-Serif" font-size="10.00">NekoEngine/include</text>
<text text-anchor="start" x="1223" y="-297.5" font-family="Helvetica,sans-Serif" font-size="10.00">/NekoEngine/ECS/Systems</text>
<text text-anchor="middle" x="1283" y="-286.5" font-family="Helvetica,sans-Serif" font-size="10.00">/Systems.hpp</text>
</a>
</g>
</g>
<!-- Node9&#45;&gt;Node10 -->
<g id="edge12" class="edge">
<title>Node9&#45;&gt;Node10</title>
<path fill="none" stroke="midnightblue" d="M504.42,-362.32C516.64,-360.33 529.14,-358.48 541,-357 670.4,-340.9 1057.13,-315.37 1214.87,-305.29"/>
<polygon fill="midnightblue" stroke="midnightblue" points="503.54,-358.92 494.25,-364.01 504.69,-365.82 503.54,-358.92"/>
</g>
<!-- Node25 -->
<g id="node25" class="node">
<title>Node25</title>
<g id="a_node25"><a xlink:href="_bonus_system_8cpp.html" target="_top" xlink:title=" ">
<polygon fill="none" stroke="black" points="354,-285 354,-315 494,-315 494,-285 354,-285"/>
<text text-anchor="start" x="362" y="-303" font-family="Helvetica,sans-Serif" font-size="10.00">NekoEngine/src/ECS</text>
<text text-anchor="middle" x="424" y="-292" font-family="Helvetica,sans-Serif" font-size="10.00">/Systems/BonusSystem.cpp</text>
</a>
</g>
</g>
<!-- Node9&#45;&gt;Node25 -->
<g id="edge35" class="edge">
<title>Node9&#45;&gt;Node25</title>
<path fill="none" stroke="midnightblue" d="M425.22,-347.28C424.93,-336.25 424.61,-324.25 424.37,-315.23"/>
<polygon fill="midnightblue" stroke="midnightblue" points="421.72,-347.52 425.48,-357.43 428.72,-347.34 421.72,-347.52"/>
</g>
<!-- Node10&#45;&gt;Node11 -->
<g id="edge13" class="edge">
<title>Node10&#45;&gt;Node11</title>
<path fill="none" stroke="midnightblue" d="M1204.59,-285.74C1128.44,-272.87 1013.73,-253.48 939.34,-240.9"/>
<polygon fill="midnightblue" stroke="midnightblue" points="1204.16,-289.22 1214.61,-287.44 1205.33,-282.32 1204.16,-289.22"/>
</g>
<!-- Node10&#45;&gt;Node23 -->
<g id="edge33" class="edge">
<title>Node10&#45;&gt;Node23</title>
<path fill="none" stroke="midnightblue" d="M1283,-269.08C1283,-260.01 1283,-250.45 1283,-242.89"/>
<polygon fill="midnightblue" stroke="midnightblue" points="1279.5,-269.36 1283,-279.36 1286.5,-269.36 1279.5,-269.36"/>
</g>
<!-- Node24 -->
<g id="node24" class="node">
<title>Node24</title>
<g id="a_node24"><a xlink:href="_scene_8cpp.html" target="_top" xlink:title="For the love of god.">
<polygon fill="none" stroke="black" points="998,-212.5 998,-242.5 1120,-242.5 1120,-212.5 998,-212.5"/>
<text text-anchor="start" x="1006" y="-230.5" font-family="Helvetica,sans-Serif" font-size="10.00">NekoEngine/src/Scenes</text>
<text text-anchor="middle" x="1059" y="-219.5" font-family="Helvetica,sans-Serif" font-size="10.00">/Scene.cpp</text>
</a>
</g>
</g>
<!-- Node10&#45;&gt;Node24 -->
<g id="edge34" class="edge">
<title>Node10&#45;&gt;Node24</title>
<path fill="none" stroke="midnightblue" d="M1211.13,-276.38C1175.87,-265.28 1134.48,-252.26 1103.79,-242.6"/>
<polygon fill="midnightblue" stroke="midnightblue" points="1210.31,-279.79 1220.9,-279.46 1212.41,-273.11 1210.31,-279.79"/>
</g>
<!-- Node11&#45;&gt;Node3 -->
<g id="edge14" class="edge">
<title>Node11&#45;&gt;Node3</title>
<path fill="none" stroke="midnightblue" d="M831.46,-207.39C814.45,-197.96 793.64,-186.4 775,-176 723.8,-147.43 663.22,-113.34 635.39,-97.67"/>
<polygon fill="midnightblue" stroke="midnightblue" points="830.04,-210.6 840.49,-212.38 833.43,-204.48 830.04,-210.6"/>
</g>
<!-- Node11&#45;&gt;Node5 -->
<g id="edge31" class="edge">
<title>Node11&#45;&gt;Node5</title>
<path fill="none" stroke="midnightblue" d="M927.25,-208.13C942.14,-200.62 956.28,-190.24 965,-176 995.44,-126.29 968.54,-50.81 957.89,-25.28"/>
<polygon fill="midnightblue" stroke="midnightblue" points="925.52,-205.07 917.91,-212.44 928.46,-211.42 925.52,-205.07"/>
</g>
<!-- Node12 -->
<g id="node12" class="node">
<title>Node12</title>
<g id="a_node12"><a xlink:href="_custom_client_8hpp.html" target="_top" xlink:title=" ">
<polygon fill="none" stroke="black" points="1034.5,-151 1034.5,-170 1189.5,-170 1189.5,-151 1034.5,-151"/>
<text text-anchor="middle" x="1112" y="-158" font-family="Helvetica,sans-Serif" font-size="10.00">Client/include/CustomClient.hpp</text>
</a>
</g>
</g>
<!-- Node11&#45;&gt;Node12 -->
<g id="edge15" class="edge">
<title>Node11&#45;&gt;Node12</title>
<path fill="none" stroke="midnightblue" d="M928.79,-209.91C976.96,-197.18 1041.5,-180.13 1079.72,-170.03"/>
<polygon fill="midnightblue" stroke="midnightblue" points="927.85,-206.54 919.08,-212.48 929.64,-213.31 927.85,-206.54"/>
</g>
<!-- Node20 -->
<g id="node20" class="node">
<title>Node20</title>
<g id="a_node20"><a xlink:href="_player_system_8hpp.html" target="_top" xlink:title=" ">
<polygon fill="none" stroke="black" points="784,-151 784,-170 940,-170 940,-151 784,-151"/>
<text text-anchor="middle" x="862" y="-158" font-family="Helvetica,sans-Serif" font-size="10.00">Client/include/PlayerSystem.hpp</text>
</a>
</g>
</g>
<!-- Node11&#45;&gt;Node20 -->
<g id="edge27" class="edge">
<title>Node11&#45;&gt;Node20</title>
<path fill="none" stroke="midnightblue" d="M864.51,-202.25C863.82,-191.02 863.04,-178.38 862.54,-170.19"/>
<polygon fill="midnightblue" stroke="midnightblue" points="861.02,-202.63 865.13,-212.4 868.01,-202.2 861.02,-202.63"/>
</g>
<!-- Node21 -->
<g id="node21" class="node">
<title>Node21</title>
<g id="a_node21"><a xlink:href="_player_system_8cpp.html" target="_top" xlink:title=" ">
<polygon fill="none" stroke="black" points="815.5,-78.5 815.5,-97.5 954.5,-97.5 954.5,-78.5 815.5,-78.5"/>
<text text-anchor="middle" x="885" y="-85.5" font-family="Helvetica,sans-Serif" font-size="10.00">Client/src/PlayerSystem.cpp</text>
</a>
</g>
</g>
<!-- Node11&#45;&gt;Node21 -->
<g id="edge30" class="edge">
<title>Node11&#45;&gt;Node21</title>
<path fill="none" stroke="midnightblue" d="M914.88,-207.71C928.34,-200.01 941.34,-189.63 949,-176 966.27,-145.27 923.66,-112.76 899.8,-97.65"/>
<polygon fill="midnightblue" stroke="midnightblue" points="913.23,-204.62 906.02,-212.38 916.5,-210.81 913.23,-204.62"/>
</g>
<!-- Node11&#45;&gt;Node22 -->
<g id="edge32" class="edge">
<title>Node11&#45;&gt;Node22</title>
<path fill="none" stroke="midnightblue" d="M802.73,-209.92C762.26,-199.31 710.33,-185.7 671.84,-175.61"/>
<polygon fill="midnightblue" stroke="midnightblue" points="801.93,-213.33 812.49,-212.48 803.71,-206.55 801.93,-213.33"/>
</g>
<!-- Node12&#45;&gt;Node5 -->
<g id="edge16" class="edge">
<title>Node12&#45;&gt;Node5</title>
<path fill="none" stroke="midnightblue" d="M1097.31,-143.46C1079.64,-124.48 1048.76,-92.26 1020,-67 1002.22,-51.39 980.13,-35.05 966.56,-25.33"/>
<polygon fill="midnightblue" stroke="midnightblue" points="1094.88,-145.99 1104.23,-150.95 1100.02,-141.23 1094.88,-145.99"/>
</g>
<!-- Node13 -->
<g id="node13" class="node">
<title>Node13</title>
<g id="a_node13"><a xlink:href="_window_8hpp.html" target="_top" xlink:title="Contains the NekoEngine Window class wrapper.">
<polygon fill="none" stroke="black" points="1114,-67.5 1114,-108.5 1228,-108.5 1228,-67.5 1114,-67.5"/>
<text text-anchor="start" x="1122" y="-96.5" font-family="Helvetica,sans-Serif" font-size="10.00">NekoEngine/include</text>
<text text-anchor="start" x="1122" y="-85.5" font-family="Helvetica,sans-Serif" font-size="10.00">/NekoEngine/Graphics</text>
<text text-anchor="middle" x="1171" y="-74.5" font-family="Helvetica,sans-Serif" font-size="10.00">/Window.hpp</text>
</a>
</g>
</g>
<!-- Node12&#45;&gt;Node13 -->
<g id="edge17" class="edge">
<title>Node12&#45;&gt;Node13</title>
<path fill="none" stroke="midnightblue" d="M1125.76,-143.05C1134.36,-132.78 1145.48,-119.49 1154.55,-108.66"/>
<polygon fill="midnightblue" stroke="midnightblue" points="1122.97,-140.94 1119.23,-150.86 1128.34,-145.43 1122.97,-140.94"/>
</g>
<!-- Node19 -->
<g id="node19" class="node">
<title>Node19</title>
<g id="a_node19"><a xlink:href="_window_8cpp.html" target="_top" xlink:title="Contains the NekoEngine Window class implementation.">
<polygon fill="none" stroke="black" points="1022,-0.5 1022,-30.5 1150,-30.5 1150,-0.5 1022,-0.5"/>
<text text-anchor="start" x="1030" y="-18.5" font-family="Helvetica,sans-Serif" font-size="10.00">NekoEngine/src/Graphics</text>
<text text-anchor="middle" x="1086" y="-7.5" font-family="Helvetica,sans-Serif" font-size="10.00">/Window.cpp</text>
</a>
</g>
</g>
<!-- Node12&#45;&gt;Node19 -->
<g id="edge26" class="edge">
<title>Node12&#45;&gt;Node19</title>
<path fill="none" stroke="midnightblue" d="M1108.64,-141.01C1103.39,-112.13 1093.36,-56.96 1088.61,-30.86"/>
<polygon fill="midnightblue" stroke="midnightblue" points="1105.22,-141.77 1110.45,-150.98 1112.11,-140.52 1105.22,-141.77"/>
</g>
<!-- Node13&#45;&gt;Node5 -->
<g id="edge18" class="edge">
<title>Node13&#45;&gt;Node5</title>
<path fill="none" stroke="midnightblue" d="M1104.41,-65.37C1062.62,-51.79 1011.03,-35.03 980.42,-25.08"/>
<polygon fill="midnightblue" stroke="midnightblue" points="1103.39,-68.72 1113.99,-68.48 1105.56,-62.06 1103.39,-68.72"/>
</g>
<!-- Node13&#45;&gt;Node11 -->
<g id="edge19" class="edge">
<title>Node13&#45;&gt;Node11</title>
<path fill="none" stroke="midnightblue" d="M1192.67,-117.14C1204.15,-135.69 1213.23,-159.51 1199,-176 1163.34,-217.33 1009.95,-203.66 956,-212 950.53,-212.85 944.87,-213.73 939.17,-214.63"/>
<polygon fill="midnightblue" stroke="midnightblue" points="1195.56,-115.17 1187.11,-108.78 1189.73,-119.05 1195.56,-115.17"/>
</g>
<!-- Node13&#45;&gt;Node14 -->
<g id="edge20" class="edge">
<title>Node13&#45;&gt;Node14</title>
<path fill="none" stroke="midnightblue" d="M1238.39,-74.75C1306.2,-62.43 1410.64,-43.46 1481.75,-30.54"/>
<polygon fill="midnightblue" stroke="midnightblue" points="1237.46,-71.37 1228.25,-76.6 1238.72,-78.25 1237.46,-71.37"/>
</g>
<!-- Node13&#45;&gt;Node15 -->
<g id="edge21" class="edge">
<title>Node13&#45;&gt;Node15</title>
<path fill="none" stroke="midnightblue" d="M1237.65,-65.35C1272.48,-54.03 1314.12,-40.5 1344.73,-30.56"/>
<polygon fill="midnightblue" stroke="midnightblue" points="1236.44,-62.06 1228.01,-68.48 1238.61,-68.72 1236.44,-62.06"/>
</g>
<!-- Node13&#45;&gt;Node16 -->
<g id="edge22" class="edge">
<title>Node13&#45;&gt;Node16</title>
<path fill="none" stroke="midnightblue" d="M1238.26,-79.45C1330.98,-68.97 1503.25,-49.25 1650,-31 1661.95,-29.51 1674.62,-27.89 1686.94,-26.28"/>
<polygon fill="midnightblue" stroke="midnightblue" points="1237.72,-75.99 1228.18,-80.59 1238.51,-82.95 1237.72,-75.99"/>
</g>
<!-- Node13&#45;&gt;Node17 -->
<g id="edge23" class="edge">
<title>Node13&#45;&gt;Node17</title>
<path fill="none" stroke="midnightblue" d="M1103.87,-80.43C1063.37,-76.49 1010.72,-71.4 964,-67 789.82,-50.59 745.38,-54.44 572,-31 568.89,-30.58 565.71,-30.12 562.5,-29.64"/>
<polygon fill="midnightblue" stroke="midnightblue" points="1103.6,-83.92 1113.9,-81.41 1104.28,-76.96 1103.6,-83.92"/>
</g>
<!-- Node13&#45;&gt;Node18 -->
<g id="edge24" class="edge">
<title>Node13&#45;&gt;Node18</title>
<path fill="none" stroke="midnightblue" d="M1195.37,-59.73C1204.16,-49.89 1213.72,-39.19 1221.14,-30.89"/>
<polygon fill="midnightblue" stroke="midnightblue" points="1192.6,-57.57 1188.55,-67.36 1197.82,-62.24 1192.6,-57.57"/>
</g>
<!-- Node13&#45;&gt;Node19 -->
<g id="edge25" class="edge">
<title>Node13&#45;&gt;Node19</title>
<path fill="none" stroke="midnightblue" d="M1139.46,-60.84C1127.14,-50.62 1113.5,-39.31 1103.08,-30.67"/>
<polygon fill="midnightblue" stroke="midnightblue" points="1137.39,-63.67 1147.32,-67.36 1141.86,-58.28 1137.39,-63.67"/>
</g>
<!-- Node20&#45;&gt;Node3 -->
<g id="edge28" class="edge">
<title>Node20&#45;&gt;Node3</title>
<path fill="none" stroke="midnightblue" d="M822.99,-148.13C774.48,-134 692.78,-110.2 649.29,-97.53"/>
<polygon fill="midnightblue" stroke="midnightblue" points="822.23,-151.56 832.81,-151 824.19,-144.84 822.23,-151.56"/>
</g>
<!-- Node20&#45;&gt;Node21 -->
<g id="edge29" class="edge">
<title>Node20&#45;&gt;Node21</title>
<path fill="none" stroke="midnightblue" d="M867.95,-141.27C872.52,-127.26 878.63,-108.53 882.16,-97.72"/>
<polygon fill="midnightblue" stroke="midnightblue" points="864.59,-140.26 864.82,-150.86 871.25,-142.43 864.59,-140.26"/>
</g>
<!-- Node26&#45;&gt;Node10 -->
<g id="edge37" class="edge">
<title>Node26&#45;&gt;Node10</title>
<path fill="none" stroke="midnightblue" d="M1391.89,-353.05C1369.96,-342.57 1344.56,-330.42 1323.81,-320.51"/>
<polygon fill="midnightblue" stroke="midnightblue" points="1390.52,-356.27 1401.05,-357.43 1393.54,-349.96 1390.52,-356.27"/>
</g>
<!-- Node27 -->
<g id="node27" class="node">
<title>Node27</title>
<g id="a_node27"><a xlink:href="_collision_8cpp.html" target="_top" xlink:title=" ">
<polygon fill="none" stroke="black" points="1408,-285 1408,-315 1524,-315 1524,-285 1408,-285"/>
<text text-anchor="start" x="1416" y="-303" font-family="Helvetica,sans-Serif" font-size="10.00">NekoEngine/src/ECS</text>
<text text-anchor="middle" x="1466" y="-292" font-family="Helvetica,sans-Serif" font-size="10.00">/Systems/Collision.cpp</text>
</a>
</g>
</g>
<!-- Node26&#45;&gt;Node27 -->
<g id="edge38" class="edge">
<title>Node26&#45;&gt;Node27</title>
<path fill="none" stroke="midnightblue" d="M1451.28,-347.62C1454.79,-336.5 1458.63,-324.34 1461.51,-315.23"/>
<polygon fill="midnightblue" stroke="midnightblue" points="1447.85,-346.84 1448.18,-357.43 1454.53,-348.95 1447.85,-346.84"/>
</g>
<!-- Node28&#45;&gt;Node11 -->
<g id="edge41" class="edge">
<title>Node28&#45;&gt;Node11</title>
<path fill="none" stroke="midnightblue" d="M864.03,-274.73C864.49,-264.07 865,-251.91 865.39,-242.75"/>
<polygon fill="midnightblue" stroke="midnightblue" points="860.54,-274.59 863.61,-284.73 867.53,-274.89 860.54,-274.59"/>
</g>
<!-- Node28&#45;&gt;Node24 -->
<g id="edge42" class="edge">
<title>Node28&#45;&gt;Node24</title>
<path fill="none" stroke="midnightblue" d="M911.75,-281.46C945.12,-269.46 988.78,-253.76 1019.88,-242.57"/>
<polygon fill="midnightblue" stroke="midnightblue" points="910.42,-278.22 902.19,-284.9 912.79,-284.81 910.42,-278.22"/>
</g>
<!-- Node30&#45;&gt;Node10 -->
<g id="edge52" class="edge">
<title>Node30&#45;&gt;Node10</title>
<path fill="none" stroke="midnightblue" d="M1141.45,-428.6C1151.68,-419.44 1163.02,-408.97 1173,-399 1190.81,-381.21 1192.55,-374.13 1211,-357 1224.93,-344.07 1241.62,-330.96 1255.42,-320.68"/>
<polygon fill="midnightblue" stroke="midnightblue" points="1139.04,-426.06 1133.89,-435.31 1143.69,-431.29 1139.04,-426.06"/>
</g>
<!-- Node30&#45;&gt;Node29 -->
<g id="edge53" class="edge">
<title>Node30&#45;&gt;Node29</title>
<path fill="none" stroke="midnightblue" d="M1101.34,-425.62C1097.68,-414.5 1093.68,-402.34 1090.68,-393.23"/>
<polygon fill="midnightblue" stroke="midnightblue" points="1098.11,-427.02 1104.56,-435.43 1104.76,-424.84 1098.11,-427.02"/>
</g>
<!-- Node31&#45;&gt;Node10 -->
<g id="edge55" class="edge">
<title>Node31&#45;&gt;Node10</title>
<path fill="none" stroke="midnightblue" d="M1709.6,-356.86C1572.01,-331.82 1533.93,-340.4 1399,-321 1383.53,-318.78 1366.94,-316.09 1351.29,-313.43"/>
<polygon fill="midnightblue" stroke="midnightblue" points="1709.21,-360.35 1719.68,-358.73 1710.48,-353.47 1709.21,-360.35"/>
</g>
<!-- Node31&#45;&gt;Node14 -->
<g id="edge56" class="edge">
<title>Node31&#45;&gt;Node14</title>
<path fill="none" stroke="midnightblue" d="M1746.31,-351.56C1709.62,-325.62 1662,-281.71 1662,-228.5 1662,-228.5 1662,-228.5 1662,-159.5 1662,-103.2 1608.79,-53.96 1578.86,-30.71"/>
<polygon fill="midnightblue" stroke="midnightblue" points="1744.67,-354.67 1754.89,-357.44 1748.63,-348.9 1744.67,-354.67"/>
</g>
<!-- Node31&#45;&gt;Node16 -->
<g id="edge57" class="edge">
<title>Node31&#45;&gt;Node16</title>
<path fill="none" stroke="midnightblue" d="M1783.53,-347.17C1779.43,-317.24 1774,-269.78 1774,-228.5 1774,-228.5 1774,-228.5 1774,-159.5 1774,-112.1 1766.29,-56.29 1762.31,-30.66"/>
<polygon fill="midnightblue" stroke="midnightblue" points="1780.1,-347.94 1784.96,-357.36 1787.03,-346.97 1780.1,-347.94"/>
</g>
<!-- Node32&#45;&gt;Node10 -->
<g id="edge61" class="edge">
<title>Node32&#45;&gt;Node10</title>
<path fill="none" stroke="midnightblue" d="M1555.77,-357.86C1554.5,-357.57 1553.25,-357.28 1552,-357 1483.83,-341.6 1405.59,-325.48 1351.13,-314.52"/>
<polygon fill="midnightblue" stroke="midnightblue" points="1555.05,-361.28 1565.58,-360.13 1556.63,-354.46 1555.05,-361.28"/>
</g>
<!-- Node32&#45;&gt;Node15 -->
<g id="edge62" class="edge">
<title>Node32&#45;&gt;Node15</title>
<path fill="none" stroke="midnightblue" d="M1621.01,-348.02C1609,-318.56 1593,-271.27 1593,-228.5 1593,-228.5 1593,-228.5 1593,-159.5 1593,-87.68 1507.32,-48.96 1446.74,-30.55"/>
<polygon fill="midnightblue" stroke="midnightblue" points="1617.81,-349.43 1624.9,-357.3 1624.26,-346.73 1617.81,-349.43"/>
</g>
<!-- Node33&#45;&gt;Node10 -->
<g id="edge64" class="edge">
<title>Node33&#45;&gt;Node10</title>
<path fill="none" stroke="midnightblue" d="M1863.8,-356.95C1658.36,-323.49 1601.91,-346.27 1399,-321 1383.49,-319.07 1366.89,-316.5 1351.23,-313.86"/>
<polygon fill="midnightblue" stroke="midnightblue" points="1863.26,-360.41 1873.7,-358.59 1864.41,-353.51 1863.26,-360.41"/>
</g>
<!-- Node33&#45;&gt;Node16 -->
<g id="edge65" class="edge">
<title>Node33&#45;&gt;Node16</title>
<path fill="none" stroke="midnightblue" d="M1928.06,-348.12C1915.17,-318.73 1898,-271.5 1898,-228.5 1898,-228.5 1898,-228.5 1898,-159.5 1898,-97.57 1830.15,-52.18 1789.6,-30.59"/>
<polygon fill="midnightblue" stroke="midnightblue" points="1924.93,-349.7 1932.23,-357.37 1931.31,-346.82 1924.93,-349.7"/>
</g>
<!-- Node34&#45;&gt;Node10 -->
<g id="edge67" class="edge">
<title>Node34&#45;&gt;Node10</title>
<path fill="none" stroke="midnightblue" d="M696.03,-368.08C827.27,-353.08 1090.05,-323.05 1214.56,-308.82"/>
<polygon fill="midnightblue" stroke="midnightblue" points="695.58,-364.61 686.04,-369.22 696.37,-371.57 695.58,-364.61"/>
</g>
<!-- Node34&#45;&gt;Node22 -->
<g id="edge68" class="edge">
<title>Node34&#45;&gt;Node22</title>
<path fill="none" stroke="midnightblue" d="M618,-347.32C618,-300.24 618,-210.23 618,-175.58"/>
<polygon fill="midnightblue" stroke="midnightblue" points="614.5,-347.5 618,-357.5 621.5,-347.5 614.5,-347.5"/>
</g>
<!-- Node35&#45;&gt;Node10 -->
<g id="edge70" class="edge">
<title>Node35&#45;&gt;Node10</title>
<path fill="none" stroke="midnightblue" d="M174.24,-356.98C516.99,-305.86 608.63,-339.23 951,-321 1042.39,-316.13 1147.88,-309.63 1214.98,-305.38"/>
<polygon fill="midnightblue" stroke="midnightblue" points="173.65,-353.53 164.28,-358.48 174.69,-360.45 173.65,-353.53"/>
</g>
<!-- Node35&#45;&gt;Node17 -->
<g id="edge71" class="edge">
<title>Node35&#45;&gt;Node17</title>
<path fill="none" stroke="midnightblue" d="M77.56,-348.54C60.58,-319.55 38,-272.71 38,-228.5 38,-228.5 38,-228.5 38,-159.5 38,-80.53 291.49,-39.69 419.22,-24.12"/>
<polygon fill="midnightblue" stroke="midnightblue" points="74.68,-350.54 82.84,-357.3 80.67,-346.93 74.68,-350.54"/>
</g>
<!-- Node36&#45;&gt;Node10 -->
<g id="edge73" class="edge">
<title>Node36&#45;&gt;Node10</title>
<path fill="none" stroke="midnightblue" d="M1286.05,-347.3C1285.45,-338.3 1284.82,-328.65 1284.28,-320.51"/>
<polygon fill="midnightblue" stroke="midnightblue" points="1282.56,-347.68 1286.71,-357.43 1289.55,-347.22 1282.56,-347.68"/>
</g>
<!-- Node36&#45;&gt;Node18 -->
<g id="edge74" class="edge">
<title>Node36&#45;&gt;Node18</title>
<path fill="none" stroke="midnightblue" d="M1333.64,-351.4C1344.18,-343.15 1354.05,-332.98 1360,-321 1381.56,-277.62 1374.76,-258.45 1361,-212 1338.35,-135.55 1275.35,-60.99 1247.52,-30.68"/>
<polygon fill="midnightblue" stroke="midnightblue" points="1331.52,-348.62 1325.49,-357.33 1335.64,-354.27 1331.52,-348.62"/>
</g>
<!-- Node37&#45;&gt;Node10 -->
<g id="edge76" class="edge">
<title>Node37&#45;&gt;Node10</title>
<path fill="none" stroke="midnightblue" d="M1490.05,-504.98C1516.64,-467.56 1553.7,-400.9 1519,-357 1508.44,-343.64 1417.01,-324.81 1351.12,-312.75"/>
<polygon fill="midnightblue" stroke="midnightblue" points="1486.97,-503.25 1483.9,-513.39 1492.62,-507.39 1486.97,-503.25"/>
</g>
</g>
</svg>
