<?xml version="1.0" encoding="UTF-8" standalone="no"?>
<!DOCTYPE svg PUBLIC "-//W3C//DTD SVG 1.1//EN"
 "http://www.w3.org/Graphics/SVG/1.1/DTD/svg11.dtd">
<!-- Generated by graphviz version 2.49.3 (20211027.1501)
 -->
<!-- Title: NekoEngine/include/NekoEngine/ECS/System.hpp Pages: 1 -->
<svg width="265pt" height="151pt"
 viewBox="0.00 0.00 265.00 151.00" xmlns="http://www.w3.org/2000/svg" xmlns:xlink="http://www.w3.org/1999/xlink">
<g id="graph0" class="graph" transform="scale(1 1) rotate(0) translate(4 147)">
<title>NekoEngine/include/NekoEngine/ECS/System.hpp</title>
<!-- Node1 -->
<g id="node1" class="node">
<title>Node1</title>
<g id="a_node1"><a xlink:title="ECS System.">
<polygon fill="#bfbfbf" stroke="black" points="0,-112.5 0,-142.5 149,-142.5 149,-112.5 0,-112.5"/>
<text text-anchor="start" x="8" y="-130.5" font-family="Helvetica,sans-Serif" font-size="10.00">NekoEngine/include</text>
<text text-anchor="middle" x="74.5" y="-119.5" font-family="Helvetica,sans-Serif" font-size="10.00">/NekoEngine/ECS/System.hpp</text>
</a>
</g>
</g>
<!-- Node2 -->
<g id="node2" class="node">
<title>Node2</title>
<g id="a_node2"><a xlink:title=" ">
<polygon fill="none" stroke="#bfbfbf" points="1.5,-56.5 1.5,-75.5 31.5,-75.5 31.5,-56.5 1.5,-56.5"/>
<text text-anchor="middle" x="16.5" y="-63.5" font-family="Helvetica,sans-Serif" font-size="10.00">set</text>
</a>
</g>
</g>
<!-- Node1&#45;&gt;Node2 -->
<g id="edge1" class="edge">
<title>Node1&#45;&gt;Node2</title>
<path fill="none" stroke="midnightblue" d="M60.75,-112.4C52.15,-103.58 41.05,-92.18 32.11,-83.02"/>
<polygon fill="midnightblue" stroke="midnightblue" points="34.43,-80.38 24.94,-75.66 29.41,-85.26 34.43,-80.38"/>
</g>
<!-- Node3 -->
<g id="node3" class="node">
<title>Node3</title>
<g id="a_node3"><a xlink:title=" ">
<polygon fill="none" stroke="#bfbfbf" points="49,-56.5 49,-75.5 100,-75.5 100,-56.5 49,-56.5"/>
<text text-anchor="middle" x="74.5" y="-63.5" font-family="Helvetica,sans-Serif" font-size="10.00">memory</text>
</a>
</g>
</g>
<!-- Node1&#45;&gt;Node3 -->
<g id="edge2" class="edge">
<title>Node1&#45;&gt;Node3</title>
<path fill="none" stroke="midnightblue" d="M74.5,-112.4C74.5,-104.47 74.5,-94.46 74.5,-85.86"/>
<polygon fill="midnightblue" stroke="midnightblue" points="78,-85.66 74.5,-75.66 71,-85.66 78,-85.66"/>
</g>
<!-- Node4 -->
<g id="node4" class="node">
<title>Node4</title>
<g id="a_node4"><a xlink:href="_types_8hpp.html" target="_top" xlink:title="NekoEngine types definition.">
<polygon fill="none" stroke="black" points="118,-56.5 118,-75.5 257,-75.5 257,-56.5 118,-56.5"/>
<text text-anchor="middle" x="187.5" y="-63.5" font-family="Helvetica,sans-Serif" font-size="10.00">NekoEngine/ECS/Types.hpp</text>
</a>
</g>
</g>
<!-- Node1&#45;&gt;Node4 -->
<g id="edge3" class="edge">
<title>Node1&#45;&gt;Node4</title>
<path fill="none" stroke="midnightblue" d="M101.28,-112.4C119.56,-102.77 143.65,-90.09 161.71,-80.58"/>
<polygon fill="midnightblue" stroke="midnightblue" points="163.84,-83.41 171.06,-75.66 160.58,-77.22 163.84,-83.41"/>
</g>
<!-- Node5 -->
<g id="node5" class="node">
<title>Node5</title>
<g id="a_node5"><a xlink:title=" ">
<polygon fill="none" stroke="#bfbfbf" points="133.5,-0.5 133.5,-19.5 179.5,-19.5 179.5,-0.5 133.5,-0.5"/>
<text text-anchor="middle" x="156.5" y="-7.5" font-family="Helvetica,sans-Serif" font-size="10.00">cstdint</text>
</a>
</g>
</g>
<!-- Node4&#45;&gt;Node5 -->
<g id="edge4" class="edge">
<title>Node4&#45;&gt;Node5</title>
<path fill="none" stroke="midnightblue" d="M182.38,-56.08C178.09,-48.61 171.84,-37.72 166.56,-28.52"/>
<polygon fill="midnightblue" stroke="midnightblue" points="169.54,-26.68 161.52,-19.75 163.47,-30.17 169.54,-26.68"/>
</g>
<!-- Node6 -->
<g id="node6" class="node">
<title>Node6</title>
<g id="a_node6"><a xlink:title=" ">
<polygon fill="none" stroke="#bfbfbf" points="198,-0.5 198,-19.5 239,-19.5 239,-0.5 198,-0.5"/>
<text text-anchor="middle" x="218.5" y="-7.5" font-family="Helvetica,sans-Serif" font-size="10.00">bitset</text>
</a>
</g>
</g>
<!-- Node4&#45;&gt;Node6 -->
<g id="edge5" class="edge">
<title>Node4&#45;&gt;Node6</title>
<path fill="none" stroke="midnightblue" d="M192.62,-56.08C196.91,-48.61 203.16,-37.72 208.44,-28.52"/>
<polygon fill="midnightblue" stroke="midnightblue" points="211.53,-30.17 213.48,-19.75 205.46,-26.68 211.53,-30.17"/>
</g>
</g>
</svg>
