<?xml version="1.0" encoding="UTF-8" standalone="no"?>
<!DOCTYPE svg PUBLIC "-//W3C//DTD SVG 1.1//EN"
 "http://www.w3.org/Graphics/SVG/1.1/DTD/svg11.dtd">
<!-- Generated by graphviz version 2.49.3 (20211027.1501)
 -->
<!-- Title: NekoEngine/include/NekoEngine/ECS/SystemManager.hpp Pages: 1 -->
<svg width="977pt" height="408pt"
 viewBox="0.00 0.00 977.01 408.00" xmlns="http://www.w3.org/2000/svg" xmlns:xlink="http://www.w3.org/1999/xlink">
<g id="graph0" class="graph" transform="scale(1 1) rotate(0) translate(4 404)">
<title>NekoEngine/include/NekoEngine/ECS/SystemManager.hpp</title>
<!-- Node1 -->
<g id="node1" class="node">
<title>Node1</title>
<g id="a_node1"><a xlink:title=" ">
<polygon fill="#bfbfbf" stroke="black" points="368.51,-369.5 368.51,-399.5 554.51,-399.5 554.51,-369.5 368.51,-369.5"/>
<text text-anchor="start" x="376.51" y="-387.5" font-family="Helvetica,sans-Serif" font-size="10.00">NekoEngine/include</text>
<text text-anchor="middle" x="461.51" y="-376.5" font-family="Helvetica,sans-Serif" font-size="10.00">/NekoEngine/ECS/SystemManager.hpp</text>
</a>
</g>
</g>
<!-- Node2 -->
<g id="node2" class="node">
<title>Node2</title>
<g id="a_node2"><a xlink:title=" ">
<polygon fill="none" stroke="#bfbfbf" points="206.01,-118 206.01,-137 257.01,-137 257.01,-118 206.01,-118"/>
<text text-anchor="middle" x="231.51" y="-125" font-family="Helvetica,sans-Serif" font-size="10.00">memory</text>
</a>
</g>
</g>
<!-- Node1&#45;&gt;Node2 -->
<g id="edge1" class="edge">
<title>Node1&#45;&gt;Node2</title>
<path fill="none" stroke="midnightblue" d="M424.69,-369.41C369.66,-346.02 268.4,-293.33 230.51,-210 221.38,-189.92 223.74,-164.08 226.98,-146.94"/>
<polygon fill="midnightblue" stroke="midnightblue" points="230.42,-147.59 229.13,-137.08 223.58,-146.11 230.42,-147.59"/>
</g>
<!-- Node3 -->
<g id="node3" class="node">
<title>Node3</title>
<g id="a_node3"><a xlink:title=" ">
<polygon fill="none" stroke="#bfbfbf" points="719.01,-118 719.01,-137 754.01,-137 754.01,-118 719.01,-118"/>
<text text-anchor="middle" x="736.51" y="-125" font-family="Helvetica,sans-Serif" font-size="10.00">map</text>
</a>
</g>
</g>
<!-- Node1&#45;&gt;Node3 -->
<g id="edge2" class="edge">
<title>Node1&#45;&gt;Node3</title>
<path fill="none" stroke="midnightblue" d="M543.85,-369.41C629.3,-349.93 758.65,-305.65 818.51,-210 825.82,-198.32 825.23,-191.03 818.51,-179 806.85,-158.12 782.61,-144.8 763.5,-137.12"/>
<polygon fill="midnightblue" stroke="midnightblue" points="764.65,-133.82 754.06,-133.61 762.21,-140.38 764.65,-133.82"/>
</g>
<!-- Node4 -->
<g id="node4" class="node">
<title>Node4</title>
<g id="a_node4"><a xlink:href="_system_8hpp.html" target="_top" xlink:title="ECS System.">
<polygon fill="none" stroke="black" points="19.51,-185 19.51,-204 165.51,-204 165.51,-185 19.51,-185"/>
<text text-anchor="middle" x="92.51" y="-192" font-family="Helvetica,sans-Serif" font-size="10.00">NekoEngine/ECS/System.hpp</text>
</a>
</g>
</g>
<!-- Node1&#45;&gt;Node4 -->
<g id="edge3" class="edge">
<title>Node1&#45;&gt;Node4</title>
<path fill="none" stroke="midnightblue" d="M368.17,-374.92C298.33,-367.02 209.85,-353.4 179.51,-333 135.67,-303.52 109.45,-243.72 98.5,-213.64"/>
<polygon fill="midnightblue" stroke="midnightblue" points="101.75,-212.31 95.16,-204.02 95.14,-214.61 101.75,-212.31"/>
</g>
<!-- Node9 -->
<g id="node9" class="node">
<title>Node9</title>
<g id="a_node9"><a xlink:href="_coordinator_8hpp.html" target="_top" xlink:title="Coordinator class.">
<polygon fill="none" stroke="black" points="380.51,-313.5 380.51,-332.5 542.51,-332.5 542.51,-313.5 380.51,-313.5"/>
<text text-anchor="middle" x="461.51" y="-320.5" font-family="Helvetica,sans-Serif" font-size="10.00">NekoEngine/ECS/Coordinator.hpp</text>
</a>
</g>
</g>
<!-- Node1&#45;&gt;Node9 -->
<g id="edge9" class="edge">
<title>Node1&#45;&gt;Node9</title>
<path fill="none" stroke="midnightblue" d="M455.67,-369.4C454.64,-361.38 454.48,-351.23 455.2,-342.57"/>
<polygon fill="midnightblue" stroke="midnightblue" points="458.67,-343.04 456.58,-332.66 451.74,-342.08 458.67,-343.04"/>
</g>
<!-- Node19 -->
<g id="node19" class="node">
<title>Node19</title>
<g id="a_node19"><a xlink:title=" ">
<polygon fill="none" stroke="#bfbfbf" points="866.01,-313.5 866.01,-332.5 969.01,-332.5 969.01,-313.5 866.01,-313.5"/>
<text text-anchor="middle" x="917.51" y="-320.5" font-family="Helvetica,sans-Serif" font-size="10.00">SystemManager.tpp</text>
</a>
</g>
</g>
<!-- Node1&#45;&gt;Node19 -->
<g id="edge30" class="edge">
<title>Node1&#45;&gt;Node19</title>
<path fill="none" stroke="midnightblue" d="M554.52,-371.64C633.55,-361.51 749.99,-346.49 851.51,-333 852.98,-332.8 854.47,-332.61 855.97,-332.41"/>
<polygon fill="midnightblue" stroke="midnightblue" points="856.55,-335.86 865.99,-331.06 855.61,-328.92 856.55,-335.86"/>
</g>
<!-- Node4&#45;&gt;Node2 -->
<g id="edge5" class="edge">
<title>Node4&#45;&gt;Node2</title>
<path fill="none" stroke="midnightblue" d="M110.97,-184.87C134.75,-173.75 176.3,-154.32 203.86,-141.43"/>
<polygon fill="midnightblue" stroke="midnightblue" points="205.4,-144.57 212.98,-137.17 202.43,-138.23 205.4,-144.57"/>
</g>
<!-- Node5 -->
<g id="node5" class="node">
<title>Node5</title>
<g id="a_node5"><a xlink:title=" ">
<polygon fill="none" stroke="#bfbfbf" points="77.51,-118 77.51,-137 107.51,-137 107.51,-118 77.51,-118"/>
<text text-anchor="middle" x="92.51" y="-125" font-family="Helvetica,sans-Serif" font-size="10.00">set</text>
</a>
</g>
</g>
<!-- Node4&#45;&gt;Node5 -->
<g id="edge4" class="edge">
<title>Node4&#45;&gt;Node5</title>
<path fill="none" stroke="midnightblue" d="M92.51,-184.73C92.51,-175.18 92.51,-159.62 92.51,-147.28"/>
<polygon fill="midnightblue" stroke="midnightblue" points="96.01,-147.13 92.51,-137.13 89.01,-147.13 96.01,-147.13"/>
</g>
<!-- Node6 -->
<g id="node6" class="node">
<title>Node6</title>
<g id="a_node6"><a xlink:href="_types_8hpp.html" target="_top" xlink:title="NekoEngine types definition.">
<polygon fill="none" stroke="black" points="192.01,-56.5 192.01,-75.5 331.01,-75.5 331.01,-56.5 192.01,-56.5"/>
<text text-anchor="middle" x="261.51" y="-63.5" font-family="Helvetica,sans-Serif" font-size="10.00">NekoEngine/ECS/Types.hpp</text>
</a>
</g>
</g>
<!-- Node4&#45;&gt;Node6 -->
<g id="edge6" class="edge">
<title>Node4&#45;&gt;Node6</title>
<path fill="none" stroke="midnightblue" d="M103.41,-184.76C122.35,-169.65 162.62,-137.78 197.51,-112 211.57,-101.61 227.68,-90.29 240.22,-81.6"/>
<polygon fill="midnightblue" stroke="midnightblue" points="242.39,-84.35 248.63,-75.79 238.42,-78.59 242.39,-84.35"/>
</g>
<!-- Node7 -->
<g id="node7" class="node">
<title>Node7</title>
<g id="a_node7"><a xlink:title=" ">
<polygon fill="none" stroke="#bfbfbf" points="207.51,-0.5 207.51,-19.5 253.51,-19.5 253.51,-0.5 207.51,-0.5"/>
<text text-anchor="middle" x="230.51" y="-7.5" font-family="Helvetica,sans-Serif" font-size="10.00">cstdint</text>
</a>
</g>
</g>
<!-- Node6&#45;&gt;Node7 -->
<g id="edge7" class="edge">
<title>Node6&#45;&gt;Node7</title>
<path fill="none" stroke="midnightblue" d="M256.39,-56.08C252.1,-48.61 245.85,-37.72 240.57,-28.52"/>
<polygon fill="midnightblue" stroke="midnightblue" points="243.55,-26.68 235.53,-19.75 237.48,-30.17 243.55,-26.68"/>
</g>
<!-- Node8 -->
<g id="node8" class="node">
<title>Node8</title>
<g id="a_node8"><a xlink:title=" ">
<polygon fill="none" stroke="#bfbfbf" points="272.01,-0.5 272.01,-19.5 313.01,-19.5 313.01,-0.5 272.01,-0.5"/>
<text text-anchor="middle" x="292.51" y="-7.5" font-family="Helvetica,sans-Serif" font-size="10.00">bitset</text>
</a>
</g>
</g>
<!-- Node6&#45;&gt;Node8 -->
<g id="edge8" class="edge">
<title>Node6&#45;&gt;Node8</title>
<path fill="none" stroke="midnightblue" d="M266.63,-56.08C270.92,-48.61 277.17,-37.72 282.45,-28.52"/>
<polygon fill="midnightblue" stroke="midnightblue" points="285.54,-30.17 287.49,-19.75 279.47,-26.68 285.54,-30.17"/>
</g>
<!-- Node9&#45;&gt;Node1 -->
<g id="edge28" class="edge">
<title>Node9&#45;&gt;Node1</title>
<path fill="none" stroke="midnightblue" d="M466.44,-332.66C467.94,-339.65 468.52,-349.86 468.16,-359.29"/>
<polygon fill="midnightblue" stroke="midnightblue" points="464.65,-359.15 467.35,-369.4 471.63,-359.71 464.65,-359.15"/>
</g>
<!-- Node10 -->
<g id="node10" class="node">
<title>Node10</title>
<g id="a_node10"><a xlink:href="_component_manager_8hpp.html" target="_top" xlink:title="Component Manmager class.">
<polygon fill="none" stroke="black" points="389.51,-246.5 389.51,-276.5 533.51,-276.5 533.51,-246.5 389.51,-246.5"/>
<text text-anchor="start" x="397.51" y="-264.5" font-family="Helvetica,sans-Serif" font-size="10.00">NekoEngine/ECS/Component</text>
<text text-anchor="middle" x="461.51" y="-253.5" font-family="Helvetica,sans-Serif" font-size="10.00">Manager.hpp</text>
</a>
</g>
</g>
<!-- Node9&#45;&gt;Node10 -->
<g id="edge10" class="edge">
<title>Node9&#45;&gt;Node10</title>
<path fill="none" stroke="midnightblue" d="M461.51,-313.48C461.51,-306.47 461.51,-296.19 461.51,-286.7"/>
<polygon fill="midnightblue" stroke="midnightblue" points="465.01,-286.52 461.51,-276.52 458.01,-286.52 465.01,-286.52"/>
</g>
<!-- Node16 -->
<g id="node16" class="node">
<title>Node16</title>
<g id="a_node16"><a xlink:href="_entity_manager_8hpp.html" target="_top" xlink:title="Entities are fun.">
<polygon fill="none" stroke="black" points="259.51,-185 259.51,-204 433.51,-204 433.51,-185 259.51,-185"/>
<text text-anchor="middle" x="346.51" y="-192" font-family="Helvetica,sans-Serif" font-size="10.00">NekoEngine/ECS/EntityManager.hpp</text>
</a>
</g>
</g>
<!-- Node9&#45;&gt;Node16 -->
<g id="edge23" class="edge">
<title>Node9&#45;&gt;Node16</title>
<path fill="none" stroke="midnightblue" d="M437.06,-313.46C419.32,-306.18 395.84,-294.15 380.51,-277 364.26,-258.83 355.08,-231.79 350.46,-213.91"/>
<polygon fill="midnightblue" stroke="midnightblue" points="353.85,-213.05 348.14,-204.12 347.04,-214.66 353.85,-213.05"/>
</g>
<!-- Node18 -->
<g id="node18" class="node">
<title>Node18</title>
<g id="a_node18"><a xlink:title=" ">
<polygon fill="none" stroke="#bfbfbf" points="551.51,-252 551.51,-271 633.51,-271 633.51,-252 551.51,-252"/>
<text text-anchor="middle" x="592.51" y="-259" font-family="Helvetica,sans-Serif" font-size="10.00">Coordinator.tpp</text>
</a>
</g>
</g>
<!-- Node9&#45;&gt;Node18 -->
<g id="edge29" class="edge">
<title>Node9&#45;&gt;Node18</title>
<path fill="none" stroke="midnightblue" d="M480.28,-313.48C502.36,-303.45 539.23,-286.7 564.65,-275.15"/>
<polygon fill="midnightblue" stroke="midnightblue" points="566.12,-278.33 573.78,-271.01 563.22,-271.96 566.12,-278.33"/>
</g>
<!-- Node10&#45;&gt;Node2 -->
<g id="edge13" class="edge">
<title>Node10&#45;&gt;Node2</title>
<path fill="none" stroke="midnightblue" d="M389.4,-251.43C336.25,-243.28 269.96,-229.57 250.51,-210 234.05,-193.45 230.77,-165.57 230.61,-147.11"/>
<polygon fill="midnightblue" stroke="midnightblue" points="234.11,-147.08 230.82,-137.01 227.11,-146.93 234.11,-147.08"/>
</g>
<!-- Node10&#45;&gt;Node3 -->
<g id="edge12" class="edge">
<title>Node10&#45;&gt;Node3</title>
<path fill="none" stroke="midnightblue" d="M533.91,-247.99C568.19,-240.17 608.89,-228.07 642.51,-210 651.14,-205.36 694.78,-166.34 719.45,-144.02"/>
<polygon fill="midnightblue" stroke="midnightblue" points="721.95,-146.47 727.01,-137.16 717.25,-141.28 721.95,-146.47"/>
</g>
<!-- Node10&#45;&gt;Node6 -->
<g id="edge14" class="edge">
<title>Node10&#45;&gt;Node6</title>
<path fill="none" stroke="midnightblue" d="M389.14,-257.59C268.08,-251.97 35.26,-237.68 10.51,-210 -26.69,-168.4 48.51,-124.07 68.51,-112 102.57,-91.44 145.23,-80.27 181.78,-74.21"/>
<polygon fill="midnightblue" stroke="midnightblue" points="182.57,-77.62 191.92,-72.63 181.5,-70.71 182.57,-77.62"/>
</g>
<!-- Node11 -->
<g id="node11" class="node">
<title>Node11</title>
<g id="a_node11"><a xlink:title=" ">
<polygon fill="none" stroke="#bfbfbf" points="374.51,-118 374.51,-137 412.51,-137 412.51,-118 374.51,-118"/>
<text text-anchor="middle" x="393.51" y="-125" font-family="Helvetica,sans-Serif" font-size="10.00">array</text>
</a>
</g>
</g>
<!-- Node10&#45;&gt;Node11 -->
<g id="edge11" class="edge">
<title>Node10&#45;&gt;Node11</title>
<path fill="none" stroke="midnightblue" d="M460.52,-246.43C458.84,-229.51 454.34,-200.68 442.51,-179 435.12,-165.46 423.1,-153 412.82,-143.84"/>
<polygon fill="midnightblue" stroke="midnightblue" points="414.95,-141.05 405.06,-137.24 410.41,-146.39 414.95,-141.05"/>
</g>
<!-- Node12 -->
<g id="node12" class="node">
<title>Node12</title>
<g id="a_node12"><a xlink:href="_component_array_8hpp.html" target="_top" xlink:title="Component Array template class.">
<polygon fill="none" stroke="black" points="489.51,-179.5 489.51,-209.5 633.51,-209.5 633.51,-179.5 489.51,-179.5"/>
<text text-anchor="start" x="497.51" y="-197.5" font-family="Helvetica,sans-Serif" font-size="10.00">NekoEngine/ECS/Component</text>
<text text-anchor="middle" x="561.51" y="-186.5" font-family="Helvetica,sans-Serif" font-size="10.00">Array.hpp</text>
</a>
</g>
</g>
<!-- Node10&#45;&gt;Node12 -->
<g id="edge15" class="edge">
<title>Node10&#45;&gt;Node12</title>
<path fill="none" stroke="midnightblue" d="M483.21,-246.4C497.23,-237.28 515.68,-225.29 531.15,-215.24"/>
<polygon fill="midnightblue" stroke="midnightblue" points="533.38,-217.96 539.85,-209.58 529.56,-212.09 533.38,-217.96"/>
</g>
<!-- Node15 -->
<g id="node15" class="node">
<title>Node15</title>
<g id="a_node15"><a xlink:title=" ">
<polygon fill="none" stroke="#bfbfbf" points="690.01,-185 690.01,-204 809.01,-204 809.01,-185 690.01,-185"/>
<text text-anchor="middle" x="749.51" y="-192" font-family="Helvetica,sans-Serif" font-size="10.00">ComponentManager.tpp</text>
</a>
</g>
</g>
<!-- Node10&#45;&gt;Node15 -->
<g id="edge22" class="edge">
<title>Node10&#45;&gt;Node15</title>
<path fill="none" stroke="midnightblue" d="M523.65,-246.48C577.06,-234.42 652.98,-217.29 701.75,-206.28"/>
<polygon fill="midnightblue" stroke="midnightblue" points="702.74,-209.64 711.72,-204.03 701.2,-202.82 702.74,-209.64"/>
</g>
<!-- Node12&#45;&gt;Node2 -->
<g id="edge18" class="edge">
<title>Node12&#45;&gt;Node2</title>
<path fill="none" stroke="midnightblue" d="M489.45,-183.05C416,-172.06 307.26,-154.77 266.51,-143 264.22,-142.34 261.87,-141.57 259.53,-140.75"/>
<polygon fill="midnightblue" stroke="midnightblue" points="260.71,-137.45 250.13,-137.11 258.19,-143.98 260.71,-137.45"/>
</g>
<!-- Node12&#45;&gt;Node3 -->
<g id="edge17" class="edge">
<title>Node12&#45;&gt;Node3</title>
<path fill="none" stroke="midnightblue" d="M609.25,-179.4C638.62,-170.19 676.78,-157.26 709.51,-143 710.51,-142.56 711.52,-142.11 712.54,-141.63"/>
<polygon fill="midnightblue" stroke="midnightblue" points="714.23,-144.7 721.59,-137.08 711.08,-138.44 714.23,-144.7"/>
</g>
<!-- Node12&#45;&gt;Node11 -->
<g id="edge16" class="edge">
<title>Node12&#45;&gt;Node11</title>
<path fill="none" stroke="midnightblue" d="M519.05,-179.5C491.27,-169.99 454.35,-156.69 422.51,-143 421.35,-142.5 420.16,-141.98 418.97,-141.44"/>
<polygon fill="midnightblue" stroke="midnightblue" points="420.45,-138.26 409.92,-137.11 417.44,-144.58 420.45,-138.26"/>
</g>
<!-- Node13 -->
<g id="node13" class="node">
<title>Node13</title>
<g id="a_node13"><a xlink:href="_i_component_array_8hpp.html" target="_top" xlink:title="Interface for the Component Array template class.">
<polygon fill="none" stroke="black" points="431.01,-112.5 431.01,-142.5 578.01,-142.5 578.01,-112.5 431.01,-112.5"/>
<text text-anchor="start" x="439.01" y="-130.5" font-family="Helvetica,sans-Serif" font-size="10.00">NekoEngine/ECS/IComponent</text>
<text text-anchor="middle" x="504.51" y="-119.5" font-family="Helvetica,sans-Serif" font-size="10.00">Array.hpp</text>
</a>
</g>
</g>
<!-- Node12&#45;&gt;Node13 -->
<g id="edge19" class="edge">
<title>Node12&#45;&gt;Node13</title>
<path fill="none" stroke="midnightblue" d="M549.14,-179.4C541.67,-170.88 532,-159.85 523.57,-150.23"/>
<polygon fill="midnightblue" stroke="midnightblue" points="526.08,-147.79 516.85,-142.58 520.82,-152.4 526.08,-147.79"/>
</g>
<!-- Node14 -->
<g id="node14" class="node">
<title>Node14</title>
<g id="a_node14"><a xlink:title=" ">
<polygon fill="none" stroke="#bfbfbf" points="596.51,-118 596.51,-137 700.51,-137 700.51,-118 596.51,-118"/>
<text text-anchor="middle" x="648.51" y="-125" font-family="Helvetica,sans-Serif" font-size="10.00">ComponentArray.tpp</text>
</a>
</g>
</g>
<!-- Node12&#45;&gt;Node14 -->
<g id="edge21" class="edge">
<title>Node12&#45;&gt;Node14</title>
<path fill="none" stroke="midnightblue" d="M580.39,-179.4C594.62,-168.76 614.11,-154.2 628.59,-143.38"/>
<polygon fill="midnightblue" stroke="midnightblue" points="630.96,-145.98 636.87,-137.19 626.77,-140.38 630.96,-145.98"/>
</g>
<!-- Node13&#45;&gt;Node6 -->
<g id="edge20" class="edge">
<title>Node13&#45;&gt;Node6</title>
<path fill="none" stroke="midnightblue" d="M447.23,-112.47C404.12,-101.92 345.87,-87.66 306.17,-77.94"/>
<polygon fill="midnightblue" stroke="midnightblue" points="306.8,-74.49 296.25,-75.51 305.13,-81.28 306.8,-74.49"/>
</g>
<!-- Node16&#45;&gt;Node2 -->
<g id="edge26" class="edge">
<title>Node16&#45;&gt;Node2</title>
<path fill="none" stroke="midnightblue" d="M331,-184.73C311.6,-173.77 278.18,-154.88 255.48,-142.05"/>
<polygon fill="midnightblue" stroke="midnightblue" points="257.2,-139 246.77,-137.13 253.76,-145.09 257.2,-139"/>
</g>
<!-- Node16&#45;&gt;Node6 -->
<g id="edge27" class="edge">
<title>Node16&#45;&gt;Node6</title>
<path fill="none" stroke="midnightblue" d="M346.49,-184.83C346.05,-168.99 343.2,-134.89 327.51,-112 318.21,-98.43 303.36,-87.77 290.1,-80.24"/>
<polygon fill="midnightblue" stroke="midnightblue" points="291.73,-77.15 281.26,-75.53 288.44,-83.32 291.73,-77.15"/>
</g>
<!-- Node16&#45;&gt;Node11 -->
<g id="edge25" class="edge">
<title>Node16&#45;&gt;Node11</title>
<path fill="none" stroke="midnightblue" d="M352.85,-184.73C360.11,-174.7 372.17,-158.01 381.27,-145.42"/>
<polygon fill="midnightblue" stroke="midnightblue" points="384.25,-147.28 387.27,-137.13 378.58,-143.18 384.25,-147.28"/>
</g>
<!-- Node17 -->
<g id="node17" class="node">
<title>Node17</title>
<g id="a_node17"><a xlink:title=" ">
<polygon fill="none" stroke="#bfbfbf" points="275.01,-118 275.01,-137 318.01,-137 318.01,-118 275.01,-118"/>
<text text-anchor="middle" x="296.51" y="-125" font-family="Helvetica,sans-Serif" font-size="10.00">queue</text>
</a>
</g>
</g>
<!-- Node16&#45;&gt;Node17 -->
<g id="edge24" class="edge">
<title>Node16&#45;&gt;Node17</title>
<path fill="none" stroke="midnightblue" d="M339.77,-184.73C331.97,-174.6 318.96,-157.69 309.25,-145.06"/>
<polygon fill="midnightblue" stroke="midnightblue" points="312.02,-142.92 303.15,-137.13 306.47,-147.19 312.02,-142.92"/>
</g>
</g>
</svg>
