<?xml version="1.0" encoding="UTF-8" standalone="no"?>
<!DOCTYPE svg PUBLIC "-//W3C//DTD SVG 1.1//EN"
 "http://www.w3.org/Graphics/SVG/1.1/DTD/svg11.dtd">
<!-- Generated by graphviz version 2.49.3 (20211027.1501)
 -->
<!-- Title: NekoEngine/src/ECS/Systems/TextSystem.cpp Pages: 1 -->
<svg width="3284pt" height="564pt"
 viewBox="0.00 0.00 3284.00 564.00" xmlns="http://www.w3.org/2000/svg" xmlns:xlink="http://www.w3.org/1999/xlink">
<g id="graph0" class="graph" transform="scale(1 1) rotate(0) translate(4 560)">
<title>NekoEngine/src/ECS/Systems/TextSystem.cpp</title>
<!-- Node1 -->
<g id="node1" class="node">
<title>Node1</title>
<g id="a_node1"><a xlink:title=" ">
<polygon fill="#bfbfbf" stroke="black" points="2067.5,-525.5 2067.5,-555.5 2198.5,-555.5 2198.5,-525.5 2067.5,-525.5"/>
<text text-anchor="start" x="2075.5" y="-543.5" font-family="Helvetica,sans-Serif" font-size="10.00">NekoEngine/src/ECS</text>
<text text-anchor="middle" x="2133" y="-532.5" font-family="Helvetica,sans-Serif" font-size="10.00">/Systems/TextSystem.cpp</text>
</a>
</g>
</g>
<!-- Node2 -->
<g id="node2" class="node">
<title>Node2</title>
<g id="a_node2"><a xlink:href="_coordinator_8hpp.html" target="_top" xlink:title="Coordinator class.">
<polygon fill="none" stroke="black" points="521,-263 521,-282 683,-282 683,-263 521,-263"/>
<text text-anchor="middle" x="602" y="-270" font-family="Helvetica,sans-Serif" font-size="10.00">NekoEngine/ECS/Coordinator.hpp</text>
</a>
</g>
</g>
<!-- Node1&#45;&gt;Node2 -->
<g id="edge1" class="edge">
<title>Node1&#45;&gt;Node2</title>
<path fill="none" stroke="midnightblue" d="M2067.21,-528.07C1813.73,-484.03 902.43,-325.7 661.03,-283.76"/>
<polygon fill="midnightblue" stroke="midnightblue" points="661.5,-280.28 651.04,-282.02 660.3,-287.18 661.5,-280.28"/>
</g>
<!-- Node21 -->
<g id="node18" class="node">
<title>Node21</title>
<g id="a_node18"><a xlink:href="_text_system_8hpp.html" target="_top" xlink:title=" ">
<polygon fill="none" stroke="black" points="806.5,-391.5 806.5,-421.5 939.5,-421.5 939.5,-391.5 806.5,-391.5"/>
<text text-anchor="start" x="814.5" y="-409.5" font-family="Helvetica,sans-Serif" font-size="10.00">NekoEngine/ECS/Systems</text>
<text text-anchor="middle" x="873" y="-398.5" font-family="Helvetica,sans-Serif" font-size="10.00">/TextSystem.hpp</text>
</a>
</g>
</g>
<!-- Node1&#45;&gt;Node21 -->
<g id="edge28" class="edge">
<title>Node1&#45;&gt;Node21</title>
<path fill="none" stroke="midnightblue" d="M2067.31,-538.85C1869.99,-536.5 1284.63,-526.47 1098,-489 1030.45,-475.44 956,-445.25 911.94,-425.66"/>
<polygon fill="midnightblue" stroke="midnightblue" points="913.3,-422.44 902.74,-421.53 910.43,-428.82 913.3,-422.44"/>
</g>
<!-- Node22 -->
<g id="node19" class="node">
<title>Node22</title>
<g id="a_node19"><a xlink:href="_transform_8hpp.html" target="_top" xlink:title="Transform component.">
<polygon fill="none" stroke="black" points="2727.5,-123.5 2727.5,-153.5 2876.5,-153.5 2876.5,-123.5 2727.5,-123.5"/>
<text text-anchor="start" x="2735.5" y="-141.5" font-family="Helvetica,sans-Serif" font-size="10.00">NekoEngine/ECS/Components</text>
<text text-anchor="middle" x="2802" y="-130.5" font-family="Helvetica,sans-Serif" font-size="10.00">/Transform.hpp</text>
</a>
</g>
</g>
<!-- Node1&#45;&gt;Node22 -->
<g id="edge30" class="edge">
<title>Node1&#45;&gt;Node22</title>
<path fill="none" stroke="midnightblue" d="M2198.56,-538.87C2441.43,-535.67 3276,-516.74 3276,-407.5 3276,-407.5 3276,-407.5 3276,-338.5 3276,-247.79 3216.5,-231.8 3136,-190 3039.19,-139.73 2999.16,-169.73 2886.66,-153.99"/>
<polygon fill="midnightblue" stroke="midnightblue" points="2887.04,-150.51 2876.64,-152.5 2886.01,-157.43 2887.04,-150.51"/>
</g>
<!-- Node27 -->
<g id="node24" class="node">
<title>Node27</title>
<g id="a_node24"><a xlink:href="_window_8hpp.html" target="_top" xlink:title="Contains the NekoEngine Window class wrapper.">
<polygon fill="none" stroke="black" points="2250.5,-458.5 2250.5,-488.5 2361.5,-488.5 2361.5,-458.5 2250.5,-458.5"/>
<text text-anchor="start" x="2258.5" y="-476.5" font-family="Helvetica,sans-Serif" font-size="10.00">NekoEngine/Graphics</text>
<text text-anchor="middle" x="2306" y="-465.5" font-family="Helvetica,sans-Serif" font-size="10.00">/Window.hpp</text>
</a>
</g>
</g>
<!-- Node1&#45;&gt;Node27 -->
<g id="edge35" class="edge">
<title>Node1&#45;&gt;Node27</title>
<path fill="none" stroke="midnightblue" d="M2170.54,-525.4C2196.5,-515.64 2231.22,-502.59 2259.02,-492.15"/>
<polygon fill="midnightblue" stroke="midnightblue" points="2260.4,-495.37 2268.53,-488.58 2257.94,-488.82 2260.4,-495.37"/>
</g>
<!-- Node3 -->
<g id="node3" class="node">
<title>Node3</title>
<g id="a_node3"><a xlink:href="_component_manager_8hpp.html" target="_top" xlink:title="Component Manmager class.">
<polygon fill="none" stroke="black" points="661,-190.5 661,-220.5 805,-220.5 805,-190.5 661,-190.5"/>
<text text-anchor="start" x="669" y="-208.5" font-family="Helvetica,sans-Serif" font-size="10.00">NekoEngine/ECS/Component</text>
<text text-anchor="middle" x="733" y="-197.5" font-family="Helvetica,sans-Serif" font-size="10.00">Manager.hpp</text>
</a>
</g>
</g>
<!-- Node2&#45;&gt;Node3 -->
<g id="edge2" class="edge">
<title>Node2&#45;&gt;Node3</title>
<path fill="none" stroke="midnightblue" d="M619.4,-262.87C638.65,-253.31 670.27,-237.63 695.26,-225.22"/>
<polygon fill="midnightblue" stroke="midnightblue" points="697.08,-228.23 704.48,-220.65 693.97,-221.96 697.08,-228.23"/>
</g>
<!-- Node14 -->
<g id="node11" class="node">
<title>Node14</title>
<g id="a_node11"><a xlink:href="_entity_manager_8hpp.html" target="_top" xlink:title="Entities are fun.">
<polygon fill="none" stroke="black" points="324,-129 324,-148 498,-148 498,-129 324,-129"/>
<text text-anchor="middle" x="411" y="-136" font-family="Helvetica,sans-Serif" font-size="10.00">NekoEngine/ECS/EntityManager.hpp</text>
</a>
</g>
</g>
<!-- Node2&#45;&gt;Node14 -->
<g id="edge13" class="edge">
<title>Node2&#45;&gt;Node14</title>
<path fill="none" stroke="midnightblue" d="M594.09,-262.78C579.31,-246.85 546.01,-212.61 513,-190 490.62,-174.67 462.92,-161.26 442.03,-152.12"/>
<polygon fill="midnightblue" stroke="midnightblue" points="443.24,-148.83 432.67,-148.11 440.48,-155.27 443.24,-148.83"/>
</g>
<!-- Node16 -->
<g id="node13" class="node">
<title>Node16</title>
<g id="a_node13"><a xlink:href="_system_manager_8hpp.html" target="_top" xlink:title=" ">
<polygon fill="none" stroke="black" points="321.5,-196 321.5,-215 504.5,-215 504.5,-196 321.5,-196"/>
<text text-anchor="middle" x="413" y="-203" font-family="Helvetica,sans-Serif" font-size="10.00">NekoEngine/ECS/SystemManager.hpp</text>
</a>
</g>
</g>
<!-- Node2&#45;&gt;Node16 -->
<g id="edge18" class="edge">
<title>Node2&#45;&gt;Node16</title>
<path fill="none" stroke="midnightblue" d="M572.14,-262.87C536.73,-251.52 478.37,-231.52 442.93,-218.65"/>
<polygon fill="midnightblue" stroke="midnightblue" points="443.75,-215.22 433.16,-215.06 441.34,-221.79 443.75,-215.22"/>
</g>
<!-- Node20 -->
<g id="node17" class="node">
<title>Node20</title>
<g id="a_node17"><a xlink:title=" ">
<polygon fill="none" stroke="#bfbfbf" points="561,-196 561,-215 643,-215 643,-196 561,-196"/>
<text text-anchor="middle" x="602" y="-203" font-family="Helvetica,sans-Serif" font-size="10.00">Coordinator.tpp</text>
</a>
</g>
</g>
<!-- Node2&#45;&gt;Node20 -->
<g id="edge27" class="edge">
<title>Node2&#45;&gt;Node20</title>
<path fill="none" stroke="midnightblue" d="M602,-262.73C602,-253.18 602,-237.62 602,-225.28"/>
<polygon fill="midnightblue" stroke="midnightblue" points="605.5,-225.13 602,-215.13 598.5,-225.13 605.5,-225.13"/>
</g>
<!-- Node4 -->
<g id="node4" class="node">
<title>Node4</title>
<g id="a_node4"><a xlink:title=" ">
<polygon fill="none" stroke="#bfbfbf" points="645,-62 645,-81 683,-81 683,-62 645,-62"/>
<text text-anchor="middle" x="664" y="-69" font-family="Helvetica,sans-Serif" font-size="10.00">array</text>
</a>
</g>
</g>
<!-- Node3&#45;&gt;Node4 -->
<g id="edge3" class="edge">
<title>Node3&#45;&gt;Node4</title>
<path fill="none" stroke="midnightblue" d="M740.15,-190.28C747.64,-173.22 756.8,-144.26 745,-123 733.89,-102.98 711.18,-89.86 692.62,-82.02"/>
<polygon fill="midnightblue" stroke="midnightblue" points="693.7,-78.69 683.11,-78.3 691.15,-85.21 693.7,-78.69"/>
</g>
<!-- Node5 -->
<g id="node5" class="node">
<title>Node5</title>
<g id="a_node5"><a xlink:title=" ">
<polygon fill="none" stroke="#bfbfbf" points="746.5,-62 746.5,-81 781.5,-81 781.5,-62 746.5,-62"/>
<text text-anchor="middle" x="764" y="-69" font-family="Helvetica,sans-Serif" font-size="10.00">map</text>
</a>
</g>
</g>
<!-- Node3&#45;&gt;Node5 -->
<g id="edge4" class="edge">
<title>Node3&#45;&gt;Node5</title>
<path fill="none" stroke="midnightblue" d="M773.02,-190.38C789.39,-182.4 806.66,-170.62 816,-154 822.75,-141.99 821.37,-135.69 816,-123 809.91,-108.59 797.47,-96.27 786.29,-87.4"/>
<polygon fill="midnightblue" stroke="midnightblue" points="788.22,-84.48 778.11,-81.32 784.04,-90.09 788.22,-84.48"/>
</g>
<!-- Node6 -->
<g id="node6" class="node">
<title>Node6</title>
<g id="a_node6"><a xlink:title=" ">
<polygon fill="none" stroke="#bfbfbf" points="500.5,-62 500.5,-81 551.5,-81 551.5,-62 500.5,-62"/>
<text text-anchor="middle" x="526" y="-69" font-family="Helvetica,sans-Serif" font-size="10.00">memory</text>
</a>
</g>
</g>
<!-- Node3&#45;&gt;Node6 -->
<g id="edge5" class="edge">
<title>Node3&#45;&gt;Node6</title>
<path fill="none" stroke="midnightblue" d="M661.73,-190.45C635.2,-182.78 605.99,-171.21 583,-154 560.49,-137.15 543.55,-108.76 534.21,-90.33"/>
<polygon fill="midnightblue" stroke="midnightblue" points="537.32,-88.72 529.81,-81.25 531.02,-91.78 537.32,-88.72"/>
</g>
<!-- Node7 -->
<g id="node7" class="node">
<title>Node7</title>
<g id="a_node7"><a xlink:href="_types_8hpp.html" target="_top" xlink:title="NekoEngine types definition.">
<polygon fill="none" stroke="red" points="229.5,-62 229.5,-81 368.5,-81 368.5,-62 229.5,-62"/>
<text text-anchor="middle" x="299" y="-69" font-family="Helvetica,sans-Serif" font-size="10.00">NekoEngine/ECS/Types.hpp</text>
</a>
</g>
</g>
<!-- Node3&#45;&gt;Node7 -->
<g id="edge6" class="edge">
<title>Node3&#45;&gt;Node7</title>
<path fill="none" stroke="midnightblue" d="M660.62,-191.28C657.71,-190.83 654.83,-190.4 652,-190 577.44,-179.36 370.53,-204.88 315,-154 297.84,-138.28 295.96,-109.98 296.91,-91.22"/>
<polygon fill="midnightblue" stroke="midnightblue" points="300.4,-91.45 297.73,-81.2 293.43,-90.88 300.4,-91.45"/>
</g>
<!-- Node10 -->
<g id="node9" class="node">
<title>Node10</title>
<g id="a_node9"><a xlink:href="_component_array_8hpp.html" target="_top" xlink:title="Component Array template class.">
<polygon fill="none" stroke="red" points="592,-123.5 592,-153.5 736,-153.5 736,-123.5 592,-123.5"/>
<text text-anchor="start" x="600" y="-141.5" font-family="Helvetica,sans-Serif" font-size="10.00">NekoEngine/ECS/Component</text>
<text text-anchor="middle" x="664" y="-130.5" font-family="Helvetica,sans-Serif" font-size="10.00">Array.hpp</text>
</a>
</g>
</g>
<!-- Node3&#45;&gt;Node10 -->
<g id="edge8" class="edge">
<title>Node3&#45;&gt;Node10</title>
<path fill="none" stroke="midnightblue" d="M718.03,-190.4C708.81,-181.71 696.81,-170.4 686.46,-160.66"/>
<polygon fill="midnightblue" stroke="midnightblue" points="688.62,-157.89 678.94,-153.58 683.82,-162.98 688.62,-157.89"/>
</g>
<!-- Node13 -->
<g id="node10" class="node">
<title>Node13</title>
<g id="a_node10"><a xlink:title=" ">
<polygon fill="none" stroke="#bfbfbf" points="868.5,-129 868.5,-148 987.5,-148 987.5,-129 868.5,-129"/>
<text text-anchor="middle" x="928" y="-136" font-family="Helvetica,sans-Serif" font-size="10.00">ComponentManager.tpp</text>
</a>
</g>
</g>
<!-- Node3&#45;&gt;Node13 -->
<g id="edge12" class="edge">
<title>Node3&#45;&gt;Node13</title>
<path fill="none" stroke="midnightblue" d="M775.31,-190.4C810.44,-178.69 859.81,-162.23 892.8,-151.23"/>
<polygon fill="midnightblue" stroke="midnightblue" points="894.1,-154.49 902.48,-148.01 891.89,-147.85 894.1,-154.49"/>
</g>
<!-- Node8 -->
<g id="node8" class="node">
<title>Node8</title>
<g id="a_node8"><a xlink:title=" ">
<polygon fill="none" stroke="#bfbfbf" points="1057,-0.5 1057,-19.5 1103,-19.5 1103,-0.5 1057,-0.5"/>
<text text-anchor="middle" x="1080" y="-7.5" font-family="Helvetica,sans-Serif" font-size="10.00">cstdint</text>
</a>
</g>
</g>
<!-- Node7&#45;&gt;Node8 -->
<g id="edge7" class="edge">
<title>Node7&#45;&gt;Node8</title>
<path fill="none" stroke="midnightblue" d="M341.32,-61.99C353.74,-59.75 367.38,-57.53 380,-56 635.45,-25.03 946.1,-14.53 1046.79,-11.8"/>
<polygon fill="midnightblue" stroke="midnightblue" points="1047.05,-15.3 1056.95,-11.54 1046.86,-8.3 1047.05,-15.3"/>
</g>
<!-- Node10&#45;&gt;Node4 -->
<g id="edge9" class="edge">
<title>Node10&#45;&gt;Node4</title>
<path fill="none" stroke="midnightblue" d="M664,-123.4C664,-114.06 664,-101.71 664,-91.52"/>
<polygon fill="midnightblue" stroke="midnightblue" points="667.5,-91.19 664,-81.19 660.5,-91.19 667.5,-91.19"/>
</g>
<!-- Node10&#45;&gt;Node5 -->
<g id="edge10" class="edge">
<title>Node10&#45;&gt;Node5</title>
<path fill="none" stroke="midnightblue" d="M685.7,-123.4C702.47,-112.5 725.57,-97.48 742.33,-86.58"/>
<polygon fill="midnightblue" stroke="midnightblue" points="744.44,-89.39 750.91,-81.01 740.62,-83.52 744.44,-89.39"/>
</g>
<!-- Node10&#45;&gt;Node6 -->
<g id="edge11" class="edge">
<title>Node10&#45;&gt;Node6</title>
<path fill="none" stroke="midnightblue" d="M634.06,-123.4C610.06,-112.09 576.66,-96.36 553.37,-85.39"/>
<polygon fill="midnightblue" stroke="midnightblue" points="554.6,-82.1 544.06,-81.01 551.62,-88.43 554.6,-82.1"/>
</g>
<!-- Node14&#45;&gt;Node4 -->
<g id="edge15" class="edge">
<title>Node14&#45;&gt;Node4</title>
<path fill="none" stroke="midnightblue" d="M444.34,-128.94C494.23,-116.12 587.53,-92.15 634.86,-79.99"/>
<polygon fill="midnightblue" stroke="midnightblue" points="635.96,-83.32 644.77,-77.44 634.21,-76.54 635.96,-83.32"/>
</g>
<!-- Node14&#45;&gt;Node6 -->
<g id="edge16" class="edge">
<title>Node14&#45;&gt;Node6</title>
<path fill="none" stroke="midnightblue" d="M426.51,-128.73C445.91,-117.77 479.33,-98.88 502.03,-86.05"/>
<polygon fill="midnightblue" stroke="midnightblue" points="503.75,-89.09 510.74,-81.13 500.31,-83 503.75,-89.09"/>
</g>
<!-- Node14&#45;&gt;Node7 -->
<g id="edge17" class="edge">
<title>Node14&#45;&gt;Node7</title>
<path fill="none" stroke="midnightblue" d="M395.9,-128.73C377.09,-117.82 344.75,-99.05 322.64,-86.22"/>
<polygon fill="midnightblue" stroke="midnightblue" points="324.27,-83.12 313.87,-81.13 320.76,-89.17 324.27,-83.12"/>
</g>
<!-- Node15 -->
<g id="node12" class="node">
<title>Node15</title>
<g id="a_node12"><a xlink:title=" ">
<polygon fill="none" stroke="#bfbfbf" points="389.5,-62 389.5,-81 432.5,-81 432.5,-62 389.5,-62"/>
<text text-anchor="middle" x="411" y="-69" font-family="Helvetica,sans-Serif" font-size="10.00">queue</text>
</a>
</g>
</g>
<!-- Node14&#45;&gt;Node15 -->
<g id="edge14" class="edge">
<title>Node14&#45;&gt;Node15</title>
<path fill="none" stroke="midnightblue" d="M411,-128.73C411,-119.18 411,-103.62 411,-91.28"/>
<polygon fill="midnightblue" stroke="midnightblue" points="414.5,-91.13 411,-81.13 407.5,-91.13 414.5,-91.13"/>
</g>
<!-- Node16&#45;&gt;Node2 -->
<g id="edge25" class="edge">
<title>Node16&#45;&gt;Node2</title>
<path fill="none" stroke="midnightblue" d="M442.65,-215.06C477.97,-226.38 536.33,-246.37 571.85,-259.27"/>
<polygon fill="midnightblue" stroke="midnightblue" points="571.07,-262.71 581.66,-262.87 573.48,-256.14 571.07,-262.71"/>
</g>
<!-- Node16&#45;&gt;Node5 -->
<g id="edge20" class="edge">
<title>Node16&#45;&gt;Node5</title>
<path fill="none" stroke="midnightblue" d="M482.04,-196C576.48,-184.08 735.41,-162.87 745,-154 762.14,-138.15 765.25,-110.1 765.19,-91.4"/>
<polygon fill="midnightblue" stroke="midnightblue" points="768.68,-91.03 764.84,-81.16 761.68,-91.27 768.68,-91.03"/>
</g>
<!-- Node16&#45;&gt;Node6 -->
<g id="edge19" class="edge">
<title>Node16&#45;&gt;Node6</title>
<path fill="none" stroke="midnightblue" d="M442.36,-195.96C463.45,-188.33 490.9,-175.03 507,-154 520.98,-135.74 524.93,-108.92 525.92,-91.09"/>
<polygon fill="midnightblue" stroke="midnightblue" points="529.42,-91.18 526.21,-81.08 522.42,-90.97 529.42,-91.18"/>
</g>
<!-- Node17 -->
<g id="node14" class="node">
<title>Node17</title>
<g id="a_node14"><a xlink:href="_system_8hpp.html" target="_top" xlink:title="ECS System.">
<polygon fill="none" stroke="black" points="0,-129 0,-148 146,-148 146,-129 0,-129"/>
<text text-anchor="middle" x="73" y="-136" font-family="Helvetica,sans-Serif" font-size="10.00">NekoEngine/ECS/System.hpp</text>
</a>
</g>
</g>
<!-- Node16&#45;&gt;Node17 -->
<g id="edge21" class="edge">
<title>Node16&#45;&gt;Node17</title>
<path fill="none" stroke="midnightblue" d="M368.2,-195.94C306.2,-184.08 194.33,-162.7 127.54,-149.93"/>
<polygon fill="midnightblue" stroke="midnightblue" points="128.11,-146.47 117.63,-148.03 126.79,-153.35 128.11,-146.47"/>
</g>
<!-- Node19 -->
<g id="node16" class="node">
<title>Node19</title>
<g id="a_node16"><a xlink:title=" ">
<polygon fill="none" stroke="#bfbfbf" points="164.5,-129 164.5,-148 267.5,-148 267.5,-129 164.5,-129"/>
<text text-anchor="middle" x="216" y="-136" font-family="Helvetica,sans-Serif" font-size="10.00">SystemManager.tpp</text>
</a>
</g>
</g>
<!-- Node16&#45;&gt;Node19 -->
<g id="edge26" class="edge">
<title>Node16&#45;&gt;Node19</title>
<path fill="none" stroke="midnightblue" d="M386.84,-195.87C352.16,-184.42 290.8,-164.18 251.83,-151.32"/>
<polygon fill="midnightblue" stroke="midnightblue" points="252.55,-147.87 241.95,-148.06 250.35,-154.52 252.55,-147.87"/>
</g>
<!-- Node17&#45;&gt;Node6 -->
<g id="edge23" class="edge">
<title>Node17&#45;&gt;Node6</title>
<path fill="none" stroke="midnightblue" d="M118.91,-128.97C130.65,-126.9 143.28,-124.77 155,-123 281.67,-103.84 314.27,-105.78 441,-87 457.24,-84.59 475.17,-81.59 490.36,-78.94"/>
<polygon fill="midnightblue" stroke="midnightblue" points="491.14,-82.35 500.38,-77.17 489.93,-75.46 491.14,-82.35"/>
</g>
<!-- Node17&#45;&gt;Node7 -->
<g id="edge24" class="edge">
<title>Node17&#45;&gt;Node7</title>
<path fill="none" stroke="midnightblue" d="M103.01,-128.87C143.31,-117.28 214.99,-96.66 259.59,-83.83"/>
<polygon fill="midnightblue" stroke="midnightblue" points="260.58,-87.19 269.22,-81.06 258.65,-80.46 260.58,-87.19"/>
</g>
<!-- Node18 -->
<g id="node15" class="node">
<title>Node18</title>
<g id="a_node15"><a xlink:title=" ">
<polygon fill="none" stroke="#bfbfbf" points="58,-62 58,-81 88,-81 88,-62 58,-62"/>
<text text-anchor="middle" x="73" y="-69" font-family="Helvetica,sans-Serif" font-size="10.00">set</text>
</a>
</g>
</g>
<!-- Node17&#45;&gt;Node18 -->
<g id="edge22" class="edge">
<title>Node17&#45;&gt;Node18</title>
<path fill="none" stroke="midnightblue" d="M73,-128.73C73,-119.18 73,-103.62 73,-91.28"/>
<polygon fill="midnightblue" stroke="midnightblue" points="76.5,-91.13 73,-81.13 69.5,-91.13 76.5,-91.13"/>
</g>
<!-- Node21&#45;&gt;Node17 -->
<g id="edge29" class="edge">
<title>Node21&#45;&gt;Node17</title>
<path fill="none" stroke="midnightblue" d="M829.34,-391.42C761.42,-369.49 626.38,-325.77 512,-288 422.98,-258.6 400.81,-251.02 312,-221 239.26,-196.41 154.18,-167.32 107.69,-151.4"/>
<polygon fill="midnightblue" stroke="midnightblue" points="108.7,-148.04 98.1,-148.11 106.43,-154.66 108.7,-148.04"/>
</g>
<!-- Node23 -->
<g id="node20" class="node">
<title>Node23</title>
<g id="a_node20"><a xlink:href="_vector_8hpp.html" target="_top" xlink:title="Contains all headers for all Vector types.">
<polygon fill="none" stroke="black" points="2989.5,-56.5 2989.5,-86.5 3114.5,-86.5 3114.5,-56.5 2989.5,-56.5"/>
<text text-anchor="start" x="2997.5" y="-74.5" font-family="Helvetica,sans-Serif" font-size="10.00">NekoEngine/Math/Vector</text>
<text text-anchor="middle" x="3052" y="-63.5" font-family="Helvetica,sans-Serif" font-size="10.00">/Vector.hpp</text>
</a>
</g>
</g>
<!-- Node22&#45;&gt;Node23 -->
<g id="edge31" class="edge">
<title>Node22&#45;&gt;Node23</title>
<path fill="none" stroke="midnightblue" d="M2855.94,-123.48C2894.66,-113.41 2947,-99.8 2987.87,-89.17"/>
<polygon fill="midnightblue" stroke="midnightblue" points="2988.93,-92.51 2997.73,-86.61 2987.17,-85.74 2988.93,-92.51"/>
</g>
<!-- Node24 -->
<g id="node21" class="node">
<title>Node24</title>
<g id="a_node21"><a xlink:href="_vector2_8hpp.html" target="_top" xlink:title="Contains Vector2 template class.">
<polygon fill="none" stroke="black" points="3104,-0.5 3104,-19.5 3172,-19.5 3172,-0.5 3104,-0.5"/>
<text text-anchor="middle" x="3138" y="-7.5" font-family="Helvetica,sans-Serif" font-size="10.00">Vector2.hpp</text>
</a>
</g>
</g>
<!-- Node23&#45;&gt;Node24 -->
<g id="edge32" class="edge">
<title>Node23&#45;&gt;Node24</title>
<path fill="none" stroke="midnightblue" d="M3072.38,-56.4C3085.91,-47.04 3103.61,-34.79 3117.22,-25.38"/>
<polygon fill="midnightblue" stroke="midnightblue" points="3119.25,-28.23 3125.49,-19.66 3115.27,-22.47 3119.25,-28.23"/>
</g>
<!-- Node25 -->
<g id="node22" class="node">
<title>Node25</title>
<g id="a_node22"><a xlink:href="_vector3_8hpp.html" target="_top" xlink:title="Contains Vector3 template class.">
<polygon fill="none" stroke="black" points="2932,-0.5 2932,-19.5 3000,-19.5 3000,-0.5 2932,-0.5"/>
<text text-anchor="middle" x="2966" y="-7.5" font-family="Helvetica,sans-Serif" font-size="10.00">Vector3.hpp</text>
</a>
</g>
</g>
<!-- Node23&#45;&gt;Node25 -->
<g id="edge33" class="edge">
<title>Node23&#45;&gt;Node25</title>
<path fill="none" stroke="midnightblue" d="M3031.62,-56.4C3018.09,-47.04 3000.39,-34.79 2986.78,-25.38"/>
<polygon fill="midnightblue" stroke="midnightblue" points="2988.73,-22.47 2978.51,-19.66 2984.75,-28.23 2988.73,-22.47"/>
</g>
<!-- Node26 -->
<g id="node23" class="node">
<title>Node26</title>
<g id="a_node23"><a xlink:href="_vector4_8hpp.html" target="_top" xlink:title="Contains Vector4 template class.">
<polygon fill="none" stroke="black" points="3018,-0.5 3018,-19.5 3086,-19.5 3086,-0.5 3018,-0.5"/>
<text text-anchor="middle" x="3052" y="-7.5" font-family="Helvetica,sans-Serif" font-size="10.00">Vector4.hpp</text>
</a>
</g>
</g>
<!-- Node23&#45;&gt;Node26 -->
<g id="edge34" class="edge">
<title>Node23&#45;&gt;Node26</title>
<path fill="none" stroke="midnightblue" d="M3052,-56.4C3052,-48.47 3052,-38.46 3052,-29.86"/>
<polygon fill="midnightblue" stroke="midnightblue" points="3055.5,-29.66 3052,-19.66 3048.5,-29.66 3055.5,-29.66"/>
</g>
<!-- Node27&#45;&gt;Node23 -->
<g id="edge61" class="edge">
<title>Node27&#45;&gt;Node23</title>
<path fill="none" stroke="midnightblue" d="M2361.56,-472.07C2512.99,-468 2938.43,-436.86 3190,-221 3226.52,-189.67 3265.17,-161.26 3236,-123 3222.15,-104.84 3169.84,-91.59 3124.52,-83.23"/>
<polygon fill="midnightblue" stroke="midnightblue" points="3125.14,-79.79 3114.68,-81.47 3123.9,-86.68 3125.14,-79.79"/>
</g>
<!-- Node28 -->
<g id="node25" class="node">
<title>Node28</title>
<g id="a_node25"><a xlink:href="_components_8hpp.html" target="_top" xlink:title="Components.">
<polygon fill="none" stroke="black" points="1984.5,-257.5 1984.5,-287.5 2133.5,-287.5 2133.5,-257.5 1984.5,-257.5"/>
<text text-anchor="start" x="1992.5" y="-275.5" font-family="Helvetica,sans-Serif" font-size="10.00">NekoEngine/ECS/Components</text>
<text text-anchor="middle" x="2059" y="-264.5" font-family="Helvetica,sans-Serif" font-size="10.00">/Components.hpp</text>
</a>
</g>
</g>
<!-- Node27&#45;&gt;Node28 -->
<g id="edge36" class="edge">
<title>Node27&#45;&gt;Node28</title>
<path fill="none" stroke="midnightblue" d="M2250.11,-467.39C2134.54,-455.56 1875.66,-422.01 1823,-355 1778.8,-298.75 1889.68,-281.16 1974.05,-275.75"/>
<polygon fill="midnightblue" stroke="midnightblue" points="1974.42,-279.24 1984.2,-275.15 1974.01,-272.25 1974.42,-279.24"/>
</g>
<!-- Node49 -->
<g id="node43" class="node">
<title>Node49</title>
<g id="a_node43"><a xlink:href="_custom_client_8hpp.html" target="_top" xlink:title=" ">
<polygon fill="none" stroke="black" points="2242.5,-397 2242.5,-416 2369.5,-416 2369.5,-397 2242.5,-397"/>
<text text-anchor="middle" x="2306" y="-404" font-family="Helvetica,sans-Serif" font-size="10.00">include/CustomClient.hpp</text>
</a>
</g>
</g>
<!-- Node27&#45;&gt;Node49 -->
<g id="edge62" class="edge">
<title>Node27&#45;&gt;Node49</title>
<path fill="none" stroke="midnightblue" d="M2306,-458.4C2306,-449.06 2306,-436.71 2306,-426.52"/>
<polygon fill="midnightblue" stroke="midnightblue" points="2309.5,-426.19 2306,-416.19 2302.5,-426.19 2309.5,-426.19"/>
</g>
<!-- Node28&#45;&gt;Node22 -->
<g id="edge37" class="edge">
<title>Node28&#45;&gt;Node22</title>
<path fill="none" stroke="midnightblue" d="M2133.69,-269.73C2333.71,-264.63 2868.13,-248.48 2894,-221 2915.92,-197.71 2880.63,-173.75 2847.6,-157.89"/>
<polygon fill="midnightblue" stroke="midnightblue" points="2848.95,-154.65 2838.4,-153.64 2846.01,-161.01 2848.95,-154.65"/>
</g>
<!-- Node29 -->
<g id="node26" class="node">
<title>Node29</title>
<g id="a_node26"><a xlink:href="_timer_8hpp.html" target="_top" xlink:title="Timer component.">
<polygon fill="none" stroke="red" points="2977.5,-190.5 2977.5,-220.5 3126.5,-220.5 3126.5,-190.5 2977.5,-190.5"/>
<text text-anchor="start" x="2985.5" y="-208.5" font-family="Helvetica,sans-Serif" font-size="10.00">NekoEngine/ECS/Components</text>
<text text-anchor="middle" x="3052" y="-197.5" font-family="Helvetica,sans-Serif" font-size="10.00">/Timer.hpp</text>
</a>
</g>
</g>
<!-- Node28&#45;&gt;Node29 -->
<g id="edge38" class="edge">
<title>Node28&#45;&gt;Node29</title>
<path fill="none" stroke="midnightblue" d="M2133.72,-270.05C2288.86,-266.43 2657.03,-254.76 2964,-221 2965.08,-220.88 2966.16,-220.76 2967.25,-220.63"/>
<polygon fill="midnightblue" stroke="midnightblue" points="2967.69,-224.1 2977.18,-219.39 2966.83,-217.16 2967.69,-224.1"/>
</g>
<!-- Node31 -->
<g id="node27" class="node">
<title>Node31</title>
<g id="a_node27"><a xlink:href="_renderable_8hpp.html" target="_top" xlink:title="Renderable component.">
<polygon fill="none" stroke="black" points="898.5,-190.5 898.5,-220.5 1047.5,-220.5 1047.5,-190.5 898.5,-190.5"/>
<text text-anchor="start" x="906.5" y="-208.5" font-family="Helvetica,sans-Serif" font-size="10.00">NekoEngine/ECS/Components</text>
<text text-anchor="middle" x="973" y="-197.5" font-family="Helvetica,sans-Serif" font-size="10.00">/Renderable.hpp</text>
</a>
</g>
</g>
<!-- Node28&#45;&gt;Node31 -->
<g id="edge39" class="edge">
<title>Node28&#45;&gt;Node31</title>
<path fill="none" stroke="midnightblue" d="M1984.28,-270.81C1819.03,-268.61 1410.03,-259.52 1057.73,-220.98"/>
<polygon fill="midnightblue" stroke="midnightblue" points="1057.91,-217.47 1047.59,-219.86 1057.14,-224.43 1057.91,-217.47"/>
</g>
<!-- Node32 -->
<g id="node28" class="node">
<title>Node32</title>
<g id="a_node28"><a xlink:href="_color_8hpp.html" target="_top" xlink:title="Color component.">
<polygon fill="none" stroke="black" points="1172.5,-123.5 1172.5,-153.5 1321.5,-153.5 1321.5,-123.5 1172.5,-123.5"/>
<text text-anchor="start" x="1180.5" y="-141.5" font-family="Helvetica,sans-Serif" font-size="10.00">NekoEngine/ECS/Components</text>
<text text-anchor="middle" x="1247" y="-130.5" font-family="Helvetica,sans-Serif" font-size="10.00">/Color.hpp</text>
</a>
</g>
</g>
<!-- Node28&#45;&gt;Node32 -->
<g id="edge40" class="edge">
<title>Node28&#45;&gt;Node32</title>
<path fill="none" stroke="midnightblue" d="M1984.2,-271.08C1732.22,-269.31 927.89,-260.57 890,-221 880.47,-211.05 880.91,-200.36 890,-190 928.6,-146 1087.39,-161.61 1161.99,-153.99"/>
<polygon fill="midnightblue" stroke="midnightblue" points="1162.88,-157.41 1172.37,-152.69 1162.01,-150.46 1162.88,-157.41"/>
</g>
<!-- Node33 -->
<g id="node29" class="node">
<title>Node33</title>
<g id="a_node29"><a xlink:href="_rigid_body_8hpp.html" target="_top" xlink:title="RigidBody component.">
<polygon fill="none" stroke="black" points="2894.5,-123.5 2894.5,-153.5 3043.5,-153.5 3043.5,-123.5 2894.5,-123.5"/>
<text text-anchor="start" x="2902.5" y="-141.5" font-family="Helvetica,sans-Serif" font-size="10.00">NekoEngine/ECS/Components</text>
<text text-anchor="middle" x="2969" y="-130.5" font-family="Helvetica,sans-Serif" font-size="10.00">/RigidBody.hpp</text>
</a>
</g>
</g>
<!-- Node28&#45;&gt;Node33 -->
<g id="edge42" class="edge">
<title>Node28&#45;&gt;Node33</title>
<path fill="none" stroke="midnightblue" d="M2133.67,-270.74C2328.88,-268.23 2843.96,-258.13 2911,-221 2933.9,-208.32 2949.94,-182.32 2959.26,-163.08"/>
<polygon fill="midnightblue" stroke="midnightblue" points="2962.55,-164.29 2963.52,-153.74 2956.19,-161.38 2962.55,-164.29"/>
</g>
<!-- Node34 -->
<g id="node30" class="node">
<title>Node34</title>
<g id="a_node30"><a xlink:href="_gravity_8hpp.html" target="_top" xlink:title="Gravity component.">
<polygon fill="none" stroke="black" points="3061.5,-123.5 3061.5,-153.5 3210.5,-153.5 3210.5,-123.5 3061.5,-123.5"/>
<text text-anchor="start" x="3069.5" y="-141.5" font-family="Helvetica,sans-Serif" font-size="10.00">NekoEngine/ECS/Components</text>
<text text-anchor="middle" x="3136" y="-130.5" font-family="Helvetica,sans-Serif" font-size="10.00">/Gravity.hpp</text>
</a>
</g>
</g>
<!-- Node28&#45;&gt;Node34 -->
<g id="edge44" class="edge">
<title>Node28&#45;&gt;Node34</title>
<path fill="none" stroke="midnightblue" d="M2133.66,-270.79C2372.06,-268.18 3101.43,-257.23 3136,-221 3150.21,-206.11 3148.27,-181.83 3143.95,-163.64"/>
<polygon fill="midnightblue" stroke="midnightblue" points="3147.25,-162.46 3141.23,-153.75 3140.5,-164.32 3147.25,-162.46"/>
</g>
<!-- Node35 -->
<g id="node31" class="node">
<title>Node35</title>
<g id="a_node31"><a xlink:href="_skin_8hpp.html" target="_top" xlink:title="Skin component.">
<polygon fill="none" stroke="red" points="1065.5,-190.5 1065.5,-220.5 1214.5,-220.5 1214.5,-190.5 1065.5,-190.5"/>
<text text-anchor="start" x="1073.5" y="-208.5" font-family="Helvetica,sans-Serif" font-size="10.00">NekoEngine/ECS/Components</text>
<text text-anchor="middle" x="1140" y="-197.5" font-family="Helvetica,sans-Serif" font-size="10.00">/Skin.hpp</text>
</a>
</g>
</g>
<!-- Node28&#45;&gt;Node35 -->
<g id="edge46" class="edge">
<title>Node28&#45;&gt;Node35</title>
<path fill="none" stroke="midnightblue" d="M1984.47,-269.75C1839.93,-265.77 1511.32,-253.76 1224.77,-220.99"/>
<polygon fill="midnightblue" stroke="midnightblue" points="1224.93,-217.49 1214.59,-219.82 1224.13,-224.44 1224.93,-217.49"/>
</g>
<!-- Node37 -->
<g id="node32" class="node">
<title>Node37</title>
<g id="a_node32"><a xlink:href="_networkable_8hpp.html" target="_top" xlink:title="Networkable component.">
<polygon fill="none" stroke="black" points="1232.5,-190.5 1232.5,-220.5 1381.5,-220.5 1381.5,-190.5 1232.5,-190.5"/>
<text text-anchor="start" x="1240.5" y="-208.5" font-family="Helvetica,sans-Serif" font-size="10.00">NekoEngine/ECS/Components</text>
<text text-anchor="middle" x="1307" y="-197.5" font-family="Helvetica,sans-Serif" font-size="10.00">/Networkable.hpp</text>
</a>
</g>
</g>
<!-- Node28&#45;&gt;Node37 -->
<g id="edge47" class="edge">
<title>Node28&#45;&gt;Node37</title>
<path fill="none" stroke="midnightblue" d="M1984.38,-268.19C1862.57,-262.27 1613.23,-248.01 1391.79,-221.01"/>
<polygon fill="midnightblue" stroke="midnightblue" points="1391.95,-217.51 1381.6,-219.76 1391.1,-224.45 1391.95,-217.51"/>
</g>
<!-- Node38 -->
<g id="node33" class="node">
<title>Node38</title>
<g id="a_node33"><a xlink:href="_uid_8hpp.html" target="_top" xlink:title="Uid component.">
<polygon fill="none" stroke="black" points="1005.5,-123.5 1005.5,-153.5 1154.5,-153.5 1154.5,-123.5 1005.5,-123.5"/>
<text text-anchor="start" x="1013.5" y="-141.5" font-family="Helvetica,sans-Serif" font-size="10.00">NekoEngine/ECS/Components</text>
<text text-anchor="middle" x="1080" y="-130.5" font-family="Helvetica,sans-Serif" font-size="10.00">/Uid.hpp</text>
</a>
</g>
</g>
<!-- Node28&#45;&gt;Node38 -->
<g id="edge48" class="edge">
<title>Node28&#45;&gt;Node38</title>
<path fill="none" stroke="midnightblue" d="M1984.38,-271.11C1731.03,-269.44 917.3,-260.98 879,-221 869.47,-211.05 870.53,-200.86 879,-190 886.63,-180.22 944.33,-166.33 995.97,-155.59"/>
<polygon fill="midnightblue" stroke="midnightblue" points="996.77,-159 1005.86,-153.55 995.36,-152.14 996.77,-159"/>
</g>
<!-- Node39 -->
<g id="node34" class="node">
<title>Node39</title>
<g id="a_node34"><a xlink:href="_hostile_8hpp.html" target="_top" xlink:title=" ">
<polygon fill="none" stroke="black" points="1399.5,-190.5 1399.5,-220.5 1548.5,-220.5 1548.5,-190.5 1399.5,-190.5"/>
<text text-anchor="start" x="1407.5" y="-208.5" font-family="Helvetica,sans-Serif" font-size="10.00">NekoEngine/ECS/Components</text>
<text text-anchor="middle" x="1474" y="-197.5" font-family="Helvetica,sans-Serif" font-size="10.00">/Hostile.hpp</text>
</a>
</g>
</g>
<!-- Node28&#45;&gt;Node39 -->
<g id="edge50" class="edge">
<title>Node28&#45;&gt;Node39</title>
<path fill="none" stroke="midnightblue" d="M1984.11,-265.61C1888.11,-257.69 1716.29,-242.26 1558.95,-221.06"/>
<polygon fill="midnightblue" stroke="midnightblue" points="1558.99,-217.54 1548.61,-219.66 1558.05,-224.47 1558.99,-217.54"/>
</g>
<!-- Node40 -->
<g id="node35" class="node">
<title>Node40</title>
<g id="a_node35"><a xlink:href="_but_8hpp.html" target="_top" xlink:title=" ">
<polygon fill="none" stroke="black" points="1566.5,-190.5 1566.5,-220.5 1715.5,-220.5 1715.5,-190.5 1566.5,-190.5"/>
<text text-anchor="start" x="1574.5" y="-208.5" font-family="Helvetica,sans-Serif" font-size="10.00">NekoEngine/ECS/Components</text>
<text text-anchor="middle" x="1641" y="-197.5" font-family="Helvetica,sans-Serif" font-size="10.00">/But.hpp</text>
</a>
</g>
</g>
<!-- Node28&#45;&gt;Node40 -->
<g id="edge51" class="edge">
<title>Node28&#45;&gt;Node40</title>
<path fill="none" stroke="midnightblue" d="M1984.31,-260.66C1918.89,-251.07 1820.98,-236.45 1725.74,-221.1"/>
<polygon fill="midnightblue" stroke="midnightblue" points="1726.07,-217.61 1715.64,-219.47 1724.95,-224.52 1726.07,-217.61"/>
</g>
<!-- Node41 -->
<g id="node36" class="node">
<title>Node41</title>
<g id="a_node36"><a xlink:href="_textinfo_8hpp.html" target="_top" xlink:title=" ">
<polygon fill="none" stroke="red" points="1733.5,-190.5 1733.5,-220.5 1882.5,-220.5 1882.5,-190.5 1733.5,-190.5"/>
<text text-anchor="start" x="1741.5" y="-208.5" font-family="Helvetica,sans-Serif" font-size="10.00">NekoEngine/ECS/Components</text>
<text text-anchor="middle" x="1808" y="-197.5" font-family="Helvetica,sans-Serif" font-size="10.00">/Textinfo.hpp</text>
</a>
</g>
</g>
<!-- Node28&#45;&gt;Node41 -->
<g id="edge52" class="edge">
<title>Node28&#45;&gt;Node41</title>
<path fill="none" stroke="midnightblue" d="M2004.85,-257.48C1965.97,-247.41 1913.42,-233.8 1872.39,-223.17"/>
<polygon fill="midnightblue" stroke="midnightblue" points="1873.05,-219.73 1862.49,-220.61 1871.29,-226.51 1873.05,-219.73"/>
</g>
<!-- Node42 -->
<g id="node37" class="node">
<title>Node42</title>
<g id="a_node37"><a xlink:href="_patterns_8hpp.html" target="_top" xlink:title="Patterns component.">
<polygon fill="none" stroke="red" points="2735.5,-190.5 2735.5,-220.5 2884.5,-220.5 2884.5,-190.5 2735.5,-190.5"/>
<text text-anchor="start" x="2743.5" y="-208.5" font-family="Helvetica,sans-Serif" font-size="10.00">NekoEngine/ECS/Components</text>
<text text-anchor="middle" x="2810" y="-197.5" font-family="Helvetica,sans-Serif" font-size="10.00">/Patterns.hpp</text>
</a>
</g>
</g>
<!-- Node28&#45;&gt;Node42 -->
<g id="edge53" class="edge">
<title>Node28&#45;&gt;Node42</title>
<path fill="none" stroke="midnightblue" d="M2133.62,-268.24C2255.45,-262.38 2504.79,-248.22 2725.25,-221.14"/>
<polygon fill="midnightblue" stroke="midnightblue" points="2725.9,-224.59 2735.39,-219.89 2725.04,-217.64 2725.9,-224.59"/>
</g>
<!-- Node44 -->
<g id="node38" class="node">
<title>Node44</title>
<g id="a_node38"><a xlink:href="_alien_8hpp.html" target="_top" xlink:title="Alien component.">
<polygon fill="none" stroke="black" points="1900.5,-190.5 1900.5,-220.5 2049.5,-220.5 2049.5,-190.5 1900.5,-190.5"/>
<text text-anchor="start" x="1908.5" y="-208.5" font-family="Helvetica,sans-Serif" font-size="10.00">NekoEngine/ECS/Components</text>
<text text-anchor="middle" x="1975" y="-197.5" font-family="Helvetica,sans-Serif" font-size="10.00">/Alien.hpp</text>
</a>
</g>
</g>
<!-- Node28&#45;&gt;Node44 -->
<g id="edge56" class="edge">
<title>Node28&#45;&gt;Node44</title>
<path fill="none" stroke="midnightblue" d="M2040.77,-257.4C2029.22,-248.45 2014.08,-236.74 2001.24,-226.8"/>
<polygon fill="midnightblue" stroke="midnightblue" points="2003.24,-223.93 1993.19,-220.58 1998.96,-229.46 2003.24,-223.93"/>
</g>
<!-- Node45 -->
<g id="node39" class="node">
<title>Node45</title>
<g id="a_node39"><a xlink:href="_entity_type_8hpp.html" target="_top" xlink:title=" ">
<polygon fill="none" stroke="black" points="2067.5,-190.5 2067.5,-220.5 2216.5,-220.5 2216.5,-190.5 2067.5,-190.5"/>
<text text-anchor="start" x="2075.5" y="-208.5" font-family="Helvetica,sans-Serif" font-size="10.00">NekoEngine/ECS/Components</text>
<text text-anchor="middle" x="2142" y="-197.5" font-family="Helvetica,sans-Serif" font-size="10.00">/EntityType.hpp</text>
</a>
</g>
</g>
<!-- Node28&#45;&gt;Node45 -->
<g id="edge57" class="edge">
<title>Node28&#45;&gt;Node45</title>
<path fill="none" stroke="midnightblue" d="M2077.01,-257.4C2088.43,-248.45 2103.39,-236.74 2116.08,-226.8"/>
<polygon fill="midnightblue" stroke="midnightblue" points="2118.31,-229.5 2124.03,-220.58 2113.99,-223.99 2118.31,-229.5"/>
</g>
<!-- Node46 -->
<g id="node40" class="node">
<title>Node46</title>
<g id="a_node40"><a xlink:href="_gorb_background_8hpp.html" target="_top" xlink:title=" ">
<polygon fill="none" stroke="black" points="2234.5,-190.5 2234.5,-220.5 2383.5,-220.5 2383.5,-190.5 2234.5,-190.5"/>
<text text-anchor="start" x="2242.5" y="-208.5" font-family="Helvetica,sans-Serif" font-size="10.00">NekoEngine/ECS/Components</text>
<text text-anchor="middle" x="2309" y="-197.5" font-family="Helvetica,sans-Serif" font-size="10.00">/GorbBackground.hpp</text>
</a>
</g>
</g>
<!-- Node28&#45;&gt;Node46 -->
<g id="edge58" class="edge">
<title>Node28&#45;&gt;Node46</title>
<path fill="none" stroke="midnightblue" d="M2112.94,-257.48C2151.66,-247.41 2204,-233.8 2244.87,-223.17"/>
<polygon fill="midnightblue" stroke="midnightblue" points="2245.93,-226.51 2254.73,-220.61 2244.17,-219.74 2245.93,-226.51"/>
</g>
<!-- Node47 -->
<g id="node41" class="node">
<title>Node47</title>
<g id="a_node41"><a xlink:href="_animation_8hpp.html" target="_top" xlink:title=" ">
<polygon fill="none" stroke="black" points="2401.5,-190.5 2401.5,-220.5 2550.5,-220.5 2550.5,-190.5 2401.5,-190.5"/>
<text text-anchor="start" x="2409.5" y="-208.5" font-family="Helvetica,sans-Serif" font-size="10.00">NekoEngine/ECS/Components</text>
<text text-anchor="middle" x="2476" y="-197.5" font-family="Helvetica,sans-Serif" font-size="10.00">/Animation.hpp</text>
</a>
</g>
</g>
<!-- Node28&#45;&gt;Node47 -->
<g id="edge59" class="edge">
<title>Node28&#45;&gt;Node47</title>
<path fill="none" stroke="midnightblue" d="M2133.69,-260.71C2199.12,-251.14 2297.04,-236.54 2391.36,-221.25"/>
<polygon fill="midnightblue" stroke="midnightblue" points="2392.05,-224.68 2401.36,-219.62 2390.92,-217.77 2392.05,-224.68"/>
</g>
<!-- Node48 -->
<g id="node42" class="node">
<title>Node48</title>
<g id="a_node42"><a xlink:href="_player_shoot_8hpp.html" target="_top" xlink:title=" ">
<polygon fill="none" stroke="black" points="2568.5,-190.5 2568.5,-220.5 2717.5,-220.5 2717.5,-190.5 2568.5,-190.5"/>
<text text-anchor="start" x="2576.5" y="-208.5" font-family="Helvetica,sans-Serif" font-size="10.00">NekoEngine/ECS/Components</text>
<text text-anchor="middle" x="2643" y="-197.5" font-family="Helvetica,sans-Serif" font-size="10.00">/PlayerShoot.hpp</text>
</a>
</g>
</g>
<!-- Node28&#45;&gt;Node48 -->
<g id="edge60" class="edge">
<title>Node28&#45;&gt;Node48</title>
<path fill="none" stroke="midnightblue" d="M2133.9,-265.66C2229.91,-257.78 2401.73,-242.41 2558.11,-221.2"/>
<polygon fill="midnightblue" stroke="midnightblue" points="2558.95,-224.62 2568.38,-219.8 2558,-217.69 2558.95,-224.62"/>
</g>
<!-- Node32&#45;&gt;Node8 -->
<g id="edge41" class="edge">
<title>Node32&#45;&gt;Node8</title>
<path fill="none" stroke="midnightblue" d="M1228.49,-123.48C1196.82,-99.49 1132.5,-50.77 1099.9,-26.08"/>
<polygon fill="midnightblue" stroke="midnightblue" points="1101.69,-23.04 1091.6,-19.79 1097.46,-28.62 1101.69,-23.04"/>
</g>
<!-- Node33&#45;&gt;Node23 -->
<g id="edge43" class="edge">
<title>Node33&#45;&gt;Node23</title>
<path fill="none" stroke="midnightblue" d="M2987.01,-123.4C2998.43,-114.45 3013.39,-102.74 3026.08,-92.8"/>
<polygon fill="midnightblue" stroke="midnightblue" points="3028.31,-95.5 3034.03,-86.58 3023.99,-89.99 3028.31,-95.5"/>
</g>
<!-- Node34&#45;&gt;Node23 -->
<g id="edge45" class="edge">
<title>Node34&#45;&gt;Node23</title>
<path fill="none" stroke="midnightblue" d="M3117.77,-123.4C3106.22,-114.45 3091.08,-102.74 3078.24,-92.8"/>
<polygon fill="midnightblue" stroke="midnightblue" points="3080.24,-89.93 3070.19,-86.58 3075.96,-95.46 3080.24,-89.93"/>
</g>
<!-- Node38&#45;&gt;Node8 -->
<g id="edge49" class="edge">
<title>Node38&#45;&gt;Node8</title>
<path fill="none" stroke="midnightblue" d="M1080,-123.48C1080,-100.72 1080,-55.7 1080,-30.06"/>
<polygon fill="midnightblue" stroke="midnightblue" points="1083.5,-29.79 1080,-19.79 1076.5,-29.79 1083.5,-29.79"/>
</g>
<!-- Node42&#45;&gt;Node22 -->
<g id="edge55" class="edge">
<title>Node42&#45;&gt;Node22</title>
<path fill="none" stroke="midnightblue" d="M2808.26,-190.4C2807.3,-182.56 2806.07,-172.6 2804.96,-163.57"/>
<polygon fill="midnightblue" stroke="midnightblue" points="2808.43,-163.07 2803.73,-153.58 2801.48,-163.93 2808.43,-163.07"/>
</g>
<!-- Node42&#45;&gt;Node23 -->
<g id="edge54" class="edge">
<title>Node42&#45;&gt;Node23</title>
<path fill="none" stroke="midnightblue" d="M2773.77,-190.43C2739.52,-175.09 2696.46,-149.21 2719,-123 2751.87,-84.78 2891.52,-75.13 2979.21,-72.91"/>
<polygon fill="midnightblue" stroke="midnightblue" points="2979.45,-76.41 2989.37,-72.68 2979.29,-69.41 2979.45,-76.41"/>
</g>
<!-- Node50 -->
<g id="node44" class="node">
<title>Node50</title>
<g id="a_node44"><a xlink:title=" ">
<polygon fill="none" stroke="#bfbfbf" points="2254,-330 2254,-349 2358,-349 2358,-330 2254,-330"/>
<text text-anchor="middle" x="2306" y="-337" font-family="Helvetica,sans-Serif" font-size="10.00">NyaNet/NyaNet.hpp</text>
</a>
</g>
</g>
<!-- Node49&#45;&gt;Node50 -->
<g id="edge63" class="edge">
<title>Node49&#45;&gt;Node50</title>
<path fill="none" stroke="midnightblue" d="M2306,-396.73C2306,-387.18 2306,-371.62 2306,-359.28"/>
<polygon fill="midnightblue" stroke="midnightblue" points="2309.5,-359.13 2306,-349.13 2302.5,-359.13 2309.5,-359.13"/>
</g>
<!-- Node51 -->
<g id="node45" class="node">
<title>Node51</title>
<g id="a_node45"><a xlink:href="_neko_engine_8hpp.html" target="_top" xlink:title=" ">
<polygon fill="none" stroke="red" points="2626.5,-330 2626.5,-349 2769.5,-349 2769.5,-330 2626.5,-330"/>
<text text-anchor="middle" x="2698" y="-337" font-family="Helvetica,sans-Serif" font-size="10.00">NekoEngine/NekoEngine.hpp</text>
</a>
</g>
</g>
<!-- Node49&#45;&gt;Node51 -->
<g id="edge64" class="edge">
<title>Node49&#45;&gt;Node51</title>
<path fill="none" stroke="midnightblue" d="M2360.26,-396.96C2422.36,-387.13 2527.09,-370.35 2617,-355 2624.72,-353.68 2632.86,-352.26 2640.87,-350.85"/>
<polygon fill="midnightblue" stroke="midnightblue" points="2641.67,-354.26 2650.91,-349.06 2640.45,-347.37 2641.67,-354.26"/>
</g>
<!-- Node71 -->
<g id="node46" class="node">
<title>Node71</title>
<g id="a_node46"><a xlink:title=" ">
<polygon fill="none" stroke="#bfbfbf" points="2376.5,-324.5 2376.5,-354.5 2489.5,-354.5 2489.5,-324.5 2376.5,-324.5"/>
<text text-anchor="start" x="2384.5" y="-342.5" font-family="Helvetica,sans-Serif" font-size="10.00">../../Game/Ennemies</text>
<text text-anchor="middle" x="2433" y="-331.5" font-family="Helvetica,sans-Serif" font-size="10.00">/EnnemiesFactory.hpp</text>
</a>
</g>
</g>
<!-- Node49&#45;&gt;Node71 -->
<g id="edge69" class="edge">
<title>Node49&#45;&gt;Node71</title>
<path fill="none" stroke="midnightblue" d="M2322.86,-396.87C2341.53,-387.31 2372.18,-371.63 2396.41,-359.22"/>
<polygon fill="midnightblue" stroke="midnightblue" points="2398.04,-362.32 2405.35,-354.65 2394.85,-356.09 2398.04,-362.32"/>
</g>
<!-- Node72 -->
<g id="node47" class="node">
<title>Node72</title>
<g id="a_node47"><a xlink:title=" ">
<polygon fill="none" stroke="#bfbfbf" points="2508,-324.5 2508,-354.5 2608,-354.5 2608,-324.5 2508,-324.5"/>
<text text-anchor="start" x="2516" y="-342.5" font-family="Helvetica,sans-Serif" font-size="10.00">../../Game/Bullets</text>
<text text-anchor="middle" x="2558" y="-331.5" font-family="Helvetica,sans-Serif" font-size="10.00">/BulletsFactory.hpp</text>
</a>
</g>
</g>
<!-- Node49&#45;&gt;Node72 -->
<g id="edge70" class="edge">
<title>Node49&#45;&gt;Node72</title>
<path fill="none" stroke="midnightblue" d="M2339.2,-396.94C2379.47,-386.55 2448.09,-368.85 2497.77,-356.04"/>
<polygon fill="midnightblue" stroke="midnightblue" points="2498.94,-359.35 2507.75,-353.46 2497.19,-352.57 2498.94,-359.35"/>
</g>
<!-- Node73 -->
<g id="node48" class="node">
<title>Node73</title>
<g id="a_node48"><a xlink:title=" ">
<polygon fill="none" stroke="#bfbfbf" points="1832,-330 1832,-349 2002,-349 2002,-330 1832,-330"/>
<text text-anchor="middle" x="1917" y="-337" font-family="Helvetica,sans-Serif" font-size="10.00">../../Game/Bonus/BonusFactory.hpp</text>
</a>
</g>
</g>
<!-- Node49&#45;&gt;Node73 -->
<g id="edge71" class="edge">
<title>Node49&#45;&gt;Node73</title>
<path fill="none" stroke="midnightblue" d="M2254.75,-396.94C2183.37,-385.01 2054.24,-363.43 1978,-350.69"/>
<polygon fill="midnightblue" stroke="midnightblue" points="1978.5,-347.23 1968.06,-349.03 1977.35,-354.13 1978.5,-347.23"/>
</g>
<!-- Node74 -->
<g id="node49" class="node">
<title>Node74</title>
<g id="a_node49"><a xlink:href="_sound_8hpp.html" target="_top" xlink:title=" ">
<polygon fill="none" stroke="red" points="2020,-330 2020,-349 2082,-349 2082,-330 2020,-330"/>
<text text-anchor="middle" x="2051" y="-337" font-family="Helvetica,sans-Serif" font-size="10.00">Sound.hpp</text>
</a>
</g>
</g>
<!-- Node49&#45;&gt;Node74 -->
<g id="edge72" class="edge">
<title>Node49&#45;&gt;Node74</title>
<path fill="none" stroke="midnightblue" d="M2263.19,-396.99C2219.52,-387.95 2149.98,-372.55 2091,-355 2088.37,-354.22 2085.66,-353.36 2082.95,-352.46"/>
<polygon fill="midnightblue" stroke="midnightblue" points="2083.87,-349.07 2073.27,-349.1 2081.57,-355.68 2083.87,-349.07"/>
</g>
<!-- Node76 -->
<g id="node50" class="node">
<title>Node76</title>
<g id="a_node50"><a xlink:title=" ">
<polygon fill="none" stroke="#bfbfbf" points="2100,-330 2100,-349 2236,-349 2236,-330 2100,-330"/>
<text text-anchor="middle" x="2168" y="-337" font-family="Helvetica,sans-Serif" font-size="10.00">../../Game/Player/Player.hpp</text>
</a>
</g>
</g>
<!-- Node49&#45;&gt;Node76 -->
<g id="edge73" class="edge">
<title>Node49&#45;&gt;Node76</title>
<path fill="none" stroke="midnightblue" d="M2287.67,-396.87C2264.06,-385.75 2222.81,-366.32 2195.45,-353.43"/>
<polygon fill="midnightblue" stroke="midnightblue" points="2196.94,-350.26 2186.4,-349.17 2193.96,-356.59 2196.94,-350.26"/>
</g>
<!-- Node51&#45;&gt;Node2 -->
<g id="edge66" class="edge">
<title>Node51&#45;&gt;Node2</title>
<path fill="none" stroke="midnightblue" d="M2657.38,-329.98C2644.52,-327.62 2630.22,-325.34 2617,-324 2236.15,-285.37 1034.5,-275.88 693.21,-273.94"/>
<polygon fill="midnightblue" stroke="midnightblue" points="693.14,-270.44 683.12,-273.89 693.1,-277.44 693.14,-270.44"/>
</g>
<!-- Node51&#45;&gt;Node23 -->
<g id="edge65" class="edge">
<title>Node51&#45;&gt;Node23</title>
<path fill="none" stroke="midnightblue" d="M2769.88,-332.18C2863.95,-321.3 3031.38,-292.79 3155,-221 3190.88,-200.17 3204.41,-192.45 3220,-154 3225.18,-141.23 3228.22,-134.06 3220,-123 3198.08,-93.53 3159.53,-80.62 3124.89,-75.2"/>
<polygon fill="midnightblue" stroke="midnightblue" points="3125.14,-71.7 3114.76,-73.81 3124.19,-78.64 3125.14,-71.7"/>
</g>
<!-- Node51&#45;&gt;Node27 -->
<g id="edge68" class="edge">
<title>Node51&#45;&gt;Node27</title>
<path fill="none" stroke="midnightblue" d="M2672.41,-349.12C2608.72,-370.56 2442.12,-426.67 2357.26,-455.24"/>
<polygon fill="midnightblue" stroke="midnightblue" points="2355.94,-451.99 2347.58,-458.5 2358.17,-458.62 2355.94,-451.99"/>
</g>
<!-- Node51&#45;&gt;Node28 -->
<g id="edge67" class="edge">
<title>Node51&#45;&gt;Node28</title>
<path fill="none" stroke="midnightblue" d="M2654.39,-329.98C2642.31,-327.81 2629.18,-325.64 2617,-324 2449.9,-301.52 2253.26,-286.33 2143.7,-278.87"/>
<polygon fill="midnightblue" stroke="midnightblue" points="2143.91,-275.37 2133.69,-278.19 2143.43,-282.36 2143.91,-275.37"/>
</g>
</g>
</svg>
