<?xml version="1.0" encoding="UTF-8" standalone="no"?>
<!DOCTYPE svg PUBLIC "-//W3C//DTD SVG 1.1//EN"
 "http://www.w3.org/Graphics/SVG/1.1/DTD/svg11.dtd">
<!-- Generated by graphviz version 2.49.3 (20211027.1501)
 -->
<!-- Title: NekoEngine/include/NekoEngine/ECS/Systems/TextSystem.hpp Pages: 1 -->
<svg width="1220pt" height="407pt"
 viewBox="0.00 0.00 1219.50 407.00" xmlns="http://www.w3.org/2000/svg" xmlns:xlink="http://www.w3.org/1999/xlink">
<g id="graph0" class="graph" transform="scale(1 1) rotate(0) translate(4 403)">
<title>NekoEngine/include/NekoEngine/ECS/Systems/TextSystem.hpp</title>
<!-- Node1 -->
<g id="node1" class="node">
<title>Node1</title>
<g id="a_node1"><a xlink:title=" ">
<polygon fill="#bfbfbf" stroke="black" points="855,-357.5 855,-398.5 991,-398.5 991,-357.5 855,-357.5"/>
<text text-anchor="start" x="863" y="-386.5" font-family="Helvetica,sans-Serif" font-size="10.00">NekoEngine/include</text>
<text text-anchor="start" x="863" y="-375.5" font-family="Helvetica,sans-Serif" font-size="10.00">/NekoEngine/ECS/Systems</text>
<text text-anchor="middle" x="923" y="-364.5" font-family="Helvetica,sans-Serif" font-size="10.00">/TextSystem.hpp</text>
</a>
</g>
</g>
<!-- Node2 -->
<g id="node2" class="node">
<title>Node2</title>
<g id="a_node2"><a xlink:href="_systems_8hpp.html" target="_top" xlink:title="Systems.">
<polygon fill="none" stroke="black" points="625,-279.5 625,-320.5 761,-320.5 761,-279.5 625,-279.5"/>
<text text-anchor="start" x="633" y="-308.5" font-family="Helvetica,sans-Serif" font-size="10.00">NekoEngine/include</text>
<text text-anchor="start" x="633" y="-297.5" font-family="Helvetica,sans-Serif" font-size="10.00">/NekoEngine/ECS/Systems</text>
<text text-anchor="middle" x="693" y="-286.5" font-family="Helvetica,sans-Serif" font-size="10.00">/Systems.hpp</text>
</a>
</g>
</g>
<!-- Node1&#45;&gt;Node2 -->
<g id="edge1" class="edge">
<title>Node1&#45;&gt;Node2</title>
<path fill="none" stroke="midnightblue" d="M853.89,-354.17C821.43,-343.44 783.12,-330.78 752.03,-320.51"/>
<polygon fill="midnightblue" stroke="midnightblue" points="853.18,-357.61 863.77,-357.43 855.37,-350.97 853.18,-357.61"/>
</g>
<!-- Node13 -->
<g id="node13" class="node">
<title>Node13</title>
<g id="a_node13"><a xlink:href="_text_system_8cpp.html" target="_top" xlink:title=" ">
<polygon fill="none" stroke="black" points="1080.5,-0.5 1080.5,-30.5 1211.5,-30.5 1211.5,-0.5 1080.5,-0.5"/>
<text text-anchor="start" x="1088.5" y="-18.5" font-family="Helvetica,sans-Serif" font-size="10.00">NekoEngine/src/ECS</text>
<text text-anchor="middle" x="1146" y="-7.5" font-family="Helvetica,sans-Serif" font-size="10.00">/Systems/TextSystem.cpp</text>
</a>
</g>
</g>
<!-- Node1&#45;&gt;Node13 -->
<g id="edge26" class="edge">
<title>Node1&#45;&gt;Node13</title>
<path fill="none" stroke="midnightblue" d="M1000.74,-356.55C1060.89,-335.49 1134,-296 1134,-228.5 1134,-228.5 1134,-228.5 1134,-159.5 1134,-112.16 1140.61,-56.32 1144.02,-30.67"/>
<polygon fill="midnightblue" stroke="midnightblue" points="999.56,-353.26 991.21,-359.78 1001.81,-359.89 999.56,-353.26"/>
</g>
<!-- Node3 -->
<g id="node3" class="node">
<title>Node3</title>
<g id="a_node3"><a xlink:href="_neko_engine_8hpp.html" target="_top" xlink:title=" ">
<polygon fill="none" stroke="black" points="696,-212.5 696,-242.5 842,-242.5 842,-212.5 696,-212.5"/>
<text text-anchor="start" x="704" y="-230.5" font-family="Helvetica,sans-Serif" font-size="10.00">NekoEngine/include</text>
<text text-anchor="middle" x="769" y="-219.5" font-family="Helvetica,sans-Serif" font-size="10.00">/NekoEngine/NekoEngine.hpp</text>
</a>
</g>
</g>
<!-- Node2&#45;&gt;Node3 -->
<g id="edge2" class="edge">
<title>Node2&#45;&gt;Node3</title>
<path fill="none" stroke="midnightblue" d="M721.77,-272.31C732.54,-262.32 744.36,-251.35 753.49,-242.89"/>
<polygon fill="midnightblue" stroke="midnightblue" points="719.12,-269.99 714.17,-279.36 723.88,-275.13 719.12,-269.99"/>
</g>
<!-- Node18 -->
<g id="node18" class="node">
<title>Node18</title>
<g id="a_node18"><a xlink:href="_timer_system_8cpp.html" target="_top" xlink:title=" ">
<polygon fill="none" stroke="black" points="400.5,-212.5 400.5,-242.5 537.5,-242.5 537.5,-212.5 400.5,-212.5"/>
<text text-anchor="start" x="408.5" y="-230.5" font-family="Helvetica,sans-Serif" font-size="10.00">NekoEngine/src/ECS</text>
<text text-anchor="middle" x="469" y="-219.5" font-family="Helvetica,sans-Serif" font-size="10.00">/Systems/TimerSystem.cpp</text>
</a>
</g>
</g>
<!-- Node2&#45;&gt;Node18 -->
<g id="edge24" class="edge">
<title>Node2&#45;&gt;Node18</title>
<path fill="none" stroke="midnightblue" d="M621.13,-276.38C585.87,-265.28 544.48,-252.26 513.79,-242.6"/>
<polygon fill="midnightblue" stroke="midnightblue" points="620.31,-279.79 630.9,-279.46 622.41,-273.11 620.31,-279.79"/>
</g>
<!-- Node19 -->
<g id="node19" class="node">
<title>Node19</title>
<g id="a_node19"><a xlink:href="_scene_8cpp.html" target="_top" xlink:title="For the love of god.">
<polygon fill="none" stroke="black" points="556,-212.5 556,-242.5 678,-242.5 678,-212.5 556,-212.5"/>
<text text-anchor="start" x="564" y="-230.5" font-family="Helvetica,sans-Serif" font-size="10.00">NekoEngine/src/Scenes</text>
<text text-anchor="middle" x="617" y="-219.5" font-family="Helvetica,sans-Serif" font-size="10.00">/Scene.cpp</text>
</a>
</g>
</g>
<!-- Node2&#45;&gt;Node19 -->
<g id="edge25" class="edge">
<title>Node2&#45;&gt;Node19</title>
<path fill="none" stroke="midnightblue" d="M664.23,-272.31C653.46,-262.32 641.64,-251.35 632.51,-242.89"/>
<polygon fill="midnightblue" stroke="midnightblue" points="662.12,-275.13 671.83,-279.36 666.88,-269.99 662.12,-275.13"/>
</g>
<!-- Node4 -->
<g id="node4" class="node">
<title>Node4</title>
<g id="a_node4"><a xlink:href="_client_game_8hpp.html" target="_top" xlink:title=" ">
<polygon fill="none" stroke="black" points="935.5,-78.5 935.5,-97.5 1082.5,-97.5 1082.5,-78.5 935.5,-78.5"/>
<text text-anchor="middle" x="1009" y="-85.5" font-family="Helvetica,sans-Serif" font-size="10.00">Client/include/ClientGame.hpp</text>
</a>
</g>
</g>
<!-- Node3&#45;&gt;Node4 -->
<g id="edge3" class="edge">
<title>Node3&#45;&gt;Node4</title>
<path fill="none" stroke="midnightblue" d="M852.17,-215.21C903.11,-206.71 962.06,-193.53 981,-176 1003.83,-154.88 1008.11,-115.1 1008.87,-97.62"/>
<polygon fill="midnightblue" stroke="midnightblue" points="851.41,-211.79 842.1,-216.85 852.54,-218.7 851.41,-211.79"/>
</g>
<!-- Node6 -->
<g id="node6" class="node">
<title>Node6</title>
<g id="a_node6"><a xlink:href="main_8cpp.html" target="_top" xlink:title="Entrypoint.">
<polygon fill="none" stroke="black" points="814,-6 814,-25 914,-25 914,-6 814,-6"/>
<text text-anchor="middle" x="864" y="-13" font-family="Helvetica,sans-Serif" font-size="10.00">Client/src/main.cpp</text>
</a>
</g>
</g>
<!-- Node3&#45;&gt;Node6 -->
<g id="edge22" class="edge">
<title>Node3&#45;&gt;Node6</title>
<path fill="none" stroke="midnightblue" d="M761.9,-202.74C753.5,-169.69 743.65,-109.19 769,-67 782.08,-45.23 808.08,-32.33 829.57,-25.03"/>
<polygon fill="midnightblue" stroke="midnightblue" points="758.53,-203.7 764.52,-212.44 765.29,-201.87 758.53,-203.7"/>
</g>
<!-- Node7 -->
<g id="node7" class="node">
<title>Node7</title>
<g id="a_node7"><a xlink:href="_custom_client_8hpp.html" target="_top" xlink:title=" ">
<polygon fill="none" stroke="black" points="367.5,-151 367.5,-170 522.5,-170 522.5,-151 367.5,-151"/>
<text text-anchor="middle" x="445" y="-158" font-family="Helvetica,sans-Serif" font-size="10.00">Client/include/CustomClient.hpp</text>
</a>
</g>
</g>
<!-- Node3&#45;&gt;Node7 -->
<g id="edge6" class="edge">
<title>Node3&#45;&gt;Node7</title>
<path fill="none" stroke="midnightblue" d="M689.07,-210.47C625.34,-197.68 538.59,-180.27 487.51,-170.03"/>
<polygon fill="midnightblue" stroke="midnightblue" points="688.6,-213.94 699.1,-212.48 689.98,-207.08 688.6,-213.94"/>
</g>
<!-- Node15 -->
<g id="node15" class="node">
<title>Node15</title>
<g id="a_node15"><a xlink:href="_player_system_8hpp.html" target="_top" xlink:title=" ">
<polygon fill="none" stroke="black" points="816,-151 816,-170 972,-170 972,-151 816,-151"/>
<text text-anchor="middle" x="894" y="-158" font-family="Helvetica,sans-Serif" font-size="10.00">Client/include/PlayerSystem.hpp</text>
</a>
</g>
</g>
<!-- Node3&#45;&gt;Node15 -->
<g id="edge18" class="edge">
<title>Node3&#45;&gt;Node15</title>
<path fill="none" stroke="midnightblue" d="M805.27,-207.64C829.19,-195.2 859.36,-179.51 877.64,-170.01"/>
<polygon fill="midnightblue" stroke="midnightblue" points="803.38,-204.68 796.12,-212.4 806.61,-210.89 803.38,-204.68"/>
</g>
<!-- Node16 -->
<g id="node16" class="node">
<title>Node16</title>
<g id="a_node16"><a xlink:href="_player_system_8cpp.html" target="_top" xlink:title=" ">
<polygon fill="none" stroke="black" points="778.5,-78.5 778.5,-97.5 917.5,-97.5 917.5,-78.5 778.5,-78.5"/>
<text text-anchor="middle" x="848" y="-85.5" font-family="Helvetica,sans-Serif" font-size="10.00">Client/src/PlayerSystem.cpp</text>
</a>
</g>
</g>
<!-- Node3&#45;&gt;Node16 -->
<g id="edge21" class="edge">
<title>Node3&#45;&gt;Node16</title>
<path fill="none" stroke="midnightblue" d="M778.62,-202.74C785.68,-186.14 795.94,-163.69 807,-145 817.43,-127.37 832.09,-108.46 840.76,-97.74"/>
<polygon fill="midnightblue" stroke="midnightblue" points="775.27,-201.66 774.65,-212.23 781.73,-204.35 775.27,-201.66"/>
</g>
<!-- Node17 -->
<g id="node17" class="node">
<title>Node17</title>
<g id="a_node17"><a xlink:href="_pattern_system_8cpp.html" target="_top" xlink:title="Physics System class implementation.">
<polygon fill="none" stroke="black" points="540.5,-145.5 540.5,-175.5 683.5,-175.5 683.5,-145.5 540.5,-145.5"/>
<text text-anchor="start" x="548.5" y="-163.5" font-family="Helvetica,sans-Serif" font-size="10.00">NekoEngine/src/ECS</text>
<text text-anchor="middle" x="612" y="-152.5" font-family="Helvetica,sans-Serif" font-size="10.00">/Systems/PatternSystem.cpp</text>
</a>
</g>
</g>
<!-- Node3&#45;&gt;Node17 -->
<g id="edge23" class="edge">
<title>Node3&#45;&gt;Node17</title>
<path fill="none" stroke="midnightblue" d="M725.63,-208.54C700.51,-198.14 669.34,-185.24 646,-175.58"/>
<polygon fill="midnightblue" stroke="midnightblue" points="724.36,-211.8 734.93,-212.4 727.03,-205.34 724.36,-211.8"/>
</g>
<!-- Node5 -->
<g id="node5" class="node">
<title>Node5</title>
<g id="a_node5"><a xlink:href="_client_game_8cpp.html" target="_top" xlink:title=" ">
<polygon fill="none" stroke="black" points="932,-6 932,-25 1062,-25 1062,-6 932,-6"/>
<text text-anchor="middle" x="997" y="-13" font-family="Helvetica,sans-Serif" font-size="10.00">Client/src/ClientGame.cpp</text>
</a>
</g>
</g>
<!-- Node4&#45;&gt;Node5 -->
<g id="edge4" class="edge">
<title>Node4&#45;&gt;Node5</title>
<path fill="none" stroke="midnightblue" d="M1005.83,-68.36C1003.45,-54.4 1000.31,-35.93 998.48,-25.22"/>
<polygon fill="midnightblue" stroke="midnightblue" points="1002.4,-69.08 1007.53,-78.36 1009.3,-67.91 1002.4,-69.08"/>
</g>
<!-- Node4&#45;&gt;Node6 -->
<g id="edge5" class="edge">
<title>Node4&#45;&gt;Node6</title>
<path fill="none" stroke="midnightblue" d="M982.26,-74C952.91,-59.73 906.63,-37.23 881.55,-25.03"/>
<polygon fill="midnightblue" stroke="midnightblue" points="980.99,-77.27 991.51,-78.5 984.05,-70.98 980.99,-77.27"/>
</g>
<!-- Node7&#45;&gt;Node6 -->
<g id="edge7" class="edge">
<title>Node7&#45;&gt;Node6</title>
<path fill="none" stroke="midnightblue" d="M489.86,-148.41C526.93,-138.92 580.79,-124.39 627,-109 637.82,-105.4 785.39,-47.42 842.06,-25.13"/>
<polygon fill="midnightblue" stroke="midnightblue" points="488.7,-145.09 479.87,-150.95 490.42,-151.88 488.7,-145.09"/>
</g>
<!-- Node8 -->
<g id="node8" class="node">
<title>Node8</title>
<g id="a_node8"><a xlink:href="_window_8hpp.html" target="_top" xlink:title="Contains the NekoEngine Window class wrapper.">
<polygon fill="none" stroke="black" points="504,-67.5 504,-108.5 618,-108.5 618,-67.5 504,-67.5"/>
<text text-anchor="start" x="512" y="-96.5" font-family="Helvetica,sans-Serif" font-size="10.00">NekoEngine/include</text>
<text text-anchor="start" x="512" y="-85.5" font-family="Helvetica,sans-Serif" font-size="10.00">/NekoEngine/Graphics</text>
<text text-anchor="middle" x="561" y="-74.5" font-family="Helvetica,sans-Serif" font-size="10.00">/Window.hpp</text>
</a>
</g>
</g>
<!-- Node7&#45;&gt;Node8 -->
<g id="edge8" class="edge">
<title>Node7&#45;&gt;Node8</title>
<path fill="none" stroke="midnightblue" d="M468.1,-145.46C485.44,-134.92 509.4,-120.36 528.65,-108.66"/>
<polygon fill="midnightblue" stroke="midnightblue" points="465.95,-142.67 459.22,-150.86 469.59,-148.65 465.95,-142.67"/>
</g>
<!-- Node14 -->
<g id="node14" class="node">
<title>Node14</title>
<g id="a_node14"><a xlink:href="_window_8cpp.html" target="_top" xlink:title="Contains the NekoEngine Window class implementation.">
<polygon fill="none" stroke="black" points="0,-0.5 0,-30.5 128,-30.5 128,-0.5 0,-0.5"/>
<text text-anchor="start" x="8" y="-18.5" font-family="Helvetica,sans-Serif" font-size="10.00">NekoEngine/src/Graphics</text>
<text text-anchor="middle" x="64" y="-7.5" font-family="Helvetica,sans-Serif" font-size="10.00">/Window.cpp</text>
</a>
</g>
</g>
<!-- Node7&#45;&gt;Node14 -->
<g id="edge17" class="edge">
<title>Node7&#45;&gt;Node14</title>
<path fill="none" stroke="midnightblue" d="M412.66,-147.36C342.36,-120.98 176,-58.54 101.37,-30.53"/>
<polygon fill="midnightblue" stroke="midnightblue" points="411.72,-150.75 422.31,-150.98 414.18,-144.19 411.72,-150.75"/>
</g>
<!-- Node8&#45;&gt;Node3 -->
<g id="edge10" class="edge">
<title>Node8&#45;&gt;Node3</title>
<path fill="none" stroke="midnightblue" d="M627.55,-111.3C649.11,-120.09 672.47,-131.38 692,-145 719.62,-164.26 745.08,-194.71 758.68,-212.43"/>
<polygon fill="midnightblue" stroke="midnightblue" points="628.71,-107.99 618.12,-107.56 626.13,-114.5 628.71,-107.99"/>
</g>
<!-- Node8&#45;&gt;Node6 -->
<g id="edge9" class="edge">
<title>Node8&#45;&gt;Node6</title>
<path fill="none" stroke="midnightblue" d="M628.1,-71.89C677.16,-60.78 745.26,-45.19 805,-31 813,-29.1 821.61,-27.01 829.7,-25.02"/>
<polygon fill="midnightblue" stroke="midnightblue" points="627.23,-68.5 618.25,-74.12 628.77,-75.33 627.23,-68.5"/>
</g>
<!-- Node9 -->
<g id="node9" class="node">
<title>Node9</title>
<g id="a_node9"><a xlink:href="_background_system_8cpp.html" target="_top" xlink:title=" ">
<polygon fill="none" stroke="black" points="146,-0.5 146,-30.5 310,-30.5 310,-0.5 146,-0.5"/>
<text text-anchor="start" x="154" y="-18.5" font-family="Helvetica,sans-Serif" font-size="10.00">NekoEngine/src/ECS</text>
<text text-anchor="middle" x="228" y="-7.5" font-family="Helvetica,sans-Serif" font-size="10.00">/Systems/BackgroundSystem.cpp</text>
</a>
</g>
</g>
<!-- Node8&#45;&gt;Node9 -->
<g id="edge11" class="edge">
<title>Node8&#45;&gt;Node9</title>
<path fill="none" stroke="midnightblue" d="M493.93,-72.8C435.78,-60.49 352.11,-42.77 294.21,-30.52"/>
<polygon fill="midnightblue" stroke="midnightblue" points="493.25,-76.23 503.76,-74.88 494.7,-69.39 493.25,-76.23"/>
</g>
<!-- Node10 -->
<g id="node10" class="node">
<title>Node10</title>
<g id="a_node10"><a xlink:href="_mouse_system_8cpp.html" target="_top" xlink:title=" ">
<polygon fill="none" stroke="black" points="328.5,-0.5 328.5,-30.5 469.5,-30.5 469.5,-0.5 328.5,-0.5"/>
<text text-anchor="start" x="336.5" y="-18.5" font-family="Helvetica,sans-Serif" font-size="10.00">NekoEngine/src/ECS</text>
<text text-anchor="middle" x="399" y="-7.5" font-family="Helvetica,sans-Serif" font-size="10.00">/Systems/MouseSystem.cpp</text>
</a>
</g>
</g>
<!-- Node8&#45;&gt;Node10 -->
<g id="edge12" class="edge">
<title>Node8&#45;&gt;Node10</title>
<path fill="none" stroke="midnightblue" d="M506.51,-63.29C481.54,-52.42 452.79,-39.91 431.31,-30.56"/>
<polygon fill="midnightblue" stroke="midnightblue" points="505.31,-66.58 515.87,-67.36 508.1,-60.16 505.31,-66.58"/>
</g>
<!-- Node11 -->
<g id="node11" class="node">
<title>Node11</title>
<g id="a_node11"><a xlink:href="_parallax_system_8cpp.html" target="_top" xlink:title=" ">
<polygon fill="none" stroke="black" points="488,-0.5 488,-30.5 634,-30.5 634,-0.5 488,-0.5"/>
<text text-anchor="start" x="496" y="-18.5" font-family="Helvetica,sans-Serif" font-size="10.00">NekoEngine/src/ECS</text>
<text text-anchor="middle" x="561" y="-7.5" font-family="Helvetica,sans-Serif" font-size="10.00">/Systems/ParallaxSystem.cpp</text>
</a>
</g>
</g>
<!-- Node8&#45;&gt;Node11 -->
<g id="edge13" class="edge">
<title>Node8&#45;&gt;Node11</title>
<path fill="none" stroke="midnightblue" d="M561,-57.08C561,-48.01 561,-38.45 561,-30.89"/>
<polygon fill="midnightblue" stroke="midnightblue" points="557.5,-57.36 561,-67.36 564.5,-57.36 557.5,-57.36"/>
</g>
<!-- Node12 -->
<g id="node12" class="node">
<title>Node12</title>
<g id="a_node12"><a xlink:href="_render_system_8cpp.html" target="_top" xlink:title="Render System class implementation.">
<polygon fill="none" stroke="black" points="652.5,-0.5 652.5,-30.5 795.5,-30.5 795.5,-0.5 652.5,-0.5"/>
<text text-anchor="start" x="660.5" y="-18.5" font-family="Helvetica,sans-Serif" font-size="10.00">NekoEngine/src/ECS</text>
<text text-anchor="middle" x="724" y="-7.5" font-family="Helvetica,sans-Serif" font-size="10.00">/Systems/RenderSystem.cpp</text>
</a>
</g>
</g>
<!-- Node8&#45;&gt;Node12 -->
<g id="edge14" class="edge">
<title>Node8&#45;&gt;Node12</title>
<path fill="none" stroke="midnightblue" d="M615.82,-63.29C640.95,-52.42 669.88,-39.91 691.49,-30.56"/>
<polygon fill="midnightblue" stroke="midnightblue" points="614.19,-60.18 606.4,-67.36 616.97,-66.6 614.19,-60.18"/>
</g>
<!-- Node8&#45;&gt;Node13 -->
<g id="edge15" class="edge">
<title>Node8&#45;&gt;Node13</title>
<path fill="none" stroke="midnightblue" d="M628.15,-80.32C746.41,-68.43 987.24,-43.67 1071,-31 1074.02,-30.54 1077.1,-30.05 1080.2,-29.54"/>
<polygon fill="midnightblue" stroke="midnightblue" points="627.73,-76.84 618.13,-81.32 628.43,-83.81 627.73,-76.84"/>
</g>
<!-- Node8&#45;&gt;Node14 -->
<g id="edge16" class="edge">
<title>Node8&#45;&gt;Node14</title>
<path fill="none" stroke="midnightblue" d="M493.76,-79.48C409.98,-69.8 262.53,-51.73 137,-31 134.07,-30.52 131.07,-30 128.05,-29.47"/>
<polygon fill="midnightblue" stroke="midnightblue" points="493.57,-82.98 503.9,-80.65 494.37,-76.03 493.57,-82.98"/>
</g>
<!-- Node15&#45;&gt;Node4 -->
<g id="edge19" class="edge">
<title>Node15&#45;&gt;Node4</title>
<path fill="none" stroke="midnightblue" d="M916.64,-145.62C939.85,-131.39 975.24,-109.7 994.78,-97.72"/>
<polygon fill="midnightblue" stroke="midnightblue" points="914.8,-142.64 908.1,-150.86 918.46,-148.61 914.8,-142.64"/>
</g>
<!-- Node15&#45;&gt;Node16 -->
<g id="edge20" class="edge">
<title>Node15&#45;&gt;Node16</title>
<path fill="none" stroke="midnightblue" d="M882.64,-142.09C873.45,-128 860.88,-108.74 853.69,-97.72"/>
<polygon fill="midnightblue" stroke="midnightblue" points="879.96,-144.39 888.36,-150.86 885.83,-140.57 879.96,-144.39"/>
</g>
</g>
</svg>
