<?xml version="1.0" encoding="UTF-8" standalone="no"?>
<!DOCTYPE svg PUBLIC "-//W3C//DTD SVG 1.1//EN"
 "http://www.w3.org/Graphics/SVG/1.1/DTD/svg11.dtd">
<!-- Generated by graphviz version 2.49.3 (20211027.1501)
 -->
<!-- Title: NekoEngine/include/NekoEngine/ECS/Components/Timer.hpp Pages: 1 -->
<svg width="1467pt" height="563pt"
 viewBox="0.00 0.00 1467.00 563.00" xmlns="http://www.w3.org/2000/svg" xmlns:xlink="http://www.w3.org/1999/xlink">
<g id="graph0" class="graph" transform="scale(1 1) rotate(0) translate(4 559)">
<title>NekoEngine/include/NekoEngine/ECS/Components/Timer.hpp</title>
<!-- Node1 -->
<g id="node1" class="node">
<title>Node1</title>
<g id="a_node1"><a xlink:title="Timer component.">
<polygon fill="#bfbfbf" stroke="black" points="707.5,-513.5 707.5,-554.5 859.5,-554.5 859.5,-513.5 707.5,-513.5"/>
<text text-anchor="start" x="715.5" y="-542.5" font-family="Helvetica,sans-Serif" font-size="10.00">NekoEngine/include</text>
<text text-anchor="start" x="715.5" y="-531.5" font-family="Helvetica,sans-Serif" font-size="10.00">/NekoEngine/ECS/Components</text>
<text text-anchor="middle" x="783.5" y="-520.5" font-family="Helvetica,sans-Serif" font-size="10.00">/Timer.hpp</text>
</a>
</g>
</g>
<!-- Node2 -->
<g id="node2" class="node">
<title>Node2</title>
<g id="a_node2"><a xlink:href="_components_8hpp.html" target="_top" xlink:title="Components.">
<polygon fill="none" stroke="black" points="409.5,-435.5 409.5,-476.5 561.5,-476.5 561.5,-435.5 409.5,-435.5"/>
<text text-anchor="start" x="417.5" y="-464.5" font-family="Helvetica,sans-Serif" font-size="10.00">NekoEngine/include</text>
<text text-anchor="start" x="417.5" y="-453.5" font-family="Helvetica,sans-Serif" font-size="10.00">/NekoEngine/ECS/Components</text>
<text text-anchor="middle" x="485.5" y="-442.5" font-family="Helvetica,sans-Serif" font-size="10.00">/Components.hpp</text>
</a>
</g>
</g>
<!-- Node1&#45;&gt;Node2 -->
<g id="edge1" class="edge">
<title>Node1&#45;&gt;Node2</title>
<path fill="none" stroke="midnightblue" d="M697.29,-511.01C654.42,-500.08 603.06,-486.98 561.66,-476.42"/>
<polygon fill="midnightblue" stroke="midnightblue" points="696.59,-514.45 707.14,-513.53 698.32,-507.66 696.59,-514.45"/>
</g>
<!-- Node22 -->
<g id="node22" class="node">
<title>Node22</title>
<g id="a_node22"><a xlink:href="_timer_system_8cpp.html" target="_top" xlink:title=" ">
<polygon fill="none" stroke="black" points="580,-212.5 580,-242.5 717,-242.5 717,-212.5 580,-212.5"/>
<text text-anchor="start" x="588" y="-230.5" font-family="Helvetica,sans-Serif" font-size="10.00">NekoEngine/src/ECS</text>
<text text-anchor="middle" x="648.5" y="-219.5" font-family="Helvetica,sans-Serif" font-size="10.00">/Systems/TimerSystem.cpp</text>
</a>
</g>
</g>
<!-- Node1&#45;&gt;Node22 -->
<g id="edge39" class="edge">
<title>Node1&#45;&gt;Node22</title>
<path fill="none" stroke="midnightblue" d="M781.96,-503.19C778.05,-452.89 764.37,-349.73 716.5,-279 706.2,-263.78 689.74,-251.38 675.6,-242.68"/>
<polygon fill="midnightblue" stroke="midnightblue" points="778.48,-503.65 782.67,-513.38 785.46,-503.16 778.48,-503.65"/>
</g>
<!-- Node28 -->
<g id="node28" class="node">
<title>Node28</title>
<g id="a_node28"><a xlink:href="_timer_8cpp.html" target="_top" xlink:title="Timer implementation.">
<polygon fill="none" stroke="black" points="811.5,-441 811.5,-471 931.5,-471 931.5,-441 811.5,-441"/>
<text text-anchor="start" x="819.5" y="-459" font-family="Helvetica,sans-Serif" font-size="10.00">NekoEngine/src/ECS</text>
<text text-anchor="middle" x="871.5" y="-448" font-family="Helvetica,sans-Serif" font-size="10.00">/Components/Timer.cpp</text>
</a>
</g>
</g>
<!-- Node1&#45;&gt;Node28 -->
<g id="edge38" class="edge">
<title>Node1&#45;&gt;Node28</title>
<path fill="none" stroke="midnightblue" d="M814,-506.66C827.78,-494.76 843.51,-481.18 855.03,-471.23"/>
<polygon fill="midnightblue" stroke="midnightblue" points="811.44,-504.24 806.16,-513.43 816.02,-509.54 811.44,-504.24"/>
</g>
<!-- Node3 -->
<g id="node3" class="node">
<title>Node3</title>
<g id="a_node3"><a xlink:href="_client_collision_8hpp.html" target="_top" xlink:title=" ">
<polygon fill="none" stroke="black" points="39.5,-368.5 39.5,-387.5 197.5,-387.5 197.5,-368.5 39.5,-368.5"/>
<text text-anchor="middle" x="118.5" y="-375.5" font-family="Helvetica,sans-Serif" font-size="10.00">Client/include/ClientCollision.hpp</text>
</a>
</g>
</g>
<!-- Node2&#45;&gt;Node3 -->
<g id="edge2" class="edge">
<title>Node2&#45;&gt;Node3</title>
<path fill="none" stroke="midnightblue" d="M399.4,-437.64C345.4,-426.69 274.35,-412.18 211.5,-399 193.88,-395.31 174.41,-391.13 157.85,-387.56"/>
<polygon fill="midnightblue" stroke="midnightblue" points="398.78,-441.08 409.28,-439.64 400.17,-434.22 398.78,-441.08"/>
</g>
<!-- Node8 -->
<g id="node8" class="node">
<title>Node8</title>
<g id="a_node8"><a xlink:href="_bonus_system_8hpp.html" target="_top" xlink:title=" ">
<polygon fill="none" stroke="black" points="253.5,-357.5 253.5,-398.5 389.5,-398.5 389.5,-357.5 253.5,-357.5"/>
<text text-anchor="start" x="261.5" y="-386.5" font-family="Helvetica,sans-Serif" font-size="10.00">NekoEngine/include</text>
<text text-anchor="start" x="261.5" y="-375.5" font-family="Helvetica,sans-Serif" font-size="10.00">/NekoEngine/ECS/Systems</text>
<text text-anchor="middle" x="321.5" y="-364.5" font-family="Helvetica,sans-Serif" font-size="10.00">/BonusSystem.hpp</text>
</a>
</g>
</g>
<!-- Node2&#45;&gt;Node8 -->
<g id="edge7" class="edge">
<title>Node2&#45;&gt;Node8</title>
<path fill="none" stroke="midnightblue" d="M434.12,-431.19C411.43,-420.67 385.09,-408.47 363.59,-398.51"/>
<polygon fill="midnightblue" stroke="midnightblue" points="432.72,-434.4 443.27,-435.43 435.66,-428.05 432.72,-434.4"/>
</g>
<!-- Node10 -->
<g id="node10" class="node">
<title>Node10</title>
<g id="a_node10"><a xlink:href="_neko_engine_8hpp.html" target="_top" xlink:title=" ">
<polygon fill="none" stroke="black" points="275.5,-212.5 275.5,-242.5 421.5,-242.5 421.5,-212.5 275.5,-212.5"/>
<text text-anchor="start" x="283.5" y="-230.5" font-family="Helvetica,sans-Serif" font-size="10.00">NekoEngine/include</text>
<text text-anchor="middle" x="348.5" y="-219.5" font-family="Helvetica,sans-Serif" font-size="10.00">/NekoEngine/NekoEngine.hpp</text>
</a>
</g>
</g>
<!-- Node2&#45;&gt;Node10 -->
<g id="edge36" class="edge">
<title>Node2&#45;&gt;Node10</title>
<path fill="none" stroke="midnightblue" d="M399.4,-446.25C338.3,-438.05 263.83,-423.33 244.5,-399 211.33,-357.24 216.2,-324.2 244.5,-279 255.31,-261.73 273.9,-250.22 292.4,-242.61"/>
<polygon fill="midnightblue" stroke="midnightblue" points="399.1,-449.74 409.47,-447.56 400.01,-442.8 399.1,-449.74"/>
</g>
<!-- Node12 -->
<g id="node12" class="node">
<title>Node12</title>
<g id="a_node12"><a xlink:href="_window_8hpp.html" target="_top" xlink:title="Contains the NekoEngine Window class wrapper.">
<polygon fill="none" stroke="black" points="686.5,-67.5 686.5,-108.5 800.5,-108.5 800.5,-67.5 686.5,-67.5"/>
<text text-anchor="start" x="694.5" y="-96.5" font-family="Helvetica,sans-Serif" font-size="10.00">NekoEngine/include</text>
<text text-anchor="start" x="694.5" y="-85.5" font-family="Helvetica,sans-Serif" font-size="10.00">/NekoEngine/Graphics</text>
<text text-anchor="middle" x="743.5" y="-74.5" font-family="Helvetica,sans-Serif" font-size="10.00">/Window.hpp</text>
</a>
</g>
</g>
<!-- Node2&#45;&gt;Node12 -->
<g id="edge35" class="edge">
<title>Node2&#45;&gt;Node12</title>
<path fill="none" stroke="midnightblue" d="M571.52,-444.96C631.72,-436.15 705.07,-421.23 726.5,-399 757.29,-367.06 745.5,-345.37 745.5,-301 745.5,-301 745.5,-301 745.5,-226.5 745.5,-184.48 744.55,-135.25 743.96,-108.58"/>
<polygon fill="midnightblue" stroke="midnightblue" points="571,-441.5 561.59,-446.38 571.99,-448.43 571,-441.5"/>
</g>
<!-- Node25 -->
<g id="node25" class="node">
<title>Node25</title>
<g id="a_node25"><a xlink:href="_collision_8hpp.html" target="_top" xlink:title=" ">
<polygon fill="none" stroke="black" points="581.5,-357.5 581.5,-398.5 717.5,-398.5 717.5,-357.5 581.5,-357.5"/>
<text text-anchor="start" x="589.5" y="-386.5" font-family="Helvetica,sans-Serif" font-size="10.00">NekoEngine/include</text>
<text text-anchor="start" x="589.5" y="-375.5" font-family="Helvetica,sans-Serif" font-size="10.00">/NekoEngine/ECS/Systems</text>
<text text-anchor="middle" x="649.5" y="-364.5" font-family="Helvetica,sans-Serif" font-size="10.00">/Collision.hpp</text>
</a>
</g>
</g>
<!-- Node2&#45;&gt;Node25 -->
<g id="edge32" class="edge">
<title>Node2&#45;&gt;Node25</title>
<path fill="none" stroke="midnightblue" d="M536.88,-431.19C559.57,-420.67 585.91,-408.47 607.41,-398.51"/>
<polygon fill="midnightblue" stroke="midnightblue" points="535.34,-428.05 527.73,-435.43 538.28,-434.4 535.34,-428.05"/>
</g>
<!-- Node27 -->
<g id="node27" class="node">
<title>Node27</title>
<g id="a_node27"><a xlink:href="_animation_system_8cpp.html" target="_top" xlink:title=" ">
<polygon fill="none" stroke="black" points="408,-363 408,-393 563,-393 563,-363 408,-363"/>
<text text-anchor="start" x="416" y="-381" font-family="Helvetica,sans-Serif" font-size="10.00">NekoEngine/src/ECS</text>
<text text-anchor="middle" x="485.5" y="-370" font-family="Helvetica,sans-Serif" font-size="10.00">/Systems/AnimationSystem.cpp</text>
</a>
</g>
</g>
<!-- Node2&#45;&gt;Node27 -->
<g id="edge37" class="edge">
<title>Node2&#45;&gt;Node27</title>
<path fill="none" stroke="midnightblue" d="M485.5,-425.28C485.5,-414.25 485.5,-402.25 485.5,-393.23"/>
<polygon fill="midnightblue" stroke="midnightblue" points="482,-425.43 485.5,-435.43 489,-425.43 482,-425.43"/>
</g>
<!-- Node4 -->
<g id="node4" class="node">
<title>Node4</title>
<g id="a_node4"><a xlink:href="_client_game_8hpp.html" target="_top" xlink:title=" ">
<polygon fill="none" stroke="black" points="0,-78.5 0,-97.5 147,-97.5 147,-78.5 0,-78.5"/>
<text text-anchor="middle" x="73.5" y="-85.5" font-family="Helvetica,sans-Serif" font-size="10.00">Client/include/ClientGame.hpp</text>
</a>
</g>
</g>
<!-- Node3&#45;&gt;Node4 -->
<g id="edge3" class="edge">
<title>Node3&#45;&gt;Node4</title>
<path fill="none" stroke="midnightblue" d="M88.3,-363.74C71.19,-354.46 51.31,-340.26 41.5,-321 1.28,-242.01 52.76,-129.31 68.94,-97.6"/>
<polygon fill="midnightblue" stroke="midnightblue" points="86.93,-366.97 97.43,-368.39 90.11,-360.73 86.93,-366.97"/>
</g>
<!-- Node7 -->
<g id="node7" class="node">
<title>Node7</title>
<g id="a_node7"><a xlink:href="_client_collision_8cpp.html" target="_top" xlink:title=" ">
<polygon fill="none" stroke="black" points="50.5,-290.5 50.5,-309.5 190.5,-309.5 190.5,-290.5 50.5,-290.5"/>
<text text-anchor="middle" x="120.5" y="-297.5" font-family="Helvetica,sans-Serif" font-size="10.00">Client/src/ClientCollision.cpp</text>
</a>
</g>
</g>
<!-- Node3&#45;&gt;Node7 -->
<g id="edge6" class="edge">
<title>Node3&#45;&gt;Node7</title>
<path fill="none" stroke="midnightblue" d="M118.99,-358.22C119.4,-342.7 119.96,-321.36 120.27,-309.62"/>
<polygon fill="midnightblue" stroke="midnightblue" points="115.49,-358.19 118.73,-368.28 122.49,-358.38 115.49,-358.19"/>
</g>
<!-- Node5 -->
<g id="node5" class="node">
<title>Node5</title>
<g id="a_node5"><a xlink:href="_client_game_8cpp.html" target="_top" xlink:title=" ">
<polygon fill="none" stroke="black" points="8.5,-6 8.5,-25 138.5,-25 138.5,-6 8.5,-6"/>
<text text-anchor="middle" x="73.5" y="-13" font-family="Helvetica,sans-Serif" font-size="10.00">Client/src/ClientGame.cpp</text>
</a>
</g>
</g>
<!-- Node4&#45;&gt;Node5 -->
<g id="edge4" class="edge">
<title>Node4&#45;&gt;Node5</title>
<path fill="none" stroke="midnightblue" d="M73.5,-67.94C73.5,-54.03 73.5,-35.82 73.5,-25.22"/>
<polygon fill="midnightblue" stroke="midnightblue" points="70,-68.36 73.5,-78.36 77,-68.36 70,-68.36"/>
</g>
<!-- Node6 -->
<g id="node6" class="node">
<title>Node6</title>
<g id="a_node6"><a xlink:href="main_8cpp.html" target="_top" xlink:title="Entrypoint.">
<polygon fill="none" stroke="black" points="396.5,-6 396.5,-25 496.5,-25 496.5,-6 396.5,-6"/>
<text text-anchor="middle" x="446.5" y="-13" font-family="Helvetica,sans-Serif" font-size="10.00">Client/src/main.cpp</text>
</a>
</g>
</g>
<!-- Node4&#45;&gt;Node6 -->
<g id="edge5" class="edge">
<title>Node4&#45;&gt;Node6</title>
<path fill="none" stroke="midnightblue" d="M122.66,-76.38C137.39,-73.27 153.58,-69.92 168.5,-67 248.41,-51.33 341.58,-34.75 397.21,-25.03"/>
<polygon fill="midnightblue" stroke="midnightblue" points="121.79,-72.98 112.74,-78.48 123.25,-79.83 121.79,-72.98"/>
</g>
<!-- Node9 -->
<g id="node9" class="node">
<title>Node9</title>
<g id="a_node9"><a xlink:href="_systems_8hpp.html" target="_top" xlink:title="Systems.">
<polygon fill="none" stroke="black" points="432.5,-279.5 432.5,-320.5 568.5,-320.5 568.5,-279.5 432.5,-279.5"/>
<text text-anchor="start" x="440.5" y="-308.5" font-family="Helvetica,sans-Serif" font-size="10.00">NekoEngine/include</text>
<text text-anchor="start" x="440.5" y="-297.5" font-family="Helvetica,sans-Serif" font-size="10.00">/NekoEngine/ECS/Systems</text>
<text text-anchor="middle" x="500.5" y="-286.5" font-family="Helvetica,sans-Serif" font-size="10.00">/Systems.hpp</text>
</a>
</g>
</g>
<!-- Node8&#45;&gt;Node9 -->
<g id="edge8" class="edge">
<title>Node8&#45;&gt;Node9</title>
<path fill="none" stroke="midnightblue" d="M376.92,-353.47C401.83,-342.89 430.88,-330.56 454.56,-320.51"/>
<polygon fill="midnightblue" stroke="midnightblue" points="375.43,-350.3 367.6,-357.43 378.17,-356.74 375.43,-350.3"/>
</g>
<!-- Node24 -->
<g id="node24" class="node">
<title>Node24</title>
<g id="a_node24"><a xlink:href="_bonus_system_8cpp.html" target="_top" xlink:title=" ">
<polygon fill="none" stroke="black" points="253.5,-285 253.5,-315 393.5,-315 393.5,-285 253.5,-285"/>
<text text-anchor="start" x="261.5" y="-303" font-family="Helvetica,sans-Serif" font-size="10.00">NekoEngine/src/ECS</text>
<text text-anchor="middle" x="323.5" y="-292" font-family="Helvetica,sans-Serif" font-size="10.00">/Systems/BonusSystem.cpp</text>
</a>
</g>
</g>
<!-- Node8&#45;&gt;Node24 -->
<g id="edge31" class="edge">
<title>Node8&#45;&gt;Node24</title>
<path fill="none" stroke="midnightblue" d="M322.28,-347.28C322.57,-336.25 322.89,-324.25 323.13,-315.23"/>
<polygon fill="midnightblue" stroke="midnightblue" points="318.78,-347.34 322.02,-357.43 325.78,-347.52 318.78,-347.34"/>
</g>
<!-- Node9&#45;&gt;Node10 -->
<g id="edge9" class="edge">
<title>Node9&#45;&gt;Node10</title>
<path fill="none" stroke="midnightblue" d="M448.79,-275.02C425.59,-264.25 399.01,-251.93 379.05,-242.67"/>
<polygon fill="midnightblue" stroke="midnightblue" points="447.62,-278.33 458.16,-279.36 450.56,-271.98 447.62,-278.33"/>
</g>
<!-- Node9&#45;&gt;Node22 -->
<g id="edge29" class="edge">
<title>Node9&#45;&gt;Node22</title>
<path fill="none" stroke="midnightblue" d="M550.85,-275.02C573.44,-264.25 599.32,-251.93 618.75,-242.67"/>
<polygon fill="midnightblue" stroke="midnightblue" points="549.25,-271.9 541.73,-279.36 552.26,-278.22 549.25,-271.9"/>
</g>
<!-- Node23 -->
<g id="node23" class="node">
<title>Node23</title>
<g id="a_node23"><a xlink:href="_scene_8cpp.html" target="_top" xlink:title="For the love of god.">
<polygon fill="none" stroke="black" points="439.5,-212.5 439.5,-242.5 561.5,-242.5 561.5,-212.5 439.5,-212.5"/>
<text text-anchor="start" x="447.5" y="-230.5" font-family="Helvetica,sans-Serif" font-size="10.00">NekoEngine/src/Scenes</text>
<text text-anchor="middle" x="500.5" y="-219.5" font-family="Helvetica,sans-Serif" font-size="10.00">/Scene.cpp</text>
</a>
</g>
</g>
<!-- Node9&#45;&gt;Node23 -->
<g id="edge30" class="edge">
<title>Node9&#45;&gt;Node23</title>
<path fill="none" stroke="midnightblue" d="M500.5,-269.08C500.5,-260.01 500.5,-250.45 500.5,-242.89"/>
<polygon fill="midnightblue" stroke="midnightblue" points="497,-269.36 500.5,-279.36 504,-269.36 497,-269.36"/>
</g>
<!-- Node10&#45;&gt;Node4 -->
<g id="edge10" class="edge">
<title>Node10&#45;&gt;Node4</title>
<path fill="none" stroke="midnightblue" d="M265.25,-221.79C195.57,-215.97 103.73,-203.24 79.5,-176 59.88,-153.94 66.67,-115.01 71.02,-97.71"/>
<polygon fill="midnightblue" stroke="midnightblue" points="265.12,-225.29 275.36,-222.61 265.68,-218.32 265.12,-225.29"/>
</g>
<!-- Node10&#45;&gt;Node6 -->
<g id="edge27" class="edge">
<title>Node10&#45;&gt;Node6</title>
<path fill="none" stroke="midnightblue" d="M414.11,-208.11C429.26,-200.65 443.55,-190.3 452.5,-176 483.38,-126.68 459.56,-50.95 450,-25.32"/>
<polygon fill="midnightblue" stroke="midnightblue" points="412.29,-205.09 404.6,-212.39 415.16,-211.48 412.29,-205.09"/>
</g>
<!-- Node11 -->
<g id="node11" class="node">
<title>Node11</title>
<g id="a_node11"><a xlink:href="_custom_client_8hpp.html" target="_top" xlink:title=" ">
<polygon fill="none" stroke="black" points="501,-151 501,-170 656,-170 656,-151 501,-151"/>
<text text-anchor="middle" x="578.5" y="-158" font-family="Helvetica,sans-Serif" font-size="10.00">Client/include/CustomClient.hpp</text>
</a>
</g>
</g>
<!-- Node10&#45;&gt;Node11 -->
<g id="edge11" class="edge">
<title>Node10&#45;&gt;Node11</title>
<path fill="none" stroke="midnightblue" d="M407.77,-209.75C452.75,-197.04 512.74,-180.09 548.32,-170.03"/>
<polygon fill="midnightblue" stroke="midnightblue" points="406.79,-206.39 398.12,-212.48 408.7,-213.12 406.79,-206.39"/>
</g>
<!-- Node19 -->
<g id="node19" class="node">
<title>Node19</title>
<g id="a_node19"><a xlink:href="_player_system_8hpp.html" target="_top" xlink:title=" ">
<polygon fill="none" stroke="black" points="88.5,-151 88.5,-170 244.5,-170 244.5,-151 88.5,-151"/>
<text text-anchor="middle" x="166.5" y="-158" font-family="Helvetica,sans-Serif" font-size="10.00">Client/include/PlayerSystem.hpp</text>
</a>
</g>
</g>
<!-- Node10&#45;&gt;Node19 -->
<g id="edge23" class="edge">
<title>Node10&#45;&gt;Node19</title>
<path fill="none" stroke="midnightblue" d="M299.35,-208.95C264,-196.32 217.88,-179.85 190.32,-170.01"/>
<polygon fill="midnightblue" stroke="midnightblue" points="298.41,-212.33 309.01,-212.4 300.77,-205.74 298.41,-212.33"/>
</g>
<!-- Node20 -->
<g id="node20" class="node">
<title>Node20</title>
<g id="a_node20"><a xlink:href="_player_system_8cpp.html" target="_top" xlink:title=" ">
<polygon fill="none" stroke="black" points="178,-78.5 178,-97.5 317,-97.5 317,-78.5 178,-78.5"/>
<text text-anchor="middle" x="247.5" y="-85.5" font-family="Helvetica,sans-Serif" font-size="10.00">Client/src/PlayerSystem.cpp</text>
</a>
</g>
</g>
<!-- Node10&#45;&gt;Node20 -->
<g id="edge26" class="edge">
<title>Node10&#45;&gt;Node20</title>
<path fill="none" stroke="midnightblue" d="M321.23,-205.98C311.08,-197.45 299.97,-186.99 291.5,-176 271.65,-150.27 256.83,-114.2 250.65,-97.77"/>
<polygon fill="midnightblue" stroke="midnightblue" points="319.14,-208.78 329.11,-212.37 323.55,-203.35 319.14,-208.78"/>
</g>
<!-- Node21 -->
<g id="node21" class="node">
<title>Node21</title>
<g id="a_node21"><a xlink:href="_pattern_system_8cpp.html" target="_top" xlink:title="Physics System class implementation.">
<polygon fill="none" stroke="black" points="301,-145.5 301,-175.5 444,-175.5 444,-145.5 301,-145.5"/>
<text text-anchor="start" x="309" y="-163.5" font-family="Helvetica,sans-Serif" font-size="10.00">NekoEngine/src/ECS</text>
<text text-anchor="middle" x="372.5" y="-152.5" font-family="Helvetica,sans-Serif" font-size="10.00">/Systems/PatternSystem.cpp</text>
</a>
</g>
</g>
<!-- Node10&#45;&gt;Node21 -->
<g id="edge28" class="edge">
<title>Node10&#45;&gt;Node21</title>
<path fill="none" stroke="midnightblue" d="M357.18,-202.99C360.57,-193.8 364.35,-183.58 367.3,-175.58"/>
<polygon fill="midnightblue" stroke="midnightblue" points="353.89,-201.8 353.71,-212.4 360.45,-204.23 353.89,-201.8"/>
</g>
<!-- Node11&#45;&gt;Node6 -->
<g id="edge12" class="edge">
<title>Node11&#45;&gt;Node6</title>
<path fill="none" stroke="midnightblue" d="M563.64,-143.41C535.67,-113.1 476.05,-48.51 454.49,-25.15"/>
<polygon fill="midnightblue" stroke="midnightblue" points="561.28,-146.01 570.64,-150.98 566.43,-141.26 561.28,-146.01"/>
</g>
<!-- Node11&#45;&gt;Node12 -->
<g id="edge13" class="edge">
<title>Node11&#45;&gt;Node12</title>
<path fill="none" stroke="midnightblue" d="M607.68,-147.03C632.59,-136.39 668.84,-120.9 697.63,-108.6"/>
<polygon fill="midnightblue" stroke="midnightblue" points="606.22,-143.85 598.4,-151 608.97,-150.29 606.22,-143.85"/>
</g>
<!-- Node18 -->
<g id="node18" class="node">
<title>Node18</title>
<g id="a_node18"><a xlink:href="_window_8cpp.html" target="_top" xlink:title="Contains the NekoEngine Window class implementation.">
<polygon fill="none" stroke="black" points="514.5,-0.5 514.5,-30.5 642.5,-30.5 642.5,-0.5 514.5,-0.5"/>
<text text-anchor="start" x="522.5" y="-18.5" font-family="Helvetica,sans-Serif" font-size="10.00">NekoEngine/src/Graphics</text>
<text text-anchor="middle" x="578.5" y="-7.5" font-family="Helvetica,sans-Serif" font-size="10.00">/Window.cpp</text>
</a>
</g>
</g>
<!-- Node11&#45;&gt;Node18 -->
<g id="edge22" class="edge">
<title>Node11&#45;&gt;Node18</title>
<path fill="none" stroke="midnightblue" d="M578.5,-140.62C578.5,-111.65 578.5,-56.85 578.5,-30.86"/>
<polygon fill="midnightblue" stroke="midnightblue" points="575,-140.98 578.5,-150.98 582,-140.98 575,-140.98"/>
</g>
<!-- Node12&#45;&gt;Node6 -->
<g id="edge14" class="edge">
<title>Node12&#45;&gt;Node6</title>
<path fill="none" stroke="midnightblue" d="M676.34,-71.38C628.64,-60.25 563.1,-44.85 505.5,-31 497.6,-29.1 489.12,-27.03 481.12,-25.07"/>
<polygon fill="midnightblue" stroke="midnightblue" points="675.7,-74.83 686.24,-73.69 677.29,-68.01 675.7,-74.83"/>
</g>
<!-- Node12&#45;&gt;Node10 -->
<g id="edge15" class="edge">
<title>Node12&#45;&gt;Node10</title>
<path fill="none" stroke="midnightblue" d="M725.94,-117.24C712.06,-137.03 690.83,-162.29 665.5,-176 572.57,-226.28 534.75,-194.8 430.5,-212 427.65,-212.47 424.74,-212.96 421.8,-213.45"/>
<polygon fill="midnightblue" stroke="midnightblue" points="728.9,-119.12 731.61,-108.87 723.1,-115.19 728.9,-119.12"/>
</g>
<!-- Node13 -->
<g id="node13" class="node">
<title>Node13</title>
<g id="a_node13"><a xlink:href="_background_system_8cpp.html" target="_top" xlink:title=" ">
<polygon fill="none" stroke="black" points="660.5,-0.5 660.5,-30.5 824.5,-30.5 824.5,-0.5 660.5,-0.5"/>
<text text-anchor="start" x="668.5" y="-18.5" font-family="Helvetica,sans-Serif" font-size="10.00">NekoEngine/src/ECS</text>
<text text-anchor="middle" x="742.5" y="-7.5" font-family="Helvetica,sans-Serif" font-size="10.00">/Systems/BackgroundSystem.cpp</text>
</a>
</g>
</g>
<!-- Node12&#45;&gt;Node13 -->
<g id="edge16" class="edge">
<title>Node12&#45;&gt;Node13</title>
<path fill="none" stroke="midnightblue" d="M743.08,-57.08C742.95,-48.01 742.81,-38.45 742.7,-30.89"/>
<polygon fill="midnightblue" stroke="midnightblue" points="739.58,-57.41 743.22,-67.36 746.58,-57.31 739.58,-57.41"/>
</g>
<!-- Node14 -->
<g id="node14" class="node">
<title>Node14</title>
<g id="a_node14"><a xlink:href="_mouse_system_8cpp.html" target="_top" xlink:title=" ">
<polygon fill="none" stroke="black" points="843,-0.5 843,-30.5 984,-30.5 984,-0.5 843,-0.5"/>
<text text-anchor="start" x="851" y="-18.5" font-family="Helvetica,sans-Serif" font-size="10.00">NekoEngine/src/ECS</text>
<text text-anchor="middle" x="913.5" y="-7.5" font-family="Helvetica,sans-Serif" font-size="10.00">/Systems/MouseSystem.cpp</text>
</a>
</g>
</g>
<!-- Node12&#45;&gt;Node14 -->
<g id="edge17" class="edge">
<title>Node12&#45;&gt;Node14</title>
<path fill="none" stroke="midnightblue" d="M800.33,-63.43C826.62,-52.53 856.95,-39.95 879.6,-30.56"/>
<polygon fill="midnightblue" stroke="midnightblue" points="798.75,-60.3 790.85,-67.36 801.43,-66.76 798.75,-60.3"/>
</g>
<!-- Node15 -->
<g id="node15" class="node">
<title>Node15</title>
<g id="a_node15"><a xlink:href="_parallax_system_8cpp.html" target="_top" xlink:title=" ">
<polygon fill="none" stroke="black" points="1002.5,-0.5 1002.5,-30.5 1148.5,-30.5 1148.5,-0.5 1002.5,-0.5"/>
<text text-anchor="start" x="1010.5" y="-18.5" font-family="Helvetica,sans-Serif" font-size="10.00">NekoEngine/src/ECS</text>
<text text-anchor="middle" x="1075.5" y="-7.5" font-family="Helvetica,sans-Serif" font-size="10.00">/Systems/ParallaxSystem.cpp</text>
</a>
</g>
</g>
<!-- Node12&#45;&gt;Node15 -->
<g id="edge18" class="edge">
<title>Node12&#45;&gt;Node15</title>
<path fill="none" stroke="midnightblue" d="M810.37,-72.8C868.34,-60.49 951.77,-42.77 1009.49,-30.52"/>
<polygon fill="midnightblue" stroke="midnightblue" points="809.63,-69.38 800.57,-74.88 811.08,-76.23 809.63,-69.38"/>
</g>
<!-- Node16 -->
<g id="node16" class="node">
<title>Node16</title>
<g id="a_node16"><a xlink:href="_render_system_8cpp.html" target="_top" xlink:title="Render System class implementation.">
<polygon fill="none" stroke="black" points="1167,-0.5 1167,-30.5 1310,-30.5 1310,-0.5 1167,-0.5"/>
<text text-anchor="start" x="1175" y="-18.5" font-family="Helvetica,sans-Serif" font-size="10.00">NekoEngine/src/ECS</text>
<text text-anchor="middle" x="1238.5" y="-7.5" font-family="Helvetica,sans-Serif" font-size="10.00">/Systems/RenderSystem.cpp</text>
</a>
</g>
</g>
<!-- Node12&#45;&gt;Node16 -->
<g id="edge19" class="edge">
<title>Node12&#45;&gt;Node16</title>
<path fill="none" stroke="midnightblue" d="M810.47,-78.83C892.44,-68.63 1035.41,-50.18 1157.5,-31 1160.6,-30.51 1163.77,-30 1166.97,-29.47"/>
<polygon fill="midnightblue" stroke="midnightblue" points="810.03,-75.36 800.53,-80.07 810.89,-82.31 810.03,-75.36"/>
</g>
<!-- Node17 -->
<g id="node17" class="node">
<title>Node17</title>
<g id="a_node17"><a xlink:href="_text_system_8cpp.html" target="_top" xlink:title=" ">
<polygon fill="none" stroke="black" points="1328,-0.5 1328,-30.5 1459,-30.5 1459,-0.5 1328,-0.5"/>
<text text-anchor="start" x="1336" y="-18.5" font-family="Helvetica,sans-Serif" font-size="10.00">NekoEngine/src/ECS</text>
<text text-anchor="middle" x="1393.5" y="-7.5" font-family="Helvetica,sans-Serif" font-size="10.00">/Systems/TextSystem.cpp</text>
</a>
</g>
</g>
<!-- Node12&#45;&gt;Node17 -->
<g id="edge20" class="edge">
<title>Node12&#45;&gt;Node17</title>
<path fill="none" stroke="midnightblue" d="M810.62,-82.59C918.32,-75.03 1136.28,-57.79 1319.5,-31 1322.22,-30.6 1324.99,-30.17 1327.79,-29.72"/>
<polygon fill="midnightblue" stroke="midnightblue" points="810.27,-79.1 800.54,-83.29 810.76,-86.09 810.27,-79.1"/>
</g>
<!-- Node12&#45;&gt;Node18 -->
<g id="edge21" class="edge">
<title>Node12&#45;&gt;Node18</title>
<path fill="none" stroke="midnightblue" d="M688.34,-63.43C662.83,-52.53 633.38,-39.95 611.41,-30.56"/>
<polygon fill="midnightblue" stroke="midnightblue" points="686.97,-66.65 697.54,-67.36 689.72,-60.21 686.97,-66.65"/>
</g>
<!-- Node19&#45;&gt;Node4 -->
<g id="edge24" class="edge">
<title>Node19&#45;&gt;Node4</title>
<path fill="none" stroke="midnightblue" d="M146.93,-144.67C128.16,-130.44 100.46,-109.43 85,-97.72"/>
<polygon fill="midnightblue" stroke="midnightblue" points="145.01,-147.6 155.1,-150.86 149.24,-142.03 145.01,-147.6"/>
</g>
<!-- Node19&#45;&gt;Node20 -->
<g id="edge25" class="edge">
<title>Node19&#45;&gt;Node20</title>
<path fill="none" stroke="midnightblue" d="M184.21,-144.08C200.54,-129.87 224.21,-109.27 237.49,-97.72"/>
<polygon fill="midnightblue" stroke="midnightblue" points="181.68,-141.65 176.43,-150.86 186.27,-146.93 181.68,-141.65"/>
</g>
<!-- Node25&#45;&gt;Node9 -->
<g id="edge33" class="edge">
<title>Node25&#45;&gt;Node9</title>
<path fill="none" stroke="midnightblue" d="M601.99,-352.77C581.57,-342.35 558.01,-330.34 538.74,-320.51"/>
<polygon fill="midnightblue" stroke="midnightblue" points="600.63,-356 611.13,-357.43 603.81,-349.77 600.63,-356"/>
</g>
<!-- Node26 -->
<g id="node26" class="node">
<title>Node26</title>
<g id="a_node26"><a xlink:href="_collision_8cpp.html" target="_top" xlink:title=" ">
<polygon fill="none" stroke="black" points="591.5,-285 591.5,-315 707.5,-315 707.5,-285 591.5,-285"/>
<text text-anchor="start" x="599.5" y="-303" font-family="Helvetica,sans-Serif" font-size="10.00">NekoEngine/src/ECS</text>
<text text-anchor="middle" x="649.5" y="-292" font-family="Helvetica,sans-Serif" font-size="10.00">/Systems/Collision.cpp</text>
</a>
</g>
</g>
<!-- Node25&#45;&gt;Node26 -->
<g id="edge34" class="edge">
<title>Node25&#45;&gt;Node26</title>
<path fill="none" stroke="midnightblue" d="M649.5,-347.28C649.5,-336.25 649.5,-324.25 649.5,-315.23"/>
<polygon fill="midnightblue" stroke="midnightblue" points="646,-347.43 649.5,-357.43 653,-347.43 646,-347.43"/>
</g>
</g>
</svg>
