<?xml version="1.0" encoding="UTF-8" standalone="no"?>
<!DOCTYPE svg PUBLIC "-//W3C//DTD SVG 1.1//EN"
 "http://www.w3.org/Graphics/SVG/1.1/DTD/svg11.dtd">
<!-- Generated by graphviz version 2.49.3 (20211027.1501)
 -->
<!-- Title: NekoEngine/src/ECS/Components/Timer.cpp Pages: 1 -->
<svg width="548pt" height="162pt"
 viewBox="0.00 0.00 547.50 162.00" xmlns="http://www.w3.org/2000/svg" xmlns:xlink="http://www.w3.org/1999/xlink">
<g id="graph0" class="graph" transform="scale(1 1) rotate(0) translate(4 158)">
<title>NekoEngine/src/ECS/Components/Timer.cpp</title>
<!-- Node1 -->
<g id="node1" class="node">
<title>Node1</title>
<g id="a_node1"><a xlink:title="Timer implementation.">
<polygon fill="#bfbfbf" stroke="black" points="251.5,-123.5 251.5,-153.5 371.5,-153.5 371.5,-123.5 251.5,-123.5"/>
<text text-anchor="start" x="259.5" y="-141.5" font-family="Helvetica,sans-Serif" font-size="10.00">NekoEngine/src/ECS</text>
<text text-anchor="middle" x="311.5" y="-130.5" font-family="Helvetica,sans-Serif" font-size="10.00">/Components/Timer.cpp</text>
</a>
</g>
</g>
<!-- Node2 -->
<g id="node2" class="node">
<title>Node2</title>
<g id="a_node2"><a xlink:href="_types_8hpp.html" target="_top" xlink:title="NekoEngine types definition.">
<polygon fill="none" stroke="black" points="0,-62 0,-81 139,-81 139,-62 0,-62"/>
<text text-anchor="middle" x="69.5" y="-69" font-family="Helvetica,sans-Serif" font-size="10.00">NekoEngine/ECS/Types.hpp</text>
</a>
</g>
</g>
<!-- Node1&#45;&gt;Node2 -->
<g id="edge1" class="edge">
<title>Node1&#45;&gt;Node2</title>
<path fill="none" stroke="midnightblue" d="M259.29,-123.48C214.87,-111.55 151.94,-94.64 110.93,-83.63"/>
<polygon fill="midnightblue" stroke="midnightblue" points="111.82,-80.24 101.25,-81.03 110,-87 111.82,-80.24"/>
</g>
<!-- Node5 -->
<g id="node5" class="node">
<title>Node5</title>
<g id="a_node5"><a xlink:href="_timer_8hpp.html" target="_top" xlink:title="Timer component.">
<polygon fill="none" stroke="black" points="157,-56.5 157,-86.5 306,-86.5 306,-56.5 157,-56.5"/>
<text text-anchor="start" x="165" y="-74.5" font-family="Helvetica,sans-Serif" font-size="10.00">NekoEngine/ECS/Components</text>
<text text-anchor="middle" x="231.5" y="-63.5" font-family="Helvetica,sans-Serif" font-size="10.00">/Timer.hpp</text>
</a>
</g>
</g>
<!-- Node1&#45;&gt;Node5 -->
<g id="edge4" class="edge">
<title>Node1&#45;&gt;Node5</title>
<path fill="none" stroke="midnightblue" d="M294.14,-123.4C283.24,-114.54 268.99,-102.96 256.84,-93.09"/>
<polygon fill="midnightblue" stroke="midnightblue" points="258.79,-90.17 248.82,-86.58 254.38,-95.6 258.79,-90.17"/>
</g>
<!-- Node7 -->
<g id="node7" class="node">
<title>Node7</title>
<g id="a_node7"><a xlink:href="_neko_exception_8hpp.html" target="_top" xlink:title="Contains the NekoEngine main exception type.">
<polygon fill="none" stroke="black" points="324,-56.5 324,-86.5 461,-86.5 461,-56.5 324,-56.5"/>
<text text-anchor="start" x="332" y="-74.5" font-family="Helvetica,sans-Serif" font-size="10.00">NekoEngine/NekoException</text>
<text text-anchor="middle" x="392.5" y="-63.5" font-family="Helvetica,sans-Serif" font-size="10.00">/NekoException.hpp</text>
</a>
</g>
</g>
<!-- Node1&#45;&gt;Node7 -->
<g id="edge6" class="edge">
<title>Node1&#45;&gt;Node7</title>
<path fill="none" stroke="midnightblue" d="M329.08,-123.4C340.11,-114.54 354.54,-102.96 366.85,-93.09"/>
<polygon fill="midnightblue" stroke="midnightblue" points="369.35,-95.56 374.96,-86.58 364.97,-90.11 369.35,-95.56"/>
</g>
<!-- Node9 -->
<g id="node9" class="node">
<title>Node9</title>
<g id="a_node9"><a xlink:title=" ">
<polygon fill="none" stroke="#bfbfbf" points="479.5,-62 479.5,-81 539.5,-81 539.5,-62 479.5,-62"/>
<text text-anchor="middle" x="509.5" y="-69" font-family="Helvetica,sans-Serif" font-size="10.00">filesystem</text>
</a>
</g>
</g>
<!-- Node1&#45;&gt;Node9 -->
<g id="edge8" class="edge">
<title>Node1&#45;&gt;Node9</title>
<path fill="none" stroke="midnightblue" d="M357.96,-123.39C389.77,-113.58 432.85,-99.97 470.5,-87 472.75,-86.23 475.06,-85.41 477.39,-84.58"/>
<polygon fill="midnightblue" stroke="midnightblue" points="478.68,-87.83 486.88,-81.12 476.29,-81.25 478.68,-87.83"/>
</g>
<!-- Node3 -->
<g id="node3" class="node">
<title>Node3</title>
<g id="a_node3"><a xlink:title=" ">
<polygon fill="none" stroke="#bfbfbf" points="15.5,-0.5 15.5,-19.5 61.5,-19.5 61.5,-0.5 15.5,-0.5"/>
<text text-anchor="middle" x="38.5" y="-7.5" font-family="Helvetica,sans-Serif" font-size="10.00">cstdint</text>
</a>
</g>
</g>
<!-- Node2&#45;&gt;Node3 -->
<g id="edge2" class="edge">
<title>Node2&#45;&gt;Node3</title>
<path fill="none" stroke="midnightblue" d="M65.06,-61.98C60.55,-53.32 53.43,-39.65 47.69,-28.65"/>
<polygon fill="midnightblue" stroke="midnightblue" points="50.66,-26.76 42.93,-19.51 44.45,-29.99 50.66,-26.76"/>
</g>
<!-- Node4 -->
<g id="node4" class="node">
<title>Node4</title>
<g id="a_node4"><a xlink:title=" ">
<polygon fill="none" stroke="#bfbfbf" points="80,-0.5 80,-19.5 121,-19.5 121,-0.5 80,-0.5"/>
<text text-anchor="middle" x="100.5" y="-7.5" font-family="Helvetica,sans-Serif" font-size="10.00">bitset</text>
</a>
</g>
</g>
<!-- Node2&#45;&gt;Node4 -->
<g id="edge3" class="edge">
<title>Node2&#45;&gt;Node4</title>
<path fill="none" stroke="midnightblue" d="M73.94,-61.98C78.45,-53.32 85.57,-39.65 91.31,-28.65"/>
<polygon fill="midnightblue" stroke="midnightblue" points="94.55,-29.99 96.07,-19.51 88.34,-26.76 94.55,-29.99"/>
</g>
<!-- Node6 -->
<g id="node6" class="node">
<title>Node6</title>
<g id="a_node6"><a xlink:title=" ">
<polygon fill="none" stroke="#bfbfbf" points="208.5,-0.5 208.5,-19.5 254.5,-19.5 254.5,-0.5 208.5,-0.5"/>
<text text-anchor="middle" x="231.5" y="-7.5" font-family="Helvetica,sans-Serif" font-size="10.00">chrono</text>
</a>
</g>
</g>
<!-- Node5&#45;&gt;Node6 -->
<g id="edge5" class="edge">
<title>Node5&#45;&gt;Node6</title>
<path fill="none" stroke="midnightblue" d="M231.5,-56.4C231.5,-48.47 231.5,-38.46 231.5,-29.86"/>
<polygon fill="midnightblue" stroke="midnightblue" points="235,-29.66 231.5,-19.66 228,-29.66 235,-29.66"/>
</g>
<!-- Node8 -->
<g id="node8" class="node">
<title>Node8</title>
<g id="a_node8"><a xlink:title=" ">
<polygon fill="none" stroke="#bfbfbf" points="372,-0.5 372,-19.5 413,-19.5 413,-0.5 372,-0.5"/>
<text text-anchor="middle" x="392.5" y="-7.5" font-family="Helvetica,sans-Serif" font-size="10.00">string</text>
</a>
</g>
</g>
<!-- Node7&#45;&gt;Node8 -->
<g id="edge7" class="edge">
<title>Node7&#45;&gt;Node8</title>
<path fill="none" stroke="midnightblue" d="M392.5,-56.4C392.5,-48.47 392.5,-38.46 392.5,-29.86"/>
<polygon fill="midnightblue" stroke="midnightblue" points="396,-29.66 392.5,-19.66 389,-29.66 396,-29.66"/>
</g>
</g>
</svg>
