<?xml version="1.0" encoding="UTF-8" standalone="no"?>
<!DOCTYPE svg PUBLIC "-//W3C//DTD SVG 1.1//EN"
 "http://www.w3.org/Graphics/SVG/1.1/DTD/svg11.dtd">
<!-- Generated by graphviz version 2.49.3 (20211027.1501)
 -->
<!-- Title: NekoEngine/include/NekoEngine/ECS/Components/Transform.hpp Pages: 1 -->
<svg width="1615pt" height="641pt"
 viewBox="0.00 0.00 1615.00 641.00" xmlns="http://www.w3.org/2000/svg" xmlns:xlink="http://www.w3.org/1999/xlink">
<g id="graph0" class="graph" transform="scale(1 1) rotate(0) translate(4 637)">
<title>NekoEngine/include/NekoEngine/ECS/Components/Transform.hpp</title>
<!-- Node1 -->
<g id="node1" class="node">
<title>Node1</title>
<g id="a_node1"><a xlink:title="Transform component.">
<polygon fill="#bfbfbf" stroke="black" points="440,-591.5 440,-632.5 592,-632.5 592,-591.5 440,-591.5"/>
<text text-anchor="start" x="448" y="-620.5" font-family="Helvetica,sans-Serif" font-size="10.00">NekoEngine/include</text>
<text text-anchor="start" x="448" y="-609.5" font-family="Helvetica,sans-Serif" font-size="10.00">/NekoEngine/ECS/Components</text>
<text text-anchor="middle" x="516" y="-598.5" font-family="Helvetica,sans-Serif" font-size="10.00">/Transform.hpp</text>
</a>
</g>
</g>
<!-- Node2 -->
<g id="node2" class="node">
<title>Node2</title>
<g id="a_node2"><a xlink:href="_components_8hpp.html" target="_top" xlink:title="Components.">
<polygon fill="none" stroke="black" points="892,-435.5 892,-476.5 1044,-476.5 1044,-435.5 892,-435.5"/>
<text text-anchor="start" x="900" y="-464.5" font-family="Helvetica,sans-Serif" font-size="10.00">NekoEngine/include</text>
<text text-anchor="start" x="900" y="-453.5" font-family="Helvetica,sans-Serif" font-size="10.00">/NekoEngine/ECS/Components</text>
<text text-anchor="middle" x="968" y="-442.5" font-family="Helvetica,sans-Serif" font-size="10.00">/Components.hpp</text>
</a>
</g>
</g>
<!-- Node1&#45;&gt;Node2 -->
<g id="edge1" class="edge">
<title>Node1&#45;&gt;Node2</title>
<path fill="none" stroke="midnightblue" d="M582.94,-588.19C671.68,-557.96 826.79,-505.11 910.51,-476.59"/>
<polygon fill="midnightblue" stroke="midnightblue" points="581.58,-584.96 573.25,-591.5 583.84,-591.58 581.58,-584.96"/>
</g>
<!-- Node13 -->
<g id="node13" class="node">
<title>Node13</title>
<g id="a_node13"><a xlink:href="_background_system_8cpp.html" target="_top" xlink:title=" ">
<polygon fill="none" stroke="black" points="0,-0.5 0,-30.5 164,-30.5 164,-0.5 0,-0.5"/>
<text text-anchor="start" x="8" y="-18.5" font-family="Helvetica,sans-Serif" font-size="10.00">NekoEngine/src/ECS</text>
<text text-anchor="middle" x="82" y="-7.5" font-family="Helvetica,sans-Serif" font-size="10.00">/Systems/BackgroundSystem.cpp</text>
</a>
</g>
</g>
<!-- Node1&#45;&gt;Node13 -->
<g id="edge43" class="edge">
<title>Node1&#45;&gt;Node13</title>
<path fill="none" stroke="midnightblue" d="M429.45,-610.75C321.23,-605.34 150,-577.71 150,-457 150,-457 150,-457 150,-159.5 150,-108.09 113.72,-55.49 94.16,-30.86"/>
<polygon fill="midnightblue" stroke="midnightblue" points="429.57,-614.26 439.72,-611.2 429.89,-607.26 429.57,-614.26"/>
</g>
<!-- Node14 -->
<g id="node14" class="node">
<title>Node14</title>
<g id="a_node14"><a xlink:href="_mouse_system_8cpp.html" target="_top" xlink:title=" ">
<polygon fill="none" stroke="black" points="182.5,-0.5 182.5,-30.5 323.5,-30.5 323.5,-0.5 182.5,-0.5"/>
<text text-anchor="start" x="190.5" y="-18.5" font-family="Helvetica,sans-Serif" font-size="10.00">NekoEngine/src/ECS</text>
<text text-anchor="middle" x="253" y="-7.5" font-family="Helvetica,sans-Serif" font-size="10.00">/Systems/MouseSystem.cpp</text>
</a>
</g>
</g>
<!-- Node1&#45;&gt;Node14 -->
<g id="edge44" class="edge">
<title>Node1&#45;&gt;Node14</title>
<path fill="none" stroke="midnightblue" d="M442.23,-587.75C385.23,-564.65 316,-523 316,-457 316,-457 316,-457 316,-159.5 316,-108.5 282.02,-55.28 263.97,-30.61"/>
<polygon fill="midnightblue" stroke="midnightblue" points="441.03,-591.04 451.62,-591.44 443.59,-584.52 441.03,-591.04"/>
</g>
<!-- Node15 -->
<g id="node15" class="node">
<title>Node15</title>
<g id="a_node15"><a xlink:href="_parallax_system_8cpp.html" target="_top" xlink:title=" ">
<polygon fill="none" stroke="black" points="342,-0.5 342,-30.5 488,-30.5 488,-0.5 342,-0.5"/>
<text text-anchor="start" x="350" y="-18.5" font-family="Helvetica,sans-Serif" font-size="10.00">NekoEngine/src/ECS</text>
<text text-anchor="middle" x="415" y="-7.5" font-family="Helvetica,sans-Serif" font-size="10.00">/Systems/ParallaxSystem.cpp</text>
</a>
</g>
</g>
<!-- Node1&#45;&gt;Node15 -->
<g id="edge45" class="edge">
<title>Node1&#45;&gt;Node15</title>
<path fill="none" stroke="midnightblue" d="M484.96,-584.38C455.6,-556.06 416,-508.36 416,-457 416,-457 416,-457 416,-159.5 416,-112.33 415.45,-56.41 415.17,-30.71"/>
<polygon fill="midnightblue" stroke="midnightblue" points="482.86,-587.21 492.55,-591.49 487.65,-582.1 482.86,-587.21"/>
</g>
<!-- Node16 -->
<g id="node16" class="node">
<title>Node16</title>
<g id="a_node16"><a xlink:href="_render_system_8cpp.html" target="_top" xlink:title="Render System class implementation.">
<polygon fill="none" stroke="black" points="506.5,-0.5 506.5,-30.5 649.5,-30.5 649.5,-0.5 506.5,-0.5"/>
<text text-anchor="start" x="514.5" y="-18.5" font-family="Helvetica,sans-Serif" font-size="10.00">NekoEngine/src/ECS</text>
<text text-anchor="middle" x="578" y="-7.5" font-family="Helvetica,sans-Serif" font-size="10.00">/Systems/RenderSystem.cpp</text>
</a>
</g>
</g>
<!-- Node1&#45;&gt;Node16 -->
<g id="edge47" class="edge">
<title>Node1&#45;&gt;Node16</title>
<path fill="none" stroke="midnightblue" d="M497.16,-582.71C492.02,-574.08 486.82,-564.39 483,-555 466.1,-513.46 459,-501.84 459,-457 459,-457 459,-457 459,-159.5 459,-100.56 519.48,-52.98 554.2,-30.52"/>
<polygon fill="midnightblue" stroke="midnightblue" points="494.21,-584.59 502.44,-591.26 500.16,-580.91 494.21,-584.59"/>
</g>
<!-- Node17 -->
<g id="node17" class="node">
<title>Node17</title>
<g id="a_node17"><a xlink:href="_text_system_8cpp.html" target="_top" xlink:title=" ">
<polygon fill="none" stroke="black" points="667.5,-0.5 667.5,-30.5 798.5,-30.5 798.5,-0.5 667.5,-0.5"/>
<text text-anchor="start" x="675.5" y="-18.5" font-family="Helvetica,sans-Serif" font-size="10.00">NekoEngine/src/ECS</text>
<text text-anchor="middle" x="733" y="-7.5" font-family="Helvetica,sans-Serif" font-size="10.00">/Systems/TextSystem.cpp</text>
</a>
</g>
</g>
<!-- Node1&#45;&gt;Node17 -->
<g id="edge48" class="edge">
<title>Node1&#45;&gt;Node17</title>
<path fill="none" stroke="midnightblue" d="M510.09,-581.04C504.52,-550.11 497,-500.38 497,-457 497,-457 497,-457 497,-299 497,-259.42 492.08,-243.53 516,-212 574.99,-134.22 649.9,-185.93 710,-109 728.13,-85.79 732.17,-50.14 732.95,-30.56"/>
<polygon fill="midnightblue" stroke="midnightblue" points="506.71,-581.97 511.97,-591.16 513.59,-580.69 506.71,-581.97"/>
</g>
<!-- Node21 -->
<g id="node21" class="node">
<title>Node21</title>
<g id="a_node21"><a xlink:href="_pattern_system_8cpp.html" target="_top" xlink:title="Physics System class implementation.">
<polygon fill="none" stroke="black" points="1332.5,-145.5 1332.5,-175.5 1475.5,-175.5 1475.5,-145.5 1332.5,-145.5"/>
<text text-anchor="start" x="1340.5" y="-163.5" font-family="Helvetica,sans-Serif" font-size="10.00">NekoEngine/src/ECS</text>
<text text-anchor="middle" x="1404" y="-152.5" font-family="Helvetica,sans-Serif" font-size="10.00">/Systems/PatternSystem.cpp</text>
</a>
</g>
</g>
<!-- Node1&#45;&gt;Node21 -->
<g id="edge46" class="edge">
<title>Node1&#45;&gt;Node21</title>
<path fill="none" stroke="midnightblue" d="M602.17,-602.64C801.17,-581.43 1283.49,-518.56 1385,-399 1441.09,-332.94 1418.1,-215.95 1407.9,-175.62"/>
<polygon fill="midnightblue" stroke="midnightblue" points="601.63,-599.17 592.05,-603.71 602.36,-606.14 601.63,-599.17"/>
</g>
<!-- Node22 -->
<g id="node22" class="node">
<title>Node22</title>
<g id="a_node22"><a xlink:href="_timer_system_8cpp.html" target="_top" xlink:title=" ">
<polygon fill="none" stroke="black" points="525.5,-212.5 525.5,-242.5 662.5,-242.5 662.5,-212.5 525.5,-212.5"/>
<text text-anchor="start" x="533.5" y="-230.5" font-family="Helvetica,sans-Serif" font-size="10.00">NekoEngine/src/ECS</text>
<text text-anchor="middle" x="594" y="-219.5" font-family="Helvetica,sans-Serif" font-size="10.00">/Systems/TimerSystem.cpp</text>
</a>
</g>
</g>
<!-- Node1&#45;&gt;Node22 -->
<g id="edge49" class="edge">
<title>Node1&#45;&gt;Node22</title>
<path fill="none" stroke="midnightblue" d="M521.91,-581.04C527.48,-550.11 535,-500.38 535,-457 535,-457 535,-457 535,-377 535,-332.16 540.59,-319.89 559,-279 564.96,-265.77 574.46,-252.35 582.07,-242.67"/>
<polygon fill="midnightblue" stroke="midnightblue" points="518.41,-580.69 520.03,-591.16 525.29,-581.97 518.41,-580.69"/>
</g>
<!-- Node28 -->
<g id="node28" class="node">
<title>Node28</title>
<g id="a_node28"><a xlink:href="_patterns_8hpp.html" target="_top" xlink:title="Patterns component.">
<polygon fill="none" stroke="black" points="1366,-513.5 1366,-554.5 1518,-554.5 1518,-513.5 1366,-513.5"/>
<text text-anchor="start" x="1374" y="-542.5" font-family="Helvetica,sans-Serif" font-size="10.00">NekoEngine/include</text>
<text text-anchor="start" x="1374" y="-531.5" font-family="Helvetica,sans-Serif" font-size="10.00">/NekoEngine/ECS/Components</text>
<text text-anchor="middle" x="1442" y="-520.5" font-family="Helvetica,sans-Serif" font-size="10.00">/Patterns.hpp</text>
</a>
</g>
</g>
<!-- Node1&#45;&gt;Node28 -->
<g id="edge38" class="edge">
<title>Node1&#45;&gt;Node28</title>
<path fill="none" stroke="midnightblue" d="M602.41,-609.53C754.62,-605.97 1080.18,-594.08 1352,-555 1356.44,-554.36 1360.98,-553.62 1365.55,-552.82"/>
<polygon fill="midnightblue" stroke="midnightblue" points="602.11,-606.03 592.2,-609.76 602.27,-613.03 602.11,-606.03"/>
</g>
<!-- Node29 -->
<g id="node29" class="node">
<title>Node29</title>
<g id="a_node29"><a xlink:href="_patterns_8cpp.html" target="_top" xlink:title="Patterns implementation.">
<polygon fill="none" stroke="black" points="1475,-441 1475,-471 1607,-471 1607,-441 1475,-441"/>
<text text-anchor="start" x="1483" y="-459" font-family="Helvetica,sans-Serif" font-size="10.00">NekoEngine/src/ECS</text>
<text text-anchor="middle" x="1541" y="-448" font-family="Helvetica,sans-Serif" font-size="10.00">/Components/Patterns.cpp</text>
</a>
</g>
</g>
<!-- Node1&#45;&gt;Node29 -->
<g id="edge42" class="edge">
<title>Node1&#45;&gt;Node29</title>
<path fill="none" stroke="midnightblue" d="M602.3,-609.17C840.73,-603.72 1493.15,-586.04 1527,-555 1550.18,-533.74 1547.37,-492.8 1543.89,-471.18"/>
<polygon fill="midnightblue" stroke="midnightblue" points="602.21,-605.67 592.29,-609.4 602.37,-612.67 602.21,-605.67"/>
</g>
<!-- Node3 -->
<g id="node3" class="node">
<title>Node3</title>
<g id="a_node3"><a xlink:href="_client_collision_8hpp.html" target="_top" xlink:title=" ">
<polygon fill="none" stroke="black" points="1044,-368.5 1044,-387.5 1202,-387.5 1202,-368.5 1044,-368.5"/>
<text text-anchor="middle" x="1123" y="-375.5" font-family="Helvetica,sans-Serif" font-size="10.00">Client/include/ClientCollision.hpp</text>
</a>
</g>
</g>
<!-- Node2&#45;&gt;Node3 -->
<g id="edge2" class="edge">
<title>Node2&#45;&gt;Node3</title>
<path fill="none" stroke="midnightblue" d="M1017.06,-430.94C1047.3,-416.12 1084.25,-398 1105.56,-387.55"/>
<polygon fill="midnightblue" stroke="midnightblue" points="1015.35,-427.88 1007.92,-435.43 1018.44,-434.17 1015.35,-427.88"/>
</g>
<!-- Node8 -->
<g id="node8" class="node">
<title>Node8</title>
<g id="a_node8"><a xlink:href="_bonus_system_8hpp.html" target="_top" xlink:title=" ">
<polygon fill="none" stroke="black" points="852,-357.5 852,-398.5 988,-398.5 988,-357.5 852,-357.5"/>
<text text-anchor="start" x="860" y="-386.5" font-family="Helvetica,sans-Serif" font-size="10.00">NekoEngine/include</text>
<text text-anchor="start" x="860" y="-375.5" font-family="Helvetica,sans-Serif" font-size="10.00">/NekoEngine/ECS/Systems</text>
<text text-anchor="middle" x="920" y="-364.5" font-family="Helvetica,sans-Serif" font-size="10.00">/BonusSystem.hpp</text>
</a>
</g>
</g>
<!-- Node2&#45;&gt;Node8 -->
<g id="edge7" class="edge">
<title>Node2&#45;&gt;Node8</title>
<path fill="none" stroke="midnightblue" d="M950.16,-426.76C944.22,-417.35 937.74,-407.1 932.32,-398.51"/>
<polygon fill="midnightblue" stroke="midnightblue" points="947.34,-428.84 955.64,-435.43 953.26,-425.1 947.34,-428.84"/>
</g>
<!-- Node10 -->
<g id="node10" class="node">
<title>Node10</title>
<g id="a_node10"><a xlink:href="_neko_engine_8hpp.html" target="_top" xlink:title=" ">
<polygon fill="none" stroke="black" points="950,-212.5 950,-242.5 1096,-242.5 1096,-212.5 950,-212.5"/>
<text text-anchor="start" x="958" y="-230.5" font-family="Helvetica,sans-Serif" font-size="10.00">NekoEngine/include</text>
<text text-anchor="middle" x="1023" y="-219.5" font-family="Helvetica,sans-Serif" font-size="10.00">/NekoEngine/NekoEngine.hpp</text>
</a>
</g>
</g>
<!-- Node2&#45;&gt;Node10 -->
<g id="edge36" class="edge">
<title>Node2&#45;&gt;Node10</title>
<path fill="none" stroke="midnightblue" d="M987.94,-426.76C1005.03,-400.7 1028.37,-360.22 1038,-321 1044.71,-293.67 1035.5,-261.03 1028.82,-242.75"/>
<polygon fill="midnightblue" stroke="midnightblue" points="984.84,-425.09 982.19,-435.35 990.66,-428.99 984.84,-425.09"/>
</g>
<!-- Node12 -->
<g id="node12" class="node">
<title>Node12</title>
<g id="a_node12"><a xlink:href="_window_8hpp.html" target="_top" xlink:title="Contains the NekoEngine Window class wrapper.">
<polygon fill="none" stroke="black" points="587,-67.5 587,-108.5 701,-108.5 701,-67.5 587,-67.5"/>
<text text-anchor="start" x="595" y="-96.5" font-family="Helvetica,sans-Serif" font-size="10.00">NekoEngine/include</text>
<text text-anchor="start" x="595" y="-85.5" font-family="Helvetica,sans-Serif" font-size="10.00">/NekoEngine/Graphics</text>
<text text-anchor="middle" x="644" y="-74.5" font-family="Helvetica,sans-Serif" font-size="10.00">/Window.hpp</text>
</a>
</g>
</g>
<!-- Node2&#45;&gt;Node12 -->
<g id="edge35" class="edge">
<title>Node2&#45;&gt;Node12</title>
<path fill="none" stroke="midnightblue" d="M881.78,-448.4C824.88,-441.52 749.89,-427.49 689,-399 638.89,-375.55 615.9,-370.89 592,-321 583.93,-304.17 581.86,-294.68 592,-279 613.17,-246.26 650.83,-275.74 672,-243 699.15,-201.01 672.81,-139.82 655.84,-108.73"/>
<polygon fill="midnightblue" stroke="midnightblue" points="881.48,-451.89 891.82,-449.57 882.29,-444.94 881.48,-451.89"/>
</g>
<!-- Node25 -->
<g id="node25" class="node">
<title>Node25</title>
<g id="a_node25"><a xlink:href="_collision_8hpp.html" target="_top" xlink:title=" ">
<polygon fill="none" stroke="black" points="698,-357.5 698,-398.5 834,-398.5 834,-357.5 698,-357.5"/>
<text text-anchor="start" x="706" y="-386.5" font-family="Helvetica,sans-Serif" font-size="10.00">NekoEngine/include</text>
<text text-anchor="start" x="706" y="-375.5" font-family="Helvetica,sans-Serif" font-size="10.00">/NekoEngine/ECS/Systems</text>
<text text-anchor="middle" x="766" y="-364.5" font-family="Helvetica,sans-Serif" font-size="10.00">/Collision.hpp</text>
</a>
</g>
</g>
<!-- Node2&#45;&gt;Node25 -->
<g id="edge32" class="edge">
<title>Node2&#45;&gt;Node25</title>
<path fill="none" stroke="midnightblue" d="M906.57,-431.89C878.21,-421.22 844.91,-408.69 817.84,-398.51"/>
<polygon fill="midnightblue" stroke="midnightblue" points="905.39,-435.18 915.98,-435.43 907.85,-428.63 905.39,-435.18"/>
</g>
<!-- Node27 -->
<g id="node27" class="node">
<title>Node27</title>
<g id="a_node27"><a xlink:href="_animation_system_8cpp.html" target="_top" xlink:title=" ">
<polygon fill="none" stroke="black" points="1220.5,-363 1220.5,-393 1375.5,-393 1375.5,-363 1220.5,-363"/>
<text text-anchor="start" x="1228.5" y="-381" font-family="Helvetica,sans-Serif" font-size="10.00">NekoEngine/src/ECS</text>
<text text-anchor="middle" x="1298" y="-370" font-family="Helvetica,sans-Serif" font-size="10.00">/Systems/AnimationSystem.cpp</text>
</a>
</g>
</g>
<!-- Node2&#45;&gt;Node27 -->
<g id="edge37" class="edge">
<title>Node2&#45;&gt;Node27</title>
<path fill="none" stroke="midnightblue" d="M1053.93,-435.21C1111.42,-421.97 1185.69,-404.87 1237.13,-393.02"/>
<polygon fill="midnightblue" stroke="midnightblue" points="1053.08,-431.81 1044.12,-437.47 1054.65,-438.63 1053.08,-431.81"/>
</g>
<!-- Node4 -->
<g id="node4" class="node">
<title>Node4</title>
<g id="a_node4"><a xlink:href="_client_game_8hpp.html" target="_top" xlink:title=" ">
<polygon fill="none" stroke="black" points="1170.5,-78.5 1170.5,-97.5 1317.5,-97.5 1317.5,-78.5 1170.5,-78.5"/>
<text text-anchor="middle" x="1244" y="-85.5" font-family="Helvetica,sans-Serif" font-size="10.00">Client/include/ClientGame.hpp</text>
</a>
</g>
</g>
<!-- Node3&#45;&gt;Node4 -->
<g id="edge3" class="edge">
<title>Node3&#45;&gt;Node4</title>
<path fill="none" stroke="midnightblue" d="M1170.62,-365.23C1193.81,-356.89 1219.71,-343.13 1234,-321 1281.67,-247.17 1255.4,-130.84 1246.56,-97.94"/>
<polygon fill="midnightblue" stroke="midnightblue" points="1169.27,-361.99 1160.89,-368.48 1171.49,-368.63 1169.27,-361.99"/>
</g>
<!-- Node7 -->
<g id="node7" class="node">
<title>Node7</title>
<g id="a_node7"><a xlink:href="_client_collision_8cpp.html" target="_top" xlink:title=" ">
<polygon fill="none" stroke="black" points="1085,-290.5 1085,-309.5 1225,-309.5 1225,-290.5 1085,-290.5"/>
<text text-anchor="middle" x="1155" y="-297.5" font-family="Helvetica,sans-Serif" font-size="10.00">Client/src/ClientCollision.cpp</text>
</a>
</g>
</g>
<!-- Node3&#45;&gt;Node7 -->
<g id="edge6" class="edge">
<title>Node3&#45;&gt;Node7</title>
<path fill="none" stroke="midnightblue" d="M1130.72,-358.67C1137.27,-343.11 1146.38,-321.47 1151.37,-309.62"/>
<polygon fill="midnightblue" stroke="midnightblue" points="1127.33,-357.71 1126.67,-368.28 1133.78,-360.42 1127.33,-357.71"/>
</g>
<!-- Node5 -->
<g id="node5" class="node">
<title>Node5</title>
<g id="a_node5"><a xlink:href="_client_game_8cpp.html" target="_top" xlink:title=" ">
<polygon fill="none" stroke="black" points="1179,-6 1179,-25 1309,-25 1309,-6 1179,-6"/>
<text text-anchor="middle" x="1244" y="-13" font-family="Helvetica,sans-Serif" font-size="10.00">Client/src/ClientGame.cpp</text>
</a>
</g>
</g>
<!-- Node4&#45;&gt;Node5 -->
<g id="edge4" class="edge">
<title>Node4&#45;&gt;Node5</title>
<path fill="none" stroke="midnightblue" d="M1244,-67.94C1244,-54.03 1244,-35.82 1244,-25.22"/>
<polygon fill="midnightblue" stroke="midnightblue" points="1240.5,-68.36 1244,-78.36 1247.5,-68.36 1240.5,-68.36"/>
</g>
<!-- Node6 -->
<g id="node6" class="node">
<title>Node6</title>
<g id="a_node6"><a xlink:href="main_8cpp.html" target="_top" xlink:title="Entrypoint.">
<polygon fill="none" stroke="black" points="963,-6 963,-25 1063,-25 1063,-6 963,-6"/>
<text text-anchor="middle" x="1013" y="-13" font-family="Helvetica,sans-Serif" font-size="10.00">Client/src/main.cpp</text>
</a>
</g>
</g>
<!-- Node4&#45;&gt;Node6 -->
<g id="edge5" class="edge">
<title>Node4&#45;&gt;Node6</title>
<path fill="none" stroke="midnightblue" d="M1206.47,-75.55C1160.13,-61.4 1082.38,-37.68 1040.96,-25.03"/>
<polygon fill="midnightblue" stroke="midnightblue" points="1205.55,-78.92 1216.14,-78.5 1207.59,-72.23 1205.55,-78.92"/>
</g>
<!-- Node9 -->
<g id="node9" class="node">
<title>Node9</title>
<g id="a_node9"><a xlink:href="_systems_8hpp.html" target="_top" xlink:title="Systems.">
<polygon fill="none" stroke="black" points="735,-279.5 735,-320.5 871,-320.5 871,-279.5 735,-279.5"/>
<text text-anchor="start" x="743" y="-308.5" font-family="Helvetica,sans-Serif" font-size="10.00">NekoEngine/include</text>
<text text-anchor="start" x="743" y="-297.5" font-family="Helvetica,sans-Serif" font-size="10.00">/NekoEngine/ECS/Systems</text>
<text text-anchor="middle" x="803" y="-286.5" font-family="Helvetica,sans-Serif" font-size="10.00">/Systems.hpp</text>
</a>
</g>
</g>
<!-- Node8&#45;&gt;Node9 -->
<g id="edge8" class="edge">
<title>Node8&#45;&gt;Node9</title>
<path fill="none" stroke="midnightblue" d="M881.39,-351.92C865.66,-341.7 847.75,-330.07 833.03,-320.51"/>
<polygon fill="midnightblue" stroke="midnightblue" points="879.58,-354.92 889.87,-357.43 883.39,-349.05 879.58,-354.92"/>
</g>
<!-- Node24 -->
<g id="node24" class="node">
<title>Node24</title>
<g id="a_node24"><a xlink:href="_bonus_system_8cpp.html" target="_top" xlink:title=" ">
<polygon fill="none" stroke="black" points="889,-285 889,-315 1029,-315 1029,-285 889,-285"/>
<text text-anchor="start" x="897" y="-303" font-family="Helvetica,sans-Serif" font-size="10.00">NekoEngine/src/ECS</text>
<text text-anchor="middle" x="959" y="-292" font-family="Helvetica,sans-Serif" font-size="10.00">/Systems/BonusSystem.cpp</text>
</a>
</g>
</g>
<!-- Node8&#45;&gt;Node24 -->
<g id="edge31" class="edge">
<title>Node8&#45;&gt;Node24</title>
<path fill="none" stroke="midnightblue" d="M934.73,-348.3C940.53,-337 946.93,-324.52 951.7,-315.23"/>
<polygon fill="midnightblue" stroke="midnightblue" points="931.5,-346.93 930.04,-357.43 937.72,-350.13 931.5,-346.93"/>
</g>
<!-- Node9&#45;&gt;Node10 -->
<g id="edge9" class="edge">
<title>Node9&#45;&gt;Node10</title>
<path fill="none" stroke="midnightblue" d="M873.59,-276.38C908.22,-265.28 948.86,-252.26 979.01,-242.6"/>
<polygon fill="midnightblue" stroke="midnightblue" points="872.44,-273.07 863.99,-279.46 874.58,-279.74 872.44,-273.07"/>
</g>
<!-- Node9&#45;&gt;Node22 -->
<g id="edge29" class="edge">
<title>Node9&#45;&gt;Node22</title>
<path fill="none" stroke="midnightblue" d="M735.52,-276.24C702.71,-265.17 664.31,-252.22 635.79,-242.6"/>
<polygon fill="midnightblue" stroke="midnightblue" points="734.47,-279.58 745.06,-279.46 736.7,-272.94 734.47,-279.58"/>
</g>
<!-- Node23 -->
<g id="node23" class="node">
<title>Node23</title>
<g id="a_node23"><a xlink:href="_scene_8cpp.html" target="_top" xlink:title="For the love of god.">
<polygon fill="none" stroke="black" points="742,-212.5 742,-242.5 864,-242.5 864,-212.5 742,-212.5"/>
<text text-anchor="start" x="750" y="-230.5" font-family="Helvetica,sans-Serif" font-size="10.00">NekoEngine/src/Scenes</text>
<text text-anchor="middle" x="803" y="-219.5" font-family="Helvetica,sans-Serif" font-size="10.00">/Scene.cpp</text>
</a>
</g>
</g>
<!-- Node9&#45;&gt;Node23 -->
<g id="edge30" class="edge">
<title>Node9&#45;&gt;Node23</title>
<path fill="none" stroke="midnightblue" d="M803,-269.08C803,-260.01 803,-250.45 803,-242.89"/>
<polygon fill="midnightblue" stroke="midnightblue" points="799.5,-269.36 803,-279.36 806.5,-269.36 799.5,-269.36"/>
</g>
<!-- Node10&#45;&gt;Node4 -->
<g id="edge10" class="edge">
<title>Node10&#45;&gt;Node4</title>
<path fill="none" stroke="midnightblue" d="M1106.28,-222.57C1144.03,-216.7 1186.67,-203.75 1216,-176 1238.59,-154.63 1243,-114.98 1243.83,-97.57"/>
<polygon fill="midnightblue" stroke="midnightblue" points="1105.7,-219.12 1096.29,-223.98 1106.68,-226.05 1105.7,-219.12"/>
</g>
<!-- Node10&#45;&gt;Node6 -->
<g id="edge27" class="edge">
<title>Node10&#45;&gt;Node6</title>
<path fill="none" stroke="midnightblue" d="M1017.42,-202.52C1010.83,-171.35 1001.21,-115.21 1005,-67 1006.17,-52.13 1009.25,-35.03 1011.23,-25.03"/>
<polygon fill="midnightblue" stroke="midnightblue" points="1014.04,-203.43 1019.6,-212.45 1020.87,-201.93 1014.04,-203.43"/>
</g>
<!-- Node11 -->
<g id="node11" class="node">
<title>Node11</title>
<g id="a_node11"><a xlink:href="_custom_client_8hpp.html" target="_top" xlink:title=" ">
<polygon fill="none" stroke="black" points="801.5,-151 801.5,-170 956.5,-170 956.5,-151 801.5,-151"/>
<text text-anchor="middle" x="879" y="-158" font-family="Helvetica,sans-Serif" font-size="10.00">Client/include/CustomClient.hpp</text>
</a>
</g>
</g>
<!-- Node10&#45;&gt;Node11 -->
<g id="edge11" class="edge">
<title>Node10&#45;&gt;Node11</title>
<path fill="none" stroke="midnightblue" d="M982.31,-208.13C954.59,-195.62 919.19,-179.64 897.85,-170.01"/>
<polygon fill="midnightblue" stroke="midnightblue" points="981.2,-211.47 991.75,-212.4 984.08,-205.09 981.2,-211.47"/>
</g>
<!-- Node19 -->
<g id="node19" class="node">
<title>Node19</title>
<g id="a_node19"><a xlink:href="_player_system_8hpp.html" target="_top" xlink:title=" ">
<polygon fill="none" stroke="black" points="1051,-151 1051,-170 1207,-170 1207,-151 1051,-151"/>
<text text-anchor="middle" x="1129" y="-158" font-family="Helvetica,sans-Serif" font-size="10.00">Client/include/PlayerSystem.hpp</text>
</a>
</g>
</g>
<!-- Node10&#45;&gt;Node19 -->
<g id="edge23" class="edge">
<title>Node10&#45;&gt;Node19</title>
<path fill="none" stroke="midnightblue" d="M1054.57,-207.14C1074.72,-194.79 1099.83,-179.39 1115.13,-170.01"/>
<polygon fill="midnightblue" stroke="midnightblue" points="1052.7,-204.18 1046,-212.4 1056.35,-210.15 1052.7,-204.18"/>
</g>
<!-- Node20 -->
<g id="node20" class="node">
<title>Node20</title>
<g id="a_node20"><a xlink:href="_player_system_8cpp.html" target="_top" xlink:title=" ">
<polygon fill="none" stroke="black" points="1013.5,-78.5 1013.5,-97.5 1152.5,-97.5 1152.5,-78.5 1013.5,-78.5"/>
<text text-anchor="middle" x="1083" y="-85.5" font-family="Helvetica,sans-Serif" font-size="10.00">Client/src/PlayerSystem.cpp</text>
</a>
</g>
</g>
<!-- Node10&#45;&gt;Node20 -->
<g id="edge26" class="edge">
<title>Node10&#45;&gt;Node20</title>
<path fill="none" stroke="midnightblue" d="M1026.02,-202.36C1028.72,-185.68 1033.59,-163.3 1042,-145 1050.45,-126.6 1065.47,-108.24 1074.79,-97.78"/>
<polygon fill="midnightblue" stroke="midnightblue" points="1022.54,-201.99 1024.54,-212.39 1029.46,-203.01 1022.54,-201.99"/>
</g>
<!-- Node10&#45;&gt;Node21 -->
<g id="edge28" class="edge">
<title>Node10&#45;&gt;Node21</title>
<path fill="none" stroke="midnightblue" d="M1106.19,-212.31C1173.72,-200.79 1267.94,-184.71 1332.21,-173.75"/>
<polygon fill="midnightblue" stroke="midnightblue" points="1105.28,-208.91 1096.01,-214.04 1106.46,-215.81 1105.28,-208.91"/>
</g>
<!-- Node11&#45;&gt;Node6 -->
<g id="edge12" class="edge">
<title>Node11&#45;&gt;Node6</title>
<path fill="none" stroke="midnightblue" d="M894.08,-143.41C922.48,-113.1 983.01,-48.51 1004.89,-25.15"/>
<polygon fill="midnightblue" stroke="midnightblue" points="891.26,-141.29 886.98,-150.98 896.37,-146.08 891.26,-141.29"/>
</g>
<!-- Node11&#45;&gt;Node12 -->
<g id="edge13" class="edge">
<title>Node11&#45;&gt;Node12</title>
<path fill="none" stroke="midnightblue" d="M841.03,-148.11C803.2,-136.76 744.63,-119.19 701.17,-106.15"/>
<polygon fill="midnightblue" stroke="midnightblue" points="840.07,-151.47 850.65,-151 842.08,-144.77 840.07,-151.47"/>
</g>
<!-- Node18 -->
<g id="node18" class="node">
<title>Node18</title>
<g id="a_node18"><a xlink:href="_window_8cpp.html" target="_top" xlink:title="Contains the NekoEngine Window class implementation.">
<polygon fill="none" stroke="black" points="817,-0.5 817,-30.5 945,-30.5 945,-0.5 817,-0.5"/>
<text text-anchor="start" x="825" y="-18.5" font-family="Helvetica,sans-Serif" font-size="10.00">NekoEngine/src/Graphics</text>
<text text-anchor="middle" x="881" y="-7.5" font-family="Helvetica,sans-Serif" font-size="10.00">/Window.cpp</text>
</a>
</g>
</g>
<!-- Node11&#45;&gt;Node18 -->
<g id="edge22" class="edge">
<title>Node11&#45;&gt;Node18</title>
<path fill="none" stroke="midnightblue" d="M879.26,-140.62C879.67,-111.65 880.44,-56.85 880.8,-30.86"/>
<polygon fill="midnightblue" stroke="midnightblue" points="875.76,-140.93 879.12,-150.98 882.76,-141.03 875.76,-140.93"/>
</g>
<!-- Node12&#45;&gt;Node6 -->
<g id="edge14" class="edge">
<title>Node12&#45;&gt;Node6</title>
<path fill="none" stroke="midnightblue" d="M711.25,-76.09C774.2,-65.59 870.77,-48.73 954,-31 962.36,-29.22 971.33,-27.12 979.7,-25.07"/>
<polygon fill="midnightblue" stroke="midnightblue" points="710.35,-72.7 701.06,-77.79 711.5,-79.6 710.35,-72.7"/>
</g>
<!-- Node12&#45;&gt;Node10 -->
<g id="edge15" class="edge">
<title>Node12&#45;&gt;Node10</title>
<path fill="none" stroke="midnightblue" d="M680.11,-114.43C709.32,-133.9 752.16,-160.05 793,-176 843.65,-195.78 903.75,-208.64 949.81,-216.43"/>
<polygon fill="midnightblue" stroke="midnightblue" points="681.75,-111.31 671.5,-108.62 677.83,-117.11 681.75,-111.31"/>
</g>
<!-- Node12&#45;&gt;Node13 -->
<g id="edge16" class="edge">
<title>Node12&#45;&gt;Node13</title>
<path fill="none" stroke="midnightblue" d="M577.04,-79.88C485.62,-69.98 316.67,-50.98 173,-31 170.15,-30.6 167.25,-30.19 164.32,-29.77"/>
<polygon fill="midnightblue" stroke="midnightblue" points="576.67,-83.37 586.99,-80.96 577.43,-76.41 576.67,-83.37"/>
</g>
<!-- Node12&#45;&gt;Node14 -->
<g id="edge17" class="edge">
<title>Node12&#45;&gt;Node14</title>
<path fill="none" stroke="midnightblue" d="M576.76,-74.92C513.77,-63.59 417,-46.17 333,-31 329.94,-30.45 326.82,-29.88 323.67,-29.31"/>
<polygon fill="midnightblue" stroke="midnightblue" points="576.5,-78.42 586.96,-76.75 577.74,-71.54 576.5,-78.42"/>
</g>
<!-- Node12&#45;&gt;Node15 -->
<g id="edge18" class="edge">
<title>Node12&#45;&gt;Node15</title>
<path fill="none" stroke="midnightblue" d="M576.99,-66.37C539.61,-54.86 494.01,-40.83 460.73,-30.58"/>
<polygon fill="midnightblue" stroke="midnightblue" points="576.22,-69.79 586.8,-69.39 578.28,-63.1 576.22,-69.79"/>
</g>
<!-- Node12&#45;&gt;Node16 -->
<g id="edge19" class="edge">
<title>Node12&#45;&gt;Node16</title>
<path fill="none" stroke="midnightblue" d="M618.74,-60.02C609.46,-50.11 599.32,-39.27 591.47,-30.89"/>
<polygon fill="midnightblue" stroke="midnightblue" points="616.23,-62.45 625.62,-67.36 621.34,-57.67 616.23,-62.45"/>
</g>
<!-- Node12&#45;&gt;Node17 -->
<g id="edge20" class="edge">
<title>Node12&#45;&gt;Node17</title>
<path fill="none" stroke="midnightblue" d="M676.65,-61.14C689.65,-50.84 704.1,-39.39 715.11,-30.67"/>
<polygon fill="midnightblue" stroke="midnightblue" points="674.46,-58.41 668.79,-67.36 678.8,-63.9 674.46,-58.41"/>
</g>
<!-- Node12&#45;&gt;Node18 -->
<g id="edge21" class="edge">
<title>Node12&#45;&gt;Node18</title>
<path fill="none" stroke="midnightblue" d="M710.8,-67.13C749.92,-55.49 798.4,-41.07 833.6,-30.6"/>
<polygon fill="midnightblue" stroke="midnightblue" points="709.66,-63.82 701.07,-70.02 711.65,-70.53 709.66,-63.82"/>
</g>
<!-- Node19&#45;&gt;Node4 -->
<g id="edge24" class="edge">
<title>Node19&#45;&gt;Node4</title>
<path fill="none" stroke="midnightblue" d="M1151.64,-145.62C1174.85,-131.39 1210.24,-109.7 1229.78,-97.72"/>
<polygon fill="midnightblue" stroke="midnightblue" points="1149.8,-142.64 1143.1,-150.86 1153.46,-148.61 1149.8,-142.64"/>
</g>
<!-- Node19&#45;&gt;Node20 -->
<g id="edge25" class="edge">
<title>Node19&#45;&gt;Node20</title>
<path fill="none" stroke="midnightblue" d="M1117.64,-142.09C1108.45,-128 1095.88,-108.74 1088.69,-97.72"/>
<polygon fill="midnightblue" stroke="midnightblue" points="1114.96,-144.39 1123.36,-150.86 1120.83,-140.57 1114.96,-144.39"/>
</g>
<!-- Node25&#45;&gt;Node9 -->
<g id="edge33" class="edge">
<title>Node25&#45;&gt;Node9</title>
<path fill="none" stroke="midnightblue" d="M780.03,-348.17C784.53,-338.93 789.41,-328.92 793.5,-320.51"/>
<polygon fill="midnightblue" stroke="midnightblue" points="776.76,-346.9 775.53,-357.43 783.05,-349.97 776.76,-346.9"/>
</g>
<!-- Node26 -->
<g id="node26" class="node">
<title>Node26</title>
<g id="a_node26"><a xlink:href="_collision_8cpp.html" target="_top" xlink:title=" ">
<polygon fill="none" stroke="black" points="601,-285 601,-315 717,-315 717,-285 601,-285"/>
<text text-anchor="start" x="609" y="-303" font-family="Helvetica,sans-Serif" font-size="10.00">NekoEngine/src/ECS</text>
<text text-anchor="middle" x="659" y="-292" font-family="Helvetica,sans-Serif" font-size="10.00">/Systems/Collision.cpp</text>
</a>
</g>
</g>
<!-- Node25&#45;&gt;Node26 -->
<g id="edge34" class="edge">
<title>Node25&#45;&gt;Node26</title>
<path fill="none" stroke="midnightblue" d="M729.85,-351.32C712.88,-339.27 693.3,-325.36 679.03,-315.23"/>
<polygon fill="midnightblue" stroke="midnightblue" points="728.27,-354.49 738.44,-357.43 732.32,-348.78 728.27,-354.49"/>
</g>
<!-- Node28&#45;&gt;Node2 -->
<g id="edge39" class="edge">
<title>Node28&#45;&gt;Node2</title>
<path fill="none" stroke="midnightblue" d="M1355.78,-519.18C1266.86,-504.92 1129.49,-482.89 1044.36,-469.24"/>
<polygon fill="midnightblue" stroke="midnightblue" points="1355.42,-522.66 1365.84,-520.79 1356.52,-515.75 1355.42,-522.66"/>
</g>
<!-- Node28&#45;&gt;Node21 -->
<g id="edge41" class="edge">
<title>Node28&#45;&gt;Node21</title>
<path fill="none" stroke="midnightblue" d="M1442,-502.91C1442,-471.87 1442,-422.05 1442,-379 1442,-379 1442,-379 1442,-299 1442,-252.44 1421.51,-200.11 1410.62,-175.6"/>
<polygon fill="midnightblue" stroke="midnightblue" points="1438.5,-503.06 1442,-513.07 1445.5,-503.07 1438.5,-503.06"/>
</g>
<!-- Node28&#45;&gt;Node29 -->
<g id="edge40" class="edge">
<title>Node28&#45;&gt;Node29</title>
<path fill="none" stroke="midnightblue" d="M1475.45,-507.32C1491.15,-495.27 1509.27,-481.36 1522.47,-471.23"/>
<polygon fill="midnightblue" stroke="midnightblue" points="1473.3,-504.56 1467.49,-513.43 1477.56,-510.11 1473.3,-504.56"/>
</g>
</g>
</svg>
