<?xml version="1.0" encoding="UTF-8" standalone="no"?>
<!DOCTYPE svg PUBLIC "-//W3C//DTD SVG 1.1//EN"
 "http://www.w3.org/Graphics/SVG/1.1/DTD/svg11.dtd">
<!-- Generated by graphviz version 2.49.3 (20211027.1501)
 -->
<!-- Title: NekoEngine/include/NekoEngine/Math/Vector/Vector3.hpp Pages: 1 -->
<svg width="1511pt" height="797pt"
 viewBox="0.00 0.00 1510.50 797.00" xmlns="http://www.w3.org/2000/svg" xmlns:xlink="http://www.w3.org/1999/xlink">
<g id="graph0" class="graph" transform="scale(1 1) rotate(0) translate(4 793)">
<title>NekoEngine/include/NekoEngine/Math/Vector/Vector3.hpp</title>
<!-- Node1 -->
<g id="node1" class="node">
<title>Node1</title>
<g id="a_node1"><a xlink:title="Contains Vector3 template class.">
<polygon fill="#bfbfbf" stroke="black" points="335,-747.5 335,-788.5 463,-788.5 463,-747.5 335,-747.5"/>
<text text-anchor="start" x="343" y="-776.5" font-family="Helvetica,sans-Serif" font-size="10.00">NekoEngine/include</text>
<text text-anchor="start" x="343" y="-765.5" font-family="Helvetica,sans-Serif" font-size="10.00">/NekoEngine/Math/Vector</text>
<text text-anchor="middle" x="399" y="-754.5" font-family="Helvetica,sans-Serif" font-size="10.00">/Vector3.hpp</text>
</a>
</g>
</g>
<!-- Node2 -->
<g id="node2" class="node">
<title>Node2</title>
<g id="a_node2"><a xlink:href="_vector_8hpp.html" target="_top" xlink:title="Contains all headers for all Vector types.">
<polygon fill="none" stroke="black" points="335,-669.5 335,-710.5 463,-710.5 463,-669.5 335,-669.5"/>
<text text-anchor="start" x="343" y="-698.5" font-family="Helvetica,sans-Serif" font-size="10.00">NekoEngine/include</text>
<text text-anchor="start" x="343" y="-687.5" font-family="Helvetica,sans-Serif" font-size="10.00">/NekoEngine/Math/Vector</text>
<text text-anchor="middle" x="399" y="-676.5" font-family="Helvetica,sans-Serif" font-size="10.00">/Vector.hpp</text>
</a>
</g>
</g>
<!-- Node1&#45;&gt;Node2 -->
<g id="edge1" class="edge">
<title>Node1&#45;&gt;Node2</title>
<path fill="none" stroke="midnightblue" d="M399,-737.3C399,-728.3 399,-718.65 399,-710.51"/>
<polygon fill="midnightblue" stroke="midnightblue" points="395.5,-737.43 399,-747.43 402.5,-737.43 395.5,-737.43"/>
</g>
<!-- Node3 -->
<g id="node3" class="node">
<title>Node3</title>
<g id="a_node3"><a xlink:href="_gravity_8hpp.html" target="_top" xlink:title="Gravity component.">
<polygon fill="none" stroke="black" points="493,-513.5 493,-554.5 645,-554.5 645,-513.5 493,-513.5"/>
<text text-anchor="start" x="501" y="-542.5" font-family="Helvetica,sans-Serif" font-size="10.00">NekoEngine/include</text>
<text text-anchor="start" x="501" y="-531.5" font-family="Helvetica,sans-Serif" font-size="10.00">/NekoEngine/ECS/Components</text>
<text text-anchor="middle" x="569" y="-520.5" font-family="Helvetica,sans-Serif" font-size="10.00">/Gravity.hpp</text>
</a>
</g>
</g>
<!-- Node2&#45;&gt;Node3 -->
<g id="edge2" class="edge">
<title>Node2&#45;&gt;Node3</title>
<path fill="none" stroke="midnightblue" d="M428.25,-662.51C462.12,-631.82 517.13,-581.98 547.38,-554.59"/>
<polygon fill="midnightblue" stroke="midnightblue" points="425.59,-660.19 420.53,-669.5 430.29,-665.38 425.59,-660.19"/>
</g>
<!-- Node12 -->
<g id="node12" class="node">
<title>Node12</title>
<g id="a_node12"><a xlink:href="_neko_engine_8hpp.html" target="_top" xlink:title=" ">
<polygon fill="none" stroke="black" points="221,-212.5 221,-242.5 367,-242.5 367,-212.5 221,-212.5"/>
<text text-anchor="start" x="229" y="-230.5" font-family="Helvetica,sans-Serif" font-size="10.00">NekoEngine/include</text>
<text text-anchor="middle" x="294" y="-219.5" font-family="Helvetica,sans-Serif" font-size="10.00">/NekoEngine/NekoEngine.hpp</text>
</a>
</g>
</g>
<!-- Node2&#45;&gt;Node12 -->
<g id="edge63" class="edge">
<title>Node2&#45;&gt;Node12</title>
<path fill="none" stroke="midnightblue" d="M324.97,-681.64C245.15,-672.7 124.12,-655.92 84,-633 34.19,-604.54 0,-592.37 0,-535 0,-535 0,-535 0,-377 0,-278.22 133.88,-245.13 220.95,-234.06"/>
<polygon fill="midnightblue" stroke="midnightblue" points="324.65,-685.13 334.98,-682.75 325.42,-678.17 324.65,-685.13"/>
</g>
<!-- Node14 -->
<g id="node14" class="node">
<title>Node14</title>
<g id="a_node14"><a xlink:href="_window_8hpp.html" target="_top" xlink:title="Contains the NekoEngine Window class wrapper.">
<polygon fill="none" stroke="black" points="900,-67.5 900,-108.5 1014,-108.5 1014,-67.5 900,-67.5"/>
<text text-anchor="start" x="908" y="-96.5" font-family="Helvetica,sans-Serif" font-size="10.00">NekoEngine/include</text>
<text text-anchor="start" x="908" y="-85.5" font-family="Helvetica,sans-Serif" font-size="10.00">/NekoEngine/Graphics</text>
<text text-anchor="middle" x="957" y="-74.5" font-family="Helvetica,sans-Serif" font-size="10.00">/Window.hpp</text>
</a>
</g>
</g>
<!-- Node2&#45;&gt;Node14 -->
<g id="edge58" class="edge">
<title>Node2&#45;&gt;Node14</title>
<path fill="none" stroke="midnightblue" d="M473.3,-689.08C654.44,-688.51 1107.39,-682.13 1153,-633 1165.7,-619.32 1154.5,-609.61 1153,-591 1142.52,-460.85 1106,-431.57 1106,-301 1106,-301 1106,-301 1106,-226.5 1106,-170 1047.43,-130.3 1003.74,-108.54"/>
<polygon fill="midnightblue" stroke="midnightblue" points="473.05,-685.58 463.06,-689.11 473.07,-692.58 473.05,-685.58"/>
</g>
<!-- Node30 -->
<g id="node30" class="node">
<title>Node30</title>
<g id="a_node30"><a xlink:href="_patterns_8hpp.html" target="_top" xlink:title="Patterns component.">
<polygon fill="none" stroke="black" points="323,-513.5 323,-554.5 475,-554.5 475,-513.5 323,-513.5"/>
<text text-anchor="start" x="331" y="-542.5" font-family="Helvetica,sans-Serif" font-size="10.00">NekoEngine/include</text>
<text text-anchor="start" x="331" y="-531.5" font-family="Helvetica,sans-Serif" font-size="10.00">/NekoEngine/ECS/Components</text>
<text text-anchor="middle" x="399" y="-520.5" font-family="Helvetica,sans-Serif" font-size="10.00">/Patterns.hpp</text>
</a>
</g>
</g>
<!-- Node2&#45;&gt;Node30 -->
<g id="edge40" class="edge">
<title>Node2&#45;&gt;Node30</title>
<path fill="none" stroke="midnightblue" d="M399,-659.36C399,-628.61 399,-581.36 399,-554.83"/>
<polygon fill="midnightblue" stroke="midnightblue" points="395.5,-659.5 399,-669.5 402.5,-659.5 395.5,-659.5"/>
</g>
<!-- Node31 -->
<g id="node31" class="node">
<title>Node31</title>
<g id="a_node31"><a xlink:href="_patterns_8cpp.html" target="_top" xlink:title="Patterns implementation.">
<polygon fill="none" stroke="black" points="220,-441 220,-471 352,-471 352,-441 220,-441"/>
<text text-anchor="start" x="228" y="-459" font-family="Helvetica,sans-Serif" font-size="10.00">NekoEngine/src/ECS</text>
<text text-anchor="middle" x="286" y="-448" font-family="Helvetica,sans-Serif" font-size="10.00">/Components/Patterns.cpp</text>
</a>
</g>
</g>
<!-- Node2&#45;&gt;Node31 -->
<g id="edge64" class="edge">
<title>Node2&#45;&gt;Node31</title>
<path fill="none" stroke="midnightblue" d="M377.74,-660.84C358.79,-634.62 331.43,-593.84 314,-555 301.18,-526.43 292.7,-490.52 288.69,-471.07"/>
<polygon fill="midnightblue" stroke="midnightblue" points="375.09,-663.14 383.82,-669.15 380.74,-659.01 375.09,-663.14"/>
</g>
<!-- Node32 -->
<g id="node32" class="node">
<title>Node32</title>
<g id="a_node32"><a xlink:href="_rigid_body_8hpp.html" target="_top" xlink:title="RigidBody component.">
<polygon fill="none" stroke="black" points="701,-513.5 701,-554.5 853,-554.5 853,-513.5 701,-513.5"/>
<text text-anchor="start" x="709" y="-542.5" font-family="Helvetica,sans-Serif" font-size="10.00">NekoEngine/include</text>
<text text-anchor="start" x="709" y="-531.5" font-family="Helvetica,sans-Serif" font-size="10.00">/NekoEngine/ECS/Components</text>
<text text-anchor="middle" x="777" y="-520.5" font-family="Helvetica,sans-Serif" font-size="10.00">/RigidBody.hpp</text>
</a>
</g>
</g>
<!-- Node2&#45;&gt;Node32 -->
<g id="edge44" class="edge">
<title>Node2&#45;&gt;Node32</title>
<path fill="none" stroke="midnightblue" d="M456.57,-665.55C531.03,-635.21 659.41,-582.91 728.92,-554.59"/>
<polygon fill="midnightblue" stroke="midnightblue" points="454.81,-662.48 446.87,-669.5 457.46,-668.96 454.81,-662.48"/>
</g>
<!-- Node33 -->
<g id="node33" class="node">
<title>Node33</title>
<g id="a_node33"><a xlink:href="_transform_8hpp.html" target="_top" xlink:title="Transform component.">
<polygon fill="none" stroke="black" points="992,-591.5 992,-632.5 1144,-632.5 1144,-591.5 992,-591.5"/>
<text text-anchor="start" x="1000" y="-620.5" font-family="Helvetica,sans-Serif" font-size="10.00">NekoEngine/include</text>
<text text-anchor="start" x="1000" y="-609.5" font-family="Helvetica,sans-Serif" font-size="10.00">/NekoEngine/ECS/Components</text>
<text text-anchor="middle" x="1068" y="-598.5" font-family="Helvetica,sans-Serif" font-size="10.00">/Transform.hpp</text>
</a>
</g>
</g>
<!-- Node2&#45;&gt;Node33 -->
<g id="edge47" class="edge">
<title>Node2&#45;&gt;Node33</title>
<path fill="none" stroke="midnightblue" d="M473.25,-680.56C601.34,-666.01 862.47,-636.35 991.85,-621.65"/>
<polygon fill="midnightblue" stroke="midnightblue" points="472.69,-677.11 463.15,-681.71 473.48,-684.06 472.69,-677.11"/>
</g>
<!-- Node34 -->
<g id="node34" class="node">
<title>Node34</title>
<g id="a_node34"><a xlink:href="_matrix_8hpp.html" target="_top" xlink:title="Contains Matrix template class.">
<polygon fill="none" stroke="black" points="28,-435.5 28,-476.5 154,-476.5 154,-435.5 28,-435.5"/>
<text text-anchor="start" x="36" y="-464.5" font-family="Helvetica,sans-Serif" font-size="10.00">NekoEngine/include</text>
<text text-anchor="start" x="36" y="-453.5" font-family="Helvetica,sans-Serif" font-size="10.00">/NekoEngine/Math/Matrix</text>
<text text-anchor="middle" x="91" y="-442.5" font-family="Helvetica,sans-Serif" font-size="10.00">/Matrix.hpp</text>
</a>
</g>
</g>
<!-- Node2&#45;&gt;Node34 -->
<g id="edge59" class="edge">
<title>Node2&#45;&gt;Node34</title>
<path fill="none" stroke="midnightblue" d="M324.69,-684.44C248.85,-678.14 138.35,-663.83 110,-633 70.17,-589.68 79.3,-512.68 86.42,-476.64"/>
<polygon fill="midnightblue" stroke="midnightblue" points="324.44,-687.93 334.69,-685.24 325,-680.95 324.44,-687.93"/>
</g>
<!-- Node35 -->
<g id="node35" class="node">
<title>Node35</title>
<g id="a_node35"><a xlink:href="_quaternion_8hpp.html" target="_top" xlink:title="Utmost basic implementation of a Quaternion, i.e. just a Vector4.">
<polygon fill="none" stroke="black" points="119.5,-591.5 119.5,-632.5 266.5,-632.5 266.5,-591.5 119.5,-591.5"/>
<text text-anchor="start" x="127.5" y="-620.5" font-family="Helvetica,sans-Serif" font-size="10.00">NekoEngine/include</text>
<text text-anchor="start" x="127.5" y="-609.5" font-family="Helvetica,sans-Serif" font-size="10.00">/NekoEngine/Math/Quaternion</text>
<text text-anchor="middle" x="193" y="-598.5" font-family="Helvetica,sans-Serif" font-size="10.00">/Quaternion.hpp</text>
</a>
</g>
</g>
<!-- Node2&#45;&gt;Node35 -->
<g id="edge61" class="edge">
<title>Node2&#45;&gt;Node35</title>
<path fill="none" stroke="midnightblue" d="M336.35,-665.89C307.43,-655.22 273.48,-642.69 245.87,-632.51"/>
<polygon fill="midnightblue" stroke="midnightblue" points="335.36,-669.25 345.95,-669.43 337.78,-662.68 335.36,-669.25"/>
</g>
<!-- Node4 -->
<g id="node4" class="node">
<title>Node4</title>
<g id="a_node4"><a xlink:href="_components_8hpp.html" target="_top" xlink:title="Components.">
<polygon fill="none" stroke="black" points="557,-435.5 557,-476.5 709,-476.5 709,-435.5 557,-435.5"/>
<text text-anchor="start" x="565" y="-464.5" font-family="Helvetica,sans-Serif" font-size="10.00">NekoEngine/include</text>
<text text-anchor="start" x="565" y="-453.5" font-family="Helvetica,sans-Serif" font-size="10.00">/NekoEngine/ECS/Components</text>
<text text-anchor="middle" x="633" y="-442.5" font-family="Helvetica,sans-Serif" font-size="10.00">/Components.hpp</text>
</a>
</g>
</g>
<!-- Node3&#45;&gt;Node4 -->
<g id="edge3" class="edge">
<title>Node3&#45;&gt;Node4</title>
<path fill="none" stroke="midnightblue" d="M592.05,-505.63C600.17,-495.99 609.12,-485.36 616.57,-476.51"/>
<polygon fill="midnightblue" stroke="midnightblue" points="589.25,-503.52 585.48,-513.43 594.6,-508.03 589.25,-503.52"/>
</g>
<!-- Node5 -->
<g id="node5" class="node">
<title>Node5</title>
<g id="a_node5"><a xlink:href="_client_collision_8hpp.html" target="_top" xlink:title=" ">
<polygon fill="none" stroke="black" points="286,-368.5 286,-387.5 444,-387.5 444,-368.5 286,-368.5"/>
<text text-anchor="middle" x="365" y="-375.5" font-family="Helvetica,sans-Serif" font-size="10.00">Client/include/ClientCollision.hpp</text>
</a>
</g>
</g>
<!-- Node4&#45;&gt;Node5 -->
<g id="edge4" class="edge">
<title>Node4&#45;&gt;Node5</title>
<path fill="none" stroke="midnightblue" d="M554.2,-432.65C500.88,-417.53 433.43,-398.41 395.16,-387.55"/>
<polygon fill="midnightblue" stroke="midnightblue" points="553.41,-436.07 563.98,-435.43 555.32,-429.33 553.41,-436.07"/>
</g>
<!-- Node10 -->
<g id="node10" class="node">
<title>Node10</title>
<g id="a_node10"><a xlink:href="_bonus_system_8hpp.html" target="_top" xlink:title=" ">
<polygon fill="none" stroke="black" points="462,-357.5 462,-398.5 598,-398.5 598,-357.5 462,-357.5"/>
<text text-anchor="start" x="470" y="-386.5" font-family="Helvetica,sans-Serif" font-size="10.00">NekoEngine/include</text>
<text text-anchor="start" x="470" y="-375.5" font-family="Helvetica,sans-Serif" font-size="10.00">/NekoEngine/ECS/Systems</text>
<text text-anchor="middle" x="530" y="-364.5" font-family="Helvetica,sans-Serif" font-size="10.00">/BonusSystem.hpp</text>
</a>
</g>
</g>
<!-- Node4&#45;&gt;Node10 -->
<g id="edge9" class="edge">
<title>Node4&#45;&gt;Node10</title>
<path fill="none" stroke="midnightblue" d="M598.24,-429.35C584.58,-419.27 569.16,-407.89 556.44,-398.51"/>
<polygon fill="midnightblue" stroke="midnightblue" points="596.35,-432.31 606.47,-435.43 600.51,-426.67 596.35,-432.31"/>
</g>
<!-- Node4&#45;&gt;Node12 -->
<g id="edge38" class="edge">
<title>Node4&#45;&gt;Node12</title>
<path fill="none" stroke="midnightblue" d="M546.86,-447.28C447.17,-437.46 294.37,-419.32 277,-399 238.34,-353.78 270.46,-275.15 286.37,-242.92"/>
<polygon fill="midnightblue" stroke="midnightblue" points="546.65,-450.78 556.94,-448.26 547.32,-443.81 546.65,-450.78"/>
</g>
<!-- Node4&#45;&gt;Node14 -->
<g id="edge37" class="edge">
<title>Node4&#45;&gt;Node14</title>
<path fill="none" stroke="midnightblue" d="M719.33,-447.04C795.97,-438.55 900.94,-422.99 935,-399 976.19,-369.98 992,-351.39 992,-301 992,-301 992,-301 992,-226.5 992,-183.39 975.64,-134.97 965.29,-108.64"/>
<polygon fill="midnightblue" stroke="midnightblue" points="718.75,-443.59 709.19,-448.14 719.51,-450.55 718.75,-443.59"/>
</g>
<!-- Node27 -->
<g id="node27" class="node">
<title>Node27</title>
<g id="a_node27"><a xlink:href="_collision_8hpp.html" target="_top" xlink:title=" ">
<polygon fill="none" stroke="black" points="616,-357.5 616,-398.5 752,-398.5 752,-357.5 616,-357.5"/>
<text text-anchor="start" x="624" y="-386.5" font-family="Helvetica,sans-Serif" font-size="10.00">NekoEngine/include</text>
<text text-anchor="start" x="624" y="-375.5" font-family="Helvetica,sans-Serif" font-size="10.00">/NekoEngine/ECS/Systems</text>
<text text-anchor="middle" x="684" y="-364.5" font-family="Helvetica,sans-Serif" font-size="10.00">/Collision.hpp</text>
</a>
</g>
</g>
<!-- Node4&#45;&gt;Node27 -->
<g id="edge34" class="edge">
<title>Node4&#45;&gt;Node27</title>
<path fill="none" stroke="midnightblue" d="M651.76,-427.05C658.12,-417.57 665.09,-407.18 670.91,-398.51"/>
<polygon fill="midnightblue" stroke="midnightblue" points="648.8,-425.17 646.13,-435.43 654.61,-429.07 648.8,-425.17"/>
</g>
<!-- Node29 -->
<g id="node29" class="node">
<title>Node29</title>
<g id="a_node29"><a xlink:href="_animation_system_8cpp.html" target="_top" xlink:title=" ">
<polygon fill="none" stroke="black" points="770.5,-363 770.5,-393 925.5,-393 925.5,-363 770.5,-363"/>
<text text-anchor="start" x="778.5" y="-381" font-family="Helvetica,sans-Serif" font-size="10.00">NekoEngine/src/ECS</text>
<text text-anchor="middle" x="848" y="-370" font-family="Helvetica,sans-Serif" font-size="10.00">/Systems/AnimationSystem.cpp</text>
</a>
</g>
</g>
<!-- Node4&#45;&gt;Node29 -->
<g id="edge39" class="edge">
<title>Node4&#45;&gt;Node29</title>
<path fill="none" stroke="midnightblue" d="M698.25,-431.93C734.06,-419.28 777.3,-403.99 808.09,-393.11"/>
<polygon fill="midnightblue" stroke="midnightblue" points="696.63,-428.8 688.37,-435.43 698.96,-435.4 696.63,-428.8"/>
</g>
<!-- Node6 -->
<g id="node6" class="node">
<title>Node6</title>
<g id="a_node6"><a xlink:href="_client_game_8hpp.html" target="_top" xlink:title=" ">
<polygon fill="none" stroke="black" points="157.5,-78.5 157.5,-97.5 304.5,-97.5 304.5,-78.5 157.5,-78.5"/>
<text text-anchor="middle" x="231" y="-85.5" font-family="Helvetica,sans-Serif" font-size="10.00">Client/include/ClientGame.hpp</text>
</a>
</g>
</g>
<!-- Node5&#45;&gt;Node6 -->
<g id="edge5" class="edge">
<title>Node5&#45;&gt;Node6</title>
<path fill="none" stroke="midnightblue" d="M337.69,-363.51C300.46,-343.3 235.69,-301.25 212,-243 190.89,-191.09 216.63,-121.87 227.02,-97.74"/>
<polygon fill="midnightblue" stroke="midnightblue" points="336.49,-366.83 346.96,-368.39 339.75,-360.63 336.49,-366.83"/>
</g>
<!-- Node9 -->
<g id="node9" class="node">
<title>Node9</title>
<g id="a_node9"><a xlink:href="_client_collision_8cpp.html" target="_top" xlink:title=" ">
<polygon fill="none" stroke="black" points="297,-290.5 297,-309.5 437,-309.5 437,-290.5 297,-290.5"/>
<text text-anchor="middle" x="367" y="-297.5" font-family="Helvetica,sans-Serif" font-size="10.00">Client/src/ClientCollision.cpp</text>
</a>
</g>
</g>
<!-- Node5&#45;&gt;Node9 -->
<g id="edge8" class="edge">
<title>Node5&#45;&gt;Node9</title>
<path fill="none" stroke="midnightblue" d="M365.49,-358.22C365.9,-342.7 366.46,-321.36 366.77,-309.62"/>
<polygon fill="midnightblue" stroke="midnightblue" points="361.99,-358.19 365.23,-368.28 368.99,-358.38 361.99,-358.19"/>
</g>
<!-- Node7 -->
<g id="node7" class="node">
<title>Node7</title>
<g id="a_node7"><a xlink:href="_client_game_8cpp.html" target="_top" xlink:title=" ">
<polygon fill="none" stroke="black" points="166,-6 166,-25 296,-25 296,-6 166,-6"/>
<text text-anchor="middle" x="231" y="-13" font-family="Helvetica,sans-Serif" font-size="10.00">Client/src/ClientGame.cpp</text>
</a>
</g>
</g>
<!-- Node6&#45;&gt;Node7 -->
<g id="edge6" class="edge">
<title>Node6&#45;&gt;Node7</title>
<path fill="none" stroke="midnightblue" d="M231,-67.94C231,-54.03 231,-35.82 231,-25.22"/>
<polygon fill="midnightblue" stroke="midnightblue" points="227.5,-68.36 231,-78.36 234.5,-68.36 227.5,-68.36"/>
</g>
<!-- Node8 -->
<g id="node8" class="node">
<title>Node8</title>
<g id="a_node8"><a xlink:href="main_8cpp.html" target="_top" xlink:title="Entrypoint.">
<polygon fill="none" stroke="black" points="440,-6 440,-25 540,-25 540,-6 440,-6"/>
<text text-anchor="middle" x="490" y="-13" font-family="Helvetica,sans-Serif" font-size="10.00">Client/src/main.cpp</text>
</a>
</g>
</g>
<!-- Node6&#45;&gt;Node8 -->
<g id="edge7" class="edge">
<title>Node6&#45;&gt;Node8</title>
<path fill="none" stroke="midnightblue" d="M272.1,-75.81C323.94,-61.7 411.91,-37.76 458.65,-25.03"/>
<polygon fill="midnightblue" stroke="midnightblue" points="270.97,-72.49 262.24,-78.5 272.81,-79.25 270.97,-72.49"/>
</g>
<!-- Node11 -->
<g id="node11" class="node">
<title>Node11</title>
<g id="a_node11"><a xlink:href="_systems_8hpp.html" target="_top" xlink:title="Systems.">
<polygon fill="none" stroke="black" points="615,-279.5 615,-320.5 751,-320.5 751,-279.5 615,-279.5"/>
<text text-anchor="start" x="623" y="-308.5" font-family="Helvetica,sans-Serif" font-size="10.00">NekoEngine/include</text>
<text text-anchor="start" x="623" y="-297.5" font-family="Helvetica,sans-Serif" font-size="10.00">/NekoEngine/ECS/Systems</text>
<text text-anchor="middle" x="683" y="-286.5" font-family="Helvetica,sans-Serif" font-size="10.00">/Systems.hpp</text>
</a>
</g>
</g>
<!-- Node10&#45;&gt;Node11 -->
<g id="edge10" class="edge">
<title>Node10&#45;&gt;Node11</title>
<path fill="none" stroke="midnightblue" d="M578.5,-352.91C599.54,-342.46 623.85,-330.38 643.73,-320.51"/>
<polygon fill="midnightblue" stroke="midnightblue" points="576.8,-349.84 569.4,-357.43 579.91,-356.11 576.8,-349.84"/>
</g>
<!-- Node26 -->
<g id="node26" class="node">
<title>Node26</title>
<g id="a_node26"><a xlink:href="_bonus_system_8cpp.html" target="_top" xlink:title=" ">
<polygon fill="none" stroke="black" points="457,-285 457,-315 597,-315 597,-285 457,-285"/>
<text text-anchor="start" x="465" y="-303" font-family="Helvetica,sans-Serif" font-size="10.00">NekoEngine/src/ECS</text>
<text text-anchor="middle" x="527" y="-292" font-family="Helvetica,sans-Serif" font-size="10.00">/Systems/BonusSystem.cpp</text>
</a>
</g>
</g>
<!-- Node10&#45;&gt;Node26 -->
<g id="edge33" class="edge">
<title>Node10&#45;&gt;Node26</title>
<path fill="none" stroke="midnightblue" d="M528.83,-347.28C528.39,-336.25 527.92,-324.25 527.56,-315.23"/>
<polygon fill="midnightblue" stroke="midnightblue" points="525.34,-347.57 529.23,-357.43 532.33,-347.3 525.34,-347.57"/>
</g>
<!-- Node11&#45;&gt;Node12 -->
<g id="edge11" class="edge">
<title>Node11&#45;&gt;Node12</title>
<path fill="none" stroke="midnightblue" d="M604.62,-278.8C517.84,-260.85 428.27,-247.06 367.17,-238.37"/>
<polygon fill="midnightblue" stroke="midnightblue" points="604.14,-282.27 614.64,-280.89 605.57,-275.42 604.14,-282.27"/>
</g>
<!-- Node24 -->
<g id="node24" class="node">
<title>Node24</title>
<g id="a_node24"><a xlink:href="_timer_system_8cpp.html" target="_top" xlink:title=" ">
<polygon fill="none" stroke="black" points="774.5,-212.5 774.5,-242.5 911.5,-242.5 911.5,-212.5 774.5,-212.5"/>
<text text-anchor="start" x="782.5" y="-230.5" font-family="Helvetica,sans-Serif" font-size="10.00">NekoEngine/src/ECS</text>
<text text-anchor="middle" x="843" y="-219.5" font-family="Helvetica,sans-Serif" font-size="10.00">/Systems/TimerSystem.cpp</text>
</a>
</g>
</g>
<!-- Node11&#45;&gt;Node24 -->
<g id="edge31" class="edge">
<title>Node11&#45;&gt;Node24</title>
<path fill="none" stroke="midnightblue" d="M736.82,-275.29C761.48,-264.42 789.87,-251.91 811.09,-242.56"/>
<polygon fill="midnightblue" stroke="midnightblue" points="735.31,-272.13 727.57,-279.36 738.13,-278.53 735.31,-272.13"/>
</g>
<!-- Node25 -->
<g id="node25" class="node">
<title>Node25</title>
<g id="a_node25"><a xlink:href="_scene_8cpp.html" target="_top" xlink:title="For the love of god.">
<polygon fill="none" stroke="black" points="622,-212.5 622,-242.5 744,-242.5 744,-212.5 622,-212.5"/>
<text text-anchor="start" x="630" y="-230.5" font-family="Helvetica,sans-Serif" font-size="10.00">NekoEngine/src/Scenes</text>
<text text-anchor="middle" x="683" y="-219.5" font-family="Helvetica,sans-Serif" font-size="10.00">/Scene.cpp</text>
</a>
</g>
</g>
<!-- Node11&#45;&gt;Node25 -->
<g id="edge32" class="edge">
<title>Node11&#45;&gt;Node25</title>
<path fill="none" stroke="midnightblue" d="M683,-269.08C683,-260.01 683,-250.45 683,-242.89"/>
<polygon fill="midnightblue" stroke="midnightblue" points="679.5,-269.36 683,-279.36 686.5,-269.36 679.5,-269.36"/>
</g>
<!-- Node12&#45;&gt;Node6 -->
<g id="edge12" class="edge">
<title>Node12&#45;&gt;Node6</title>
<path fill="none" stroke="midnightblue" d="M270.72,-204.68C263.08,-196.37 255.23,-186.39 250,-176 236.67,-149.48 232.65,-113.8 231.47,-97.62"/>
<polygon fill="midnightblue" stroke="midnightblue" points="268.42,-207.33 277.88,-212.09 273.45,-202.46 268.42,-207.33"/>
</g>
<!-- Node12&#45;&gt;Node8 -->
<g id="edge29" class="edge">
<title>Node12&#45;&gt;Node8</title>
<path fill="none" stroke="midnightblue" d="M376.87,-210.46C399.35,-202.95 422.33,-191.98 440,-176 485.63,-134.73 489.97,-52.43 490.12,-25.36"/>
<polygon fill="midnightblue" stroke="midnightblue" points="375.77,-207.14 367.28,-213.47 377.87,-213.81 375.77,-207.14"/>
</g>
<!-- Node13 -->
<g id="node13" class="node">
<title>Node13</title>
<g id="a_node13"><a xlink:href="_custom_client_8hpp.html" target="_top" xlink:title=" ">
<polygon fill="none" stroke="black" points="525.5,-151 525.5,-170 680.5,-170 680.5,-151 525.5,-151"/>
<text text-anchor="middle" x="603" y="-158" font-family="Helvetica,sans-Serif" font-size="10.00">Client/include/CustomClient.hpp</text>
</a>
</g>
</g>
<!-- Node12&#45;&gt;Node13 -->
<g id="edge13" class="edge">
<title>Node12&#45;&gt;Node13</title>
<path fill="none" stroke="midnightblue" d="M370.6,-210.39C431.35,-197.61 513.85,-180.25 562.46,-170.03"/>
<polygon fill="midnightblue" stroke="midnightblue" points="369.73,-206.99 360.67,-212.48 371.17,-213.84 369.73,-206.99"/>
</g>
<!-- Node21 -->
<g id="node21" class="node">
<title>Node21</title>
<g id="a_node21"><a xlink:href="_player_system_8hpp.html" target="_top" xlink:title=" ">
<polygon fill="none" stroke="black" points="259,-151 259,-170 415,-170 415,-151 259,-151"/>
<text text-anchor="middle" x="337" y="-158" font-family="Helvetica,sans-Serif" font-size="10.00">Client/include/PlayerSystem.hpp</text>
</a>
</g>
</g>
<!-- Node12&#45;&gt;Node21 -->
<g id="edge25" class="edge">
<title>Node12&#45;&gt;Node21</title>
<path fill="none" stroke="midnightblue" d="M308.9,-203.97C316.6,-192.33 325.56,-178.8 331.25,-170.19"/>
<polygon fill="midnightblue" stroke="midnightblue" points="305.93,-202.12 303.33,-212.4 311.77,-205.99 305.93,-202.12"/>
</g>
<!-- Node22 -->
<g id="node22" class="node">
<title>Node22</title>
<g id="a_node22"><a xlink:href="_player_system_8cpp.html" target="_top" xlink:title=" ">
<polygon fill="none" stroke="black" points="322.5,-78.5 322.5,-97.5 461.5,-97.5 461.5,-78.5 322.5,-78.5"/>
<text text-anchor="middle" x="392" y="-85.5" font-family="Helvetica,sans-Serif" font-size="10.00">Client/src/PlayerSystem.cpp</text>
</a>
</g>
</g>
<!-- Node12&#45;&gt;Node22 -->
<g id="edge28" class="edge">
<title>Node12&#45;&gt;Node22</title>
<path fill="none" stroke="midnightblue" d="M376.62,-211.08C395.19,-203.6 412.71,-192.5 424,-176 441.45,-150.5 414.73,-114.31 400.27,-97.81"/>
<polygon fill="midnightblue" stroke="midnightblue" points="375.32,-207.83 367.14,-214.57 377.74,-214.4 375.32,-207.83"/>
</g>
<!-- Node23 -->
<g id="node23" class="node">
<title>Node23</title>
<g id="a_node23"><a xlink:href="_pattern_system_8cpp.html" target="_top" xlink:title="Physics System class implementation.">
<polygon fill="none" stroke="black" points="801.5,-145.5 801.5,-175.5 944.5,-175.5 944.5,-145.5 801.5,-145.5"/>
<text text-anchor="start" x="809.5" y="-163.5" font-family="Helvetica,sans-Serif" font-size="10.00">NekoEngine/src/ECS</text>
<text text-anchor="middle" x="873" y="-152.5" font-family="Helvetica,sans-Serif" font-size="10.00">/Systems/PatternSystem.cpp</text>
</a>
</g>
</g>
<!-- Node12&#45;&gt;Node23 -->
<g id="edge30" class="edge">
<title>Node12&#45;&gt;Node23</title>
<path fill="none" stroke="midnightblue" d="M377.13,-212.52C378.43,-212.34 379.72,-212.17 381,-212 543.92,-190.48 585.6,-193.54 749,-176 765.92,-174.18 784.12,-172.12 801.23,-170.13"/>
<polygon fill="midnightblue" stroke="midnightblue" points="376.45,-209.08 367.05,-213.96 377.44,-216.01 376.45,-209.08"/>
</g>
<!-- Node13&#45;&gt;Node8 -->
<g id="edge14" class="edge">
<title>Node13&#45;&gt;Node8</title>
<path fill="none" stroke="midnightblue" d="M589.97,-143.02C565.9,-112.55 515.21,-48.41 496.84,-25.15"/>
<polygon fill="midnightblue" stroke="midnightblue" points="587.32,-145.31 596.27,-150.98 592.82,-140.97 587.32,-145.31"/>
</g>
<!-- Node13&#45;&gt;Node14 -->
<g id="edge15" class="edge">
<title>Node13&#45;&gt;Node14</title>
<path fill="none" stroke="midnightblue" d="M655.8,-148.98C721.25,-135.95 832.38,-113.82 899.81,-100.39"/>
<polygon fill="midnightblue" stroke="midnightblue" points="654.82,-145.61 645.7,-151 656.19,-152.48 654.82,-145.61"/>
</g>
<!-- Node20 -->
<g id="node20" class="node">
<title>Node20</title>
<g id="a_node20"><a xlink:href="_window_8cpp.html" target="_top" xlink:title="Contains the NekoEngine Window class implementation.">
<polygon fill="none" stroke="black" points="558,-0.5 558,-30.5 686,-30.5 686,-0.5 558,-0.5"/>
<text text-anchor="start" x="566" y="-18.5" font-family="Helvetica,sans-Serif" font-size="10.00">NekoEngine/src/Graphics</text>
<text text-anchor="middle" x="622" y="-7.5" font-family="Helvetica,sans-Serif" font-size="10.00">/Window.cpp</text>
</a>
</g>
</g>
<!-- Node13&#45;&gt;Node20 -->
<g id="edge24" class="edge">
<title>Node13&#45;&gt;Node20</title>
<path fill="none" stroke="midnightblue" d="M605.46,-141.01C609.29,-112.13 616.62,-56.96 620.09,-30.86"/>
<polygon fill="midnightblue" stroke="midnightblue" points="601.98,-140.61 604.13,-150.98 608.92,-141.53 601.98,-140.61"/>
</g>
<!-- Node14&#45;&gt;Node8 -->
<g id="edge16" class="edge">
<title>Node14&#45;&gt;Node8</title>
<path fill="none" stroke="midnightblue" d="M889.85,-79.96C808.7,-70.96 668.21,-53.76 549,-31 540.19,-29.32 530.73,-27.15 522.02,-25.01"/>
<polygon fill="midnightblue" stroke="midnightblue" points="889.61,-83.46 899.93,-81.07 890.37,-76.5 889.61,-83.46"/>
</g>
<!-- Node14&#45;&gt;Node12 -->
<g id="edge17" class="edge">
<title>Node14&#45;&gt;Node12</title>
<path fill="none" stroke="midnightblue" d="M890.46,-111.45C818.07,-135.75 709.94,-171.64 690,-176 554.94,-205.56 517.9,-192.63 381,-212 376.45,-212.64 371.77,-213.34 367.06,-214.06"/>
<polygon fill="midnightblue" stroke="midnightblue" points="891.62,-114.75 899.98,-108.25 889.39,-108.11 891.62,-114.75"/>
</g>
<!-- Node15 -->
<g id="node15" class="node">
<title>Node15</title>
<g id="a_node15"><a xlink:href="_background_system_8cpp.html" target="_top" xlink:title=" ">
<polygon fill="none" stroke="black" points="704,-0.5 704,-30.5 868,-30.5 868,-0.5 704,-0.5"/>
<text text-anchor="start" x="712" y="-18.5" font-family="Helvetica,sans-Serif" font-size="10.00">NekoEngine/src/ECS</text>
<text text-anchor="middle" x="786" y="-7.5" font-family="Helvetica,sans-Serif" font-size="10.00">/Systems/BackgroundSystem.cpp</text>
</a>
</g>
</g>
<!-- Node14&#45;&gt;Node15 -->
<g id="edge18" class="edge">
<title>Node14&#45;&gt;Node15</title>
<path fill="none" stroke="midnightblue" d="M899.83,-63.43C873.39,-52.53 842.88,-39.95 820.1,-30.56"/>
<polygon fill="midnightblue" stroke="midnightblue" points="898.79,-66.79 909.37,-67.36 901.46,-60.31 898.79,-66.79"/>
</g>
<!-- Node16 -->
<g id="node16" class="node">
<title>Node16</title>
<g id="a_node16"><a xlink:href="_mouse_system_8cpp.html" target="_top" xlink:title=" ">
<polygon fill="none" stroke="black" points="886.5,-0.5 886.5,-30.5 1027.5,-30.5 1027.5,-0.5 886.5,-0.5"/>
<text text-anchor="start" x="894.5" y="-18.5" font-family="Helvetica,sans-Serif" font-size="10.00">NekoEngine/src/ECS</text>
<text text-anchor="middle" x="957" y="-7.5" font-family="Helvetica,sans-Serif" font-size="10.00">/Systems/MouseSystem.cpp</text>
</a>
</g>
</g>
<!-- Node14&#45;&gt;Node16 -->
<g id="edge19" class="edge">
<title>Node14&#45;&gt;Node16</title>
<path fill="none" stroke="midnightblue" d="M957,-57.08C957,-48.01 957,-38.45 957,-30.89"/>
<polygon fill="midnightblue" stroke="midnightblue" points="953.5,-57.36 957,-67.36 960.5,-57.36 953.5,-57.36"/>
</g>
<!-- Node17 -->
<g id="node17" class="node">
<title>Node17</title>
<g id="a_node17"><a xlink:href="_parallax_system_8cpp.html" target="_top" xlink:title=" ">
<polygon fill="none" stroke="black" points="1046,-0.5 1046,-30.5 1192,-30.5 1192,-0.5 1046,-0.5"/>
<text text-anchor="start" x="1054" y="-18.5" font-family="Helvetica,sans-Serif" font-size="10.00">NekoEngine/src/ECS</text>
<text text-anchor="middle" x="1119" y="-7.5" font-family="Helvetica,sans-Serif" font-size="10.00">/Systems/ParallaxSystem.cpp</text>
</a>
</g>
</g>
<!-- Node14&#45;&gt;Node17 -->
<g id="edge20" class="edge">
<title>Node14&#45;&gt;Node17</title>
<path fill="none" stroke="midnightblue" d="M1011.49,-63.29C1036.46,-52.42 1065.21,-39.91 1086.69,-30.56"/>
<polygon fill="midnightblue" stroke="midnightblue" points="1009.9,-60.16 1002.13,-67.36 1012.69,-66.58 1009.9,-60.16"/>
</g>
<!-- Node18 -->
<g id="node18" class="node">
<title>Node18</title>
<g id="a_node18"><a xlink:href="_render_system_8cpp.html" target="_top" xlink:title="Render System class implementation.">
<polygon fill="none" stroke="black" points="1210.5,-0.5 1210.5,-30.5 1353.5,-30.5 1353.5,-0.5 1210.5,-0.5"/>
<text text-anchor="start" x="1218.5" y="-18.5" font-family="Helvetica,sans-Serif" font-size="10.00">NekoEngine/src/ECS</text>
<text text-anchor="middle" x="1282" y="-7.5" font-family="Helvetica,sans-Serif" font-size="10.00">/Systems/RenderSystem.cpp</text>
</a>
</g>
</g>
<!-- Node14&#45;&gt;Node18 -->
<g id="edge21" class="edge">
<title>Node14&#45;&gt;Node18</title>
<path fill="none" stroke="midnightblue" d="M1024.3,-72.4C1080.97,-60.11 1161.52,-42.64 1217.41,-30.51"/>
<polygon fill="midnightblue" stroke="midnightblue" points="1023.39,-69.02 1014.36,-74.56 1024.87,-75.86 1023.39,-69.02"/>
</g>
<!-- Node19 -->
<g id="node19" class="node">
<title>Node19</title>
<g id="a_node19"><a xlink:href="_text_system_8cpp.html" target="_top" xlink:title=" ">
<polygon fill="none" stroke="black" points="1371.5,-0.5 1371.5,-30.5 1502.5,-30.5 1502.5,-0.5 1371.5,-0.5"/>
<text text-anchor="start" x="1379.5" y="-18.5" font-family="Helvetica,sans-Serif" font-size="10.00">NekoEngine/src/ECS</text>
<text text-anchor="middle" x="1437" y="-7.5" font-family="Helvetica,sans-Serif" font-size="10.00">/Systems/TextSystem.cpp</text>
</a>
</g>
</g>
<!-- Node14&#45;&gt;Node19 -->
<g id="edge22" class="edge">
<title>Node14&#45;&gt;Node19</title>
<path fill="none" stroke="midnightblue" d="M1024.33,-78.89C1105.02,-68.91 1244.21,-50.82 1363,-31 1365.71,-30.55 1368.48,-30.07 1371.27,-29.58"/>
<polygon fill="midnightblue" stroke="midnightblue" points="1023.8,-75.43 1014.31,-80.13 1024.66,-82.38 1023.8,-75.43"/>
</g>
<!-- Node14&#45;&gt;Node20 -->
<g id="edge23" class="edge">
<title>Node14&#45;&gt;Node20</title>
<path fill="none" stroke="midnightblue" d="M889.77,-72.85C830.43,-60.36 744.51,-42.28 686.12,-29.99"/>
<polygon fill="midnightblue" stroke="midnightblue" points="889.29,-76.33 899.79,-74.96 890.73,-69.48 889.29,-76.33"/>
</g>
<!-- Node21&#45;&gt;Node6 -->
<g id="edge26" class="edge">
<title>Node21&#45;&gt;Node6</title>
<path fill="none" stroke="midnightblue" d="M315.57,-145.24C294.16,-131.01 261.96,-109.59 244.1,-97.72"/>
<polygon fill="midnightblue" stroke="midnightblue" points="313.74,-148.23 324,-150.86 317.61,-142.4 313.74,-148.23"/>
</g>
<!-- Node21&#45;&gt;Node22 -->
<g id="edge27" class="edge">
<title>Node21&#45;&gt;Node22</title>
<path fill="none" stroke="midnightblue" d="M349.95,-142.9C360.99,-128.74 376.43,-108.96 385.2,-97.72"/>
<polygon fill="midnightblue" stroke="midnightblue" points="347.14,-140.82 343.74,-150.86 352.65,-145.12 347.14,-140.82"/>
</g>
<!-- Node27&#45;&gt;Node11 -->
<g id="edge35" class="edge">
<title>Node27&#45;&gt;Node11</title>
<path fill="none" stroke="midnightblue" d="M683.61,-347.3C683.49,-338.3 683.36,-328.65 683.26,-320.51"/>
<polygon fill="midnightblue" stroke="midnightblue" points="680.11,-347.48 683.74,-357.43 687.11,-347.38 680.11,-347.48"/>
</g>
<!-- Node28 -->
<g id="node28" class="node">
<title>Node28</title>
<g id="a_node28"><a xlink:href="_collision_8cpp.html" target="_top" xlink:title=" ">
<polygon fill="none" stroke="black" points="769,-285 769,-315 885,-315 885,-285 769,-285"/>
<text text-anchor="start" x="777" y="-303" font-family="Helvetica,sans-Serif" font-size="10.00">NekoEngine/src/ECS</text>
<text text-anchor="middle" x="827" y="-292" font-family="Helvetica,sans-Serif" font-size="10.00">/Systems/Collision.cpp</text>
</a>
</g>
</g>
<!-- Node27&#45;&gt;Node28 -->
<g id="edge36" class="edge">
<title>Node27&#45;&gt;Node28</title>
<path fill="none" stroke="midnightblue" d="M729.83,-352.64C753.06,-340.3 780.46,-325.73 800.23,-315.23"/>
<polygon fill="midnightblue" stroke="midnightblue" points="728.01,-349.64 720.83,-357.43 731.3,-355.83 728.01,-349.64"/>
</g>
<!-- Node30&#45;&gt;Node4 -->
<g id="edge41" class="edge">
<title>Node30&#45;&gt;Node4</title>
<path fill="none" stroke="midnightblue" d="M468.88,-510.3C502,-499.55 541.18,-486.82 572.94,-476.51"/>
<polygon fill="midnightblue" stroke="midnightblue" points="467.69,-507.01 459.26,-513.43 469.85,-513.67 467.69,-507.01"/>
</g>
<!-- Node30&#45;&gt;Node23 -->
<g id="edge43" class="edge">
<title>Node30&#45;&gt;Node23</title>
<path fill="none" stroke="midnightblue" d="M393.88,-503.39C388.81,-482.01 379.08,-453.73 361,-435 332.79,-405.78 299.36,-432.91 277,-399 263.24,-378.14 279.47,-288.08 288,-279 323.05,-241.66 653.02,-191.9 801.36,-171.18"/>
<polygon fill="midnightblue" stroke="midnightblue" points="390.48,-504.22 396.01,-513.26 397.32,-502.75 390.48,-504.22"/>
</g>
<!-- Node30&#45;&gt;Node31 -->
<g id="edge42" class="edge">
<title>Node30&#45;&gt;Node31</title>
<path fill="none" stroke="midnightblue" d="M361.32,-507.66C343.28,-495.53 322.36,-481.45 307.15,-471.23"/>
<polygon fill="midnightblue" stroke="midnightblue" points="359.65,-510.75 369.9,-513.43 363.56,-504.94 359.65,-510.75"/>
</g>
<!-- Node32&#45;&gt;Node4 -->
<g id="edge45" class="edge">
<title>Node32&#45;&gt;Node4</title>
<path fill="none" stroke="midnightblue" d="M730.82,-508.63C711.14,-498.24 688.5,-486.29 669.96,-476.51"/>
<polygon fill="midnightblue" stroke="midnightblue" points="729.44,-511.86 739.92,-513.43 732.71,-505.67 729.44,-511.86"/>
</g>
<!-- Node32&#45;&gt;Node23 -->
<g id="edge46" class="edge">
<title>Node32&#45;&gt;Node23</title>
<path fill="none" stroke="midnightblue" d="M824.19,-508.27C862,-485.54 912.33,-447.95 935,-399 951.68,-362.98 958.4,-293.95 921,-212 914.47,-197.69 902.2,-184.9 891.69,-175.76"/>
<polygon fill="midnightblue" stroke="midnightblue" points="822.21,-505.37 815.36,-513.45 825.76,-511.41 822.21,-505.37"/>
</g>
<!-- Node33&#45;&gt;Node4 -->
<g id="edge48" class="edge">
<title>Node33&#45;&gt;Node4</title>
<path fill="none" stroke="midnightblue" d="M1023.58,-586.6C982.6,-564.89 919.58,-533.49 862,-513 812.16,-495.26 754.28,-481.16 709.17,-471.54"/>
<polygon fill="midnightblue" stroke="midnightblue" points="1022.01,-589.74 1032.49,-591.35 1025.31,-583.56 1022.01,-589.74"/>
</g>
<!-- Node33&#45;&gt;Node15 -->
<g id="edge51" class="edge">
<title>Node33&#45;&gt;Node15</title>
<path fill="none" stroke="midnightblue" d="M1080.02,-582.15C1101.44,-528.04 1144,-407.16 1144,-301 1144,-301 1144,-301 1144,-159.5 1144,-91.81 1084.49,-95.3 1023,-67 995.72,-54.45 925.17,-40.19 868.09,-30.03"/>
<polygon fill="midnightblue" stroke="midnightblue" points="1076.76,-580.88 1076.28,-591.46 1083.25,-583.49 1076.76,-580.88"/>
</g>
<!-- Node33&#45;&gt;Node16 -->
<g id="edge52" class="edge">
<title>Node33&#45;&gt;Node16</title>
<path fill="none" stroke="midnightblue" d="M1097.11,-584.15C1105.33,-575.46 1113.74,-565.36 1120,-555 1162.89,-484.02 1182,-461.93 1182,-379 1182,-379 1182,-379 1182,-159.5 1182,-117.03 1188.15,-96.92 1158,-67 1148.45,-57.53 1081.51,-41.9 1027.46,-30.53"/>
<polygon fill="midnightblue" stroke="midnightblue" points="1094.49,-581.82 1089.98,-591.41 1099.49,-586.72 1094.49,-581.82"/>
</g>
<!-- Node33&#45;&gt;Node17 -->
<g id="edge53" class="edge">
<title>Node33&#45;&gt;Node17</title>
<path fill="none" stroke="midnightblue" d="M1118.47,-586.27C1162.71,-560.64 1220,-516.04 1220,-457 1220,-457 1220,-457 1220,-159.5 1220,-117.03 1220.75,-101.52 1196,-67 1184.73,-51.28 1166.91,-39.14 1151.25,-30.7"/>
<polygon fill="midnightblue" stroke="midnightblue" points="1116.53,-583.34 1109.53,-591.29 1119.97,-589.44 1116.53,-583.34"/>
</g>
<!-- Node33&#45;&gt;Node18 -->
<g id="edge55" class="edge">
<title>Node33&#45;&gt;Node18</title>
<path fill="none" stroke="midnightblue" d="M1143.05,-587.74C1200.52,-564.73 1270,-523.21 1270,-457 1270,-457 1270,-457 1270,-159.5 1270,-112.16 1276.61,-56.32 1280.02,-30.67"/>
<polygon fill="midnightblue" stroke="midnightblue" points="1141.64,-584.54 1133.58,-591.42 1144.17,-591.06 1141.64,-584.54"/>
</g>
<!-- Node33&#45;&gt;Node19 -->
<g id="edge56" class="edge">
<title>Node33&#45;&gt;Node19</title>
<path fill="none" stroke="midnightblue" d="M1154.15,-603.85C1244.34,-591.1 1373,-555.63 1373,-457 1373,-457 1373,-457 1373,-159.5 1373,-108.37 1407.52,-55.21 1425.85,-30.58"/>
<polygon fill="midnightblue" stroke="midnightblue" points="1153.62,-600.39 1144.18,-605.19 1154.55,-607.33 1153.62,-600.39"/>
</g>
<!-- Node33&#45;&gt;Node23 -->
<g id="edge54" class="edge">
<title>Node33&#45;&gt;Node23</title>
<path fill="none" stroke="midnightblue" d="M1068,-580.91C1068,-549.87 1068,-500.05 1068,-457 1068,-457 1068,-457 1068,-299 1068,-230.86 987.48,-193.51 929.93,-175.52"/>
<polygon fill="midnightblue" stroke="midnightblue" points="1064.5,-581.06 1068,-591.07 1071.5,-581.07 1064.5,-581.06"/>
</g>
<!-- Node33&#45;&gt;Node24 -->
<g id="edge57" class="edge">
<title>Node33&#45;&gt;Node24</title>
<path fill="none" stroke="midnightblue" d="M1056.37,-581.87C1031.66,-521.89 969.94,-381.6 894,-279 884.07,-265.58 870.56,-252.37 859.94,-242.83"/>
<polygon fill="midnightblue" stroke="midnightblue" points="1053.26,-583.52 1060.28,-591.45 1059.74,-580.87 1053.26,-583.52"/>
</g>
<!-- Node33&#45;&gt;Node30 -->
<g id="edge49" class="edge">
<title>Node33&#45;&gt;Node30</title>
<path fill="none" stroke="midnightblue" d="M981.89,-606.4C867.55,-599.46 659.6,-583.94 484,-555 481.16,-554.53 478.27,-554.02 475.36,-553.48"/>
<polygon fill="midnightblue" stroke="midnightblue" points="981.79,-609.9 991.98,-607.01 982.21,-602.91 981.79,-609.9"/>
</g>
<!-- Node33&#45;&gt;Node31 -->
<g id="edge50" class="edge">
<title>Node33&#45;&gt;Node31</title>
<path fill="none" stroke="midnightblue" d="M981.56,-604.89C886.48,-596.99 740.7,-581.08 692,-555 669.81,-543.12 676.17,-524.92 654,-513 603.05,-485.62 443.44,-469.15 352.02,-461.72"/>
<polygon fill="midnightblue" stroke="midnightblue" points="981.49,-608.4 991.75,-605.72 982.06,-601.42 981.49,-608.4"/>
</g>
<!-- Node34&#45;&gt;Node12 -->
<g id="edge60" class="edge">
<title>Node34&#45;&gt;Node12</title>
<path fill="none" stroke="midnightblue" d="M91.29,-425.37C93.28,-386.67 102.52,-319.13 141,-279 161.91,-257.19 192.41,-244.8 220.68,-237.76"/>
<polygon fill="midnightblue" stroke="midnightblue" points="87.79,-425.35 90.91,-435.47 94.79,-425.62 87.79,-425.35"/>
</g>
<!-- Node35&#45;&gt;Node12 -->
<g id="edge62" class="edge">
<title>Node35&#45;&gt;Node12</title>
<path fill="none" stroke="midnightblue" d="M186.54,-581.64C174.7,-520.06 155.99,-375.19 217,-279 227.19,-262.93 244.54,-250.89 260.2,-242.61"/>
<polygon fill="midnightblue" stroke="midnightblue" points="183.11,-582.34 188.51,-591.46 189.97,-580.97 183.11,-582.34"/>
</g>
</g>
</svg>
