<?xml version="1.0" encoding="UTF-8" standalone="no"?>
<!DOCTYPE svg PUBLIC "-//W3C//DTD SVG 1.1//EN"
 "http://www.w3.org/Graphics/SVG/1.1/DTD/svg11.dtd">
<!-- Generated by graphviz version 2.49.3 (20211027.1501)
 -->
<!-- Title: NekoEngine/src/Graphics/Window.cpp Pages: 1 -->
<svg width="3627pt" height="553pt"
 viewBox="0.00 0.00 3626.51 553.00" xmlns="http://www.w3.org/2000/svg" xmlns:xlink="http://www.w3.org/1999/xlink">
<g id="graph0" class="graph" transform="scale(1 1) rotate(0) translate(4 549)">
<title>NekoEngine/src/Graphics/Window.cpp</title>
<!-- Node1 -->
<g id="node1" class="node">
<title>Node1</title>
<g id="a_node1"><a xlink:title="Contains the NekoEngine Window class implementation.">
<polygon fill="#bfbfbf" stroke="black" points="2969.51,-514.5 2969.51,-544.5 3097.51,-544.5 3097.51,-514.5 2969.51,-514.5"/>
<text text-anchor="start" x="2977.51" y="-532.5" font-family="Helvetica,sans-Serif" font-size="10.00">NekoEngine/src/Graphics</text>
<text text-anchor="middle" x="3033.51" y="-521.5" font-family="Helvetica,sans-Serif" font-size="10.00">/Window.cpp</text>
</a>
</g>
</g>
<!-- Node2 -->
<g id="node2" class="node">
<title>Node2</title>
<g id="a_node2"><a xlink:title=" ">
<polygon fill="none" stroke="#bfbfbf" points="3489.01,-62 3489.01,-81 3540.01,-81 3540.01,-62 3489.01,-62"/>
<text text-anchor="middle" x="3514.51" y="-69" font-family="Helvetica,sans-Serif" font-size="10.00">memory</text>
</a>
</g>
</g>
<!-- Node1&#45;&gt;Node2 -->
<g id="edge1" class="edge">
<title>Node1&#45;&gt;Node2</title>
<path fill="none" stroke="midnightblue" d="M3097.79,-528.05C3249.76,-525.26 3618.51,-507.6 3618.51,-402 3618.51,-402 3618.51,-402 3618.51,-204.5 3618.51,-166.86 3618.11,-153.09 3595.51,-123 3583.03,-106.39 3563.34,-93.93 3546.5,-85.55"/>
<polygon fill="midnightblue" stroke="midnightblue" points="3547.53,-82.16 3536.99,-81.08 3544.56,-88.5 3547.53,-82.16"/>
</g>
<!-- Node3 -->
<g id="node3" class="node">
<title>Node3</title>
<g id="a_node3"><a xlink:href="_window_8hpp.html" target="_top" xlink:title="Contains the NekoEngine Window class wrapper.">
<polygon fill="none" stroke="black" points="2669.01,-447.5 2669.01,-477.5 2780.01,-477.5 2780.01,-447.5 2669.01,-447.5"/>
<text text-anchor="start" x="2677.01" y="-465.5" font-family="Helvetica,sans-Serif" font-size="10.00">NekoEngine/Graphics</text>
<text text-anchor="middle" x="2724.51" y="-454.5" font-family="Helvetica,sans-Serif" font-size="10.00">/Window.hpp</text>
</a>
</g>
</g>
<!-- Node1&#45;&gt;Node3 -->
<g id="edge2" class="edge">
<title>Node1&#45;&gt;Node3</title>
<path fill="none" stroke="midnightblue" d="M2969.48,-515.03C2917.01,-503.99 2843.03,-488.43 2790.12,-477.3"/>
<polygon fill="midnightblue" stroke="midnightblue" points="2790.67,-473.84 2780.17,-475.21 2789.23,-480.69 2790.67,-473.84"/>
</g>
<!-- Node18 -->
<g id="node18" class="node">
<title>Node18</title>
<g id="a_node18"><a xlink:title=" ">
<polygon fill="none" stroke="#bfbfbf" points="605.51,-129 605.51,-148 709.51,-148 709.51,-129 605.51,-129"/>
<text text-anchor="middle" x="657.51" y="-136" font-family="Helvetica,sans-Serif" font-size="10.00">SFML/Graphics.hpp</text>
</a>
</g>
</g>
<!-- Node1&#45;&gt;Node18 -->
<g id="edge66" class="edge">
<title>Node1&#45;&gt;Node18</title>
<path fill="none" stroke="midnightblue" d="M2969.22,-527.5C2535.52,-520.57 54.51,-477.59 54.51,-402 54.51,-402 54.51,-402 54.51,-271.5 54.51,-234.4 44.62,-214.45 72.51,-190 82.26,-181.45 446.14,-154.59 595,-143.92"/>
<polygon fill="midnightblue" stroke="midnightblue" points="595.62,-147.39 605.34,-143.18 595.12,-140.41 595.62,-147.39"/>
</g>
<!-- Node31 -->
<g id="node31" class="node">
<title>Node31</title>
<g id="a_node31"><a xlink:href="_custom_client_8hpp.html" target="_top" xlink:title=" ">
<polygon fill="none" stroke="black" points="2970.01,-391.5 2970.01,-410.5 3097.01,-410.5 3097.01,-391.5 2970.01,-391.5"/>
<text text-anchor="middle" x="3033.51" y="-398.5" font-family="Helvetica,sans-Serif" font-size="10.00">include/CustomClient.hpp</text>
</a>
</g>
</g>
<!-- Node1&#45;&gt;Node31 -->
<g id="edge68" class="edge">
<title>Node1&#45;&gt;Node31</title>
<path fill="none" stroke="midnightblue" d="M3033.51,-514.48C3033.51,-491.72 3033.51,-446.7 3033.51,-421.06"/>
<polygon fill="midnightblue" stroke="midnightblue" points="3037.01,-420.79 3033.51,-410.79 3030.01,-420.79 3037.01,-420.79"/>
</g>
<!-- Node32 -->
<g id="node32" class="node">
<title>Node32</title>
<g id="a_node32"><a xlink:title=" ">
<polygon fill="none" stroke="#bfbfbf" points="3486.51,-330 3486.51,-349 3590.51,-349 3590.51,-330 3486.51,-330"/>
<text text-anchor="middle" x="3538.51" y="-337" font-family="Helvetica,sans-Serif" font-size="10.00">NyaNet/NyaNet.hpp</text>
</a>
</g>
</g>
<!-- Node1&#45;&gt;Node32 -->
<g id="edge67" class="edge">
<title>Node1&#45;&gt;Node32</title>
<path fill="none" stroke="midnightblue" d="M3071.47,-514.37C3166.99,-478.81 3416.11,-386.07 3505.76,-352.69"/>
<polygon fill="midnightblue" stroke="midnightblue" points="3507.25,-355.87 3515.4,-349.1 3504.81,-349.31 3507.25,-355.87"/>
</g>
<!-- Node4 -->
<g id="node4" class="node">
<title>Node4</title>
<g id="a_node4"><a xlink:href="_components_8hpp.html" target="_top" xlink:title="Components.">
<polygon fill="none" stroke="black" points="1538.01,-257.5 1538.01,-287.5 1687.01,-287.5 1687.01,-257.5 1538.01,-257.5"/>
<text text-anchor="start" x="1546.01" y="-275.5" font-family="Helvetica,sans-Serif" font-size="10.00">NekoEngine/ECS/Components</text>
<text text-anchor="middle" x="1612.51" y="-264.5" font-family="Helvetica,sans-Serif" font-size="10.00">/Components.hpp</text>
</a>
</g>
</g>
<!-- Node3&#45;&gt;Node4 -->
<g id="edge3" class="edge">
<title>Node3&#45;&gt;Node4</title>
<path fill="none" stroke="midnightblue" d="M2668.98,-452.11C2488.11,-421.53 1914.98,-324.64 1697.41,-287.85"/>
<polygon fill="midnightblue" stroke="midnightblue" points="1697.76,-284.36 1687.32,-286.15 1696.6,-291.27 1697.76,-284.36"/>
</g>
<!-- Node6 -->
<g id="node6" class="node">
<title>Node6</title>
<g id="a_node6"><a xlink:href="_vector_8hpp.html" target="_top" xlink:title="Contains all headers for all Vector types.">
<polygon fill="none" stroke="black" points="2462.01,-56.5 2462.01,-86.5 2587.01,-86.5 2587.01,-56.5 2462.01,-56.5"/>
<text text-anchor="start" x="2470.01" y="-74.5" font-family="Helvetica,sans-Serif" font-size="10.00">NekoEngine/Math/Vector</text>
<text text-anchor="middle" x="2524.51" y="-63.5" font-family="Helvetica,sans-Serif" font-size="10.00">/Vector.hpp</text>
</a>
</g>
</g>
<!-- Node3&#45;&gt;Node6 -->
<g id="edge36" class="edge">
<title>Node3&#45;&gt;Node6</title>
<path fill="none" stroke="midnightblue" d="M2668.83,-460.84C2303.12,-455.97 254.17,-419.89 72.51,-221 0.51,-142.18 -136.46,-185.02 375.51,-123 790.46,-72.73 2124.63,-71.77 2451.64,-72.31"/>
<polygon fill="midnightblue" stroke="midnightblue" points="2451.93,-75.81 2461.94,-72.33 2451.94,-68.81 2451.93,-75.81"/>
</g>
<!-- Node3&#45;&gt;Node31 -->
<g id="edge37" class="edge">
<title>Node3&#45;&gt;Node31</title>
<path fill="none" stroke="midnightblue" d="M2780.11,-450.79C2836.54,-439.93 2923.35,-423.21 2979.28,-412.44"/>
<polygon fill="midnightblue" stroke="midnightblue" points="2980.19,-415.83 2989.35,-410.5 2978.87,-408.96 2980.19,-415.83"/>
</g>
<!-- Node5 -->
<g id="node5" class="node">
<title>Node5</title>
<g id="a_node5"><a xlink:href="_transform_8hpp.html" target="_top" xlink:title="Transform component.">
<polygon fill="none" stroke="black" points="1404.01,-123.5 1404.01,-153.5 1553.01,-153.5 1553.01,-123.5 1404.01,-123.5"/>
<text text-anchor="start" x="1412.01" y="-141.5" font-family="Helvetica,sans-Serif" font-size="10.00">NekoEngine/ECS/Components</text>
<text text-anchor="middle" x="1478.51" y="-130.5" font-family="Helvetica,sans-Serif" font-size="10.00">/Transform.hpp</text>
</a>
</g>
</g>
<!-- Node4&#45;&gt;Node5 -->
<g id="edge4" class="edge">
<title>Node4&#45;&gt;Node5</title>
<path fill="none" stroke="midnightblue" d="M1537.82,-268.32C1503.96,-262.67 1466.81,-249.7 1445.51,-221 1432.14,-202.99 1444.99,-178.8 1458.37,-161.46"/>
<polygon fill="midnightblue" stroke="midnightblue" points="1461.22,-163.5 1464.87,-153.56 1455.81,-159.06 1461.22,-163.5"/>
</g>
<!-- Node10 -->
<g id="node10" class="node">
<title>Node10</title>
<g id="a_node10"><a xlink:href="_timer_8hpp.html" target="_top" xlink:title="Timer component.">
<polygon fill="none" stroke="black" points="2457.01,-190.5 2457.01,-220.5 2606.01,-220.5 2606.01,-190.5 2457.01,-190.5"/>
<text text-anchor="start" x="2465.01" y="-208.5" font-family="Helvetica,sans-Serif" font-size="10.00">NekoEngine/ECS/Components</text>
<text text-anchor="middle" x="2531.51" y="-197.5" font-family="Helvetica,sans-Serif" font-size="10.00">/Timer.hpp</text>
</a>
</g>
</g>
<!-- Node4&#45;&gt;Node10 -->
<g id="edge9" class="edge">
<title>Node4&#45;&gt;Node10</title>
<path fill="none" stroke="midnightblue" d="M1687.04,-269.75C1831.58,-265.77 2160.19,-253.76 2446.74,-220.99"/>
<polygon fill="midnightblue" stroke="midnightblue" points="2447.38,-224.44 2456.92,-219.82 2446.58,-217.49 2447.38,-224.44"/>
</g>
<!-- Node12 -->
<g id="node12" class="node">
<title>Node12</title>
<g id="a_node12"><a xlink:href="_renderable_8hpp.html" target="_top" xlink:title="Renderable component.">
<polygon fill="none" stroke="black" points="82.01,-190.5 82.01,-220.5 231.01,-220.5 231.01,-190.5 82.01,-190.5"/>
<text text-anchor="start" x="90.01" y="-208.5" font-family="Helvetica,sans-Serif" font-size="10.00">NekoEngine/ECS/Components</text>
<text text-anchor="middle" x="156.51" y="-197.5" font-family="Helvetica,sans-Serif" font-size="10.00">/Renderable.hpp</text>
</a>
</g>
</g>
<!-- Node4&#45;&gt;Node12 -->
<g id="edge11" class="edge">
<title>Node4&#45;&gt;Node12</title>
<path fill="none" stroke="midnightblue" d="M1537.76,-270.09C1292.77,-265.28 514.62,-248.28 241.39,-221.08"/>
<polygon fill="midnightblue" stroke="midnightblue" points="241.4,-217.56 231.1,-220.02 240.69,-224.53 241.4,-217.56"/>
</g>
<!-- Node13 -->
<g id="node13" class="node">
<title>Node13</title>
<g id="a_node13"><a xlink:href="_color_8hpp.html" target="_top" xlink:title="Color component.">
<polygon fill="none" stroke="black" points="416.01,-190.5 416.01,-220.5 565.01,-220.5 565.01,-190.5 416.01,-190.5"/>
<text text-anchor="start" x="424.01" y="-208.5" font-family="Helvetica,sans-Serif" font-size="10.00">NekoEngine/ECS/Components</text>
<text text-anchor="middle" x="490.51" y="-197.5" font-family="Helvetica,sans-Serif" font-size="10.00">/Color.hpp</text>
</a>
</g>
</g>
<!-- Node4&#45;&gt;Node13 -->
<g id="edge12" class="edge">
<title>Node4&#45;&gt;Node13</title>
<path fill="none" stroke="midnightblue" d="M1537.92,-271.05C1368.42,-269.35 941.19,-261.17 575.1,-221.09"/>
<polygon fill="midnightblue" stroke="midnightblue" points="575.43,-217.6 565.1,-219.98 574.66,-224.56 575.43,-217.6"/>
</g>
<!-- Node15 -->
<g id="node15" class="node">
<title>Node15</title>
<g id="a_node15"><a xlink:href="_rigid_body_8hpp.html" target="_top" xlink:title="RigidBody component.">
<polygon fill="none" stroke="black" points="2366.01,-123.5 2366.01,-153.5 2515.01,-153.5 2515.01,-123.5 2366.01,-123.5"/>
<text text-anchor="start" x="2374.01" y="-141.5" font-family="Helvetica,sans-Serif" font-size="10.00">NekoEngine/ECS/Components</text>
<text text-anchor="middle" x="2440.51" y="-130.5" font-family="Helvetica,sans-Serif" font-size="10.00">/RigidBody.hpp</text>
</a>
</g>
</g>
<!-- Node4&#45;&gt;Node15 -->
<g id="edge14" class="edge">
<title>Node4&#45;&gt;Node15</title>
<path fill="none" stroke="midnightblue" d="M1687.11,-270.52C1914.05,-267.18 2582.65,-254.51 2614.51,-221 2624,-211.02 2622.78,-201.02 2614.51,-190 2607.93,-181.24 2557.01,-167.07 2511.94,-155.96"/>
<polygon fill="midnightblue" stroke="midnightblue" points="2512.67,-152.54 2502.13,-153.57 2511.02,-159.34 2512.67,-152.54"/>
</g>
<!-- Node16 -->
<g id="node16" class="node">
<title>Node16</title>
<g id="a_node16"><a xlink:href="_gravity_8hpp.html" target="_top" xlink:title="Gravity component.">
<polygon fill="none" stroke="black" points="2533.01,-123.5 2533.01,-153.5 2682.01,-153.5 2682.01,-123.5 2533.01,-123.5"/>
<text text-anchor="start" x="2541.01" y="-141.5" font-family="Helvetica,sans-Serif" font-size="10.00">NekoEngine/ECS/Components</text>
<text text-anchor="middle" x="2607.51" y="-130.5" font-family="Helvetica,sans-Serif" font-size="10.00">/Gravity.hpp</text>
</a>
</g>
</g>
<!-- Node4&#45;&gt;Node16 -->
<g id="edge16" class="edge">
<title>Node4&#45;&gt;Node16</title>
<path fill="none" stroke="midnightblue" d="M1687.23,-270.59C1917.06,-267.42 2600,-255.16 2632.51,-221 2647.68,-205.06 2636.8,-180.15 2625.01,-162.06"/>
<polygon fill="midnightblue" stroke="midnightblue" points="2627.84,-160.01 2619.26,-153.8 2622.1,-164 2627.84,-160.01"/>
</g>
<!-- Node17 -->
<g id="node17" class="node">
<title>Node17</title>
<g id="a_node17"><a xlink:href="_skin_8hpp.html" target="_top" xlink:title="Skin component.">
<polygon fill="none" stroke="black" points="583.01,-190.5 583.01,-220.5 732.01,-220.5 732.01,-190.5 583.01,-190.5"/>
<text text-anchor="start" x="591.01" y="-208.5" font-family="Helvetica,sans-Serif" font-size="10.00">NekoEngine/ECS/Components</text>
<text text-anchor="middle" x="657.51" y="-197.5" font-family="Helvetica,sans-Serif" font-size="10.00">/Skin.hpp</text>
</a>
</g>
</g>
<!-- Node4&#45;&gt;Node17 -->
<g id="edge18" class="edge">
<title>Node4&#45;&gt;Node17</title>
<path fill="none" stroke="midnightblue" d="M1537.9,-270.07C1388.59,-266.58 1042.33,-255.33 742.31,-221.12"/>
<polygon fill="midnightblue" stroke="midnightblue" points="742.44,-217.62 732.11,-219.95 741.64,-224.57 742.44,-217.62"/>
</g>
<!-- Node19 -->
<g id="node19" class="node">
<title>Node19</title>
<g id="a_node19"><a xlink:href="_networkable_8hpp.html" target="_top" xlink:title="Networkable component.">
<polygon fill="none" stroke="black" points="750.01,-190.5 750.01,-220.5 899.01,-220.5 899.01,-190.5 750.01,-190.5"/>
<text text-anchor="start" x="758.01" y="-208.5" font-family="Helvetica,sans-Serif" font-size="10.00">NekoEngine/ECS/Components</text>
<text text-anchor="middle" x="824.51" y="-197.5" font-family="Helvetica,sans-Serif" font-size="10.00">/Networkable.hpp</text>
</a>
</g>
</g>
<!-- Node4&#45;&gt;Node19 -->
<g id="edge20" class="edge">
<title>Node4&#45;&gt;Node19</title>
<path fill="none" stroke="midnightblue" d="M1537.92,-268.65C1410.82,-263.24 1144.02,-249.51 909.21,-221.13"/>
<polygon fill="midnightblue" stroke="midnightblue" points="909.46,-217.64 899.11,-219.9 908.62,-224.59 909.46,-217.64"/>
</g>
<!-- Node20 -->
<g id="node20" class="node">
<title>Node20</title>
<g id="a_node20"><a xlink:href="_uid_8hpp.html" target="_top" xlink:title="Uid component.">
<polygon fill="none" stroke="black" points="249.01,-190.5 249.01,-220.5 398.01,-220.5 398.01,-190.5 249.01,-190.5"/>
<text text-anchor="start" x="257.01" y="-208.5" font-family="Helvetica,sans-Serif" font-size="10.00">NekoEngine/ECS/Components</text>
<text text-anchor="middle" x="323.51" y="-197.5" font-family="Helvetica,sans-Serif" font-size="10.00">/Uid.hpp</text>
</a>
</g>
</g>
<!-- Node4&#45;&gt;Node20 -->
<g id="edge21" class="edge">
<title>Node4&#45;&gt;Node20</title>
<path fill="none" stroke="midnightblue" d="M1537.8,-271.77C1349.63,-271.71 840.88,-267.04 408.3,-221.1"/>
<polygon fill="midnightblue" stroke="midnightblue" points="408.42,-217.59 398.1,-220.01 407.67,-224.55 408.42,-217.59"/>
</g>
<!-- Node21 -->
<g id="node21" class="node">
<title>Node21</title>
<g id="a_node21"><a xlink:href="_hostile_8hpp.html" target="_top" xlink:title=" ">
<polygon fill="none" stroke="black" points="1084.01,-190.5 1084.01,-220.5 1233.01,-220.5 1233.01,-190.5 1084.01,-190.5"/>
<text text-anchor="start" x="1092.01" y="-208.5" font-family="Helvetica,sans-Serif" font-size="10.00">NekoEngine/ECS/Components</text>
<text text-anchor="middle" x="1158.51" y="-197.5" font-family="Helvetica,sans-Serif" font-size="10.00">/Hostile.hpp</text>
</a>
</g>
</g>
<!-- Node4&#45;&gt;Node21 -->
<g id="edge23" class="edge">
<title>Node4&#45;&gt;Node21</title>
<path fill="none" stroke="midnightblue" d="M1537.78,-262.17C1465.04,-252.89 1351.11,-237.86 1243.23,-221.24"/>
<polygon fill="midnightblue" stroke="midnightblue" points="1243.56,-217.75 1233.14,-219.68 1242.49,-224.66 1243.56,-217.75"/>
</g>
<!-- Node22 -->
<g id="node22" class="node">
<title>Node22</title>
<g id="a_node22"><a xlink:href="_but_8hpp.html" target="_top" xlink:title=" ">
<polygon fill="none" stroke="black" points="1251.01,-190.5 1251.01,-220.5 1400.01,-220.5 1400.01,-190.5 1251.01,-190.5"/>
<text text-anchor="start" x="1259.01" y="-208.5" font-family="Helvetica,sans-Serif" font-size="10.00">NekoEngine/ECS/Components</text>
<text text-anchor="middle" x="1325.51" y="-197.5" font-family="Helvetica,sans-Serif" font-size="10.00">/But.hpp</text>
</a>
</g>
</g>
<!-- Node4&#45;&gt;Node22 -->
<g id="edge24" class="edge">
<title>Node4&#45;&gt;Node22</title>
<path fill="none" stroke="midnightblue" d="M1550.59,-257.48C1505.67,-247.3 1444.77,-233.51 1397.65,-222.84"/>
<polygon fill="midnightblue" stroke="midnightblue" points="1398.34,-219.41 1387.81,-220.61 1396.79,-226.23 1398.34,-219.41"/>
</g>
<!-- Node23 -->
<g id="node23" class="node">
<title>Node23</title>
<g id="a_node23"><a xlink:href="_textinfo_8hpp.html" target="_top" xlink:title=" ">
<polygon fill="none" stroke="black" points="917.01,-190.5 917.01,-220.5 1066.01,-220.5 1066.01,-190.5 917.01,-190.5"/>
<text text-anchor="start" x="925.01" y="-208.5" font-family="Helvetica,sans-Serif" font-size="10.00">NekoEngine/ECS/Components</text>
<text text-anchor="middle" x="991.51" y="-197.5" font-family="Helvetica,sans-Serif" font-size="10.00">/Textinfo.hpp</text>
</a>
</g>
</g>
<!-- Node4&#45;&gt;Node23 -->
<g id="edge25" class="edge">
<title>Node4&#45;&gt;Node23</title>
<path fill="none" stroke="midnightblue" d="M1537.89,-266.38C1435.8,-258.95 1246.69,-243.69 1076.04,-221.14"/>
<polygon fill="midnightblue" stroke="midnightblue" points="1076.5,-217.67 1066.12,-219.82 1075.57,-224.61 1076.5,-217.67"/>
</g>
<!-- Node24 -->
<g id="node24" class="node">
<title>Node24</title>
<g id="a_node24"><a xlink:href="_patterns_8hpp.html" target="_top" xlink:title="Patterns component.">
<polygon fill="none" stroke="black" points="1455.01,-190.5 1455.01,-220.5 1604.01,-220.5 1604.01,-190.5 1455.01,-190.5"/>
<text text-anchor="start" x="1463.01" y="-208.5" font-family="Helvetica,sans-Serif" font-size="10.00">NekoEngine/ECS/Components</text>
<text text-anchor="middle" x="1529.51" y="-197.5" font-family="Helvetica,sans-Serif" font-size="10.00">/Patterns.hpp</text>
</a>
</g>
</g>
<!-- Node4&#45;&gt;Node24 -->
<g id="edge27" class="edge">
<title>Node4&#45;&gt;Node24</title>
<path fill="none" stroke="midnightblue" d="M1594.5,-257.4C1583.08,-248.45 1568.12,-236.74 1555.43,-226.8"/>
<polygon fill="midnightblue" stroke="midnightblue" points="1557.52,-223.99 1547.48,-220.58 1553.2,-229.5 1557.52,-223.99"/>
</g>
<!-- Node26 -->
<g id="node26" class="node">
<title>Node26</title>
<g id="a_node26"><a xlink:href="_alien_8hpp.html" target="_top" xlink:title="Alien component.">
<polygon fill="none" stroke="black" points="1622.01,-190.5 1622.01,-220.5 1771.01,-220.5 1771.01,-190.5 1622.01,-190.5"/>
<text text-anchor="start" x="1630.01" y="-208.5" font-family="Helvetica,sans-Serif" font-size="10.00">NekoEngine/ECS/Components</text>
<text text-anchor="middle" x="1696.51" y="-197.5" font-family="Helvetica,sans-Serif" font-size="10.00">/Alien.hpp</text>
</a>
</g>
</g>
<!-- Node4&#45;&gt;Node26 -->
<g id="edge31" class="edge">
<title>Node4&#45;&gt;Node26</title>
<path fill="none" stroke="midnightblue" d="M1630.74,-257.4C1642.29,-248.45 1657.43,-236.74 1670.27,-226.8"/>
<polygon fill="midnightblue" stroke="midnightblue" points="1672.55,-229.46 1678.32,-220.58 1668.27,-223.93 1672.55,-229.46"/>
</g>
<!-- Node27 -->
<g id="node27" class="node">
<title>Node27</title>
<g id="a_node27"><a xlink:href="_entity_type_8hpp.html" target="_top" xlink:title=" ">
<polygon fill="none" stroke="black" points="1789.01,-190.5 1789.01,-220.5 1938.01,-220.5 1938.01,-190.5 1789.01,-190.5"/>
<text text-anchor="start" x="1797.01" y="-208.5" font-family="Helvetica,sans-Serif" font-size="10.00">NekoEngine/ECS/Components</text>
<text text-anchor="middle" x="1863.51" y="-197.5" font-family="Helvetica,sans-Serif" font-size="10.00">/EntityType.hpp</text>
</a>
</g>
</g>
<!-- Node4&#45;&gt;Node27 -->
<g id="edge32" class="edge">
<title>Node4&#45;&gt;Node27</title>
<path fill="none" stroke="midnightblue" d="M1666.66,-257.48C1705.54,-247.41 1758.09,-233.8 1799.12,-223.17"/>
<polygon fill="midnightblue" stroke="midnightblue" points="1800.22,-226.51 1809.02,-220.61 1798.46,-219.73 1800.22,-226.51"/>
</g>
<!-- Node28 -->
<g id="node28" class="node">
<title>Node28</title>
<g id="a_node28"><a xlink:href="_gorb_background_8hpp.html" target="_top" xlink:title=" ">
<polygon fill="none" stroke="black" points="1956.01,-190.5 1956.01,-220.5 2105.01,-220.5 2105.01,-190.5 1956.01,-190.5"/>
<text text-anchor="start" x="1964.01" y="-208.5" font-family="Helvetica,sans-Serif" font-size="10.00">NekoEngine/ECS/Components</text>
<text text-anchor="middle" x="2030.51" y="-197.5" font-family="Helvetica,sans-Serif" font-size="10.00">/GorbBackground.hpp</text>
</a>
</g>
</g>
<!-- Node4&#45;&gt;Node28 -->
<g id="edge33" class="edge">
<title>Node4&#45;&gt;Node28</title>
<path fill="none" stroke="midnightblue" d="M1687.2,-260.66C1752.62,-251.07 1850.53,-236.45 1945.77,-221.1"/>
<polygon fill="midnightblue" stroke="midnightblue" points="1946.55,-224.52 1955.87,-219.47 1945.44,-217.61 1946.55,-224.52"/>
</g>
<!-- Node29 -->
<g id="node29" class="node">
<title>Node29</title>
<g id="a_node29"><a xlink:href="_animation_8hpp.html" target="_top" xlink:title=" ">
<polygon fill="none" stroke="black" points="2123.01,-190.5 2123.01,-220.5 2272.01,-220.5 2272.01,-190.5 2123.01,-190.5"/>
<text text-anchor="start" x="2131.01" y="-208.5" font-family="Helvetica,sans-Serif" font-size="10.00">NekoEngine/ECS/Components</text>
<text text-anchor="middle" x="2197.51" y="-197.5" font-family="Helvetica,sans-Serif" font-size="10.00">/Animation.hpp</text>
</a>
</g>
</g>
<!-- Node4&#45;&gt;Node29 -->
<g id="edge34" class="edge">
<title>Node4&#45;&gt;Node29</title>
<path fill="none" stroke="midnightblue" d="M1687.4,-265.61C1783.4,-257.69 1955.22,-242.26 2112.55,-221.06"/>
<polygon fill="midnightblue" stroke="midnightblue" points="2113.46,-224.47 2122.9,-219.66 2112.52,-217.54 2113.46,-224.47"/>
</g>
<!-- Node30 -->
<g id="node30" class="node">
<title>Node30</title>
<g id="a_node30"><a xlink:href="_player_shoot_8hpp.html" target="_top" xlink:title=" ">
<polygon fill="none" stroke="black" points="2290.01,-190.5 2290.01,-220.5 2439.01,-220.5 2439.01,-190.5 2290.01,-190.5"/>
<text text-anchor="start" x="2298.01" y="-208.5" font-family="Helvetica,sans-Serif" font-size="10.00">NekoEngine/ECS/Components</text>
<text text-anchor="middle" x="2364.51" y="-197.5" font-family="Helvetica,sans-Serif" font-size="10.00">/PlayerShoot.hpp</text>
</a>
</g>
</g>
<!-- Node4&#45;&gt;Node30 -->
<g id="edge35" class="edge">
<title>Node4&#45;&gt;Node30</title>
<path fill="none" stroke="midnightblue" d="M1687.13,-268.19C1808.94,-262.27 2058.28,-248.01 2279.72,-221.01"/>
<polygon fill="midnightblue" stroke="midnightblue" points="2280.41,-224.45 2289.91,-219.76 2279.56,-217.51 2280.41,-224.45"/>
</g>
<!-- Node5&#45;&gt;Node6 -->
<g id="edge5" class="edge">
<title>Node5&#45;&gt;Node6</title>
<path fill="none" stroke="midnightblue" d="M1553.32,-124.59C1557.78,-124.01 1562.2,-123.47 1566.51,-123 1895.62,-87.32 2291.17,-76.6 2451.61,-73.59"/>
<polygon fill="midnightblue" stroke="midnightblue" points="2451.9,-77.09 2461.83,-73.41 2451.77,-70.09 2451.9,-77.09"/>
</g>
<!-- Node7 -->
<g id="node7" class="node">
<title>Node7</title>
<g id="a_node7"><a xlink:href="_vector2_8hpp.html" target="_top" xlink:title="Contains Vector2 template class.">
<polygon fill="none" stroke="black" points="2404.51,-0.5 2404.51,-19.5 2472.51,-19.5 2472.51,-0.5 2404.51,-0.5"/>
<text text-anchor="middle" x="2438.51" y="-7.5" font-family="Helvetica,sans-Serif" font-size="10.00">Vector2.hpp</text>
</a>
</g>
</g>
<!-- Node6&#45;&gt;Node7 -->
<g id="edge6" class="edge">
<title>Node6&#45;&gt;Node7</title>
<path fill="none" stroke="midnightblue" d="M2504.13,-56.4C2490.6,-47.04 2472.9,-34.79 2459.29,-25.38"/>
<polygon fill="midnightblue" stroke="midnightblue" points="2461.24,-22.47 2451.02,-19.66 2457.26,-28.23 2461.24,-22.47"/>
</g>
<!-- Node8 -->
<g id="node8" class="node">
<title>Node8</title>
<g id="a_node8"><a xlink:href="_vector3_8hpp.html" target="_top" xlink:title="Contains Vector3 template class.">
<polygon fill="none" stroke="black" points="2490.51,-0.5 2490.51,-19.5 2558.51,-19.5 2558.51,-0.5 2490.51,-0.5"/>
<text text-anchor="middle" x="2524.51" y="-7.5" font-family="Helvetica,sans-Serif" font-size="10.00">Vector3.hpp</text>
</a>
</g>
</g>
<!-- Node6&#45;&gt;Node8 -->
<g id="edge7" class="edge">
<title>Node6&#45;&gt;Node8</title>
<path fill="none" stroke="midnightblue" d="M2524.51,-56.4C2524.51,-48.47 2524.51,-38.46 2524.51,-29.86"/>
<polygon fill="midnightblue" stroke="midnightblue" points="2528.01,-29.66 2524.51,-19.66 2521.01,-29.66 2528.01,-29.66"/>
</g>
<!-- Node9 -->
<g id="node9" class="node">
<title>Node9</title>
<g id="a_node9"><a xlink:href="_vector4_8hpp.html" target="_top" xlink:title="Contains Vector4 template class.">
<polygon fill="none" stroke="black" points="2576.51,-0.5 2576.51,-19.5 2644.51,-19.5 2644.51,-0.5 2576.51,-0.5"/>
<text text-anchor="middle" x="2610.51" y="-7.5" font-family="Helvetica,sans-Serif" font-size="10.00">Vector4.hpp</text>
</a>
</g>
</g>
<!-- Node6&#45;&gt;Node9 -->
<g id="edge8" class="edge">
<title>Node6&#45;&gt;Node9</title>
<path fill="none" stroke="midnightblue" d="M2544.89,-56.4C2558.42,-47.04 2576.12,-34.79 2589.73,-25.38"/>
<polygon fill="midnightblue" stroke="midnightblue" points="2591.76,-28.23 2598,-19.66 2587.78,-22.47 2591.76,-28.23"/>
</g>
<!-- Node11 -->
<g id="node11" class="node">
<title>Node11</title>
<g id="a_node11"><a xlink:title=" ">
<polygon fill="none" stroke="#bfbfbf" points="2302.51,-129 2302.51,-148 2348.51,-148 2348.51,-129 2302.51,-129"/>
<text text-anchor="middle" x="2325.51" y="-136" font-family="Helvetica,sans-Serif" font-size="10.00">chrono</text>
</a>
</g>
</g>
<!-- Node10&#45;&gt;Node11 -->
<g id="edge10" class="edge">
<title>Node10&#45;&gt;Node11</title>
<path fill="none" stroke="midnightblue" d="M2474.43,-190.45C2439.86,-181.35 2395.14,-168.51 2356.51,-154 2355.08,-153.46 2353.63,-152.89 2352.18,-152.29"/>
<polygon fill="midnightblue" stroke="midnightblue" points="2353.25,-148.94 2342.68,-148.12 2350.43,-155.35 2353.25,-148.94"/>
</g>
<!-- Node14 -->
<g id="node14" class="node">
<title>Node14</title>
<g id="a_node14"><a xlink:title=" ">
<polygon fill="none" stroke="#bfbfbf" points="384.51,-129 384.51,-148 430.51,-148 430.51,-129 384.51,-129"/>
<text text-anchor="middle" x="407.51" y="-136" font-family="Helvetica,sans-Serif" font-size="10.00">cstdint</text>
</a>
</g>
</g>
<!-- Node13&#45;&gt;Node14 -->
<g id="edge13" class="edge">
<title>Node13&#45;&gt;Node14</title>
<path fill="none" stroke="midnightblue" d="M472.5,-190.4C458.92,-179.76 440.33,-165.2 426.51,-154.38"/>
<polygon fill="midnightblue" stroke="midnightblue" points="428.64,-151.6 418.61,-148.19 424.33,-157.12 428.64,-151.6"/>
</g>
<!-- Node15&#45;&gt;Node6 -->
<g id="edge15" class="edge">
<title>Node15&#45;&gt;Node6</title>
<path fill="none" stroke="midnightblue" d="M2458.74,-123.4C2470.29,-114.45 2485.43,-102.74 2498.27,-92.8"/>
<polygon fill="midnightblue" stroke="midnightblue" points="2500.55,-95.46 2506.32,-86.58 2496.27,-89.93 2500.55,-95.46"/>
</g>
<!-- Node16&#45;&gt;Node6 -->
<g id="edge17" class="edge">
<title>Node16&#45;&gt;Node6</title>
<path fill="none" stroke="midnightblue" d="M2589.5,-123.4C2578.08,-114.45 2563.12,-102.74 2550.43,-92.8"/>
<polygon fill="midnightblue" stroke="midnightblue" points="2552.52,-89.99 2542.48,-86.58 2548.2,-95.5 2552.52,-89.99"/>
</g>
<!-- Node17&#45;&gt;Node18 -->
<g id="edge19" class="edge">
<title>Node17&#45;&gt;Node18</title>
<path fill="none" stroke="midnightblue" d="M657.51,-190.4C657.51,-181.06 657.51,-168.71 657.51,-158.52"/>
<polygon fill="midnightblue" stroke="midnightblue" points="661.01,-158.19 657.51,-148.19 654.01,-158.19 661.01,-158.19"/>
</g>
<!-- Node20&#45;&gt;Node14 -->
<g id="edge22" class="edge">
<title>Node20&#45;&gt;Node14</title>
<path fill="none" stroke="midnightblue" d="M341.74,-190.4C355.48,-179.76 374.29,-165.2 388.28,-154.38"/>
<polygon fill="midnightblue" stroke="midnightblue" points="390.51,-157.08 396.27,-148.19 386.22,-151.55 390.51,-157.08"/>
</g>
<!-- Node23&#45;&gt;Node18 -->
<g id="edge26" class="edge">
<title>Node23&#45;&gt;Node18</title>
<path fill="none" stroke="midnightblue" d="M919.45,-190.48C856.98,-178.32 767.98,-161 711.49,-150.01"/>
<polygon fill="midnightblue" stroke="midnightblue" points="711.82,-146.5 701.33,-148.03 710.48,-153.37 711.82,-146.5"/>
</g>
<!-- Node24&#45;&gt;Node5 -->
<g id="edge29" class="edge">
<title>Node24&#45;&gt;Node5</title>
<path fill="none" stroke="midnightblue" d="M1518.44,-190.4C1511.83,-181.96 1503.28,-171.07 1495.79,-161.52"/>
<polygon fill="midnightblue" stroke="midnightblue" points="1498.48,-159.28 1489.55,-153.58 1492.97,-163.6 1498.48,-159.28"/>
</g>
<!-- Node24&#45;&gt;Node6 -->
<g id="edge28" class="edge">
<title>Node24&#45;&gt;Node6</title>
<path fill="none" stroke="midnightblue" d="M1536.75,-190.5C1547.52,-171.34 1569.73,-137.68 1599.51,-123 1675.1,-85.75 2246.92,-75.64 2451.77,-73.2"/>
<polygon fill="midnightblue" stroke="midnightblue" points="2451.87,-76.7 2461.83,-73.09 2451.79,-69.7 2451.87,-76.7"/>
</g>
<!-- Node25 -->
<g id="node25" class="node">
<title>Node25</title>
<g id="a_node25"><a xlink:title=" ">
<polygon fill="none" stroke="#bfbfbf" points="1609.01,-129 1609.01,-148 1668.01,-148 1668.01,-129 1609.01,-129"/>
<text text-anchor="middle" x="1638.51" y="-136" font-family="Helvetica,sans-Serif" font-size="10.00">functional</text>
</a>
</g>
</g>
<!-- Node24&#45;&gt;Node25 -->
<g id="edge30" class="edge">
<title>Node24&#45;&gt;Node25</title>
<path fill="none" stroke="midnightblue" d="M1553.16,-190.4C1571.69,-179.34 1597.32,-164.06 1615.65,-153.13"/>
<polygon fill="midnightblue" stroke="midnightblue" points="1617.45,-156.13 1624.24,-148.01 1613.86,-150.12 1617.45,-156.13"/>
</g>
<!-- Node31&#45;&gt;Node32 -->
<g id="edge38" class="edge">
<title>Node31&#45;&gt;Node32</title>
<path fill="none" stroke="midnightblue" d="M3097.1,-396.21C3183.61,-390.45 3343.05,-377.69 3477.51,-355 3483.49,-353.99 3489.76,-352.73 3495.91,-351.38"/>
<polygon fill="midnightblue" stroke="midnightblue" points="3497.1,-354.7 3506.07,-349.05 3495.54,-347.88 3497.1,-354.7"/>
</g>
<!-- Node33 -->
<g id="node33" class="node">
<title>Node33</title>
<g id="a_node33"><a xlink:href="_neko_engine_8hpp.html" target="_top" xlink:title=" ">
<polygon fill="none" stroke="black" points="2653.01,-330 2653.01,-349 2796.01,-349 2796.01,-330 2653.01,-330"/>
<text text-anchor="middle" x="2724.51" y="-337" font-family="Helvetica,sans-Serif" font-size="10.00">NekoEngine/NekoEngine.hpp</text>
</a>
</g>
</g>
<!-- Node31&#45;&gt;Node33 -->
<g id="edge39" class="edge">
<title>Node31&#45;&gt;Node33</title>
<path fill="none" stroke="midnightblue" d="M2989.24,-391.48C2933.71,-380.78 2838.54,-362.46 2778.71,-350.94"/>
<polygon fill="midnightblue" stroke="midnightblue" points="2779.18,-347.46 2768.7,-349.01 2777.86,-354.34 2779.18,-347.46"/>
</g>
<!-- Node71 -->
<g id="node45" class="node">
<title>Node71</title>
<g id="a_node45"><a xlink:title=" ">
<polygon fill="none" stroke="#bfbfbf" points="3049.01,-324.5 3049.01,-354.5 3162.01,-354.5 3162.01,-324.5 3049.01,-324.5"/>
<text text-anchor="start" x="3057.01" y="-342.5" font-family="Helvetica,sans-Serif" font-size="10.00">../../Game/Ennemies</text>
<text text-anchor="middle" x="3105.51" y="-331.5" font-family="Helvetica,sans-Serif" font-size="10.00">/EnnemiesFactory.hpp</text>
</a>
</g>
</g>
<!-- Node31&#45;&gt;Node71 -->
<g id="edge60" class="edge">
<title>Node31&#45;&gt;Node71</title>
<path fill="none" stroke="midnightblue" d="M3043.83,-391.48C3053.39,-383.57 3068.02,-371.48 3080.62,-361.07"/>
<polygon fill="midnightblue" stroke="midnightblue" points="3083.06,-363.59 3088.54,-354.52 3078.6,-358.2 3083.06,-363.59"/>
</g>
<!-- Node72 -->
<g id="node46" class="node">
<title>Node72</title>
<g id="a_node46"><a xlink:title=" ">
<polygon fill="none" stroke="#bfbfbf" points="3180.51,-324.5 3180.51,-354.5 3280.51,-354.5 3280.51,-324.5 3180.51,-324.5"/>
<text text-anchor="start" x="3188.51" y="-342.5" font-family="Helvetica,sans-Serif" font-size="10.00">../../Game/Bullets</text>
<text text-anchor="middle" x="3230.51" y="-331.5" font-family="Helvetica,sans-Serif" font-size="10.00">/BulletsFactory.hpp</text>
</a>
</g>
</g>
<!-- Node31&#45;&gt;Node72 -->
<g id="edge61" class="edge">
<title>Node31&#45;&gt;Node72</title>
<path fill="none" stroke="midnightblue" d="M3061.73,-391.48C3091.03,-382.63 3137.64,-368.55 3174.46,-357.43"/>
<polygon fill="midnightblue" stroke="midnightblue" points="3175.52,-360.76 3184.08,-354.52 3173.5,-354.06 3175.52,-360.76"/>
</g>
<!-- Node73 -->
<g id="node47" class="node">
<title>Node73</title>
<g id="a_node47"><a xlink:title=" ">
<polygon fill="none" stroke="#bfbfbf" points="3298.51,-330 3298.51,-349 3468.51,-349 3468.51,-330 3298.51,-330"/>
<text text-anchor="middle" x="3383.51" y="-337" font-family="Helvetica,sans-Serif" font-size="10.00">../../Game/Bonus/BonusFactory.hpp</text>
</a>
</g>
</g>
<!-- Node31&#45;&gt;Node73 -->
<g id="edge62" class="edge">
<title>Node31&#45;&gt;Node73</title>
<path fill="none" stroke="midnightblue" d="M3083.66,-391.48C3146.94,-380.72 3255.68,-362.23 3323.37,-350.72"/>
<polygon fill="midnightblue" stroke="midnightblue" points="3324.18,-354.14 3333.46,-349.01 3323.01,-347.23 3324.18,-354.14"/>
</g>
<!-- Node74 -->
<g id="node48" class="node">
<title>Node74</title>
<g id="a_node48"><a xlink:href="_sound_8hpp.html" target="_top" xlink:title=" ">
<polygon fill="none" stroke="black" points="2814.51,-330 2814.51,-349 2876.51,-349 2876.51,-330 2814.51,-330"/>
<text text-anchor="middle" x="2845.51" y="-337" font-family="Helvetica,sans-Serif" font-size="10.00">Sound.hpp</text>
</a>
</g>
</g>
<!-- Node31&#45;&gt;Node74 -->
<g id="edge63" class="edge">
<title>Node31&#45;&gt;Node74</title>
<path fill="none" stroke="midnightblue" d="M3003.88,-391.49C2973.9,-382.76 2926.28,-368.58 2885.51,-355 2883.12,-354.2 2880.65,-353.36 2878.18,-352.5"/>
<polygon fill="midnightblue" stroke="midnightblue" points="2879.3,-349.19 2868.7,-349.14 2876.96,-355.78 2879.3,-349.19"/>
</g>
<!-- Node76 -->
<g id="node50" class="node">
<title>Node76</title>
<g id="a_node50"><a xlink:title=" ">
<polygon fill="none" stroke="#bfbfbf" points="2894.51,-330 2894.51,-349 3030.51,-349 3030.51,-330 2894.51,-330"/>
<text text-anchor="middle" x="2962.51" y="-337" font-family="Helvetica,sans-Serif" font-size="10.00">../../Game/Player/Player.hpp</text>
</a>
</g>
</g>
<!-- Node31&#45;&gt;Node76 -->
<g id="edge65" class="edge">
<title>Node31&#45;&gt;Node76</title>
<path fill="none" stroke="midnightblue" d="M3023.34,-391.48C3012.16,-382.11 2993.99,-366.88 2980.42,-355.51"/>
<polygon fill="midnightblue" stroke="midnightblue" points="2982.58,-352.75 2972.66,-349.01 2978.08,-358.11 2982.58,-352.75"/>
</g>
<!-- Node33&#45;&gt;Node3 -->
<g id="edge59" class="edge">
<title>Node33&#45;&gt;Node3</title>
<path fill="none" stroke="midnightblue" d="M2724.51,-349.05C2724.51,-367.08 2724.51,-409.56 2724.51,-436.84"/>
<polygon fill="midnightblue" stroke="midnightblue" points="2721.01,-437.14 2724.51,-447.14 2728.01,-437.14 2721.01,-437.14"/>
</g>
<!-- Node33&#45;&gt;Node4 -->
<g id="edge57" class="edge">
<title>Node33&#45;&gt;Node4</title>
<path fill="none" stroke="midnightblue" d="M2652.83,-334.31C2456.12,-322.81 1908.48,-290.8 1697.18,-278.45"/>
<polygon fill="midnightblue" stroke="midnightblue" points="1697.26,-274.95 1687.07,-277.86 1696.85,-281.94 1697.26,-274.95"/>
</g>
<!-- Node33&#45;&gt;Node6 -->
<g id="edge44" class="edge">
<title>Node33&#45;&gt;Node6</title>
<path fill="none" stroke="midnightblue" d="M2652.91,-332.3C2593.57,-325.5 2515.92,-312.19 2496.51,-288 2487.88,-277.26 2487.95,-267.79 2496.51,-257 2540.19,-201.93 2593.76,-262.47 2650.51,-221 2678.51,-200.54 2681.29,-187.43 2690.51,-154 2694.17,-140.72 2698.71,-134.07 2690.51,-123 2669.04,-94.03 2631.37,-81.11 2597.33,-75.57"/>
<polygon fill="midnightblue" stroke="midnightblue" points="2597.77,-72.1 2587.37,-74.13 2596.77,-79.02 2597.77,-72.1"/>
</g>
<!-- Node34 -->
<g id="node34" class="node">
<title>Node34</title>
<g id="a_node34"><a xlink:href="_neko_exception_8hpp.html" target="_top" xlink:title="Contains the NekoEngine main exception type.">
<polygon fill="none" stroke="black" points="2955.01,-190.5 2955.01,-220.5 3092.01,-220.5 3092.01,-190.5 2955.01,-190.5"/>
<text text-anchor="start" x="2963.01" y="-208.5" font-family="Helvetica,sans-Serif" font-size="10.00">NekoEngine/NekoException</text>
<text text-anchor="middle" x="3023.51" y="-197.5" font-family="Helvetica,sans-Serif" font-size="10.00">/NekoException.hpp</text>
</a>
</g>
</g>
<!-- Node33&#45;&gt;Node34 -->
<g id="edge40" class="edge">
<title>Node33&#45;&gt;Node34</title>
<path fill="none" stroke="midnightblue" d="M2769.8,-329.98C2831.46,-318.15 2935.97,-297.17 2951.51,-288 2975.96,-273.57 2996.53,-247.97 3009.34,-229.3"/>
<polygon fill="midnightblue" stroke="midnightblue" points="3012.39,-231.04 3014.99,-220.77 3006.55,-227.18 3012.39,-231.04"/>
</g>
<!-- Node36 -->
<g id="node36" class="node">
<title>Node36</title>
<g id="a_node36"><a xlink:href="_neko_window_exception_8hpp.html" target="_top" xlink:title="WindowException handling class inheriting from NekoException.">
<polygon fill="none" stroke="black" points="3000.01,-257.5 3000.01,-287.5 3137.01,-287.5 3137.01,-257.5 3000.01,-257.5"/>
<text text-anchor="start" x="3008.01" y="-275.5" font-family="Helvetica,sans-Serif" font-size="10.00">NekoEngine/Graphics</text>
<text text-anchor="middle" x="3068.51" y="-264.5" font-family="Helvetica,sans-Serif" font-size="10.00">/NekoWindowException.hpp</text>
</a>
</g>
</g>
<!-- Node33&#45;&gt;Node36 -->
<g id="edge42" class="edge">
<title>Node33&#45;&gt;Node36</title>
<path fill="none" stroke="midnightblue" d="M2769.84,-329.94C2825.83,-319.36 2922.01,-301.18 2990.08,-288.32"/>
<polygon fill="midnightblue" stroke="midnightblue" points="2990.74,-291.76 2999.91,-286.46 2989.44,-284.88 2990.74,-291.76"/>
</g>
<!-- Node37 -->
<g id="node37" class="node">
<title>Node37</title>
<g id="a_node37"><a xlink:href="_quaternion_8hpp.html" target="_top" xlink:title="Utmost basic implementation of a Quaternion, i.e. just a Vector4.">
<polygon fill="none" stroke="black" points="2657.51,-257.5 2657.51,-287.5 2801.51,-287.5 2801.51,-257.5 2657.51,-257.5"/>
<text text-anchor="start" x="2665.51" y="-275.5" font-family="Helvetica,sans-Serif" font-size="10.00">NekoEngine/Math/Quaternion</text>
<text text-anchor="middle" x="2729.51" y="-264.5" font-family="Helvetica,sans-Serif" font-size="10.00">/Quaternion.hpp</text>
</a>
</g>
</g>
<!-- Node33&#45;&gt;Node37 -->
<g id="edge45" class="edge">
<title>Node33&#45;&gt;Node37</title>
<path fill="none" stroke="midnightblue" d="M2725.18,-329.73C2725.81,-321.54 2726.78,-308.92 2727.65,-297.71"/>
<polygon fill="midnightblue" stroke="midnightblue" points="2731.15,-297.83 2728.43,-287.59 2724.17,-297.29 2731.15,-297.83"/>
</g>
<!-- Node38 -->
<g id="node38" class="node">
<title>Node38</title>
<g id="a_node38"><a xlink:href="_matrix_8hpp.html" target="_top" xlink:title="Contains Matrix template class.">
<polygon fill="none" stroke="black" points="2820.01,-257.5 2820.01,-287.5 2943.01,-287.5 2943.01,-257.5 2820.01,-257.5"/>
<text text-anchor="start" x="2828.01" y="-275.5" font-family="Helvetica,sans-Serif" font-size="10.00">NekoEngine/Math/Matrix</text>
<text text-anchor="middle" x="2881.51" y="-264.5" font-family="Helvetica,sans-Serif" font-size="10.00">/Matrix.hpp</text>
</a>
</g>
</g>
<!-- Node33&#45;&gt;Node38 -->
<g id="edge47" class="edge">
<title>Node33&#45;&gt;Node38</title>
<path fill="none" stroke="midnightblue" d="M2745.36,-329.87C2768.92,-320.12 2807.91,-303.97 2838.15,-291.45"/>
<polygon fill="midnightblue" stroke="midnightblue" points="2839.73,-294.59 2847.63,-287.53 2837.05,-288.12 2839.73,-294.59"/>
</g>
<!-- Node40 -->
<g id="node40" class="node">
<title>Node40</title>
<g id="a_node40"><a xlink:href="_coordinator_8hpp.html" target="_top" xlink:title="Coordinator class.">
<polygon fill="none" stroke="red" points="3256.51,-196 3256.51,-215 3418.51,-215 3418.51,-196 3256.51,-196"/>
<text text-anchor="middle" x="3337.51" y="-203" font-family="Helvetica,sans-Serif" font-size="10.00">NekoEngine/ECS/Coordinator.hpp</text>
</a>
</g>
</g>
<!-- Node33&#45;&gt;Node40 -->
<g id="edge50" class="edge">
<title>Node33&#45;&gt;Node40</title>
<path fill="none" stroke="midnightblue" d="M2767.26,-329.96C2779.56,-327.75 2793.03,-325.55 2805.51,-324 2862.21,-316.96 3275.02,-325.07 3318.51,-288 3336.45,-272.71 3339.28,-244.06 3338.95,-225.13"/>
<polygon fill="midnightblue" stroke="midnightblue" points="3342.44,-224.87 3338.46,-215.05 3335.45,-225.2 3342.44,-224.87"/>
</g>
<!-- Node57 -->
<g id="node43" class="node">
<title>Node57</title>
<g id="a_node43"><a xlink:href="_scene_8hpp.html" target="_top" xlink:title="Scene class.">
<polygon fill="none" stroke="black" points="3155.51,-263 3155.51,-282 3309.51,-282 3309.51,-263 3155.51,-263"/>
<text text-anchor="middle" x="3232.51" y="-270" font-family="Helvetica,sans-Serif" font-size="10.00">NekoEngine/Scenes/Scene.hpp</text>
</a>
</g>
</g>
<!-- Node33&#45;&gt;Node57 -->
<g id="edge55" class="edge">
<title>Node33&#45;&gt;Node57</title>
<path fill="none" stroke="midnightblue" d="M2768.98,-329.95C2780.82,-327.83 2793.63,-325.69 2805.51,-324 2956.39,-302.56 2995.52,-308.68 3146.51,-288 3155.86,-286.72 3165.76,-285.2 3175.38,-283.64"/>
<polygon fill="midnightblue" stroke="midnightblue" points="3175.98,-287.09 3185.28,-282 3174.84,-280.18 3175.98,-287.09"/>
</g>
<!-- Node58 -->
<g id="node44" class="node">
<title>Node58</title>
<g id="a_node44"><a xlink:href="_systems_8hpp.html" target="_top" xlink:title="Systems.">
<polygon fill="none" stroke="red" points="2506.01,-257.5 2506.01,-287.5 2639.01,-287.5 2639.01,-257.5 2506.01,-257.5"/>
<text text-anchor="start" x="2514.01" y="-275.5" font-family="Helvetica,sans-Serif" font-size="10.00">NekoEngine/ECS/Systems</text>
<text text-anchor="middle" x="2572.51" y="-264.5" font-family="Helvetica,sans-Serif" font-size="10.00">/Systems.hpp</text>
</a>
</g>
</g>
<!-- Node33&#45;&gt;Node58 -->
<g id="edge58" class="edge">
<title>Node33&#45;&gt;Node58</title>
<path fill="none" stroke="midnightblue" d="M2704.33,-329.87C2681.62,-320.16 2644.09,-304.11 2614.87,-291.61"/>
<polygon fill="midnightblue" stroke="midnightblue" points="2615.88,-288.24 2605.31,-287.53 2613.13,-294.68 2615.88,-288.24"/>
</g>
<!-- Node35 -->
<g id="node35" class="node">
<title>Node35</title>
<g id="a_node35"><a xlink:title=" ">
<polygon fill="none" stroke="#bfbfbf" points="3003.01,-129 3003.01,-148 3044.01,-148 3044.01,-129 3003.01,-129"/>
<text text-anchor="middle" x="3023.51" y="-136" font-family="Helvetica,sans-Serif" font-size="10.00">string</text>
</a>
</g>
</g>
<!-- Node34&#45;&gt;Node35 -->
<g id="edge41" class="edge">
<title>Node34&#45;&gt;Node35</title>
<path fill="none" stroke="midnightblue" d="M3023.51,-190.4C3023.51,-181.06 3023.51,-168.71 3023.51,-158.52"/>
<polygon fill="midnightblue" stroke="midnightblue" points="3027.01,-158.19 3023.51,-148.19 3020.01,-158.19 3027.01,-158.19"/>
</g>
<!-- Node36&#45;&gt;Node34 -->
<g id="edge43" class="edge">
<title>Node36&#45;&gt;Node34</title>
<path fill="none" stroke="midnightblue" d="M3058.75,-257.4C3052.97,-249.05 3045.52,-238.29 3038.96,-228.81"/>
<polygon fill="midnightblue" stroke="midnightblue" points="3041.82,-226.81 3033.25,-220.58 3036.07,-230.79 3041.82,-226.81"/>
</g>
<!-- Node37&#45;&gt;Node6 -->
<g id="edge46" class="edge">
<title>Node37&#45;&gt;Node6</title>
<path fill="none" stroke="midnightblue" d="M2733.92,-257.33C2741.96,-228.46 2755.36,-162.28 2723.51,-123 2707.47,-103.22 2647.33,-89.78 2597.32,-81.78"/>
<polygon fill="midnightblue" stroke="midnightblue" points="2597.56,-78.27 2587.14,-80.2 2596.49,-85.19 2597.56,-78.27"/>
</g>
<!-- Node38&#45;&gt;Node6 -->
<g id="edge48" class="edge">
<title>Node38&#45;&gt;Node6</title>
<path fill="none" stroke="midnightblue" d="M2881.32,-257.41C2880.41,-239.94 2876.55,-210.04 2861.51,-190 2799.84,-107.83 2676.69,-82.81 2597.56,-75.38"/>
<polygon fill="midnightblue" stroke="midnightblue" points="2597.45,-71.86 2587.18,-74.48 2596.84,-78.83 2597.45,-71.86"/>
</g>
<!-- Node39 -->
<g id="node39" class="node">
<title>Node39</title>
<g id="a_node39"><a xlink:title=" ">
<polygon fill="none" stroke="#bfbfbf" points="2794.01,-196 2794.01,-215 2853.01,-215 2853.01,-196 2794.01,-196"/>
<text text-anchor="middle" x="2823.51" y="-203" font-family="Helvetica,sans-Serif" font-size="10.00">Matrix.tpp</text>
</a>
</g>
</g>
<!-- Node38&#45;&gt;Node39 -->
<g id="edge49" class="edge">
<title>Node38&#45;&gt;Node39</title>
<path fill="none" stroke="midnightblue" d="M2868.92,-257.4C2859.88,-247.26 2847.66,-233.57 2838.18,-222.94"/>
<polygon fill="midnightblue" stroke="midnightblue" points="2840.54,-220.33 2831.27,-215.19 2835.31,-224.99 2840.54,-220.33"/>
</g>
<!-- Node41 -->
<g id="node41" class="node">
<title>Node41</title>
<g id="a_node41"><a xlink:href="_component_manager_8hpp.html" target="_top" xlink:title="Component Manmager class.">
<polygon fill="none" stroke="red" points="3442.51,-123.5 3442.51,-153.5 3586.51,-153.5 3586.51,-123.5 3442.51,-123.5"/>
<text text-anchor="start" x="3450.51" y="-141.5" font-family="Helvetica,sans-Serif" font-size="10.00">NekoEngine/ECS/Component</text>
<text text-anchor="middle" x="3514.51" y="-130.5" font-family="Helvetica,sans-Serif" font-size="10.00">Manager.hpp</text>
</a>
</g>
</g>
<!-- Node40&#45;&gt;Node41 -->
<g id="edge51" class="edge">
<title>Node40&#45;&gt;Node41</title>
<path fill="none" stroke="midnightblue" d="M3361.01,-195.87C3387.8,-186.03 3432.3,-169.69 3466.51,-157.13"/>
<polygon fill="midnightblue" stroke="midnightblue" points="3468.13,-160.26 3476.31,-153.53 3465.72,-153.69 3468.13,-160.26"/>
</g>
<!-- Node50 -->
<g id="node42" class="node">
<title>Node50</title>
<g id="a_node42"><a xlink:href="_entity_manager_8hpp.html" target="_top" xlink:title="Entities are fun.">
<polygon fill="none" stroke="red" points="3250.51,-129 3250.51,-148 3424.51,-148 3424.51,-129 3250.51,-129"/>
<text text-anchor="middle" x="3337.51" y="-136" font-family="Helvetica,sans-Serif" font-size="10.00">NekoEngine/ECS/EntityManager.hpp</text>
</a>
</g>
</g>
<!-- Node40&#45;&gt;Node50 -->
<g id="edge53" class="edge">
<title>Node40&#45;&gt;Node50</title>
<path fill="none" stroke="midnightblue" d="M3337.51,-195.73C3337.51,-186.18 3337.51,-170.62 3337.51,-158.28"/>
<polygon fill="midnightblue" stroke="midnightblue" points="3341.01,-158.13 3337.51,-148.13 3334.01,-158.13 3341.01,-158.13"/>
</g>
<!-- Node41&#45;&gt;Node2 -->
<g id="edge52" class="edge">
<title>Node41&#45;&gt;Node2</title>
<path fill="none" stroke="midnightblue" d="M3514.51,-123.4C3514.51,-114.06 3514.51,-101.71 3514.51,-91.52"/>
<polygon fill="midnightblue" stroke="midnightblue" points="3518.01,-91.19 3514.51,-81.19 3511.01,-91.19 3518.01,-91.19"/>
</g>
<!-- Node50&#45;&gt;Node2 -->
<g id="edge54" class="edge">
<title>Node50&#45;&gt;Node2</title>
<path fill="none" stroke="midnightblue" d="M3361.01,-128.87C3391.91,-117.52 3446.37,-97.52 3481.42,-84.65"/>
<polygon fill="midnightblue" stroke="midnightblue" points="3483.01,-87.8 3491.19,-81.06 3480.6,-81.23 3483.01,-87.8"/>
</g>
<!-- Node57&#45;&gt;Node40 -->
<g id="edge56" class="edge">
<title>Node57&#45;&gt;Node40</title>
<path fill="none" stroke="midnightblue" d="M3246.67,-262.73C3264.22,-251.87 3294.35,-233.22 3315.07,-220.39"/>
<polygon fill="midnightblue" stroke="midnightblue" points="3316.91,-223.37 3323.57,-215.13 3313.23,-217.41 3316.91,-223.37"/>
</g>
<!-- Node75 -->
<g id="node49" class="node">
<title>Node75</title>
<g id="a_node49"><a xlink:title=" ">
<polygon fill="none" stroke="#bfbfbf" points="3366.01,-263 3366.01,-282 3455.01,-282 3455.01,-263 3366.01,-263"/>
<text text-anchor="middle" x="3410.51" y="-270" font-family="Helvetica,sans-Serif" font-size="10.00">SFML/Audio.hpp</text>
</a>
</g>
</g>
<!-- Node74&#45;&gt;Node75 -->
<g id="edge64" class="edge">
<title>Node74&#45;&gt;Node75</title>
<path fill="none" stroke="midnightblue" d="M2865.96,-329.88C2872.14,-327.61 2879.01,-325.4 2885.51,-324 3088.57,-280.2 3146.4,-320.9 3351.51,-288 3357.45,-287.05 3363.67,-285.8 3369.75,-284.44"/>
<polygon fill="midnightblue" stroke="midnightblue" points="3370.85,-287.77 3379.78,-282.06 3369.24,-280.96 3370.85,-287.77"/>
</g>
</g>
</svg>
