<?xml version="1.0" encoding="UTF-8" standalone="no"?>
<!DOCTYPE svg PUBLIC "-//W3C//DTD SVG 1.1//EN"
 "http://www.w3.org/Graphics/SVG/1.1/DTD/svg11.dtd">
<!-- Generated by graphviz version 2.49.3 (20211027.1501)
 -->
<!-- Title: NekoEngine/include/NekoEngine/Graphics/Window.hpp Pages: 1 -->
<svg width="3720pt" height="497pt"
 viewBox="0.00 0.00 3720.00 497.00" xmlns="http://www.w3.org/2000/svg" xmlns:xlink="http://www.w3.org/1999/xlink">
<g id="graph0" class="graph" transform="scale(1 1) rotate(0) translate(4 493)">
<title>NekoEngine/include/NekoEngine/Graphics/Window.hpp</title>
<!-- Node1 -->
<g id="node1" class="node">
<title>Node1</title>
<g id="a_node1"><a xlink:title="Contains the NekoEngine Window class wrapper.">
<polygon fill="#bfbfbf" stroke="black" points="2074,-447.5 2074,-488.5 2188,-488.5 2188,-447.5 2074,-447.5"/>
<text text-anchor="start" x="2082" y="-476.5" font-family="Helvetica,sans-Serif" font-size="10.00">NekoEngine/include</text>
<text text-anchor="start" x="2082" y="-465.5" font-family="Helvetica,sans-Serif" font-size="10.00">/NekoEngine/Graphics</text>
<text text-anchor="middle" x="2131" y="-454.5" font-family="Helvetica,sans-Serif" font-size="10.00">/Window.hpp</text>
</a>
</g>
</g>
<!-- Node2 -->
<g id="node2" class="node">
<title>Node2</title>
<g id="a_node2"><a xlink:href="_components_8hpp.html" target="_top" xlink:title="Components.">
<polygon fill="none" stroke="black" points="1354.5,-257.5 1354.5,-287.5 1503.5,-287.5 1503.5,-257.5 1354.5,-257.5"/>
<text text-anchor="start" x="1362.5" y="-275.5" font-family="Helvetica,sans-Serif" font-size="10.00">NekoEngine/ECS/Components</text>
<text text-anchor="middle" x="1429" y="-264.5" font-family="Helvetica,sans-Serif" font-size="10.00">/Components.hpp</text>
</a>
</g>
</g>
<!-- Node1&#45;&gt;Node2 -->
<g id="edge1" class="edge">
<title>Node1&#45;&gt;Node2</title>
<path fill="none" stroke="midnightblue" d="M2073.85,-451.25C1943.24,-415.25 1623.85,-327.21 1489.8,-290.26"/>
<polygon fill="midnightblue" stroke="midnightblue" points="1490.66,-286.87 1480.09,-287.58 1488.8,-293.61 1490.66,-286.87"/>
</g>
<!-- Node4 -->
<g id="node4" class="node">
<title>Node4</title>
<g id="a_node4"><a xlink:href="_vector_8hpp.html" target="_top" xlink:title="Contains all headers for all Vector types.">
<polygon fill="none" stroke="black" points="1002.5,-56.5 1002.5,-86.5 1127.5,-86.5 1127.5,-56.5 1002.5,-56.5"/>
<text text-anchor="start" x="1010.5" y="-74.5" font-family="Helvetica,sans-Serif" font-size="10.00">NekoEngine/Math/Vector</text>
<text text-anchor="middle" x="1065" y="-63.5" font-family="Helvetica,sans-Serif" font-size="10.00">/Vector.hpp</text>
</a>
</g>
</g>
<!-- Node1&#45;&gt;Node4 -->
<g id="edge34" class="edge">
<title>Node1&#45;&gt;Node4</title>
<path fill="none" stroke="midnightblue" d="M2073.73,-466.68C1734.17,-464.39 0,-447.49 0,-340.5 0,-340.5 0,-340.5 0,-204.5 0,-161.29 15.55,-144.55 53,-123 133.77,-76.53 774.12,-72.39 992.4,-72.34"/>
<polygon fill="midnightblue" stroke="midnightblue" points="992.47,-75.84 1002.47,-72.34 992.47,-68.84 992.47,-75.84"/>
</g>
<!-- Node29 -->
<g id="node29" class="node">
<title>Node29</title>
<g id="a_node29"><a xlink:href="_custom_client_8hpp.html" target="_top" xlink:title=" ">
<polygon fill="none" stroke="black" points="3149.5,-391.5 3149.5,-410.5 3276.5,-410.5 3276.5,-391.5 3149.5,-391.5"/>
<text text-anchor="middle" x="3213" y="-398.5" font-family="Helvetica,sans-Serif" font-size="10.00">include/CustomClient.hpp</text>
</a>
</g>
</g>
<!-- Node1&#45;&gt;Node29 -->
<g id="edge35" class="edge">
<title>Node1&#45;&gt;Node29</title>
<path fill="none" stroke="midnightblue" d="M2188.03,-463.57C2369.87,-452.65 2935.94,-418.64 3139.31,-406.43"/>
<polygon fill="midnightblue" stroke="midnightblue" points="3139.52,-409.92 3149.29,-405.83 3139.1,-402.93 3139.52,-409.92"/>
</g>
<!-- Node3 -->
<g id="node3" class="node">
<title>Node3</title>
<g id="a_node3"><a xlink:href="_transform_8hpp.html" target="_top" xlink:title="Transform component.">
<polygon fill="none" stroke="black" points="149.5,-123.5 149.5,-153.5 298.5,-153.5 298.5,-123.5 149.5,-123.5"/>
<text text-anchor="start" x="157.5" y="-141.5" font-family="Helvetica,sans-Serif" font-size="10.00">NekoEngine/ECS/Components</text>
<text text-anchor="middle" x="224" y="-130.5" font-family="Helvetica,sans-Serif" font-size="10.00">/Transform.hpp</text>
</a>
</g>
</g>
<!-- Node2&#45;&gt;Node3 -->
<g id="edge2" class="edge">
<title>Node2&#45;&gt;Node3</title>
<path fill="none" stroke="midnightblue" d="M1354.27,-270.68C1101.47,-267.6 291.63,-255.11 248,-221 230.9,-207.63 225.53,-182.71 224.05,-163.93"/>
<polygon fill="midnightblue" stroke="midnightblue" points="227.54,-163.54 223.57,-153.72 220.55,-163.87 227.54,-163.54"/>
</g>
<!-- Node8 -->
<g id="node8" class="node">
<title>Node8</title>
<g id="a_node8"><a xlink:href="_timer_8hpp.html" target="_top" xlink:title="Timer component.">
<polygon fill="none" stroke="black" points="269.5,-190.5 269.5,-220.5 418.5,-220.5 418.5,-190.5 269.5,-190.5"/>
<text text-anchor="start" x="277.5" y="-208.5" font-family="Helvetica,sans-Serif" font-size="10.00">NekoEngine/ECS/Components</text>
<text text-anchor="middle" x="344" y="-197.5" font-family="Helvetica,sans-Serif" font-size="10.00">/Timer.hpp</text>
</a>
</g>
</g>
<!-- Node2&#45;&gt;Node8 -->
<g id="edge7" class="edge">
<title>Node2&#45;&gt;Node8</title>
<path fill="none" stroke="midnightblue" d="M1354.27,-270.86C1189.01,-268.77 779.99,-259.87 428.71,-221.1"/>
<polygon fill="midnightblue" stroke="midnightblue" points="428.92,-217.6 418.59,-219.98 428.15,-224.56 428.92,-217.6"/>
</g>
<!-- Node10 -->
<g id="node10" class="node">
<title>Node10</title>
<g id="a_node10"><a xlink:href="_renderable_8hpp.html" target="_top" xlink:title="Renderable component.">
<polygon fill="none" stroke="black" points="436.5,-190.5 436.5,-220.5 585.5,-220.5 585.5,-190.5 436.5,-190.5"/>
<text text-anchor="start" x="444.5" y="-208.5" font-family="Helvetica,sans-Serif" font-size="10.00">NekoEngine/ECS/Components</text>
<text text-anchor="middle" x="511" y="-197.5" font-family="Helvetica,sans-Serif" font-size="10.00">/Renderable.hpp</text>
</a>
</g>
</g>
<!-- Node2&#45;&gt;Node10 -->
<g id="edge9" class="edge">
<title>Node2&#45;&gt;Node10</title>
<path fill="none" stroke="midnightblue" d="M1354.47,-269.8C1209.92,-265.9 881.29,-254.04 595.74,-221.12"/>
<polygon fill="midnightblue" stroke="midnightblue" points="595.94,-217.62 585.6,-219.94 595.13,-224.57 595.94,-217.62"/>
</g>
<!-- Node11 -->
<g id="node11" class="node">
<title>Node11</title>
<g id="a_node11"><a xlink:href="_color_8hpp.html" target="_top" xlink:title="Color component.">
<polygon fill="none" stroke="black" points="603.5,-190.5 603.5,-220.5 752.5,-220.5 752.5,-190.5 603.5,-190.5"/>
<text text-anchor="start" x="611.5" y="-208.5" font-family="Helvetica,sans-Serif" font-size="10.00">NekoEngine/ECS/Components</text>
<text text-anchor="middle" x="678" y="-197.5" font-family="Helvetica,sans-Serif" font-size="10.00">/Color.hpp</text>
</a>
</g>
</g>
<!-- Node2&#45;&gt;Node11 -->
<g id="edge10" class="edge">
<title>Node2&#45;&gt;Node11</title>
<path fill="none" stroke="midnightblue" d="M1354.38,-268.24C1232.55,-262.38 983.21,-248.22 762.75,-221.14"/>
<polygon fill="midnightblue" stroke="midnightblue" points="762.96,-217.64 752.61,-219.89 762.1,-224.59 762.96,-217.64"/>
</g>
<!-- Node13 -->
<g id="node13" class="node">
<title>Node13</title>
<g id="a_node13"><a xlink:href="_rigid_body_8hpp.html" target="_top" xlink:title="RigidBody component.">
<polygon fill="none" stroke="black" points="316.5,-123.5 316.5,-153.5 465.5,-153.5 465.5,-123.5 316.5,-123.5"/>
<text text-anchor="start" x="324.5" y="-141.5" font-family="Helvetica,sans-Serif" font-size="10.00">NekoEngine/ECS/Components</text>
<text text-anchor="middle" x="391" y="-130.5" font-family="Helvetica,sans-Serif" font-size="10.00">/RigidBody.hpp</text>
</a>
</g>
</g>
<!-- Node2&#45;&gt;Node13 -->
<g id="edge12" class="edge">
<title>Node2&#45;&gt;Node13</title>
<path fill="none" stroke="midnightblue" d="M1354.2,-271.08C1102.22,-269.31 297.89,-260.57 260,-221 233.25,-193.07 278.36,-170.71 322.77,-156.53"/>
<polygon fill="midnightblue" stroke="midnightblue" points="323.97,-159.83 332.51,-153.55 321.92,-153.13 323.97,-159.83"/>
</g>
<!-- Node14 -->
<g id="node14" class="node">
<title>Node14</title>
<g id="a_node14"><a xlink:href="_gravity_8hpp.html" target="_top" xlink:title="Gravity component.">
<polygon fill="none" stroke="black" points="1682.5,-123.5 1682.5,-153.5 1831.5,-153.5 1831.5,-123.5 1682.5,-123.5"/>
<text text-anchor="start" x="1690.5" y="-141.5" font-family="Helvetica,sans-Serif" font-size="10.00">NekoEngine/ECS/Components</text>
<text text-anchor="middle" x="1757" y="-130.5" font-family="Helvetica,sans-Serif" font-size="10.00">/Gravity.hpp</text>
</a>
</g>
</g>
<!-- Node2&#45;&gt;Node14 -->
<g id="edge14" class="edge">
<title>Node2&#45;&gt;Node14</title>
<path fill="none" stroke="midnightblue" d="M1503.86,-271.08C1756.06,-269.32 2561.07,-260.6 2599,-221 2608.53,-211.05 2608.45,-200.03 2599,-190 2573.31,-162.73 2050.5,-146.78 1841.88,-141.49"/>
<polygon fill="midnightblue" stroke="midnightblue" points="1841.67,-137.98 1831.59,-141.23 1841.5,-144.98 1841.67,-137.98"/>
</g>
<!-- Node15 -->
<g id="node15" class="node">
<title>Node15</title>
<g id="a_node15"><a xlink:href="_skin_8hpp.html" target="_top" xlink:title="Skin component.">
<polygon fill="none" stroke="black" points="937.5,-190.5 937.5,-220.5 1086.5,-220.5 1086.5,-190.5 937.5,-190.5"/>
<text text-anchor="start" x="945.5" y="-208.5" font-family="Helvetica,sans-Serif" font-size="10.00">NekoEngine/ECS/Components</text>
<text text-anchor="middle" x="1012" y="-197.5" font-family="Helvetica,sans-Serif" font-size="10.00">/Skin.hpp</text>
</a>
</g>
</g>
<!-- Node2&#45;&gt;Node15 -->
<g id="edge16" class="edge">
<title>Node2&#45;&gt;Node15</title>
<path fill="none" stroke="midnightblue" d="M1354.21,-260.6C1288.98,-251 1191.54,-236.4 1096.7,-221.09"/>
<polygon fill="midnightblue" stroke="midnightblue" points="1097.07,-217.61 1086.64,-219.47 1095.95,-224.52 1097.07,-217.61"/>
</g>
<!-- Node17 -->
<g id="node17" class="node">
<title>Node17</title>
<g id="a_node17"><a xlink:href="_networkable_8hpp.html" target="_top" xlink:title="Networkable component.">
<polygon fill="none" stroke="black" points="1271.5,-190.5 1271.5,-220.5 1420.5,-220.5 1420.5,-190.5 1271.5,-190.5"/>
<text text-anchor="start" x="1279.5" y="-208.5" font-family="Helvetica,sans-Serif" font-size="10.00">NekoEngine/ECS/Components</text>
<text text-anchor="middle" x="1346" y="-197.5" font-family="Helvetica,sans-Serif" font-size="10.00">/Networkable.hpp</text>
</a>
</g>
</g>
<!-- Node2&#45;&gt;Node17 -->
<g id="edge18" class="edge">
<title>Node2&#45;&gt;Node17</title>
<path fill="none" stroke="midnightblue" d="M1410.99,-257.4C1399.57,-248.45 1384.61,-236.74 1371.92,-226.8"/>
<polygon fill="midnightblue" stroke="midnightblue" points="1374.01,-223.99 1363.97,-220.58 1369.69,-229.5 1374.01,-223.99"/>
</g>
<!-- Node18 -->
<g id="node18" class="node">
<title>Node18</title>
<g id="a_node18"><a xlink:href="_uid_8hpp.html" target="_top" xlink:title="Uid component.">
<polygon fill="none" stroke="black" points="770.5,-190.5 770.5,-220.5 919.5,-220.5 919.5,-190.5 770.5,-190.5"/>
<text text-anchor="start" x="778.5" y="-208.5" font-family="Helvetica,sans-Serif" font-size="10.00">NekoEngine/ECS/Components</text>
<text text-anchor="middle" x="845" y="-197.5" font-family="Helvetica,sans-Serif" font-size="10.00">/Uid.hpp</text>
</a>
</g>
</g>
<!-- Node2&#45;&gt;Node18 -->
<g id="edge19" class="edge">
<title>Node2&#45;&gt;Node18</title>
<path fill="none" stroke="midnightblue" d="M1354.1,-265.66C1258.09,-257.78 1086.27,-242.41 929.89,-221.2"/>
<polygon fill="midnightblue" stroke="midnightblue" points="930,-217.69 919.62,-219.8 929.05,-224.62 930,-217.69"/>
</g>
<!-- Node19 -->
<g id="node19" class="node">
<title>Node19</title>
<g id="a_node19"><a xlink:href="_hostile_8hpp.html" target="_top" xlink:title=" ">
<polygon fill="none" stroke="black" points="1438.5,-190.5 1438.5,-220.5 1587.5,-220.5 1587.5,-190.5 1438.5,-190.5"/>
<text text-anchor="start" x="1446.5" y="-208.5" font-family="Helvetica,sans-Serif" font-size="10.00">NekoEngine/ECS/Components</text>
<text text-anchor="middle" x="1513" y="-197.5" font-family="Helvetica,sans-Serif" font-size="10.00">/Hostile.hpp</text>
</a>
</g>
</g>
<!-- Node2&#45;&gt;Node19 -->
<g id="edge21" class="edge">
<title>Node2&#45;&gt;Node19</title>
<path fill="none" stroke="midnightblue" d="M1447.23,-257.4C1458.78,-248.45 1473.92,-236.74 1486.76,-226.8"/>
<polygon fill="midnightblue" stroke="midnightblue" points="1489.04,-229.46 1494.81,-220.58 1484.76,-223.93 1489.04,-229.46"/>
</g>
<!-- Node20 -->
<g id="node20" class="node">
<title>Node20</title>
<g id="a_node20"><a xlink:href="_but_8hpp.html" target="_top" xlink:title=" ">
<polygon fill="none" stroke="black" points="1605.5,-190.5 1605.5,-220.5 1754.5,-220.5 1754.5,-190.5 1605.5,-190.5"/>
<text text-anchor="start" x="1613.5" y="-208.5" font-family="Helvetica,sans-Serif" font-size="10.00">NekoEngine/ECS/Components</text>
<text text-anchor="middle" x="1680" y="-197.5" font-family="Helvetica,sans-Serif" font-size="10.00">/But.hpp</text>
</a>
</g>
</g>
<!-- Node2&#45;&gt;Node20 -->
<g id="edge22" class="edge">
<title>Node2&#45;&gt;Node20</title>
<path fill="none" stroke="midnightblue" d="M1483.15,-257.48C1522.03,-247.41 1574.58,-233.8 1615.61,-223.17"/>
<polygon fill="midnightblue" stroke="midnightblue" points="1616.71,-226.51 1625.51,-220.61 1614.95,-219.73 1616.71,-226.51"/>
</g>
<!-- Node21 -->
<g id="node21" class="node">
<title>Node21</title>
<g id="a_node21"><a xlink:href="_textinfo_8hpp.html" target="_top" xlink:title=" ">
<polygon fill="none" stroke="black" points="1104.5,-190.5 1104.5,-220.5 1253.5,-220.5 1253.5,-190.5 1104.5,-190.5"/>
<text text-anchor="start" x="1112.5" y="-208.5" font-family="Helvetica,sans-Serif" font-size="10.00">NekoEngine/ECS/Components</text>
<text text-anchor="middle" x="1179" y="-197.5" font-family="Helvetica,sans-Serif" font-size="10.00">/Textinfo.hpp</text>
</a>
</g>
</g>
<!-- Node2&#45;&gt;Node21 -->
<g id="edge23" class="edge">
<title>Node2&#45;&gt;Node21</title>
<path fill="none" stroke="midnightblue" d="M1375.06,-257.48C1336.34,-247.41 1284,-233.8 1243.13,-223.17"/>
<polygon fill="midnightblue" stroke="midnightblue" points="1243.83,-219.74 1233.27,-220.61 1242.07,-226.51 1243.83,-219.74"/>
</g>
<!-- Node22 -->
<g id="node22" class="node">
<title>Node22</title>
<g id="a_node22"><a xlink:href="_patterns_8hpp.html" target="_top" xlink:title="Patterns component.">
<polygon fill="none" stroke="black" points="27.5,-190.5 27.5,-220.5 176.5,-220.5 176.5,-190.5 27.5,-190.5"/>
<text text-anchor="start" x="35.5" y="-208.5" font-family="Helvetica,sans-Serif" font-size="10.00">NekoEngine/ECS/Components</text>
<text text-anchor="middle" x="102" y="-197.5" font-family="Helvetica,sans-Serif" font-size="10.00">/Patterns.hpp</text>
</a>
</g>
</g>
<!-- Node2&#45;&gt;Node22 -->
<g id="edge25" class="edge">
<title>Node2&#45;&gt;Node22</title>
<path fill="none" stroke="midnightblue" d="M1354.41,-271.64C1161.38,-271.31 629.84,-266.03 190,-221 188.92,-220.89 187.84,-220.77 186.75,-220.65"/>
<polygon fill="midnightblue" stroke="midnightblue" points="187.15,-217.18 176.81,-219.47 186.32,-224.13 187.15,-217.18"/>
</g>
<!-- Node24 -->
<g id="node24" class="node">
<title>Node24</title>
<g id="a_node24"><a xlink:href="_alien_8hpp.html" target="_top" xlink:title="Alien component.">
<polygon fill="none" stroke="black" points="1772.5,-190.5 1772.5,-220.5 1921.5,-220.5 1921.5,-190.5 1772.5,-190.5"/>
<text text-anchor="start" x="1780.5" y="-208.5" font-family="Helvetica,sans-Serif" font-size="10.00">NekoEngine/ECS/Components</text>
<text text-anchor="middle" x="1847" y="-197.5" font-family="Helvetica,sans-Serif" font-size="10.00">/Alien.hpp</text>
</a>
</g>
</g>
<!-- Node2&#45;&gt;Node24 -->
<g id="edge29" class="edge">
<title>Node2&#45;&gt;Node24</title>
<path fill="none" stroke="midnightblue" d="M1503.59,-260.77C1569.21,-251.2 1667.59,-236.59 1762.32,-221.25"/>
<polygon fill="midnightblue" stroke="midnightblue" points="1763.05,-224.68 1772.36,-219.62 1761.93,-217.77 1763.05,-224.68"/>
</g>
<!-- Node25 -->
<g id="node25" class="node">
<title>Node25</title>
<g id="a_node25"><a xlink:href="_entity_type_8hpp.html" target="_top" xlink:title=" ">
<polygon fill="none" stroke="black" points="1939.5,-190.5 1939.5,-220.5 2088.5,-220.5 2088.5,-190.5 1939.5,-190.5"/>
<text text-anchor="start" x="1947.5" y="-208.5" font-family="Helvetica,sans-Serif" font-size="10.00">NekoEngine/ECS/Components</text>
<text text-anchor="middle" x="2014" y="-197.5" font-family="Helvetica,sans-Serif" font-size="10.00">/EntityType.hpp</text>
</a>
</g>
</g>
<!-- Node2&#45;&gt;Node25 -->
<g id="edge30" class="edge">
<title>Node2&#45;&gt;Node25</title>
<path fill="none" stroke="midnightblue" d="M1503.62,-265.7C1599.74,-257.84 1772.18,-242.46 1929.07,-221.21"/>
<polygon fill="midnightblue" stroke="midnightblue" points="1929.95,-224.62 1939.38,-219.8 1929,-217.68 1929.95,-224.62"/>
</g>
<!-- Node26 -->
<g id="node26" class="node">
<title>Node26</title>
<g id="a_node26"><a xlink:href="_gorb_background_8hpp.html" target="_top" xlink:title=" ">
<polygon fill="none" stroke="black" points="2106.5,-190.5 2106.5,-220.5 2255.5,-220.5 2255.5,-190.5 2106.5,-190.5"/>
<text text-anchor="start" x="2114.5" y="-208.5" font-family="Helvetica,sans-Serif" font-size="10.00">NekoEngine/ECS/Components</text>
<text text-anchor="middle" x="2181" y="-197.5" font-family="Helvetica,sans-Serif" font-size="10.00">/GorbBackground.hpp</text>
</a>
</g>
</g>
<!-- Node2&#45;&gt;Node26 -->
<g id="edge31" class="edge">
<title>Node2&#45;&gt;Node26</title>
<path fill="none" stroke="midnightblue" d="M1503.73,-268.24C1625.74,-262.4 1875.46,-248.25 2096.24,-221.15"/>
<polygon fill="midnightblue" stroke="midnightblue" points="2096.9,-224.59 2106.39,-219.89 2096.04,-217.64 2096.9,-224.59"/>
</g>
<!-- Node27 -->
<g id="node27" class="node">
<title>Node27</title>
<g id="a_node27"><a xlink:href="_animation_8hpp.html" target="_top" xlink:title=" ">
<polygon fill="none" stroke="black" points="2273.5,-190.5 2273.5,-220.5 2422.5,-220.5 2422.5,-190.5 2273.5,-190.5"/>
<text text-anchor="start" x="2281.5" y="-208.5" font-family="Helvetica,sans-Serif" font-size="10.00">NekoEngine/ECS/Components</text>
<text text-anchor="middle" x="2348" y="-197.5" font-family="Helvetica,sans-Serif" font-size="10.00">/Animation.hpp</text>
</a>
</g>
</g>
<!-- Node2&#45;&gt;Node27 -->
<g id="edge32" class="edge">
<title>Node2&#45;&gt;Node27</title>
<path fill="none" stroke="midnightblue" d="M1503.62,-269.81C1648.35,-265.92 1977.37,-254.07 2263.25,-221.12"/>
<polygon fill="midnightblue" stroke="midnightblue" points="2263.87,-224.57 2273.4,-219.94 2263.06,-217.62 2263.87,-224.57"/>
</g>
<!-- Node28 -->
<g id="node28" class="node">
<title>Node28</title>
<g id="a_node28"><a xlink:href="_player_shoot_8hpp.html" target="_top" xlink:title=" ">
<polygon fill="none" stroke="black" points="2440.5,-190.5 2440.5,-220.5 2589.5,-220.5 2589.5,-190.5 2440.5,-190.5"/>
<text text-anchor="start" x="2448.5" y="-208.5" font-family="Helvetica,sans-Serif" font-size="10.00">NekoEngine/ECS/Components</text>
<text text-anchor="middle" x="2515" y="-197.5" font-family="Helvetica,sans-Serif" font-size="10.00">/PlayerShoot.hpp</text>
</a>
</g>
</g>
<!-- Node2&#45;&gt;Node28 -->
<g id="edge33" class="edge">
<title>Node2&#45;&gt;Node28</title>
<path fill="none" stroke="midnightblue" d="M1503.8,-270.86C1669.23,-268.78 2078.65,-259.9 2430.28,-221.1"/>
<polygon fill="midnightblue" stroke="midnightblue" points="2430.85,-224.56 2440.41,-219.98 2430.08,-217.6 2430.85,-224.56"/>
</g>
<!-- Node3&#45;&gt;Node4 -->
<g id="edge3" class="edge">
<title>Node3&#45;&gt;Node4</title>
<path fill="none" stroke="midnightblue" d="M298.6,-124.08C301.43,-123.69 304.24,-123.33 307,-123 557.45,-92.87 856.79,-79.57 992.15,-74.77"/>
<polygon fill="midnightblue" stroke="midnightblue" points="992.52,-78.26 1002.4,-74.42 992.28,-71.27 992.52,-78.26"/>
</g>
<!-- Node5 -->
<g id="node5" class="node">
<title>Node5</title>
<g id="a_node5"><a xlink:href="_vector2_8hpp.html" target="_top" xlink:title="Contains Vector2 template class.">
<polygon fill="none" stroke="black" points="945,-0.5 945,-19.5 1013,-19.5 1013,-0.5 945,-0.5"/>
<text text-anchor="middle" x="979" y="-7.5" font-family="Helvetica,sans-Serif" font-size="10.00">Vector2.hpp</text>
</a>
</g>
</g>
<!-- Node4&#45;&gt;Node5 -->
<g id="edge4" class="edge">
<title>Node4&#45;&gt;Node5</title>
<path fill="none" stroke="midnightblue" d="M1044.62,-56.4C1031.09,-47.04 1013.39,-34.79 999.78,-25.38"/>
<polygon fill="midnightblue" stroke="midnightblue" points="1001.73,-22.47 991.51,-19.66 997.75,-28.23 1001.73,-22.47"/>
</g>
<!-- Node6 -->
<g id="node6" class="node">
<title>Node6</title>
<g id="a_node6"><a xlink:href="_vector3_8hpp.html" target="_top" xlink:title="Contains Vector3 template class.">
<polygon fill="none" stroke="black" points="1031,-0.5 1031,-19.5 1099,-19.5 1099,-0.5 1031,-0.5"/>
<text text-anchor="middle" x="1065" y="-7.5" font-family="Helvetica,sans-Serif" font-size="10.00">Vector3.hpp</text>
</a>
</g>
</g>
<!-- Node4&#45;&gt;Node6 -->
<g id="edge5" class="edge">
<title>Node4&#45;&gt;Node6</title>
<path fill="none" stroke="midnightblue" d="M1065,-56.4C1065,-48.47 1065,-38.46 1065,-29.86"/>
<polygon fill="midnightblue" stroke="midnightblue" points="1068.5,-29.66 1065,-19.66 1061.5,-29.66 1068.5,-29.66"/>
</g>
<!-- Node7 -->
<g id="node7" class="node">
<title>Node7</title>
<g id="a_node7"><a xlink:href="_vector4_8hpp.html" target="_top" xlink:title="Contains Vector4 template class.">
<polygon fill="none" stroke="black" points="1117,-0.5 1117,-19.5 1185,-19.5 1185,-0.5 1117,-0.5"/>
<text text-anchor="middle" x="1151" y="-7.5" font-family="Helvetica,sans-Serif" font-size="10.00">Vector4.hpp</text>
</a>
</g>
</g>
<!-- Node4&#45;&gt;Node7 -->
<g id="edge6" class="edge">
<title>Node4&#45;&gt;Node7</title>
<path fill="none" stroke="midnightblue" d="M1085.38,-56.4C1098.91,-47.04 1116.61,-34.79 1130.22,-25.38"/>
<polygon fill="midnightblue" stroke="midnightblue" points="1132.25,-28.23 1138.49,-19.66 1128.27,-22.47 1132.25,-28.23"/>
</g>
<!-- Node9 -->
<g id="node9" class="node">
<title>Node9</title>
<g id="a_node9"><a xlink:title=" ">
<polygon fill="none" stroke="#bfbfbf" points="483,-129 483,-148 529,-148 529,-129 483,-129"/>
<text text-anchor="middle" x="506" y="-136" font-family="Helvetica,sans-Serif" font-size="10.00">chrono</text>
</a>
</g>
</g>
<!-- Node8&#45;&gt;Node9 -->
<g id="edge8" class="edge">
<title>Node8&#45;&gt;Node9</title>
<path fill="none" stroke="midnightblue" d="M381.77,-190.46C407.83,-180.61 443.2,-166.95 474,-154 475.37,-153.42 476.77,-152.83 478.18,-152.22"/>
<polygon fill="midnightblue" stroke="midnightblue" points="479.73,-155.36 487.46,-148.11 476.9,-148.95 479.73,-155.36"/>
</g>
<!-- Node12 -->
<g id="node12" class="node">
<title>Node12</title>
<g id="a_node12"><a xlink:title=" ">
<polygon fill="none" stroke="#bfbfbf" points="738,-129 738,-148 784,-148 784,-129 738,-129"/>
<text text-anchor="middle" x="761" y="-136" font-family="Helvetica,sans-Serif" font-size="10.00">cstdint</text>
</a>
</g>
</g>
<!-- Node11&#45;&gt;Node12 -->
<g id="edge11" class="edge">
<title>Node11&#45;&gt;Node12</title>
<path fill="none" stroke="midnightblue" d="M696.01,-190.4C709.59,-179.76 728.18,-165.2 742,-154.38"/>
<polygon fill="midnightblue" stroke="midnightblue" points="744.18,-157.12 749.9,-148.19 739.87,-151.6 744.18,-157.12"/>
</g>
<!-- Node13&#45;&gt;Node4 -->
<g id="edge13" class="edge">
<title>Node13&#45;&gt;Node4</title>
<path fill="none" stroke="midnightblue" d="M465.61,-124.15C468.44,-123.74 471.24,-123.36 474,-123 659.93,-98.86 880.32,-83.52 992.11,-76.66"/>
<polygon fill="midnightblue" stroke="midnightblue" points="992.49,-80.15 1002.26,-76.05 992.07,-73.16 992.49,-80.15"/>
</g>
<!-- Node14&#45;&gt;Node4 -->
<g id="edge15" class="edge">
<title>Node14&#45;&gt;Node4</title>
<path fill="none" stroke="midnightblue" d="M1682.29,-130.48C1548.6,-117.92 1270.1,-91.77 1137.8,-79.34"/>
<polygon fill="midnightblue" stroke="midnightblue" points="1138.05,-75.85 1127.77,-78.4 1137.39,-82.82 1138.05,-75.85"/>
</g>
<!-- Node16 -->
<g id="node16" class="node">
<title>Node16</title>
<g id="a_node16"><a xlink:title=" ">
<polygon fill="none" stroke="#bfbfbf" points="1043,-129 1043,-148 1147,-148 1147,-129 1043,-129"/>
<text text-anchor="middle" x="1095" y="-136" font-family="Helvetica,sans-Serif" font-size="10.00">SFML/Graphics.hpp</text>
</a>
</g>
</g>
<!-- Node15&#45;&gt;Node16 -->
<g id="edge17" class="edge">
<title>Node15&#45;&gt;Node16</title>
<path fill="none" stroke="midnightblue" d="M1030.01,-190.4C1043.59,-179.76 1062.18,-165.2 1076,-154.38"/>
<polygon fill="midnightblue" stroke="midnightblue" points="1078.18,-157.12 1083.9,-148.19 1073.87,-151.6 1078.18,-157.12"/>
</g>
<!-- Node18&#45;&gt;Node12 -->
<g id="edge20" class="edge">
<title>Node18&#45;&gt;Node12</title>
<path fill="none" stroke="midnightblue" d="M826.77,-190.4C813.03,-179.76 794.22,-165.2 780.23,-154.38"/>
<polygon fill="midnightblue" stroke="midnightblue" points="782.29,-151.55 772.24,-148.19 778,-157.08 782.29,-151.55"/>
</g>
<!-- Node21&#45;&gt;Node16 -->
<g id="edge24" class="edge">
<title>Node21&#45;&gt;Node16</title>
<path fill="none" stroke="midnightblue" d="M1160.77,-190.4C1147.03,-179.76 1128.22,-165.2 1114.23,-154.38"/>
<polygon fill="midnightblue" stroke="midnightblue" points="1116.29,-151.55 1106.24,-148.19 1112,-157.08 1116.29,-151.55"/>
</g>
<!-- Node22&#45;&gt;Node3 -->
<g id="edge27" class="edge">
<title>Node22&#45;&gt;Node3</title>
<path fill="none" stroke="midnightblue" d="M128.47,-190.4C146.06,-181.03 169.35,-168.62 188.54,-158.39"/>
<polygon fill="midnightblue" stroke="midnightblue" points="190.4,-161.37 197.58,-153.58 187.11,-155.19 190.4,-161.37"/>
</g>
<!-- Node22&#45;&gt;Node4 -->
<g id="edge26" class="edge">
<title>Node22&#45;&gt;Node4</title>
<path fill="none" stroke="midnightblue" d="M86.15,-190.25C68.4,-172.62 44.41,-142.55 63,-123 94.95,-89.4 767.25,-76.75 992.32,-73.45"/>
<polygon fill="midnightblue" stroke="midnightblue" points="992.43,-76.95 1002.37,-73.31 992.33,-69.95 992.43,-76.95"/>
</g>
<!-- Node23 -->
<g id="node23" class="node">
<title>Node23</title>
<g id="a_node23"><a xlink:title=" ">
<polygon fill="none" stroke="#bfbfbf" points="72.5,-129 72.5,-148 131.5,-148 131.5,-129 72.5,-129"/>
<text text-anchor="middle" x="102" y="-136" font-family="Helvetica,sans-Serif" font-size="10.00">functional</text>
</a>
</g>
</g>
<!-- Node22&#45;&gt;Node23 -->
<g id="edge28" class="edge">
<title>Node22&#45;&gt;Node23</title>
<path fill="none" stroke="midnightblue" d="M102,-190.4C102,-181.06 102,-168.71 102,-158.52"/>
<polygon fill="midnightblue" stroke="midnightblue" points="105.5,-158.19 102,-148.19 98.5,-158.19 105.5,-158.19"/>
</g>
<!-- Node30 -->
<g id="node30" class="node">
<title>Node30</title>
<g id="a_node30"><a xlink:title=" ">
<polygon fill="none" stroke="#bfbfbf" points="3358,-330 3358,-349 3462,-349 3462,-330 3358,-330"/>
<text text-anchor="middle" x="3410" y="-337" font-family="Helvetica,sans-Serif" font-size="10.00">NyaNet/NyaNet.hpp</text>
</a>
</g>
</g>
<!-- Node29&#45;&gt;Node30 -->
<g id="edge36" class="edge">
<title>Node29&#45;&gt;Node30</title>
<path fill="none" stroke="midnightblue" d="M3241.23,-391.48C3275.6,-381.09 3333.81,-363.51 3372.08,-351.95"/>
<polygon fill="midnightblue" stroke="midnightblue" points="3373.27,-355.25 3381.83,-349.01 3371.24,-348.55 3373.27,-355.25"/>
</g>
<!-- Node31 -->
<g id="node31" class="node">
<title>Node31</title>
<g id="a_node31"><a xlink:href="_neko_engine_8hpp.html" target="_top" xlink:title=" ">
<polygon fill="none" stroke="black" points="2774.5,-330 2774.5,-349 2917.5,-349 2917.5,-330 2774.5,-330"/>
<text text-anchor="middle" x="2846" y="-337" font-family="Helvetica,sans-Serif" font-size="10.00">NekoEngine/NekoEngine.hpp</text>
</a>
</g>
</g>
<!-- Node29&#45;&gt;Node31 -->
<g id="edge37" class="edge">
<title>Node29&#45;&gt;Node31</title>
<path fill="none" stroke="midnightblue" d="M3156.51,-391.47C3098.77,-382.67 3006.56,-368.38 2927,-355 2919.09,-353.67 2910.75,-352.22 2902.55,-350.78"/>
<polygon fill="midnightblue" stroke="midnightblue" points="2903.12,-347.33 2892.66,-349.03 2901.89,-354.22 2903.12,-347.33"/>
</g>
<!-- Node70 -->
<g id="node45" class="node">
<title>Node70</title>
<g id="a_node45"><a xlink:title=" ">
<polygon fill="none" stroke="#bfbfbf" points="3480.5,-324.5 3480.5,-354.5 3593.5,-354.5 3593.5,-324.5 3480.5,-324.5"/>
<text text-anchor="start" x="3488.5" y="-342.5" font-family="Helvetica,sans-Serif" font-size="10.00">../../Game/Ennemies</text>
<text text-anchor="middle" x="3537" y="-331.5" font-family="Helvetica,sans-Serif" font-size="10.00">/EnnemiesFactory.hpp</text>
</a>
</g>
</g>
<!-- Node29&#45;&gt;Node70 -->
<g id="edge59" class="edge">
<title>Node29&#45;&gt;Node70</title>
<path fill="none" stroke="midnightblue" d="M3266,-391.45C3316.1,-383.21 3393.61,-370.06 3470.32,-355.09"/>
<polygon fill="midnightblue" stroke="midnightblue" points="3471.01,-358.52 3480.15,-353.15 3469.66,-351.65 3471.01,-358.52"/>
</g>
<!-- Node71 -->
<g id="node46" class="node">
<title>Node71</title>
<g id="a_node46"><a xlink:title=" ">
<polygon fill="none" stroke="#bfbfbf" points="3612,-324.5 3612,-354.5 3712,-354.5 3712,-324.5 3612,-324.5"/>
<text text-anchor="start" x="3620" y="-342.5" font-family="Helvetica,sans-Serif" font-size="10.00">../../Game/Bullets</text>
<text text-anchor="middle" x="3662" y="-331.5" font-family="Helvetica,sans-Serif" font-size="10.00">/BulletsFactory.hpp</text>
</a>
</g>
</g>
<!-- Node29&#45;&gt;Node71 -->
<g id="edge60" class="edge">
<title>Node29&#45;&gt;Node71</title>
<path fill="none" stroke="midnightblue" d="M3276.52,-395.15C3351.88,-388.84 3481.47,-376.25 3601.76,-355.08"/>
<polygon fill="midnightblue" stroke="midnightblue" points="3602.65,-358.48 3611.88,-353.27 3601.42,-351.58 3602.65,-358.48"/>
</g>
<!-- Node72 -->
<g id="node47" class="node">
<title>Node72</title>
<g id="a_node47"><a xlink:title=" ">
<polygon fill="none" stroke="#bfbfbf" points="2936,-330 2936,-349 3106,-349 3106,-330 2936,-330"/>
<text text-anchor="middle" x="3021" y="-337" font-family="Helvetica,sans-Serif" font-size="10.00">../../Game/Bonus/BonusFactory.hpp</text>
</a>
</g>
</g>
<!-- Node29&#45;&gt;Node72 -->
<g id="edge61" class="edge">
<title>Node29&#45;&gt;Node72</title>
<path fill="none" stroke="midnightblue" d="M3185.49,-391.48C3152.13,-381.14 3095.74,-363.66 3058.44,-352.1"/>
<polygon fill="midnightblue" stroke="midnightblue" points="3059.05,-348.63 3048.46,-349.01 3056.97,-355.31 3059.05,-348.63"/>
</g>
<!-- Node73 -->
<g id="node48" class="node">
<title>Node73</title>
<g id="a_node48"><a xlink:href="_sound_8hpp.html" target="_top" xlink:title=" ">
<polygon fill="none" stroke="black" points="3124,-330 3124,-349 3186,-349 3186,-330 3124,-330"/>
<text text-anchor="middle" x="3155" y="-337" font-family="Helvetica,sans-Serif" font-size="10.00">Sound.hpp</text>
</a>
</g>
</g>
<!-- Node29&#45;&gt;Node73 -->
<g id="edge62" class="edge">
<title>Node29&#45;&gt;Node73</title>
<path fill="none" stroke="midnightblue" d="M3204.69,-391.48C3195.82,-382.37 3181.55,-367.74 3170.58,-356.48"/>
<polygon fill="midnightblue" stroke="midnightblue" points="3172.78,-353.73 3163.29,-349.01 3167.77,-358.61 3172.78,-353.73"/>
</g>
<!-- Node75 -->
<g id="node50" class="node">
<title>Node75</title>
<g id="a_node50"><a xlink:title=" ">
<polygon fill="none" stroke="#bfbfbf" points="3204,-330 3204,-349 3340,-349 3340,-330 3204,-330"/>
<text text-anchor="middle" x="3272" y="-337" font-family="Helvetica,sans-Serif" font-size="10.00">../../Game/Player/Player.hpp</text>
</a>
</g>
</g>
<!-- Node29&#45;&gt;Node75 -->
<g id="edge64" class="edge">
<title>Node29&#45;&gt;Node75</title>
<path fill="none" stroke="midnightblue" d="M3221.45,-391.48C3230.57,-382.28 3245.27,-367.46 3256.48,-356.16"/>
<polygon fill="midnightblue" stroke="midnightblue" points="3259.01,-358.57 3263.56,-349.01 3254.04,-353.65 3259.01,-358.57"/>
</g>
<!-- Node31&#45;&gt;Node1 -->
<g id="edge58" class="edge">
<title>Node31&#45;&gt;Node1</title>
<path fill="none" stroke="midnightblue" d="M2797.5,-349.08C2672.81,-371.14 2340.86,-429.87 2197.96,-455.15"/>
<polygon fill="midnightblue" stroke="midnightblue" points="2197.24,-451.73 2188,-456.91 2198.46,-458.62 2197.24,-451.73"/>
</g>
<!-- Node31&#45;&gt;Node2 -->
<g id="edge56" class="edge">
<title>Node31&#45;&gt;Node2</title>
<path fill="none" stroke="midnightblue" d="M2774.27,-335.21C2535.82,-324.27 1770.28,-289.16 1513.72,-277.39"/>
<polygon fill="midnightblue" stroke="midnightblue" points="1513.86,-273.89 1503.71,-276.93 1513.54,-280.88 1513.86,-273.89"/>
</g>
<!-- Node31&#45;&gt;Node4 -->
<g id="edge42" class="edge">
<title>Node31&#45;&gt;Node4</title>
<path fill="none" stroke="midnightblue" d="M2893.53,-329.93C2904.52,-327.97 2916.16,-325.9 2927,-324 2973.64,-315.83 3106.48,-324.2 3137,-288 3184.27,-231.94 3188.22,-175.48 3137,-123 3101.35,-86.47 1500.57,-75.02 1137.64,-72.89"/>
<polygon fill="midnightblue" stroke="midnightblue" points="1137.54,-69.39 1127.52,-72.83 1137.5,-76.39 1137.54,-69.39"/>
</g>
<!-- Node32 -->
<g id="node32" class="node">
<title>Node32</title>
<g id="a_node32"><a xlink:href="_neko_exception_8hpp.html" target="_top" xlink:title="Contains the NekoEngine main exception type.">
<polygon fill="none" stroke="black" points="2645.5,-190.5 2645.5,-220.5 2782.5,-220.5 2782.5,-190.5 2645.5,-190.5"/>
<text text-anchor="start" x="2653.5" y="-208.5" font-family="Helvetica,sans-Serif" font-size="10.00">NekoEngine/NekoException</text>
<text text-anchor="middle" x="2714" y="-197.5" font-family="Helvetica,sans-Serif" font-size="10.00">/NekoException.hpp</text>
</a>
</g>
</g>
<!-- Node31&#45;&gt;Node32 -->
<g id="edge38" class="edge">
<title>Node31&#45;&gt;Node32</title>
<path fill="none" stroke="midnightblue" d="M2774.45,-332.14C2715.7,-325.27 2639.17,-311.92 2620,-288 2611.39,-277.25 2612.93,-268.83 2620,-257 2628.42,-242.91 2642.28,-232.53 2656.79,-224.97"/>
<polygon fill="midnightblue" stroke="midnightblue" points="2658.37,-228.09 2665.88,-220.62 2655.34,-221.78 2658.37,-228.09"/>
</g>
<!-- Node34 -->
<g id="node34" class="node">
<title>Node34</title>
<g id="a_node34"><a xlink:href="_neko_window_exception_8hpp.html" target="_top" xlink:title="WindowException handling class inheriting from NekoException.">
<polygon fill="none" stroke="black" points="2628.5,-257.5 2628.5,-287.5 2765.5,-287.5 2765.5,-257.5 2628.5,-257.5"/>
<text text-anchor="start" x="2636.5" y="-275.5" font-family="Helvetica,sans-Serif" font-size="10.00">NekoEngine/Graphics</text>
<text text-anchor="middle" x="2697" y="-264.5" font-family="Helvetica,sans-Serif" font-size="10.00">/NekoWindowException.hpp</text>
</a>
</g>
</g>
<!-- Node31&#45;&gt;Node34 -->
<g id="edge40" class="edge">
<title>Node31&#45;&gt;Node34</title>
<path fill="none" stroke="midnightblue" d="M2826.21,-329.87C2803.95,-320.16 2767.17,-304.11 2738.52,-291.61"/>
<polygon fill="midnightblue" stroke="midnightblue" points="2739.72,-288.32 2729.16,-287.53 2736.92,-294.73 2739.72,-288.32"/>
</g>
<!-- Node35 -->
<g id="node35" class="node">
<title>Node35</title>
<g id="a_node35"><a xlink:href="_quaternion_8hpp.html" target="_top" xlink:title="Utmost basic implementation of a Quaternion, i.e. just a Vector4.">
<polygon fill="none" stroke="black" points="3184,-257.5 3184,-287.5 3328,-287.5 3328,-257.5 3184,-257.5"/>
<text text-anchor="start" x="3192" y="-275.5" font-family="Helvetica,sans-Serif" font-size="10.00">NekoEngine/Math/Quaternion</text>
<text text-anchor="middle" x="3256" y="-264.5" font-family="Helvetica,sans-Serif" font-size="10.00">/Quaternion.hpp</text>
</a>
</g>
</g>
<!-- Node31&#45;&gt;Node35 -->
<g id="edge43" class="edge">
<title>Node31&#45;&gt;Node35</title>
<path fill="none" stroke="midnightblue" d="M2892.22,-329.98C2903.58,-327.95 2915.72,-325.84 2927,-324 3034.75,-306.38 3062.17,-305.08 3170,-288 3171.26,-287.8 3172.53,-287.6 3173.81,-287.39"/>
<polygon fill="midnightblue" stroke="midnightblue" points="3174.44,-290.84 3183.76,-285.79 3173.33,-283.93 3174.44,-290.84"/>
</g>
<!-- Node36 -->
<g id="node36" class="node">
<title>Node36</title>
<g id="a_node36"><a xlink:href="_matrix_8hpp.html" target="_top" xlink:title="Contains Matrix template class.">
<polygon fill="none" stroke="black" points="3346.5,-257.5 3346.5,-287.5 3469.5,-287.5 3469.5,-257.5 3346.5,-257.5"/>
<text text-anchor="start" x="3354.5" y="-275.5" font-family="Helvetica,sans-Serif" font-size="10.00">NekoEngine/Math/Matrix</text>
<text text-anchor="middle" x="3408" y="-264.5" font-family="Helvetica,sans-Serif" font-size="10.00">/Matrix.hpp</text>
</a>
</g>
</g>
<!-- Node31&#45;&gt;Node36 -->
<g id="edge45" class="edge">
<title>Node31&#45;&gt;Node36</title>
<path fill="none" stroke="midnightblue" d="M2889.61,-329.95C2901.68,-327.79 2914.82,-325.62 2927,-324 3105.05,-300.3 3154.22,-313.83 3335.95,-288.03"/>
<polygon fill="midnightblue" stroke="midnightblue" points="3336.72,-291.46 3346.12,-286.57 3335.72,-284.53 3336.72,-291.46"/>
</g>
<!-- Node38 -->
<g id="node38" class="node">
<title>Node38</title>
<g id="a_node38"><a xlink:href="_coordinator_8hpp.html" target="_top" xlink:title="Coordinator class.">
<polygon fill="none" stroke="black" points="2801,-196 2801,-215 2963,-215 2963,-196 2801,-196"/>
<text text-anchor="middle" x="2882" y="-203" font-family="Helvetica,sans-Serif" font-size="10.00">NekoEngine/ECS/Coordinator.hpp</text>
</a>
</g>
</g>
<!-- Node31&#45;&gt;Node38 -->
<g id="edge48" class="edge">
<title>Node31&#45;&gt;Node38</title>
<path fill="none" stroke="midnightblue" d="M2837.5,-329.72C2823.9,-314.55 2800.02,-282.59 2813,-257 2821.34,-240.56 2837.84,-228.18 2852.6,-219.8"/>
<polygon fill="midnightblue" stroke="midnightblue" points="2854.29,-222.86 2861.49,-215.09 2851.01,-216.68 2854.29,-222.86"/>
</g>
<!-- Node56 -->
<g id="node43" class="node">
<title>Node56</title>
<g id="a_node43"><a xlink:href="_scene_8hpp.html" target="_top" xlink:title="Scene class.">
<polygon fill="none" stroke="black" points="2822,-263 2822,-282 2976,-282 2976,-263 2822,-263"/>
<text text-anchor="middle" x="2899" y="-270" font-family="Helvetica,sans-Serif" font-size="10.00">NekoEngine/Scenes/Scene.hpp</text>
</a>
</g>
</g>
<!-- Node31&#45;&gt;Node56 -->
<g id="edge54" class="edge">
<title>Node31&#45;&gt;Node56</title>
<path fill="none" stroke="midnightblue" d="M2853.15,-329.73C2861.41,-319.6 2875.2,-302.69 2885.5,-290.06"/>
<polygon fill="midnightblue" stroke="midnightblue" points="2888.36,-292.09 2891.97,-282.13 2882.93,-287.67 2888.36,-292.09"/>
</g>
<!-- Node57 -->
<g id="node44" class="node">
<title>Node57</title>
<g id="a_node44"><a xlink:href="_systems_8hpp.html" target="_top" xlink:title="Systems.">
<polygon fill="none" stroke="red" points="2994.5,-257.5 2994.5,-287.5 3127.5,-287.5 3127.5,-257.5 2994.5,-257.5"/>
<text text-anchor="start" x="3002.5" y="-275.5" font-family="Helvetica,sans-Serif" font-size="10.00">NekoEngine/ECS/Systems</text>
<text text-anchor="middle" x="3061" y="-264.5" font-family="Helvetica,sans-Serif" font-size="10.00">/Systems.hpp</text>
</a>
</g>
</g>
<!-- Node31&#45;&gt;Node57 -->
<g id="edge57" class="edge">
<title>Node31&#45;&gt;Node57</title>
<path fill="none" stroke="midnightblue" d="M2874.55,-329.87C2907.65,-319.86 2963,-303.13 3004.82,-290.48"/>
<polygon fill="midnightblue" stroke="midnightblue" points="3006.04,-293.77 3014.6,-287.53 3004.01,-287.07 3006.04,-293.77"/>
</g>
<!-- Node33 -->
<g id="node33" class="node">
<title>Node33</title>
<g id="a_node33"><a xlink:title=" ">
<polygon fill="none" stroke="#bfbfbf" points="2431.5,-129 2431.5,-148 2472.5,-148 2472.5,-129 2431.5,-129"/>
<text text-anchor="middle" x="2452" y="-136" font-family="Helvetica,sans-Serif" font-size="10.00">string</text>
</a>
</g>
</g>
<!-- Node32&#45;&gt;Node33 -->
<g id="edge39" class="edge">
<title>Node32&#45;&gt;Node33</title>
<path fill="none" stroke="midnightblue" d="M2645.47,-191.44C2588.35,-180.21 2511.71,-164.25 2482,-154 2480.38,-153.44 2478.74,-152.82 2477.1,-152.16"/>
<polygon fill="midnightblue" stroke="midnightblue" points="2478.45,-148.93 2467.9,-148.04 2475.6,-155.32 2478.45,-148.93"/>
</g>
<!-- Node34&#45;&gt;Node32 -->
<g id="edge41" class="edge">
<title>Node34&#45;&gt;Node32</title>
<path fill="none" stroke="midnightblue" d="M2700.69,-257.4C2702.76,-249.47 2705.4,-239.38 2707.78,-230.27"/>
<polygon fill="midnightblue" stroke="midnightblue" points="2711.17,-231.14 2710.32,-220.58 2704.4,-229.37 2711.17,-231.14"/>
</g>
<!-- Node35&#45;&gt;Node4 -->
<g id="edge44" class="edge">
<title>Node35&#45;&gt;Node4</title>
<path fill="none" stroke="midnightblue" d="M3252.69,-257.19C3244.68,-226.19 3221.01,-153.22 3170,-123 3080.86,-70.18 1498.07,-71.31 1137.63,-72.26"/>
<polygon fill="midnightblue" stroke="midnightblue" points="1137.57,-68.76 1127.58,-72.29 1137.59,-75.76 1137.57,-68.76"/>
</g>
<!-- Node36&#45;&gt;Node4 -->
<g id="edge46" class="edge">
<title>Node36&#45;&gt;Node4</title>
<path fill="none" stroke="midnightblue" d="M3408.58,-257.27C3408.53,-239.38 3405.74,-208.75 3389,-190 3329.93,-123.83 3288.22,-139.14 3201,-123 2994.9,-84.86 1487.71,-74.7 1137.54,-72.85"/>
<polygon fill="midnightblue" stroke="midnightblue" points="1137.54,-69.35 1127.52,-72.79 1137.5,-76.35 1137.54,-69.35"/>
</g>
<!-- Node37 -->
<g id="node37" class="node">
<title>Node37</title>
<g id="a_node37"><a xlink:title=" ">
<polygon fill="none" stroke="#bfbfbf" points="3320.5,-196 3320.5,-215 3379.5,-215 3379.5,-196 3320.5,-196"/>
<text text-anchor="middle" x="3350" y="-203" font-family="Helvetica,sans-Serif" font-size="10.00">Matrix.tpp</text>
</a>
</g>
</g>
<!-- Node36&#45;&gt;Node37 -->
<g id="edge47" class="edge">
<title>Node36&#45;&gt;Node37</title>
<path fill="none" stroke="midnightblue" d="M3395.41,-257.4C3386.37,-247.26 3374.15,-233.57 3364.67,-222.94"/>
<polygon fill="midnightblue" stroke="midnightblue" points="3367.03,-220.33 3357.76,-215.19 3361.8,-224.99 3367.03,-220.33"/>
</g>
<!-- Node39 -->
<g id="node39" class="node">
<title>Node39</title>
<g id="a_node39"><a xlink:href="_component_manager_8hpp.html" target="_top" xlink:title="Component Manmager class.">
<polygon fill="none" stroke="red" points="2792,-123.5 2792,-153.5 2936,-153.5 2936,-123.5 2792,-123.5"/>
<text text-anchor="start" x="2800" y="-141.5" font-family="Helvetica,sans-Serif" font-size="10.00">NekoEngine/ECS/Component</text>
<text text-anchor="middle" x="2864" y="-130.5" font-family="Helvetica,sans-Serif" font-size="10.00">Manager.hpp</text>
</a>
</g>
</g>
<!-- Node38&#45;&gt;Node39 -->
<g id="edge49" class="edge">
<title>Node38&#45;&gt;Node39</title>
<path fill="none" stroke="midnightblue" d="M2879.57,-195.73C2877.28,-187.46 2873.74,-174.66 2870.61,-163.37"/>
<polygon fill="midnightblue" stroke="midnightblue" points="2873.94,-162.29 2867.9,-153.59 2867.2,-164.16 2873.94,-162.29"/>
</g>
<!-- Node49 -->
<g id="node40" class="node">
<title>Node49</title>
<g id="a_node40"><a xlink:href="_entity_manager_8hpp.html" target="_top" xlink:title="Entities are fun.">
<polygon fill="none" stroke="red" points="2954,-129 2954,-148 3128,-148 3128,-129 2954,-129"/>
<text text-anchor="middle" x="3041" y="-136" font-family="Helvetica,sans-Serif" font-size="10.00">NekoEngine/ECS/EntityManager.hpp</text>
</a>
</g>
</g>
<!-- Node38&#45;&gt;Node49 -->
<g id="edge50" class="edge">
<title>Node38&#45;&gt;Node49</title>
<path fill="none" stroke="midnightblue" d="M2903.11,-195.87C2930.63,-184.62 2978.95,-164.87 3010.46,-151.99"/>
<polygon fill="midnightblue" stroke="midnightblue" points="3012.12,-155.09 3020.05,-148.06 3009.47,-148.61 3012.12,-155.09"/>
</g>
<!-- Node51 -->
<g id="node41" class="node">
<title>Node51</title>
<g id="a_node41"><a xlink:href="_system_manager_8hpp.html" target="_top" xlink:title=" ">
<polygon fill="none" stroke="red" points="2490.5,-129 2490.5,-148 2673.5,-148 2673.5,-129 2490.5,-129"/>
<text text-anchor="middle" x="2582" y="-136" font-family="Helvetica,sans-Serif" font-size="10.00">NekoEngine/ECS/SystemManager.hpp</text>
</a>
</g>
</g>
<!-- Node38&#45;&gt;Node51 -->
<g id="edge51" class="edge">
<title>Node38&#45;&gt;Node51</title>
<path fill="none" stroke="midnightblue" d="M2837.73,-195.94C2781.02,-184.2 2683.54,-163.11 2626.66,-150.3"/>
<polygon fill="midnightblue" stroke="midnightblue" points="2627.39,-146.88 2616.87,-148.08 2625.85,-153.7 2627.39,-146.88"/>
</g>
<!-- Node55 -->
<g id="node42" class="node">
<title>Node55</title>
<g id="a_node42"><a xlink:title=" ">
<polygon fill="none" stroke="#bfbfbf" points="2692,-129 2692,-148 2774,-148 2774,-129 2692,-129"/>
<text text-anchor="middle" x="2733" y="-136" font-family="Helvetica,sans-Serif" font-size="10.00">Coordinator.tpp</text>
</a>
</g>
</g>
<!-- Node38&#45;&gt;Node55 -->
<g id="edge53" class="edge">
<title>Node38&#45;&gt;Node55</title>
<path fill="none" stroke="midnightblue" d="M2862.21,-195.87C2836.61,-184.7 2791.79,-165.15 2762.25,-152.26"/>
<polygon fill="midnightblue" stroke="midnightblue" points="2763.43,-148.96 2752.87,-148.17 2760.63,-155.37 2763.43,-148.96"/>
</g>
<!-- Node51&#45;&gt;Node38 -->
<g id="edge52" class="edge">
<title>Node51&#45;&gt;Node38</title>
<path fill="none" stroke="midnightblue" d="M2626.37,-148.08C2683.11,-159.83 2780.6,-180.92 2837.44,-193.72"/>
<polygon fill="midnightblue" stroke="midnightblue" points="2836.69,-197.14 2847.22,-195.94 2838.24,-190.32 2836.69,-197.14"/>
</g>
<!-- Node56&#45;&gt;Node38 -->
<g id="edge55" class="edge">
<title>Node56&#45;&gt;Node38</title>
<path fill="none" stroke="midnightblue" d="M2896.71,-262.73C2894.18,-253.09 2890.06,-237.3 2886.81,-224.91"/>
<polygon fill="midnightblue" stroke="midnightblue" points="2890.17,-223.92 2884.26,-215.13 2883.4,-225.69 2890.17,-223.92"/>
</g>
<!-- Node74 -->
<g id="node49" class="node">
<title>Node74</title>
<g id="a_node49"><a xlink:title=" ">
<polygon fill="none" stroke="#bfbfbf" points="3487.5,-263 3487.5,-282 3576.5,-282 3576.5,-263 3487.5,-263"/>
<text text-anchor="middle" x="3532" y="-270" font-family="Helvetica,sans-Serif" font-size="10.00">SFML/Audio.hpp</text>
</a>
</g>
</g>
<!-- Node73&#45;&gt;Node74 -->
<g id="edge63" class="edge">
<title>Node73&#45;&gt;Node74</title>
<path fill="none" stroke="midnightblue" d="M3175.91,-329.93C3181.98,-327.72 3188.68,-325.53 3195,-324 3318.68,-294.14 3354.22,-312.85 3479,-288 3483.78,-287.05 3488.76,-285.9 3493.67,-284.67"/>
<polygon fill="midnightblue" stroke="midnightblue" points="3494.79,-288 3503.57,-282.07 3493.01,-281.23 3494.79,-288"/>
</g>
</g>
</svg>
