<?xml version="1.0" encoding="UTF-8" standalone="no"?>
<!DOCTYPE svg PUBLIC "-//W3C//DTD SVG 1.1//EN"
 "http://www.w3.org/Graphics/SVG/1.1/DTD/svg11.dtd">
<!-- Generated by graphviz version 2.49.3 (20211027.1501)
 -->
<!-- Title: NekoEngine/include/NekoEngine/Graphics/Window.hpp Pages: 1 -->
<svg width="1462pt" height="307pt"
 viewBox="0.00 0.00 1462.39 307.00" xmlns="http://www.w3.org/2000/svg" xmlns:xlink="http://www.w3.org/1999/xlink">
<g id="graph0" class="graph" transform="scale(1 1) rotate(0) translate(4 303)">
<title>NekoEngine/include/NekoEngine/Graphics/Window.hpp</title>
<!-- Node1 -->
<g id="node1" class="node">
<title>Node1</title>
<g id="a_node1"><a xlink:title="Contains the NekoEngine Window class wrapper.">
<polygon fill="#bfbfbf" stroke="black" points="835.58,-257.5 835.58,-298.5 949.58,-298.5 949.58,-257.5 835.58,-257.5"/>
<text text-anchor="start" x="843.58" y="-286.5" font-family="Helvetica,sans-Serif" font-size="10.00">NekoEngine/include</text>
<text text-anchor="start" x="843.58" y="-275.5" font-family="Helvetica,sans-Serif" font-size="10.00">/NekoEngine/Graphics</text>
<text text-anchor="middle" x="892.58" y="-264.5" font-family="Helvetica,sans-Serif" font-size="10.00">/Window.hpp</text>
</a>
</g>
</g>
<!-- Node2 -->
<g id="node2" class="node">
<title>Node2</title>
<g id="a_node2"><a xlink:href="main_8cpp.html" target="_top" xlink:title="Entrypoint.">
<polygon fill="none" stroke="black" points="385.58,-0.5 385.58,-19.5 485.58,-19.5 485.58,-0.5 385.58,-0.5"/>
<text text-anchor="middle" x="435.58" y="-7.5" font-family="Helvetica,sans-Serif" font-size="10.00">Client/src/main.cpp</text>
</a>
</g>
</g>
<!-- Node1&#45;&gt;Node2 -->
<g id="edge1" class="edge">
<title>Node1&#45;&gt;Node2</title>
<path fill="none" stroke="midnightblue" d="M960.09,-275.16C1100.87,-270.62 1415.42,-256.57 1447.58,-221 1456.82,-210.78 1456.43,-200.56 1447.58,-190 1322.18,-40.47 672.17,-15.79 485.66,-11.77"/>
<polygon fill="midnightblue" stroke="midnightblue" points="959.74,-271.67 949.85,-275.48 959.96,-278.66 959.74,-271.67"/>
</g>
<!-- Node3 -->
<g id="node3" class="node">
<title>Node3</title>
<g id="a_node3"><a xlink:href="_neko_engine_8hpp.html" target="_top" xlink:title=" ">
<polygon fill="none" stroke="black" points="288.58,-190.5 288.58,-220.5 434.58,-220.5 434.58,-190.5 288.58,-190.5"/>
<text text-anchor="start" x="296.58" y="-208.5" font-family="Helvetica,sans-Serif" font-size="10.00">NekoEngine/include</text>
<text text-anchor="middle" x="361.58" y="-197.5" font-family="Helvetica,sans-Serif" font-size="10.00">/NekoEngine/NekoEngine.hpp</text>
</a>
</g>
</g>
<!-- Node1&#45;&gt;Node3 -->
<g id="edge2" class="edge">
<title>Node1&#45;&gt;Node3</title>
<path fill="none" stroke="midnightblue" d="M825.52,-268.1C725.57,-254.83 538.22,-229.95 434.81,-216.22"/>
<polygon fill="midnightblue" stroke="midnightblue" points="825.13,-271.58 835.5,-269.42 826.05,-264.64 825.13,-271.58"/>
</g>
<!-- Node7 -->
<g id="node7" class="node">
<title>Node7</title>
<g id="a_node7"><a xlink:href="_window_8cpp.html" target="_top" xlink:title="Contains the NekoEngine Window class implementation.">
<polygon fill="none" stroke="black" points="523.58,-56.5 523.58,-86.5 651.58,-86.5 651.58,-56.5 523.58,-56.5"/>
<text text-anchor="start" x="531.58" y="-74.5" font-family="Helvetica,sans-Serif" font-size="10.00">NekoEngine/src/Graphics</text>
<text text-anchor="middle" x="587.58" y="-63.5" font-family="Helvetica,sans-Serif" font-size="10.00">/Window.cpp</text>
</a>
</g>
</g>
<!-- Node1&#45;&gt;Node7 -->
<g id="edge21" class="edge">
<title>Node1&#45;&gt;Node7</title>
<path fill="none" stroke="midnightblue" d="M825.11,-270.44C757.1,-262.5 658.34,-246.85 630.58,-221 610.64,-202.43 595.28,-119.94 589.78,-86.57"/>
<polygon fill="midnightblue" stroke="midnightblue" points="824.99,-273.95 835.33,-271.61 825.79,-267 824.99,-273.95"/>
</g>
<!-- Node11 -->
<g id="node11" class="node">
<title>Node11</title>
<g id="a_node11"><a xlink:href="_background_system_8cpp.html" target="_top" xlink:title=" ">
<polygon fill="none" stroke="black" points="639.58,-190.5 639.58,-220.5 803.58,-220.5 803.58,-190.5 639.58,-190.5"/>
<text text-anchor="start" x="647.58" y="-208.5" font-family="Helvetica,sans-Serif" font-size="10.00">NekoEngine/src/ECS</text>
<text text-anchor="middle" x="721.58" y="-197.5" font-family="Helvetica,sans-Serif" font-size="10.00">/Systems/BackgroundSystem.cpp</text>
</a>
</g>
</g>
<!-- Node1&#45;&gt;Node11 -->
<g id="edge16" class="edge">
<title>Node1&#45;&gt;Node11</title>
<path fill="none" stroke="midnightblue" d="M835.41,-253.43C808.97,-242.53 778.46,-229.95 755.68,-220.56"/>
<polygon fill="midnightblue" stroke="midnightblue" points="834.36,-256.79 844.94,-257.36 837.03,-250.31 834.36,-256.79"/>
</g>
<!-- Node12 -->
<g id="node12" class="node">
<title>Node12</title>
<g id="a_node12"><a xlink:href="_mouse_system_8cpp.html" target="_top" xlink:title=" ">
<polygon fill="none" stroke="black" points="822.08,-190.5 822.08,-220.5 963.08,-220.5 963.08,-190.5 822.08,-190.5"/>
<text text-anchor="start" x="830.08" y="-208.5" font-family="Helvetica,sans-Serif" font-size="10.00">NekoEngine/src/ECS</text>
<text text-anchor="middle" x="892.58" y="-197.5" font-family="Helvetica,sans-Serif" font-size="10.00">/Systems/MouseSystem.cpp</text>
</a>
</g>
</g>
<!-- Node1&#45;&gt;Node12 -->
<g id="edge17" class="edge">
<title>Node1&#45;&gt;Node12</title>
<path fill="none" stroke="midnightblue" d="M892.58,-247.08C892.58,-238.01 892.58,-228.45 892.58,-220.89"/>
<polygon fill="midnightblue" stroke="midnightblue" points="889.08,-247.36 892.58,-257.36 896.08,-247.36 889.08,-247.36"/>
</g>
<!-- Node13 -->
<g id="node13" class="node">
<title>Node13</title>
<g id="a_node13"><a xlink:href="_parallax_system_8cpp.html" target="_top" xlink:title=" ">
<polygon fill="none" stroke="black" points="981.58,-190.5 981.58,-220.5 1127.58,-220.5 1127.58,-190.5 981.58,-190.5"/>
<text text-anchor="start" x="989.58" y="-208.5" font-family="Helvetica,sans-Serif" font-size="10.00">NekoEngine/src/ECS</text>
<text text-anchor="middle" x="1054.58" y="-197.5" font-family="Helvetica,sans-Serif" font-size="10.00">/Systems/ParallaxSystem.cpp</text>
</a>
</g>
</g>
<!-- Node1&#45;&gt;Node13 -->
<g id="edge18" class="edge">
<title>Node1&#45;&gt;Node13</title>
<path fill="none" stroke="midnightblue" d="M947.07,-253.29C972.04,-242.42 1000.79,-229.91 1022.27,-220.56"/>
<polygon fill="midnightblue" stroke="midnightblue" points="945.48,-250.16 937.7,-257.36 948.27,-256.58 945.48,-250.16"/>
</g>
<!-- Node14 -->
<g id="node14" class="node">
<title>Node14</title>
<g id="a_node14"><a xlink:href="_render_system_8cpp.html" target="_top" xlink:title="Render System class implementation.">
<polygon fill="none" stroke="black" points="1146.08,-190.5 1146.08,-220.5 1289.08,-220.5 1289.08,-190.5 1146.08,-190.5"/>
<text text-anchor="start" x="1154.08" y="-208.5" font-family="Helvetica,sans-Serif" font-size="10.00">NekoEngine/src/ECS</text>
<text text-anchor="middle" x="1217.58" y="-197.5" font-family="Helvetica,sans-Serif" font-size="10.00">/Systems/RenderSystem.cpp</text>
</a>
</g>
</g>
<!-- Node1&#45;&gt;Node14 -->
<g id="edge19" class="edge">
<title>Node1&#45;&gt;Node14</title>
<path fill="none" stroke="midnightblue" d="M959.87,-262.4C1016.55,-250.11 1097.09,-232.64 1152.99,-220.51"/>
<polygon fill="midnightblue" stroke="midnightblue" points="958.96,-259.02 949.93,-264.56 960.45,-265.86 958.96,-259.02"/>
</g>
<!-- Node15 -->
<g id="node15" class="node">
<title>Node15</title>
<g id="a_node15"><a xlink:href="_text_system_8cpp.html" target="_top" xlink:title=" ">
<polygon fill="none" stroke="black" points="1307.08,-190.5 1307.08,-220.5 1438.08,-220.5 1438.08,-190.5 1307.08,-190.5"/>
<text text-anchor="start" x="1315.08" y="-208.5" font-family="Helvetica,sans-Serif" font-size="10.00">NekoEngine/src/ECS</text>
<text text-anchor="middle" x="1372.58" y="-197.5" font-family="Helvetica,sans-Serif" font-size="10.00">/Systems/TextSystem.cpp</text>
</a>
</g>
</g>
<!-- Node1&#45;&gt;Node15 -->
<g id="edge20" class="edge">
<title>Node1&#45;&gt;Node15</title>
<path fill="none" stroke="midnightblue" d="M959.91,-268.89C1040.59,-258.91 1179.78,-240.82 1298.58,-221 1301.29,-220.55 1304.05,-220.07 1306.84,-219.58"/>
<polygon fill="midnightblue" stroke="midnightblue" points="959.38,-265.43 949.88,-270.13 960.24,-272.38 959.38,-265.43"/>
</g>
<!-- Node3&#45;&gt;Node2 -->
<g id="edge14" class="edge">
<title>Node3&#45;&gt;Node2</title>
<path fill="none" stroke="midnightblue" d="M370.63,-180.83C387.17,-137.58 421.55,-47.67 432.3,-19.58"/>
<polygon fill="midnightblue" stroke="midnightblue" points="367.32,-179.68 367.02,-190.27 373.86,-182.18 367.32,-179.68"/>
</g>
<!-- Node4 -->
<g id="node4" class="node">
<title>Node4</title>
<g id="a_node4"><a xlink:href="_client_game_8hpp.html" target="_top" xlink:title=" ">
<polygon fill="none" stroke="black" points="20.08,-62 20.08,-81 167.08,-81 167.08,-62 20.08,-62"/>
<text text-anchor="middle" x="93.58" y="-69" font-family="Helvetica,sans-Serif" font-size="10.00">Client/include/ClientGame.hpp</text>
</a>
</g>
</g>
<!-- Node3&#45;&gt;Node4 -->
<g id="edge3" class="edge">
<title>Node3&#45;&gt;Node4</title>
<path fill="none" stroke="midnightblue" d="M278.54,-204.74C184.87,-203.02 41.07,-193.75 6.58,-154 -18.59,-125 38.4,-95.24 71.69,-81.04"/>
<polygon fill="midnightblue" stroke="midnightblue" points="278.51,-208.24 288.57,-204.89 278.62,-201.24 278.51,-208.24"/>
</g>
<!-- Node6 -->
<g id="node6" class="node">
<title>Node6</title>
<g id="a_node6"><a xlink:href="_custom_client_8hpp.html" target="_top" xlink:title=" ">
<polygon fill="none" stroke="black" points="428.08,-129 428.08,-148 583.08,-148 583.08,-129 428.08,-129"/>
<text text-anchor="middle" x="505.58" y="-136" font-family="Helvetica,sans-Serif" font-size="10.00">Client/include/CustomClient.hpp</text>
</a>
</g>
</g>
<!-- Node3&#45;&gt;Node6 -->
<g id="edge6" class="edge">
<title>Node3&#45;&gt;Node6</title>
<path fill="none" stroke="midnightblue" d="M402.27,-186.13C429.99,-173.62 465.39,-157.64 486.73,-148.01"/>
<polygon fill="midnightblue" stroke="midnightblue" points="400.5,-183.09 392.82,-190.4 403.38,-189.47 400.5,-183.09"/>
</g>
<!-- Node8 -->
<g id="node8" class="node">
<title>Node8</title>
<g id="a_node8"><a xlink:href="_player_system_8hpp.html" target="_top" xlink:title=" ">
<polygon fill="none" stroke="black" points="15.58,-129 15.58,-148 171.58,-148 171.58,-129 15.58,-129"/>
<text text-anchor="middle" x="93.58" y="-136" font-family="Helvetica,sans-Serif" font-size="10.00">Client/include/PlayerSystem.hpp</text>
</a>
</g>
</g>
<!-- Node3&#45;&gt;Node8 -->
<g id="edge10" class="edge">
<title>Node3&#45;&gt;Node8</title>
<path fill="none" stroke="midnightblue" d="M293.83,-188.07C241.28,-175.32 170.55,-158.17 128.74,-148.03"/>
<polygon fill="midnightblue" stroke="midnightblue" points="293.21,-191.52 303.76,-190.48 294.86,-184.72 293.21,-191.52"/>
</g>
<!-- Node9 -->
<g id="node9" class="node">
<title>Node9</title>
<g id="a_node9"><a xlink:href="_player_system_8cpp.html" target="_top" xlink:title=" ">
<polygon fill="none" stroke="black" points="209.08,-62 209.08,-81 348.08,-81 348.08,-62 209.08,-62"/>
<text text-anchor="middle" x="278.58" y="-69" font-family="Helvetica,sans-Serif" font-size="10.00">Client/src/PlayerSystem.cpp</text>
</a>
</g>
</g>
<!-- Node3&#45;&gt;Node9 -->
<g id="edge13" class="edge">
<title>Node3&#45;&gt;Node9</title>
<path fill="none" stroke="midnightblue" d="M359.75,-180.16C357.52,-163.05 352.57,-140.23 341.58,-123 329.82,-104.56 308.99,-89.84 294.52,-81.16"/>
<polygon fill="midnightblue" stroke="midnightblue" points="356.31,-180.89 360.86,-190.46 363.27,-180.14 356.31,-180.89"/>
</g>
<!-- Node10 -->
<g id="node10" class="node">
<title>Node10</title>
<g id="a_node10"><a xlink:href="_pattern_system_8cpp.html" target="_top" xlink:title="Physics System class implementation.">
<polygon fill="none" stroke="black" points="190.08,-123.5 190.08,-153.5 333.08,-153.5 333.08,-123.5 190.08,-123.5"/>
<text text-anchor="start" x="198.08" y="-141.5" font-family="Helvetica,sans-Serif" font-size="10.00">NekoEngine/src/ECS</text>
<text text-anchor="middle" x="261.58" y="-130.5" font-family="Helvetica,sans-Serif" font-size="10.00">/Systems/PatternSystem.cpp</text>
</a>
</g>
</g>
<!-- Node3&#45;&gt;Node10 -->
<g id="edge15" class="edge">
<title>Node3&#45;&gt;Node10</title>
<path fill="none" stroke="midnightblue" d="M331.17,-184.73C315.69,-174.68 297.25,-162.68 283.23,-153.58"/>
<polygon fill="midnightblue" stroke="midnightblue" points="329.59,-187.88 339.88,-190.4 333.4,-182.01 329.59,-187.88"/>
</g>
<!-- Node4&#45;&gt;Node2 -->
<g id="edge5" class="edge">
<title>Node4&#45;&gt;Node2</title>
<path fill="none" stroke="midnightblue" d="M152.44,-60.26C218.62,-48.75 324.87,-30.26 386.67,-19.51"/>
<polygon fill="midnightblue" stroke="midnightblue" points="151.83,-56.81 142.58,-61.98 153.03,-63.71 151.83,-56.81"/>
</g>
<!-- Node5 -->
<g id="node5" class="node">
<title>Node5</title>
<g id="a_node5"><a xlink:href="_client_game_8cpp.html" target="_top" xlink:title=" ">
<polygon fill="none" stroke="black" points="28.58,-0.5 28.58,-19.5 158.58,-19.5 158.58,-0.5 28.58,-0.5"/>
<text text-anchor="middle" x="93.58" y="-7.5" font-family="Helvetica,sans-Serif" font-size="10.00">Client/src/ClientGame.cpp</text>
</a>
</g>
</g>
<!-- Node4&#45;&gt;Node5 -->
<g id="edge4" class="edge">
<title>Node4&#45;&gt;Node5</title>
<path fill="none" stroke="midnightblue" d="M93.58,-51.82C93.58,-41 93.58,-27.9 93.58,-19.51"/>
<polygon fill="midnightblue" stroke="midnightblue" points="90.08,-51.98 93.58,-61.98 97.08,-51.98 90.08,-51.98"/>
</g>
<!-- Node6&#45;&gt;Node1 -->
<g id="edge8" class="edge">
<title>Node6&#45;&gt;Node1</title>
<path fill="none" stroke="midnightblue" d="M518.99,-155.8C535.44,-174.65 565.19,-205.1 597.58,-221 674.32,-258.67 773.81,-271.06 835.4,-275.1"/>
<polygon fill="midnightblue" stroke="midnightblue" points="521.54,-153.4 512.4,-148.05 516.21,-157.94 521.54,-153.4"/>
</g>
<!-- Node6&#45;&gt;Node2 -->
<g id="edge7" class="edge">
<title>Node6&#45;&gt;Node2</title>
<path fill="none" stroke="midnightblue" d="M495.84,-119.9C480.64,-92.44 451.85,-40.4 440.42,-19.76"/>
<polygon fill="midnightblue" stroke="midnightblue" points="492.86,-121.75 500.77,-128.81 498.99,-118.36 492.86,-121.75"/>
</g>
<!-- Node6&#45;&gt;Node7 -->
<g id="edge9" class="edge">
<title>Node6&#45;&gt;Node7</title>
<path fill="none" stroke="midnightblue" d="M524.83,-122.24C538.44,-111.45 556.54,-97.1 569.8,-86.59"/>
<polygon fill="midnightblue" stroke="midnightblue" points="522.3,-119.78 516.64,-128.73 526.65,-125.26 522.3,-119.78"/>
</g>
<!-- Node8&#45;&gt;Node4 -->
<g id="edge11" class="edge">
<title>Node8&#45;&gt;Node4</title>
<path fill="none" stroke="midnightblue" d="M93.58,-118.54C93.58,-106.17 93.58,-90.62 93.58,-81.13"/>
<polygon fill="midnightblue" stroke="midnightblue" points="90.08,-118.73 93.58,-128.73 97.08,-118.73 90.08,-118.73"/>
</g>
<!-- Node8&#45;&gt;Node9 -->
<g id="edge12" class="edge">
<title>Node8&#45;&gt;Node9</title>
<path fill="none" stroke="midnightblue" d="M127.91,-125.44C164.61,-112.54 221.87,-92.42 254.2,-81.06"/>
<polygon fill="midnightblue" stroke="midnightblue" points="126.42,-122.25 118.14,-128.87 128.74,-128.86 126.42,-122.25"/>
</g>
</g>
</svg>
