<?xml version="1.0" encoding="UTF-8" standalone="no"?>
<!DOCTYPE svg PUBLIC "-//W3C//DTD SVG 1.1//EN"
 "http://www.w3.org/Graphics/SVG/1.1/DTD/svg11.dtd">
<!-- Generated by graphviz version 2.49.3 (20211027.1501)
 -->
<!-- Title: ne::System Pages: 1 -->
<svg width="225pt" height="484pt"
 viewBox="0.00 0.00 225.00 484.00" xmlns="http://www.w3.org/2000/svg" xmlns:xlink="http://www.w3.org/1999/xlink">
<g id="graph0" class="graph" transform="scale(1 1) rotate(0) translate(4 480)">
<title>ne::System</title>
<!-- Node1 -->
<g id="node1" class="node">
<title>Node1</title>
<g id="a_node1"><a xlink:title=" ">
<polygon fill="#bfbfbf" stroke="black" points="0,-228.5 0,-247.5 65,-247.5 65,-228.5 0,-228.5"/>
<text text-anchor="middle" x="32.5" y="-235.5" font-family="Helvetica,sans-Serif" font-size="10.00">ne::System</text>
</a>
</g>
</g>
<!-- Node2 -->
<g id="node2" class="node">
<title>Node2</title>
<g id="a_node2"><a xlink:href="classne_1_1_animation_system.html" target="_top" xlink:title=" ">
<polygon fill="none" stroke="black" points="105,-456.5 105,-475.5 213,-475.5 213,-456.5 105,-456.5"/>
<text text-anchor="middle" x="159" y="-463.5" font-family="Helvetica,sans-Serif" font-size="10.00">ne::AnimationSystem</text>
</a>
</g>
</g>
<!-- Node1&#45;&gt;Node2 -->
<g id="edge1" class="edge">
<title>Node1&#45;&gt;Node2</title>
<path fill="none" stroke="midnightblue" d="M34.2,-257.98C36.72,-299.1 48.26,-393.77 101,-447 104.82,-450.85 109.44,-453.93 114.37,-456.37"/>
<polygon fill="midnightblue" stroke="midnightblue" points="37.69,-257.7 33.7,-247.88 30.7,-258.04 37.69,-257.7"/>
</g>
<!-- Node3 -->
<g id="node3" class="node">
<title>Node3</title>
<g id="a_node3"><a xlink:href="classne_1_1_background_system.html" target="_top" xlink:title=" ">
<polygon fill="none" stroke="black" points="101,-418.5 101,-437.5 217,-437.5 217,-418.5 101,-418.5"/>
<text text-anchor="middle" x="159" y="-425.5" font-family="Helvetica,sans-Serif" font-size="10.00">ne::BackgroundSystem</text>
</a>
</g>
</g>
<!-- Node1&#45;&gt;Node3 -->
<g id="edge2" class="edge">
<title>Node1&#45;&gt;Node3</title>
<path fill="none" stroke="midnightblue" d="M35.83,-257.7C41.05,-293 56.88,-367.21 101,-409 105.09,-412.87 109.99,-415.96 115.18,-418.41"/>
<polygon fill="midnightblue" stroke="midnightblue" points="39.29,-257.15 34.49,-247.7 32.35,-258.08 39.29,-257.15"/>
</g>
<!-- Node4 -->
<g id="node4" class="node">
<title>Node4</title>
<g id="a_node4"><a xlink:href="classne_1_1_bonus_system.html" target="_top" xlink:title=" ">
<polygon fill="none" stroke="black" points="113,-380.5 113,-399.5 205,-399.5 205,-380.5 113,-380.5"/>
<text text-anchor="middle" x="159" y="-387.5" font-family="Helvetica,sans-Serif" font-size="10.00">ne::BonusSystem</text>
</a>
</g>
</g>
<!-- Node1&#45;&gt;Node4 -->
<g id="edge3" class="edge">
<title>Node1&#45;&gt;Node4</title>
<path fill="none" stroke="midnightblue" d="M38.24,-257.31C46.29,-286.12 65.35,-340.27 101,-371 105.5,-374.88 110.83,-377.98 116.38,-380.44"/>
<polygon fill="midnightblue" stroke="midnightblue" points="41.62,-256.38 35.68,-247.61 34.85,-258.17 41.62,-256.38"/>
</g>
<!-- Node5 -->
<g id="node5" class="node">
<title>Node5</title>
<g id="a_node5"><a xlink:href="classne_1_1_client_collision.html" target="_top" xlink:title=" ">
<polygon fill="none" stroke="black" points="112.5,-342.5 112.5,-361.5 205.5,-361.5 205.5,-342.5 112.5,-342.5"/>
<text text-anchor="middle" x="159" y="-349.5" font-family="Helvetica,sans-Serif" font-size="10.00">ne::ClientCollision</text>
</a>
</g>
</g>
<!-- Node1&#45;&gt;Node5 -->
<g id="edge4" class="edge">
<title>Node1&#45;&gt;Node5</title>
<path fill="none" stroke="midnightblue" d="M42.2,-256.66C53.07,-278.04 73.63,-312.73 101,-333 106.2,-336.85 112.22,-339.95 118.36,-342.43"/>
<polygon fill="midnightblue" stroke="midnightblue" points="45.31,-255.06 37.77,-247.61 39.02,-258.13 45.31,-255.06"/>
</g>
<!-- Node6 -->
<g id="node6" class="node">
<title>Node6</title>
<g id="a_node6"><a xlink:href="classne_1_1_collision.html" target="_top" xlink:title=" ">
<polygon fill="none" stroke="black" points="125,-304.5 125,-323.5 193,-323.5 193,-304.5 125,-304.5"/>
<text text-anchor="middle" x="159" y="-311.5" font-family="Helvetica,sans-Serif" font-size="10.00">ne::Collision</text>
</a>
</g>
</g>
<!-- Node1&#45;&gt;Node6 -->
<g id="edge5" class="edge">
<title>Node1&#45;&gt;Node6</title>
<path fill="none" stroke="midnightblue" d="M49.87,-254.95C62.77,-267.48 81.73,-284.18 101,-295 108.37,-299.14 116.78,-302.56 124.84,-305.3"/>
<polygon fill="midnightblue" stroke="midnightblue" points="52.23,-252.36 42.68,-247.78 47.29,-257.32 52.23,-252.36"/>
</g>
<!-- Node7 -->
<g id="node7" class="node">
<title>Node7</title>
<g id="a_node7"><a xlink:href="classne_1_1_mouse_system.html" target="_top" xlink:title=" ">
<polygon fill="none" stroke="black" points="112,-266.5 112,-285.5 206,-285.5 206,-266.5 112,-266.5"/>
<text text-anchor="middle" x="159" y="-273.5" font-family="Helvetica,sans-Serif" font-size="10.00">ne::MouseSystem</text>
</a>
</g>
</g>
<!-- Node1&#45;&gt;Node7 -->
<g id="edge6" class="edge">
<title>Node1&#45;&gt;Node7</title>
<path fill="none" stroke="midnightblue" d="M74.57,-250.54C91.51,-255.7 110.82,-261.6 126.59,-266.41"/>
<polygon fill="midnightblue" stroke="midnightblue" points="75.5,-247.16 64.92,-247.59 73.46,-253.86 75.5,-247.16"/>
</g>
<!-- Node8 -->
<g id="node8" class="node">
<title>Node8</title>
<g id="a_node8"><a xlink:href="classne_1_1_parallax_system.html" target="_top" xlink:title=" ">
<polygon fill="none" stroke="black" points="109.5,-228.5 109.5,-247.5 208.5,-247.5 208.5,-228.5 109.5,-228.5"/>
<text text-anchor="middle" x="159" y="-235.5" font-family="Helvetica,sans-Serif" font-size="10.00">ne::ParallaxSystem</text>
</a>
</g>
</g>
<!-- Node1&#45;&gt;Node8 -->
<g id="edge7" class="edge">
<title>Node1&#45;&gt;Node8</title>
<path fill="none" stroke="midnightblue" d="M75.36,-238C86.28,-238 98.13,-238 109.37,-238"/>
<polygon fill="midnightblue" stroke="midnightblue" points="75.24,-234.5 65.24,-238 75.24,-241.5 75.24,-234.5"/>
</g>
<!-- Node9 -->
<g id="node9" class="node">
<title>Node9</title>
<g id="a_node9"><a xlink:href="classne_1_1_pattern_system.html" target="_top" xlink:title=" ">
<polygon fill="none" stroke="black" points="111,-190.5 111,-209.5 207,-209.5 207,-190.5 111,-190.5"/>
<text text-anchor="middle" x="159" y="-197.5" font-family="Helvetica,sans-Serif" font-size="10.00">ne::PatternSystem</text>
</a>
</g>
</g>
<!-- Node1&#45;&gt;Node9 -->
<g id="edge8" class="edge">
<title>Node1&#45;&gt;Node9</title>
<path fill="none" stroke="midnightblue" d="M74.57,-225.46C91.51,-220.3 110.82,-214.4 126.59,-209.59"/>
<polygon fill="midnightblue" stroke="midnightblue" points="73.46,-222.14 64.92,-228.41 75.5,-228.84 73.46,-222.14"/>
</g>
<!-- Node10 -->
<g id="node10" class="node">
<title>Node10</title>
<g id="a_node10"><a xlink:href="classne_1_1_render_system.html" target="_top" xlink:title=" ">
<polygon fill="none" stroke="black" points="111.5,-152.5 111.5,-171.5 206.5,-171.5 206.5,-152.5 111.5,-152.5"/>
<text text-anchor="middle" x="159" y="-159.5" font-family="Helvetica,sans-Serif" font-size="10.00">ne::RenderSystem</text>
</a>
</g>
</g>
<!-- Node1&#45;&gt;Node10 -->
<g id="edge9" class="edge">
<title>Node1&#45;&gt;Node10</title>
<path fill="none" stroke="midnightblue" d="M49.87,-221.05C62.77,-208.52 81.73,-191.82 101,-181 107.64,-177.27 115.13,-174.13 122.44,-171.53"/>
<polygon fill="midnightblue" stroke="midnightblue" points="47.29,-218.68 42.68,-228.22 52.23,-223.64 47.29,-218.68"/>
</g>
<!-- Node11 -->
<g id="node11" class="node">
<title>Node11</title>
<g id="a_node11"><a xlink:href="classne_1_1_text_system.html" target="_top" xlink:title=" ">
<polygon fill="none" stroke="black" points="117.5,-114.5 117.5,-133.5 200.5,-133.5 200.5,-114.5 117.5,-114.5"/>
<text text-anchor="middle" x="159" y="-121.5" font-family="Helvetica,sans-Serif" font-size="10.00">ne::TextSystem</text>
</a>
</g>
</g>
<!-- Node1&#45;&gt;Node11 -->
<g id="edge10" class="edge">
<title>Node1&#45;&gt;Node11</title>
<path fill="none" stroke="midnightblue" d="M42.2,-219.34C53.07,-197.96 73.63,-163.27 101,-143 106.2,-139.15 112.22,-136.05 118.36,-133.57"/>
<polygon fill="midnightblue" stroke="midnightblue" points="39.02,-217.87 37.77,-228.39 45.31,-220.94 39.02,-217.87"/>
</g>
<!-- Node12 -->
<g id="node12" class="node">
<title>Node12</title>
<g id="a_node12"><a xlink:href="classne_1_1_timer_system.html" target="_top" xlink:title=" ">
<polygon fill="none" stroke="black" points="114.5,-76.5 114.5,-95.5 203.5,-95.5 203.5,-76.5 114.5,-76.5"/>
<text text-anchor="middle" x="159" y="-83.5" font-family="Helvetica,sans-Serif" font-size="10.00">ne::TimerSystem</text>
</a>
</g>
</g>
<!-- Node1&#45;&gt;Node12 -->
<g id="edge11" class="edge">
<title>Node1&#45;&gt;Node12</title>
<path fill="none" stroke="midnightblue" d="M38.24,-218.69C46.29,-189.88 65.35,-135.73 101,-105 105.5,-101.12 110.83,-98.02 116.38,-95.56"/>
<polygon fill="midnightblue" stroke="midnightblue" points="34.85,-217.83 35.68,-228.39 41.62,-219.62 34.85,-217.83"/>
</g>
<!-- Node13 -->
<g id="node13" class="node">
<title>Node13</title>
<g id="a_node13"><a xlink:href="classrt_1_1_custom_client.html" target="_top" xlink:title=" ">
<polygon fill="none" stroke="black" points="116,-38.5 116,-57.5 202,-57.5 202,-38.5 116,-38.5"/>
<text text-anchor="middle" x="159" y="-45.5" font-family="Helvetica,sans-Serif" font-size="10.00">rt::CustomClient</text>
</a>
</g>
</g>
<!-- Node1&#45;&gt;Node13 -->
<g id="edge12" class="edge">
<title>Node1&#45;&gt;Node13</title>
<path fill="none" stroke="midnightblue" d="M35.83,-218.3C41.05,-183 56.88,-108.79 101,-67 105.24,-62.98 110.35,-59.81 115.75,-57.31"/>
<polygon fill="midnightblue" stroke="midnightblue" points="32.35,-217.92 34.49,-228.3 39.29,-218.85 32.35,-217.92"/>
</g>
<!-- Node14 -->
<g id="node14" class="node">
<title>Node14</title>
<g id="a_node14"><a xlink:href="classrt_1_1_player_system.html" target="_top" xlink:title=" ">
<polygon fill="none" stroke="black" points="115.5,-0.5 115.5,-19.5 202.5,-19.5 202.5,-0.5 115.5,-0.5"/>
<text text-anchor="middle" x="159" y="-7.5" font-family="Helvetica,sans-Serif" font-size="10.00">rt::PlayerSystem</text>
</a>
</g>
</g>
<!-- Node1&#45;&gt;Node14 -->
<g id="edge13" class="edge">
<title>Node1&#45;&gt;Node14</title>
<path fill="none" stroke="midnightblue" d="M34.2,-218.02C36.72,-176.9 48.26,-82.23 101,-29 105.04,-24.92 109.97,-21.72 115.23,-19.21"/>
<polygon fill="midnightblue" stroke="midnightblue" points="30.7,-217.96 33.7,-228.12 37.69,-218.3 30.7,-217.96"/>
</g>
</g>
</svg>
