<?xml version="1.0" encoding="UTF-8" standalone="no"?>
<!DOCTYPE svg PUBLIC "-//W3C//DTD SVG 1.1//EN"
 "http://www.w3.org/Graphics/SVG/1.1/DTD/svg11.dtd">
<!-- Generated by graphviz version 2.49.3 (20211027.1501)
 -->
<!-- Title: Client/src Pages: 1 -->
<svg width="204pt" height="223pt"
 viewBox="0.00 0.00 203.50 223.00" xmlns="http://www.w3.org/2000/svg" xmlns:xlink="http://www.w3.org/1999/xlink">
<g id="graph0" class="graph" transform="scale(1 1) rotate(0) translate(4 219)">
<title>Client/src</title>
<g id="clust1" class="cluster">
<title>clusterdir_922c588100a187620fdc1533bc178f73</title>
<g id="a_clust1"><a xlink:href="dir_922c588100a187620fdc1533bc178f73.html" target="_top" xlink:title="Client">
<polygon fill="#ddddee" stroke="black" points="8,-64 8,-207 78,-207 78,-64 8,-64"/>
<text text-anchor="middle" x="43" y="-195" font-family="Helvetica,sans-Serif" font-size="10.00">Client</text>
</a>
</g>
</g>
<!-- dir_e93d5f3671a8729ca6e797e9a8fbc34c -->
<g id="node1" class="node">
<title>dir_e93d5f3671a8729ca6e797e9a8fbc34c</title>
<g id="a_node1"><a xlink:href="dir_e93d5f3671a8729ca6e797e9a8fbc34c.html" target="_top" xlink:title="include">
<polygon fill="none" stroke="black" points="70,-108 16,-108 16,-72 70,-72 70,-108"/>
<text text-anchor="middle" x="43" y="-87.5" font-family="Helvetica,sans-Serif" font-size="10.00">include</text>
</a>
</g>
</g>
<!-- dir_d6c0e01f5ea3064eef93a8fd7020a28e -->
<g id="node4" class="node">
<title>dir_d6c0e01f5ea3064eef93a8fd7020a28e</title>
<g id="a_node4"><a xlink:href="dir_d6c0e01f5ea3064eef93a8fd7020a28e.html" target="_top" xlink:title="NekoEngine">
<polygon fill="none" stroke="red" points="195.5,-108 126.5,-108 126.5,-72 195.5,-72 195.5,-108"/>
<text text-anchor="middle" x="161" y="-87.5" font-family="Helvetica,sans-Serif" font-size="10.00">NekoEngine</text>
</a>
</g>
</g>
<!-- dir_e93d5f3671a8729ca6e797e9a8fbc34c&#45;&gt;dir_d6c0e01f5ea3064eef93a8fd7020a28e -->
<g id="edge6" class="edge">
<title>dir_e93d5f3671a8729ca6e797e9a8fbc34c&#45;&gt;dir_d6c0e01f5ea3064eef93a8fd7020a28e</title>
<path fill="none" stroke="black" d="M70.2,-90C85.52,-90 100.84,-90 116.17,-90"/>
<polygon fill="black" stroke="black" points="116.24,-93.5 126.24,-90 116.24,-86.5 116.24,-93.5"/>
<g id="a_edge6&#45;headlabel"><a xlink:href="dir_000001_000003.html" target="_top" xlink:title="8">
<text text-anchor="middle" x="112.64" y="-93.84" font-family="Helvetica,sans-Serif" font-size="10.00">8</text>
</a>
</g>
</g>
<!-- dir_71db3c9ac669ad0e48d6cd88f7e1e924 -->
<g id="node2" class="node">
<title>dir_71db3c9ac669ad0e48d6cd88f7e1e924</title>
<g id="a_node2"><a xlink:href="dir_71db3c9ac669ad0e48d6cd88f7e1e924.html" target="_top" xlink:title="src">
<polygon fill="#eeeeff" stroke="black" points="70,-180 16,-180 16,-144 70,-144 70,-180"/>
<text text-anchor="middle" x="43" y="-159.5" font-family="Helvetica,sans-Serif" font-size="10.00">src</text>
</a>
</g>
</g>
<!-- dir_71db3c9ac669ad0e48d6cd88f7e1e924&#45;&gt;dir_e93d5f3671a8729ca6e797e9a8fbc34c -->
<g id="edge3" class="edge">
<title>dir_71db3c9ac669ad0e48d6cd88f7e1e924&#45;&gt;dir_e93d5f3671a8729ca6e797e9a8fbc34c</title>
<path fill="none" stroke="black" d="M43,-143.7C43,-135.98 43,-126.71 43,-118.11"/>
<polygon fill="black" stroke="black" points="46.5,-118.1 43,-108.1 39.5,-118.1 46.5,-118.1"/>
<g id="a_edge3&#45;headlabel"><a xlink:href="dir_000002_000001.html" target="_top" xlink:title="6">
<text text-anchor="middle" x="49.34" y="-119.2" font-family="Helvetica,sans-Serif" font-size="10.00">6</text>
</a>
</g>
</g>
<!-- dir_84725c51eb25f564b97d62ce281a5e70 -->
<g id="node3" class="node">
<title>dir_84725c51eb25f564b97d62ce281a5e70</title>
<g id="a_node3"><a xlink:href="dir_84725c51eb25f564b97d62ce281a5e70.html" target="_top" xlink:title="NyaLog">
<polygon fill="none" stroke="red" points="156,-36 102,-36 102,0 156,0 156,-36"/>
<text text-anchor="middle" x="129" y="-15.5" font-family="Helvetica,sans-Serif" font-size="10.00">NyaLog</text>
</a>
</g>
</g>
<!-- dir_71db3c9ac669ad0e48d6cd88f7e1e924&#45;&gt;dir_84725c51eb25f564b97d62ce281a5e70 -->
<g id="edge1" class="edge">
<title>dir_71db3c9ac669ad0e48d6cd88f7e1e924&#45;&gt;dir_84725c51eb25f564b97d62ce281a5e70</title>
<path fill="none" stroke="black" d="M55.38,-143.58C62.51,-133.36 71.51,-120.11 79,-108 91.75,-87.4 105.14,-63.43 114.85,-45.55"/>
<polygon fill="black" stroke="black" points="118.17,-46.77 119.84,-36.31 112.01,-43.45 118.17,-46.77"/>
<g id="a_edge1&#45;headlabel"><a xlink:href="dir_000002_000023.html" target="_top" xlink:title="1">
<text text-anchor="middle" x="118.96" y="-48.79" font-family="Helvetica,sans-Serif" font-size="10.00">1</text>
</a>
</g>
</g>
<!-- dir_71db3c9ac669ad0e48d6cd88f7e1e924&#45;&gt;dir_d6c0e01f5ea3064eef93a8fd7020a28e -->
<g id="edge2" class="edge">
<title>dir_71db3c9ac669ad0e48d6cd88f7e1e924&#45;&gt;dir_d6c0e01f5ea3064eef93a8fd7020a28e</title>
<path fill="none" stroke="black" d="M70.07,-144.94C85.83,-135.59 105.94,-123.66 123.24,-113.4"/>
<polygon fill="black" stroke="black" points="125.18,-116.32 131.99,-108.21 121.61,-110.3 125.18,-116.32"/>
<g id="a_edge2&#45;headlabel"><a xlink:href="dir_000002_000003.html" target="_top" xlink:title="3">
<text text-anchor="middle" x="123.53" y="-118.1" font-family="Helvetica,sans-Serif" font-size="10.00">3</text>
</a>
</g>
</g>
<!-- dir_d6c0e01f5ea3064eef93a8fd7020a28e&#45;&gt;dir_e93d5f3671a8729ca6e797e9a8fbc34c -->
<g id="edge4" class="edge">
<title>dir_d6c0e01f5ea3064eef93a8fd7020a28e&#45;&gt;dir_e93d5f3671a8729ca6e797e9a8fbc34c</title>
<path fill="none" stroke="black" d="M126.24,-90C110.91,-90 95.59,-90 80.27,-90"/>
<polygon fill="black" stroke="black" points="80.2,-86.5 70.2,-90 80.2,-93.5 80.2,-86.5"/>
<g id="a_edge4&#45;headlabel"><a xlink:href="dir_000003_000001.html" target="_top" xlink:title="2">
<text text-anchor="middle" x="83.79" y="-81.16" font-family="Helvetica,sans-Serif" font-size="10.00">2</text>
</a>
</g>
</g>
<!-- dir_d6c0e01f5ea3064eef93a8fd7020a28e&#45;&gt;dir_84725c51eb25f564b97d62ce281a5e70 -->
<g id="edge5" class="edge">
<title>dir_d6c0e01f5ea3064eef93a8fd7020a28e&#45;&gt;dir_84725c51eb25f564b97d62ce281a5e70</title>
<path fill="none" stroke="black" d="M153.09,-71.7C149.45,-63.73 145.05,-54.1 141.01,-45.26"/>
<polygon fill="black" stroke="black" points="144.16,-43.74 136.82,-36.1 137.79,-46.65 144.16,-43.74"/>
<g id="a_edge5&#45;headlabel"><a xlink:href="dir_000003_000023.html" target="_top" xlink:title="1">
<text text-anchor="middle" x="148.24" y="-43.33" font-family="Helvetica,sans-Serif" font-size="10.00">1</text>
</a>
</g>
</g>
</g>
</svg>
