<?xml version="1.0" encoding="UTF-8" standalone="no"?>
<!DOCTYPE svg PUBLIC "-//W3C//DTD SVG 1.1//EN"
 "http://www.w3.org/Graphics/SVG/1.1/DTD/svg11.dtd">
<!-- Generated by graphviz version 2.49.3 (20211027.1501)
 -->
<!-- Title: NekoEngine/include/NekoEngine/Graphics Pages: 1 -->
<svg width="270pt" height="239pt"
 viewBox="0.00 0.00 270.00 239.00" xmlns="http://www.w3.org/2000/svg" xmlns:xlink="http://www.w3.org/1999/xlink">
<g id="graph0" class="graph" transform="scale(1 1) rotate(0) translate(4 235)">
<title>NekoEngine/include/NekoEngine/Graphics</title>
<g id="clust1" class="cluster">
<title>clusterdir_28c3b0df660c0b2379a4dffbf7d8fcd1</title>
<g id="a_clust1"><a xlink:href="dir_28c3b0df660c0b2379a4dffbf7d8fcd1.html" target="_top" xlink:title="NekoEngine">
<polygon fill="#ddddee" stroke="black" points="8,-8 8,-223 198,-223 198,-8 8,-8"/>
<text text-anchor="middle" x="103" y="-211" font-family="Helvetica,sans-Serif" font-size="10.00">NekoEngine</text>
</a>
</g>
</g>
<!-- dir_01068a58feee85e3acaa62428107087f -->
<g id="node1" class="node">
<title>dir_01068a58feee85e3acaa62428107087f</title>
<g id="a_node1"><a xlink:href="dir_01068a58feee85e3acaa62428107087f.html" target="_top" xlink:title="Math">
<polygon fill="none" stroke="red" points="80,-52 26,-52 26,-16 80,-16 80,-52"/>
<text text-anchor="middle" x="53" y="-31.5" font-family="Helvetica,sans-Serif" font-size="10.00">Math</text>
</a>
</g>
</g>
<!-- dir_b289050f8b6c64d70f187885e9ef45d7 -->
<g id="node2" class="node">
<title>dir_b289050f8b6c64d70f187885e9ef45d7</title>
<g id="a_node2"><a xlink:href="dir_b289050f8b6c64d70f187885e9ef45d7.html" target="_top" xlink:title="ECS">
<polygon fill="none" stroke="red" points="90,-124 36,-124 36,-88 90,-88 90,-124"/>
<text text-anchor="middle" x="63" y="-103.5" font-family="Helvetica,sans-Serif" font-size="10.00">ECS</text>
</a>
</g>
</g>
<!-- dir_b289050f8b6c64d70f187885e9ef45d7&#45;&gt;dir_01068a58feee85e3acaa62428107087f -->
<g id="edge2" class="edge">
<title>dir_b289050f8b6c64d70f187885e9ef45d7&#45;&gt;dir_01068a58feee85e3acaa62428107087f</title>
<path fill="none" stroke="black" d="M60.53,-87.7C59.43,-79.98 58.1,-70.71 56.87,-62.11"/>
<polygon fill="black" stroke="black" points="60.32,-61.51 55.44,-52.1 53.39,-62.5 60.32,-61.51"/>
<g id="a_edge2&#45;headlabel"><a xlink:href="dir_000006_000010.html" target="_top" xlink:title="4">
<text text-anchor="middle" x="63.64" y="-62.17" font-family="Helvetica,sans-Serif" font-size="10.00">4</text>
</a>
</g>
</g>
<!-- dir_b7cd84d72f9bbd510e0443adbc669c7d -->
<g id="node3" class="node">
<title>dir_b7cd84d72f9bbd510e0443adbc669c7d</title>
<g id="a_node3"><a xlink:href="dir_b7cd84d72f9bbd510e0443adbc669c7d.html" target="_top" xlink:title="NekoException">
<polygon fill="none" stroke="black" points="190,-124 108,-124 108,-88 190,-88 190,-124"/>
<text text-anchor="middle" x="149" y="-103.5" font-family="Helvetica,sans-Serif" font-size="10.00">NekoException</text>
</a>
</g>
</g>
<!-- dir_d0171870ac18fedae6f45d858145ae6c -->
<g id="node4" class="node">
<title>dir_d0171870ac18fedae6f45d858145ae6c</title>
<g id="a_node4"><a xlink:href="dir_d0171870ac18fedae6f45d858145ae6c.html" target="_top" xlink:title="Graphics">
<polygon fill="#eeeeff" stroke="black" points="134,-196 78,-196 78,-160 134,-160 134,-196"/>
<text text-anchor="middle" x="106" y="-175.5" font-family="Helvetica,sans-Serif" font-size="10.00">Graphics</text>
</a>
</g>
</g>
<!-- dir_d0171870ac18fedae6f45d858145ae6c&#45;&gt;dir_01068a58feee85e3acaa62428107087f -->
<g id="edge3" class="edge">
<title>dir_d0171870ac18fedae6f45d858145ae6c&#45;&gt;dir_01068a58feee85e3acaa62428107087f</title>
<path fill="none" stroke="black" d="M77.96,-166.42C59.84,-157.94 37.73,-144.11 27,-124 16.37,-104.07 25.2,-79.26 35.35,-60.9"/>
<polygon fill="black" stroke="black" points="38.42,-62.58 40.53,-52.2 32.41,-59 38.42,-62.58"/>
<g id="a_edge3&#45;headlabel"><a xlink:href="dir_000009_000010.html" target="_top" xlink:title="1">
<text text-anchor="middle" x="39.03" y="-64.62" font-family="Helvetica,sans-Serif" font-size="10.00">1</text>
</a>
</g>
</g>
<!-- dir_d0171870ac18fedae6f45d858145ae6c&#45;&gt;dir_b289050f8b6c64d70f187885e9ef45d7 -->
<g id="edge5" class="edge">
<title>dir_d0171870ac18fedae6f45d858145ae6c&#45;&gt;dir_b289050f8b6c64d70f187885e9ef45d7</title>
<path fill="none" stroke="black" d="M95.37,-159.7C90.37,-151.56 84.31,-141.69 78.79,-132.7"/>
<polygon fill="black" stroke="black" points="81.72,-130.79 73.51,-124.1 75.76,-134.46 81.72,-130.79"/>
<g id="a_edge5&#45;headlabel"><a xlink:href="dir_000009_000006.html" target="_top" xlink:title="1">
<text text-anchor="middle" x="86.02" y="-129.87" font-family="Helvetica,sans-Serif" font-size="10.00">1</text>
</a>
</g>
</g>
<!-- dir_d0171870ac18fedae6f45d858145ae6c&#45;&gt;dir_b7cd84d72f9bbd510e0443adbc669c7d -->
<g id="edge6" class="edge">
<title>dir_d0171870ac18fedae6f45d858145ae6c&#45;&gt;dir_b7cd84d72f9bbd510e0443adbc669c7d</title>
<path fill="none" stroke="black" d="M116.63,-159.7C121.63,-151.56 127.69,-141.69 133.21,-132.7"/>
<polygon fill="black" stroke="black" points="136.24,-134.46 138.49,-124.1 130.28,-130.79 136.24,-134.46"/>
<g id="a_edge6&#45;headlabel"><a xlink:href="dir_000009_000014.html" target="_top" xlink:title="1">
<text text-anchor="middle" x="136.78" y="-136.51" font-family="Helvetica,sans-Serif" font-size="10.00">1</text>
</a>
</g>
</g>
<!-- dir_922c588100a187620fdc1533bc178f73 -->
<g id="node5" class="node">
<title>dir_922c588100a187620fdc1533bc178f73</title>
<g id="a_node5"><a xlink:href="dir_922c588100a187620fdc1533bc178f73.html" target="_top" xlink:title="Client">
<polygon fill="none" stroke="red" points="262,-124 208,-124 208,-88 262,-88 262,-124"/>
<text text-anchor="middle" x="235" y="-103.5" font-family="Helvetica,sans-Serif" font-size="10.00">Client</text>
</a>
</g>
</g>
<!-- dir_d0171870ac18fedae6f45d858145ae6c&#45;&gt;dir_922c588100a187620fdc1533bc178f73 -->
<g id="edge4" class="edge">
<title>dir_d0171870ac18fedae6f45d858145ae6c&#45;&gt;dir_922c588100a187620fdc1533bc178f73</title>
<path fill="none" stroke="black" d="M134.31,-161.64C153.22,-151.38 178.26,-137.79 198.64,-126.73"/>
<polygon fill="black" stroke="black" points="200.52,-129.69 207.64,-121.85 197.18,-123.54 200.52,-129.69"/>
<g id="a_edge4&#45;headlabel"><a xlink:href="dir_000009_000000.html" target="_top" xlink:title="1">
<text text-anchor="middle" x="198.72" y="-131.4" font-family="Helvetica,sans-Serif" font-size="10.00">1</text>
</a>
</g>
</g>
<!-- dir_922c588100a187620fdc1533bc178f73&#45;&gt;dir_b289050f8b6c64d70f187885e9ef45d7 -->
<g id="edge1" class="edge">
<title>dir_922c588100a187620fdc1533bc178f73&#45;&gt;dir_b289050f8b6c64d70f187885e9ef45d7</title>
<path fill="none" stroke="black" d="M219.27,-124.2C212.06,-131.17 202.91,-138.33 193,-142 157.57,-155.11 143.65,-154.5 108,-142 100.86,-139.5 94.01,-135.33 87.91,-130.7"/>
<polygon fill="black" stroke="black" points="90.01,-127.9 80.08,-124.22 85.55,-133.29 90.01,-127.9"/>
<g id="a_edge1&#45;headlabel"><a xlink:href="dir_000000_000006.html" target="_top" xlink:title="5">
<text text-anchor="middle" x="94.59" y="-125.51" font-family="Helvetica,sans-Serif" font-size="10.00">5</text>
</a>
</g>
</g>
</g>
</svg>
