<?xml version="1.0" encoding="UTF-8" standalone="no"?>
<!DOCTYPE svg PUBLIC "-//W3C//DTD SVG 1.1//EN"
 "http://www.w3.org/Graphics/SVG/1.1/DTD/svg11.dtd">
<!-- Generated by graphviz version 2.49.3 (20211027.1501)
 -->
<!-- Title: Client Pages: 1 -->
<svg width="259pt" height="204pt"
 viewBox="0.00 0.00 259.00 204.00" xmlns="http://www.w3.org/2000/svg" xmlns:xlink="http://www.w3.org/1999/xlink">
<g id="graph0" class="graph" transform="scale(1 1) rotate(0) translate(4 200)">
<title>Client</title>
<g id="clust1" class="cluster">
<title>clusterdir_922c588100a187620fdc1533bc178f73</title>
<g id="a_clust1"><a xlink:href="dir_922c588100a187620fdc1533bc178f73.html" target="_top">
<polygon fill="#eeeeff" stroke="black" points="8,-64 8,-188 150,-188 150,-64 8,-64"/>
</a>
</g>
</g>
<!-- dir_922c588100a187620fdc1533bc178f73 -->
<g id="node1" class="node">
<title>dir_922c588100a187620fdc1533bc178f73</title>
<text text-anchor="middle" x="115" y="-159.5" font-family="Helvetica,sans-Serif" font-size="10.00">Client</text>
</g>
<!-- dir_e93d5f3671a8729ca6e797e9a8fbc34c -->
<g id="node2" class="node">
<title>dir_e93d5f3671a8729ca6e797e9a8fbc34c</title>
<g id="a_node2"><a xlink:href="dir_e93d5f3671a8729ca6e797e9a8fbc34c.html" target="_top" xlink:title="include">
<polygon fill="white" stroke="black" points="105,-108 51,-108 51,-72 105,-72 105,-108"/>
<text text-anchor="middle" x="78" y="-87.5" font-family="Helvetica,sans-Serif" font-size="10.00">include</text>
</a>
</g>
</g>
<!-- dir_d6c0e01f5ea3064eef93a8fd7020a28e -->
<g id="node4" class="node">
<title>dir_d6c0e01f5ea3064eef93a8fd7020a28e</title>
<g id="a_node4"><a xlink:href="dir_d6c0e01f5ea3064eef93a8fd7020a28e.html" target="_top" xlink:title="NekoEngine">
<polygon fill="none" stroke="red" points="227.5,-108 158.5,-108 158.5,-72 227.5,-72 227.5,-108"/>
<text text-anchor="middle" x="193" y="-87.5" font-family="Helvetica,sans-Serif" font-size="10.00">NekoEngine</text>
</a>
</g>
</g>
<!-- dir_e93d5f3671a8729ca6e797e9a8fbc34c&#45;&gt;dir_d6c0e01f5ea3064eef93a8fd7020a28e -->
<g id="edge6" class="edge">
<title>dir_e93d5f3671a8729ca6e797e9a8fbc34c&#45;&gt;dir_d6c0e01f5ea3064eef93a8fd7020a28e</title>
<path fill="none" stroke="black" d="M105.4,-90C119.63,-90 133.85,-90 148.08,-90"/>
<polygon fill="black" stroke="black" points="148.44,-93.5 158.44,-90 148.44,-86.5 148.44,-93.5"/>
<g id="a_edge6&#45;headlabel"><a xlink:href="dir_000001_000003.html" target="_top" xlink:title="8">
<text text-anchor="middle" x="144.85" y="-93.84" font-family="Helvetica,sans-Serif" font-size="10.00">8</text>
</a>
</g>
</g>
<!-- dir_71db3c9ac669ad0e48d6cd88f7e1e924 -->
<g id="node3" class="node">
<title>dir_71db3c9ac669ad0e48d6cd88f7e1e924</title>
<g id="a_node3"><a xlink:href="dir_71db3c9ac669ad0e48d6cd88f7e1e924.html" target="_top" xlink:title="src">
<polygon fill="white" stroke="black" points="70,-180 16,-180 16,-144 70,-144 70,-180"/>
<text text-anchor="middle" x="43" y="-159.5" font-family="Helvetica,sans-Serif" font-size="10.00">src</text>
</a>
</g>
</g>
<!-- dir_71db3c9ac669ad0e48d6cd88f7e1e924&#45;&gt;dir_e93d5f3671a8729ca6e797e9a8fbc34c -->
<g id="edge3" class="edge">
<title>dir_71db3c9ac669ad0e48d6cd88f7e1e924&#45;&gt;dir_e93d5f3671a8729ca6e797e9a8fbc34c</title>
<path fill="none" stroke="black" d="M51.65,-143.7C55.64,-135.73 60.45,-126.1 64.87,-117.26"/>
<polygon fill="black" stroke="black" points="68.11,-118.61 69.45,-108.1 61.85,-115.48 68.11,-118.61"/>
<g id="a_edge3&#45;headlabel"><a xlink:href="dir_000002_000001.html" target="_top" xlink:title="6">
<text text-anchor="middle" x="69.04" y="-120.6" font-family="Helvetica,sans-Serif" font-size="10.00">6</text>
</a>
</g>
</g>
<!-- dir_71db3c9ac669ad0e48d6cd88f7e1e924&#45;&gt;dir_d6c0e01f5ea3064eef93a8fd7020a28e -->
<g id="edge2" class="edge">
<title>dir_71db3c9ac669ad0e48d6cd88f7e1e924&#45;&gt;dir_d6c0e01f5ea3064eef93a8fd7020a28e</title>
<path fill="none" stroke="black" d="M70.12,-148.17C73.11,-146.76 76.12,-145.35 79,-144 102.16,-133.15 127.99,-121.13 149.21,-111.28"/>
<polygon fill="black" stroke="black" points="150.7,-114.45 158.3,-107.07 147.76,-108.1 150.7,-114.45"/>
<g id="a_edge2&#45;headlabel"><a xlink:href="dir_000002_000003.html" target="_top" xlink:title="3">
<text text-anchor="middle" x="148.64" y="-116.04" font-family="Helvetica,sans-Serif" font-size="10.00">3</text>
</a>
</g>
</g>
<!-- dir_84725c51eb25f564b97d62ce281a5e70 -->
<g id="node5" class="node">
<title>dir_84725c51eb25f564b97d62ce281a5e70</title>
<g id="a_node5"><a xlink:href="dir_84725c51eb25f564b97d62ce281a5e70.html" target="_top" xlink:title="NyaLog">
<polygon fill="none" stroke="red" points="251,-36 197,-36 197,0 251,0 251,-36"/>
<text text-anchor="middle" x="224" y="-15.5" font-family="Helvetica,sans-Serif" font-size="10.00">NyaLog</text>
</a>
</g>
</g>
<!-- dir_71db3c9ac669ad0e48d6cd88f7e1e924&#45;&gt;dir_84725c51eb25f564b97d62ce281a5e70 -->
<g id="edge1" class="edge">
<title>dir_71db3c9ac669ad0e48d6cd88f7e1e924&#45;&gt;dir_84725c51eb25f564b97d62ce281a5e70</title>
<path fill="none" stroke="black" d="M70.26,-147.38C73.18,-146.15 76.13,-144.99 79,-144 147.07,-120.48 192.08,-164.3 237,-108 251,-90.46 245.18,-64.56 237.39,-45.22"/>
<polygon fill="black" stroke="black" points="240.58,-43.79 233.35,-36.05 234.17,-46.61 240.58,-43.79"/>
<g id="a_edge1&#45;headlabel"><a xlink:href="dir_000002_000023.html" target="_top" xlink:title="1">
<text text-anchor="middle" x="244.63" y="-43.44" font-family="Helvetica,sans-Serif" font-size="10.00">1</text>
</a>
</g>
</g>
<!-- dir_d6c0e01f5ea3064eef93a8fd7020a28e&#45;&gt;dir_e93d5f3671a8729ca6e797e9a8fbc34c -->
<g id="edge4" class="edge">
<title>dir_d6c0e01f5ea3064eef93a8fd7020a28e&#45;&gt;dir_e93d5f3671a8729ca6e797e9a8fbc34c</title>
<path fill="none" stroke="black" d="M158.44,-90C144.21,-90 129.99,-90 115.76,-90"/>
<polygon fill="black" stroke="black" points="115.4,-86.5 105.4,-90 115.4,-93.5 115.4,-86.5"/>
<g id="a_edge4&#45;headlabel"><a xlink:href="dir_000003_000001.html" target="_top" xlink:title="2">
<text text-anchor="middle" x="119" y="-81.16" font-family="Helvetica,sans-Serif" font-size="10.00">2</text>
</a>
</g>
</g>
<!-- dir_d6c0e01f5ea3064eef93a8fd7020a28e&#45;&gt;dir_84725c51eb25f564b97d62ce281a5e70 -->
<g id="edge5" class="edge">
<title>dir_d6c0e01f5ea3064eef93a8fd7020a28e&#45;&gt;dir_84725c51eb25f564b97d62ce281a5e70</title>
<path fill="none" stroke="black" d="M200.66,-71.7C204.19,-63.73 208.46,-54.1 212.37,-45.26"/>
<polygon fill="black" stroke="black" points="215.58,-46.67 216.43,-36.1 209.18,-43.83 215.58,-46.67"/>
<g id="a_edge5&#45;headlabel"><a xlink:href="dir_000003_000023.html" target="_top" xlink:title="1">
<text text-anchor="middle" x="216.72" y="-48.6" font-family="Helvetica,sans-Serif" font-size="10.00">1</text>
</a>
</g>
</g>
</g>
</svg>
