<?xml version="1.0" encoding="UTF-8" standalone="no"?>
<!DOCTYPE svg PUBLIC "-//W3C//DTD SVG 1.1//EN"
 "http://www.w3.org/Graphics/SVG/1.1/DTD/svg11.dtd">
<!-- Generated by graphviz version 2.49.3 (20211027.1501)
 -->
<!-- Title: NekoEngine/include/NekoEngine Pages: 1 -->
<svg width="284pt" height="327pt"
 viewBox="0.00 0.00 284.00 327.00" xmlns="http://www.w3.org/2000/svg" xmlns:xlink="http://www.w3.org/1999/xlink">
<g id="graph0" class="graph" transform="scale(1 1) rotate(0) translate(4 323)">
<title>NekoEngine/include/NekoEngine</title>
<g id="clust1" class="cluster">
<title>clusterdir_6de83056eb2701410aa102170ed06318</title>
<g id="a_clust1"><a xlink:href="dir_6de83056eb2701410aa102170ed06318.html" target="_top" xlink:title="include">
<polygon fill="#ddddee" stroke="black" points="8,-8 8,-311 214,-311 214,-8 8,-8"/>
<text text-anchor="middle" x="111" y="-299" font-family="Helvetica,sans-Serif" font-size="10.00">include</text>
</a>
</g>
</g>
<g id="clust2" class="cluster">
<title>clusterdir_28c3b0df660c0b2379a4dffbf7d8fcd1</title>
<g id="a_clust2"><a xlink:href="dir_28c3b0df660c0b2379a4dffbf7d8fcd1.html" target="_top">
<polygon fill="#eeeeff" stroke="black" points="16,-16 16,-284 206,-284 206,-16 16,-16"/>
</a>
</g>
</g>
<!-- dir_28c3b0df660c0b2379a4dffbf7d8fcd1 -->
<g id="node1" class="node">
<title>dir_28c3b0df660c0b2379a4dffbf7d8fcd1</title>
<text text-anchor="middle" x="130" y="-255.5" font-family="Helvetica,sans-Serif" font-size="10.00">NekoEngine</text>
</g>
<!-- dir_d0171870ac18fedae6f45d858145ae6c -->
<g id="node3" class="node">
<title>dir_d0171870ac18fedae6f45d858145ae6c</title>
<g id="a_node3"><a xlink:href="dir_d0171870ac18fedae6f45d858145ae6c.html" target="_top" xlink:title="Graphics">
<polygon fill="white" stroke="black" points="126,-204 70,-204 70,-168 126,-168 126,-204"/>
<text text-anchor="middle" x="98" y="-183.5" font-family="Helvetica,sans-Serif" font-size="10.00">Graphics</text>
</a>
</g>
</g>
<!-- dir_28c3b0df660c0b2379a4dffbf7d8fcd1&#45;&gt;dir_d0171870ac18fedae6f45d858145ae6c -->
<g id="edge3" class="edge">
<title>dir_28c3b0df660c0b2379a4dffbf7d8fcd1&#45;&gt;dir_d0171870ac18fedae6f45d858145ae6c</title>
<path fill="none" stroke="black" d="M122.09,-239.7C118.45,-231.73 114.05,-222.1 110.01,-213.26"/>
<polygon fill="black" stroke="black" points="113.16,-211.74 105.82,-204.1 106.79,-214.65 113.16,-211.74"/>
<g id="a_edge3&#45;headlabel"><a xlink:href="dir_000005_000009.html" target="_top" xlink:title="2">
<text text-anchor="middle" x="117.24" y="-211.33" font-family="Helvetica,sans-Serif" font-size="10.00">2</text>
</a>
</g>
</g>
<!-- dir_23e0b01818af5503cc9f98ffcfc3ecde -->
<g id="node6" class="node">
<title>dir_23e0b01818af5503cc9f98ffcfc3ecde</title>
<g id="a_node6"><a xlink:href="dir_23e0b01818af5503cc9f98ffcfc3ecde.html" target="_top" xlink:title="Scenes">
<polygon fill="white" stroke="black" points="198,-204 144,-204 144,-168 198,-168 198,-204"/>
<text text-anchor="middle" x="171" y="-183.5" font-family="Helvetica,sans-Serif" font-size="10.00">Scenes</text>
</a>
</g>
</g>
<!-- dir_28c3b0df660c0b2379a4dffbf7d8fcd1&#45;&gt;dir_23e0b01818af5503cc9f98ffcfc3ecde -->
<g id="edge2" class="edge">
<title>dir_28c3b0df660c0b2379a4dffbf7d8fcd1&#45;&gt;dir_23e0b01818af5503cc9f98ffcfc3ecde</title>
<path fill="none" stroke="black" d="M140.13,-239.7C144.85,-231.64 150.56,-221.89 155.78,-212.98"/>
<polygon fill="black" stroke="black" points="158.95,-214.5 160.98,-204.1 152.91,-210.96 158.95,-214.5"/>
<g id="a_edge2&#45;headlabel"><a xlink:href="dir_000005_000015.html" target="_top" xlink:title="1">
<text text-anchor="middle" x="159.58" y="-216.54" font-family="Helvetica,sans-Serif" font-size="10.00">1</text>
</a>
</g>
</g>
<!-- dir_b289050f8b6c64d70f187885e9ef45d7 -->
<g id="node2" class="node">
<title>dir_b289050f8b6c64d70f187885e9ef45d7</title>
<g id="a_node2"><a xlink:href="dir_b289050f8b6c64d70f187885e9ef45d7.html" target="_top" xlink:title="ECS">
<polygon fill="white" stroke="red" points="198,-132 144,-132 144,-96 198,-96 198,-132"/>
<text text-anchor="middle" x="171" y="-111.5" font-family="Helvetica,sans-Serif" font-size="10.00">ECS</text>
</a>
</g>
</g>
<!-- dir_01068a58feee85e3acaa62428107087f -->
<g id="node4" class="node">
<title>dir_01068a58feee85e3acaa62428107087f</title>
<g id="a_node4"><a xlink:href="dir_01068a58feee85e3acaa62428107087f.html" target="_top" xlink:title="Math">
<polygon fill="white" stroke="red" points="138,-60 84,-60 84,-24 138,-24 138,-60"/>
<text text-anchor="middle" x="111" y="-39.5" font-family="Helvetica,sans-Serif" font-size="10.00">Math</text>
</a>
</g>
</g>
<!-- dir_b289050f8b6c64d70f187885e9ef45d7&#45;&gt;dir_01068a58feee85e3acaa62428107087f -->
<g id="edge6" class="edge">
<title>dir_b289050f8b6c64d70f187885e9ef45d7&#45;&gt;dir_01068a58feee85e3acaa62428107087f</title>
<path fill="none" stroke="black" d="M156.17,-95.7C148.98,-87.3 140.2,-77.07 132.31,-67.86"/>
<polygon fill="black" stroke="black" points="134.83,-65.42 125.66,-60.1 129.51,-69.97 134.83,-65.42"/>
<g id="a_edge6&#45;headlabel"><a xlink:href="dir_000006_000010.html" target="_top" xlink:title="4">
<text text-anchor="middle" x="139.32" y="-63.8" font-family="Helvetica,sans-Serif" font-size="10.00">4</text>
</a>
</g>
</g>
<!-- dir_d0171870ac18fedae6f45d858145ae6c&#45;&gt;dir_b289050f8b6c64d70f187885e9ef45d7 -->
<g id="edge9" class="edge">
<title>dir_d0171870ac18fedae6f45d858145ae6c&#45;&gt;dir_b289050f8b6c64d70f187885e9ef45d7</title>
<path fill="none" stroke="black" d="M116.04,-167.7C125.06,-159.05 136.12,-148.45 145.94,-139.03"/>
<polygon fill="black" stroke="black" points="148.37,-141.55 153.16,-132.1 143.52,-136.5 148.37,-141.55"/>
<g id="a_edge9&#45;headlabel"><a xlink:href="dir_000009_000006.html" target="_top" xlink:title="1">
<text text-anchor="middle" x="147.74" y="-143.59" font-family="Helvetica,sans-Serif" font-size="10.00">1</text>
</a>
</g>
</g>
<!-- dir_d0171870ac18fedae6f45d858145ae6c&#45;&gt;dir_01068a58feee85e3acaa62428107087f -->
<g id="edge7" class="edge">
<title>dir_d0171870ac18fedae6f45d858145ae6c&#45;&gt;dir_01068a58feee85e3acaa62428107087f</title>
<path fill="none" stroke="black" d="M69.68,-169.18C56.53,-160.17 42.24,-147.55 35,-132 28.25,-117.49 27.6,-110.19 35,-96 43.5,-79.7 59.56,-67.39 74.73,-58.76"/>
<polygon fill="black" stroke="black" points="76.79,-61.63 83.99,-53.86 73.51,-55.44 76.79,-61.63"/>
<g id="a_edge7&#45;headlabel"><a xlink:href="dir_000009_000010.html" target="_top" xlink:title="1">
<text text-anchor="middle" x="74.94" y="-63.32" font-family="Helvetica,sans-Serif" font-size="10.00">1</text>
</a>
</g>
</g>
<!-- dir_b7cd84d72f9bbd510e0443adbc669c7d -->
<g id="node5" class="node">
<title>dir_b7cd84d72f9bbd510e0443adbc669c7d</title>
<g id="a_node5"><a xlink:href="dir_b7cd84d72f9bbd510e0443adbc669c7d.html" target="_top" xlink:title="NekoException">
<polygon fill="white" stroke="black" points="126,-132 44,-132 44,-96 126,-96 126,-132"/>
<text text-anchor="middle" x="85" y="-111.5" font-family="Helvetica,sans-Serif" font-size="10.00">NekoException</text>
</a>
</g>
</g>
<!-- dir_d0171870ac18fedae6f45d858145ae6c&#45;&gt;dir_b7cd84d72f9bbd510e0443adbc669c7d -->
<g id="edge10" class="edge">
<title>dir_d0171870ac18fedae6f45d858145ae6c&#45;&gt;dir_b7cd84d72f9bbd510e0443adbc669c7d</title>
<path fill="none" stroke="black" d="M94.79,-167.7C93.35,-159.98 91.63,-150.71 90.04,-142.11"/>
<polygon fill="black" stroke="black" points="93.44,-141.3 88.18,-132.1 86.56,-142.58 93.44,-141.3"/>
<g id="a_edge10&#45;headlabel"><a xlink:href="dir_000009_000014.html" target="_top" xlink:title="1">
<text text-anchor="middle" x="96.89" y="-141.81" font-family="Helvetica,sans-Serif" font-size="10.00">1</text>
</a>
</g>
</g>
<!-- dir_922c588100a187620fdc1533bc178f73 -->
<g id="node7" class="node">
<title>dir_922c588100a187620fdc1533bc178f73</title>
<g id="a_node7"><a xlink:href="dir_922c588100a187620fdc1533bc178f73.html" target="_top" xlink:title="Client">
<polygon fill="none" stroke="red" points="276,-204 222,-204 222,-168 276,-168 276,-204"/>
<text text-anchor="middle" x="249" y="-183.5" font-family="Helvetica,sans-Serif" font-size="10.00">Client</text>
</a>
</g>
</g>
<!-- dir_d0171870ac18fedae6f45d858145ae6c&#45;&gt;dir_922c588100a187620fdc1533bc178f73 -->
<g id="edge8" class="edge">
<title>dir_d0171870ac18fedae6f45d858145ae6c&#45;&gt;dir_922c588100a187620fdc1533bc178f73</title>
<path fill="none" stroke="black" d="M115.53,-204.22C123.48,-211.21 133.45,-218.36 144,-222 167.95,-230.26 176.97,-230.01 201,-222 208.64,-219.45 216.05,-215.16 222.66,-210.4"/>
<polygon fill="black" stroke="black" points="224.84,-213.14 230.58,-204.24 220.54,-207.62 224.84,-213.14"/>
<g id="a_edge8&#45;headlabel"><a xlink:href="dir_000009_000000.html" target="_top" xlink:title="1">
<text text-anchor="middle" x="223.75" y="-215.09" font-family="Helvetica,sans-Serif" font-size="10.00">1</text>
</a>
</g>
</g>
<!-- dir_23e0b01818af5503cc9f98ffcfc3ecde&#45;&gt;dir_b289050f8b6c64d70f187885e9ef45d7 -->
<g id="edge1" class="edge">
<title>dir_23e0b01818af5503cc9f98ffcfc3ecde&#45;&gt;dir_b289050f8b6c64d70f187885e9ef45d7</title>
<path fill="none" stroke="black" d="M171,-167.7C171,-159.98 171,-150.71 171,-142.11"/>
<polygon fill="black" stroke="black" points="174.5,-142.1 171,-132.1 167.5,-142.1 174.5,-142.1"/>
<g id="a_edge1&#45;headlabel"><a xlink:href="dir_000015_000006.html" target="_top" xlink:title="1">
<text text-anchor="middle" x="177.34" y="-143.2" font-family="Helvetica,sans-Serif" font-size="10.00">1</text>
</a>
</g>
</g>
<!-- dir_922c588100a187620fdc1533bc178f73&#45;&gt;dir_b289050f8b6c64d70f187885e9ef45d7 -->
<g id="edge4" class="edge">
<title>dir_922c588100a187620fdc1533bc178f73&#45;&gt;dir_b289050f8b6c64d70f187885e9ef45d7</title>
<path fill="none" stroke="black" d="M229.72,-167.7C220.08,-159.05 208.27,-148.45 197.77,-139.03"/>
<polygon fill="black" stroke="black" points="199.84,-136.18 190.06,-132.1 195.16,-141.39 199.84,-136.18"/>
<g id="a_edge4&#45;headlabel"><a xlink:href="dir_000000_000006.html" target="_top" xlink:title="5">
<text text-anchor="middle" x="204.41" y="-133.97" font-family="Helvetica,sans-Serif" font-size="10.00">5</text>
</a>
</g>
</g>
<!-- dir_922c588100a187620fdc1533bc178f73&#45;&gt;dir_d0171870ac18fedae6f45d858145ae6c -->
<g id="edge5" class="edge">
<title>dir_922c588100a187620fdc1533bc178f73&#45;&gt;dir_d0171870ac18fedae6f45d858145ae6c</title>
<path fill="none" stroke="black" d="M230.58,-204.24C222.26,-211.22 211.87,-218.38 201,-222 176.97,-230.01 167.95,-230.26 144,-222 136.75,-219.5 129.77,-215.34 123.53,-210.71"/>
<polygon fill="black" stroke="black" points="125.5,-207.8 115.53,-204.22 121.09,-213.24 125.5,-207.8"/>
<g id="a_edge5&#45;headlabel"><a xlink:href="dir_000000_000009.html" target="_top" xlink:title="1">
<text text-anchor="middle" x="130.08" y="-205.36" font-family="Helvetica,sans-Serif" font-size="10.00">1</text>
</a>
</g>
</g>
</g>
</svg>
