<?xml version="1.0" encoding="UTF-8" standalone="no"?>
<!DOCTYPE svg PUBLIC "-//W3C//DTD SVG 1.1//EN"
 "http://www.w3.org/Graphics/SVG/1.1/DTD/svg11.dtd">
<!-- Generated by graphviz version 2.49.3 (20211027.1501)
 -->
<!-- Title: NekoEngine Pages: 1 -->
<svg width="263pt" height="204pt"
 viewBox="0.00 0.00 263.00 204.00" xmlns="http://www.w3.org/2000/svg" xmlns:xlink="http://www.w3.org/1999/xlink">
<g id="graph0" class="graph" transform="scale(1 1) rotate(0) translate(4 200)">
<title>NekoEngine</title>
<g id="clust1" class="cluster">
<title>clusterdir_d6c0e01f5ea3064eef93a8fd7020a28e</title>
<g id="a_clust1"><a xlink:href="dir_d6c0e01f5ea3064eef93a8fd7020a28e.html" target="_top">
<polygon fill="#eeeeff" stroke="black" points="8,-64 8,-188 166,-188 166,-64 8,-64"/>
</a>
</g>
</g>
<!-- dir_d6c0e01f5ea3064eef93a8fd7020a28e -->
<g id="node1" class="node">
<title>dir_d6c0e01f5ea3064eef93a8fd7020a28e</title>
<text text-anchor="middle" x="123" y="-159.5" font-family="Helvetica,sans-Serif" font-size="10.00">NekoEngine</text>
</g>
<!-- dir_6de83056eb2701410aa102170ed06318 -->
<g id="node2" class="node">
<title>dir_6de83056eb2701410aa102170ed06318</title>
<g id="a_node2"><a xlink:href="dir_6de83056eb2701410aa102170ed06318.html" target="_top" xlink:title="include">
<polygon fill="white" stroke="red" points="113,-108 59,-108 59,-72 113,-72 113,-108"/>
<text text-anchor="middle" x="86" y="-87.5" font-family="Helvetica,sans-Serif" font-size="10.00">include</text>
</a>
</g>
</g>
<!-- dir_922c588100a187620fdc1533bc178f73 -->
<g id="node4" class="node">
<title>dir_922c588100a187620fdc1533bc178f73</title>
<g id="a_node4"><a xlink:href="dir_922c588100a187620fdc1533bc178f73.html" target="_top" xlink:title="Client">
<polygon fill="none" stroke="red" points="228,-108 174,-108 174,-72 228,-72 228,-108"/>
<text text-anchor="middle" x="201" y="-87.5" font-family="Helvetica,sans-Serif" font-size="10.00">Client</text>
</a>
</g>
</g>
<!-- dir_6de83056eb2701410aa102170ed06318&#45;&gt;dir_922c588100a187620fdc1533bc178f73 -->
<g id="edge1" class="edge">
<title>dir_6de83056eb2701410aa102170ed06318&#45;&gt;dir_922c588100a187620fdc1533bc178f73</title>
<path fill="none" stroke="black" d="M113.4,-90C130.12,-90 146.84,-90 163.56,-90"/>
<polygon fill="black" stroke="black" points="163.97,-93.5 173.97,-90 163.97,-86.5 163.97,-93.5"/>
<g id="a_edge1&#45;headlabel"><a xlink:href="dir_000004_000000.html" target="_top" xlink:title="1">
<text text-anchor="middle" x="160.37" y="-93.84" font-family="Helvetica,sans-Serif" font-size="10.00">1</text>
</a>
</g>
</g>
<!-- dir_ef0f2e3b87356e268bdb013e374d2a6d -->
<g id="node3" class="node">
<title>dir_ef0f2e3b87356e268bdb013e374d2a6d</title>
<g id="a_node3"><a xlink:href="dir_ef0f2e3b87356e268bdb013e374d2a6d.html" target="_top" xlink:title="src">
<polygon fill="white" stroke="red" points="70,-180 16,-180 16,-144 70,-144 70,-180"/>
<text text-anchor="middle" x="43" y="-159.5" font-family="Helvetica,sans-Serif" font-size="10.00">src</text>
</a>
</g>
</g>
<!-- dir_ef0f2e3b87356e268bdb013e374d2a6d&#45;&gt;dir_6de83056eb2701410aa102170ed06318 -->
<g id="edge4" class="edge">
<title>dir_ef0f2e3b87356e268bdb013e374d2a6d&#45;&gt;dir_6de83056eb2701410aa102170ed06318</title>
<path fill="none" stroke="black" d="M53.63,-143.7C58.63,-135.56 64.69,-125.69 70.21,-116.7"/>
<polygon fill="black" stroke="black" points="73.24,-118.46 75.49,-108.1 67.28,-114.79 73.24,-118.46"/>
<g id="a_edge4&#45;headlabel"><a xlink:href="dir_000016_000004.html" target="_top" xlink:title="54">
<text text-anchor="middle" x="73.78" y="-120.51" font-family="Helvetica,sans-Serif" font-size="10.00">54</text>
</a>
</g>
</g>
<!-- dir_ef0f2e3b87356e268bdb013e374d2a6d&#45;&gt;dir_922c588100a187620fdc1533bc178f73 -->
<g id="edge5" class="edge">
<title>dir_ef0f2e3b87356e268bdb013e374d2a6d&#45;&gt;dir_922c588100a187620fdc1533bc178f73</title>
<path fill="none" stroke="black" d="M70.04,-148C73.05,-146.62 76.08,-145.26 79,-144 115.95,-127.99 128.74,-126.62 164.61,-110.41"/>
<polygon fill="black" stroke="black" points="166.1,-113.58 173.71,-106.21 163.16,-107.22 166.1,-113.58"/>
<g id="a_edge5&#45;headlabel"><a xlink:href="dir_000016_000000.html" target="_top" xlink:title="1">
<text text-anchor="middle" x="164.03" y="-115.16" font-family="Helvetica,sans-Serif" font-size="10.00">1</text>
</a>
</g>
</g>
<!-- dir_84725c51eb25f564b97d62ce281a5e70 -->
<g id="node5" class="node">
<title>dir_84725c51eb25f564b97d62ce281a5e70</title>
<g id="a_node5"><a xlink:href="dir_84725c51eb25f564b97d62ce281a5e70.html" target="_top" xlink:title="NyaLog">
<polygon fill="none" stroke="red" points="255,-36 201,-36 201,0 255,0 255,-36"/>
<text text-anchor="middle" x="228" y="-15.5" font-family="Helvetica,sans-Serif" font-size="10.00">NyaLog</text>
</a>
</g>
</g>
<!-- dir_ef0f2e3b87356e268bdb013e374d2a6d&#45;&gt;dir_84725c51eb25f564b97d62ce281a5e70 -->
<g id="edge6" class="edge">
<title>dir_ef0f2e3b87356e268bdb013e374d2a6d&#45;&gt;dir_84725c51eb25f564b97d62ce281a5e70</title>
<path fill="none" stroke="black" d="M70.26,-147.38C73.18,-146.15 76.13,-144.99 79,-144 147.07,-120.48 192.08,-164.3 237,-108 250.86,-90.63 246.41,-64.88 239.8,-45.54"/>
<polygon fill="black" stroke="black" points="243.04,-44.21 236.23,-36.09 236.49,-46.68 243.04,-44.21"/>
<g id="a_edge6&#45;headlabel"><a xlink:href="dir_000016_000023.html" target="_top" xlink:title="1">
<text text-anchor="middle" x="246.96" y="-44.06" font-family="Helvetica,sans-Serif" font-size="10.00">1</text>
</a>
</g>
</g>
<!-- dir_922c588100a187620fdc1533bc178f73&#45;&gt;dir_6de83056eb2701410aa102170ed06318 -->
<g id="edge2" class="edge">
<title>dir_922c588100a187620fdc1533bc178f73&#45;&gt;dir_6de83056eb2701410aa102170ed06318</title>
<path fill="none" stroke="black" d="M173.97,-90C157.25,-90 140.53,-90 123.81,-90"/>
<polygon fill="black" stroke="black" points="123.4,-86.5 113.4,-90 123.4,-93.5 123.4,-86.5"/>
<g id="a_edge2&#45;headlabel"><a xlink:href="dir_000000_000004.html" target="_top" xlink:title="11">
<text text-anchor="middle" x="127" y="-81.16" font-family="Helvetica,sans-Serif" font-size="10.00">11</text>
</a>
</g>
</g>
<!-- dir_922c588100a187620fdc1533bc178f73&#45;&gt;dir_84725c51eb25f564b97d62ce281a5e70 -->
<g id="edge3" class="edge">
<title>dir_922c588100a187620fdc1533bc178f73&#45;&gt;dir_84725c51eb25f564b97d62ce281a5e70</title>
<path fill="none" stroke="black" d="M207.67,-71.7C210.71,-63.81 214.38,-54.3 217.76,-45.55"/>
<polygon fill="black" stroke="black" points="221.07,-46.69 221.4,-36.1 214.54,-44.17 221.07,-46.69"/>
<g id="a_edge3&#45;headlabel"><a xlink:href="dir_000000_000023.html" target="_top" xlink:title="1">
<text text-anchor="middle" x="222.42" y="-48.57" font-family="Helvetica,sans-Serif" font-size="10.00">1</text>
</a>
</g>
</g>
</g>
</svg>
