<?xml version="1.0" encoding="UTF-8" standalone="no"?>
<!DOCTYPE svg PUBLIC "-//W3C//DTD SVG 1.1//EN"
 "http://www.w3.org/Graphics/SVG/1.1/DTD/svg11.dtd">
<!-- Generated by graphviz version 2.49.3 (20211027.1501)
 -->
<!-- Title: NekoEngine/src/Graphics Pages: 1 -->
<svg width="107pt" height="223pt"
 viewBox="0.00 0.00 107.00 223.00" xmlns="http://www.w3.org/2000/svg" xmlns:xlink="http://www.w3.org/1999/xlink">
<g id="graph0" class="graph" transform="scale(1 1) rotate(0) translate(4 219)">
<title>NekoEngine/src/Graphics</title>
<g id="clust1" class="cluster">
<title>clusterdir_ef0f2e3b87356e268bdb013e374d2a6d</title>
<g id="a_clust1"><a xlink:href="dir_ef0f2e3b87356e268bdb013e374d2a6d.html" target="_top" xlink:title="src">
<polygon fill="#ddddee" stroke="black" points="19,-136 19,-207 91,-207 91,-136 19,-136"/>
<text text-anchor="middle" x="55" y="-195" font-family="Helvetica,sans-Serif" font-size="10.00">src</text>
</a>
</g>
</g>
<!-- dir_bf5391bd2df7cf040f3cf57c191b2351 -->
<g id="node1" class="node">
<title>dir_bf5391bd2df7cf040f3cf57c191b2351</title>
<g id="a_node1"><a xlink:href="dir_bf5391bd2df7cf040f3cf57c191b2351.html" target="_top" xlink:title="Graphics">
<polygon fill="#eeeeff" stroke="black" points="83,-180 27,-180 27,-144 83,-144 83,-180"/>
<text text-anchor="middle" x="55" y="-159.5" font-family="Helvetica,sans-Serif" font-size="10.00">Graphics</text>
</a>
</g>
</g>
<!-- dir_6de83056eb2701410aa102170ed06318 -->
<g id="node2" class="node">
<title>dir_6de83056eb2701410aa102170ed06318</title>
<g id="a_node2"><a xlink:href="dir_6de83056eb2701410aa102170ed06318.html" target="_top" xlink:title="include">
<polygon fill="none" stroke="red" points="54,-108 0,-108 0,-72 54,-72 54,-108"/>
<text text-anchor="middle" x="27" y="-87.5" font-family="Helvetica,sans-Serif" font-size="10.00">include</text>
</a>
</g>
</g>
<!-- dir_bf5391bd2df7cf040f3cf57c191b2351&#45;&gt;dir_6de83056eb2701410aa102170ed06318 -->
<g id="edge3" class="edge">
<title>dir_bf5391bd2df7cf040f3cf57c191b2351&#45;&gt;dir_6de83056eb2701410aa102170ed06318</title>
<path fill="none" stroke="black" d="M48.08,-143.7C44.93,-135.81 41.12,-126.3 37.62,-117.55"/>
<polygon fill="black" stroke="black" points="40.81,-116.09 33.84,-108.1 34.31,-118.69 40.81,-116.09"/>
<g id="a_edge3&#45;headlabel"><a xlink:href="dir_000020_000004.html" target="_top" xlink:title="2">
<text text-anchor="middle" x="44.78" y="-115.87" font-family="Helvetica,sans-Serif" font-size="10.00">2</text>
</a>
</g>
</g>
<!-- dir_922c588100a187620fdc1533bc178f73 -->
<g id="node3" class="node">
<title>dir_922c588100a187620fdc1533bc178f73</title>
<g id="a_node3"><a xlink:href="dir_922c588100a187620fdc1533bc178f73.html" target="_top" xlink:title="Client">
<polygon fill="none" stroke="red" points="54,-36 0,-36 0,0 54,0 54,-36"/>
<text text-anchor="middle" x="27" y="-15.5" font-family="Helvetica,sans-Serif" font-size="10.00">Client</text>
</a>
</g>
</g>
<!-- dir_bf5391bd2df7cf040f3cf57c191b2351&#45;&gt;dir_922c588100a187620fdc1533bc178f73 -->
<g id="edge4" class="edge">
<title>dir_bf5391bd2df7cf040f3cf57c191b2351&#45;&gt;dir_922c588100a187620fdc1533bc178f73</title>
<path fill="none" stroke="black" d="M60.34,-143.87C65.16,-125.64 70.43,-96.17 63,-72 59.99,-62.22 54.49,-52.62 48.68,-44.33"/>
<polygon fill="black" stroke="black" points="51.41,-42.13 42.61,-36.23 45.81,-46.33 51.41,-42.13"/>
<g id="a_edge4&#45;headlabel"><a xlink:href="dir_000020_000000.html" target="_top" xlink:title="1">
<text text-anchor="middle" x="55.83" y="-40.8" font-family="Helvetica,sans-Serif" font-size="10.00">1</text>
</a>
</g>
</g>
<!-- dir_6de83056eb2701410aa102170ed06318&#45;&gt;dir_922c588100a187620fdc1533bc178f73 -->
<g id="edge1" class="edge">
<title>dir_6de83056eb2701410aa102170ed06318&#45;&gt;dir_922c588100a187620fdc1533bc178f73</title>
<path fill="none" stroke="black" d="M21.08,-71.7C20.29,-63.98 20.06,-54.71 20.4,-46.11"/>
<polygon fill="black" stroke="black" points="23.9,-46.32 21.1,-36.1 16.92,-45.84 23.9,-46.32"/>
<g id="a_edge1&#45;headlabel"><a xlink:href="dir_000004_000000.html" target="_top" xlink:title="1">
<text text-anchor="middle" x="26.48" y="-47.61" font-family="Helvetica,sans-Serif" font-size="10.00">1</text>
</a>
</g>
</g>
<!-- dir_922c588100a187620fdc1533bc178f73&#45;&gt;dir_6de83056eb2701410aa102170ed06318 -->
<g id="edge2" class="edge">
<title>dir_922c588100a187620fdc1533bc178f73&#45;&gt;dir_6de83056eb2701410aa102170ed06318</title>
<path fill="none" stroke="black" d="M32.9,-36.1C33.7,-43.79 33.94,-53.05 33.6,-61.67"/>
<polygon fill="black" stroke="black" points="30.11,-61.48 32.92,-71.7 37.09,-61.96 30.11,-61.48"/>
<g id="a_edge2&#45;headlabel"><a xlink:href="dir_000000_000004.html" target="_top" xlink:title="11">
<text text-anchor="middle" x="27.52" y="-55.2" font-family="Helvetica,sans-Serif" font-size="10.00">11</text>
</a>
</g>
</g>
</g>
</svg>
