<?xml version="1.0" encoding="UTF-8" standalone="no"?>
<!DOCTYPE svg PUBLIC "-//W3C//DTD SVG 1.1//EN"
 "http://www.w3.org/Graphics/SVG/1.1/DTD/svg11.dtd">
<!-- Generated by graphviz version 2.49.3 (20211027.1501)
 -->
<!-- Title: NekoEngine/src/ECS Pages: 1 -->
<svg width="273pt" height="159pt"
 viewBox="0.00 0.00 273.00 159.00" xmlns="http://www.w3.org/2000/svg" xmlns:xlink="http://www.w3.org/1999/xlink">
<g id="graph0" class="graph" transform="scale(1 1) rotate(0) translate(4 155)">
<title>NekoEngine/src/ECS</title>
<g id="clust1" class="cluster">
<title>clusterdir_ef0f2e3b87356e268bdb013e374d2a6d</title>
<g id="a_clust1"><a xlink:href="dir_ef0f2e3b87356e268bdb013e374d2a6d.html" target="_top" xlink:title="src">
<polygon fill="#ddddee" stroke="black" points="8,-56 8,-143 257,-143 257,-56 8,-56"/>
<text text-anchor="middle" x="132.5" y="-131" font-family="Helvetica,sans-Serif" font-size="10.00">src</text>
</a>
</g>
</g>
<g id="clust2" class="cluster">
<title>clusterdir_e5648f8198d1a91d610334e58af1a91e</title>
<g id="a_clust2"><a xlink:href="dir_e5648f8198d1a91d610334e58af1a91e.html" target="_top">
<polygon fill="#eeeeff" stroke="black" points="16,-64 16,-116 249,-116 249,-64 16,-64"/>
</a>
</g>
</g>
<!-- dir_e5648f8198d1a91d610334e58af1a91e -->
<g id="node1" class="node">
<title>dir_e5648f8198d1a91d610334e58af1a91e</title>
<text text-anchor="middle" x="214" y="-87.5" font-family="Helvetica,sans-Serif" font-size="10.00">ECS</text>
</g>
<!-- dir_6f028617e4e69a28990e6b6c442d2705 -->
<g id="node2" class="node">
<title>dir_6f028617e4e69a28990e6b6c442d2705</title>
<g id="a_node2"><a xlink:href="dir_6f028617e4e69a28990e6b6c442d2705.html" target="_top" xlink:title="Components">
<polygon fill="white" stroke="black" points="95.5,-108 24.5,-108 24.5,-72 95.5,-72 95.5,-108"/>
<text text-anchor="middle" x="60" y="-87.5" font-family="Helvetica,sans-Serif" font-size="10.00">Components</text>
</a>
</g>
</g>
<!-- dir_6de83056eb2701410aa102170ed06318 -->
<g id="node4" class="node">
<title>dir_6de83056eb2701410aa102170ed06318</title>
<g id="a_node4"><a xlink:href="dir_6de83056eb2701410aa102170ed06318.html" target="_top" xlink:title="include">
<polygon fill="none" stroke="red" points="92,-36 38,-36 38,0 92,0 92,-36"/>
<text text-anchor="middle" x="65" y="-15.5" font-family="Helvetica,sans-Serif" font-size="10.00">include</text>
</a>
</g>
</g>
<!-- dir_6f028617e4e69a28990e6b6c442d2705&#45;&gt;dir_6de83056eb2701410aa102170ed06318 -->
<g id="edge3" class="edge">
<title>dir_6f028617e4e69a28990e6b6c442d2705&#45;&gt;dir_6de83056eb2701410aa102170ed06318</title>
<path fill="none" stroke="black" d="M61.24,-71.7C61.79,-63.98 62.45,-54.71 63.06,-46.11"/>
<polygon fill="black" stroke="black" points="66.56,-46.33 63.78,-36.1 59.57,-45.83 66.56,-46.33"/>
<g id="a_edge3&#45;headlabel"><a xlink:href="dir_000018_000004.html" target="_top" xlink:title="7">
<text text-anchor="middle" x="69.13" y="-47.62" font-family="Helvetica,sans-Serif" font-size="10.00">7</text>
</a>
</g>
</g>
<!-- dir_64561c2141839e0eb71faf3d2f34ea35 -->
<g id="node3" class="node">
<title>dir_64561c2141839e0eb71faf3d2f34ea35</title>
<g id="a_node3"><a xlink:href="dir_64561c2141839e0eb71faf3d2f34ea35.html" target="_top" xlink:title="Systems">
<polygon fill="white" stroke="black" points="168.5,-108 113.5,-108 113.5,-72 168.5,-72 168.5,-108"/>
<text text-anchor="middle" x="141" y="-87.5" font-family="Helvetica,sans-Serif" font-size="10.00">Systems</text>
</a>
</g>
</g>
<!-- dir_64561c2141839e0eb71faf3d2f34ea35&#45;&gt;dir_6de83056eb2701410aa102170ed06318 -->
<g id="edge1" class="edge">
<title>dir_64561c2141839e0eb71faf3d2f34ea35&#45;&gt;dir_6de83056eb2701410aa102170ed06318</title>
<path fill="none" stroke="black" d="M122.21,-71.7C112.83,-63.05 101.32,-52.45 91.09,-43.03"/>
<polygon fill="black" stroke="black" points="93.3,-40.3 83.57,-36.1 88.55,-45.45 93.3,-40.3"/>
<g id="a_edge1&#45;headlabel"><a xlink:href="dir_000019_000004.html" target="_top" xlink:title="40">
<text text-anchor="middle" x="97.86" y="-38.15" font-family="Helvetica,sans-Serif" font-size="10.00">40</text>
</a>
</g>
</g>
<!-- dir_84725c51eb25f564b97d62ce281a5e70 -->
<g id="node5" class="node">
<title>dir_84725c51eb25f564b97d62ce281a5e70</title>
<g id="a_node5"><a xlink:href="dir_84725c51eb25f564b97d62ce281a5e70.html" target="_top" xlink:title="NyaLog">
<polygon fill="none" stroke="red" points="168,-36 114,-36 114,0 168,0 168,-36"/>
<text text-anchor="middle" x="141" y="-15.5" font-family="Helvetica,sans-Serif" font-size="10.00">NyaLog</text>
</a>
</g>
</g>
<!-- dir_64561c2141839e0eb71faf3d2f34ea35&#45;&gt;dir_84725c51eb25f564b97d62ce281a5e70 -->
<g id="edge2" class="edge">
<title>dir_64561c2141839e0eb71faf3d2f34ea35&#45;&gt;dir_84725c51eb25f564b97d62ce281a5e70</title>
<path fill="none" stroke="black" d="M141,-71.7C141,-63.98 141,-54.71 141,-46.11"/>
<polygon fill="black" stroke="black" points="144.5,-46.1 141,-36.1 137.5,-46.1 144.5,-46.1"/>
<g id="a_edge2&#45;headlabel"><a xlink:href="dir_000019_000023.html" target="_top" xlink:title="1">
<text text-anchor="middle" x="147.34" y="-47.2" font-family="Helvetica,sans-Serif" font-size="10.00">1</text>
</a>
</g>
</g>
</g>
</svg>
