<?xml version="1.0" encoding="UTF-8" standalone="no"?>
<!DOCTYPE svg PUBLIC "-//W3C//DTD SVG 1.1//EN"
 "http://www.w3.org/Graphics/SVG/1.1/DTD/svg11.dtd">
<!-- Generated by graphviz version 2.49.3 (20211027.1501)
 -->
<!-- Title: NekoEngine/src Pages: 1 -->
<svg width="482pt" height="231pt"
 viewBox="0.00 0.00 482.00 231.00" xmlns="http://www.w3.org/2000/svg" xmlns:xlink="http://www.w3.org/1999/xlink">
<g id="graph0" class="graph" transform="scale(1 1) rotate(0) translate(4 227)">
<title>NekoEngine/src</title>
<g id="clust1" class="cluster">
<title>clusterdir_d6c0e01f5ea3064eef93a8fd7020a28e</title>
<g id="a_clust1"><a xlink:href="dir_d6c0e01f5ea3064eef93a8fd7020a28e.html" target="_top" xlink:title="NekoEngine">
<polygon fill="#ddddee" stroke="black" points="8,-64 8,-215 412,-215 412,-64 8,-64"/>
<text text-anchor="middle" x="210" y="-203" font-family="Helvetica,sans-Serif" font-size="10.00">NekoEngine</text>
</a>
</g>
</g>
<g id="clust2" class="cluster">
<title>clusterdir_ef0f2e3b87356e268bdb013e374d2a6d</title>
<g id="a_clust2"><a xlink:href="dir_ef0f2e3b87356e268bdb013e374d2a6d.html" target="_top">
<polygon fill="#eeeeff" stroke="black" points="16,-136 16,-188 404,-188 404,-136 16,-136"/>
</a>
</g>
</g>
<!-- dir_6de83056eb2701410aa102170ed06318 -->
<g id="node1" class="node">
<title>dir_6de83056eb2701410aa102170ed06318</title>
<g id="a_node1"><a xlink:href="dir_6de83056eb2701410aa102170ed06318.html" target="_top" xlink:title="include">
<polygon fill="none" stroke="red" points="250,-108 196,-108 196,-72 250,-72 250,-108"/>
<text text-anchor="middle" x="223" y="-87.5" font-family="Helvetica,sans-Serif" font-size="10.00">include</text>
</a>
</g>
</g>
<!-- dir_922c588100a187620fdc1533bc178f73 -->
<g id="node7" class="node">
<title>dir_922c588100a187620fdc1533bc178f73</title>
<g id="a_node7"><a xlink:href="dir_922c588100a187620fdc1533bc178f73.html" target="_top" xlink:title="Client">
<polygon fill="none" stroke="red" points="474,-108 420,-108 420,-72 474,-72 474,-108"/>
<text text-anchor="middle" x="447" y="-87.5" font-family="Helvetica,sans-Serif" font-size="10.00">Client</text>
</a>
</g>
</g>
<!-- dir_6de83056eb2701410aa102170ed06318&#45;&gt;dir_922c588100a187620fdc1533bc178f73 -->
<g id="edge2" class="edge">
<title>dir_6de83056eb2701410aa102170ed06318&#45;&gt;dir_922c588100a187620fdc1533bc178f73</title>
<path fill="none" stroke="black" d="M250.12,-90C303.23,-90 356.33,-90 409.43,-90"/>
<polygon fill="black" stroke="black" points="409.7,-93.5 419.7,-90 409.7,-86.5 409.7,-93.5"/>
<g id="a_edge2&#45;headlabel"><a xlink:href="dir_000004_000000.html" target="_top" xlink:title="1">
<text text-anchor="middle" x="406.1" y="-93.84" font-family="Helvetica,sans-Serif" font-size="10.00">1</text>
</a>
</g>
</g>
<!-- dir_ef0f2e3b87356e268bdb013e374d2a6d -->
<g id="node2" class="node">
<title>dir_ef0f2e3b87356e268bdb013e374d2a6d</title>
<text text-anchor="middle" x="369" y="-159.5" font-family="Helvetica,sans-Serif" font-size="10.00">src</text>
</g>
<!-- dir_e5648f8198d1a91d610334e58af1a91e -->
<g id="node3" class="node">
<title>dir_e5648f8198d1a91d610334e58af1a91e</title>
<g id="a_node3"><a xlink:href="dir_e5648f8198d1a91d610334e58af1a91e.html" target="_top" xlink:title="ECS">
<polygon fill="white" stroke="red" points="250,-180 196,-180 196,-144 250,-144 250,-180"/>
<text text-anchor="middle" x="223" y="-159.5" font-family="Helvetica,sans-Serif" font-size="10.00">ECS</text>
</a>
</g>
</g>
<!-- dir_e5648f8198d1a91d610334e58af1a91e&#45;&gt;dir_6de83056eb2701410aa102170ed06318 -->
<g id="edge7" class="edge">
<title>dir_e5648f8198d1a91d610334e58af1a91e&#45;&gt;dir_6de83056eb2701410aa102170ed06318</title>
<path fill="none" stroke="black" d="M223,-143.7C223,-135.98 223,-126.71 223,-118.11"/>
<polygon fill="black" stroke="black" points="226.5,-118.1 223,-108.1 219.5,-118.1 226.5,-118.1"/>
<g id="a_edge7&#45;headlabel"><a xlink:href="dir_000017_000004.html" target="_top" xlink:title="49">
<text text-anchor="middle" x="229.34" y="-119.2" font-family="Helvetica,sans-Serif" font-size="10.00">49</text>
</a>
</g>
</g>
<!-- dir_84725c51eb25f564b97d62ce281a5e70 -->
<g id="node8" class="node">
<title>dir_84725c51eb25f564b97d62ce281a5e70</title>
<g id="a_node8"><a xlink:href="dir_84725c51eb25f564b97d62ce281a5e70.html" target="_top" xlink:title="NyaLog">
<polygon fill="none" stroke="red" points="418,-36 364,-36 364,0 418,0 418,-36"/>
<text text-anchor="middle" x="391" y="-15.5" font-family="Helvetica,sans-Serif" font-size="10.00">NyaLog</text>
</a>
</g>
</g>
<!-- dir_e5648f8198d1a91d610334e58af1a91e&#45;&gt;dir_84725c51eb25f564b97d62ce281a5e70 -->
<g id="edge8" class="edge">
<title>dir_e5648f8198d1a91d610334e58af1a91e&#45;&gt;dir_84725c51eb25f564b97d62ce281a5e70</title>
<path fill="none" stroke="black" d="M246.23,-143.96C250.39,-141.16 254.76,-138.4 259,-136 285.3,-121.09 297.19,-126.64 321,-108 343.45,-90.42 362.93,-64.2 375.6,-44.76"/>
<polygon fill="black" stroke="black" points="378.69,-46.42 381.09,-36.1 372.78,-42.67 378.69,-46.42"/>
<g id="a_edge8&#45;headlabel"><a xlink:href="dir_000017_000023.html" target="_top" xlink:title="1">
<text text-anchor="middle" x="379.16" y="-48.48" font-family="Helvetica,sans-Serif" font-size="10.00">1</text>
</a>
</g>
</g>
<!-- dir_bf5391bd2df7cf040f3cf57c191b2351 -->
<g id="node4" class="node">
<title>dir_bf5391bd2df7cf040f3cf57c191b2351</title>
<g id="a_node4"><a xlink:href="dir_bf5391bd2df7cf040f3cf57c191b2351.html" target="_top" xlink:title="Graphics">
<polygon fill="white" stroke="black" points="324,-180 268,-180 268,-144 324,-144 324,-180"/>
<text text-anchor="middle" x="296" y="-159.5" font-family="Helvetica,sans-Serif" font-size="10.00">Graphics</text>
</a>
</g>
</g>
<!-- dir_bf5391bd2df7cf040f3cf57c191b2351&#45;&gt;dir_6de83056eb2701410aa102170ed06318 -->
<g id="edge5" class="edge">
<title>dir_bf5391bd2df7cf040f3cf57c191b2351&#45;&gt;dir_6de83056eb2701410aa102170ed06318</title>
<path fill="none" stroke="black" d="M277.96,-143.7C268.94,-135.05 257.88,-124.45 248.06,-115.03"/>
<polygon fill="black" stroke="black" points="250.48,-112.5 240.84,-108.1 245.63,-117.55 250.48,-112.5"/>
<g id="a_edge5&#45;headlabel"><a xlink:href="dir_000020_000004.html" target="_top" xlink:title="2">
<text text-anchor="middle" x="255.04" y="-110.44" font-family="Helvetica,sans-Serif" font-size="10.00">2</text>
</a>
</g>
</g>
<!-- dir_bf5391bd2df7cf040f3cf57c191b2351&#45;&gt;dir_922c588100a187620fdc1533bc178f73 -->
<g id="edge6" class="edge">
<title>dir_bf5391bd2df7cf040f3cf57c191b2351&#45;&gt;dir_922c588100a187620fdc1533bc178f73</title>
<path fill="none" stroke="black" d="M319.81,-143.81C324.1,-141.03 328.61,-138.31 333,-136 357.76,-122.95 387.17,-111.43 409.92,-103.31"/>
<polygon fill="black" stroke="black" points="411.26,-106.55 419.54,-99.94 408.95,-99.95 411.26,-106.55"/>
<g id="a_edge6&#45;headlabel"><a xlink:href="dir_000020_000000.html" target="_top" xlink:title="1">
<text text-anchor="middle" x="408.81" y="-107.92" font-family="Helvetica,sans-Serif" font-size="10.00">1</text>
</a>
</g>
</g>
<!-- dir_e57d4003d533d4c492704f3598694c6a -->
<g id="node5" class="node">
<title>dir_e57d4003d533d4c492704f3598694c6a</title>
<g id="a_node5"><a xlink:href="dir_e57d4003d533d4c492704f3598694c6a.html" target="_top" xlink:title="NekoException">
<polygon fill="white" stroke="black" points="106,-180 24,-180 24,-144 106,-144 106,-180"/>
<text text-anchor="middle" x="65" y="-159.5" font-family="Helvetica,sans-Serif" font-size="10.00">NekoException</text>
</a>
</g>
</g>
<!-- dir_e57d4003d533d4c492704f3598694c6a&#45;&gt;dir_6de83056eb2701410aa102170ed06318 -->
<g id="edge9" class="edge">
<title>dir_e57d4003d533d4c492704f3598694c6a&#45;&gt;dir_6de83056eb2701410aa102170ed06318</title>
<path fill="none" stroke="black" d="M98.47,-143.87C103.96,-141.17 109.62,-138.46 115,-136 138.44,-125.27 165.18,-114.12 186.19,-105.61"/>
<polygon fill="black" stroke="black" points="187.74,-108.75 195.7,-101.77 185.12,-102.26 187.74,-108.75"/>
<g id="a_edge9&#45;headlabel"><a xlink:href="dir_000021_000004.html" target="_top" xlink:title="1">
<text text-anchor="middle" x="185.46" y="-110.23" font-family="Helvetica,sans-Serif" font-size="10.00">1</text>
</a>
</g>
</g>
<!-- dir_053a2ab02000ca0bcb12f662e7b9800d -->
<g id="node6" class="node">
<title>dir_053a2ab02000ca0bcb12f662e7b9800d</title>
<g id="a_node6"><a xlink:href="dir_053a2ab02000ca0bcb12f662e7b9800d.html" target="_top" xlink:title="Scenes">
<polygon fill="white" stroke="black" points="178,-180 124,-180 124,-144 178,-144 178,-180"/>
<text text-anchor="middle" x="151" y="-159.5" font-family="Helvetica,sans-Serif" font-size="10.00">Scenes</text>
</a>
</g>
</g>
<!-- dir_053a2ab02000ca0bcb12f662e7b9800d&#45;&gt;dir_6de83056eb2701410aa102170ed06318 -->
<g id="edge1" class="edge">
<title>dir_053a2ab02000ca0bcb12f662e7b9800d&#45;&gt;dir_6de83056eb2701410aa102170ed06318</title>
<path fill="none" stroke="black" d="M168.8,-143.7C177.6,-135.14 188.38,-124.66 198,-115.3"/>
<polygon fill="black" stroke="black" points="200.68,-117.58 205.41,-108.1 195.8,-112.57 200.68,-117.58"/>
<g id="a_edge1&#45;headlabel"><a xlink:href="dir_000022_000004.html" target="_top" xlink:title="2">
<text text-anchor="middle" x="200.08" y="-119.63" font-family="Helvetica,sans-Serif" font-size="10.00">2</text>
</a>
</g>
</g>
<!-- dir_922c588100a187620fdc1533bc178f73&#45;&gt;dir_6de83056eb2701410aa102170ed06318 -->
<g id="edge3" class="edge">
<title>dir_922c588100a187620fdc1533bc178f73&#45;&gt;dir_6de83056eb2701410aa102170ed06318</title>
<path fill="none" stroke="black" d="M419.7,-90C366.6,-90 313.49,-90 260.39,-90"/>
<polygon fill="black" stroke="black" points="260.13,-86.5 250.12,-90 260.12,-93.5 260.13,-86.5"/>
<g id="a_edge3&#45;headlabel"><a xlink:href="dir_000000_000004.html" target="_top" xlink:title="11">
<text text-anchor="middle" x="263.72" y="-81.16" font-family="Helvetica,sans-Serif" font-size="10.00">11</text>
</a>
</g>
</g>
<!-- dir_922c588100a187620fdc1533bc178f73&#45;&gt;dir_84725c51eb25f564b97d62ce281a5e70 -->
<g id="edge4" class="edge">
<title>dir_922c588100a187620fdc1533bc178f73&#45;&gt;dir_84725c51eb25f564b97d62ce281a5e70</title>
<path fill="none" stroke="black" d="M433.16,-71.7C426.51,-63.39 418.42,-53.28 411.11,-44.14"/>
<polygon fill="black" stroke="black" points="413.66,-41.73 404.68,-36.1 408.2,-46.1 413.66,-41.73"/>
<g id="a_edge4&#45;headlabel"><a xlink:href="dir_000000_000023.html" target="_top" xlink:title="1">
<text text-anchor="middle" x="418.13" y="-40.26" font-family="Helvetica,sans-Serif" font-size="10.00">1</text>
</a>
</g>
</g>
</g>
</svg>
