<?xml version="1.0" encoding="UTF-8" standalone="no"?>
<!DOCTYPE svg PUBLIC "-//W3C//DTD SVG 1.1//EN"
 "http://www.w3.org/Graphics/SVG/1.1/DTD/svg11.dtd">
<!-- Generated by graphviz version 2.49.3 (20211027.1501)
 -->
<!-- Title: Graphical Class Hierarchy Pages: 1 -->
<svg width="225pt" height="484pt"
 viewBox="0.00 0.00 225.00 484.00" xmlns="http://www.w3.org/2000/svg" xmlns:xlink="http://www.w3.org/1999/xlink">
<g id="graph0" class="graph" transform="scale(1 1) rotate(0) translate(4 480)">
<title>Graphical Class Hierarchy</title>
<!-- Node17 -->
<g id="node1" class="node">
<title>Node17</title>
<g id="a_node1"><a xlink:title=" ">
<polygon fill="none" stroke="#bfbfbf" points="3,-456.5 3,-475.5 62,-475.5 62,-456.5 3,-456.5"/>
<text text-anchor="middle" x="32.5" y="-463.5" font-family="Helvetica,sans-Serif" font-size="10.00">nn::IClient</text>
</a>
</g>
</g>
<!-- Node0 -->
<g id="node2" class="node">
<title>Node0</title>
<g id="a_node2"><a xlink:href="classrt_1_1_custom_client.html" target="_top" xlink:title=" ">
<polygon fill="none" stroke="black" points="116,-456.5 116,-475.5 202,-475.5 202,-456.5 116,-456.5"/>
<text text-anchor="middle" x="159" y="-463.5" font-family="Helvetica,sans-Serif" font-size="10.00">rt::CustomClient</text>
</a>
</g>
</g>
<!-- Node17&#45;&gt;Node0 -->
<g id="edge1" class="edge">
<title>Node17&#45;&gt;Node0</title>
<path fill="none" stroke="midnightblue" d="M72.24,-466C86.09,-466 101.75,-466 115.87,-466"/>
<polygon fill="midnightblue" stroke="midnightblue" points="72.06,-462.5 62.06,-466 72.06,-469.5 72.06,-462.5"/>
</g>
<!-- Node31 -->
<g id="node3" class="node">
<title>Node31</title>
<g id="a_node3"><a xlink:href="classne_1_1_system.html" target="_top" xlink:title=" ">
<polygon fill="none" stroke="black" points="0,-228.5 0,-247.5 65,-247.5 65,-228.5 0,-228.5"/>
<text text-anchor="middle" x="32.5" y="-235.5" font-family="Helvetica,sans-Serif" font-size="10.00">ne::System</text>
</a>
</g>
</g>
<!-- Node31&#45;&gt;Node0 -->
<g id="edge13" class="edge">
<title>Node31&#45;&gt;Node0</title>
<path fill="none" stroke="midnightblue" d="M34.2,-257.98C36.72,-299.1 48.26,-393.77 101,-447 105.18,-451.22 110.33,-454.51 115.8,-457.06"/>
<polygon fill="midnightblue" stroke="midnightblue" points="37.69,-257.7 33.7,-247.88 30.7,-258.04 37.69,-257.7"/>
</g>
<!-- Node32 -->
<g id="node4" class="node">
<title>Node32</title>
<g id="a_node4"><a xlink:href="classne_1_1_animation_system.html" target="_top" xlink:title=" ">
<polygon fill="none" stroke="black" points="105,-418.5 105,-437.5 213,-437.5 213,-418.5 105,-418.5"/>
<text text-anchor="middle" x="159" y="-425.5" font-family="Helvetica,sans-Serif" font-size="10.00">ne::AnimationSystem</text>
</a>
</g>
</g>
<!-- Node31&#45;&gt;Node32 -->
<g id="edge2" class="edge">
<title>Node31&#45;&gt;Node32</title>
<path fill="none" stroke="midnightblue" d="M35.83,-257.7C41.05,-293 56.88,-367.21 101,-409 105.09,-412.87 109.99,-415.96 115.18,-418.41"/>
<polygon fill="midnightblue" stroke="midnightblue" points="39.29,-257.15 34.49,-247.7 32.35,-258.08 39.29,-257.15"/>
</g>
<!-- Node33 -->
<g id="node5" class="node">
<title>Node33</title>
<g id="a_node5"><a xlink:href="classne_1_1_background_system.html" target="_top" xlink:title=" ">
<polygon fill="none" stroke="black" points="101,-380.5 101,-399.5 217,-399.5 217,-380.5 101,-380.5"/>
<text text-anchor="middle" x="159" y="-387.5" font-family="Helvetica,sans-Serif" font-size="10.00">ne::BackgroundSystem</text>
</a>
</g>
</g>
<!-- Node31&#45;&gt;Node33 -->
<g id="edge3" class="edge">
<title>Node31&#45;&gt;Node33</title>
<path fill="none" stroke="midnightblue" d="M38.24,-257.31C46.29,-286.12 65.35,-340.27 101,-371 105.5,-374.88 110.83,-377.98 116.38,-380.44"/>
<polygon fill="midnightblue" stroke="midnightblue" points="41.62,-256.38 35.68,-247.61 34.85,-258.17 41.62,-256.38"/>
</g>
<!-- Node34 -->
<g id="node6" class="node">
<title>Node34</title>
<g id="a_node6"><a xlink:href="classne_1_1_bonus_system.html" target="_top" xlink:title=" ">
<polygon fill="none" stroke="black" points="113,-342.5 113,-361.5 205,-361.5 205,-342.5 113,-342.5"/>
<text text-anchor="middle" x="159" y="-349.5" font-family="Helvetica,sans-Serif" font-size="10.00">ne::BonusSystem</text>
</a>
</g>
</g>
<!-- Node31&#45;&gt;Node34 -->
<g id="edge4" class="edge">
<title>Node31&#45;&gt;Node34</title>
<path fill="none" stroke="midnightblue" d="M42.2,-256.66C53.07,-278.04 73.63,-312.73 101,-333 106.2,-336.85 112.22,-339.95 118.36,-342.43"/>
<polygon fill="midnightblue" stroke="midnightblue" points="45.31,-255.06 37.77,-247.61 39.02,-258.13 45.31,-255.06"/>
</g>
<!-- Node35 -->
<g id="node7" class="node">
<title>Node35</title>
<g id="a_node7"><a xlink:href="classne_1_1_client_collision.html" target="_top" xlink:title=" ">
<polygon fill="none" stroke="black" points="112.5,-304.5 112.5,-323.5 205.5,-323.5 205.5,-304.5 112.5,-304.5"/>
<text text-anchor="middle" x="159" y="-311.5" font-family="Helvetica,sans-Serif" font-size="10.00">ne::ClientCollision</text>
</a>
</g>
</g>
<!-- Node31&#45;&gt;Node35 -->
<g id="edge5" class="edge">
<title>Node31&#45;&gt;Node35</title>
<path fill="none" stroke="midnightblue" d="M49.87,-254.95C62.77,-267.48 81.73,-284.18 101,-295 107.64,-298.73 115.13,-301.87 122.44,-304.47"/>
<polygon fill="midnightblue" stroke="midnightblue" points="52.23,-252.36 42.68,-247.78 47.29,-257.32 52.23,-252.36"/>
</g>
<!-- Node36 -->
<g id="node8" class="node">
<title>Node36</title>
<g id="a_node8"><a xlink:href="classne_1_1_collision.html" target="_top" xlink:title=" ">
<polygon fill="none" stroke="black" points="125,-266.5 125,-285.5 193,-285.5 193,-266.5 125,-266.5"/>
<text text-anchor="middle" x="159" y="-273.5" font-family="Helvetica,sans-Serif" font-size="10.00">ne::Collision</text>
</a>
</g>
</g>
<!-- Node31&#45;&gt;Node36 -->
<g id="edge6" class="edge">
<title>Node31&#45;&gt;Node36</title>
<path fill="none" stroke="midnightblue" d="M74.57,-250.54C91.51,-255.7 110.82,-261.6 126.59,-266.41"/>
<polygon fill="midnightblue" stroke="midnightblue" points="75.5,-247.16 64.92,-247.59 73.46,-253.86 75.5,-247.16"/>
</g>
<!-- Node37 -->
<g id="node9" class="node">
<title>Node37</title>
<g id="a_node9"><a xlink:href="classne_1_1_mouse_system.html" target="_top" xlink:title=" ">
<polygon fill="none" stroke="black" points="112,-228.5 112,-247.5 206,-247.5 206,-228.5 112,-228.5"/>
<text text-anchor="middle" x="159" y="-235.5" font-family="Helvetica,sans-Serif" font-size="10.00">ne::MouseSystem</text>
</a>
</g>
</g>
<!-- Node31&#45;&gt;Node37 -->
<g id="edge7" class="edge">
<title>Node31&#45;&gt;Node37</title>
<path fill="none" stroke="midnightblue" d="M75.57,-238C87.2,-238 99.89,-238 111.75,-238"/>
<polygon fill="midnightblue" stroke="midnightblue" points="75.24,-234.5 65.24,-238 75.24,-241.5 75.24,-234.5"/>
</g>
<!-- Node38 -->
<g id="node10" class="node">
<title>Node38</title>
<g id="a_node10"><a xlink:href="classne_1_1_parallax_system.html" target="_top" xlink:title=" ">
<polygon fill="none" stroke="black" points="109.5,-190.5 109.5,-209.5 208.5,-209.5 208.5,-190.5 109.5,-190.5"/>
<text text-anchor="middle" x="159" y="-197.5" font-family="Helvetica,sans-Serif" font-size="10.00">ne::ParallaxSystem</text>
</a>
</g>
</g>
<!-- Node31&#45;&gt;Node38 -->
<g id="edge8" class="edge">
<title>Node31&#45;&gt;Node38</title>
<path fill="none" stroke="midnightblue" d="M74.57,-225.46C91.51,-220.3 110.82,-214.4 126.59,-209.59"/>
<polygon fill="midnightblue" stroke="midnightblue" points="73.46,-222.14 64.92,-228.41 75.5,-228.84 73.46,-222.14"/>
</g>
<!-- Node39 -->
<g id="node11" class="node">
<title>Node39</title>
<g id="a_node11"><a xlink:href="classne_1_1_pattern_system.html" target="_top" xlink:title=" ">
<polygon fill="none" stroke="black" points="111,-152.5 111,-171.5 207,-171.5 207,-152.5 111,-152.5"/>
<text text-anchor="middle" x="159" y="-159.5" font-family="Helvetica,sans-Serif" font-size="10.00">ne::PatternSystem</text>
</a>
</g>
</g>
<!-- Node31&#45;&gt;Node39 -->
<g id="edge9" class="edge">
<title>Node31&#45;&gt;Node39</title>
<path fill="none" stroke="midnightblue" d="M49.87,-221.05C62.77,-208.52 81.73,-191.82 101,-181 107.64,-177.27 115.13,-174.13 122.44,-171.53"/>
<polygon fill="midnightblue" stroke="midnightblue" points="47.29,-218.68 42.68,-228.22 52.23,-223.64 47.29,-218.68"/>
</g>
<!-- Node40 -->
<g id="node12" class="node">
<title>Node40</title>
<g id="a_node12"><a xlink:href="classne_1_1_render_system.html" target="_top" xlink:title=" ">
<polygon fill="none" stroke="black" points="111.5,-114.5 111.5,-133.5 206.5,-133.5 206.5,-114.5 111.5,-114.5"/>
<text text-anchor="middle" x="159" y="-121.5" font-family="Helvetica,sans-Serif" font-size="10.00">ne::RenderSystem</text>
</a>
</g>
</g>
<!-- Node31&#45;&gt;Node40 -->
<g id="edge10" class="edge">
<title>Node31&#45;&gt;Node40</title>
<path fill="none" stroke="midnightblue" d="M42.2,-219.34C53.07,-197.96 73.63,-163.27 101,-143 106.2,-139.15 112.22,-136.05 118.36,-133.57"/>
<polygon fill="midnightblue" stroke="midnightblue" points="39.02,-217.87 37.77,-228.39 45.31,-220.94 39.02,-217.87"/>
</g>
<!-- Node41 -->
<g id="node13" class="node">
<title>Node41</title>
<g id="a_node13"><a xlink:href="classne_1_1_text_system.html" target="_top" xlink:title=" ">
<polygon fill="none" stroke="black" points="117.5,-76.5 117.5,-95.5 200.5,-95.5 200.5,-76.5 117.5,-76.5"/>
<text text-anchor="middle" x="159" y="-83.5" font-family="Helvetica,sans-Serif" font-size="10.00">ne::TextSystem</text>
</a>
</g>
</g>
<!-- Node31&#45;&gt;Node41 -->
<g id="edge11" class="edge">
<title>Node31&#45;&gt;Node41</title>
<path fill="none" stroke="midnightblue" d="M38.24,-218.69C46.29,-189.88 65.35,-135.73 101,-105 105.74,-100.91 111.39,-97.7 117.26,-95.17"/>
<polygon fill="midnightblue" stroke="midnightblue" points="34.85,-217.83 35.68,-228.39 41.62,-219.62 34.85,-217.83"/>
</g>
<!-- Node42 -->
<g id="node14" class="node">
<title>Node42</title>
<g id="a_node14"><a xlink:href="classne_1_1_timer_system.html" target="_top" xlink:title=" ">
<polygon fill="none" stroke="black" points="114.5,-38.5 114.5,-57.5 203.5,-57.5 203.5,-38.5 114.5,-38.5"/>
<text text-anchor="middle" x="159" y="-45.5" font-family="Helvetica,sans-Serif" font-size="10.00">ne::TimerSystem</text>
</a>
</g>
</g>
<!-- Node31&#45;&gt;Node42 -->
<g id="edge12" class="edge">
<title>Node31&#45;&gt;Node42</title>
<path fill="none" stroke="midnightblue" d="M35.83,-218.3C41.05,-183 56.88,-108.79 101,-67 105.09,-63.13 109.99,-60.04 115.18,-57.59"/>
<polygon fill="midnightblue" stroke="midnightblue" points="32.35,-217.92 34.49,-228.3 39.29,-218.85 32.35,-217.92"/>
</g>
<!-- Node43 -->
<g id="node15" class="node">
<title>Node43</title>
<g id="a_node15"><a xlink:href="classrt_1_1_player_system.html" target="_top" xlink:title=" ">
<polygon fill="none" stroke="black" points="115.5,-0.5 115.5,-19.5 202.5,-19.5 202.5,-0.5 115.5,-0.5"/>
<text text-anchor="middle" x="159" y="-7.5" font-family="Helvetica,sans-Serif" font-size="10.00">rt::PlayerSystem</text>
</a>
</g>
</g>
<!-- Node31&#45;&gt;Node43 -->
<g id="edge14" class="edge">
<title>Node31&#45;&gt;Node43</title>
<path fill="none" stroke="midnightblue" d="M34.2,-218.02C36.72,-176.9 48.26,-82.23 101,-29 105.04,-24.92 109.97,-21.72 115.23,-19.21"/>
<polygon fill="midnightblue" stroke="midnightblue" points="30.7,-217.96 33.7,-228.12 37.69,-218.3 30.7,-217.96"/>
</g>
</g>
</svg>
