<?xml version="1.0" encoding="UTF-8" standalone="no"?>
<!DOCTYPE svg PUBLIC "-//W3C//DTD SVG 1.1//EN"
 "http://www.w3.org/Graphics/SVG/1.1/DTD/svg11.dtd">
<!-- Generated by graphviz version 2.49.3 (20211027.1501)
 -->
<!-- Title: Client/src/main.cpp Pages: 1 -->
<svg width="3045pt" height="542pt"
 viewBox="0.00 0.00 3045.00 542.00" xmlns="http://www.w3.org/2000/svg" xmlns:xlink="http://www.w3.org/1999/xlink">
<g id="graph0" class="graph" transform="scale(1 1) rotate(0) translate(4 538)">
<title>Client/src/main.cpp</title>
<!-- Node1 -->
<g id="node1" class="node">
<title>Node1</title>
<g id="a_node1"><a xlink:title="Entrypoint.">
<polygon fill="#bfbfbf" stroke="black" points="2158,-514.5 2158,-533.5 2258,-533.5 2258,-514.5 2158,-514.5"/>
<text text-anchor="middle" x="2208" y="-521.5" font-family="Helvetica,sans-Serif" font-size="10.00">Client/src/main.cpp</text>
</a>
</g>
</g>
<!-- Node2 -->
<g id="node2" class="node">
<title>Node2</title>
<g id="a_node2"><a xlink:href="_neko_engine_8hpp.html" target="_top" xlink:title=" ">
<polygon fill="none" stroke="black" points="992.5,-324.5 992.5,-343.5 1135.5,-343.5 1135.5,-324.5 992.5,-324.5"/>
<text text-anchor="middle" x="1064" y="-331.5" font-family="Helvetica,sans-Serif" font-size="10.00">NekoEngine/NekoEngine.hpp</text>
</a>
</g>
</g>
<!-- Node1&#45;&gt;Node2 -->
<g id="edge1" class="edge">
<title>Node1&#45;&gt;Node2</title>
<path fill="none" stroke="midnightblue" d="M2157.88,-523.1C1982.29,-523.1 1395.66,-519.89 1213,-478 1139.45,-461.13 1098.51,-474.01 1057,-411 1045.76,-393.94 1050.6,-369.85 1056.23,-353.4"/>
<polygon fill="midnightblue" stroke="midnightblue" points="1059.58,-354.43 1059.88,-343.84 1053.04,-351.93 1059.58,-354.43"/>
</g>
<!-- Node68 -->
<g id="node24" class="node">
<title>Node68</title>
<g id="a_node24"><a xlink:href="_window_8hpp.html" target="_top" xlink:title="Contains the NekoEngine Window class wrapper.">
<polygon fill="none" stroke="black" points="1356.5,-257.5 1356.5,-287.5 1467.5,-287.5 1467.5,-257.5 1356.5,-257.5"/>
<text text-anchor="start" x="1364.5" y="-275.5" font-family="Helvetica,sans-Serif" font-size="10.00">NekoEngine/Graphics</text>
<text text-anchor="middle" x="1412" y="-264.5" font-family="Helvetica,sans-Serif" font-size="10.00">/Window.hpp</text>
</a>
</g>
</g>
<!-- Node1&#45;&gt;Node68 -->
<g id="edge41" class="edge">
<title>Node1&#45;&gt;Node68</title>
<path fill="none" stroke="midnightblue" d="M2157.93,-522.3C2010.21,-519.9 1577.99,-510.22 1441,-478 1367.15,-460.63 1325.81,-474.3 1284,-411 1252.68,-363.58 1323.31,-317 1371.61,-292.09"/>
<polygon fill="midnightblue" stroke="midnightblue" points="1373.28,-295.17 1380.64,-287.55 1370.13,-288.92 1373.28,-295.17"/>
</g>
<!-- Node69 -->
<g id="node25" class="node">
<title>Node69</title>
<g id="a_node25"><a xlink:href="_custom_client_8hpp.html" target="_top" xlink:title=" ">
<polygon fill="none" stroke="black" points="1898.5,-196 1898.5,-215 2025.5,-215 2025.5,-196 1898.5,-196"/>
<text text-anchor="middle" x="1962" y="-203" font-family="Helvetica,sans-Serif" font-size="10.00">include/CustomClient.hpp</text>
</a>
</g>
</g>
<!-- Node1&#45;&gt;Node69 -->
<g id="edge51" class="edge">
<title>Node1&#45;&gt;Node69</title>
<path fill="none" stroke="midnightblue" d="M2164.65,-514.44C2140.83,-507.86 2112.13,-496.64 2092,-478 2013.2,-405.01 1977.14,-274.23 1965.98,-225.49"/>
<polygon fill="midnightblue" stroke="midnightblue" points="1969.33,-224.44 1963.77,-215.42 1962.49,-225.94 1969.33,-224.44"/>
</g>
<!-- Node71 -->
<g id="node27" class="node">
<title>Node71</title>
<g id="a_node27"><a xlink:title=" ">
<polygon fill="none" stroke="#bfbfbf" points="2011.5,-123.5 2011.5,-153.5 2124.5,-153.5 2124.5,-123.5 2011.5,-123.5"/>
<text text-anchor="start" x="2019.5" y="-141.5" font-family="Helvetica,sans-Serif" font-size="10.00">../../Game/Ennemies</text>
<text text-anchor="middle" x="2068" y="-130.5" font-family="Helvetica,sans-Serif" font-size="10.00">/EnnemiesFactory.hpp</text>
</a>
</g>
</g>
<!-- Node1&#45;&gt;Node71 -->
<g id="edge70" class="edge">
<title>Node1&#45;&gt;Node71</title>
<path fill="none" stroke="midnightblue" d="M2190.89,-514.49C2177.21,-506.81 2158.63,-494.23 2148,-478 2080.88,-375.48 2069.9,-222.8 2068.23,-163.9"/>
<polygon fill="midnightblue" stroke="midnightblue" points="2071.73,-163.64 2068.02,-153.72 2064.73,-163.79 2071.73,-163.64"/>
</g>
<!-- Node72 -->
<g id="node28" class="node">
<title>Node72</title>
<g id="a_node28"><a xlink:title=" ">
<polygon fill="none" stroke="#bfbfbf" points="2143,-123.5 2143,-153.5 2243,-153.5 2243,-123.5 2143,-123.5"/>
<text text-anchor="start" x="2151" y="-141.5" font-family="Helvetica,sans-Serif" font-size="10.00">../../Game/Bullets</text>
<text text-anchor="middle" x="2193" y="-130.5" font-family="Helvetica,sans-Serif" font-size="10.00">/BulletsFactory.hpp</text>
</a>
</g>
</g>
<!-- Node1&#45;&gt;Node72 -->
<g id="edge71" class="edge">
<title>Node1&#45;&gt;Node72</title>
<path fill="none" stroke="midnightblue" d="M2198.08,-514.29C2189.03,-505.85 2175.91,-492.26 2168,-478 2149.68,-444.98 2144,-434.26 2144,-396.5 2144,-396.5 2144,-396.5 2144,-271.5 2144,-231.18 2164.34,-188.03 2178.81,-162.42"/>
<polygon fill="midnightblue" stroke="midnightblue" points="2181.99,-163.91 2184.01,-153.51 2175.95,-160.38 2181.99,-163.91"/>
</g>
<!-- Node76 -->
<g id="node32" class="node">
<title>Node76</title>
<g id="a_node32"><a xlink:title=" ">
<polygon fill="none" stroke="#bfbfbf" points="2261,-129 2261,-148 2397,-148 2397,-129 2261,-129"/>
<text text-anchor="middle" x="2329" y="-136" font-family="Helvetica,sans-Serif" font-size="10.00">../../Game/Player/Player.hpp</text>
</a>
</g>
</g>
<!-- Node1&#45;&gt;Node76 -->
<g id="edge74" class="edge">
<title>Node1&#45;&gt;Node76</title>
<path fill="none" stroke="midnightblue" d="M2204.92,-514.23C2198.03,-493.85 2182,-441.57 2182,-396.5 2182,-396.5 2182,-396.5 2182,-271.5 2182,-210.59 2252.73,-170.67 2296.06,-151.93"/>
<polygon fill="midnightblue" stroke="midnightblue" points="2297.5,-155.12 2305.38,-148.04 2294.81,-148.66 2297.5,-155.12"/>
</g>
<!-- Node77 -->
<g id="node33" class="node">
<title>Node77</title>
<g id="a_node33"><a xlink:title=" ">
<polygon fill="none" stroke="#bfbfbf" points="2210.5,-453 2210.5,-472 2259.5,-472 2259.5,-453 2210.5,-453"/>
<text text-anchor="middle" x="2235" y="-460" font-family="Helvetica,sans-Serif" font-size="10.00">random</text>
</a>
</g>
</g>
<!-- Node1&#45;&gt;Node77 -->
<g id="edge42" class="edge">
<title>Node1&#45;&gt;Node77</title>
<path fill="none" stroke="midnightblue" d="M2211.87,-514.48C2215.8,-505.82 2222,-492.15 2226.99,-481.15"/>
<polygon fill="midnightblue" stroke="midnightblue" points="2230.19,-482.56 2231.14,-472.01 2223.82,-479.67 2230.19,-482.56"/>
</g>
<!-- Node36 -->
<g id="node34" class="node">
<title>Node36</title>
<g id="a_node34"><a xlink:title=" ">
<polygon fill="none" stroke="#bfbfbf" points="2278,-453 2278,-472 2324,-472 2324,-453 2278,-453"/>
<text text-anchor="middle" x="2301" y="-460" font-family="Helvetica,sans-Serif" font-size="10.00">chrono</text>
</a>
</g>
</g>
<!-- Node1&#45;&gt;Node36 -->
<g id="edge43" class="edge">
<title>Node1&#45;&gt;Node36</title>
<path fill="none" stroke="midnightblue" d="M2221.32,-514.48C2236.38,-504.84 2261.12,-489.02 2279.04,-477.55"/>
<polygon fill="midnightblue" stroke="midnightblue" points="2281.16,-480.35 2287.7,-472.01 2277.39,-474.45 2281.16,-480.35"/>
</g>
<!-- Node78 -->
<g id="node35" class="node">
<title>Node78</title>
<g id="a_node35"><a xlink:title=" ">
<polygon fill="none" stroke="#bfbfbf" points="2342,-453 2342,-472 2394,-472 2394,-453 2342,-453"/>
<text text-anchor="middle" x="2368" y="-460" font-family="Helvetica,sans-Serif" font-size="10.00">sstream</text>
</a>
</g>
</g>
<!-- Node1&#45;&gt;Node78 -->
<g id="edge44" class="edge">
<title>Node1&#45;&gt;Node78</title>
<path fill="none" stroke="midnightblue" d="M2233.03,-514.38C2258.36,-505.57 2298.58,-491.32 2333,-478 2334.64,-477.36 2336.33,-476.7 2338.03,-476.03"/>
<polygon fill="midnightblue" stroke="midnightblue" points="2339.76,-479.1 2347.71,-472.1 2337.12,-472.61 2339.76,-479.1"/>
</g>
<!-- Node79 -->
<g id="node36" class="node">
<title>Node79</title>
<g id="a_node36"><a xlink:href="_nya_log_8hpp.html" target="_top" xlink:title="NyaLog logger.">
<polygon fill="none" stroke="black" points="124.5,-263 124.5,-282 229.5,-282 229.5,-263 124.5,-263"/>
<text text-anchor="middle" x="177" y="-270" font-family="Helvetica,sans-Serif" font-size="10.00">NyaLog/NyaLog.hpp</text>
</a>
</g>
</g>
<!-- Node1&#45;&gt;Node79 -->
<g id="edge45" class="edge">
<title>Node1&#45;&gt;Node79</title>
<path fill="none" stroke="midnightblue" d="M2157.77,-522.19C1968.5,-518.96 1298.46,-505.77 1087,-478 744.62,-433.03 341.19,-321.07 216,-284.94"/>
<polygon fill="midnightblue" stroke="midnightblue" points="216.69,-281.5 206.11,-282.07 214.74,-288.22 216.69,-281.5"/>
</g>
<!-- Node83 -->
<g id="node41" class="node">
<title>Node83</title>
<g id="a_node41"><a xlink:title=" ">
<polygon fill="none" stroke="#bfbfbf" points="2412.5,-453 2412.5,-472 2513.5,-472 2513.5,-453 2412.5,-453"/>
<text text-anchor="middle" x="2463" y="-460" font-family="Helvetica,sans-Serif" font-size="10.00">../../Menu/Menu.hpp</text>
</a>
</g>
</g>
<!-- Node1&#45;&gt;Node83 -->
<g id="edge52" class="edge">
<title>Node1&#45;&gt;Node83</title>
<path fill="none" stroke="midnightblue" d="M2245.41,-514.49C2284.68,-505.52 2348.22,-490.94 2403,-478 2407.77,-476.87 2412.75,-475.69 2417.71,-474.5"/>
<polygon fill="midnightblue" stroke="midnightblue" points="2418.89,-477.81 2427.8,-472.07 2417.26,-471.01 2418.89,-477.81"/>
</g>
<!-- Node84 -->
<g id="node42" class="node">
<title>Node84</title>
<g id="a_node42"><a xlink:title=" ">
<polygon fill="none" stroke="#bfbfbf" points="2532,-453 2532,-472 2642,-472 2642,-453 2532,-453"/>
<text text-anchor="middle" x="2587" y="-460" font-family="Helvetica,sans-Serif" font-size="10.00">../../Menu/Buttons.hpp</text>
</a>
</g>
</g>
<!-- Node1&#45;&gt;Node84 -->
<g id="edge53" class="edge">
<title>Node1&#45;&gt;Node84</title>
<path fill="none" stroke="midnightblue" d="M2258.12,-517.11C2320.44,-509.5 2429.97,-495.16 2523,-478 2528.96,-476.9 2535.2,-475.63 2541.35,-474.31"/>
<polygon fill="midnightblue" stroke="midnightblue" points="2542.55,-477.64 2551.56,-472.07 2541.04,-470.8 2542.55,-477.64"/>
</g>
<!-- Node85 -->
<g id="node43" class="node">
<title>Node85</title>
<g id="a_node43"><a xlink:title=" ">
<polygon fill="none" stroke="#bfbfbf" points="2660.5,-453 2660.5,-472 2767.5,-472 2767.5,-453 2660.5,-453"/>
<text text-anchor="middle" x="2714" y="-460" font-family="Helvetica,sans-Serif" font-size="10.00">../../Menu/Setting.hpp</text>
</a>
</g>
</g>
<!-- Node1&#45;&gt;Node85 -->
<g id="edge54" class="edge">
<title>Node1&#45;&gt;Node85</title>
<path fill="none" stroke="midnightblue" d="M2258.1,-519.96C2340.47,-514.5 2509.52,-501.37 2651,-478 2657.32,-476.96 2663.96,-475.66 2670.45,-474.27"/>
<polygon fill="midnightblue" stroke="midnightblue" points="2671.48,-477.62 2680.48,-472.03 2669.96,-470.79 2671.48,-477.62"/>
</g>
<!-- Node86 -->
<g id="node44" class="node">
<title>Node86</title>
<g id="a_node44"><a xlink:href="_client_game_8hpp.html" target="_top" xlink:title=" ">
<polygon fill="none" stroke="black" points="1449.5,-453 1449.5,-472 1576.5,-472 1576.5,-453 1449.5,-453"/>
<text text-anchor="middle" x="1513" y="-460" font-family="Helvetica,sans-Serif" font-size="10.00">../include/ClientGame.hpp</text>
</a>
</g>
</g>
<!-- Node1&#45;&gt;Node86 -->
<g id="edge55" class="edge">
<title>Node1&#45;&gt;Node86</title>
<path fill="none" stroke="midnightblue" d="M2157.74,-518.7C2036.82,-508.35 1729.2,-482.01 1587.07,-469.84"/>
<polygon fill="midnightblue" stroke="midnightblue" points="1586.98,-466.32 1576.72,-468.95 1586.38,-473.3 1586.98,-466.32"/>
</g>
<!-- Node92 -->
<g id="node49" class="node">
<title>Node92</title>
<g id="a_node49"><a xlink:title=" ">
<polygon fill="none" stroke="#bfbfbf" points="2785.5,-447.5 2785.5,-477.5 2900.5,-477.5 2900.5,-447.5 2785.5,-447.5"/>
<text text-anchor="start" x="2793.5" y="-465.5" font-family="Helvetica,sans-Serif" font-size="10.00">../../Game/GameScene</text>
<text text-anchor="middle" x="2843" y="-454.5" font-family="Helvetica,sans-Serif" font-size="10.00">/GameScene.hpp</text>
</a>
</g>
</g>
<!-- Node1&#45;&gt;Node92 -->
<g id="edge72" class="edge">
<title>Node1&#45;&gt;Node92</title>
<path fill="none" stroke="midnightblue" d="M2258.11,-521.35C2355.89,-517.63 2579.03,-506.68 2775.56,-478.08"/>
<polygon fill="midnightblue" stroke="midnightblue" points="2776.11,-481.54 2785.49,-476.62 2775.09,-474.62 2776.11,-481.54"/>
</g>
<!-- Node93 -->
<g id="node50" class="node">
<title>Node93</title>
<g id="a_node50"><a xlink:title=" ">
<polygon fill="none" stroke="#bfbfbf" points="2919,-447.5 2919,-477.5 3037,-477.5 3037,-447.5 2919,-447.5"/>
<text text-anchor="start" x="2927" y="-465.5" font-family="Helvetica,sans-Serif" font-size="10.00">../../Game/GlobalLibrary</text>
<text text-anchor="middle" x="2978" y="-454.5" font-family="Helvetica,sans-Serif" font-size="10.00">/GlobalTexture.hpp</text>
</a>
</g>
</g>
<!-- Node1&#45;&gt;Node93 -->
<g id="edge73" class="edge">
<title>Node1&#45;&gt;Node93</title>
<path fill="none" stroke="midnightblue" d="M2258.04,-522.3C2371.96,-520.16 2659.42,-511.72 2908.78,-478.03"/>
<polygon fill="midnightblue" stroke="midnightblue" points="2909.32,-481.49 2918.75,-476.67 2908.37,-474.55 2909.32,-481.49"/>
</g>
<!-- Node3 -->
<g id="node3" class="node">
<title>Node3</title>
<g id="a_node3"><a xlink:href="_neko_exception_8hpp.html" target="_top" xlink:title="Contains the NekoEngine main exception type.">
<polygon fill="none" stroke="black" points="248.5,-190.5 248.5,-220.5 385.5,-220.5 385.5,-190.5 248.5,-190.5"/>
<text text-anchor="start" x="256.5" y="-208.5" font-family="Helvetica,sans-Serif" font-size="10.00">NekoEngine/NekoException</text>
<text text-anchor="middle" x="317" y="-197.5" font-family="Helvetica,sans-Serif" font-size="10.00">/NekoException.hpp</text>
</a>
</g>
</g>
<!-- Node2&#45;&gt;Node3 -->
<g id="edge2" class="edge">
<title>Node2&#45;&gt;Node3</title>
<path fill="none" stroke="midnightblue" d="M992.49,-330.99C858.11,-326.64 572.89,-314.53 478,-288 452.37,-280.83 389.86,-247.29 350.7,-225.53"/>
<polygon fill="midnightblue" stroke="midnightblue" points="352.2,-222.36 341.76,-220.55 348.79,-228.47 352.2,-222.36"/>
</g>
<!-- Node5 -->
<g id="node5" class="node">
<title>Node5</title>
<g id="a_node5"><a xlink:href="_neko_window_exception_8hpp.html" target="_top" xlink:title="WindowException handling class inheriting from NekoException.">
<polygon fill="none" stroke="black" points="255.5,-257.5 255.5,-287.5 392.5,-287.5 392.5,-257.5 255.5,-257.5"/>
<text text-anchor="start" x="263.5" y="-275.5" font-family="Helvetica,sans-Serif" font-size="10.00">NekoEngine/Graphics</text>
<text text-anchor="middle" x="324" y="-264.5" font-family="Helvetica,sans-Serif" font-size="10.00">/NekoWindowException.hpp</text>
</a>
</g>
</g>
<!-- Node2&#45;&gt;Node5 -->
<g id="edge4" class="edge">
<title>Node2&#45;&gt;Node5</title>
<path fill="none" stroke="midnightblue" d="M992.13,-329.96C872.67,-324.46 625.82,-311.23 418,-288 413,-287.44 407.86,-286.81 402.68,-286.13"/>
<polygon fill="midnightblue" stroke="midnightblue" points="403.08,-282.65 392.7,-284.78 402.14,-289.59 403.08,-282.65"/>
</g>
<!-- Node6 -->
<g id="node6" class="node">
<title>Node6</title>
<g id="a_node6"><a xlink:href="_vector_8hpp.html" target="_top" xlink:title="Contains all headers for all Vector types.">
<polygon fill="none" stroke="black" points="1044.5,-56.5 1044.5,-86.5 1169.5,-86.5 1169.5,-56.5 1044.5,-56.5"/>
<text text-anchor="start" x="1052.5" y="-74.5" font-family="Helvetica,sans-Serif" font-size="10.00">NekoEngine/Math/Vector</text>
<text text-anchor="middle" x="1107" y="-63.5" font-family="Helvetica,sans-Serif" font-size="10.00">/Vector.hpp</text>
</a>
</g>
</g>
<!-- Node2&#45;&gt;Node6 -->
<g id="edge6" class="edge">
<title>Node2&#45;&gt;Node6</title>
<path fill="none" stroke="midnightblue" d="M1100.97,-324.36C1120.78,-317.77 1143.77,-306.55 1157,-288 1199.75,-228.05 1175.24,-188.71 1142,-123 1137.14,-113.39 1130.67,-103.51 1124.62,-95.06"/>
<polygon fill="midnightblue" stroke="midnightblue" points="1127.3,-92.81 1118.54,-86.85 1121.68,-96.97 1127.3,-92.81"/>
</g>
<!-- Node10 -->
<g id="node10" class="node">
<title>Node10</title>
<g id="a_node10"><a xlink:href="_quaternion_8hpp.html" target="_top" xlink:title="Utmost basic implementation of a Quaternion, i.e. just a Vector4.">
<polygon fill="none" stroke="black" points="487,-257.5 487,-287.5 631,-287.5 631,-257.5 487,-257.5"/>
<text text-anchor="start" x="495" y="-275.5" font-family="Helvetica,sans-Serif" font-size="10.00">NekoEngine/Math/Quaternion</text>
<text text-anchor="middle" x="559" y="-264.5" font-family="Helvetica,sans-Serif" font-size="10.00">/Quaternion.hpp</text>
</a>
</g>
</g>
<!-- Node2&#45;&gt;Node10 -->
<g id="edge10" class="edge">
<title>Node2&#45;&gt;Node10</title>
<path fill="none" stroke="midnightblue" d="M992.42,-326.07C910.51,-317.92 772.39,-303.53 654,-288 649.81,-287.45 645.52,-286.87 641.2,-286.27"/>
<polygon fill="midnightblue" stroke="midnightblue" points="641.45,-282.77 631.05,-284.82 640.46,-289.7 641.45,-282.77"/>
</g>
<!-- Node11 -->
<g id="node11" class="node">
<title>Node11</title>
<g id="a_node11"><a xlink:href="_matrix_8hpp.html" target="_top" xlink:title="Contains Matrix template class.">
<polygon fill="none" stroke="black" points="1024.5,-257.5 1024.5,-287.5 1147.5,-287.5 1147.5,-257.5 1024.5,-257.5"/>
<text text-anchor="start" x="1032.5" y="-275.5" font-family="Helvetica,sans-Serif" font-size="10.00">NekoEngine/Math/Matrix</text>
<text text-anchor="middle" x="1086" y="-264.5" font-family="Helvetica,sans-Serif" font-size="10.00">/Matrix.hpp</text>
</a>
</g>
</g>
<!-- Node2&#45;&gt;Node11 -->
<g id="edge12" class="edge">
<title>Node2&#45;&gt;Node11</title>
<path fill="none" stroke="midnightblue" d="M1067.15,-324.48C1069.8,-317.32 1073.71,-306.75 1077.28,-297.08"/>
<polygon fill="midnightblue" stroke="midnightblue" points="1080.63,-298.12 1080.82,-287.52 1074.06,-295.69 1080.63,-298.12"/>
</g>
<!-- Node13 -->
<g id="node13" class="node">
<title>Node13</title>
<g id="a_node13"><a xlink:href="_coordinator_8hpp.html" target="_top" xlink:title="Coordinator class.">
<polygon fill="none" stroke="black" points="842,-196 842,-215 1004,-215 1004,-196 842,-196"/>
<text text-anchor="middle" x="923" y="-203" font-family="Helvetica,sans-Serif" font-size="10.00">NekoEngine/ECS/Coordinator.hpp</text>
</a>
</g>
</g>
<!-- Node2&#45;&gt;Node13 -->
<g id="edge15" class="edge">
<title>Node2&#45;&gt;Node13</title>
<path fill="none" stroke="midnightblue" d="M1054.31,-324.31C1030.76,-303.18 970.29,-248.93 940.34,-222.06"/>
<polygon fill="midnightblue" stroke="midnightblue" points="942.54,-219.33 932.76,-215.26 937.87,-224.54 942.54,-219.33"/>
</g>
<!-- Node32 -->
<g id="node19" class="node">
<title>Node32</title>
<g id="a_node19"><a xlink:href="_scene_8hpp.html" target="_top" xlink:title="Scene class.">
<polygon fill="none" stroke="black" points="814,-263 814,-282 968,-282 968,-263 814,-263"/>
<text text-anchor="middle" x="891" y="-270" font-family="Helvetica,sans-Serif" font-size="10.00">NekoEngine/Scenes/Scene.hpp</text>
</a>
</g>
</g>
<!-- Node2&#45;&gt;Node32 -->
<g id="edge22" class="edge">
<title>Node2&#45;&gt;Node32</title>
<path fill="none" stroke="midnightblue" d="M1039.21,-324.48C1009.41,-314.22 959.21,-296.96 925.6,-285.4"/>
<polygon fill="midnightblue" stroke="midnightblue" points="926.34,-281.95 915.74,-282.01 924.06,-288.57 926.34,-281.95"/>
</g>
<!-- Node33 -->
<g id="node20" class="node">
<title>Node33</title>
<g id="a_node20"><a xlink:href="_components_8hpp.html" target="_top" xlink:title="Components.">
<polygon fill="none" stroke="red" points="1253.5,-190.5 1253.5,-220.5 1402.5,-220.5 1402.5,-190.5 1253.5,-190.5"/>
<text text-anchor="start" x="1261.5" y="-208.5" font-family="Helvetica,sans-Serif" font-size="10.00">NekoEngine/ECS/Components</text>
<text text-anchor="middle" x="1328" y="-197.5" font-family="Helvetica,sans-Serif" font-size="10.00">/Components.hpp</text>
</a>
</g>
</g>
<!-- Node2&#45;&gt;Node33 -->
<g id="edge24" class="edge">
<title>Node2&#45;&gt;Node33</title>
<path fill="none" stroke="midnightblue" d="M1135.77,-328.42C1198.95,-322.9 1284.59,-311.28 1309,-288 1324.31,-273.4 1328.35,-249.04 1328.99,-230.75"/>
<polygon fill="midnightblue" stroke="midnightblue" points="1332.49,-230.56 1329.02,-220.54 1325.49,-230.53 1332.49,-230.56"/>
</g>
<!-- Node55 -->
<g id="node23" class="node">
<title>Node55</title>
<g id="a_node23"><a xlink:href="_systems_8hpp.html" target="_top" xlink:title="Systems.">
<polygon fill="none" stroke="red" points="662.5,-257.5 662.5,-287.5 795.5,-287.5 795.5,-257.5 662.5,-257.5"/>
<text text-anchor="start" x="670.5" y="-275.5" font-family="Helvetica,sans-Serif" font-size="10.00">NekoEngine/ECS/Systems</text>
<text text-anchor="middle" x="729" y="-264.5" font-family="Helvetica,sans-Serif" font-size="10.00">/Systems.hpp</text>
</a>
</g>
</g>
<!-- Node2&#45;&gt;Node55 -->
<g id="edge28" class="edge">
<title>Node2&#45;&gt;Node55</title>
<path fill="none" stroke="midnightblue" d="M1013.33,-324.45C963.23,-315.94 884.11,-302.35 805.76,-288.12"/>
<polygon fill="midnightblue" stroke="midnightblue" points="806.18,-284.64 795.72,-286.29 804.93,-291.53 806.18,-284.64"/>
</g>
<!-- Node2&#45;&gt;Node68 -->
<g id="edge29" class="edge">
<title>Node2&#45;&gt;Node68</title>
<path fill="none" stroke="midnightblue" d="M1121.36,-324.47C1177.66,-315.91 1265.91,-302.03 1342,-288 1343.45,-287.73 1344.91,-287.46 1346.39,-287.18"/>
<polygon fill="midnightblue" stroke="midnightblue" points="1347.1,-290.61 1356.26,-285.28 1345.78,-283.73 1347.1,-290.61"/>
</g>
<!-- Node4 -->
<g id="node4" class="node">
<title>Node4</title>
<g id="a_node4"><a xlink:title=" ">
<polygon fill="none" stroke="#bfbfbf" points="248.5,-129 248.5,-148 289.5,-148 289.5,-129 248.5,-129"/>
<text text-anchor="middle" x="269" y="-136" font-family="Helvetica,sans-Serif" font-size="10.00">string</text>
</a>
</g>
</g>
<!-- Node3&#45;&gt;Node4 -->
<g id="edge3" class="edge">
<title>Node3&#45;&gt;Node4</title>
<path fill="none" stroke="midnightblue" d="M306.58,-190.4C299.17,-180.36 289.19,-166.84 281.37,-156.25"/>
<polygon fill="midnightblue" stroke="midnightblue" points="284.18,-154.16 275.42,-148.19 278.55,-158.32 284.18,-154.16"/>
</g>
<!-- Node5&#45;&gt;Node3 -->
<g id="edge5" class="edge">
<title>Node5&#45;&gt;Node3</title>
<path fill="none" stroke="midnightblue" d="M322.48,-257.4C321.64,-249.56 320.56,-239.6 319.59,-230.57"/>
<polygon fill="midnightblue" stroke="midnightblue" points="323.07,-230.14 318.52,-220.58 316.11,-230.89 323.07,-230.14"/>
</g>
<!-- Node7 -->
<g id="node7" class="node">
<title>Node7</title>
<g id="a_node7"><a xlink:href="_vector2_8hpp.html" target="_top" xlink:title="Contains Vector2 template class.">
<polygon fill="none" stroke="black" points="987,-0.5 987,-19.5 1055,-19.5 1055,-0.5 987,-0.5"/>
<text text-anchor="middle" x="1021" y="-7.5" font-family="Helvetica,sans-Serif" font-size="10.00">Vector2.hpp</text>
</a>
</g>
</g>
<!-- Node6&#45;&gt;Node7 -->
<g id="edge7" class="edge">
<title>Node6&#45;&gt;Node7</title>
<path fill="none" stroke="midnightblue" d="M1086.62,-56.4C1073.09,-47.04 1055.39,-34.79 1041.78,-25.38"/>
<polygon fill="midnightblue" stroke="midnightblue" points="1043.73,-22.47 1033.51,-19.66 1039.75,-28.23 1043.73,-22.47"/>
</g>
<!-- Node8 -->
<g id="node8" class="node">
<title>Node8</title>
<g id="a_node8"><a xlink:href="_vector3_8hpp.html" target="_top" xlink:title="Contains Vector3 template class.">
<polygon fill="none" stroke="black" points="1073,-0.5 1073,-19.5 1141,-19.5 1141,-0.5 1073,-0.5"/>
<text text-anchor="middle" x="1107" y="-7.5" font-family="Helvetica,sans-Serif" font-size="10.00">Vector3.hpp</text>
</a>
</g>
</g>
<!-- Node6&#45;&gt;Node8 -->
<g id="edge8" class="edge">
<title>Node6&#45;&gt;Node8</title>
<path fill="none" stroke="midnightblue" d="M1107,-56.4C1107,-48.47 1107,-38.46 1107,-29.86"/>
<polygon fill="midnightblue" stroke="midnightblue" points="1110.5,-29.66 1107,-19.66 1103.5,-29.66 1110.5,-29.66"/>
</g>
<!-- Node9 -->
<g id="node9" class="node">
<title>Node9</title>
<g id="a_node9"><a xlink:href="_vector4_8hpp.html" target="_top" xlink:title="Contains Vector4 template class.">
<polygon fill="none" stroke="black" points="1159,-0.5 1159,-19.5 1227,-19.5 1227,-0.5 1159,-0.5"/>
<text text-anchor="middle" x="1193" y="-7.5" font-family="Helvetica,sans-Serif" font-size="10.00">Vector4.hpp</text>
</a>
</g>
</g>
<!-- Node6&#45;&gt;Node9 -->
<g id="edge9" class="edge">
<title>Node6&#45;&gt;Node9</title>
<path fill="none" stroke="midnightblue" d="M1127.38,-56.4C1140.91,-47.04 1158.61,-34.79 1172.22,-25.38"/>
<polygon fill="midnightblue" stroke="midnightblue" points="1174.25,-28.23 1180.49,-19.66 1170.27,-22.47 1174.25,-28.23"/>
</g>
<!-- Node10&#45;&gt;Node6 -->
<g id="edge11" class="edge">
<title>Node10&#45;&gt;Node6</title>
<path fill="none" stroke="midnightblue" d="M486.73,-258.59C465.91,-251.15 445.48,-239.45 433,-221 413.75,-192.55 456.3,-125.72 460,-123 505.42,-89.69 874.71,-77.6 1034.15,-73.91"/>
<polygon fill="midnightblue" stroke="midnightblue" points="1034.42,-77.41 1044.34,-73.68 1034.26,-70.41 1034.42,-77.41"/>
</g>
<!-- Node11&#45;&gt;Node6 -->
<g id="edge13" class="edge">
<title>Node11&#45;&gt;Node6</title>
<path fill="none" stroke="midnightblue" d="M1083.12,-257.21C1080.43,-240.33 1078.14,-211.79 1088,-190 1097.73,-168.51 1117.54,-175.61 1127,-154 1135.26,-135.15 1128.31,-112.28 1120.42,-95.57"/>
<polygon fill="midnightblue" stroke="midnightblue" points="1123.46,-93.83 1115.78,-86.53 1117.23,-97.02 1123.46,-93.83"/>
</g>
<!-- Node12 -->
<g id="node12" class="node">
<title>Node12</title>
<g id="a_node12"><a xlink:title=" ">
<polygon fill="none" stroke="#bfbfbf" points="1096.5,-196 1096.5,-215 1155.5,-215 1155.5,-196 1096.5,-196"/>
<text text-anchor="middle" x="1126" y="-203" font-family="Helvetica,sans-Serif" font-size="10.00">Matrix.tpp</text>
</a>
</g>
</g>
<!-- Node11&#45;&gt;Node12 -->
<g id="edge14" class="edge">
<title>Node11&#45;&gt;Node12</title>
<path fill="none" stroke="midnightblue" d="M1094.68,-257.4C1100.73,-247.56 1108.84,-234.38 1115.3,-223.89"/>
<polygon fill="midnightblue" stroke="midnightblue" points="1118.39,-225.55 1120.65,-215.19 1112.43,-221.88 1118.39,-225.55"/>
</g>
<!-- Node14 -->
<g id="node14" class="node">
<title>Node14</title>
<g id="a_node14"><a xlink:href="_component_manager_8hpp.html" target="_top" xlink:title="Component Manmager class.">
<polygon fill="none" stroke="red" points="480,-123.5 480,-153.5 624,-153.5 624,-123.5 480,-123.5"/>
<text text-anchor="start" x="488" y="-141.5" font-family="Helvetica,sans-Serif" font-size="10.00">NekoEngine/ECS/Component</text>
<text text-anchor="middle" x="552" y="-130.5" font-family="Helvetica,sans-Serif" font-size="10.00">Manager.hpp</text>
</a>
</g>
</g>
<!-- Node13&#45;&gt;Node14 -->
<g id="edge16" class="edge">
<title>Node13&#45;&gt;Node14</title>
<path fill="none" stroke="midnightblue" d="M873.73,-195.99C818.1,-186.37 724.61,-170.15 634.53,-154.27"/>
<polygon fill="midnightblue" stroke="midnightblue" points="634.88,-150.77 624.42,-152.48 633.66,-157.67 634.88,-150.77"/>
</g>
<!-- Node25 -->
<g id="node15" class="node">
<title>Node25</title>
<g id="a_node15"><a xlink:href="_entity_manager_8hpp.html" target="_top" xlink:title="Entities are fun.">
<polygon fill="none" stroke="red" points="642,-129 642,-148 816,-148 816,-129 642,-129"/>
<text text-anchor="middle" x="729" y="-136" font-family="Helvetica,sans-Serif" font-size="10.00">NekoEngine/ECS/EntityManager.hpp</text>
</a>
</g>
</g>
<!-- Node13&#45;&gt;Node25 -->
<g id="edge17" class="edge">
<title>Node13&#45;&gt;Node25</title>
<path fill="none" stroke="midnightblue" d="M897.24,-195.87C863.08,-184.42 802.66,-164.18 764.29,-151.32"/>
<polygon fill="midnightblue" stroke="midnightblue" points="765.15,-147.92 754.56,-148.06 762.93,-154.56 765.15,-147.92"/>
</g>
<!-- Node27 -->
<g id="node16" class="node">
<title>Node27</title>
<g id="a_node16"><a xlink:href="_system_manager_8hpp.html" target="_top" xlink:title=" ">
<polygon fill="none" stroke="red" points="934.5,-129 934.5,-148 1117.5,-148 1117.5,-129 934.5,-129"/>
<text text-anchor="middle" x="1026" y="-136" font-family="Helvetica,sans-Serif" font-size="10.00">NekoEngine/ECS/SystemManager.hpp</text>
</a>
</g>
</g>
<!-- Node13&#45;&gt;Node27 -->
<g id="edge18" class="edge">
<title>Node13&#45;&gt;Node27</title>
<path fill="none" stroke="midnightblue" d="M932.1,-195.73C947.1,-184.82 976.57,-166.05 998.63,-153.22"/>
<polygon fill="midnightblue" stroke="midnightblue" points="1000.61,-156.12 1007.57,-148.13 997.15,-150.04 1000.61,-156.12"/>
</g>
<!-- Node31 -->
<g id="node18" class="node">
<title>Node31</title>
<g id="a_node18"><a xlink:title=" ">
<polygon fill="none" stroke="#bfbfbf" points="834,-129 834,-148 916,-148 916,-129 834,-129"/>
<text text-anchor="middle" x="875" y="-136" font-family="Helvetica,sans-Serif" font-size="10.00">Coordinator.tpp</text>
</a>
</g>
</g>
<!-- Node13&#45;&gt;Node31 -->
<g id="edge21" class="edge">
<title>Node13&#45;&gt;Node31</title>
<path fill="none" stroke="midnightblue" d="M916.53,-195.73C909.11,-185.7 896.8,-169.01 887.5,-156.42"/>
<polygon fill="midnightblue" stroke="midnightblue" points="890.13,-154.09 881.37,-148.13 884.5,-158.25 890.13,-154.09"/>
</g>
<!-- Node27&#45;&gt;Node13 -->
<g id="edge20" class="edge">
<title>Node27&#45;&gt;Node13</title>
<path fill="none" stroke="midnightblue" d="M1017.09,-148.13C1002.21,-158.98 972.78,-177.74 950.65,-190.62"/>
<polygon fill="midnightblue" stroke="midnightblue" points="948.63,-187.74 941.68,-195.73 952.1,-193.82 948.63,-187.74"/>
</g>
<!-- Node28 -->
<g id="node17" class="node">
<title>Node28</title>
<g id="a_node17"><a xlink:href="_system_8hpp.html" target="_top" xlink:title="ECS System.">
<polygon fill="none" stroke="red" points="1188,-62 1188,-81 1334,-81 1334,-62 1188,-62"/>
<text text-anchor="middle" x="1261" y="-69" font-family="Helvetica,sans-Serif" font-size="10.00">NekoEngine/ECS/System.hpp</text>
</a>
</g>
</g>
<!-- Node27&#45;&gt;Node28 -->
<g id="edge19" class="edge">
<title>Node27&#45;&gt;Node28</title>
<path fill="none" stroke="midnightblue" d="M1057.21,-128.87C1099.2,-117.25 1173.96,-96.58 1220.32,-83.75"/>
<polygon fill="midnightblue" stroke="midnightblue" points="1221.33,-87.1 1230.04,-81.06 1219.47,-80.36 1221.33,-87.1"/>
</g>
<!-- Node32&#45;&gt;Node13 -->
<g id="edge23" class="edge">
<title>Node32&#45;&gt;Node13</title>
<path fill="none" stroke="midnightblue" d="M895.32,-262.73C900.16,-252.89 908.15,-236.66 914.31,-224.16"/>
<polygon fill="midnightblue" stroke="midnightblue" points="917.48,-225.64 918.75,-215.13 911.2,-222.55 917.48,-225.64"/>
</g>
<!-- Node34 -->
<g id="node21" class="node">
<title>Node34</title>
<g id="a_node21"><a xlink:href="_transform_8hpp.html" target="_top" xlink:title="Transform component.">
<polygon fill="none" stroke="black" points="1249.5,-123.5 1249.5,-153.5 1398.5,-153.5 1398.5,-123.5 1249.5,-123.5"/>
<text text-anchor="start" x="1257.5" y="-141.5" font-family="Helvetica,sans-Serif" font-size="10.00">NekoEngine/ECS/Components</text>
<text text-anchor="middle" x="1324" y="-130.5" font-family="Helvetica,sans-Serif" font-size="10.00">/Transform.hpp</text>
</a>
</g>
</g>
<!-- Node33&#45;&gt;Node34 -->
<g id="edge25" class="edge">
<title>Node33&#45;&gt;Node34</title>
<path fill="none" stroke="midnightblue" d="M1327.13,-190.4C1326.65,-182.56 1326.04,-172.6 1325.48,-163.57"/>
<polygon fill="midnightblue" stroke="midnightblue" points="1328.97,-163.34 1324.87,-153.58 1321.99,-163.77 1328.97,-163.34"/>
</g>
<!-- Node50 -->
<g id="node22" class="node">
<title>Node50</title>
<g id="a_node22"><a xlink:href="_alien_8hpp.html" target="_top" xlink:title="Alien component.">
<polygon fill="none" stroke="black" points="1416.5,-123.5 1416.5,-153.5 1565.5,-153.5 1565.5,-123.5 1416.5,-123.5"/>
<text text-anchor="start" x="1424.5" y="-141.5" font-family="Helvetica,sans-Serif" font-size="10.00">NekoEngine/ECS/Components</text>
<text text-anchor="middle" x="1491" y="-130.5" font-family="Helvetica,sans-Serif" font-size="10.00">/Alien.hpp</text>
</a>
</g>
</g>
<!-- Node33&#45;&gt;Node50 -->
<g id="edge27" class="edge">
<title>Node33&#45;&gt;Node50</title>
<path fill="none" stroke="midnightblue" d="M1363.37,-190.4C1387.72,-180.69 1420.26,-167.71 1446.39,-157.29"/>
<polygon fill="midnightblue" stroke="midnightblue" points="1447.71,-160.53 1455.7,-153.58 1445.12,-154.03 1447.71,-160.53"/>
</g>
<!-- Node34&#45;&gt;Node6 -->
<g id="edge26" class="edge">
<title>Node34&#45;&gt;Node6</title>
<path fill="none" stroke="midnightblue" d="M1277.18,-123.48C1243.93,-113.51 1199.1,-100.09 1163.8,-89.51"/>
<polygon fill="midnightblue" stroke="midnightblue" points="1164.69,-86.13 1154.11,-86.61 1162.68,-92.83 1164.69,-86.13"/>
</g>
<!-- Node68&#45;&gt;Node6 -->
<g id="edge31" class="edge">
<title>Node68&#45;&gt;Node6</title>
<path fill="none" stroke="midnightblue" d="M1356.49,-263.02C1341.13,-260.85 1324.44,-258.67 1309,-257 1122.46,-236.84 590.99,-298.24 471,-154 462.19,-143.41 461.65,-133.12 471,-123 508.55,-82.35 875.12,-74.39 1034.08,-72.86"/>
<polygon fill="midnightblue" stroke="midnightblue" points="1034.28,-76.35 1044.24,-72.76 1034.21,-69.35 1034.28,-76.35"/>
</g>
<!-- Node68&#45;&gt;Node33 -->
<g id="edge30" class="edge">
<title>Node68&#45;&gt;Node33</title>
<path fill="none" stroke="midnightblue" d="M1393.77,-257.4C1382.22,-248.45 1367.08,-236.74 1354.24,-226.8"/>
<polygon fill="midnightblue" stroke="midnightblue" points="1356.24,-223.93 1346.19,-220.58 1351.96,-229.46 1356.24,-223.93"/>
</g>
<!-- Node68&#45;&gt;Node69 -->
<g id="edge32" class="edge">
<title>Node68&#45;&gt;Node69</title>
<path fill="none" stroke="midnightblue" d="M1467.51,-264.94C1567.22,-253.16 1776.65,-228.4 1888.28,-215.21"/>
<polygon fill="midnightblue" stroke="midnightblue" points="1888.92,-218.66 1898.44,-214.01 1888.1,-211.71 1888.92,-218.66"/>
</g>
<!-- Node69&#45;&gt;Node2 -->
<g id="edge34" class="edge">
<title>Node69&#45;&gt;Node2</title>
<path fill="none" stroke="midnightblue" d="M1916.67,-215.02C1831.01,-230.92 1639.39,-265.53 1477,-288 1362.46,-303.85 1229.42,-317.5 1145.96,-325.48"/>
<polygon fill="midnightblue" stroke="midnightblue" points="1145.4,-322.02 1135.78,-326.45 1146.07,-328.99 1145.4,-322.02"/>
</g>
<!-- Node70 -->
<g id="node26" class="node">
<title>Node70</title>
<g id="a_node26"><a xlink:title=" ">
<polygon fill="none" stroke="#bfbfbf" points="1621,-129 1621,-148 1725,-148 1725,-129 1621,-129"/>
<text text-anchor="middle" x="1673" y="-136" font-family="Helvetica,sans-Serif" font-size="10.00">NyaNet/NyaNet.hpp</text>
</a>
</g>
</g>
<!-- Node69&#45;&gt;Node70 -->
<g id="edge33" class="edge">
<title>Node69&#45;&gt;Node70</title>
<path fill="none" stroke="midnightblue" d="M1922.42,-195.93C1876.91,-186.02 1799.99,-169.15 1734,-154 1728.96,-152.84 1723.68,-151.61 1718.44,-150.38"/>
<polygon fill="midnightblue" stroke="midnightblue" points="1719,-146.92 1708.46,-148.03 1717.39,-153.73 1719,-146.92"/>
</g>
<!-- Node69&#45;&gt;Node71 -->
<g id="edge35" class="edge">
<title>Node69&#45;&gt;Node71</title>
<path fill="none" stroke="midnightblue" d="M1976.3,-195.73C1991.59,-186.36 2016.32,-171.19 2036.26,-158.97"/>
<polygon fill="midnightblue" stroke="midnightblue" points="2038.33,-161.8 2045.02,-153.59 2034.67,-155.83 2038.33,-161.8"/>
</g>
<!-- Node69&#45;&gt;Node72 -->
<g id="edge36" class="edge">
<title>Node69&#45;&gt;Node72</title>
<path fill="none" stroke="midnightblue" d="M1992.68,-195.87C2028.46,-185.8 2088.47,-168.91 2133.49,-156.24"/>
<polygon fill="midnightblue" stroke="midnightblue" points="2134.47,-159.61 2143.15,-153.53 2132.57,-152.87 2134.47,-159.61"/>
</g>
<!-- Node73 -->
<g id="node29" class="node">
<title>Node73</title>
<g id="a_node29"><a xlink:title=" ">
<polygon fill="none" stroke="#bfbfbf" points="1743,-129 1743,-148 1913,-148 1913,-129 1743,-129"/>
<text text-anchor="middle" x="1828" y="-136" font-family="Helvetica,sans-Serif" font-size="10.00">../../Game/Bonus/BonusFactory.hpp</text>
</a>
</g>
</g>
<!-- Node69&#45;&gt;Node73 -->
<g id="edge37" class="edge">
<title>Node69&#45;&gt;Node73</title>
<path fill="none" stroke="midnightblue" d="M1944.21,-195.87C1921.38,-184.8 1881.57,-165.49 1855,-152.6"/>
<polygon fill="midnightblue" stroke="midnightblue" points="1856.39,-149.38 1845.87,-148.17 1853.34,-155.68 1856.39,-149.38"/>
</g>
<!-- Node74 -->
<g id="node30" class="node">
<title>Node74</title>
<g id="a_node30"><a xlink:href="_sound_8hpp.html" target="_top" xlink:title=" ">
<polygon fill="none" stroke="black" points="1931,-129 1931,-148 1993,-148 1993,-129 1931,-129"/>
<text text-anchor="middle" x="1962" y="-136" font-family="Helvetica,sans-Serif" font-size="10.00">Sound.hpp</text>
</a>
</g>
</g>
<!-- Node69&#45;&gt;Node74 -->
<g id="edge38" class="edge">
<title>Node69&#45;&gt;Node74</title>
<path fill="none" stroke="midnightblue" d="M1962,-195.73C1962,-186.18 1962,-170.62 1962,-158.28"/>
<polygon fill="midnightblue" stroke="midnightblue" points="1965.5,-158.13 1962,-148.13 1958.5,-158.13 1965.5,-158.13"/>
</g>
<!-- Node69&#45;&gt;Node76 -->
<g id="edge40" class="edge">
<title>Node69&#45;&gt;Node76</title>
<path fill="none" stroke="midnightblue" d="M2012.07,-196C2069.91,-186.12 2167.9,-169.24 2252,-154 2259.18,-152.7 2266.73,-151.31 2274.18,-149.92"/>
<polygon fill="midnightblue" stroke="midnightblue" points="2275.05,-153.32 2284.23,-148.04 2273.76,-146.44 2275.05,-153.32"/>
</g>
<!-- Node75 -->
<g id="node31" class="node">
<title>Node75</title>
<g id="a_node31"><a xlink:title=" ">
<polygon fill="none" stroke="#bfbfbf" points="2148.5,-62 2148.5,-81 2237.5,-81 2237.5,-62 2148.5,-62"/>
<text text-anchor="middle" x="2193" y="-69" font-family="Helvetica,sans-Serif" font-size="10.00">SFML/Audio.hpp</text>
</a>
</g>
</g>
<!-- Node74&#45;&gt;Node75 -->
<g id="edge39" class="edge">
<title>Node74&#45;&gt;Node75</title>
<path fill="none" stroke="midnightblue" d="M1985.31,-128.89C1991.06,-126.87 1997.23,-124.78 2003,-123 2051.94,-107.87 2108.8,-93.12 2147.48,-83.51"/>
<polygon fill="midnightblue" stroke="midnightblue" points="2148.52,-86.86 2157.39,-81.06 2146.84,-80.06 2148.52,-86.86"/>
</g>
<!-- Node79&#45;&gt;Node4 -->
<g id="edge46" class="edge">
<title>Node79&#45;&gt;Node4</title>
<path fill="none" stroke="midnightblue" d="M183.04,-262.84C198.05,-241.3 237.29,-185 257.14,-156.52"/>
<polygon fill="midnightblue" stroke="midnightblue" points="260.21,-158.23 263.06,-148.02 254.47,-154.22 260.21,-158.23"/>
</g>
<!-- Node65 -->
<g id="node37" class="node">
<title>Node65</title>
<g id="a_node37"><a xlink:title=" ">
<polygon fill="none" stroke="#bfbfbf" points="442,-196 442,-215 496,-215 496,-196 442,-196"/>
<text text-anchor="middle" x="469" y="-203" font-family="Helvetica,sans-Serif" font-size="10.00">iostream</text>
</a>
</g>
</g>
<!-- Node79&#45;&gt;Node65 -->
<g id="edge47" class="edge">
<title>Node79&#45;&gt;Node65</title>
<path fill="none" stroke="midnightblue" d="M215.47,-262.94C271.9,-250.38 376.39,-227.12 431.97,-214.74"/>
<polygon fill="midnightblue" stroke="midnightblue" points="432.76,-218.15 441.76,-212.56 431.24,-211.32 432.76,-218.15"/>
</g>
<!-- Node80 -->
<g id="node38" class="node">
<title>Node80</title>
<g id="a_node38"><a xlink:title=" ">
<polygon fill="none" stroke="#bfbfbf" points="0,-196 0,-215 50,-215 50,-196 0,-196"/>
<text text-anchor="middle" x="25" y="-203" font-family="Helvetica,sans-Serif" font-size="10.00">fstream</text>
</a>
</g>
</g>
<!-- Node79&#45;&gt;Node80 -->
<g id="edge48" class="edge">
<title>Node79&#45;&gt;Node80</title>
<path fill="none" stroke="midnightblue" d="M156.82,-262.87C130.7,-251.7 84.97,-232.15 54.84,-219.26"/>
<polygon fill="midnightblue" stroke="midnightblue" points="55.84,-215.88 45.27,-215.17 53.09,-222.32 55.84,-215.88"/>
</g>
<!-- Node81 -->
<g id="node39" class="node">
<title>Node81</title>
<g id="a_node39"><a xlink:title=" ">
<polygon fill="none" stroke="#bfbfbf" points="68.5,-196 68.5,-215 111.5,-215 111.5,-196 68.5,-196"/>
<text text-anchor="middle" x="90" y="-203" font-family="Helvetica,sans-Serif" font-size="10.00">mutex</text>
</a>
</g>
</g>
<!-- Node79&#45;&gt;Node81 -->
<g id="edge49" class="edge">
<title>Node79&#45;&gt;Node81</title>
<path fill="none" stroke="midnightblue" d="M165.27,-262.73C151.05,-252.11 126.87,-234.05 109.76,-221.26"/>
<polygon fill="midnightblue" stroke="midnightblue" points="111.65,-218.31 101.55,-215.13 107.46,-223.92 111.65,-218.31"/>
</g>
<!-- Node82 -->
<g id="node40" class="node">
<title>Node82</title>
<g id="a_node40"><a xlink:href="_nya_log_8inl.html" target="_top" xlink:title="NyaLog logger implementation.">
<polygon fill="none" stroke="black" points="130,-196 130,-215 192,-215 192,-196 130,-196"/>
<text text-anchor="middle" x="161" y="-203" font-family="Helvetica,sans-Serif" font-size="10.00">NyaLog.inl</text>
</a>
</g>
</g>
<!-- Node79&#45;&gt;Node82 -->
<g id="edge50" class="edge">
<title>Node79&#45;&gt;Node82</title>
<path fill="none" stroke="midnightblue" d="M174.84,-262.73C172.47,-253.09 168.58,-237.3 165.53,-224.91"/>
<polygon fill="midnightblue" stroke="midnightblue" points="168.91,-224 163.12,-215.13 162.12,-225.67 168.91,-224"/>
</g>
<!-- Node86&#45;&gt;Node2 -->
<g id="edge62" class="edge">
<title>Node86&#45;&gt;Node2</title>
<path fill="none" stroke="midnightblue" d="M1450.51,-452.98C1396.9,-444.83 1317.95,-430.85 1251,-411 1235.28,-406.34 1142.64,-367.89 1093.92,-347.54"/>
<polygon fill="midnightblue" stroke="midnightblue" points="1095.09,-344.23 1084.52,-343.6 1092.39,-350.69 1095.09,-344.23"/>
</g>
<!-- Node86&#45;&gt;Node28 -->
<g id="edge56" class="edge">
<title>Node86&#45;&gt;Node28</title>
<path fill="none" stroke="midnightblue" d="M1523.46,-452.89C1545.14,-433.99 1593,-386.45 1593,-335 1593,-335 1593,-335 1593,-204.5 1593,-167.4 1601.98,-148.46 1575,-123 1542.56,-92.38 1425.97,-80.3 1344.38,-75.55"/>
<polygon fill="midnightblue" stroke="midnightblue" points="1344.29,-72.04 1334.12,-74.98 1343.91,-79.03 1344.29,-72.04"/>
</g>
<!-- Node86&#45;&gt;Node50 -->
<g id="edge57" class="edge">
<title>Node86&#45;&gt;Node50</title>
<path fill="none" stroke="midnightblue" d="M1517.98,-452.93C1529.11,-432.97 1555,-381.51 1555,-335 1555,-335 1555,-335 1555,-271.5 1555,-229.58 1528.54,-187 1509.65,-161.94"/>
<polygon fill="midnightblue" stroke="midnightblue" points="1512.25,-159.57 1503.34,-153.83 1506.72,-163.87 1512.25,-159.57"/>
</g>
<!-- Node86&#45;&gt;Node72 -->
<g id="edge59" class="edge">
<title>Node86&#45;&gt;Node72</title>
<path fill="none" stroke="midnightblue" d="M1532.58,-452.86C1601.75,-422.24 1840.86,-315.74 2035,-221 2077.54,-200.24 2125.81,-175.11 2157.69,-158.29"/>
<polygon fill="midnightblue" stroke="midnightblue" points="2159.42,-161.33 2166.62,-153.56 2156.15,-155.14 2159.42,-161.33"/>
</g>
<!-- Node86&#45;&gt;Node75 -->
<g id="edge63" class="edge">
<title>Node86&#45;&gt;Node75</title>
<path fill="none" stroke="midnightblue" d="M1558.49,-452.99C1725.79,-420.7 2302.54,-300.11 2406,-154 2447.36,-95.59 2324.13,-79.04 2248.11,-74.35"/>
<polygon fill="midnightblue" stroke="midnightblue" points="2247.9,-70.83 2237.72,-73.76 2247.51,-77.82 2247.9,-70.83"/>
</g>
<!-- Node87 -->
<g id="node45" class="node">
<title>Node87</title>
<g id="a_node45"><a xlink:title=" ">
<polygon fill="none" stroke="#bfbfbf" points="1293,-380.5 1293,-410.5 1397,-410.5 1397,-380.5 1293,-380.5"/>
<text text-anchor="start" x="1301" y="-398.5" font-family="Helvetica,sans-Serif" font-size="10.00">../../Game/Ennemies</text>
<text text-anchor="middle" x="1345" y="-387.5" font-family="Helvetica,sans-Serif" font-size="10.00">/Ennemies.hpp</text>
</a>
</g>
</g>
<!-- Node86&#45;&gt;Node87 -->
<g id="edge58" class="edge">
<title>Node86&#45;&gt;Node87</title>
<path fill="none" stroke="midnightblue" d="M1490.69,-452.87C1465.37,-443.07 1423.39,-426.83 1390.98,-414.29"/>
<polygon fill="midnightblue" stroke="midnightblue" points="1391.85,-410.87 1381.26,-410.53 1389.32,-417.4 1391.85,-410.87"/>
</g>
<!-- Node88 -->
<g id="node46" class="node">
<title>Node88</title>
<g id="a_node46"><a xlink:href="_player_system_8hpp.html" target="_top" xlink:title=" ">
<polygon fill="none" stroke="red" points="1065.5,-386 1065.5,-405 1160.5,-405 1160.5,-386 1065.5,-386"/>
<text text-anchor="middle" x="1113" y="-393" font-family="Helvetica,sans-Serif" font-size="10.00">PlayerSystem.hpp</text>
</a>
</g>
</g>
<!-- Node86&#45;&gt;Node88 -->
<g id="edge60" class="edge">
<title>Node86&#45;&gt;Node88</title>
<path fill="none" stroke="midnightblue" d="M1449.2,-453.54C1381.04,-444.68 1269.99,-429.17 1175,-411 1169.23,-409.9 1163.18,-408.62 1157.22,-407.3"/>
<polygon fill="midnightblue" stroke="midnightblue" points="1157.86,-403.86 1147.33,-405.05 1156.3,-410.69 1157.86,-403.86"/>
</g>
<!-- Node90 -->
<g id="node47" class="node">
<title>Node90</title>
<g id="a_node47"><a xlink:href="_client_collision_8hpp.html" target="_top" xlink:title=" ">
<polygon fill="none" stroke="black" points="1204,-263 1204,-282 1300,-282 1300,-263 1204,-263"/>
<text text-anchor="middle" x="1252" y="-270" font-family="Helvetica,sans-Serif" font-size="10.00">ClientCollision.hpp</text>
</a>
</g>
</g>
<!-- Node86&#45;&gt;Node90 -->
<g id="edge64" class="edge">
<title>Node86&#45;&gt;Node90</title>
<path fill="none" stroke="midnightblue" d="M1449.48,-455.08C1390.04,-447.77 1307.05,-433.79 1284,-411 1251.84,-379.21 1249.41,-321.82 1250.57,-292.24"/>
<polygon fill="midnightblue" stroke="midnightblue" points="1254.07,-292.25 1251.16,-282.06 1247.09,-291.84 1254.07,-292.25"/>
</g>
<!-- Node91 -->
<g id="node48" class="node">
<title>Node91</title>
<g id="a_node48"><a xlink:title=" ">
<polygon fill="none" stroke="#bfbfbf" points="1415.5,-386 1415.5,-405 1526.5,-405 1526.5,-386 1415.5,-386"/>
<text text-anchor="middle" x="1471" y="-393" font-family="Helvetica,sans-Serif" font-size="10.00">../../Menu/Parallax.hpp</text>
</a>
</g>
</g>
<!-- Node86&#45;&gt;Node91 -->
<g id="edge69" class="edge">
<title>Node86&#45;&gt;Node91</title>
<path fill="none" stroke="midnightblue" d="M1507.34,-452.73C1500.91,-442.79 1490.28,-426.34 1482.17,-413.79"/>
<polygon fill="midnightblue" stroke="midnightblue" points="1484.94,-411.63 1476.57,-405.13 1479.06,-415.43 1484.94,-411.63"/>
</g>
<!-- Node88&#45;&gt;Node2 -->
<g id="edge61" class="edge">
<title>Node88&#45;&gt;Node2</title>
<path fill="none" stroke="midnightblue" d="M1105.98,-385.98C1098.56,-376.96 1086.67,-362.52 1077.43,-351.31"/>
<polygon fill="midnightblue" stroke="midnightblue" points="1080.07,-349 1071.01,-343.51 1074.66,-353.45 1080.07,-349"/>
</g>
<!-- Node90&#45;&gt;Node13 -->
<g id="edge67" class="edge">
<title>Node90&#45;&gt;Node13</title>
<path fill="none" stroke="midnightblue" d="M1208.65,-262.94C1148.78,-251.11 1040.85,-229.78 976.18,-217.01"/>
<polygon fill="midnightblue" stroke="midnightblue" points="976.67,-213.54 966.18,-215.03 975.32,-220.4 976.67,-213.54"/>
</g>
<!-- Node90&#45;&gt;Node28 -->
<g id="edge65" class="edge">
<title>Node90&#45;&gt;Node28</title>
<path fill="none" stroke="midnightblue" d="M1249.76,-262.7C1244.22,-239.59 1231.02,-175.31 1241,-123 1243.15,-111.71 1247.79,-99.72 1252.06,-90.26"/>
<polygon fill="midnightblue" stroke="midnightblue" points="1255.26,-91.67 1256.41,-81.13 1248.95,-88.65 1255.26,-91.67"/>
</g>
<!-- Node90&#45;&gt;Node33 -->
<g id="edge66" class="edge">
<title>Node90&#45;&gt;Node33</title>
<path fill="none" stroke="midnightblue" d="M1262.25,-262.73C1272.82,-253.7 1289.68,-239.27 1303.68,-227.3"/>
<polygon fill="midnightblue" stroke="midnightblue" points="1306.2,-229.75 1311.53,-220.59 1301.65,-224.43 1306.2,-229.75"/>
</g>
<!-- Node90&#45;&gt;Node65 -->
<g id="edge68" class="edge">
<title>Node90&#45;&gt;Node65</title>
<path fill="none" stroke="midnightblue" d="M1203.79,-263.22C1188.83,-260.9 1172.27,-258.59 1157,-257 870.54,-227.24 792.39,-277.58 510,-221 506.49,-220.3 502.87,-219.36 499.31,-218.29"/>
<polygon fill="midnightblue" stroke="midnightblue" points="500.13,-214.88 489.54,-215.05 497.92,-221.52 500.13,-214.88"/>
</g>
</g>
</svg>
